<svg width="140" height="40" viewBox="0 0 140 40" fill="none" xmlns="http://www.w3.org/2000/svg">
<rect x="100" width="40" height="40" rx="20" fill="white"/>
<rect x="100.5" y="0.5" width="39" height="39" rx="19.5" stroke="black" stroke-opacity="0.06"/>
<g clip-path="url(#clip0_7584_12199)">
<path d="M131.601 17.524L131.567 17.4378L128.3 8.91269C128.234 8.7456 128.116 8.60386 127.964 8.50781C127.812 8.41338 127.634 8.3679 127.456 8.37751C127.277 8.38712 127.105 8.45135 126.964 8.56154C126.825 8.67489 126.724 8.82848 126.674 9.00142L124.469 15.7495H115.537L113.332 9.00142C113.284 8.82754 113.183 8.67318 113.042 8.56029C112.901 8.4501 112.729 8.38587 112.551 8.37626C112.372 8.36665 112.194 8.41213 112.042 8.50656C111.891 8.603 111.773 8.74462 111.706 8.91144L108.433 17.4328L108.401 17.519C107.93 18.7477 107.872 20.0959 108.235 21.3605C108.598 22.625 109.362 23.7373 110.413 24.5296L110.424 24.5383L110.454 24.5596L115.43 28.286L117.892 30.1493L119.391 31.2815C119.567 31.4146 119.781 31.4867 120.001 31.4867C120.221 31.4867 120.436 31.4146 120.611 31.2815L122.111 30.1493L124.572 28.286L129.579 24.5371L129.591 24.5271C130.639 23.7346 131.401 22.6235 131.764 21.3607C132.126 20.0979 132.069 18.7515 131.601 17.524Z" fill="#E24329"/>
<path d="M131.601 17.5242L131.567 17.438C129.975 17.7647 128.475 18.4389 127.174 19.4124L120 24.8372C122.443 26.6854 124.57 28.2912 124.57 28.2912L129.576 24.5423L129.589 24.5323C130.638 23.7398 131.402 22.628 131.764 21.3641C132.127 20.1002 132.07 18.7526 131.601 17.5242Z" fill="#FC6D26"/>
<path d="M115.43 28.291L117.892 30.1542L119.392 31.2864C119.567 31.4195 119.781 31.4916 120.001 31.4916C120.222 31.4916 120.436 31.4195 120.611 31.2864L122.111 30.1542L124.573 28.291C124.573 28.291 122.443 26.6802 120 24.8369C117.557 26.6802 115.43 28.291 115.43 28.291Z" fill="#FCA326"/>
<path d="M112.825 19.4121C111.525 18.4365 110.025 17.7606 108.433 17.4326L108.401 17.5188C107.93 18.7475 107.872 20.0957 108.235 21.3603C108.598 22.6248 109.362 23.7371 110.413 24.5294L110.424 24.5381L110.454 24.5594L115.43 28.2858C115.43 28.2858 117.554 26.68 120 24.8318L112.825 19.4121Z" fill="#FC6D26"/>
</g>
<rect x="75" width="40" height="40" rx="20" fill="white"/>
<rect x="75.5" y="0.5" width="39" height="39" rx="19.5" stroke="black" stroke-opacity="0.06"/>
<g clip-path="url(#clip1_7584_12199)">
<mask id="mask0_7584_12199" style="mask-type:luminance" maskUnits="userSpaceOnUse" x="83" y="8" width="24" height="24">
<path d="M106.522 17.7737H95.2492V22.3873H101.727C101.623 23.0403 101.389 23.6826 101.046 24.2683C100.654 24.9393 100.169 25.4502 99.672 25.8392C98.183 27.0046 96.447 27.2429 95.2413 27.2429C92.1957 27.2429 89.5935 25.2325 88.5861 22.5006C88.5454 22.4014 88.5184 22.299 88.4856 22.1978C88.2629 21.5025 88.1413 20.7661 88.1413 20.0008C88.1413 19.2042 88.273 18.4417 88.5132 17.7216C89.4605 14.8814 92.1214 12.7601 95.2435 12.7601C95.8715 12.7601 96.4762 12.8364 97.0497 12.9887C98.3603 13.3367 99.2874 14.0221 99.8555 14.5643L103.283 11.1358C101.198 9.18317 98.4801 8 95.2378 8C92.6459 7.99994 90.2528 8.82478 88.2919 10.2188C86.7015 11.3493 85.3973 12.8629 84.517 14.6208C83.6983 16.2507 83.25 18.0569 83.25 19.999C83.25 21.9411 83.699 23.7661 84.5177 25.381V25.3918C85.3825 27.1062 86.6471 28.5823 88.1842 29.7076C89.5269 30.6907 91.9346 32 95.2378 32C97.1374 32 98.821 31.6502 100.306 30.9946C101.377 30.5217 102.326 29.9049 103.185 29.1122C104.32 28.0647 105.209 26.7691 105.816 25.2785C106.423 23.7878 106.748 22.1022 106.748 20.2747C106.748 19.4236 106.664 18.5592 106.522 17.7736V17.7737Z" fill="white"/>
</mask>
<g mask="url(#mask0_7584_12199)">
<g filter="url(#filter0_f_7584_12199)">
<path d="M83.0771 20.0806C83.0896 21.9921 83.6229 23.9642 84.4301 25.5563V25.5673C85.0133 26.7235 85.8105 27.6368 86.7184 28.5417L92.2019 26.4982C91.1645 25.9599 91.0062 25.6301 90.2625 25.0282C89.5025 24.2455 88.9361 23.347 88.5833 22.2934H88.5691L88.5833 22.2824C88.3513 21.5866 88.3284 20.8481 88.3198 20.0806H83.0771Z" fill="url(#paint0_radial_7584_12199)"/>
</g>
<g filter="url(#filter1_f_7584_12199)">
<path d="M95.2493 7.9126C94.7073 9.85739 94.9145 11.7478 95.2493 12.8477C95.8751 12.8482 96.4781 12.9244 97.0498 13.0762C98.3604 13.4242 99.2874 14.1096 99.8554 14.6518L103.371 11.1357C101.288 9.18543 98.7821 7.91567 95.2493 7.9126Z" fill="url(#paint1_radial_7584_12199)"/>
</g>
<g filter="url(#filter2_f_7584_12199)">
<path d="M95.2374 7.89746C92.5789 7.8974 90.1245 8.74342 88.1132 10.1732C87.3664 10.7041 86.681 11.3174 86.0708 11.9993C85.9109 13.5312 87.2675 15.414 89.954 15.3984C91.2575 13.8498 93.1853 12.8478 95.331 12.8478C95.333 12.8478 95.3349 12.8479 95.3368 12.848L95.2492 7.89781C95.2452 7.89781 95.2414 7.89746 95.2374 7.89746Z" fill="url(#paint2_radial_7584_12199)"/>
</g>
<g filter="url(#filter3_f_7584_12199)">
<path d="M104.012 20.635L101.639 22.2999C101.535 22.9529 101.301 23.5952 100.959 24.1809C100.566 24.8519 100.081 25.3628 99.5843 25.7519C98.0984 26.9149 96.367 27.1543 95.1616 27.1553C93.9158 29.3225 93.6974 30.408 95.2493 32.1571C97.1695 32.1557 98.8719 31.8017 100.374 31.1387C101.459 30.6594 102.421 30.0343 103.291 29.2309C104.442 28.1694 105.343 26.8564 105.958 25.3458C106.573 23.8351 106.902 22.1269 106.902 20.2749L104.012 20.635Z" fill="url(#paint3_radial_7584_12199)"/>
</g>
<g filter="url(#filter4_f_7584_12199)">
<path d="M95.074 17.5986V22.5628H106.491C106.591 21.883 106.923 21.0032 106.923 20.2749C106.923 19.4238 106.839 18.3842 106.697 17.5986H95.074Z" fill="#3086FF"/>
</g>
<g filter="url(#filter5_f_7584_12199)">
<path d="M86.1253 11.8237C85.4208 12.611 84.8189 13.4923 84.3417 14.4453C83.523 16.0752 83.0747 18.0567 83.0747 19.9988C83.0747 20.0262 83.0769 20.0529 83.0771 20.0803C83.4397 20.7903 88.0856 20.6543 88.3198 20.0803C88.3195 20.0535 88.3165 20.0273 88.3165 20.0005C88.3165 19.204 88.4483 18.6168 88.6884 17.8967C88.9847 17.0084 89.4486 16.1905 90.0418 15.4857C90.1762 15.3104 90.5349 14.9334 90.6395 14.7073C90.6794 14.6212 90.5672 14.5729 90.5609 14.5425C90.5539 14.5086 90.4034 14.5359 90.3697 14.5106C90.2627 14.4305 90.0507 14.3886 89.922 14.3514C89.6469 14.2718 89.191 14.0964 88.9378 13.9145C88.1373 13.3396 86.8882 12.6529 86.1253 11.8237Z" fill="url(#paint4_radial_7584_12199)"/>
</g>
<g filter="url(#filter6_f_7584_12199)">
<path d="M88.9551 14.5462C90.8112 15.6945 91.345 13.9665 92.5791 13.4258L90.4324 8.87891C89.6427 9.2179 88.8966 9.63907 88.2043 10.1312C87.1705 10.8661 86.2576 11.7629 85.5034 12.7835L88.9551 14.5462Z" fill="url(#paint5_radial_7584_12199)"/>
</g>
<g filter="url(#filter7_f_7584_12199)">
<path d="M89.7104 26.1469C87.2188 27.0657 86.8287 27.0986 86.5994 28.6758C87.0376 29.1126 87.5086 29.5167 88.009 29.883C89.3517 30.8661 91.9346 32.1754 95.2378 32.1754C95.2417 32.1754 95.2454 32.1751 95.2493 32.1751V27.0676C95.2468 27.0676 95.2439 27.0678 95.2414 27.0678C94.0045 27.0678 93.016 26.736 92.0025 26.1589C91.7527 26.0166 91.2993 26.3987 91.0689 26.2279C90.751 25.9923 89.9861 26.4309 89.7104 26.1469Z" fill="url(#paint6_radial_7584_12199)"/>
</g>
<g opacity="0.5" filter="url(#filter8_f_7584_12199)">
<path d="M93.79 26.9067V32.0866C94.2522 32.1419 94.7332 32.1754 95.2378 32.1754C95.7436 32.1754 96.233 32.1489 96.7085 32.1001V26.9417C96.1756 27.0347 95.6737 27.0678 95.2414 27.0678C94.7435 27.0678 94.2592 27.0086 93.79 26.9067Z" fill="url(#paint7_linear_7584_12199)"/>
</g>
</g>
</g>
<rect x="50" width="40" height="40" rx="20" fill="white"/>
<rect x="50.5" y="0.5" width="39" height="39" rx="19.5" stroke="black" stroke-opacity="0.06"/>
<path d="M63.0693 26.7092C63.5867 27.0318 64.4467 27.3905 65.356 27.3905C66.184 27.3905 66.9533 27.1505 67.5907 26.7412C67.5907 26.7412 67.592 26.7412 67.5933 26.7398L70 25.2358V30.6665C69.6187 30.6665 69.2347 30.5625 68.9013 30.3545L63.0693 26.7092Z" fill="#225086"/>
<path d="M68.4707 10.0095L58.4707 21.2895C57.6987 22.1615 57.9 23.4788 58.9013 24.1042C58.9013 24.1042 62.6027 26.4175 63.0693 26.7095C63.5867 27.0322 64.4467 27.3908 65.356 27.3908C66.184 27.3908 66.9533 27.1508 67.5907 26.7415C67.5907 26.7415 67.592 26.7415 67.5933 26.7402L70 25.2362L64.1813 21.5988L70.0013 15.0335V9.3335C69.436 9.3335 68.8707 9.55883 68.4707 10.0095Z" fill="#66DDFF"/>
<path d="M64.1814 21.5985L64.2507 21.6412L70.0001 25.2359H70.0014V15.0345L70.0001 15.0332L64.1814 21.5985Z" fill="#CBF8FF"/>
<path d="M81.0986 24.104C82.0999 23.4787 82.3012 22.1613 81.5292 21.2893L74.9679 13.888C74.4386 13.6413 73.8452 13.5 73.2172 13.5C71.9839 13.5 70.8812 14.032 70.1479 14.868L70.0026 15.032L75.8212 21.5973L70.0012 25.2347V30.6653C70.3839 30.6653 70.7652 30.5613 71.0986 30.3533L81.0986 24.1027V24.104Z" fill="#074793"/>
<path d="M70.0013 9.3335V15.0335L70.1467 14.8695C70.88 14.0335 71.9827 13.5015 73.216 13.5015C73.8453 13.5015 74.4373 13.6442 74.9667 13.8895L71.528 10.0108C71.1293 9.56016 70.564 9.33483 70 9.33483L70.0013 9.3335Z" fill="#0294E4"/>
<path d="M75.8199 21.5987L70.0012 15.0347V25.2347L75.8199 21.5987Z" fill="#96BCC2"/>
<rect x="25" width="40" height="40" rx="20" fill="white"/>
<rect x="25.5" y="0.5" width="39" height="39" rx="19.5" stroke="black" stroke-opacity="0.06"/>
<g clip-path="url(#clip2_7584_12199)">
<path fill-rule="evenodd" clip-rule="evenodd" d="M46.2018 8.16667L45.7084 14.2467C45.4751 14.22 45.2418 14.2067 45.0018 14.2067C44.7018 14.2067 44.4084 14.2267 44.1218 14.2733L43.8418 11.3267C43.8351 11.2333 43.9084 11.1533 44.0018 11.1533H44.5018L44.2618 8.17333C44.2551 8.08 44.3284 8 44.4151 8H46.0484C46.1418 8 46.2151 8.08 46.2018 8.17333V8.16667ZM42.0818 8.46667C42.0551 8.38 41.9618 8.32667 41.8751 8.36L40.3418 8.92C40.2551 8.95333 40.2151 9.05333 40.2551 9.13333L41.5018 11.8533L41.0284 12.0267C40.9418 12.06 40.9018 12.16 40.9418 12.24L42.2151 14.9133C42.6751 14.66 43.1751 14.4667 43.7018 14.3467L42.0884 8.46667H42.0818ZM38.3218 10.16L41.8484 15.1333C41.4018 15.4267 40.9951 15.7733 40.6484 16.1733L38.5351 14.0933C38.4684 14.0267 38.4751 13.92 38.5418 13.86L38.9284 13.54L36.8284 11.4133C36.7618 11.3467 36.7684 11.24 36.8418 11.18L38.0884 10.1333C38.1618 10.0733 38.2618 10.0867 38.3151 10.16H38.3218ZM35.3618 13.04C35.2884 12.9867 35.1818 13.0133 35.1351 13.0933L34.3218 14.5067C34.2751 14.5867 34.3084 14.6867 34.3884 14.7267L37.0951 16.0067L36.8418 16.44C36.7951 16.52 36.8284 16.6267 36.9151 16.66L39.6084 17.8933C39.8018 17.3933 40.0618 16.9267 40.3818 16.5067L35.3618 13.04ZM33.3684 16.88C33.3818 16.7867 33.4751 16.7333 33.5618 16.7533L39.4618 18.2933C39.3084 18.7933 39.2218 19.32 39.2084 19.8667L36.2551 19.6267C36.1618 19.62 36.0951 19.5333 36.1151 19.44L36.2018 18.9467L33.2218 18.6667C33.1284 18.66 33.0684 18.5733 33.0818 18.48L33.3618 16.8733L33.3684 16.88ZM33.1484 20.8667C33.0551 20.8733 32.9951 20.96 33.0084 21.0533L33.2951 22.66C33.3084 22.7533 33.4018 22.8067 33.4884 22.7867L36.3818 22.0333L36.4684 22.5267C36.4818 22.62 36.5751 22.6733 36.6618 22.6533L39.5151 21.8667C39.3484 21.3733 39.2418 20.8467 39.2151 20.3067L33.1418 20.8667H33.1484ZM34.0951 25.0933C34.0484 25.0133 34.0818 24.9133 34.1618 24.8733L39.6684 22.26C39.8751 22.7533 40.1551 23.2133 40.4884 23.6267L38.0751 25.3467C38.0018 25.4 37.8951 25.38 37.8484 25.3L37.5951 24.86L35.1351 26.56C35.0618 26.6133 34.9551 26.5867 34.9084 26.5067L34.0884 25.0933H34.0951ZM40.7684 23.9467L36.4818 28.2867C36.4151 28.3533 36.4218 28.46 36.4951 28.52L37.7484 29.5667C37.8218 29.6267 37.9218 29.6133 37.9751 29.54L39.7084 27.1L40.0951 27.4267C40.1684 27.4867 40.2751 27.4733 40.3284 27.3933L42.0084 24.9533C41.5551 24.6733 41.1351 24.3333 40.7751 23.9467H40.7684ZM39.9218 30.9133C39.8351 30.88 39.7951 30.78 39.8351 30.7L42.3751 25.1533C42.8418 25.3933 43.3484 25.5733 43.8751 25.6733L43.1284 28.54C43.1084 28.6267 43.0084 28.68 42.9218 28.6467L42.4484 28.4733L41.6551 31.36C41.6284 31.4467 41.5351 31.5 41.4484 31.4667L39.9151 30.9067L39.9218 30.9133ZM44.2951 25.7467L43.8018 31.8267C43.7951 31.92 43.8684 32 43.9551 32H45.5884C45.6818 32 45.7551 31.92 45.7418 31.8267L45.5018 28.8467H46.0018C46.0951 28.8467 46.1684 28.7667 46.1618 28.6733L45.8818 25.7267C45.5951 25.7733 45.3018 25.7933 45.0018 25.7933C44.7618 25.7933 44.5284 25.78 44.2951 25.7467ZM50.1751 9.28667C50.2151 9.2 50.1751 9.10667 50.0884 9.07333L48.5551 8.51333C48.4684 8.48 48.3751 8.53333 48.3484 8.62L47.5551 11.5067L47.0818 11.3333C46.9951 11.3 46.9018 11.3533 46.8751 11.44L46.1284 14.3067C46.6618 14.4133 47.1618 14.5933 47.6284 14.8267L50.1751 9.28667ZM53.5218 11.7067L49.2351 16.0467C48.8751 15.66 48.4618 15.32 48.0018 15.04L49.6818 12.6C49.7351 12.5267 49.8418 12.5067 49.9151 12.5667L50.3018 12.8933L52.0351 10.4533C52.0884 10.38 52.1951 10.3667 52.2618 10.4267L53.5151 11.4733C53.5884 11.5333 53.5884 11.64 53.5284 11.7067H53.5218ZM55.8418 15.12C55.9284 15.08 55.9551 14.98 55.9084 14.9L55.0884 13.4867C55.0418 13.4067 54.9351 13.3867 54.8618 13.4333L52.4018 15.1333L52.1484 14.7C52.1018 14.62 51.9951 14.5933 51.9218 14.6533L49.5084 16.3733C49.8418 16.7867 50.1151 17.2467 50.3284 17.74L55.8351 15.1267L55.8418 15.12ZM56.7084 17.3333L56.9884 18.94C57.0018 19.0333 56.9418 19.1133 56.8484 19.1267L50.7751 19.6933C50.7484 19.1467 50.6418 18.6267 50.4751 18.1333L53.3284 17.3467C53.4151 17.32 53.5084 17.38 53.5218 17.4733L53.6084 17.9667L56.5018 17.2133C56.5884 17.1933 56.6818 17.2467 56.6951 17.34L56.7084 17.3333ZM56.4351 23.2333C56.5218 23.2533 56.6151 23.2 56.6284 23.1067L56.9084 21.5C56.9218 21.4067 56.8618 21.3267 56.7684 21.3133L53.7884 21.0333L53.8751 20.54C53.8884 20.4467 53.8284 20.3667 53.7351 20.3533L50.7818 20.1133C50.7684 20.66 50.6818 21.1867 50.5284 21.6867L56.4284 23.2267L56.4351 23.2333ZM54.8618 26.9C54.8151 26.98 54.7084 27 54.6351 26.9533L49.6151 23.4867C49.9351 23.0667 50.1951 22.6 50.3884 22.1L53.0818 23.3333C53.1684 23.3733 53.2018 23.4733 53.1551 23.5533L52.9018 23.9867L55.6084 25.2667C55.6884 25.3067 55.7218 25.4067 55.6751 25.4867L54.8618 26.9ZM48.1484 24.8533L51.6751 29.8267C51.7284 29.9 51.8351 29.9133 51.9018 29.8533L53.1484 28.8067C53.2218 28.7467 53.2218 28.64 53.1618 28.5733L51.0618 26.4467L51.4484 26.1267C51.5218 26.0667 51.5218 25.96 51.4551 25.8933L49.3418 23.8133C48.9884 24.2133 48.5884 24.5667 48.1418 24.8533H48.1484ZM48.1151 31.6267C48.0284 31.66 47.9351 31.6067 47.9084 31.52L46.2951 25.64C46.8218 25.52 47.3218 25.3267 47.7818 25.0733L49.0551 27.7467C49.0951 27.8333 49.0551 27.9333 48.9684 27.96L48.4951 28.1333L49.7418 30.8533C49.7818 30.94 49.7418 31.0333 49.6551 31.0667L48.1218 31.6267H48.1151Z" fill="black"/>
</g>
<rect width="40" height="40" rx="20" fill="white"/>
<rect x="0.5" y="0.5" width="39" height="39" rx="19.5" stroke="black" stroke-opacity="0.06"/>
<g clip-path="url(#clip3_7584_12199)">
<path d="M20 8.3335C26.63 8.3335 32 13.7035 32 20.3335C31.9994 22.8478 31.2103 25.2986 29.7438 27.3409C28.2773 29.3833 26.2072 30.9143 23.825 31.7185C23.225 31.8385 23 31.4635 23 31.1485C23 30.7435 23.015 29.4535 23.015 27.8485C23.015 26.7235 22.64 26.0035 22.205 25.6285C24.875 25.3285 27.68 24.3085 27.68 19.7035C27.68 18.3835 27.215 17.3185 26.45 16.4785C26.57 16.1785 26.99 14.9485 26.33 13.2985C26.33 13.2985 25.325 12.9685 23.03 14.5285C22.07 14.2585 21.05 14.1235 20.03 14.1235C19.01 14.1235 17.99 14.2585 17.03 14.5285C14.735 12.9835 13.73 13.2985 13.73 13.2985C13.07 14.9485 13.49 16.1785 13.61 16.4785C12.845 17.3185 12.38 18.3985 12.38 19.7035C12.38 24.2935 15.17 25.3285 17.84 25.6285C17.495 25.9285 17.18 26.4535 17.075 27.2335C16.385 27.5485 14.66 28.0585 13.58 26.2435C13.355 25.8835 12.68 24.9985 11.735 25.0135C10.73 25.0285 11.33 25.5835 11.75 25.8085C12.26 26.0935 12.845 27.1585 12.98 27.5035C13.22 28.1785 14 29.4685 17.015 28.9135C17.015 29.9185 17.03 30.8635 17.03 31.1485C17.03 31.4635 16.805 31.8235 16.205 31.7185C13.815 30.9229 11.7361 29.395 10.2633 27.3515C8.79057 25.3079 7.99868 22.8525 8 20.3335C8 13.7035 13.37 8.3335 20 8.3335Z" fill="black"/>
</g>
<defs>
<filter id="filter0_f_7584_12199" x="82.6071" y="19.6105" width="10.0649" height="9.4011" filterUnits="userSpaceOnUse" color-interpolation-filters="sRGB">
<feFlood flood-opacity="0" result="BackgroundImageFix"/>
<feBlend mode="normal" in="SourceGraphic" in2="BackgroundImageFix" result="shape"/>
<feGaussianBlur stdDeviation="0.23504" result="effect1_foregroundBlur_7584_12199"/>
</filter>
<filter id="filter1_f_7584_12199" x="94.4459" y="7.44252" width="9.39499" height="7.67942" filterUnits="userSpaceOnUse" color-interpolation-filters="sRGB">
<feFlood flood-opacity="0" result="BackgroundImageFix"/>
<feBlend mode="normal" in="SourceGraphic" in2="BackgroundImageFix" result="shape"/>
<feGaussianBlur stdDeviation="0.23504" result="effect1_foregroundBlur_7584_12199"/>
</filter>
<filter id="filter2_f_7584_12199" x="85.588" y="7.42738" width="10.219" height="8.44114" filterUnits="userSpaceOnUse" color-interpolation-filters="sRGB">
<feFlood flood-opacity="0" result="BackgroundImageFix"/>
<feBlend mode="normal" in="SourceGraphic" in2="BackgroundImageFix" result="shape"/>
<feGaussianBlur stdDeviation="0.23504" result="effect1_foregroundBlur_7584_12199"/>
</filter>
<filter id="filter3_f_7584_12199" x="93.6857" y="19.8048" width="13.6865" height="12.8225" filterUnits="userSpaceOnUse" color-interpolation-filters="sRGB">
<feFlood flood-opacity="0" result="BackgroundImageFix"/>
<feBlend mode="normal" in="SourceGraphic" in2="BackgroundImageFix" result="shape"/>
<feGaussianBlur stdDeviation="0.23504" result="effect1_foregroundBlur_7584_12199"/>
</filter>
<filter id="filter4_f_7584_12199" x="94.6039" y="17.1286" width="12.7893" height="5.90451" filterUnits="userSpaceOnUse" color-interpolation-filters="sRGB">
<feFlood flood-opacity="0" result="BackgroundImageFix"/>
<feBlend mode="normal" in="SourceGraphic" in2="BackgroundImageFix" result="shape"/>
<feGaussianBlur stdDeviation="0.23504" result="effect1_foregroundBlur_7584_12199"/>
</filter>
<filter id="filter5_f_7584_12199" x="82.6046" y="11.3537" width="8.51364" height="9.67942" filterUnits="userSpaceOnUse" color-interpolation-filters="sRGB">
<feFlood flood-opacity="0" result="BackgroundImageFix"/>
<feBlend mode="normal" in="SourceGraphic" in2="BackgroundImageFix" result="shape"/>
<feGaussianBlur stdDeviation="0.23504" result="effect1_foregroundBlur_7584_12199"/>
</filter>
<filter id="filter6_f_7584_12199" x="82.1986" y="5.57406" width="13.6854" height="12.6629" filterUnits="userSpaceOnUse" color-interpolation-filters="sRGB">
<feFlood flood-opacity="0" result="BackgroundImageFix"/>
<feBlend mode="normal" in="SourceGraphic" in2="BackgroundImageFix" result="shape"/>
<feGaussianBlur stdDeviation="1.65243" result="effect1_foregroundBlur_7584_12199"/>
</filter>
<filter id="filter7_f_7584_12199" x="86.1293" y="25.6564" width="9.59006" height="6.98899" filterUnits="userSpaceOnUse" color-interpolation-filters="sRGB">
<feFlood flood-opacity="0" result="BackgroundImageFix"/>
<feBlend mode="normal" in="SourceGraphic" in2="BackgroundImageFix" result="shape"/>
<feGaussianBlur stdDeviation="0.23504" result="effect1_foregroundBlur_7584_12199"/>
</filter>
<filter id="filter8_f_7584_12199" x="93.32" y="26.4367" width="3.85862" height="6.20871" filterUnits="userSpaceOnUse" color-interpolation-filters="sRGB">
<feFlood flood-opacity="0" result="BackgroundImageFix"/>
<feBlend mode="normal" in="SourceGraphic" in2="BackgroundImageFix" result="shape"/>
<feGaussianBlur stdDeviation="0.23504" result="effect1_foregroundBlur_7584_12199"/>
</filter>
<radialGradient id="paint0_radial_7584_12199" cx="0" cy="0" r="1" gradientUnits="userSpaceOnUse" gradientTransform="translate(92.0922 28.3617) rotate(-92.3395) scale(11.9619 17.5706)">
<stop offset="0.141612" stop-color="#1ABD4D"/>
<stop offset="0.247515" stop-color="#6EC30D"/>
<stop offset="0.311547" stop-color="#8AC502"/>
<stop offset="0.366013" stop-color="#A2C600"/>
<stop offset="0.445673" stop-color="#C8C903"/>
<stop offset="0.540305" stop-color="#EBCB03"/>
<stop offset="0.615636" stop-color="#F7CD07"/>
<stop offset="0.699345" stop-color="#FDCD04"/>
<stop offset="0.771242" stop-color="#FDCE05"/>
<stop offset="0.860566" stop-color="#FFCE0A"/>
</radialGradient>
<radialGradient id="paint1_radial_7584_12199" cx="0" cy="0" r="1" gradientTransform="matrix(8.29246 -2.03557e-05 -1.16554e-05 10.7093 103.042 14.3974)" gradientUnits="userSpaceOnUse">
<stop offset="0.408458" stop-color="#FB4E5A"/>
<stop offset="1" stop-color="#FF4540"/>
</radialGradient>
<radialGradient id="paint2_radial_7584_12199" cx="0" cy="0" r="1" gradientUnits="userSpaceOnUse" gradientTransform="translate(98.5133 6.34726) rotate(151.02) scale(13.2813 18.0227)">
<stop offset="0.231273" stop-color="#FF4541"/>
<stop offset="0.311547" stop-color="#FF4540"/>
<stop offset="0.457516" stop-color="#FF4640"/>
<stop offset="0.540305" stop-color="#FF473F"/>
<stop offset="0.699346" stop-color="#FF5138"/>
<stop offset="0.771242" stop-color="#FF5B33"/>
<stop offset="0.860566" stop-color="#FF6C29"/>
<stop offset="1" stop-color="#FF8C18"/>
</radialGradient>
<radialGradient id="paint3_radial_7584_12199" cx="0" cy="0" r="1" gradientUnits="userSpaceOnUse" gradientTransform="translate(95.422 30.6038) rotate(-127.454) scale(34.6477 12.7893)">
<stop offset="0.131546" stop-color="#0CBA65"/>
<stop offset="0.209784" stop-color="#0BB86D"/>
<stop offset="0.297297" stop-color="#09B479"/>
<stop offset="0.396257" stop-color="#08AD93"/>
<stop offset="0.477124" stop-color="#0AA6A9"/>
<stop offset="0.568425" stop-color="#0D9CC6"/>
<stop offset="0.667385" stop-color="#1893DD"/>
<stop offset="0.768727" stop-color="#258BF1"/>
<stop offset="0.858506" stop-color="#3086FF"/>
</radialGradient>
<radialGradient id="paint4_radial_7584_12199" cx="0" cy="0" r="1" gradientUnits="userSpaceOnUse" gradientTransform="translate(94.2196 10.1639) rotate(96.6178) scale(12.9384 17.8896)">
<stop offset="0.366013" stop-color="#FF4E3A"/>
<stop offset="0.457516" stop-color="#FF8A1B"/>
<stop offset="0.540305" stop-color="#FFA312"/>
<stop offset="0.615636" stop-color="#FFB60C"/>
<stop offset="0.771242" stop-color="#FFCD0A"/>
<stop offset="0.860566" stop-color="#FECF0A"/>
<stop offset="0.915033" stop-color="#FECF08"/>
<stop offset="1" stop-color="#FDCD01"/>
</radialGradient>
<radialGradient id="paint5_radial_7584_12199" cx="0" cy="0" r="1" gradientUnits="userSpaceOnUse" gradientTransform="translate(92.1229 10.0308) rotate(132.119) scale(6.42638 18.1259)">
<stop offset="0.315904" stop-color="#FF4C3C"/>
<stop offset="0.603818" stop-color="#FF692C"/>
<stop offset="0.726837" stop-color="#FF7825"/>
<stop offset="0.884534" stop-color="#FF8D1B"/>
<stop offset="1" stop-color="#FF9F13"/>
</radialGradient>
<radialGradient id="paint6_radial_7584_12199" cx="0" cy="0" r="1" gradientUnits="userSpaceOnUse" gradientTransform="translate(98.5134 33.6527) rotate(-151.02) scale(13.2813 18.0227)">
<stop offset="0.231273" stop-color="#0FBC5F"/>
<stop offset="0.311547" stop-color="#0FBC5F"/>
<stop offset="0.366013" stop-color="#0FBC5E"/>
<stop offset="0.457516" stop-color="#0FBC5D"/>
<stop offset="0.540305" stop-color="#12BC58"/>
<stop offset="0.699346" stop-color="#28BF3C"/>
<stop offset="0.771242" stop-color="#38C02B"/>
<stop offset="0.860566" stop-color="#52C218"/>
<stop offset="0.915033" stop-color="#67C30F"/>
<stop offset="1" stop-color="#86C504"/>
</radialGradient>
<linearGradient id="paint7_linear_7584_12199" x1="93.79" y1="29.5411" x2="96.7085" y2="29.5411" gradientUnits="userSpaceOnUse">
<stop stop-color="#0FBC5C"/>
<stop offset="1" stop-color="#0CBA65"/>
</linearGradient>
<clipPath id="clip0_7584_12199">
<rect width="24" height="24" fill="white" transform="translate(108 8)"/>
</clipPath>
<clipPath id="clip1_7584_12199">
<rect width="24" height="24" fill="white" transform="translate(83 8)"/>
</clipPath>
<clipPath id="clip2_7584_12199">
<rect width="24" height="24" fill="white" transform="translate(33 8)"/>
</clipPath>
<clipPath id="clip3_7584_12199">
<rect width="24" height="24" fill="white" transform="translate(8 8)"/>
</clipPath>
</defs>
</svg>
