<svg width="40" height="41" viewBox="0 0 40 41" fill="none" xmlns="http://www.w3.org/2000/svg">
<path d="M19.9306 0.933914C19.9728 0.933914 20.0151 0.986722 20.0785 1.08178C20.1313 1.16627 24.5777 6.49994 29.9642 12.932C35.3508 19.3641 39.7444 24.6556 39.7233 24.6871C39.7126 24.7189 35.4246 28.236 30.1967 32.4923C24.9686 36.7487 20.5221 40.3713 20.3213 40.5403C19.9728 40.8255 19.9518 40.836 19.825 40.7093C19.7511 40.6353 15.294 36.9916 9.91811 32.6085C4.5422 28.2254 0.159088 24.6133 0.180212 24.5604C0.201335 24.5076 4.61614 19.2373 10.0132 12.837C15.4102 6.43657 19.825 1.14515 19.8461 1.06066C19.8673 0.976161 19.8989 0.933914 19.9306 0.933914Z" fill="#00BEF2"/>
<path d="M19.2019 34.446C18.5893 34.2242 17.8499 33.5905 17.5437 32.9991C17.1634 32.2703 17.1952 31.1296 17.6176 30.2214C17.9449 29.5454 17.9449 29.5242 17.7337 29.3657C17.6176 29.2812 16.2129 28.4997 14.6286 27.6443C13.0444 26.7888 11.6608 26.0388 11.5657 25.9861C11.439 25.9121 11.2278 25.9861 10.8475 26.229C9.61182 27.0105 8.32329 26.926 7.30937 25.9861C6.58061 25.3101 6.36938 24.8348 6.36938 23.8631C6.36938 22.9232 6.5595 22.4374 7.16151 21.8352C7.97476 21.022 9.06262 20.7475 10.1082 21.096C10.6786 21.286 10.6891 21.286 11.0482 21.0115C11.4707 20.6947 14.861 17.6001 16.498 16.0475L17.6282 14.9702L17.2902 14.2626C16.6037 12.8367 16.9522 11.2525 18.1562 10.3019C18.8111 9.78439 19.2969 9.62597 20.2369 9.62597C22.4337 9.62597 23.9652 11.9284 23.1414 13.9879C22.9195 14.5583 22.9195 14.5688 23.1308 14.9174C23.3104 15.2237 26.3626 18.9098 27.9786 20.7897C28.2638 21.117 28.5807 21.3812 28.6863 21.3812C28.7918 21.3812 29.151 21.2755 29.489 21.1488C31.0627 20.5257 32.7209 21.2227 33.3756 22.7859C33.7981 23.7892 33.4286 25.1411 32.5307 25.9543C31.897 26.5248 31.4324 26.7043 30.5874 26.7043C29.996 26.7043 29.7742 26.6408 29.151 26.3028C28.6863 26.0494 28.3272 25.9226 28.1793 25.9649C27.9258 26.0283 24.0286 28.7004 23.1625 29.3975C22.6345 29.8305 22.5922 29.9889 22.8667 30.6332C23.1308 31.2669 23.0992 32.2596 22.8035 32.8828C22.476 33.5693 21.6628 34.2558 20.9551 34.4671C20.2369 34.6678 19.8039 34.6678 19.2019 34.446ZM19.3814 22.8069V16.7868L19.0434 16.3221C18.8534 16.0686 18.6738 15.8574 18.6421 15.8574C18.5048 15.8574 11.6819 22.0572 11.6819 22.1839C11.6819 22.2155 11.7875 22.5324 11.9143 22.8704C12.041 23.2189 12.1361 23.7154 12.1255 24.0004C12.115 24.2856 12.115 24.6024 12.115 24.7081C12.1255 24.9511 14.4068 26.4085 17.8289 28.3835C18.7689 28.9327 19.0963 29.07 19.2124 28.975C19.3496 28.8588 19.3814 27.6865 19.3814 22.8069ZM22.2753 28.13C26.7958 25.2891 27.6406 24.7186 27.6935 24.5074C27.7251 24.3806 27.7673 23.8843 27.778 23.3879L27.8096 22.5007L25.5072 19.7653C23.0357 16.8396 22.1275 15.8468 21.9162 15.8468C21.8423 15.8468 21.4726 16.058 21.0923 16.3115L20.3953 16.7762L20.427 22.7859C20.4588 28.1723 20.501 29.0807 20.7016 29.0807C20.7228 29.0912 21.441 28.6582 22.2753 28.13Z" fill="white"/>
<path d="M20.0786 1.08139L20.1339 1.0468L20.1334 1.04599L20.1328 1.04519L20.0786 1.08139ZM39.7234 24.6867L39.669 24.6506L39.6643 24.6579L39.6614 24.6662L39.7234 24.6867ZM20.3214 40.5399L20.3629 40.5905L20.3632 40.5901L20.3635 40.5898L20.3214 40.5399ZM19.2019 34.4459L19.2246 34.3846C19.2244 34.3846 19.2242 34.3845 19.2241 34.3845L19.2019 34.4459ZM17.5437 32.9989L17.6016 32.9689V32.9688L17.5437 32.9989ZM17.6177 30.2212L17.5589 30.1927C17.5587 30.193 17.5587 30.1933 17.5586 30.1936L17.6177 30.2212ZM17.7338 29.3656L17.773 29.3134C17.7727 29.3133 17.7725 29.3131 17.7722 29.3128L17.7338 29.3656ZM11.5658 25.9859L11.5329 26.0423C11.5333 26.0425 11.5337 26.0427 11.5341 26.043L11.5658 25.9859ZM10.8476 26.2289L10.8825 26.284C10.8826 26.2839 10.8827 26.2839 10.8827 26.2839L10.8476 26.2289ZM7.30943 25.9859L7.26505 26.0337H7.26507L7.30943 25.9859ZM11.0483 21.0113L11.0091 20.9592C11.009 20.9592 11.0088 20.9594 11.0086 20.9595L11.0483 21.0113ZM16.4981 16.0473L16.543 16.0947L16.5432 16.0946L16.4981 16.0473ZM17.6282 14.97L17.6732 15.0173C17.6937 14.9978 17.6993 14.9674 17.687 14.9419L17.6282 14.97ZM17.2902 14.2624L17.3491 14.2343V14.2341L17.2902 14.2624ZM18.1562 10.3018L18.1967 10.353V10.353L18.1562 10.3018ZM23.1415 13.9878L23.0809 13.9636C23.0808 13.9637 23.0808 13.964 23.0806 13.9641L23.1415 13.9878ZM23.1308 14.9172L23.1871 14.8842C23.1869 14.884 23.1868 14.8837 23.1866 14.8834L23.1308 14.9172ZM27.9786 20.7896L27.9292 20.8321C27.9294 20.8321 27.9294 20.8323 27.9295 20.8325L27.9786 20.7896ZM29.489 21.1486L29.512 21.2097C29.5123 21.2097 29.5126 21.2095 29.5131 21.2093L29.489 21.1486ZM33.3757 22.7857L33.3156 22.8109V22.8111L33.3757 22.7857ZM32.5307 25.9542L32.5744 26.0026H32.5746L32.5307 25.9542ZM29.1511 26.3027L29.1198 26.3601H29.12L29.1511 26.3027ZM28.1794 25.9647L28.1951 26.0282C28.1959 26.0278 28.1966 26.0277 28.1974 26.0275L28.1794 25.9647ZM23.1625 29.3973L23.1216 29.3464C23.1216 29.3466 23.1214 29.3468 23.1212 29.3469L23.1625 29.3973ZM22.8668 30.633L22.9271 30.608C22.9271 30.6078 22.9269 30.6077 22.9269 30.6075L22.8668 30.633ZM20.9551 34.4669L20.9727 34.5299C20.9731 34.5297 20.9735 34.5296 20.9738 34.5296L20.9551 34.4669ZM19.3814 16.7867H19.4468C19.4468 16.7729 19.4423 16.7594 19.4342 16.7483L19.3814 16.7867ZM19.0434 16.3219L19.0962 16.2836C19.0961 16.2833 19.0959 16.283 19.0957 16.2828L19.0434 16.3219ZM11.9143 22.8702L11.9757 22.8479C11.9756 22.8478 11.9755 22.8474 11.9754 22.8473L11.9143 22.8702ZM12.115 24.7079H12.0498C12.0498 24.7089 12.0498 24.7099 12.0498 24.7108L12.115 24.7079ZM17.8289 28.3834L17.8618 28.3271C17.8618 28.3271 17.8616 28.3269 17.8615 28.3269L17.8289 28.3834ZM19.2124 28.9748L19.2537 29.0254C19.254 29.0252 19.2544 29.0249 19.2547 29.0247L19.2124 28.9748ZM22.2753 28.1299L22.2406 28.0747H22.2404L22.2753 28.1299ZM27.7781 23.3877L27.7129 23.3853C27.7129 23.3857 27.7127 23.386 27.7127 23.3863L27.7781 23.3877ZM27.8096 22.5005L27.8749 22.5029C27.8755 22.4867 27.8701 22.4709 27.8597 22.4584L27.8096 22.5005ZM20.3954 16.7761L20.3592 16.7218C20.341 16.734 20.33 16.7545 20.3302 16.7764L20.3954 16.7761ZM20.7016 29.0805L20.7308 29.0222C20.7217 29.0176 20.7118 29.0152 20.7016 29.0152V29.0805ZM19.9307 0.933523V0.998778C19.9236 0.998778 19.9284 0.994572 19.9493 1.01669C19.9688 1.03725 19.9925 1.06988 20.0242 1.11758L20.0786 1.08139L20.1328 1.04519C20.1012 0.997839 20.0721 0.95654 20.044 0.926929C20.0175 0.898877 19.9799 0.868267 19.9307 0.868267V0.933523ZM20.0786 1.08139L20.0233 1.11597C20.0273 1.12254 20.0362 1.13394 20.0451 1.14511C20.0555 1.15817 20.07 1.17617 20.0885 1.19887C20.1253 1.24433 20.1786 1.30923 20.2471 1.39251C20.3844 1.5591 20.5835 1.79958 20.8378 2.1058C21.3464 2.71828 22.0754 3.59394 22.9712 4.66796C24.7627 6.81599 27.221 9.75745 29.9142 12.9735L29.9643 12.9316L30.0144 12.8897C27.3212 9.67372 24.863 6.73231 23.0713 4.58436C22.1757 3.51039 21.4466 2.6348 20.9382 2.02244C20.6839 1.71625 20.485 1.47592 20.3479 1.30953C20.2793 1.22632 20.2264 1.16168 20.1897 1.11658C20.1714 1.09401 20.1572 1.07648 20.1473 1.06401C20.136 1.04965 20.1331 1.04551 20.1339 1.0468L20.0786 1.08139ZM29.9643 12.9316L29.9142 12.9735C32.6074 16.1895 35.0524 19.1204 36.8215 21.2511C37.706 22.3164 38.4214 23.1818 38.9145 23.7826C39.1609 24.083 39.3516 24.3172 39.4801 24.4773C39.5444 24.5573 39.5927 24.6185 39.6247 24.66C39.6407 24.6808 39.6521 24.6962 39.6592 24.7062C39.6628 24.7115 39.6646 24.714 39.6651 24.7148C39.6654 24.7156 39.6643 24.7137 39.6628 24.7103C39.6622 24.7089 39.6604 24.7043 39.6592 24.6979C39.6587 24.6954 39.6541 24.673 39.669 24.6506L39.7234 24.6867L39.7776 24.7229C39.7927 24.7003 39.7881 24.6777 39.7875 24.6745C39.7862 24.6675 39.7841 24.6622 39.7832 24.6598C39.7811 24.6547 39.7786 24.6506 39.7771 24.6482C39.7741 24.6429 39.77 24.6368 39.7658 24.6309C39.7572 24.6187 39.7444 24.6016 39.7282 24.5804C39.6953 24.5378 39.6462 24.4758 39.5818 24.3956C39.453 24.2351 39.2619 24.0004 39.0152 23.6999C38.5221 23.0987 37.8065 22.2332 36.9218 21.1677C35.1527 19.0368 32.7075 16.1058 30.0144 12.8897L29.9643 12.9316ZM39.7234 24.6867L39.6614 24.6662C39.6649 24.6557 39.6705 24.6486 39.6706 24.6483C39.6722 24.6464 39.6733 24.645 39.6737 24.6447C39.6746 24.6437 39.6749 24.6434 39.6741 24.6442C39.6729 24.6455 39.6703 24.6477 39.6663 24.6514C39.6582 24.6585 39.6461 24.6692 39.6295 24.6834C39.5967 24.7116 39.5477 24.7529 39.4835 24.8066C39.3551 24.9141 39.1665 25.0705 38.924 25.2709C38.4389 25.6715 37.7385 26.247 36.8753 26.9546C35.1484 28.3698 32.7694 30.3132 30.1554 32.4412L30.1967 32.4919L30.2379 32.5425C32.852 30.4143 35.2309 28.4709 36.9578 27.0555C37.8213 26.348 38.5218 25.7723 39.0071 25.3715C39.2497 25.1711 39.4387 25.0144 39.5673 24.9068C39.6316 24.853 39.681 24.8113 39.7145 24.7824C39.7312 24.7681 39.7444 24.7567 39.7535 24.7484C39.758 24.7445 39.7621 24.7406 39.7653 24.7376C39.7668 24.736 39.7688 24.7341 39.7709 24.7319C39.7719 24.7307 39.7735 24.7288 39.7754 24.7264C39.7759 24.7256 39.7816 24.7183 39.7853 24.7075L39.7234 24.6867ZM30.1967 32.4919L30.1554 32.4412C24.9279 36.6973 20.4807 40.3205 20.2795 40.49L20.3214 40.5399L20.3635 40.5898C20.5636 40.4213 25.0093 36.7993 30.2379 32.5425L30.1967 32.4919ZM20.3214 40.5399L20.2801 40.4894C20.1926 40.561 20.1274 40.614 20.0759 40.652C20.0234 40.6907 19.9911 40.7095 19.9688 40.7172C19.9511 40.7234 19.9437 40.7213 19.9358 40.7175C19.9217 40.7107 19.904 40.6955 19.8712 40.6628L19.8251 40.7089L19.7789 40.7551C19.8095 40.7858 19.8419 40.8168 19.8784 40.8347C19.9209 40.8556 19.9645 40.8569 20.0115 40.8406C20.0539 40.8259 20.1 40.7964 20.1534 40.7569C20.2081 40.7167 20.276 40.6614 20.3629 40.5905L20.3214 40.5399ZM19.8251 40.7089L19.8712 40.6628C19.8639 40.6555 19.8388 40.6343 19.8026 40.6038C19.7644 40.572 19.71 40.5268 19.6402 40.4691C19.5007 40.3537 19.2995 40.1882 19.0433 39.9779C18.5311 39.5574 17.799 38.9579 16.9012 38.2239C15.1056 36.7558 12.6474 34.7491 9.95941 32.5575L9.91817 32.6081L9.87694 32.6587C12.5649 34.8502 15.0231 36.8569 16.8185 38.325C17.7162 39.059 18.4483 39.6583 18.9605 40.0789C19.2166 40.289 19.4178 40.4545 19.5571 40.5697C19.6268 40.6273 19.681 40.6722 19.7188 40.704C19.7377 40.7197 19.7524 40.7322 19.7629 40.7413C19.7684 40.7457 19.7723 40.7492 19.7754 40.7518C19.7787 40.7548 19.7795 40.7556 19.7789 40.7551L19.8251 40.7089ZM9.91817 32.6081L9.95941 32.5575C7.27151 30.366 4.83187 28.3673 3.06688 26.9099C2.18436 26.1812 1.47066 25.588 0.978974 25.1736C0.733077 24.9664 0.542979 24.8041 0.415132 24.6922C0.351113 24.636 0.303223 24.5932 0.271873 24.5635C0.256035 24.5485 0.24535 24.538 0.239112 24.5311C0.235768 24.5275 0.235132 24.5265 0.235754 24.5275C0.235899 24.5276 0.238138 24.5307 0.240345 24.5358C0.241463 24.5383 0.243492 24.5434 0.244623 24.5503C0.245702 24.5568 0.246724 24.5697 0.240865 24.5842L0.180276 24.56L0.119688 24.5358C0.113664 24.5509 0.114655 24.5643 0.115837 24.5715C0.117072 24.579 0.119338 24.5847 0.120827 24.5882C0.123776 24.5949 0.127291 24.6 0.129244 24.6029C0.133481 24.6088 0.138584 24.6147 0.143078 24.6196C0.152516 24.6298 0.1659 24.6431 0.182317 24.6585C0.215477 24.6898 0.264839 24.7341 0.329149 24.7904C0.457959 24.9031 0.648825 25.066 0.894874 25.2734C1.38707 25.6881 2.10118 26.2818 2.98379 27.0105C4.74905 28.4682 7.18892 30.4671 9.87694 32.6587L9.91817 32.6081ZM0.180276 24.56L0.240865 24.5842C0.239037 24.5889 0.237116 24.592 0.236868 24.5925C0.236273 24.5935 0.23586 24.5941 0.235837 24.5941C0.235776 24.5943 0.23611 24.5936 0.23709 24.5924C0.238988 24.5898 0.242051 24.5858 0.246481 24.5801C0.255264 24.5688 0.268304 24.5525 0.28564 24.531C0.320251 24.4883 0.371234 24.4259 0.437839 24.3453C0.571009 24.1836 0.76619 23.9486 1.01676 23.6478C1.51789 23.0464 2.24032 22.1826 3.1308 21.1205C4.91171 18.9963 7.36463 16.0788 10.0631 12.8786L10.0132 12.8366L9.96334 12.7945C7.2648 15.9947 4.8118 18.9125 3.03077 21.0367C2.14028 22.0989 1.41774 22.9627 0.916495 23.5642C0.665882 23.8651 0.470528 24.1004 0.337138 24.2622C0.270462 24.343 0.219159 24.4057 0.184145 24.449C0.166668 24.4706 0.153061 24.4876 0.143568 24.4999C0.138861 24.5058 0.13488 24.5111 0.131853 24.5152C0.130371 24.5173 0.128772 24.5195 0.127312 24.5216C0.12711 24.5219 0.122776 24.5281 0.119688 24.5358L0.180276 24.56ZM10.0132 12.8366L10.0631 12.8786C12.7617 9.67837 15.2147 6.75535 16.9958 4.62178C17.8863 3.55499 18.6089 2.68552 19.1102 2.07741C19.3609 1.77338 19.5563 1.53454 19.6898 1.36898C19.7566 1.28625 19.8079 1.22155 19.8431 1.17608C19.8607 1.1534 19.8745 1.13506 19.8844 1.12145C19.8892 1.11473 19.8935 1.10852 19.897 1.1032C19.8986 1.10058 19.9005 1.09749 19.9023 1.09424C19.9032 1.09238 19.9072 1.08527 19.9095 1.07609L19.8462 1.06026L19.7829 1.04444C19.784 1.03969 19.7856 1.0363 19.7861 1.03507C19.7867 1.03353 19.7873 1.03249 19.7875 1.03215C19.7878 1.03149 19.7878 1.03161 19.787 1.03284C19.7856 1.03522 19.7827 1.03922 19.7786 1.04517C19.77 1.05694 19.7572 1.07388 19.74 1.09617C19.7055 1.14061 19.6547 1.20451 19.5882 1.28705C19.4551 1.45205 19.2601 1.69046 19.0095 1.99439C18.5084 2.6022 17.7861 3.47144 16.8955 4.53813C15.1147 6.6715 12.6618 9.59437 9.96334 12.7945L10.0132 12.8366ZM19.8462 1.06026L19.9095 1.07609C19.919 1.03783 19.9299 1.01442 19.9383 1.00218C19.9476 0.988594 19.9463 0.998778 19.9307 0.998778V0.933523V0.868267C19.8835 0.868267 19.8505 0.899574 19.8307 0.928239C19.8101 0.958246 19.7945 0.998205 19.7829 1.04444L19.8462 1.06026ZM19.2019 34.4459L19.2241 34.3845C18.9274 34.277 18.5963 34.0682 18.3007 33.8117C18.0053 33.5553 17.7499 33.2551 17.6016 32.9689L17.5437 32.9989L17.4859 33.0289C17.6438 33.334 17.9114 33.6465 18.2152 33.9103C18.5191 34.174 18.8639 34.3928 19.1798 34.5072L19.2019 34.4459ZM17.5437 32.9989L17.6016 32.9688C17.2328 32.262 17.2607 31.1432 17.6768 30.2486L17.6177 30.2212L17.5586 30.1936C17.1295 31.1158 17.0941 32.2783 17.4859 33.029L17.5437 32.9989ZM17.6177 30.2212L17.6764 30.2496C17.7582 30.0809 17.8202 29.9515 17.8635 29.8504C17.9066 29.7503 17.9338 29.6723 17.9425 29.6079C17.9515 29.5394 17.9396 29.4837 17.9042 29.4335C17.8725 29.3887 17.8238 29.3516 17.773 29.3134L17.7338 29.3656L17.6947 29.4179C17.7494 29.4588 17.78 29.4839 17.7975 29.5087C17.8112 29.5282 17.8184 29.5497 17.813 29.5907C17.8071 29.636 17.7862 29.6999 17.7436 29.7989C17.7017 29.8968 17.641 30.0234 17.5589 30.1927L17.6177 30.2212ZM17.7338 29.3656L17.7722 29.3128C17.7395 29.2891 17.6257 29.2221 17.4548 29.1247C17.2816 29.026 17.0454 28.8935 16.7635 28.737C16.1994 28.4239 15.452 28.0144 14.6597 27.5867L14.6287 27.6441L14.5977 27.7015C15.3896 28.1292 16.1366 28.5383 16.7002 28.8511C16.9819 29.0075 17.2177 29.1397 17.39 29.238C17.5648 29.3377 17.6702 29.4 17.6955 29.4184L17.7338 29.3656ZM14.6287 27.6441L14.6597 27.5867C13.0752 26.7311 11.6921 25.9814 11.5975 25.9288L11.5658 25.9859L11.5341 26.043C11.6296 26.0961 13.0137 26.8462 14.5977 27.7015L14.6287 27.6441ZM11.5658 25.9859L11.5987 25.9295C11.5112 25.8785 11.404 25.8848 11.2807 25.9268C11.1568 25.969 11.0036 26.0518 10.8125 26.1739L10.8476 26.2289L10.8827 26.2839C11.0718 26.163 11.2143 26.0873 11.3228 26.0503C11.4319 26.0132 11.4937 26.0194 11.5329 26.0423L11.5658 25.9859ZM10.8476 26.2289L10.8127 26.1737C10.2045 26.5584 9.587 26.7277 8.99977 26.6879C8.41287 26.648 7.851 26.399 7.3538 25.9381L7.30943 25.9859L7.26507 26.0337C7.78178 26.5128 8.37115 26.776 8.99093 26.8181C9.61037 26.86 10.255 26.6808 10.8825 26.284L10.8476 26.2289ZM7.30943 25.9859L7.3538 25.9381C6.99238 25.6028 6.76458 25.3221 6.62581 25.0089C6.48711 24.6958 6.4347 24.3445 6.4347 23.863H6.36944H6.30419C6.30419 24.3532 6.35739 24.7253 6.50648 25.0617C6.65552 25.3981 6.89772 25.693 7.26505 26.0337L7.30943 25.9859ZM6.36944 23.863H6.4347C6.4347 23.397 6.4819 23.0496 6.60053 22.746C6.71895 22.443 6.91057 22.1785 7.2077 21.8813L7.16157 21.8351L7.11543 21.789C6.81054 22.0938 6.60611 22.3732 6.47897 22.6985C6.35203 23.0235 6.30419 23.389 6.30419 23.863H6.36944ZM7.16157 21.8351L7.2077 21.8813C8.00453 21.0845 9.06687 20.8175 10.0877 21.1577L10.1083 21.0958L10.1289 21.034C9.05848 20.6772 7.9451 20.9594 7.11543 21.789L7.16157 21.8351ZM10.1083 21.0958L10.0877 21.1577C10.2295 21.205 10.3395 21.2415 10.4289 21.2647C10.5186 21.2878 10.593 21.2991 10.6633 21.2929C10.8049 21.2803 10.9135 21.1966 11.0879 21.0632L11.0483 21.0113L11.0086 20.9595C10.824 21.1006 10.7477 21.1543 10.6517 21.1628C10.6032 21.1671 10.5456 21.1599 10.4616 21.1382C10.3774 21.1166 10.2723 21.0816 10.1289 21.034L10.1083 21.0958ZM11.0483 21.0113L11.0874 21.0635C11.3019 20.9026 12.2584 20.0466 13.3617 19.041C14.4669 18.0334 15.7241 16.8714 16.543 16.0947L16.4981 16.0473L16.4533 16C15.6351 16.7758 14.3786 17.9373 13.2738 18.9445C12.167 19.9534 11.2171 20.8031 11.0091 20.9592L11.0483 21.0113ZM16.4981 16.0473L16.5432 16.0946L17.6732 15.0173L17.6282 14.97L17.5833 14.9228L16.4531 16.0001L16.4981 16.0473ZM17.6282 14.97L17.687 14.9419L17.3491 14.2343L17.2902 14.2624L17.2314 14.2905L17.5694 14.9982L17.6282 14.97ZM17.2902 14.2624L17.3491 14.2341C16.6752 12.8347 17.0176 11.2838 18.1967 10.353L18.1562 10.3018L18.1159 10.2505C16.8869 11.2208 16.5322 12.8385 17.2314 14.2907L17.2902 14.2624ZM18.1562 10.3018L18.1967 10.353C18.5204 10.0972 18.7987 9.93291 19.1099 9.83177C19.4214 9.73046 19.7703 9.69106 20.2369 9.69106V9.62581V9.56056C19.7636 9.56056 19.3994 9.60038 19.0696 9.70766C18.7389 9.8151 18.447 9.98882 18.1159 10.2506L18.1562 10.3018ZM20.2369 9.62581V9.69106C22.3865 9.69106 23.8879 11.9457 23.0809 13.9636L23.1415 13.9878L23.2021 14.012C24.0426 11.9108 22.4812 9.56056 20.2369 9.56056V9.62581ZM23.1415 13.9878L23.0806 13.9641C23.0254 14.1061 22.983 14.2157 22.9543 14.3046C22.9258 14.3935 22.9092 14.4665 22.9086 14.535C22.907 14.6747 22.9722 14.7812 23.075 14.9511L23.1308 14.9172L23.1866 14.8834C23.0784 14.7047 23.038 14.6317 23.039 14.5364C23.0396 14.4874 23.0514 14.429 23.0787 14.3446C23.1058 14.2602 23.1466 14.1546 23.2022 14.0114L23.1415 13.9878ZM23.1308 14.9172L23.0745 14.9502C23.0997 14.993 23.1702 15.088 23.2729 15.2204C23.3771 15.3546 23.5176 15.5314 23.6861 15.7406C24.023 16.1589 24.4721 16.7073 24.9658 17.3048C25.9535 18.4997 27.1209 19.8917 27.9292 20.8321L27.9786 20.7896L28.0282 20.747C27.2206 19.8075 26.0537 18.4164 25.0664 17.2216C24.5728 16.6244 24.124 16.0764 23.7876 15.6587C23.6195 15.4498 23.4795 15.2737 23.376 15.1404C23.2711 15.0053 23.207 14.918 23.1871 14.8842L23.1308 14.9172ZM27.9786 20.7896L27.9295 20.8325C28.074 20.9983 28.2269 21.1486 28.3581 21.2581C28.4234 21.3128 28.4847 21.3582 28.5374 21.3903C28.5637 21.4064 28.5891 21.4198 28.6127 21.4295C28.6355 21.4388 28.661 21.4462 28.6863 21.4462V21.381V21.3157C28.6863 21.3157 28.6859 21.3157 28.6847 21.3155C28.6835 21.3154 28.6819 21.315 28.6796 21.3146C28.6752 21.3134 28.6693 21.3115 28.6619 21.3085C28.6468 21.3024 28.628 21.2927 28.6053 21.2789C28.5601 21.2513 28.5043 21.2103 28.4416 21.158C28.3166 21.0536 28.1685 20.9082 28.0279 20.7467L27.9786 20.7896ZM28.6863 21.381V21.4462C28.7205 21.4462 28.7688 21.4381 28.8228 21.4262C28.8784 21.4139 28.9454 21.3963 29.0187 21.375C29.1657 21.3323 29.3416 21.2736 29.512 21.2097L29.489 21.1486L29.4661 21.0875C29.2985 21.1504 29.1259 21.2079 28.9824 21.2497C28.9105 21.2706 28.8467 21.2873 28.7947 21.2988C28.7412 21.3106 28.705 21.3157 28.6863 21.3157V21.381ZM29.489 21.1486L29.5131 21.2093C31.0537 20.5992 32.6744 21.2806 33.3156 22.8109L33.3757 22.7857L33.436 22.7606C32.7673 21.1645 31.0717 20.4517 29.465 21.088L29.489 21.1486ZM33.3757 22.7857L33.3156 22.8111C33.7255 23.7846 33.3679 25.1079 32.4871 25.9059L32.5307 25.9542L32.5746 26.0026C33.4892 25.174 33.8709 23.7935 33.4358 22.7604L33.3757 22.7857ZM32.5307 25.9542L32.4872 25.9057C32.1736 26.1879 31.9058 26.3698 31.6148 26.4822C31.324 26.5944 31.0053 26.6389 30.5875 26.6389V26.7041V26.7693C31.0144 26.7693 31.3507 26.7241 31.6619 26.6038C31.9729 26.4838 32.2543 26.2909 32.5744 26.0026L32.5307 25.9542ZM30.5875 26.7041V26.6389C30.2938 26.6389 30.0976 26.623 29.8988 26.5673C29.699 26.5114 29.4932 26.4141 29.1821 26.2455L29.1511 26.3027L29.12 26.3601C29.432 26.5294 29.6486 26.6329 29.8635 26.693C30.0792 26.7535 30.2895 26.7693 30.5875 26.7693V26.7041ZM29.1511 26.3027L29.1823 26.2455C28.9481 26.1178 28.7388 26.021 28.5679 25.9612C28.4826 25.9314 28.4053 25.9103 28.3386 25.8997C28.2729 25.8891 28.2119 25.8877 28.1615 25.9021L28.1794 25.9647L28.1974 26.0275C28.2208 26.0208 28.26 26.0192 28.3179 26.0285C28.3745 26.0376 28.4438 26.0562 28.5248 26.0844C28.6867 26.141 28.8893 26.2343 29.1198 26.3601L29.1511 26.3027ZM28.1794 25.9647L28.1636 25.9014C28.1382 25.9078 28.1008 25.9264 28.0596 25.9488C28.0156 25.9727 27.9594 26.0057 27.8927 26.0462C27.7593 26.1272 27.5821 26.2399 27.3747 26.3752C26.9596 26.6458 26.4212 27.0078 25.8639 27.3897C24.7501 28.1523 23.557 28.996 23.1216 29.3464L23.1625 29.3973L23.2035 29.4482C23.6341 29.1016 24.8228 28.2606 25.9375 27.4973C26.4944 27.1159 27.032 26.7545 27.446 26.4844C27.6531 26.3494 27.8288 26.2376 27.9605 26.1576C28.0263 26.1176 28.0807 26.0859 28.122 26.0634C28.1427 26.0522 28.1596 26.0435 28.1728 26.0374C28.1794 26.0342 28.1846 26.032 28.1888 26.0304C28.1907 26.0296 28.1923 26.029 28.1935 26.0286C28.1947 26.0282 28.1953 26.028 28.1951 26.0282L28.1794 25.9647ZM23.1625 29.3973L23.1212 29.3469C22.8592 29.5617 22.6983 29.7222 22.6503 29.9205C22.6022 30.1187 22.6706 30.3389 22.8069 30.6587L22.8668 30.633L22.9269 30.6075C22.7885 30.2829 22.7407 30.1018 22.777 29.9513C22.8136 29.8011 22.9379 29.6659 23.204 29.4478L23.1625 29.3973ZM22.8668 30.633L22.8065 30.6582C22.9341 30.9641 22.9915 31.361 22.9798 31.76C22.9682 32.1587 22.8875 32.5533 22.7445 32.8548L22.8035 32.8827L22.8623 32.9107C23.0151 32.5889 23.0983 32.1755 23.1102 31.7638C23.1224 31.352 23.0635 30.9356 22.9271 30.608L22.8668 30.633ZM22.8035 32.8827L22.7445 32.8546C22.5857 33.1875 22.3072 33.5239 21.9796 33.8034C21.6518 34.083 21.2794 34.3021 20.9365 34.4044L20.9551 34.4669L20.9738 34.5296C21.3385 34.4207 21.7266 34.1908 22.0643 33.9027C22.4019 33.6146 22.6937 33.2643 22.8623 32.9107L22.8035 32.8827ZM20.9551 34.4669L20.9376 34.4041C20.5814 34.5036 20.3004 34.5522 20.0356 34.5496C19.7715 34.5471 19.5203 34.4937 19.2246 34.3846L19.2019 34.4459L19.1794 34.5071C19.4855 34.6198 19.7518 34.6773 20.0343 34.68C20.3161 34.6828 20.6106 34.6309 20.9727 34.5299L20.9551 34.4669ZM19.3814 22.8068H19.4468V16.7867H19.3814H19.3162V22.8068H19.3814ZM19.3814 16.7867L19.4342 16.7483L19.0962 16.2836L19.0434 16.3219L18.9907 16.3603L19.3287 16.825L19.3814 16.7867ZM19.0434 16.3219L19.0957 16.2828C19.0001 16.1553 18.9067 16.0379 18.8328 15.952C18.7962 15.9092 18.7633 15.8732 18.7372 15.8476C18.7241 15.8349 18.7115 15.8234 18.7 15.8147C18.6943 15.8104 18.6875 15.8056 18.6798 15.8017C18.6737 15.7986 18.66 15.792 18.6422 15.792V15.8572V15.9225C18.6344 15.9225 18.6286 15.9209 18.6258 15.92C18.6226 15.919 18.6205 15.918 18.6197 15.9176C18.6184 15.9169 18.6187 15.9169 18.6214 15.9189C18.6264 15.9227 18.6345 15.9297 18.6458 15.9408C18.6682 15.9626 18.6981 15.9954 18.7338 16.0371C18.8053 16.1201 18.8968 16.2351 18.9913 16.3611L19.0434 16.3219ZM18.6422 15.8572V15.792C18.6283 15.792 18.6175 15.7962 18.6135 15.7977C18.6081 15.7999 18.6031 15.8025 18.5991 15.8047C18.591 15.8092 18.5821 15.815 18.573 15.8214C18.5543 15.8343 18.5299 15.8527 18.5009 15.8757C18.4424 15.9219 18.3614 15.9891 18.2615 16.0741C18.0612 16.2443 17.783 16.4873 17.4535 16.779C16.7943 17.3626 15.9282 18.1417 15.0667 18.9246C14.2051 19.7076 13.3477 20.4946 12.7057 21.0941C12.3847 21.3936 12.1172 21.6465 11.9299 21.8287C11.8364 21.9196 11.7623 21.9934 11.7114 22.0466C11.6861 22.0731 11.6658 22.0954 11.6515 22.1125C11.6445 22.1209 11.6379 22.1294 11.6327 22.137C11.6302 22.1409 11.6271 22.1458 11.6244 22.1514C11.6226 22.1552 11.6167 22.1675 11.6167 22.1838H11.682H11.7472C11.7472 22.1979 11.7422 22.2075 11.7421 22.2078C11.741 22.2099 11.7404 22.2107 11.7411 22.2096C11.7425 22.2075 11.7457 22.2032 11.7516 22.1962C11.7631 22.1825 11.7811 22.1627 11.8058 22.1369C11.855 22.0854 11.9277 22.0129 12.0209 21.9223C12.2073 21.741 12.4739 21.4888 12.7947 21.1894C13.4362 20.5906 14.2931 19.804 15.1545 19.0212C16.0158 18.2384 16.8813 17.4596 17.5399 16.8768C17.8693 16.5853 18.1467 16.3429 18.346 16.1736C18.4456 16.0888 18.5252 16.0228 18.5817 15.9781C18.6103 15.9556 18.632 15.9392 18.6473 15.9286C18.6551 15.9233 18.6599 15.9202 18.6626 15.9187C18.664 15.918 18.6635 15.9183 18.6619 15.919C18.6618 15.919 18.6538 15.9225 18.6422 15.9225V15.8572ZM11.682 22.1838H11.6167C11.6167 22.1973 11.6209 22.2142 11.6235 22.2244C11.627 22.2381 11.6319 22.2555 11.638 22.2756C11.6501 22.3161 11.6676 22.3698 11.6888 22.4329C11.7313 22.559 11.7896 22.7236 11.8532 22.893L11.9143 22.8702L11.9754 22.8473C11.9123 22.6789 11.8545 22.5158 11.8125 22.3913C11.7915 22.3288 11.7745 22.2765 11.7629 22.238C11.7571 22.2187 11.7528 22.2034 11.75 22.1924C11.7464 22.178 11.7472 22.1779 11.7472 22.1838H11.682ZM11.9143 22.8702L11.853 22.8926C11.9779 23.2358 12.0705 23.7237 12.0604 23.9979L12.1256 24.0003L12.1908 24.0026C12.2017 23.7066 12.1043 23.2017 11.9757 22.8479L11.9143 22.8702ZM12.1256 24.0003L12.0604 23.9979C12.0497 24.2844 12.0498 24.6024 12.0498 24.7079H12.115H12.1803C12.1803 24.6022 12.1803 24.2866 12.1908 24.0026L12.1256 24.0003ZM12.115 24.7079L12.0498 24.7108C12.0514 24.7467 12.0716 24.7803 12.0909 24.8063C12.1121 24.8352 12.1418 24.8671 12.1781 24.9018C12.251 24.9713 12.3567 25.0577 12.4919 25.1591C12.7626 25.3622 13.1573 25.6299 13.6574 25.951C14.658 26.5935 16.0848 27.4521 17.7963 28.44L17.8289 28.3834L17.8615 28.3269C16.151 27.3396 14.7261 26.482 13.7279 25.8411C13.2287 25.5207 12.8371 25.2549 12.5702 25.0547C12.4365 24.9544 12.3356 24.8717 12.2683 24.8074C12.2345 24.7752 12.2108 24.7489 12.1958 24.7287C12.1788 24.7059 12.18 24.6995 12.1802 24.7051L12.115 24.7079ZM17.8289 28.3834L17.7959 28.4398C18.2658 28.7142 18.5859 28.8878 18.804 28.9807C18.9129 29.0271 19.0004 29.0552 19.071 29.0644C19.1418 29.0738 19.2053 29.0651 19.2537 29.0254L19.2124 28.9748L19.1711 28.9243C19.1617 28.9321 19.1405 28.942 19.0879 28.9351C19.035 28.9281 18.9602 28.9055 18.8552 28.8607C18.6455 28.7714 18.3319 28.6018 17.8618 28.3271L17.8289 28.3834ZM19.2124 28.9748L19.2547 29.0247C19.2885 28.996 19.3079 28.9469 19.3223 28.8934C19.3374 28.836 19.3503 28.7578 19.3617 28.6553C19.3843 28.4502 19.4012 28.1378 19.4136 27.6789C19.4388 26.7602 19.4468 25.2463 19.4468 22.8068H19.3814H19.3162C19.3162 25.2468 19.3083 26.7588 19.2832 27.6753C19.2706 28.1339 19.2539 28.4415 19.2319 28.6411C19.2209 28.7411 19.2089 28.8117 19.196 28.8599C19.1898 28.8838 19.1836 28.9005 19.1782 28.9117C19.1726 28.9233 19.1692 28.9259 19.1704 28.9251L19.2124 28.9748ZM22.2753 28.1299L22.3101 28.1852C24.5701 26.7647 25.9123 25.9113 26.6961 25.3866C27.0878 25.1244 27.3417 24.9431 27.5015 24.8135C27.5812 24.7488 27.6392 24.6957 27.6796 24.6506C27.7191 24.6064 27.7464 24.5648 27.7569 24.523L27.6936 24.5072L27.6303 24.4914C27.6274 24.5026 27.6167 24.5251 27.5823 24.5635C27.5487 24.6011 27.4967 24.6494 27.4192 24.7123C27.2644 24.8377 27.0148 25.0163 26.6235 25.2782C25.8415 25.8016 24.5011 26.6541 22.2406 28.0747L22.2753 28.1299ZM27.6936 24.5072L27.7569 24.523C27.7743 24.4535 27.7931 24.2922 27.8087 24.0913C27.8246 23.888 27.838 23.6385 27.8433 23.3892L27.7781 23.3877L27.7127 23.3863C27.7075 23.6333 27.6944 23.8802 27.6786 24.0811C27.6627 24.2842 27.6445 24.4344 27.6303 24.4914L27.6936 24.5072ZM27.7781 23.3877L27.8433 23.39L27.8749 22.5029L27.8096 22.5005L27.7444 22.4981L27.7129 23.3853L27.7781 23.3877ZM27.8096 22.5005L27.8597 22.4584L25.5571 19.723L25.5072 19.7651L25.4573 19.807L27.7598 22.5426L27.8096 22.5005ZM25.5072 19.7651L25.5571 19.723C24.3214 18.2601 23.4757 17.2796 22.9122 16.6647C22.6307 16.3574 22.4185 16.14 22.2627 15.9991C22.1849 15.9288 22.1196 15.876 22.0657 15.8405C22.015 15.8071 21.9635 15.7814 21.9163 15.7814V15.8467V15.9119C21.9219 15.9119 21.945 15.9172 21.9939 15.9495C22.0399 15.9798 22.0995 16.0275 22.1752 16.0959C22.3263 16.2326 22.5352 16.4463 22.8161 16.7528C23.3774 17.3656 24.2216 18.3443 25.4575 19.8072L25.5072 19.7651ZM21.9163 15.8467V15.7814C21.8953 15.7814 21.8725 15.7881 21.8537 15.7946C21.8329 15.8019 21.8089 15.8121 21.7822 15.8245C21.7291 15.8493 21.6623 15.8845 21.5871 15.9272C21.4363 16.0126 21.2474 16.1297 21.0562 16.2571L21.0924 16.3114L21.1287 16.3657C21.3178 16.2396 21.5039 16.1243 21.6513 16.0407C21.7253 15.9989 21.7886 15.9655 21.8374 15.9428C21.8618 15.9314 21.8817 15.9231 21.8969 15.9178C21.9139 15.9118 21.9189 15.9119 21.9163 15.9119V15.8467ZM21.0924 16.3114L21.0562 16.2571L20.3592 16.7218L20.3954 16.7761L20.4316 16.8304L21.1287 16.3657L21.0924 16.3114ZM20.3954 16.7761L20.3302 16.7764L20.3619 22.7861L20.4271 22.7857L20.4923 22.7854L20.4606 16.7757L20.3954 16.7761ZM20.4271 22.7857L20.3619 22.7861C20.3777 25.4789 20.3962 27.0541 20.4359 27.9559C20.4556 28.406 20.4808 28.6922 20.5145 28.8667C20.5312 28.9533 20.551 29.0185 20.5771 29.0636C20.6044 29.1108 20.645 29.1457 20.7016 29.1457V29.0805V29.0152C20.7016 29.0152 20.7023 29.0152 20.7029 29.0155C20.7037 29.0158 20.7039 29.016 20.7034 29.0156C20.7021 29.0147 20.6972 29.0105 20.69 28.9983C20.6752 28.9726 20.6586 28.9248 20.6427 28.842C20.6109 28.678 20.5861 28.4004 20.5661 27.9502C20.5266 27.0514 20.5083 25.4789 20.4923 22.7853L20.4271 22.7857ZM20.7016 29.0805L20.6725 29.1389C20.6889 29.147 20.704 29.1461 20.708 29.1457C20.7142 29.1453 20.7193 29.1441 20.7222 29.1433C20.7284 29.1417 20.7342 29.1395 20.7385 29.1378C20.7476 29.1339 20.7586 29.1287 20.7708 29.1225C20.7954 29.1099 20.8295 29.0912 20.8714 29.0675C20.9554 29.0196 21.0739 28.9496 21.2172 28.8631C21.5042 28.6898 21.8929 28.4494 22.3102 28.185L22.2753 28.1299L22.2404 28.0747C21.8235 28.3387 21.4358 28.5787 21.1498 28.7513C21.0068 28.8377 20.8894 28.9071 20.8069 28.9539C20.7654 28.9775 20.7335 28.9951 20.7115 29.0062C20.7004 29.0118 20.693 29.0153 20.6889 29.0169C20.6867 29.0179 20.687 29.0176 20.6892 29.0171C20.6902 29.0168 20.6935 29.016 20.6983 29.0156C20.701 29.0153 20.715 29.0142 20.7308 29.0222L20.7016 29.0805Z" fill="white"/>
</svg>
