<svg width="41" height="41" viewBox="0 0 41 41" fill="none" xmlns="http://www.w3.org/2000/svg">
<g clip-path="url(#clip0_4113_6310)">
<path fill-rule="evenodd" clip-rule="evenodd" d="M6.82422 15.875C6.82422 10.007 11.5812 5.25 17.4492 5.25C23.3172 5.25 28.0742 10.007 28.0742 15.875C28.0742 19.674 26.0804 23.0073 23.0821 24.8856C26.4209 25.979 29.2871 28.0258 31.5311 30.6957C31.9753 31.2242 31.907 32.0127 31.3785 32.4569C30.85 32.9011 30.0615 32.8327 29.6173 32.3043C26.6186 28.7364 22.4237 26.5 17.4492 26.5C12.4748 26.5 8.27991 28.7364 5.28115 32.3043C4.83696 32.8327 4.04846 32.9011 3.51998 32.4569C2.9915 32.0127 2.92316 31.2242 3.36735 30.6957C5.61138 28.0258 8.47754 25.979 11.8164 24.8857C8.81806 23.0074 6.82422 19.674 6.82422 15.875ZM17.4492 7.75C12.9619 7.75 9.32422 11.3877 9.32422 15.875C9.32422 20.3623 12.9619 24 17.4492 24C21.9365 24 25.5742 20.3623 25.5742 15.875C25.5742 11.3877 21.9365 7.75 17.4492 7.75Z" fill="black"/>
<path d="M36.8242 17.75C36.8242 17.0596 36.2646 16.5 35.5742 16.5C34.8839 16.5 34.3242 17.0596 34.3242 17.75V20.25H31.8242C31.1339 20.25 30.5742 20.8096 30.5742 21.5C30.5742 22.1904 31.1339 22.75 31.8242 22.75H34.3242V25.25C34.3242 25.9404 34.8839 26.5 35.5742 26.5C36.2646 26.5 36.8242 25.9404 36.8242 25.25V22.75H39.3242C40.0146 22.75 40.5742 22.1904 40.5742 21.5C40.5742 20.8096 40.0146 20.25 39.3242 20.25H36.8242V17.75Z" fill="black"/>
</g>
<defs>
<clipPath id="clip0_4113_6310">
<rect width="40" height="40" fill="white" transform="translate(0.574219 0.25)"/>
</clipPath>
</defs>
</svg>
