<svg width="40" height="41" viewBox="0 0 40 41" fill="none" xmlns="http://www.w3.org/2000/svg">
<g clip-path="url(#clip0_4619_827)">
<path d="M40 0.859863H0V40.8599H40V0.859863Z" fill="#3B48CC"/>
<path d="M40 0.859863H0V40.8599H40V0.859863Z" fill="url(#paint0_linear_4619_827)"/>
<path d="M26.8 22.4491L23.2747 25.9691C23.9089 25.7922 24.5208 25.5435 25.0987 25.2278C25.2675 25.3325 25.4116 25.4725 25.5212 25.6383C25.6307 25.804 25.7031 25.9914 25.7333 26.1878C25.7333 27.1638 23.664 28.2251 20.592 28.6571C19.6444 28.7853 18.6896 28.853 17.7333 28.8598H17.2C12.8907 28.7585 9.73333 27.3985 9.73333 26.1931C9.76355 25.9968 9.83592 25.8093 9.94548 25.6436C10.055 25.4779 10.1992 25.3378 10.368 25.2331C12.0427 26.1665 14.7573 26.7211 17.7333 26.7211H17.792L18.0907 25.6545C17.9733 25.6545 17.856 25.6545 17.7333 25.6545C14.8 25.6545 12.08 25.0731 10.6347 24.1558C10.0587 23.7771 9.73866 23.3665 9.73333 23.0091V20.5398C11.3653 21.7878 14.6187 22.4385 17.7333 22.4385C18.1547 22.4385 18.576 22.4385 18.9867 22.4011L19.2907 21.3345C18.7573 21.3718 18.2613 21.3878 17.7333 21.3878C13.1573 21.3878 9.73333 19.9851 9.73333 18.7211C9.76355 18.5248 9.83592 18.3373 9.94548 18.1716C10.055 18.0059 10.1992 17.8658 10.368 17.7611C11.84 18.5878 14.1013 19.1051 16.6667 19.2225L16.6933 18.1558C14.1707 18.0331 11.8933 17.4891 10.6347 16.6838C10.064 16.3158 9.744 15.8998 9.73333 15.5371V13.0731C11.3653 14.3211 14.6187 14.9718 17.7333 14.9718H17.8507L18.416 13.9051H17.7333C13.1573 13.9051 9.73333 12.5025 9.73333 11.2385C9.73333 9.97446 13.1573 8.57179 17.7333 8.57179C19.2745 8.56526 20.8109 8.74433 22.3093 9.10513H25.2373C23.6373 8.12913 20.8747 7.50513 17.7333 7.50513C13.3387 7.50513 8.66666 8.80646 8.66666 11.2385V15.5318C8.6827 15.8359 8.76272 16.1333 8.90149 16.4044C9.04026 16.6755 9.23466 16.9143 9.472 17.1051C9.23164 17.2992 9.03547 17.5423 8.89659 17.8182C8.75771 18.0941 8.67932 18.3965 8.66666 18.7051V22.9718C8.67898 23.2805 8.75722 23.583 8.89613 23.859C9.03503 24.1349 9.23138 24.378 9.472 24.5718C9.23164 24.7658 9.03547 25.0089 8.89659 25.2848C8.75771 25.5608 8.67932 25.8632 8.66666 26.1718V30.4385C8.66352 30.4757 8.66352 30.5132 8.66666 30.5505C8.81066 32.8918 13.3973 34.1505 17.7333 34.1505C22.0693 34.1505 26.656 32.8918 26.8 30.5398C26.8052 30.5026 26.8052 30.4649 26.8 30.4278V26.1611C26.7898 25.852 26.7125 25.5488 26.5734 25.2725C26.4343 24.9962 26.2369 24.7535 25.9947 24.5611C26.2353 24.3673 26.4316 24.1243 26.5705 23.8483C26.7094 23.5723 26.7877 23.2698 26.8 22.9611V22.4491ZM25.7333 30.4491C25.7333 31.7078 22.3093 33.1158 17.7333 33.1158C13.1573 33.1158 9.73333 31.7238 9.73333 30.4491V27.9958C11.3653 29.2331 14.6187 29.8838 17.7333 29.8838C20.848 29.8838 24.1013 29.2331 25.7333 27.9958V30.4491Z" fill="white"/>
<path d="M11.3334 16.2037C11.7015 16.2037 12 15.9052 12 15.537C12 15.1688 11.7015 14.8704 11.3334 14.8704C10.9652 14.8704 10.6667 15.1688 10.6667 15.537C10.6667 15.9052 10.9652 16.2037 11.3334 16.2037Z" fill="white"/>
<path d="M11.3334 23.6705C11.7015 23.6705 12 23.372 12 23.0038C12 22.6356 11.7015 22.3372 11.3334 22.3372C10.9652 22.3372 10.6667 22.6356 10.6667 23.0038C10.6667 23.372 10.9652 23.6705 11.3334 23.6705Z" fill="white"/>
<path d="M11.3334 31.137C11.7015 31.137 12 30.8386 12 30.4704C12 30.1022 11.7015 29.8037 11.3334 29.8037C10.9652 29.8037 10.6667 30.1022 10.6667 30.4704C10.6667 30.8386 10.9652 31.137 11.3334 31.137Z" fill="white"/>
<path d="M19.0666 28.3158C18.9727 28.3148 18.8807 28.289 18.8 28.2411C18.6961 28.1813 18.6154 28.0883 18.5709 27.977C18.5264 27.8657 18.5207 27.7427 18.5546 27.6278L21.552 17.6491H18.5333C18.4402 17.6503 18.3483 17.6271 18.2669 17.5817C18.1855 17.5364 18.1175 17.4705 18.0694 17.3907C18.0214 17.3108 17.9952 17.2198 17.9933 17.1266C17.9914 17.0335 18.0139 16.9415 18.0586 16.8598L21.2586 10.4598C21.303 10.3718 21.3708 10.2978 21.4546 10.2461C21.5383 10.1943 21.6348 10.1667 21.7333 10.1664H28.6666C28.753 10.1621 28.8392 10.1789 28.9177 10.2153C28.9961 10.2518 29.0646 10.3067 29.1171 10.3755C29.1696 10.4443 29.2045 10.5248 29.219 10.6101C29.2334 10.6954 29.2269 10.7829 29.2 10.8651L27.8346 14.9664H30.8266C30.9309 14.9668 31.0327 14.9978 31.1195 15.0554C31.2064 15.113 31.2744 15.1948 31.3153 15.2907C31.3561 15.3866 31.368 15.4924 31.3494 15.5949C31.3308 15.6975 31.2826 15.7923 31.2106 15.8678L19.4773 28.1344C19.4262 28.1927 19.3629 28.2391 19.292 28.2704C19.2211 28.3017 19.1442 28.3172 19.0666 28.3158ZM19.3973 16.5824H22.2666C22.3494 16.5824 22.4311 16.6017 22.5052 16.6387C22.5792 16.6758 22.6436 16.7295 22.6933 16.7958C22.743 16.862 22.7766 16.9389 22.7914 17.0204C22.8062 17.1018 22.8018 17.1856 22.7786 17.2651L20.2133 25.7984L29.552 16.0384H27.0666C26.9796 16.0431 26.8928 16.0263 26.8137 15.9896C26.7347 15.9529 26.6659 15.8974 26.6132 15.8279C26.5606 15.7584 26.5258 15.6771 26.5119 15.5911C26.4979 15.5051 26.5053 15.417 26.5333 15.3344L27.8986 11.2384H22.032L19.3973 16.5824Z" fill="white"/>
</g>
<defs>
<linearGradient id="paint0_linear_4619_827" x1="-8.28267" y1="49.1425" x2="48.288" y2="-7.42814" gradientUnits="userSpaceOnUse">
<stop stop-color="#2E27AD"/>
<stop offset="1" stop-color="#527FFF"/>
</linearGradient>
<clipPath id="clip0_4619_827">
<rect width="40" height="40" fill="white" transform="translate(0 0.859863)"/>
</clipPath>
</defs>
</svg>
