<svg width="24" height="24" viewBox="0 0 24 24" fill="none" xmlns="http://www.w3.org/2000/svg">
<g clip-path="url(#clip0_4674_3273)">
<path d="M24 0H0V24H24V0Z" fill="url(#paint0_linear_4674_3273)"/>
<path d="M15.504 9.03356C15.504 8.10556 13.6832 7.67676 11.984 7.67676C10.2848 7.67676 8.46396 8.10556 8.46396 9.03356C8.46257 9.07996 8.46796 9.12631 8.47996 9.17116V14.9472C8.46396 15.9072 10.288 16.3168 12 16.3168C13.712 16.3168 15.52 15.8944 15.52 14.9664V9.03356H15.504ZM11.9904 8.31996C13.856 8.31996 14.8704 8.82876 14.8704 9.03676C14.8704 9.24476 13.8624 9.75356 11.9904 9.75356C10.1184 9.75356 9.11036 9.24796 9.11036 9.03676C9.11036 8.82556 10.1248 8.31996 11.9904 8.31996ZM14.8704 14.9696C14.8704 15.1744 13.8592 15.68 11.9904 15.68C10.1216 15.68 9.11036 15.1744 9.11036 14.9696V13.9584C9.78556 14.3264 10.9184 14.5024 11.9904 14.5024C13.0624 14.5024 14.1856 14.3296 14.8704 13.968V14.9696ZM14.8704 13.1488C14.8704 13.3536 13.8624 13.8656 11.9904 13.8656C10.1184 13.8656 9.11036 13.3536 9.11036 13.1488H9.11996V11.9264C9.79516 12.2912 10.928 12.4672 12 12.4672C13.072 12.4672 14.1952 12.2944 14.88 11.9328L14.8704 13.1488ZM14.8704 11.1104C14.8704 11.3184 13.8624 11.8304 11.9904 11.8304C10.1184 11.8304 9.11036 11.3184 9.11036 11.1104H9.11996V9.86236C9.80156 10.224 10.9216 10.3904 12 10.3904C13.0784 10.3904 14.2112 10.2176 14.88 9.84956L14.8704 11.1104Z" fill="white"/>
<path d="M5.0912 19.3632H7.2V20.0032H4.32C4.23513 20.0032 4.15374 19.9695 4.09373 19.9095C4.03371 19.8495 4 19.7681 4 19.6832V16.8032H4.64V18.9056L7.04 16.5088L7.488 16.96L5.0912 19.3632Z" fill="white"/>
<path d="M19.9999 16.8031V19.6831C19.9999 19.768 19.9662 19.8494 19.9062 19.9094C19.8462 19.9694 19.7648 20.0031 19.6799 20.0031H16.7999V19.3631H18.9087L16.5439 16.9919L16.9951 16.5439L19.3599 18.9055V16.8031H19.9999Z" fill="white"/>
<path d="M19.9999 4.32317V7.20317H19.3599V5.09117L16.9951 7.45597L16.5439 7.00477L18.9055 4.64317H16.7999V4.00317H19.6799C19.7648 4.00317 19.8462 4.03689 19.9062 4.0969C19.9662 4.15691 19.9999 4.2383 19.9999 4.32317Z" fill="white"/>
<path d="M7.488 7.04003L7.04 7.48803L4.64 5.09123V7.19683H4V4.31683C4 4.23196 4.03371 4.15056 4.09373 4.09055C4.15374 4.03054 4.23513 3.99683 4.32 3.99683H7.2V4.63683H5.0912L7.488 7.04003Z" fill="white"/>
<path d="M7.09119 14.8673C5.13599 14.1633 4.01599 13.0881 4.01599 11.9201C4.01599 10.7521 5.13599 9.6801 7.09119 8.9729L7.30879 9.5745C5.64799 10.1729 4.65599 11.0497 4.65599 11.9201C4.65599 12.7905 5.64799 13.6673 7.30879 14.2657L7.09119 14.8673Z" fill="white"/>
<path d="M16.7296 14.9375L16.5248 14.3295C18.3008 13.7311 19.36 12.8287 19.36 11.9199C19.36 11.0111 18.3008 10.1087 16.5248 9.50714L16.7296 8.90234C18.8064 9.59994 20 10.7071 20 11.9199C20 13.1327 18.8064 14.2335 16.7296 14.9375Z" fill="white"/>
</g>
<defs>
<linearGradient id="paint0_linear_4674_3273" x1="-4.9696" y1="28.9696" x2="28.9728" y2="-4.9728" gradientUnits="userSpaceOnUse">
<stop stop-color="#2E27AD"/>
<stop offset="1" stop-color="#527FFF"/>
</linearGradient>
<clipPath id="clip0_4674_3273">
<rect width="24" height="24" fill="white"/>
</clipPath>
</defs>
</svg>
