<svg width="25" height="25" viewBox="0 0 25 25" fill="none" xmlns="http://www.w3.org/2000/svg">
<g clip-path="url(#clip0_4674_839)">
<path d="M24.3799 0.859985H0.379883V24.86H24.3799V0.859985Z" fill="#3B48CC"/>
<path d="M24.3799 0.859985H0.379883V24.86H24.3799V0.859985Z" fill="url(#paint0_linear_4674_839)"/>
<path d="M12.386 9.5C10.2388 9.5 8.05957 10.06 8.05957 11.132V18.428C8.05957 19.5 10.2292 20.06 12.3764 20.06C14.5236 20.06 16.6996 19.5 16.6996 18.428V11.132C16.6996 10.06 14.5268 9.5 12.386 9.5ZM12.386 19.42C10.0052 19.42 8.69957 18.78 8.69957 18.428V16.8888C9.49957 17.3752 10.9396 17.628 12.3764 17.628C13.8132 17.628 15.2564 17.3752 16.05 16.892V18.428C16.0596 18.78 14.7604 19.42 12.386 19.42ZM12.386 16.988C10.0052 16.988 8.70917 16.348 8.70917 15.996V14.46C9.50917 14.9432 10.9492 15.196 12.386 15.196C13.8228 15.196 15.266 14.9432 16.0596 14.46V15.996C16.0596 16.332 14.7604 16.988 12.386 16.988ZM12.386 14.556C10.0052 14.556 8.70917 13.916 8.70917 13.564V12.0248C9.50917 12.5112 10.9492 12.764 12.386 12.764C13.8228 12.764 15.266 12.5112 16.0596 12.0248V13.564C16.0596 13.9 14.7604 14.556 12.386 14.556ZM12.386 12.124C10.0052 12.124 8.69957 11.468 8.69957 11.132C8.69957 10.796 9.97957 10.14 12.3764 10.14C14.7732 10.14 16.0596 10.796 16.0596 11.132C16.0596 11.468 14.7604 12.124 12.386 12.124Z" fill="white"/>
<path d="M20.2197 7.00083C20.3046 7.00083 20.386 6.96712 20.446 6.90711C20.506 6.8471 20.5397 6.7657 20.5397 6.68083V5.98003C20.5397 5.89516 20.506 5.81377 20.446 5.75376C20.386 5.69375 20.3046 5.66003 20.2197 5.66003H4.53973C4.45486 5.66003 4.37346 5.69375 4.31345 5.75376C4.25344 5.81377 4.21973 5.89516 4.21973 5.98003V6.67763C4.21973 6.7625 4.25344 6.8439 4.31345 6.90391C4.37346 6.96392 4.45486 6.99763 4.53973 6.99763C4.71568 7.01439 4.87907 7.09614 4.99798 7.22691C5.11689 7.35768 5.18277 7.52808 5.18277 7.70483C5.18277 7.88158 5.11689 8.05199 4.99798 8.18276C4.87907 8.31353 4.71568 8.39528 4.53973 8.41203C4.45486 8.41203 4.37346 8.44575 4.31345 8.50576C4.25344 8.56577 4.21973 8.64716 4.21973 8.73203V14.3C4.21973 14.3849 4.25344 14.4663 4.31345 14.5263C4.37346 14.5863 4.45486 14.62 4.53973 14.62H7.41973V13.98H6.13973V13.66H7.41973V13.02H5.81973C5.73486 13.02 5.65346 13.0537 5.59345 13.1138C5.53344 13.1738 5.49973 13.2552 5.49973 13.34V13.98H4.85973V9.01043C5.1392 8.92527 5.38392 8.75257 5.55781 8.5178C5.7317 8.28302 5.82556 7.99859 5.82556 7.70643C5.82556 7.41427 5.7317 7.12984 5.55781 6.89507C5.38392 6.66029 5.1392 6.4876 4.85973 6.40243V6.30003H19.8997V6.40563C19.6243 6.49419 19.3842 6.66785 19.2138 6.90161C19.0434 7.13537 18.9516 7.41717 18.9516 7.70643C18.9516 7.9957 19.0434 8.2775 19.2138 8.51126C19.3842 8.74502 19.6243 8.91868 19.8997 9.00723V13.98H19.5797V13.34C19.5797 13.2552 19.546 13.1738 19.486 13.1138C19.426 13.0537 19.3446 13.02 19.2597 13.02H17.3397V13.66H18.9397V13.98H17.3397V14.62H20.2197C20.3046 14.62 20.386 14.5863 20.446 14.5263C20.506 14.4663 20.5397 14.3849 20.5397 14.3V8.73203C20.5397 8.64716 20.506 8.56577 20.446 8.50576C20.386 8.44575 20.3046 8.41203 20.2197 8.41203C20.0468 8.39183 19.8873 8.3088 19.7715 8.17872C19.6557 8.04864 19.5918 7.88057 19.5918 7.70643C19.5918 7.5323 19.6557 7.36423 19.7715 7.23415C19.8873 7.10407 20.0468 7.02104 20.2197 7.00083Z" fill="white"/>
<path d="M12.2198 8.86006V7.26006C12.2198 7.17519 12.1861 7.0938 12.1261 7.03379C12.0661 6.97378 11.9847 6.94006 11.8998 6.94006H9.65984C9.57497 6.94006 9.49358 6.97378 9.43357 7.03379C9.37356 7.0938 9.33984 7.17519 9.33984 7.26006V9.18006H9.97984V7.58006H11.5798V8.86006H12.2198Z" fill="white"/>
<path d="M15.42 9.18006V7.26006C15.42 7.17519 15.3863 7.0938 15.3263 7.03379C15.2663 6.97378 15.1849 6.94006 15.1 6.94006H12.86C12.7752 6.94006 12.6938 6.97378 12.6338 7.03379C12.5738 7.0938 12.54 7.17519 12.54 7.26006V8.86006H13.18V7.58006H14.78V9.18006H15.42Z" fill="white"/>
<path d="M17.3393 11.7401V12.3801H18.2993C18.3841 12.3801 18.4655 12.3463 18.5255 12.2863C18.5855 12.2263 18.6193 12.1449 18.6193 12.0601V7.26006C18.6193 7.17519 18.5855 7.0938 18.5255 7.03379C18.4655 6.97378 18.3841 6.94006 18.2993 6.94006H16.0593C15.9744 6.94006 15.893 6.97378 15.833 7.03379C15.773 7.0938 15.7393 7.17519 15.7393 7.26006V9.50006H16.3793V7.58006H17.9793V11.7401H17.3393Z" fill="white"/>
<path d="M6.77965 7.58006H8.37965V9.50006H9.01965V7.26006C9.01965 7.17519 8.98593 7.0938 8.92592 7.03379C8.86591 6.97378 8.78452 6.94006 8.69965 6.94006H6.45965C6.37478 6.94006 6.29339 6.97378 6.23337 7.03379C6.17336 7.0938 6.13965 7.17519 6.13965 7.26006V12.0601C6.13965 12.1449 6.17336 12.2263 6.23337 12.2863C6.29339 12.3463 6.37478 12.3801 6.45965 12.3801H7.41965V11.7401H6.77965V7.58006Z" fill="white"/>
</g>
<defs>
<linearGradient id="paint0_linear_4674_839" x1="-4.58972" y1="29.8296" x2="29.3527" y2="-4.11282" gradientUnits="userSpaceOnUse">
<stop stop-color="#2E27AD"/>
<stop offset="1" stop-color="#527FFF"/>
</linearGradient>
<clipPath id="clip0_4674_839">
<rect width="24" height="24" fill="white" transform="translate(0.379883 0.859985)"/>
</clipPath>
</defs>
</svg>
