<svg width="24" height="24" viewBox="0 0 24 24" fill="none" xmlns="http://www.w3.org/2000/svg">
<g clip-path="url(#clip0_4674_2973)">
<path d="M24 0H0V24H24V0Z" fill="url(#paint0_linear_4674_2973)"/>
<path d="M24 0H0V24H24V0Z" fill="url(#paint1_linear_4674_2973)"/>
<path fill-rule="evenodd" clip-rule="evenodd" d="M18.43 9.92004L19.33 10.93C19.264 11.063 19.174 11.171 19.06 11.254C18.947 11.338 18.82 11.39 18.68 11.41L17.98 10.2L17.279 11.41C17.141 11.39 17.014 11.338 16.9 11.254C16.787 11.171 16.697 11.063 16.63 10.93L17.529 9.92004L16.38 9.65004C16.367 9.58404 16.359 9.53004 16.359 9.49004C16.359 9.26304 16.447 9.06304 16.62 8.89004L17.7 9.42004L17.56 8.12904C17.693 8.07004 17.834 8.04004 17.98 8.04004C18.133 8.04004 18.273 8.07004 18.4 8.12904L18.26 9.42004L19.34 8.89004C19.514 9.06304 19.6 9.26304 19.6 9.49004C19.6 9.53004 19.594 9.58404 19.58 9.65004L18.43 9.92004ZM15.95 15.74V16.733C15.408 17.014 14.783 17.153 14.074 17.153C12.973 17.153 12.131 16.838 11.547 16.209C10.963 15.579 10.672 14.667 10.672 13.472C10.672 12.286 10.973 11.369 11.575 10.721C12.177 10.072 13.029 9.74804 14.13 9.74804C14.756 9.74804 15.344 9.87904 15.894 10.14V11.133C15.361 10.965 14.84 10.881 14.326 10.881C13.542 10.881 12.976 11.08 12.632 11.477C12.287 11.874 12.113 12.505 12.113 13.374V13.556C12.113 14.405 12.289 15.028 12.639 15.424C12.988 15.821 13.542 16.02 14.298 16.02C14.802 16.02 15.352 15.926 15.95 15.74Z" fill="white"/>
<path fill-rule="evenodd" clip-rule="evenodd" d="M13.7912 6.87011C13.9696 6.69316 13.9999 6.56865 13.9999 6.50016C13.9999 6.43168 13.9696 6.30716 13.7912 6.13022C13.6102 5.95083 13.3145 5.7586 12.8955 5.58289C12.0603 5.23264 10.8602 5.00016 9.49992 5.00016C8.13968 5.00016 6.93957 5.23264 6.10435 5.58289C5.68535 5.7586 5.38959 5.95083 5.20865 6.13022C5.03019 6.30716 4.99992 6.43168 4.99992 6.50016C4.99992 6.56865 5.03019 6.69316 5.20865 6.87011C5.38959 7.0495 5.68535 7.24172 6.10435 7.41743C6.93957 7.76768 8.13968 8.00016 9.49992 8.00016C10.8602 8.00016 12.0603 7.76768 12.8955 7.41743C13.3145 7.24172 13.6102 7.0495 13.7912 6.87011ZM9.49992 8.66683C12.3534 8.66683 14.6666 7.69678 14.6666 6.50016C14.6666 5.30355 12.3534 4.3335 9.49992 4.3335C6.64645 4.3335 4.33325 5.30355 4.33325 6.50016C4.33325 7.69678 6.64645 8.66683 9.49992 8.66683Z" fill="white"/>
<path d="M14.6667 6.47656H14V8.8099H14.6667V6.47656Z" fill="white"/>
<path d="M9.45166 19.0118C6.97487 19.0118 4.33167 18.2694 4.33167 16.8902V6.47681H4.97167V16.8966C4.97167 17.6006 6.89166 18.3846 9.45166 18.3846C10.394 18.3846 11.2497 18.2783 11.9548 18.109L12.1461 18.7107C11.3216 18.9098 10.3747 19.0118 9.45166 19.0118Z" fill="white"/>
<path d="M9.45484 12.2375C6.97804 12.2375 4.33484 11.4855 4.33484 10.0935H4.97484C4.97484 10.8039 6.89484 11.5975 9.45484 11.5975C9.64004 11.5975 9.8219 11.5934 9.99992 11.5854V12.2255C9.81813 12.2335 9.63607 12.2375 9.45484 12.2375Z" fill="white"/>
<path d="M9.45325 15.7573C6.97645 15.7573 4.33325 15.0053 4.33325 13.6133H4.97325C4.97325 14.3237 6.89325 15.1173 9.45325 15.1173C9.63567 15.1197 9.81796 15.1172 9.99992 15.1096V15.75C9.81795 15.7571 9.63566 15.7596 9.45325 15.7573Z" fill="white"/>
</g>
<defs>
<linearGradient id="paint0_linear_4674_2973" x1="0" y1="2400" x2="2400" y2="0" gradientUnits="userSpaceOnUse">
<stop stop-color="#2E27AD"/>
<stop offset="1" stop-color="#527FFF"/>
</linearGradient>
<linearGradient id="paint1_linear_4674_2973" x1="-4.9696" y1="28.9696" x2="28.9728" y2="-4.9728" gradientUnits="userSpaceOnUse">
<stop stop-color="#2E27AD"/>
<stop offset="1" stop-color="#527FFF"/>
</linearGradient>
<clipPath id="clip0_4674_2973">
<rect width="24" height="24" fill="white"/>
</clipPath>
</defs>
</svg>
