<svg width="24" height="24" viewBox="0 0 24 24" fill="none" xmlns="http://www.w3.org/2000/svg">
<g clip-path="url(#clip0_4674_3047)">
<path d="M24 0H0V24H24V0Z" fill="#3B48CC"/>
<path d="M24 0H0V24H24V0Z" fill="url(#paint0_linear_4674_3047)"/>
<path d="M12.0001 20C9.36326 20 6.56006 19.2352 6.56006 17.8176V6.18237H7.20006V17.8176C7.20006 18.4576 9.02726 19.36 12.0001 19.36C14.9729 19.36 16.8001 18.464 16.8001 17.8176V6.18237H17.4401V17.8176C17.4401 19.2352 14.6369 20 12.0001 20Z" fill="white"/>
<path d="M12.0001 20C9.36326 20 6.56006 19.2352 6.56006 17.8176V6.18237H7.20006V17.8176C7.20006 18.4576 9.02726 19.36 12.0001 19.36C14.9729 19.36 16.8001 18.464 16.8001 17.8176V6.18237H17.4401V17.8176C17.4401 19.2352 14.6369 20 12.0001 20Z" fill="white"/>
<path d="M12.0001 8.3616C9.36326 8.3616 6.56006 7.5968 6.56006 6.1824C6.56006 4.768 9.36326 4 12.0001 4C14.6369 4 17.4401 4.7648 17.4401 6.1824C17.4401 7.6 14.6369 8.3616 12.0001 8.3616ZM12.0001 4.64C9.02726 4.64 7.20006 5.536 7.20006 6.1824C7.20006 6.8288 9.02726 7.7216 12.0001 7.7216C14.9729 7.7216 16.8001 6.8256 16.8001 6.1824C16.8001 5.5392 14.9729 4.64 12.0001 4.64Z" fill="white"/>
<path d="M11.0929 12.6264L10.951 13.2505L12.8919 13.6918L13.0338 13.0677L11.0929 12.6264Z" fill="white"/>
<path d="M14.5353 10.7146L13.7952 12.5898L14.3905 12.8248L15.1306 10.9496L14.5353 10.7146Z" fill="white"/>
<path d="M9.63444 13.3775L8.98132 14.908L9.56997 15.1592L10.2231 13.6287L9.63444 13.3775Z" fill="white"/>
<path d="M8.96009 16.8865C8.73857 16.8865 8.52203 16.8208 8.33785 16.6977C8.15367 16.5747 8.01011 16.3997 7.92534 16.1951C7.84057 15.9904 7.81839 15.7652 7.86161 15.548C7.90482 15.3307 8.01149 15.1312 8.16813 14.9745C8.32476 14.8179 8.52433 14.7112 8.74159 14.668C8.95885 14.6248 9.18404 14.647 9.38869 14.7317C9.59335 14.8165 9.76827 14.9601 9.89133 15.1442C10.0144 15.3284 10.0801 15.545 10.0801 15.7665C10.0801 16.0635 9.96209 16.3484 9.75205 16.5584C9.54201 16.7685 9.25713 16.8865 8.96009 16.8865ZM8.96009 15.2865C8.86515 15.2865 8.77235 15.3146 8.69341 15.3674C8.61448 15.4201 8.55296 15.4951 8.51663 15.5828C8.4803 15.6705 8.47079 15.767 8.48931 15.8601C8.50783 15.9532 8.55355 16.0388 8.62068 16.1059C8.68781 16.173 8.77333 16.2187 8.86644 16.2373C8.95956 16.2558 9.05607 16.2463 9.14378 16.2099C9.23148 16.1736 9.30645 16.1121 9.35919 16.0332C9.41194 15.9542 9.44009 15.8614 9.44009 15.7665C9.44009 15.6392 9.38952 15.5171 9.2995 15.4271C9.20948 15.3371 9.08739 15.2865 8.96009 15.2865Z" fill="white"/>
<path d="M10.2401 13.8848C10.0186 13.8848 9.80206 13.8191 9.61788 13.696C9.4337 13.573 9.29014 13.398 9.20537 13.1934C9.1206 12.9887 9.09842 12.7635 9.14164 12.5463C9.18485 12.329 9.29152 12.1295 9.44816 11.9728C9.60479 11.8162 9.80436 11.7095 10.0216 11.6663C10.2389 11.6231 10.4641 11.6453 10.6687 11.73C10.8734 11.8148 11.0483 11.9584 11.1714 12.1425C11.2944 12.3267 11.3601 12.5433 11.3601 12.7648C11.3601 13.0618 11.2421 13.3467 11.0321 13.5567C10.822 13.7668 10.5372 13.8848 10.2401 13.8848ZM10.2401 12.2848C10.1452 12.2848 10.0524 12.3129 9.97344 12.3657C9.89451 12.4184 9.83299 12.4934 9.79666 12.5811C9.76033 12.6688 9.75082 12.7653 9.76934 12.8584C9.78786 12.9515 9.83358 13.0371 9.90071 13.1042C9.96784 13.1713 10.0534 13.217 10.1465 13.2356C10.2396 13.2541 10.3361 13.2446 10.4238 13.2082C10.5115 13.1719 10.5865 13.1104 10.6392 13.0314C10.692 12.9525 10.7201 12.8597 10.7201 12.7648C10.7201 12.6375 10.6695 12.5154 10.5795 12.4254C10.4895 12.3353 10.3674 12.2848 10.2401 12.2848Z" fill="white"/>
<path d="M13.76 14.5601C13.5385 14.5601 13.322 14.4944 13.1378 14.3713C12.9536 14.2482 12.81 14.0733 12.7253 13.8687C12.6405 13.664 12.6183 13.4388 12.6615 13.2216C12.7048 13.0043 12.8114 12.8047 12.9681 12.6481C13.1247 12.4915 13.3243 12.3848 13.5415 12.3416C13.7588 12.2984 13.984 12.3206 14.1886 12.4053C14.3933 12.4901 14.5682 12.6336 14.6913 12.8178C14.8143 13.002 14.88 13.2186 14.88 13.4401C14.88 13.7371 14.762 14.022 14.552 14.232C14.3419 14.4421 14.0571 14.5601 13.76 14.5601ZM13.76 12.9601C13.6651 12.9601 13.5723 12.9882 13.4933 13.041C13.4144 13.0937 13.3529 13.1687 13.3166 13.2564C13.2802 13.3441 13.2707 13.4406 13.2892 13.5337C13.3078 13.6268 13.3535 13.7124 13.4206 13.7795C13.4877 13.8466 13.5733 13.8923 13.6664 13.9108C13.7595 13.9294 13.856 13.9199 13.9437 13.8835C14.0314 13.8472 14.1064 13.7857 14.1591 13.7067C14.2119 13.6278 14.24 13.535 14.24 13.4401C14.24 13.3128 14.1894 13.1907 14.0994 13.1007C14.0094 13.0106 13.8873 12.9601 13.76 12.9601Z" fill="white"/>
<path d="M15.04 11.2C14.8185 11.2 14.602 11.1343 14.4178 11.0112C14.2336 10.8881 14.0901 10.7132 14.0053 10.5086C13.9205 10.3039 13.8983 10.0787 13.9416 9.86146C13.9848 9.6442 14.0915 9.44464 14.2481 9.288C14.4047 9.13137 14.6043 9.0247 14.8215 8.98148C15.0388 8.93827 15.264 8.96045 15.4687 9.04522C15.6733 9.12999 15.8482 9.27354 15.9713 9.45772C16.0944 9.64191 16.16 9.85845 16.16 10.08V10.096C16.155 10.39 16.0349 10.6703 15.8255 10.8767C15.6161 11.0831 15.3341 11.1992 15.04 11.2ZM15.04 9.59996C14.9458 9.60001 14.8537 9.62781 14.7751 9.67988C14.6966 9.73195 14.6351 9.80599 14.5983 9.89277C14.5616 9.97955 14.5512 10.0752 14.5684 10.1679C14.5857 10.2605 14.6298 10.346 14.6954 10.4138C14.7609 10.4815 14.8449 10.5284 14.937 10.5487C15.029 10.569 15.125 10.5617 15.2129 10.5279C15.3009 10.494 15.3769 10.4349 15.4315 10.3581C15.4861 10.2813 15.5169 10.1902 15.52 10.096C15.5222 10.0316 15.5114 9.96745 15.4882 9.90736C15.465 9.84726 15.43 9.79244 15.3852 9.74616C15.3405 9.69988 15.2868 9.66308 15.2275 9.63797C15.1682 9.61285 15.1044 9.59993 15.04 9.59996Z" fill="white"/>
</g>
<defs>
<linearGradient id="paint0_linear_4674_3047" x1="-4.9696" y1="28.9696" x2="28.9728" y2="-4.9728" gradientUnits="userSpaceOnUse">
<stop stop-color="#2E27AD"/>
<stop offset="1" stop-color="#527FFF"/>
</linearGradient>
<clipPath id="clip0_4674_3047">
<rect width="24" height="24" fill="white"/>
</clipPath>
</defs>
</svg>
