<svg width="25" height="25" viewBox="0 0 25 25" fill="none" xmlns="http://www.w3.org/2000/svg">
<g clip-path="url(#clip0_4674_851)">
<path d="M24.3799 0.859985H0.379883V24.86H24.3799V0.859985Z" fill="url(#paint0_linear_4674_851)"/>
<path fill-rule="evenodd" clip-rule="evenodd" d="M14.1708 7.72997C14.3493 7.55303 14.3796 7.42851 14.3796 7.36003C14.3796 7.29154 14.3493 7.16702 14.1708 6.99008C13.9899 6.81069 13.6941 6.61847 13.2751 6.44276C12.4399 6.09251 11.2398 5.86003 9.87956 5.86003C8.51932 5.86003 7.3192 6.09251 6.48399 6.44276C6.06499 6.61847 5.76923 6.81069 5.58829 6.99008C5.40983 7.16702 5.37956 7.29154 5.37956 7.36003C5.37956 7.42851 5.40983 7.55303 5.58829 7.72997C5.76923 7.90936 6.06499 8.10158 6.48399 8.27729C7.3192 8.62755 8.51932 8.86003 9.87956 8.86003C11.2398 8.86003 12.4399 8.62755 13.2751 8.27729C13.6941 8.10158 13.9899 7.90936 14.1708 7.72997ZM9.87956 9.52669C12.733 9.52669 15.0462 8.55664 15.0462 7.36003C15.0462 6.16341 12.733 5.19336 9.87956 5.19336C7.02609 5.19336 4.71289 6.16341 4.71289 7.36003C4.71289 8.55664 7.02609 9.52669 9.87956 9.52669Z" fill="white"/>
<path d="M15.0465 7.33655H14.3799V12.0032H15.0465V7.33655Z" fill="white"/>
<path d="M5.35156 17.7565C5.35171 18.1373 5.91463 18.5389 6.83594 18.8297C6.79866 19.0373 6.76825 19.2475 6.74805 19.4606C5.56126 19.1072 4.71191 18.5314 4.71191 17.7496V7.33655H5.35156V17.7565Z" fill="white"/>
<path d="M7.34079 16.3506C8.66079 13.8827 11.3147 12.1934 14.378 12.1934C14.9454 12.1934 15.4985 12.2513 16.0315 12.3613L16.1663 11.7084C15.5891 11.5893 14.9909 11.5267 14.378 11.5267C11.0656 11.5267 8.18744 13.3541 6.75293 16.0362L7.34079 16.3506Z" fill="white"/>
<path d="M16.6925 12.5272C17.2286 12.6861 17.7405 12.8988 18.2217 13.1588L18.5387 12.5723C18.0173 12.2905 17.4626 12.0601 16.882 11.888L16.6925 12.5272Z" fill="white"/>
<path fill-rule="evenodd" clip-rule="evenodd" d="M19.0102 15.3968C20.1159 16.4643 20.8535 17.9106 21.0139 19.5267C21.0357 19.746 21.0469 19.9684 21.0469 20.1934H7.71352C7.71352 19.9684 7.72467 19.746 7.74644 19.5267C8.08092 16.1579 10.9233 13.5267 14.3802 13.5267C15.9385 13.5267 17.3719 14.0614 18.507 14.9572L20.2421 13.222L20.7135 13.6935L19.0102 15.3968ZM8.41681 19.5267C8.74844 16.5268 11.2918 14.1934 14.3802 14.1934C15.7542 14.1934 17.0204 14.6553 18.0319 15.4323L15.3523 18.1118C15.0646 17.9514 14.733 17.8601 14.3802 17.8601C13.3892 17.8601 12.5665 18.5808 12.4078 19.5267H8.41681ZM15.8753 18.5317C16.1194 18.8062 16.2891 19.1485 16.3525 19.5267H20.3436C20.1853 18.095 19.5233 16.8152 18.5387 15.8683L15.8753 18.5317ZM14.3802 18.5267C15.0015 18.5267 15.5235 18.9517 15.6715 19.5267H13.0889C13.2369 18.9517 13.7589 18.5267 14.3802 18.5267Z" fill="white"/>
</g>
<defs>
<linearGradient id="paint0_linear_4674_851" x1="0.379883" y1="2400.86" x2="2400.38" y2="0.859985" gradientUnits="userSpaceOnUse">
<stop stop-color="#2E27AD"/>
<stop offset="1" stop-color="#527FFF"/>
</linearGradient>
<clipPath id="clip0_4674_851">
<rect width="24" height="24" fill="white" transform="translate(0.379883 0.859985)"/>
</clipPath>
</defs>
</svg>
