<svg width="40" height="40" viewBox="0 0 40 40" fill="none" xmlns="http://www.w3.org/2000/svg">
<g clip-path="url(#clip0_2787_16764)">
<path d="M17.695 19.1217L25.505 25.28L20.335 12.51L17.695 19.1217ZM20 0C8.95167 0 0 8.95167 0 20C0 31.0483 8.95167 40 20 40C31.0483 40 40 31.0483 40 20C40 8.95167 31.0483 0 20 0ZM29.6617 28.8417C29.6571 29.0284 29.6158 29.2123 29.54 29.383C29.4641 29.5537 29.3554 29.7077 29.2199 29.8363C29.0844 29.9648 28.9248 30.0653 28.7504 30.132C28.5759 30.1987 28.39 30.2303 28.2033 30.225C27.81 30.225 27.51 30.075 27.0967 29.7367L16.78 21.4033L13.315 30.075H10.3183L19.0633 9.06667C19.1616 8.81118 19.337 8.59266 19.5652 8.44151C19.7934 8.29037 20.0631 8.2141 20.3367 8.22333C20.6059 8.21323 20.8712 8.28968 21.0938 8.44146C21.3164 8.59324 21.4844 8.81236 21.5733 9.06667L29.53 28.2233C29.605 28.4083 29.6633 28.6133 29.6633 28.8033L29.6617 28.8417Z" fill="black"/>
</g>
<defs>
<clipPath id="clip0_2787_16764">
<rect width="40" height="40" fill="white"/>
</clipPath>
</defs>
</svg>
