<svg width="24" height="24" viewBox="0 0 24 24" fill="none" xmlns="http://www.w3.org/2000/svg">
<path d="M6.375 8.81201C6.89277 8.81201 7.3125 8.39228 7.3125 7.87451C7.3125 7.35674 6.89277 6.93701 6.375 6.93701C5.85723 6.93701 5.4375 7.35674 5.4375 7.87451C5.4375 8.39228 5.85723 8.81201 6.375 8.81201Z" fill="black"/>
<path d="M11.0625 7.87451C11.0625 8.39228 10.6428 8.81201 10.125 8.81201C9.60723 8.81201 9.1875 8.39228 9.1875 7.87451C9.1875 7.35674 9.60723 6.93701 10.125 6.93701C10.6428 6.93701 11.0625 7.35674 11.0625 7.87451Z" fill="black"/>
<path fill-rule="evenodd" clip-rule="evenodd" d="M2.25 5.24951C2.25 4.42108 2.92157 3.74951 3.75 3.74951H20.25C21.0784 3.74951 21.75 4.42108 21.75 5.24951V18.7495C21.75 19.5779 21.0784 20.2495 20.25 20.2495H3.75C2.92157 20.2495 2.25 19.5779 2.25 18.7495V5.24951ZM20.25 5.24951H3.75V18.7495H20.25V5.24951Z" fill="black"/>
</svg>
