<svg width="72" height="72" viewBox="0 0 72 72" fill="none" xmlns="http://www.w3.org/2000/svg">
<g clip-path="url(#clip0_19422_11320)">
<path d="M72 0H0V72H72V0Z" fill="url(#paint0_linear_19422_11320)"/>
<path d="M58.0704 38.88H53.2704V36.96H58.0704V13.92H35.0304V18.72H33.1104V13.92C33.1104 13.4108 33.3127 12.9224 33.6727 12.5624C34.0328 12.2023 34.5212 12 35.0304 12H58.0704C58.5796 12 59.068 12.2023 59.428 12.5624C59.7881 12.9224 59.9904 13.4108 59.9904 13.92V36.96C59.9904 37.4692 59.7881 37.9576 59.428 38.3176C59.068 38.6777 58.5796 38.88 58.0704 38.88Z" fill="white"/>
<path d="M36.9504 60.0001H13.9104C13.4012 60.0001 12.9128 59.7978 12.5527 59.4378C12.1927 59.0777 11.9904 58.5893 11.9904 58.0801V35.0401C11.9904 34.5309 12.1927 34.0425 12.5527 33.6825C12.9128 33.3224 13.4012 33.1201 13.9104 33.1201H18.7104V35.0401H13.9104V58.0801H36.9504V53.2801H38.8704V58.0801C38.8704 58.5893 38.6681 59.0777 38.308 59.4378C37.948 59.7978 37.4596 60.0001 36.9504 60.0001Z" fill="white"/>
<path d="M51.36 27.3596V25.4396H48.48C48.4405 24.9436 48.2255 24.4779 47.8736 24.126C47.5218 23.7741 47.056 23.5592 46.56 23.5196V20.6396H44.64V23.5196H41.76V20.6396H39.84V23.5196H36.96V20.6396H35.04V23.5196H32.16V20.6396H30.24V23.5196H27.36V20.6396H25.44V23.5196C24.9439 23.5592 24.4782 23.7741 24.1263 24.126C23.7745 24.4779 23.5595 24.9436 23.52 25.4396H20.64V27.3596H23.52V30.2396H20.64V32.1596H23.52V35.0396H20.64V36.9596H23.52V39.8396H20.64V41.7596H23.52V44.6396H20.64V46.5596H23.52C23.5595 47.0557 23.7745 47.5214 24.1263 47.8733C24.4782 48.2252 24.9439 48.4401 25.44 48.4796V51.3596H27.36V48.4796H30.24V51.3596H32.16V48.4796H35.04V51.3596H36.96V48.4796H39.84V51.3596H41.76V48.4796H44.64V51.3596H46.56V48.4796C47.056 48.4401 47.5218 48.2252 47.8736 47.8733C48.2255 47.5214 48.4405 47.0557 48.48 46.5596H51.36V44.6396H48.48V41.7596H51.36V39.8396H48.48V36.9596H51.36V35.0396H48.48V32.1596H51.36V30.2396H48.48V27.3596H51.36ZM46.56 46.3868C46.56 46.4327 46.5418 46.4766 46.5094 46.509C46.477 46.5414 46.433 46.5596 46.3872 46.5596H25.6128C25.567 46.5596 25.523 46.5414 25.4906 46.509C25.4582 46.4766 25.44 46.4327 25.44 46.3868V25.6124C25.44 25.5666 25.4582 25.5227 25.4906 25.4903C25.523 25.4579 25.567 25.4396 25.6128 25.4396H46.3872C46.433 25.4396 46.477 25.4579 46.5094 25.4903C46.5418 25.5227 46.56 25.5666 46.56 25.6124V46.3868Z" fill="white"/>
</g>
<defs>
<linearGradient id="paint0_linear_19422_11320" x1="-14.9117" y1="86.9088" x2="86.9117" y2="-14.9146" gradientUnits="userSpaceOnUse">
<stop stop-color="#C8511B"/>
<stop offset="1" stop-color="#FF9900"/>
</linearGradient>
<clipPath id="clip0_19422_11320">
<rect width="72" height="72" fill="white"/>
</clipPath>
</defs>
</svg>
