<svg width="48" height="48" viewBox="0 0 48 48" fill="none" xmlns="http://www.w3.org/2000/svg">
<g clip-path="url(#clip0_3444_3999)">
<path d="M48 0H0V48H48V0Z" fill="url(#paint0_linear_3444_3999)"/>
<path d="M16 30.1121H14.2941C10.9409 30.1121 8.18285 27.6676 8.00367 24.5639C8.00367 24.4295 8.00367 24.2952 8.00367 24.1544C7.95782 22.8855 8.34263 21.6384 9.09552 20.6159C9.8484 19.5935 10.9251 18.8559 12.1504 18.523C12.1504 18.3758 12.1504 18.2286 12.1504 18.0751C12.1984 16.4946 12.6958 14.9606 13.5844 13.6527C14.4729 12.3448 15.7158 11.3172 17.1674 10.6903C18.7419 10.0206 20.4796 9.83275 22.1608 10.1505C23.8421 10.4683 25.3913 11.2775 26.6127 12.4757C27.4137 13.2449 28.0647 14.1563 28.5325 15.1634C29.2135 14.6404 30.0481 14.357 30.9066 14.3571C32.6984 14.3571 34.5798 15.6049 34.9382 18.3758C38.2018 19.1565 39.9872 21.2107 39.9872 24.2184C39.9872 27.418 38.2402 29.5361 35.1878 30.0353L34.983 28.7554C36.6788 28.4803 38.7073 27.4756 38.7073 24.2056C38.7073 21.6906 37.2035 20.1228 34.2279 19.5469C34.0884 19.5202 33.9618 19.4478 33.8679 19.3413C33.7741 19.2347 33.7183 19.0999 33.7095 18.9582C33.5623 16.5136 32.1097 15.6497 30.913 15.6497C30.5091 15.6512 30.111 15.7454 29.7493 15.9252C29.3875 16.1049 29.072 16.3654 28.8269 16.6864C28.7574 16.7769 28.665 16.8471 28.5592 16.8899C28.4535 16.9327 28.3382 16.9464 28.2253 16.9296C28.1122 16.9128 28.0056 16.8659 27.9166 16.7939C27.8277 16.7218 27.7598 16.6273 27.7198 16.52C27.3034 15.345 26.6199 14.2825 25.7232 13.4164C24.6773 12.3924 23.3518 11.7007 21.9136 11.4286C20.4753 11.1564 18.9887 11.3159 17.641 11.887C16.4336 12.4255 15.4 13.2897 14.6563 14.3827C13.9125 15.4757 13.488 16.7543 13.4302 18.0751C13.4312 18.3531 13.4483 18.6309 13.4814 18.907C13.4846 18.9325 13.4846 18.9583 13.4814 18.9838C13.4832 19.1381 13.4291 19.2878 13.3291 19.4054C13.2292 19.523 13.0901 19.6005 12.9375 19.6237C11.5361 19.9756 9.25793 21.0379 9.25793 24.1416C9.25793 24.2568 9.25793 24.3719 9.25793 24.4807C9.39871 26.906 11.6001 28.8194 14.2686 28.8258H16V30.1121Z" fill="white"/>
<path d="M24.667 22C27.6123 22.0002 29.9998 24.3877 30 27.333C30 28.4944 29.6274 29.5685 28.9971 30.4443L36.9424 38.3906L36 39.333L33.666 37L31.333 39.333L30.3906 38.3906L32.7236 36.0566L28.0889 31.4229C27.1627 32.1987 25.9697 32.6669 24.667 32.667C21.7215 32.667 19.333 30.2785 19.333 27.333C19.3332 24.3876 21.7216 22 24.667 22ZM24.667 23.333C22.458 23.333 20.6672 25.124 20.667 27.333C20.667 29.5421 22.4579 31.333 24.667 31.333C26.876 31.3328 28.667 29.542 28.667 27.333C28.6668 25.1241 26.8759 23.3332 24.667 23.333Z" fill="white"/>
</g>
<defs>
<linearGradient id="paint0_linear_3444_3999" x1="-9.94305" y1="57.9411" x2="57.9392" y2="-9.94113" gradientUnits="userSpaceOnUse">
<stop stop-color="#BD0816"/>
<stop offset="1" stop-color="#FF5252"/>
</linearGradient>
<clipPath id="clip0_3444_3999">
<rect width="48" height="48" rx="8" fill="white"/>
</clipPath>
</defs>
</svg>
