<svg width="49" height="49" viewBox="0 0 49 49" fill="none" xmlns="http://www.w3.org/2000/svg">
<g clip-path="url(#clip0_1771_5607)">
<path d="M13.715 20.7794C13.715 21.3701 13.7789 21.849 13.8907 22.2003C14.0184 22.5515 14.178 22.9346 14.4015 23.3497C14.4813 23.4774 14.5133 23.6051 14.5133 23.7169C14.5133 23.8765 14.4175 24.0362 14.2099 24.1958L13.2042 24.8663C13.0605 24.9621 12.9168 25.01 12.7891 25.01C12.6295 25.01 12.4698 24.9302 12.3102 24.7865C12.0867 24.547 11.8951 24.2916 11.7355 24.0362C11.5758 23.7648 11.4162 23.4614 11.2406 23.0943C9.99536 24.563 8.43086 25.2973 6.54707 25.2973C5.20607 25.2973 4.13646 24.9142 3.35421 24.1479C2.57196 23.3816 2.17285 22.3599 2.17285 21.0828C2.17285 19.7258 2.65178 18.6242 3.6256 17.7941C4.59943 16.964 5.89254 16.5489 7.53686 16.5489C8.07965 16.5489 8.6384 16.5968 9.22908 16.6766C9.81976 16.7564 10.4264 16.8841 11.065 17.0278V15.8624C11.065 14.6491 10.8095 13.803 10.3147 13.3081C9.80379 12.8132 8.94172 12.5738 7.71247 12.5738C7.15372 12.5738 6.579 12.6376 5.98832 12.7813C5.39764 12.925 4.82293 13.1006 4.26418 13.3241C4.00875 13.4358 3.81718 13.4997 3.70543 13.5316C3.59368 13.5636 3.51385 13.5795 3.45 13.5795C3.2265 13.5795 3.11475 13.4199 3.11475 13.0846V12.3024C3.11475 12.047 3.14667 11.8554 3.2265 11.7436C3.30632 11.6319 3.45 11.5201 3.6735 11.4084C4.23225 11.121 4.90275 10.8816 5.685 10.69C6.46725 10.4825 7.2974 10.3867 8.17543 10.3867C10.0752 10.3867 11.4641 10.8177 12.3581 11.6798C13.2361 12.5418 13.6831 13.8509 13.6831 15.607V20.7794H13.715ZM7.23354 23.206C7.76036 23.206 8.30315 23.1102 8.87786 22.9186C9.45258 22.7271 9.96344 22.3759 10.3945 21.8969C10.6499 21.5936 10.8415 21.2584 10.9373 20.8752C11.033 20.4921 11.0969 20.0291 11.0969 19.4863V18.8158C10.6339 18.7041 10.139 18.6083 9.62818 18.5444C9.11733 18.4806 8.62243 18.4486 8.12754 18.4486C7.05793 18.4486 6.27568 18.6562 5.74886 19.0872C5.22203 19.5183 4.96661 20.1249 4.96661 20.9231C4.96661 21.6734 5.15818 22.2322 5.55729 22.6153C5.94043 23.0144 6.49918 23.206 7.23354 23.206ZM20.0529 24.9302C19.7655 24.9302 19.574 24.8823 19.4462 24.7705C19.3185 24.6747 19.2068 24.4512 19.111 24.1479L15.3594 11.8075C15.2636 11.4882 15.2157 11.2807 15.2157 11.1689C15.2157 10.9135 15.3434 10.7698 15.5988 10.7698H17.1633C17.4667 10.7698 17.6742 10.8177 17.7859 10.9295C17.9137 11.0252 18.0094 11.2487 18.1052 11.5521L20.7872 22.1204L23.2777 11.5521C23.3575 11.2328 23.4533 11.0252 23.581 10.9295C23.7087 10.8337 23.9322 10.7698 24.2196 10.7698H25.4967C25.8 10.7698 26.0076 10.8177 26.1353 10.9295C26.263 11.0252 26.3747 11.2487 26.4386 11.5521L28.961 22.2481L31.7228 11.5521C31.8186 11.2328 31.9303 11.0252 32.0421 10.9295C32.1698 10.8337 32.3773 10.7698 32.6647 10.7698H34.1494C34.4048 10.7698 34.5485 10.8975 34.5485 11.1689C34.5485 11.2487 34.5325 11.3286 34.5165 11.4243C34.5006 11.5201 34.4687 11.6478 34.4048 11.8235L30.5574 24.1639C30.4616 24.4832 30.3499 24.6907 30.2221 24.7865C30.0944 24.8823 29.8869 24.9461 29.6155 24.9461H28.2426C27.9392 24.9461 27.7317 24.8982 27.604 24.7865C27.4763 24.6747 27.3645 24.4672 27.3007 24.1479L24.8262 13.8509L22.3677 24.1319C22.2879 24.4512 22.1921 24.6588 22.0644 24.7705C21.9367 24.8823 21.7132 24.9302 21.4258 24.9302H20.0529ZM40.567 25.3612C39.7369 25.3612 38.9067 25.2654 38.1085 25.0738C37.3103 24.8823 36.6877 24.6747 36.2726 24.4353C36.0172 24.2916 35.8416 24.1319 35.7777 23.9883C35.7139 23.8446 35.6819 23.6849 35.6819 23.5413V22.7271C35.6819 22.3918 35.8097 22.2322 36.0491 22.2322C36.1449 22.2322 36.2407 22.2481 36.3365 22.2801C36.4323 22.312 36.5759 22.3759 36.7356 22.4397C37.2784 22.6792 37.8691 22.8708 38.4917 22.9985C39.1302 23.1262 39.7528 23.19 40.3914 23.19C41.3972 23.19 42.1794 23.0144 42.7222 22.6632C43.265 22.312 43.5523 21.8011 43.5523 21.1466C43.5523 20.6996 43.4087 20.3324 43.1213 20.0291C42.834 19.7258 42.2912 19.4544 41.5089 19.199L39.1941 18.4806C38.0287 18.1134 37.1666 17.5706 36.6398 16.8522C36.113 16.1498 35.8416 15.3675 35.8416 14.5374C35.8416 13.8669 35.9853 13.2762 36.2726 12.7653C36.56 12.2545 36.9431 11.8075 37.4221 11.4563C37.901 11.0891 38.4438 10.8177 39.0823 10.6261C39.7209 10.4346 40.3914 10.3547 41.0938 10.3547C41.4451 10.3547 41.8122 10.3707 42.1635 10.4186C42.5306 10.4665 42.8659 10.5303 43.2011 10.5942C43.5204 10.674 43.8237 10.7538 44.1111 10.8496C44.3985 10.9454 44.622 11.0412 44.7816 11.137C45.0051 11.2647 45.1647 11.3924 45.2605 11.5361C45.3563 11.6638 45.4042 11.8394 45.4042 12.0629V12.8132C45.4042 13.1485 45.2765 13.3241 45.037 13.3241C44.9093 13.3241 44.7018 13.2602 44.4304 13.1325C43.5204 12.7175 42.4987 12.5099 41.3652 12.5099C40.4553 12.5099 39.7369 12.6536 39.242 12.9569C38.7471 13.2602 38.4917 13.7232 38.4917 14.3777C38.4917 14.8247 38.6513 15.2079 38.9706 15.5112C39.2899 15.8145 39.8806 16.1179 40.7267 16.3892L42.9936 17.1076C44.143 17.4748 44.9732 17.9857 45.4681 18.6402C45.963 19.2948 46.2024 20.0451 46.2024 20.8752C46.2024 21.5617 46.0587 22.1843 45.7873 22.7271C45.5 23.2699 45.1168 23.7488 44.622 24.1319C44.1271 24.531 43.5364 24.8184 42.8499 25.0259C42.1315 25.2494 41.3812 25.3612 40.567 25.3612Z" fill="#252F3E"/>
<path fill-rule="evenodd" clip-rule="evenodd" d="M43.5846 33.1198C38.3323 36.9992 30.7014 39.0585 24.14 39.0585C14.9446 39.0585 6.65913 35.6582 0.401124 30.0068C-0.0937697 29.5598 0.353231 28.9531 0.94391 29.3044C7.71278 33.2316 16.0621 35.6103 24.6988 35.6103C30.5258 35.6103 36.9275 34.397 42.8183 31.9065C43.6963 31.5074 44.4467 32.4813 43.5846 33.1198Z" fill="#FF9900"/>
<path fill-rule="evenodd" clip-rule="evenodd" d="M45.7718 30.6294C45.1013 29.7674 41.3337 30.2144 39.6256 30.4219C39.1147 30.4858 39.0349 30.0388 39.4978 29.7035C42.4991 27.5962 47.4321 28.2029 48.0068 28.9053C48.5815 29.6237 47.8472 34.5567 45.0375 36.9194C44.6064 37.2866 44.1913 37.095 44.3829 36.6161C45.0215 35.0356 46.4423 31.4755 45.7718 30.6294Z" fill="#FF9900"/>
</g>
<defs>
<clipPath id="clip0_1771_5607">
<rect x="0.188477" y="0.754639" width="48" height="48" rx="8" fill="white"/>
</clipPath>
</defs>
</svg>
