<svg fill="none" height="72" viewBox="0 0 72 72" width="72" xmlns="http://www.w3.org/2000/svg" xmlns:xlink="http://www.w3.org/1999/xlink"><linearGradient id="a" gradientUnits="userSpaceOnUse" x1="-14.9088" x2="86.9184" y1="86.9088" y2="-14.9184"><stop offset="0" stop-color="#bd0816"/><stop offset="1" stop-color="#ff5252"/></linearGradient><clipPath id="b"><path d="m0 0h72v72h-72z"/></clipPath><g clip-path="url(#b)"><path d="m72 0h-72v72h72z" fill="url(#a)"/><g fill="#fff"><path d="m57.312 18.2402h-42.624c-.7121.0026-1.3944.2866-1.8979.7901-.5036.5036-.7876 1.1858-.7901 1.8979v30.144c.0025.7122.2865 1.3944.7901 1.8979.5035.5036 1.1858.7876 1.8979.7901h42.624c.7121-.0025 1.3943-.2865 1.8979-.7901.5036-.5035.7876-1.1857.7901-1.8979v-30.144c-.0025-.7121-.2865-1.3943-.7901-1.8979-.5036-.5035-1.1858-.7875-1.8979-.7901zm.768 32.832c0 .2037-.0809.3991-.2249.5431-.1441.144-.3394.2249-.5431.2249h-42.624c-.2037 0-.399-.0809-.5431-.2249-.144-.144-.2249-.3394-.2249-.5431v-30.144c0-.2037.0809-.399.2249-.543.1441-.1441.3394-.225.5431-.225h42.624c.2037 0 .399.0809.5431.225.144.144.2249.3393.2249.543z"/><path d="m48.48 30.7207h-9.6v1.92h9.6z"/><path d="m54.24 30.7207h-1.92v1.92h1.92z"/><path d="m34.7616 33.8879c-.0889-.0907-.1949-.1629-.3119-.2123-.117-.0495-.2427-.0752-.3697-.0757h-13.44v-4.8c.0134-.5361.1502-1.0619.4-1.5365.2498-.4745.6057-.885 1.04-1.1995.9683-.7272 2.1491-1.1152 3.36-1.104 1.2587-.0178 2.4831.4108 3.456 1.2096.4025.3137.7314.7117.9636 1.1662.2322.4544.3621.9542.3804 1.4642v4.8h1.92v-5.184c-.0174-.7532-.2094-1.492-.5609-2.1584-.3515-.6663-.8529-1.242-1.4647-1.6816-1.3502-1.0202-3.0022-1.5607-4.6944-1.536-3.7056 0-6.72 2.4096-6.72 5.3664v5.1936h-1.92c-.2546 0-.4988.1011-.6788.2812-.18.18-.2812.4242-.2812.6788v13.44c0 .2546.1012.4988.2812.6788s.4242.2812.6788.2812h17.28c.2546 0 .4988-.1012.6789-.2812.18-.18.2811-.4242.2811-.6788v-13.44c-.001-.2519-.101-.4932-.2784-.672zm-1.6416 4.512h-2.88v1.92h2.88v1.92h-2.88v1.92h2.88v2.88h-15.36v-11.52h15.36z"/><path d="m25.44 37.0273c-.6596.0025-1.2973.2368-1.8018.6618-.5044.425-.8434 1.0137-.9578 1.6633-.1143.6496.0032 1.3188.3322 1.8905.3289.5717.8483 1.0096 1.4674 1.2372v2.64h1.92v-2.64c.6191-.2276 1.1385-.6655 1.4674-1.2372.329-.5717.4465-1.2409.3321-1.8905-.1143-.6496-.4533-1.2383-.9578-1.6633-.5044-.425-1.1421-.6593-1.8017-.6618zm0 4.032c-.2411 0-.4769-.0715-.6774-.2054-.2005-.134-.3567-.3244-.449-.5472s-.1164-.4679-.0694-.7044c.0471-.2365.1632-.4538.3337-.6243s.3877-.2866.6242-.3336c.2365-.0471.4817-.0229.7045.0693.2227.0923.4131.2486.5471.4491s.2055.4362.2055.6773c0 .1602-.0315.3187-.0928.4666s-.1511.2823-.2643.3956c-.1132.1132-.2476.203-.3955.2642-.148.0613-.3065.0928-.4666.0928z"/><path d="m45.6 35.5205h-6.72v1.92h6.72z"/><path d="m54.24 35.5205h-4.8v1.92h4.8z"/><path d="m51.36 40.3203h-12.48v1.92h12.48z"/></g></g></svg>