<svg width="44" height="33" viewBox="0 0 44 33" fill="none" xmlns="http://www.w3.org/2000/svg">
<path d="M20.41 31.236L30.454 29.46L30.547 29.439L25.381 23.292C23.6485 21.2419 21.9255 19.1839 20.212 17.118C20.212 17.088 25.549 2.391 25.579 2.34C28.5318 7.3951 31.4658 12.4611 34.381 17.538L43.231 32.883L43.3 33L10.456 32.997L20.41 31.236ZM0.700012 29.364C0.700012 29.355 3.13301 25.128 6.10901 19.971L11.521 10.59L17.827 5.298C21.295 2.391 24.142 0 24.151 0C24.1287 0.0887566 24.0954 0.174407 24.052 0.255L17.2 14.943L10.48 29.367L5.59001 29.373C2.89901 29.376 0.700012 29.373 0.700012 29.364Z" fill="#2684FF"/>
</svg>
