<svg width="24" height="25" viewBox="0 0 24 25" fill="none" xmlns="http://www.w3.org/2000/svg">
<path d="M5.03521 6.02396C5.32539 5.72839 5.32102 5.25354 5.02545 4.96335C4.72987 4.67316 4.25502 4.67753 3.96483 4.97311C1.90172 7.07453 0.74585 9.90177 0.74585 12.8467C0.74585 15.7916 1.90172 18.6188 3.96483 20.7202C4.25502 21.0158 4.72987 21.0202 5.02545 20.73C5.32102 20.4398 5.32539 19.9649 5.03521 19.6694C3.24745 17.8484 2.24585 15.3985 2.24585 12.8467C2.24585 10.2948 3.24745 7.84492 5.03521 6.02396Z" fill="#512FC9"/>
<path d="M18.9746 4.96335C19.2701 4.67316 19.745 4.67753 20.0352 4.97311C22.0983 7.07453 23.2542 9.90177 23.2542 12.8467C23.2542 15.7916 22.0983 18.6188 20.0352 20.7202C19.745 21.0158 19.2701 21.0202 18.9746 20.73C18.679 20.4398 18.6746 19.9649 18.9648 19.6694C20.7526 17.8484 21.7542 15.3985 21.7542 12.8467C21.7542 10.2948 20.7526 7.84492 18.9648 6.02396C18.6746 5.72839 18.679 5.25354 18.9746 4.96335Z" fill="#512FC9"/>
<path d="M7.52697 8.84662C7.80335 8.53809 7.77728 8.06393 7.46875 7.78755C7.16022 7.51118 6.68606 7.53725 6.40969 7.84578C5.17841 9.22032 4.49756 11.0008 4.49756 12.8462C4.49756 14.6916 5.17841 16.4721 6.40969 17.8466C6.68606 18.1551 7.16022 18.1812 7.46875 17.9048C7.77728 17.6285 7.80335 17.1543 7.52697 16.8458C6.54214 15.7464 5.99756 14.3222 5.99756 12.8462C5.99756 11.3702 6.54214 9.94604 7.52697 8.84662Z" fill="#512FC9"/>
<path d="M16.5311 7.78755C16.8396 7.51118 17.3138 7.53725 17.5901 7.84578C18.8214 9.22032 19.5023 11.0008 19.5023 12.8462C19.5023 14.6916 18.8214 16.4721 17.5901 17.8466C17.3138 18.1551 16.8396 18.1812 16.5311 17.9048C16.2226 17.6285 16.1965 17.1543 16.4729 16.8458C17.4577 15.7464 18.0023 14.3222 18.0023 12.8462C18.0023 11.3702 17.4577 9.94604 16.4729 8.84662C16.1965 8.53809 16.2226 8.06393 16.5311 7.78755Z" fill="#512FC9"/>
<path fill-rule="evenodd" clip-rule="evenodd" d="M8.25 12.8462C8.25 10.7751 9.92893 9.09619 12 9.09619C14.0711 9.09619 15.75 10.7751 15.75 12.8462C15.75 14.9173 14.0711 16.5962 12 16.5962C9.92893 16.5962 8.25 14.9173 8.25 12.8462ZM12 10.5962C10.7574 10.5962 9.75 11.6036 9.75 12.8462C9.75 14.0888 10.7574 15.0962 12 15.0962C13.2426 15.0962 14.25 14.0888 14.25 12.8462C14.25 11.6036 13.2426 10.5962 12 10.5962Z" fill="#512FC9"/>
</svg>
