<svg width="24" height="24" viewBox="0 0 24 24" fill="none" xmlns="http://www.w3.org/2000/svg">
<path fill-rule="evenodd" clip-rule="evenodd" d="M6.06228 4.2699C7.93884 2.82839 10.2756 2.11853 12.6369 2.27267C14.9982 2.42681 17.2228 3.43444 18.8961 5.10767C20.5693 6.78091 21.5769 9.00556 21.7311 11.3669C21.8852 13.7281 21.1754 16.0649 19.7338 17.9415C18.2923 19.818 16.2176 21.1063 13.8963 21.5661C11.6876 22.0037 9.39909 21.6626 7.41796 20.6073L4.22553 21.672C3.96124 21.7601 3.6776 21.7729 3.40645 21.7089C3.1353 21.6449 2.88732 21.5067 2.69032 21.3097C2.49331 21.1127 2.35507 20.8647 2.29108 20.5935C2.22709 20.3224 2.23988 20.0388 2.32802 19.7745L3.39621 16.5853C2.34107 14.6043 2.00013 12.316 2.43763 10.1074C2.89743 7.78619 4.18571 5.71142 6.06228 4.2699ZM12.5392 3.76949C10.5412 3.63906 8.56391 4.23971 6.97605 5.45945C5.38819 6.67919 4.2981 8.43477 3.90903 10.3989C3.51997 12.363 3.85847 14.4015 4.86143 16.1345C4.96923 16.3208 4.99182 16.5443 4.92348 16.7484L3.75098 20.249L7.25627 19.08C7.4601 19.012 7.68329 19.0347 7.86925 19.1423C9.6022 20.1453 11.6408 20.4838 13.6049 20.0947C15.569 19.7056 17.3246 18.6156 18.5443 17.0277C19.764 15.4398 20.3647 13.4626 20.2343 11.4646C20.1038 9.46655 19.2512 7.58415 17.8354 6.16833C16.4196 4.75252 14.5372 3.89991 12.5392 3.76949Z" fill="#5531D4"/>
</svg>
