<svg width="13" height="13" viewBox="0 0 13 13" fill="none" xmlns="http://www.w3.org/2000/svg">
<path d="M9.35355 5.35355C9.54882 5.15829 9.54882 4.84171 9.35355 4.64645C9.15829 4.45118 8.84171 4.45118 8.64645 4.64645L5.5 7.79289L4.35355 6.64645C4.15829 6.45118 3.84171 6.45118 3.64645 6.64645C3.45118 6.84171 3.45118 7.15829 3.64645 7.35355L5.14645 8.85355C5.34171 9.04882 5.65829 9.04882 5.85355 8.85355L9.35355 5.35355Z" fill="black" fill-opacity="0.54"/>
<path fill-rule="evenodd" clip-rule="evenodd" d="M6.5 0C2.91015 0 0 2.91015 0 6.5C0 10.0899 2.91015 13 6.5 13C10.0899 13 13 10.0899 13 6.5C13 2.91015 10.0899 0 6.5 0ZM1 6.5C1 3.46243 3.46243 1 6.5 1C9.53757 1 12 3.46243 12 6.5C12 9.53757 9.53757 12 6.5 12C3.46243 12 1 9.53757 1 6.5Z" fill="black" fill-opacity="0.54"/>
</svg>
