<svg width="48" height="48" viewBox="0 0 48 48" fill="none" xmlns="http://www.w3.org/2000/svg">
<g clip-path="url(#clip0_2787_27608)">
<path fill-rule="evenodd" clip-rule="evenodd" d="M24.0416 0C12.8605 0 3.47745 7.67585 0.836701 18.0534C0.818808 18.1289 0.806641 18.2059 0.806641 18.2862C0.806641 18.9173 1.31742 19.4289 1.94749 19.4289H11.6015C12.0612 19.4289 12.4546 19.1539 12.6362 18.7614C14.6197 14.435 18.9782 11.4279 24.0416 11.4279C30.969 11.4279 36.5878 17.0578 36.5878 24.0003C36.5878 30.943 30.969 36.5728 24.0416 36.5728C18.9782 36.5728 14.6214 33.5652 12.6379 29.2376L12.6362 29.2401C12.4546 28.8468 12.0612 28.5723 11.6015 28.5723H1.94749C1.31742 28.5723 0.806641 29.0825 0.806641 29.7152C0.806641 29.7934 0.818808 29.868 0.835031 29.9428C3.47506 40.321 12.8583 48 24.0416 48C37.269 48 47.994 37.2534 47.994 24.0003C47.994 10.7456 37.269 0 24.0416 0ZM18.3381 24.0003C18.3381 20.8452 20.8923 18.2862 24.0416 18.2862C27.1908 18.2862 29.7439 20.8452 29.7439 24.0003C29.7439 27.1556 27.1908 29.7152 24.0416 29.7152C20.8923 29.7152 18.3381 27.1556 18.3381 24.0003Z" fill="black"/>
</g>
<defs>
<clipPath id="clip0_2787_27608">
<rect width="48" height="48" rx="8" fill="white"/>
</clipPath>
</defs>
</svg>
