<svg width="24" height="25" viewBox="0 0 24 25" fill="none" xmlns="http://www.w3.org/2000/svg">
<g clip-path="url(#clip0_4674_2714)">
<path d="M2.3861 0.859863H0.280493C0.125581 0.859863 0 0.985447 0 1.14036V24.5794C0 24.7343 0.125581 24.8599 0.280493 24.8599H2.3861C2.54101 24.8599 2.66659 24.7343 2.66659 24.5794V1.14036C2.66659 0.985447 2.54101 0.859863 2.3861 0.859863Z" fill="#FCFF74"/>
<path d="M7.71976 0.859863H5.61415C5.45924 0.859863 5.33366 0.985447 5.33366 1.14036V24.5794C5.33366 24.7343 5.45924 24.8599 5.61415 24.8599H7.71976C7.87467 24.8599 8.00025 24.7343 8.00025 24.5794V1.14036C8.00025 0.985447 7.87467 0.859863 7.71976 0.859863Z" fill="#FCFF74"/>
<path d="M10.9472 0.859863H13.0528C13.2077 0.859863 13.3333 0.985447 13.3333 1.14036V24.5794C13.3333 24.7343 13.2077 24.8599 13.0528 24.8599H10.9472C10.7922 24.8599 10.6667 24.7343 10.6667 24.5794V1.14036C10.6667 0.985447 10.7922 0.859863 10.9472 0.859863Z" fill="#FCFF74"/>
<path d="M18.3854 0.859863H16.2798C16.1249 0.859863 15.9993 0.985447 15.9993 1.14036V24.5794C15.9993 24.7343 16.1249 24.8599 16.2798 24.8599H18.3854C18.5404 24.8599 18.6659 24.7343 18.6659 24.5794V1.14036C18.6659 0.985447 18.5404 0.859863 18.3854 0.859863Z" fill="#FCFF74"/>
<path d="M21.6138 10.1934H23.7194C23.8743 10.1934 23.9999 10.3189 23.9999 10.4739V15.2462C23.9999 15.4011 23.8743 15.5267 23.7194 15.5267H21.6138C21.4589 15.5267 21.3333 15.4011 21.3333 15.2462V10.4739C21.3333 10.3189 21.4589 10.1934 21.6138 10.1934Z" fill="#FCFF74"/>
</g>
<defs>
<clipPath id="clip0_4674_2714">
<rect width="24" height="24" fill="white" transform="translate(0 0.859863)"/>
</clipPath>
</defs>
</svg>
