<svg width="25" height="24" viewBox="0 0 25 24" fill="none" xmlns="http://www.w3.org/2000/svg">
<path d="M9.57422 10.5C9.16001 10.5 8.82422 10.8358 8.82422 11.25C8.82422 11.6642 9.16001 12 9.57422 12H15.5742C15.9884 12 16.3242 11.6642 16.3242 11.25C16.3242 10.8358 15.9884 10.5 15.5742 10.5H9.57422Z" fill="black" fill-opacity="0.72"/>
<path d="M9.57422 13.5C9.16001 13.5 8.82422 13.8358 8.82422 14.25C8.82422 14.6642 9.16001 15 9.57422 15H15.5742C15.9884 15 16.3242 14.6642 16.3242 14.25C16.3242 13.8358 15.9884 13.5 15.5742 13.5H9.57422Z" fill="black" fill-opacity="0.72"/>
<path fill-rule="evenodd" clip-rule="evenodd" d="M9.22011 3C9.27564 2.93792 9.33303 2.87723 9.39224 2.81802C10.2362 1.97411 11.3807 1.5 12.5742 1.5C13.7677 1.5 14.9123 1.97411 15.7562 2.81802C15.8154 2.87723 15.8728 2.93792 15.9283 3H19.3242C19.722 3 20.1036 3.15804 20.3849 3.43934C20.6662 3.72065 20.8242 4.10218 20.8242 4.5V20.25C20.8242 20.6478 20.6662 21.0294 20.3849 21.3107C20.1036 21.592 19.722 21.75 19.3242 21.75H5.82422C5.4264 21.75 5.04486 21.592 4.76356 21.3107C4.48225 21.0294 4.32422 20.6478 4.32422 20.25V4.5C4.32422 4.10217 4.48225 3.72064 4.76356 3.43934C5.04486 3.15804 5.42639 3 5.82422 3H9.22011ZM10.4529 3.87868C11.0155 3.31607 11.7786 3 12.5742 3C13.3699 3 14.1329 3.31607 14.6955 3.87868C14.7944 3.97758 14.8857 4.08267 14.969 4.19305C14.9722 4.19746 14.9755 4.20184 14.9789 4.20617C15.3631 4.72126 15.5742 5.34975 15.5742 6H9.57422C9.57422 5.34975 9.78533 4.72126 10.1696 4.20617C10.1729 4.20183 10.1762 4.19746 10.1794 4.19305C10.2627 4.08268 10.354 3.97758 10.4529 3.87868ZM8.33158 4.5H5.82422L5.82422 20.25H19.3242L19.3242 4.5H16.8169C16.9856 4.97731 17.0742 5.48409 17.0742 6V6.75C17.0742 7.16421 16.7384 7.5 16.3242 7.5H8.82422C8.41001 7.5 8.07422 7.16421 8.07422 6.75V6C8.07422 5.48409 8.16281 4.97731 8.33158 4.5Z" fill="black" fill-opacity="0.72"/>
</svg>
