<svg width="24" height="24" viewBox="0 0 24 24" fill="none" xmlns="http://www.w3.org/2000/svg">
<path fill-rule="evenodd" clip-rule="evenodd" d="M16.317 5.37921C15.0076 5.11876 13.6504 5.25244 12.417 5.76333C11.1836 6.27422 10.1294 7.13938 9.38769 8.24942C8.646 9.35945 8.25011 10.6645 8.25011 11.9995C8.25011 12.4137 7.91433 12.7495 7.50011 12.7495C7.0859 12.7495 6.75011 12.4137 6.75011 11.9995C6.75011 11.2381 6.85547 10.4847 7.05996 9.75976C6.69936 9.73539 6.33613 9.75449 5.97818 9.81736C5.34973 9.92773 4.75194 10.1705 4.22447 10.5295C3.697 10.8886 3.25192 11.3557 2.91875 11.8998C2.58558 12.444 2.37195 13.0528 2.29203 13.6859C2.21211 14.3189 2.26773 14.9617 2.4552 15.5716C2.64266 16.1815 2.95769 16.7446 3.37938 17.2235C3.80106 17.7023 4.31977 18.0861 4.90107 18.3492C5.48237 18.6123 6.11297 18.7487 6.75104 18.7495H15.0001C16.3351 18.7495 17.6402 18.3536 18.7502 17.6119C19.8602 16.8702 20.7254 15.816 21.2363 14.5826C21.7472 13.3492 21.8809 11.992 21.6204 10.6827C21.36 9.37328 20.7171 8.17055 19.7731 7.22654C18.8291 6.28254 17.6263 5.63966 16.317 5.37921ZM7.62009 8.31198C6.99017 8.22037 6.34831 8.22939 5.71871 8.33997C4.88078 8.48713 4.08372 8.81081 3.38043 9.28953C2.67714 9.76824 2.08369 10.3911 1.63947 11.1166C1.19524 11.8422 0.910403 12.6539 0.803843 13.498C0.697283 14.3421 0.771442 15.1991 1.0214 16.0123C1.27135 16.8256 1.69139 17.5763 2.25364 18.2148C2.81589 18.8533 3.50749 19.3649 4.28256 19.7157C5.05762 20.0665 5.89843 20.2485 6.74919 20.2495H6.75011H15.0001C16.6318 20.2495 18.2269 19.7657 19.5836 18.8591C20.9403 17.9526 21.9977 16.6641 22.6221 15.1567C23.2465 13.6492 23.4099 11.9904 23.0916 10.39C22.7733 8.78968 21.9875 7.31967 20.8337 6.16588C19.68 5.0121 18.21 4.22636 16.6096 3.90804C15.0093 3.58971 13.3505 3.75309 11.843 4.37751C10.3355 5.00193 9.04701 6.05936 8.14049 7.41606C7.94771 7.70457 7.77405 8.00386 7.62009 8.31198Z" fill="black"/>
</svg>
