<svg width="25" height="24" viewBox="0 0 25 24" fill="none" xmlns="http://www.w3.org/2000/svg">
<path fill-rule="evenodd" clip-rule="evenodd" d="M20.0682 17.0408L18.0715 15.7238L16.4058 18.5061L14.4686 17.9396L12.7628 20.5431L12.8503 21.3626L22.1246 19.6538L21.5859 13.8591L20.0682 17.0408ZM11.4192 14.5424L12.9072 14.3378C13.1479 14.446 13.3155 14.4872 13.6042 14.5606C14.0538 14.6778 14.5742 14.7902 15.345 14.4017C15.5244 14.3129 15.898 13.9712 16.049 13.7764L22.1456 12.6704L22.7675 20.1975L12.3231 22.0799L11.4192 14.5424ZM22.744 11.8302L22.1423 11.9448L20.9861 0L1.28662 2.28425L3.71353 21.9787L6.01936 21.644C5.83522 21.3811 5.5485 21.063 5.05886 20.6558C4.37975 20.0916 4.61995 19.1333 5.02046 18.5282C5.55046 17.5058 8.28119 16.2064 8.12648 14.5721C8.07099 13.9779 7.97653 13.2044 7.42495 12.6744C7.40421 12.8944 7.44149 13.1063 7.44149 13.1063C7.44149 13.1063 7.21502 12.8173 7.10207 12.4232C6.98996 12.2722 6.90195 12.224 6.78284 12.0222C6.69791 12.2556 6.70912 12.5264 6.70912 12.5264C6.70912 12.5264 6.52386 12.0886 6.49387 11.7192C6.384 11.8846 6.35626 12.1987 6.35626 12.1987C6.35626 12.1987 6.1155 11.5087 6.17043 11.1371C6.06057 10.8136 5.73488 10.1718 5.8271 8.71295C6.42829 9.1342 7.75175 9.03414 8.26746 8.27403C8.43871 8.02235 8.55586 7.33511 8.18198 5.98109C7.94178 5.1128 7.34703 3.81988 7.11524 3.3294L7.0875 3.3493C7.2097 3.74449 7.46167 4.57299 7.55836 4.97462C7.85097 6.19298 7.92945 6.61704 7.79211 7.17871C7.67524 7.66695 7.39496 7.98647 6.68446 8.34354C5.97396 8.70173 5.03111 7.83008 4.97141 7.78187C4.28109 7.23197 3.74717 6.3348 3.68747 5.89897C3.62553 5.42194 3.96242 5.1355 4.13227 4.74536C3.88927 4.81486 3.61824 4.93819 3.61824 4.93819C3.61824 4.93819 3.94168 4.60354 4.34051 4.31401C4.50559 4.2047 4.60257 4.13519 4.77662 3.99057C4.52465 3.98637 4.32005 3.99365 4.32005 3.99365C4.32005 3.99365 4.74018 3.76663 5.17573 3.60127C4.85706 3.58725 4.55212 3.59903 4.55212 3.59903C4.55212 3.59903 5.48964 3.17973 6.23013 2.87199C6.73939 2.66318 7.23688 2.72485 7.51632 3.129C7.8832 3.65844 8.26858 3.94601 9.08531 4.12426C9.58672 3.902 9.73919 3.78765 10.3693 3.61612C10.9239 3.00624 11.3595 2.9272 11.3595 2.9272C11.3595 2.9272 11.1434 3.12536 11.0856 3.43675C11.4001 3.18898 11.7448 2.98214 11.7448 2.98214C11.7448 2.98214 11.6114 3.14694 11.487 3.40872L11.5159 3.4516C11.8827 3.23158 12.3141 3.05809 12.3141 3.05809C12.3141 3.05809 12.1908 3.21393 12.0461 3.41573C12.3228 3.41348 12.8839 3.4275 13.1017 3.45216C14.3873 3.48047 14.6541 2.07909 15.1474 1.90336C15.7651 1.68278 16.0412 1.54937 17.0939 2.58331C17.9972 3.47094 18.703 5.05983 18.3526 5.41578C18.0589 5.71119 17.4793 5.30058 16.8369 4.49983C16.4975 4.07578 16.2408 3.57464 16.1205 2.93757C16.0191 2.4 15.6242 2.08806 15.6242 2.08806C15.6242 2.08806 15.8534 2.5976 15.8534 3.04772C15.8534 3.29353 15.8842 4.21255 16.2783 4.72826C16.2394 4.80365 16.2211 5.10131 16.178 5.1582C15.7194 4.6041 14.7348 4.20751 14.5742 4.09063C15.1177 4.53599 16.3669 5.559 16.8467 6.5394C17.3005 7.46656 17.0331 8.31635 17.2626 8.53637C17.3279 8.59943 18.2386 9.73399 18.4137 10.3041C18.7192 11.2977 18.432 12.3417 18.032 12.9894L16.9151 13.1635C16.7517 13.118 16.6416 13.0953 16.495 13.0104C16.5757 12.8675 16.7363 12.511 16.738 12.4375L16.6749 12.3268C16.3274 12.8193 15.7449 13.2974 15.2612 13.5721C14.628 13.9308 13.8982 13.8756 13.4231 13.7285C12.0747 13.3126 10.7998 12.4014 10.4923 12.162C10.4923 12.162 10.4828 12.3532 10.5408 12.3961C10.8808 12.7795 11.6596 13.4732 12.4125 13.9566L10.8076 14.1332L11.5663 20.0409C11.23 20.0891 11.1776 20.1126 10.8093 20.165C10.4847 19.0184 9.86391 18.2698 9.18537 17.8337C8.58698 17.4492 7.76156 17.3625 6.97146 17.5189L6.92073 17.5778C7.47007 17.5206 8.11863 17.6002 8.78485 18.022C9.43874 18.4354 9.96565 19.5033 10.1596 20.1462C10.4079 20.968 10.5797 21.847 9.91128 22.7786C9.43565 23.4409 8.04716 23.8069 6.9255 23.0152C7.22511 23.497 7.63011 23.891 8.17525 23.9653C8.98469 24.0752 9.75292 23.9347 10.2818 23.3918C10.7333 22.9277 10.9727 21.9571 10.9096 20.9349L11.624 20.8312L11.8819 22.6659L23.709 21.2418L22.744 11.8302ZM15.5485 6.84771C15.5154 6.9231 15.4636 6.97243 15.5415 7.21767L15.5462 7.23169L15.5586 7.26336L15.5911 7.33679C15.7315 7.62379 15.8856 7.89454 16.1432 8.03271C16.2099 8.0215 16.2789 8.01394 16.3503 8.01029C16.5922 7.99964 16.745 8.03804 16.842 8.09017C16.8506 8.04196 16.8526 7.97133 16.8473 7.86735C16.8285 7.50383 16.9193 6.88554 16.2206 6.56014C15.9568 6.43766 15.5869 6.4755 15.4636 6.62825C15.486 6.63105 15.5062 6.63582 15.5218 6.64114C15.7082 6.70645 15.5818 6.77063 15.5485 6.84771ZM17.5068 10.2396C17.4151 10.1892 16.9869 10.2091 16.6858 10.2449C16.1124 10.3125 15.4933 10.5115 15.3576 10.6174C15.111 10.808 15.2231 11.1404 15.4053 11.2769C15.9162 11.6586 16.3641 11.9145 16.8369 11.8523C17.1273 11.8142 17.3832 11.3545 17.5645 10.9375C17.6887 10.6502 17.6887 10.3402 17.5068 10.2396ZM12.4298 7.29783C12.5916 7.14424 11.6243 6.94244 10.8737 7.45423C10.3202 7.83176 10.3025 8.6412 10.8325 9.10001C10.8855 9.14541 10.9292 9.17764 10.9702 9.20399C11.1249 9.13112 11.3012 9.0574 11.5041 8.99154C11.8469 8.88027 12.1319 8.82281 12.3662 8.79226C12.4783 8.66698 12.6087 8.4464 12.5761 8.04701C12.5319 7.50524 12.1213 7.59128 12.4298 7.29783Z" fill="#632CA6"/>
</svg>
