<svg width="25" height="24" viewBox="0 0 25 24" fill="none" xmlns="http://www.w3.org/2000/svg">
<path d="M24.5 12.5737C24.5022 11.5998 24.2034 10.649 23.6442 9.85166C23.0851 9.0543 22.293 8.44931 21.3767 8.1196C21.4601 7.69456 21.5021 7.26244 21.5023 6.82928C21.5031 5.39554 21.0492 3.99848 20.2059 2.83895C19.3627 1.67942 18.1735 0.817136 16.8092 0.376093C15.4451 -0.0649511 13.9761 -0.0620446 12.6137 0.384395C11.2512 0.830835 10.0654 1.69782 9.22677 2.86067C8.60805 2.38121 7.84992 2.11644 7.06722 2.10649C6.28452 2.09655 5.51991 2.34194 4.88919 2.80551C4.25846 3.26909 3.79601 3.92559 3.57186 4.67559C3.34772 5.42556 3.3741 6.22816 3.647 6.9618C2.72848 7.2966 1.93452 7.90465 1.3719 8.70418C0.809285 9.50372 0.505015 10.4564 0.500016 11.434C0.497467 12.4112 0.797919 13.3652 1.36001 14.1646C1.92209 14.964 2.71817 15.5696 3.63863 15.8978C3.55716 16.3227 3.51559 16.7542 3.51448 17.1867C3.51312 18.6188 3.96659 20.0143 4.80949 21.1721C5.65242 22.3297 6.84121 23.1899 8.2045 23.6284C9.5678 24.0669 11.0351 24.0611 12.3949 23.6118C13.7547 23.1627 14.9367 22.2932 15.7704 21.1288C16.3874 21.6095 17.1442 21.8758 17.9262 21.8875C18.7082 21.8993 19.4726 21.6556 20.1035 21.1936C20.7346 20.7314 21.1977 20.0762 21.4226 19.3273C21.6476 18.5782 21.6222 17.7764 21.3502 17.0431C22.2692 16.7088 23.0638 16.1009 23.6266 15.3013C24.1896 14.5017 24.4938 13.5488 24.4986 12.5709" fill="white"/>
<path d="M9.93538 10.3446L15.1873 12.7425L20.4881 8.10013C20.5644 7.71708 20.6024 7.32734 20.6011 6.93675C20.6008 5.67223 20.1959 4.441 19.4454 3.42321C18.6951 2.40541 17.6387 1.6545 16.4307 1.28035C15.2228 0.906194 13.9269 0.928439 12.7325 1.34383C11.5382 1.75922 10.5081 2.54594 9.79309 3.58888L8.9101 8.15593L9.93538 10.3446Z" fill="#FEC514"/>
<path d="M4.49933 15.9062C4.4219 16.2953 4.3831 16.691 4.38355 17.0877C4.38358 18.3575 4.79062 19.5939 5.54495 20.6153C6.29928 21.6368 7.36115 22.3895 8.57474 22.7631C9.78832 23.1366 11.0897 23.1114 12.2879 22.6909C13.4861 22.2706 14.5179 21.4772 15.232 20.4272L16.1066 15.8699L14.9391 13.6381L9.66759 11.236L4.49933 15.9062Z" fill="#00BFB3"/>
<path d="M4.46715 6.81816L8.0661 7.66768L8.85424 3.57492C8.36473 3.20374 7.76815 3.00111 7.15385 2.99737C6.53953 2.99362 5.94053 3.18898 5.44654 3.55417C4.95255 3.91935 4.59014 4.43474 4.41358 5.02314C4.23702 5.61156 4.25581 6.24132 4.46715 6.81816Z" fill="#F04E98"/>
<path d="M4.15479 7.67462C3.36514 7.94108 2.67816 8.44702 2.1894 9.12203C1.70064 9.79705 1.43438 10.6076 1.42767 11.441C1.42711 12.2464 1.6717 13.0329 2.12893 13.6959C2.58615 14.359 3.23437 14.8672 3.9874 15.1529L9.03709 10.5887L8.10946 8.60784L4.15479 7.67462Z" fill="#1BA9F5"/>
<path d="M16.1556 20.4272C16.6444 20.7965 17.2394 20.9979 17.852 21.0011C18.4645 21.0043 19.0617 20.8094 19.5542 20.4454C20.0469 20.0813 20.4085 19.5675 20.5852 18.981C20.7618 18.3945 20.744 17.7665 20.5343 17.191L16.9381 16.354L16.1556 20.4272Z" fill="#93C90E"/>
<path d="M16.8863 15.4067L20.8452 16.3315C21.6353 16.0658 22.3227 15.5601 22.8116 14.8849C23.3006 14.2097 23.5664 13.3988 23.5723 12.5652C23.5716 11.7615 23.3265 10.977 22.8697 10.3158C22.4127 9.65457 21.7656 9.14791 21.014 8.86304L15.8359 13.3966L16.8863 15.4067Z" fill="#0077CC"/>
</svg>
