<svg width="24" height="24" viewBox="0 0 24 24" fill="none" xmlns="http://www.w3.org/2000/svg">
<path fill-rule="evenodd" clip-rule="evenodd" d="M3.25879 3.9337C4.91202 2.50185 6.52715 2.10564 8.10449 2.29405C9.61545 2.47459 11.0472 3.19188 12.333 3.82823C13.6719 4.49087 14.8657 5.07262 16.0732 5.21691C17.2145 5.35321 18.4123 5.09977 19.7588 3.9337C19.9807 3.74149 20.2945 3.69647 20.5615 3.81847C20.8284 3.9405 21 4.20666 21 4.50011V15.7501C20.9999 15.9676 20.9056 16.1751 20.7412 16.3175C19.0881 17.7492 17.4728 18.1445 15.8955 17.9562C14.3846 17.7757 12.9528 17.0583 11.667 16.422C10.3281 15.7594 9.13429 15.1776 7.92676 15.0333C6.85904 14.9058 5.74216 15.1196 4.5 16.1026V20.2501C4.49993 20.6643 4.16417 21.0001 3.75 21.0001C3.33583 21.0001 3.00007 20.6643 3 20.2501V4.50011C3 4.48572 3.00115 4.47133 3.00195 4.45714C3.00229 4.45128 3.00245 4.44542 3.00293 4.43956C3.00594 4.40179 3.01308 4.3652 3.02148 4.32921C3.0273 4.30441 3.03463 4.28015 3.04297 4.25597C3.05133 4.23173 3.05961 4.20772 3.07031 4.18468C3.07839 4.16726 3.08819 4.15076 3.09766 4.1339C3.11186 4.10865 3.12662 4.08399 3.14355 4.06066C3.17661 4.01514 3.21448 3.97213 3.25879 3.9337ZM7.92676 3.78331C6.85904 3.65576 5.74216 3.86964 4.5 4.85265V14.2921C5.72276 13.5894 6.92418 13.4031 8.10449 13.5441C9.61545 13.7246 11.0472 14.4419 12.333 15.0782C13.6719 15.7409 14.8657 16.3226 16.0732 16.4669C17.1409 16.5944 18.2579 16.3805 19.5 15.3976V5.95812C18.2772 6.66084 17.0759 6.84714 15.8955 6.70616C14.3846 6.52567 12.9528 5.80834 11.667 5.17198C10.3281 4.50935 9.13429 3.92762 7.92676 3.78331Z" fill="black"/>
</svg>
