<svg width="41" height="41" viewBox="0 0 41 41" fill="none" xmlns="http://www.w3.org/2000/svg">
<path fill-rule="evenodd" clip-rule="evenodd" d="M14.8684 8.35999C15.4089 8.3601 15.9349 8.53545 16.3674 8.85966L20.7017 12.11H31.5351C32.1981 12.11 32.8338 12.3736 33.3026 12.8424C33.7715 13.3112 34.0351 13.9469 34.0351 14.61V17.11H36.5351L36.8313 17.1279C37.1245 17.1629 37.4102 17.2498 37.6744 17.385C38.0269 17.5655 38.3315 17.8271 38.5631 18.1484C38.7945 18.4696 38.946 18.8411 39.0058 19.2324C39.0655 19.624 39.0318 20.0252 38.9065 20.401L34.4534 33.7555L34.3752 33.9394C34.1624 34.3465 33.7386 34.6098 33.2685 34.61H5.28506C5.23656 34.61 5.18889 34.6056 5.14183 34.6002C5.12539 34.5983 5.10931 34.5946 5.09301 34.5921C5.06779 34.5882 5.04283 34.5844 5.01814 34.5791C4.94772 34.5637 4.8793 34.5426 4.81306 34.5156C4.79976 34.5101 4.78706 34.5036 4.774 34.4977C4.71465 34.4711 4.65761 34.4404 4.6031 34.4049C4.59553 34.4 4.58777 34.3954 4.58031 34.3903C4.5208 34.3496 4.46467 34.3043 4.41267 34.2535C4.40415 34.2452 4.39653 34.2361 4.38825 34.2275C4.33844 34.176 4.29081 34.1218 4.24991 34.0615C4.20985 34.0023 4.17632 33.9399 4.14737 33.8759C4.13954 33.8587 4.13164 33.8415 4.12458 33.8239C4.09818 33.7576 4.07741 33.6896 4.06273 33.6204C4.05796 33.5979 4.05488 33.575 4.05134 33.552C4.04067 33.4831 4.03412 33.4136 4.03506 33.3437V10.86C4.03506 10.197 4.29867 9.56124 4.76748 9.09241C5.2363 8.62359 5.87205 8.36001 6.53506 8.35999H14.8684ZM23.1676 19.6116L20.0458 21.6917L20.0426 21.6933C19.6328 21.9644 19.152 22.1091 18.6607 22.11H11.1314L7.13077 32.11H32.3668L36.5351 19.61H23.1724L23.1676 19.6116ZM6.53506 26.8691L8.81208 21.1774L8.81371 21.1725L8.89021 21.0016C9.08248 20.6128 9.37341 20.2799 9.73493 20.0364C10.148 19.7585 10.6352 19.6096 11.133 19.61H18.6558L18.6623 19.6084L21.7841 17.5283L21.7873 17.5267C22.1971 17.2555 22.6778 17.1108 23.1692 17.11H31.5351V14.61H20.7017C20.1612 14.6099 19.6352 14.4345 19.2027 14.1103L14.8684 10.86H6.53506V26.8691Z" fill="black"/>
</svg>
