<svg width="24" height="24" viewBox="0 0 24 24" fill="none" xmlns="http://www.w3.org/2000/svg">
<path d="M23.8532 12.2727C23.8532 11.4217 23.7769 10.6036 23.6351 9.81812H12.3333V14.4654H18.7914C18.5078 15.9599 17.6569 17.2254 16.3805 18.0763V21.0981H20.2751C22.5441 19.0035 23.8532 15.9272 23.8532 12.2727Z" fill="#4285F4"/>
<path d="M12.3328 24.0001C15.5728 24.0001 18.2891 22.931 20.2746 21.0983L16.3801 18.0765C15.311 18.7964 13.9473 19.2328 12.3328 19.2328C9.21281 19.2328 6.56191 17.1274 5.61283 14.291H1.62012V17.3892C3.59465 21.3055 7.64191 24.0001 12.3328 24.0001Z" fill="#34A853"/>
<path d="M5.61331 14.2797C5.37331 13.5597 5.23149 12.7961 5.23149 11.9997C5.23149 11.2034 5.37331 10.4397 5.61331 9.71975V6.62158H1.6206C0.802417 8.23612 0.333328 10.0579 0.333328 11.9997C0.333328 13.9416 0.802417 15.7634 1.6206 17.3779L4.72967 14.9561L5.61331 14.2797Z" fill="#FBBC05"/>
<path d="M12.3328 4.77816C14.1001 4.77816 15.671 5.38907 16.9255 6.56724L20.3619 3.1309C18.2782 1.18909 15.5728 0 12.3328 0C7.64191 0 3.59465 2.69453 1.62012 6.62179L5.61283 9.71996C6.56191 6.88361 9.21281 4.77816 12.3328 4.77816Z" fill="#EA4335"/>
</svg>
