<svg width="40" height="40" viewBox="0 0 40 40" fill="none" xmlns="http://www.w3.org/2000/svg">
<path d="M38.1435 17.7011C38.0725 17.0271 37.9661 16.2467 37.7533 15.3954C37.5404 14.544 37.1857 13.6217 36.7246 12.6285C36.2279 11.6707 35.6249 10.642 34.809 9.68419C34.4897 9.29398 34.135 8.93925 33.7803 8.54904C34.3478 6.31423 33.1063 4.3632 33.1063 4.3632C30.9424 4.22131 29.5944 5.0372 29.0978 5.39193C29.0269 5.35645 28.9204 5.32098 28.8495 5.28551C28.4948 5.14361 28.1046 5.00172 27.7144 4.85983C27.3242 4.75341 26.9339 4.61152 26.5437 4.54057C26.1535 4.43415 25.7279 4.3632 25.3022 4.29226C25.2312 4.29226 25.1603 4.25678 25.0893 4.25678C24.167 1.27704 21.4711 0 21.4711 0C18.3849 1.9865 17.7819 4.64699 17.7819 4.64699C17.7819 4.64699 17.7819 4.71794 17.7464 4.78888C17.569 4.82436 17.4271 4.8953 17.2498 4.93078C17.0369 5.00172 16.7886 5.07267 16.5758 5.17909C16.3629 5.28551 16.1146 5.35645 15.9018 5.46287C15.4406 5.67571 15.0149 5.88855 14.5538 6.13686C14.1281 6.38518 13.7024 6.63349 13.3122 6.91728C13.2413 6.8818 13.2058 6.84633 13.2058 6.84633C9.05545 5.25003 5.36624 7.16559 5.36624 7.16559C5.04698 11.5997 7.03348 14.3666 7.42368 14.8633C7.31726 15.1471 7.24632 15.3954 7.1399 15.6792C6.82064 16.6724 6.6078 17.7011 6.46591 18.7653C6.43043 18.9072 6.43043 19.0846 6.39496 19.2265C2.56385 21.1066 1.42871 25.0086 1.42871 25.0086C4.6213 28.6978 8.38146 28.9107 8.38146 28.9107C8.84261 29.762 9.41018 30.5779 10.0132 31.3228C10.2615 31.6421 10.5453 31.9259 10.8291 32.2451C9.6585 35.5796 11.0065 38.382 11.0065 38.382C14.5893 38.5239 16.9305 36.8212 17.4271 36.431C17.7819 36.5374 18.1366 36.6438 18.4913 36.7502C19.591 37.034 20.7261 37.2114 21.8258 37.2469C22.1096 37.2469 22.3934 37.2469 22.6772 37.2469H22.8191H22.9255H23.1028H23.2802C24.9474 39.659 27.9272 39.9783 27.9272 39.9783C30.0201 37.7435 30.162 35.5796 30.162 35.083C30.162 35.083 30.162 35.083 30.162 35.0475C30.162 35.0121 30.162 34.9766 30.162 34.9766C30.162 34.9411 30.162 34.9056 30.162 34.8702C30.5877 34.5509 31.0134 34.2316 31.439 33.8769C32.2904 33.132 32.9999 32.2451 33.6384 31.3228C33.7093 31.2519 33.7448 31.1455 33.8158 31.0745C36.1925 31.2164 37.8597 29.5847 37.8597 29.5847C37.4695 27.1015 36.0506 25.8954 35.7668 25.6826C35.7668 25.6826 35.7668 25.6826 35.7313 25.6471L35.6958 25.6117L35.6604 25.5762C35.6604 25.4343 35.6958 25.2924 35.6958 25.115C35.7313 24.8312 35.7313 24.5829 35.7313 24.2991V24.0863V23.9799V23.9444C35.7313 23.8735 35.7313 23.9089 35.7313 23.8735V23.6961V23.4833C35.7313 23.4123 35.7313 23.3414 35.7313 23.2704C35.7313 23.1995 35.7313 23.1285 35.6958 23.0576L35.6604 22.8447L35.6249 22.6319C35.5894 22.3481 35.5185 22.0998 35.483 21.816C35.2347 20.7518 34.809 19.7231 34.2769 18.8363C33.7093 17.914 33.0353 17.1336 32.2549 16.4241C31.4745 15.7501 30.6232 15.1825 29.7009 14.7923C28.7786 14.3666 27.8563 14.1183 26.8985 14.0119C26.4373 13.941 25.9407 13.941 25.4795 13.941H25.3022H25.2667H25.1958H25.1248H24.9474C24.8765 13.941 24.8056 13.941 24.7701 13.941C24.5218 13.9764 24.2735 14.0119 24.0606 14.0474C23.1028 14.2248 22.216 14.5795 21.4356 15.0406C20.6552 15.5018 19.9812 16.1048 19.4136 16.7788C18.8461 17.4528 18.4204 18.1623 18.1366 18.9427C17.8528 19.6876 17.6754 20.5035 17.64 21.2485C17.64 21.4258 17.64 21.6387 17.64 21.816C17.64 21.8515 17.64 21.9224 17.64 21.9579V22.0998C17.64 22.2062 17.64 22.2772 17.6754 22.3836C17.7109 22.7738 17.7819 23.1285 17.8883 23.4833C18.1011 24.1927 18.4204 24.8312 18.8461 25.3988C19.2717 25.9664 19.7329 26.3921 20.265 26.7468C20.7971 27.1015 21.3292 27.3498 21.8968 27.5272C22.4643 27.7046 22.9964 27.7755 23.493 27.74C23.564 27.74 23.6349 27.74 23.6704 27.74C23.7059 27.74 23.7414 27.74 23.7768 27.74C23.8123 27.74 23.8478 27.74 23.8833 27.74C23.9542 27.74 23.9897 27.74 24.0606 27.74H24.0961H24.1316C24.167 27.74 24.2025 27.74 24.238 27.74C24.3089 27.74 24.3799 27.7046 24.4153 27.7046C24.4863 27.7046 24.5218 27.6691 24.5927 27.6691C24.6991 27.6336 24.841 27.5982 24.9474 27.5627C25.1603 27.4917 25.3731 27.3853 25.586 27.3144C25.7988 27.2079 25.9762 27.1015 26.1181 26.9951C26.1535 26.9596 26.2245 26.9242 26.26 26.8887C26.4373 26.7468 26.4728 26.4985 26.3309 26.3211C26.189 26.1792 25.9762 26.1438 25.7988 26.2147C25.7633 26.2502 25.7279 26.2502 25.6569 26.2856C25.515 26.3566 25.3377 26.4275 25.1958 26.463C25.0184 26.4985 24.841 26.5694 24.6637 26.6049C24.5572 26.6049 24.4863 26.6404 24.3799 26.6404C24.3444 26.6404 24.2735 26.6404 24.238 26.6404C24.2025 26.6404 24.1316 26.6404 24.0961 26.6404C24.0606 26.6404 23.9897 26.6404 23.9542 26.6404C23.8833 26.6404 23.8478 26.6404 23.7768 26.6404H23.7414H23.7059C23.6704 26.6404 23.6704 26.6404 23.6349 26.6404C23.5995 26.6404 23.5285 26.6404 23.493 26.6049C23.1028 26.534 22.6772 26.4275 22.287 26.2502C21.8968 26.0728 21.5065 25.8245 21.1873 25.5052C20.8326 25.186 20.5488 24.8312 20.3005 24.4056C20.0521 23.9799 19.9103 23.5187 19.8393 23.0576C19.8038 22.8093 19.7684 22.561 19.8038 22.3126C19.8038 22.2417 19.8038 22.1708 19.8038 22.0998V22.0643V22.0289C19.8038 21.9934 19.8038 21.9579 19.8038 21.9224C19.8038 21.7805 19.8393 21.6741 19.8748 21.5322C20.0521 20.468 20.5842 19.4393 21.4001 18.6589C21.613 18.4461 21.8258 18.2687 22.0741 18.1268C22.3224 17.9494 22.5707 17.8076 22.8191 17.7011C23.0674 17.5947 23.3512 17.4883 23.6349 17.4173C23.9187 17.3464 24.2025 17.2755 24.4863 17.2755C24.6282 17.2755 24.7701 17.24 24.912 17.24C24.9474 17.24 24.9829 17.24 25.0184 17.24H25.1248H25.1958H25.2312H25.3377C25.6569 17.2755 25.9762 17.3109 26.26 17.3819C26.863 17.5238 27.466 17.7366 28.0336 18.0559C29.1688 18.6944 30.1265 19.6522 30.6941 20.8228C30.9779 21.3903 31.1907 22.0289 31.2972 22.7029C31.3326 22.8802 31.3326 23.0221 31.3681 23.1995V23.3059V23.4123C31.3681 23.4478 31.3681 23.4833 31.3681 23.5187C31.3681 23.5542 31.3681 23.5897 31.3681 23.6252V23.7316V23.838C31.3681 23.9089 31.3681 24.0508 31.3681 24.1218C31.3681 24.2991 31.3326 24.4765 31.3326 24.6539C31.2972 24.8312 31.2972 25.0086 31.2617 25.186C31.2262 25.3633 31.1907 25.5407 31.1553 25.7181C31.0843 26.0728 30.9424 26.3921 30.836 26.7468C30.5877 27.4208 30.233 28.0593 29.8073 28.6269C28.9559 29.7975 27.7853 30.7553 26.4728 31.3583C25.7988 31.6421 25.1248 31.8904 24.4153 31.9968C24.0606 32.0678 23.7059 32.1033 23.3512 32.1033H23.2802H23.2093H23.1028H22.9255H22.8191H22.7836C22.6062 32.1033 22.3934 32.1033 22.216 32.0678C21.4356 31.9968 20.6907 31.8549 19.9457 31.6421C19.2008 31.4293 18.4913 31.1455 17.8173 30.7907C16.4694 30.0813 15.2633 29.0526 14.3055 27.8819C13.8443 27.2789 13.4187 26.6404 13.0639 25.9664C12.7092 25.2924 12.4609 24.5829 12.248 23.8735C12.0352 23.164 11.9288 22.4191 11.8933 21.6741V21.5322V21.4968V21.4613V21.3903V21.2839V21.2485V21.213V21.142V20.9647V20.9292V20.8582C11.8933 20.7518 11.8933 20.6809 11.8933 20.5745C11.8933 20.2197 11.9288 19.8295 11.9997 19.4393C12.0352 19.0491 12.1061 18.6944 12.1771 18.3042C12.248 17.914 12.3545 17.5592 12.4609 17.169C12.6737 16.4241 12.922 15.7146 13.2413 15.0406C13.8798 13.6927 14.6957 12.4866 15.6535 11.5288C15.9018 11.2805 16.1501 11.0676 16.4339 10.8548C16.5403 10.7484 16.7886 10.5355 17.0724 10.3582C17.3562 10.1808 17.64 10.0034 17.9592 9.86155C18.1011 9.7906 18.243 9.71966 18.4204 9.64871C18.4913 9.61324 18.5623 9.57777 18.6687 9.54229C18.7396 9.50682 18.8106 9.47135 18.917 9.43587C19.2363 9.29398 19.5555 9.18756 19.8748 9.08114C19.9457 9.04567 20.0521 9.04567 20.1231 9.01019C20.194 8.97472 20.3005 8.97472 20.3714 8.93925C20.5488 8.90378 20.6907 8.8683 20.868 8.79735C20.939 8.76188 21.0454 8.76188 21.1163 8.72641C21.1873 8.72641 21.2937 8.69094 21.3647 8.69094C21.4356 8.69094 21.542 8.65546 21.613 8.65546L21.7549 8.61999L21.8968 8.58452C21.9677 8.58452 22.0741 8.54904 22.1451 8.54904C22.2515 8.54904 22.3224 8.51357 22.4289 8.51357C22.4998 8.51357 22.6417 8.4781 22.7126 8.4781C22.7836 8.4781 22.8191 8.4781 22.89 8.44262H22.9964H23.0674H23.1383C23.2447 8.44262 23.3157 8.44262 23.4221 8.40715H23.564H23.5995H23.6704C23.7414 8.40715 23.8478 8.40715 23.9187 8.40715C24.238 8.40715 24.5572 8.40715 24.8765 8.40715C25.515 8.44262 26.1535 8.51357 26.7566 8.61999C27.9627 8.83283 29.1333 9.22303 30.162 9.75513C31.1907 10.2518 32.1485 10.8903 32.9289 11.5643C32.9644 11.5997 33.0353 11.6352 33.0708 11.7062C33.1063 11.7416 33.1772 11.7771 33.2127 11.8481C33.3191 11.919 33.3901 12.0254 33.4965 12.0964C33.6029 12.1673 33.6739 12.2737 33.7803 12.3447C33.8512 12.4511 33.9576 12.522 34.0286 12.6285C34.3833 12.9832 34.7026 13.3734 34.9864 13.7281C35.5539 14.4731 36.0151 15.218 36.3698 15.9275C36.4053 15.9629 36.4053 15.9984 36.4408 16.0694C36.4762 16.1048 36.4762 16.1403 36.5117 16.2113C36.5472 16.2822 36.5827 16.3886 36.6536 16.4596C36.6891 16.5305 36.7246 16.6369 36.76 16.7079C36.7955 16.7788 36.831 16.8852 36.8664 16.9562C37.0083 17.2755 37.1148 17.5947 37.2212 17.914C37.3985 18.4106 37.505 18.8363 37.6114 19.191C37.6469 19.3329 37.7887 19.4393 37.9306 19.4393C38.108 19.4393 38.2144 19.2974 38.2144 19.1201C38.179 18.6944 38.179 18.2332 38.1435 17.7011Z" fill="url(#paint0_linear_3444_2921)"/>
<defs>
<linearGradient id="paint0_linear_3444_2921" x1="19.8216" y1="48.9923" x2="19.8216" y2="12.5073" gradientUnits="userSpaceOnUse">
<stop stop-color="#FCEE1F"/>
<stop offset="1" stop-color="#F15B2A"/>
</linearGradient>
</defs>
</svg>
