<svg width="24" height="25" viewBox="0 0 24 25" fill="none" xmlns="http://www.w3.org/2000/svg">
<path fill-rule="evenodd" clip-rule="evenodd" d="M9 9.17969C9.16851 9.17969 9.33377 9.16579 9.4947 9.13909L10.1347 10.5799C9.44331 11.1295 9 11.9778 9 12.9297C9 13.423 9.11905 13.8884 9.32998 14.2989L6.92314 16.4392C6.44516 16.1175 5.86951 15.9297 5.25 15.9297C3.59315 15.9297 2.25 17.2728 2.25 18.9297C2.25 20.5865 3.59315 21.9297 5.25 21.9297C6.90685 21.9297 8.25 20.5865 8.25 18.9297C8.25 18.4363 8.1309 17.9707 7.91987 17.5602L10.3266 15.42C10.8046 15.7418 11.3804 15.9297 12 15.9297C12.6901 15.9297 13.3258 15.6967 13.8326 15.3051L15.9961 16.9879C15.8378 17.3532 15.75 17.7562 15.75 18.1797C15.75 19.8365 17.0931 21.1797 18.75 21.1797C20.4069 21.1797 21.75 19.8365 21.75 18.1797C21.75 16.5228 20.4069 15.1797 18.75 15.1797C18.06 15.1797 17.4243 15.4127 16.9175 15.8042L14.754 14.1214C14.9123 13.7561 15 13.3531 15 12.9297C15 12.8599 14.9976 12.7908 14.9929 12.7222L16.2309 12.3095C16.7656 13.1341 17.6941 13.6797 18.75 13.6797C20.4069 13.6797 21.75 12.3365 21.75 10.6797C21.75 9.02283 20.4069 7.67969 18.75 7.67969C17.0931 7.67969 15.75 9.02283 15.75 10.6797C15.75 10.7492 15.7524 10.8181 15.757 10.8864L14.5186 11.2992C13.9839 10.4749 13.0556 9.92969 12 9.92969C11.8315 9.92969 11.6662 9.94358 11.5053 9.97029L10.8652 8.52949C11.5567 7.9799 12 7.13157 12 6.17969C12 4.52283 10.6569 3.17969 9 3.17969C7.34315 3.17969 6 4.52283 6 6.17969C6 7.83654 7.34315 9.17969 9 9.17969ZM9 4.67969C8.17157 4.67969 7.5 5.35126 7.5 6.17969C7.5 7.00811 8.17157 7.67969 9 7.67969C9.20894 7.67969 9.40791 7.63697 9.58864 7.55978C9.59553 7.55647 9.6025 7.55325 9.60954 7.55012C9.61626 7.54714 9.62299 7.54426 9.62975 7.54149C10.1436 7.30347 10.5 6.7832 10.5 6.17969C10.5 5.35126 9.82843 4.67969 9 4.67969ZM17.25 18.1797C17.25 17.842 17.3616 17.5304 17.5499 17.2797C17.5535 17.2754 17.5571 17.271 17.5606 17.2666C17.5626 17.2641 17.5645 17.2617 17.5664 17.2592C17.5717 17.2524 17.5769 17.2455 17.5819 17.2386C17.8568 16.8977 18.278 16.6797 18.75 16.6797C19.5784 16.6797 20.25 17.3513 20.25 18.1797C20.25 19.0081 19.5784 19.6797 18.75 19.6797C17.9216 19.6797 17.25 19.0081 17.25 18.1797ZM17.3331 11.1734L17.3269 11.1537L17.3202 11.1345C17.2746 10.991 17.25 10.8382 17.25 10.6797C17.25 9.85126 17.9216 9.17969 18.75 9.17969C19.5784 9.17969 20.25 9.85126 20.25 10.6797C20.25 11.5081 19.5784 12.1797 18.75 12.1797C18.0945 12.1797 17.5373 11.7593 17.3331 11.1734ZM11.3749 11.5657C10.8586 11.8027 10.5 12.3243 10.5 12.9297C10.5 13.3055 10.6382 13.6491 10.8666 13.9123L10.8786 13.9254L10.8906 13.9392C11.1649 14.2406 11.5604 14.4297 12 14.4297C12.4722 14.4297 12.8934 14.2115 13.1684 13.8705C13.1733 13.8636 13.1784 13.8568 13.1837 13.8501C13.189 13.8432 13.1945 13.8365 13.2 13.8298C13.3884 13.5791 13.5 13.2674 13.5 12.9297C13.5 12.7669 13.4741 12.6102 13.4261 12.4634L13.4232 12.4549L13.4204 12.4464C13.2193 11.8551 12.6593 11.4297 12 11.4297C11.7892 11.4297 11.5885 11.4732 11.4065 11.5517L11.3903 11.5591L11.3749 11.5657ZM3.75 18.9297C3.75 18.1013 4.42157 17.4297 5.25 17.4297C6.07843 17.4297 6.75 18.1013 6.75 18.9297C6.75 19.7581 6.07843 20.4297 5.25 20.4297C4.42157 20.4297 3.75 19.7581 3.75 18.9297Z" fill="#512FC9"/>
</svg>
