<svg width="48" height="48" viewBox="0 0 48 48" fill="none" xmlns="http://www.w3.org/2000/svg">
<g clip-path="url(#clip0_8000_11562)">
<path d="M5.31351 31.1228C5.66989 31.5969 6.13298 31.9804 6.66532 32.242C7.24101 32.5272 7.87624 32.6714 8.51862 32.6627C9.03804 32.6763 9.55506 32.5881 10.0406 32.4031C10.4289 32.2505 10.7756 32.0082 11.0522 31.6958C11.3118 31.3916 11.5013 31.0339 11.6073 30.6483C11.7229 30.2314 11.7801 29.8006 11.7773 29.3681V27.8641H11.7416C11.405 28.3977 10.9194 28.821 10.3448 29.0816C9.797 29.3202 9.20553 29.4421 8.60803 29.4398C8.02259 29.4441 7.44184 29.3347 6.89817 29.1175C6.38335 28.9131 5.91234 28.6123 5.51041 28.2311C5.11161 27.8482 4.79481 27.3882 4.57927 26.8791C4.34994 26.3416 4.23412 25.7625 4.23908 25.1781C4.23414 24.5955 4.34368 24.0175 4.56149 23.4771C4.76734 22.9658 5.06805 22.498 5.44771 22.0984C5.82731 21.7021 6.28449 21.3882 6.79068 21.1762C7.33236 20.951 7.91413 20.8383 8.5007 20.845C8.76781 20.8465 9.03431 20.8705 9.29739 20.9165C9.58672 20.967 9.86915 21.0512 10.139 21.1673C10.7796 21.4449 11.3333 21.8904 11.7416 22.4566H11.7773V21.0598H12.9593V29.3681C12.9552 29.8563 12.8981 30.3426 12.7891 30.8184C12.675 31.3329 12.4488 31.8159 12.1266 32.2329C11.76 32.693 11.2909 33.061 10.7568 33.3075C10.1718 33.5938 9.40774 33.737 8.46475 33.737C7.69874 33.75 6.93785 33.6101 6.22663 33.3252C5.54616 33.0338 4.9358 32.6003 4.43623 32.0541L5.31351 31.1228ZM5.52834 25.1425C5.52538 25.5692 5.60759 25.9922 5.77012 26.3868C5.9251 26.7654 6.14978 27.1116 6.43247 27.4073C6.71352 27.7005 7.04773 27.9375 7.41733 28.1058C7.80235 28.2807 8.22097 28.3694 8.64388 28.3653C9.48137 28.3683 10.2884 28.0513 10.9 27.4791C11.2003 27.1957 11.4355 26.8505 11.5894 26.4672C11.7552 26.046 11.8315 25.5948 11.8133 25.1425C11.8163 24.7181 11.7435 24.2966 11.5984 23.8979C11.4604 23.5189 11.2473 23.1717 10.9716 22.8773C10.6883 22.5788 10.3471 22.3412 9.96893 22.179C9.55021 22.001 9.09886 21.9125 8.64388 21.9193C8.22097 21.9154 7.80235 22.004 7.41733 22.179C7.04784 22.3474 6.71368 22.5844 6.43247 22.8773C6.14983 23.1731 5.92515 23.5193 5.76997 23.8979C5.60754 24.2925 5.52538 24.7156 5.52834 25.1425ZM17.7756 29.4398H16.4865V16.7624H20.3899C21.6791 16.7624 22.6967 17.0428 23.4428 17.6039C24.1888 18.1651 24.5618 19.0127 24.562 20.1465C24.5847 20.9696 24.2861 21.7691 23.7294 22.3758C23.1742 22.9787 22.3715 23.3279 21.3211 23.4232L24.9739 29.4398H23.398L19.9245 23.5487H17.7757L17.7756 29.4398ZM17.7756 22.3669H20.0677C20.5601 22.3773 21.0516 22.317 21.5269 22.1878C21.8746 22.0949 22.2002 21.9336 22.4849 21.7134C22.7145 21.5286 22.8933 21.2883 23.0041 21.0151C23.113 20.7386 23.1677 20.4437 23.1653 20.1465C23.1666 19.8554 23.1119 19.5667 23.0041 19.2961C22.8919 19.0212 22.7136 18.7782 22.4849 18.5888C22.203 18.3642 21.8764 18.2025 21.5269 18.1143C21.0505 17.9916 20.5595 17.9344 20.0677 17.9442H17.7756V22.3669ZM27.1938 16.7624H30.8826C32.1717 16.7624 33.1893 17.0429 33.9353 17.604C34.6812 18.1653 35.0543 19.0128 35.0545 20.1467C35.0545 21.2809 34.6814 22.1314 33.9353 22.6982C33.1893 23.2653 32.1717 23.5488 30.8826 23.5487H28.4832V29.4398H27.1938V16.7624ZM28.4833 22.367H30.5604C31.0529 22.3774 31.5443 22.3171 32.0197 22.188C32.3673 22.095 32.693 21.9337 32.9777 21.7135C33.2073 21.5287 33.386 21.2884 33.4968 21.0152C33.6058 20.7388 33.6605 20.4439 33.658 20.1467C33.6594 19.8555 33.6047 19.5668 33.4968 19.2963C33.3847 19.0213 33.2064 18.7783 32.9777 18.5889C32.6957 18.3644 32.3691 18.2026 32.0197 18.1144C31.5432 17.9918 31.0523 17.9345 30.5604 17.9444H28.4832L28.4833 22.367ZM48 27.4343C47.7731 27.7704 47.5056 28.0772 47.2034 28.3476C46.8763 28.6414 46.5121 28.8912 46.12 29.0905C45.7015 29.3042 45.26 29.4694 44.8041 29.583C44.3149 29.7045 43.8127 29.7646 43.3087 29.762C42.4098 29.7704 41.5182 29.6 40.6857 29.2608C39.0981 28.6192 37.8405 27.3584 37.203 25.7691C36.8618 24.9214 36.6915 24.0147 36.7017 23.101C36.6915 22.1874 36.8619 21.2807 37.203 20.433C37.8404 18.8438 39.0981 17.583 40.6857 16.9416C41.5181 16.6022 42.4098 16.4318 43.3087 16.4402C44.119 16.4445 44.921 16.6025 45.6724 16.9056C46.4738 17.2263 47.173 17.7586 47.6956 18.4456L46.5677 19.2872C46.4162 19.0615 46.2355 18.8567 46.0304 18.6784C45.7934 18.4685 45.532 18.2882 45.2517 18.1413C44.9523 17.9835 44.6372 17.8575 44.3115 17.7652C43.9856 17.6709 43.648 17.6227 43.3087 17.622C42.5566 17.6096 41.8109 17.7624 41.1243 18.0696C40.5014 18.3522 39.9436 18.7606 39.486 19.2692C39.0332 19.7791 38.6835 20.3721 38.4563 21.0151C37.9789 22.3648 37.9789 23.8373 38.4563 25.187C38.6834 25.83 39.0331 26.4229 39.486 26.9328C39.9434 27.4415 40.5013 27.85 41.1243 28.1325C41.8109 28.4399 42.5566 28.5928 43.3087 28.5803C43.642 28.5804 43.9747 28.5504 44.3025 28.4907C44.6361 28.4294 44.9609 28.3271 45.2695 28.1864C45.5948 28.0371 45.8964 27.841 46.1648 27.6042C46.4663 27.3349 46.7285 27.0246 46.9436 26.6823L48 27.4343Z" fill="black"/>
<path d="M3.3388 20.9146L0 17.6006L3.31406 14.2617L6.65288 17.5758L3.3388 20.9146Z" fill="url(#paint0_linear_8000_11562)"/>
<path d="M12.4242 19.4984L10.4658 17.5545L12.4097 15.5962L14.368 17.54L12.4242 19.4984Z" fill="url(#paint1_linear_8000_11562)"/>
<path d="M3.4603 15.5766L1.45337 17.5985L3.47522 19.6055L5.18576 19.5991L3.39201 17.8198L12.2492 17.7869L11.473 18.5685L12.3282 18.5654L13.3318 17.5543L12.3208 16.5509L11.4655 16.5541L12.2476 17.33L3.3904 17.3628L5.17069 15.5702L3.4603 15.5766Z" fill="black"/>
</g>
<defs>
<linearGradient id="paint0_linear_8000_11562" x1="-2384.83" y1="-936.445" x2="2414.82" y2="-980.416" gradientUnits="userSpaceOnUse">
<stop stop-color="#72C9C9"/>
<stop offset="1" stop-color="#02B0AD"/>
</linearGradient>
<linearGradient id="paint1_linear_8000_11562" x1="-2384.85" y1="-936.45" x2="2414.85" y2="-980.427" gradientUnits="userSpaceOnUse">
<stop stop-color="#03B6B4"/>
<stop offset="1" stop-color="#74CBCA"/>
</linearGradient>
<clipPath id="clip0_8000_11562">
<rect width="48" height="48" rx="8" fill="white"/>
</clipPath>
</defs>
</svg>
