<svg width="36" height="36" viewBox="0 0 36 36" fill="none" xmlns="http://www.w3.org/2000/svg">
<path d="M25.3125 12.6562C26.0892 12.6562 26.7188 12.0267 26.7188 11.25C26.7188 10.4733 26.0892 9.84375 25.3125 9.84375C24.5358 9.84375 23.9062 10.4733 23.9062 11.25C23.9062 12.0267 24.5358 12.6562 25.3125 12.6562Z" fill="#512FC9"/>
<path fill-rule="evenodd" clip-rule="evenodd" d="M6.75 5.625C5.50736 5.625 4.5 6.63236 4.5 7.875V14.625C4.5 15.8676 5.50736 16.875 6.75 16.875H29.25C30.4926 16.875 31.5 15.8676 31.5 14.625V7.875C31.5 6.63236 30.4926 5.625 29.25 5.625H6.75ZM6.75 7.875H29.25V14.625H6.75V7.875Z" fill="#512FC9"/>
<path d="M26.7188 24.75C26.7188 25.5267 26.0892 26.1562 25.3125 26.1562C24.5358 26.1562 23.9062 25.5267 23.9062 24.75C23.9062 23.9733 24.5358 23.3438 25.3125 23.3438C26.0892 23.3438 26.7188 23.9733 26.7188 24.75Z" fill="#512FC9"/>
<path fill-rule="evenodd" clip-rule="evenodd" d="M6.75 19.125C5.50736 19.125 4.5 20.1324 4.5 21.375V28.125C4.5 29.3676 5.50736 30.375 6.75 30.375H29.25C30.4926 30.375 31.5 29.3676 31.5 28.125V21.375C31.5 20.1324 30.4926 19.125 29.25 19.125H6.75ZM6.75 21.375H29.25V28.125H6.75V21.375Z" fill="#512FC9"/>
</svg>
