<svg width="48" height="48" viewBox="0 0 48 48" fill="none" xmlns="http://www.w3.org/2000/svg">
<path d="M5.58315 25.0754V19.9293H6.7044V25.4687C6.7565 25.9151 6.71815 26.3674 6.59165 26.7987C6.46515 27.23 6.25305 27.6314 5.96805 27.9789C5.4384 28.4358 4.75971 28.6829 4.06026 28.6734L3.94312 27.8367C4.39427 27.8369 4.82952 27.67 5.1648 27.3681C5.466 27.0167 5.58315 26.5397 5.58315 25.0754ZM13.9452 24.4154C13.9452 25.0429 13.9451 25.6036 13.9953 26.0889H12.9997L12.9327 25.0932C12.7244 25.4455 12.4266 25.7364 12.0695 25.9362C11.7123 26.1361 11.3086 26.2379 10.8994 26.2311C9.92875 26.2311 8.774 25.704 8.774 23.5535V19.9806H9.89525V23.3276C9.89525 24.4907 10.2551 25.2689 11.2676 25.2689C11.4759 25.2711 11.6825 25.2317 11.8754 25.1531C12.0683 25.0744 12.2435 24.958 12.3908 24.8107C12.5381 24.6634 12.6545 24.4881 12.7332 24.2952C12.8119 24.1024 12.8513 23.8957 12.849 23.6874V19.9387H13.9703V24.3819L13.9452 24.4154ZM16.0706 21.9713C16.0706 21.1931 16.0706 20.5572 16.0204 19.9798H17.0245L17.0746 21.0258C17.2983 20.6479 17.6205 20.3378 18.0065 20.1285C18.3926 19.9193 18.8283 19.8187 19.267 19.8376C20.7564 19.8376 21.8777 21.0844 21.8777 22.942C21.8777 25.1343 20.5305 26.222 19.0745 26.222C18.7019 26.2387 18.3313 26.1588 17.9985 25.9903C17.6657 25.8217 17.3821 25.5701 17.1751 25.2598V28.6068H16.0706V21.9713ZM17.1751 23.603C17.1781 23.7548 17.1949 23.9061 17.2253 24.0548C17.3202 24.4264 17.5363 24.7557 17.8394 24.9906C18.1425 25.2255 18.5153 25.3526 18.8988 25.3518C20.0786 25.3518 20.7732 24.3895 20.7732 22.9922C20.7732 21.7705 20.1205 20.7246 18.9406 20.7246C18.4737 20.7628 18.0368 20.97 17.7118 21.3074C17.3868 21.6447 17.1959 22.089 17.1751 22.557V23.603ZM23.8754 19.9743L25.2225 23.5807C25.3648 23.9823 25.5154 24.4676 25.6159 24.8275C25.733 24.4593 25.8585 23.9907 26.0091 23.5556L27.2308 19.9743H28.4106L26.7371 24.3254C25.9004 26.4173 25.3899 27.4967 24.6201 28.1494C24.2324 28.5035 23.7597 28.7514 23.2478 28.869L22.9717 27.9318C23.3296 27.8142 23.6618 27.6297 23.9507 27.3879C24.3589 27.0553 24.6829 26.631 24.8962 26.1495C24.9419 26.0662 24.973 25.9756 24.9883 25.8818C24.9788 25.7808 24.9534 25.682 24.913 25.5889L22.637 19.9575H23.8587L23.8754 19.9743ZM31.3872 18.2188V19.976H32.9938V20.8127H31.3872V24.1096C31.3872 24.8626 31.6048 25.2977 32.224 25.2977C32.4439 25.3013 32.6634 25.276 32.8767 25.2224L32.9268 26.0592C32.607 26.17 32.2694 26.2211 31.9311 26.2098C31.707 26.2238 31.4826 26.1892 31.2732 26.1083C31.0638 26.0275 30.8743 25.9022 30.7178 25.7412C30.377 25.2854 30.2215 24.7173 30.2827 24.1514V20.8044H29.3288V19.9676H30.2995V18.4782L31.3872 18.2188ZM35.0593 23.2273C35.0366 23.5111 35.0758 23.7964 35.1741 24.0636C35.2725 24.3307 35.4277 24.5733 35.629 24.7746C35.8303 24.9759 36.0729 25.1311 36.34 25.2295C36.6072 25.3278 36.8925 25.367 37.1763 25.3443C37.7503 25.3571 38.3206 25.2488 38.8498 25.0263L39.0423 25.8631C38.3928 26.1306 37.6944 26.2589 36.9922 26.2396C36.5829 26.2677 36.1723 26.2068 35.7887 26.0613C35.4051 25.9157 35.0575 25.6889 34.7698 25.3964C34.482 25.1039 34.261 24.7526 34.1217 24.3667C33.9825 23.9807 33.9284 23.5692 33.9632 23.1604C33.9632 21.3195 35.0593 19.8635 36.85 19.8635C38.8582 19.8635 39.3603 21.6207 39.3603 22.742C39.371 22.9148 39.371 23.088 39.3603 23.2608H35.0342L35.0593 23.2273ZM38.3394 22.3906C38.3717 22.1668 38.3557 21.9388 38.2924 21.7218C38.2291 21.5048 38.12 21.3039 37.9725 21.1327C37.825 20.9614 37.6426 20.8237 37.4374 20.7289C37.2322 20.6341 37.0091 20.5844 36.783 20.5832C36.3233 20.6164 35.8926 20.8202 35.5752 21.1546C35.2579 21.4889 35.0769 21.9297 35.0676 22.3906H38.3394ZM41.0615 21.877C41.0615 21.1574 41.0615 20.5382 41.0113 19.9692H42.0154V21.1658H42.0656C42.171 20.7964 42.3888 20.4691 42.6887 20.2292C42.9886 19.9893 43.3557 19.8487 43.7391 19.8269C43.8447 19.8131 43.9515 19.8131 44.0571 19.8269V20.8729C43.9292 20.8581 43.8001 20.8581 43.6722 20.8729C43.2924 20.8876 42.9309 21.0401 42.6552 21.3019C42.3796 21.5636 42.2087 21.9168 42.1744 22.2954C42.1431 22.4666 42.1263 22.6401 42.1242 22.8142V26.0691H41.0197V21.8854L41.0615 21.877Z" fill="#4E4E4E"/>
<path d="M40.57 3.16512C40.6044 3.72726 40.4706 4.28691 40.1858 4.77276C39.901 5.2586 39.478 5.6487 38.9707 5.8933C38.4634 6.1379 37.8947 6.22595 37.3372 6.14625C36.7797 6.06655 36.2585 5.8227 35.8401 5.44575C35.4217 5.0688 35.1249 4.57582 34.9876 4.02962C34.8504 3.48342 34.8788 2.90871 35.0693 2.37872C35.2598 1.84873 35.6037 1.38744 36.0573 1.05361C36.5109 0.71979 37.0536 0.52854 37.6162 0.504235C37.9852 0.483935 38.3544 0.53676 38.7028 0.65968C39.0513 0.782595 39.3719 0.973175 39.6464 1.22046C39.9209 1.46775 40.1439 1.76686 40.3024 2.1006C40.4609 2.43433 40.5518 2.79611 40.57 3.16512Z" fill="#767677"/>
<path d="M24.0245 35.9382C16.4937 35.9382 9.87494 33.2355 6.45264 29.2441C7.78049 32.8348 10.1765 35.9325 13.3181 38.1202C16.4597 40.308 20.1962 41.4808 24.0245 41.4808C27.8528 41.4808 31.5892 40.308 34.7309 38.1202C37.8725 35.9325 40.2685 32.8348 41.5964 29.2441C38.1825 33.2355 31.5888 35.9382 24.0245 35.9382Z" fill="#F37726"/>
<path d="M24.0245 9.98203C31.5553 9.98203 38.1741 12.6848 41.5964 16.6761C40.2685 13.0854 37.8725 9.98778 34.7309 7.80003C31.5892 5.61228 27.8528 4.43945 24.0245 4.43945C20.1962 4.43945 16.4597 5.61228 13.3181 7.80003C10.1765 9.98778 7.78049 13.0854 6.45264 16.6761C9.87494 12.6764 16.4603 9.98203 24.0245 9.98203Z" fill="#F37726"/>
<path d="M13.6575 43.7056C13.7017 44.4136 13.5341 45.1188 13.176 45.7313C12.818 46.3437 12.2857 46.8357 11.647 47.1446C11.0084 47.4535 10.2922 47.5652 9.58984 47.4656C8.88744 47.366 8.23059 47.0595 7.70299 46.5853C7.17534 46.111 6.80089 45.4904 6.62724 44.8026C6.45359 44.1147 6.48864 43.3908 6.72794 42.7229C6.96719 42.055 7.39989 41.4735 7.97084 41.0525C8.54184 40.6314 9.22519 40.3898 9.93394 40.3586C10.3982 40.3337 10.8628 40.4006 11.3013 40.5554C11.7397 40.7102 12.1434 40.9498 12.4891 41.2606C12.8349 41.5715 13.1161 41.9474 13.3166 42.3669C13.517 42.7864 13.6329 43.2413 13.6575 43.7056Z" fill="#9E9E9E"/>
<path d="M7.30861 9.0731C6.90286 9.0843 6.50281 8.97526 6.15881 8.75976C5.81481 8.54421 5.54226 8.23175 5.37536 7.8617C5.20846 7.49165 5.15471 7.0805 5.22091 6.68C5.28706 6.2795 5.47016 5.90745 5.74716 5.61075C6.02421 5.314 6.38276 5.1058 6.77781 5.01235C7.17281 4.91887 7.58666 4.94428 7.96731 5.0854C8.34791 5.2265 8.67836 5.477 8.91696 5.8054C9.15561 6.13375 9.29181 6.5254 9.30846 6.931C9.32436 7.47945 9.12321 8.012 8.74881 8.41305C8.37436 8.81411 7.85686 9.0513 7.30861 9.0731Z" fill="#616262"/>
</svg>
