<svg width="72" height="72" viewBox="0 0 72 72" fill="none" xmlns="http://www.w3.org/2000/svg">
<path d="M9.43635 19.641L18.7441 3.60058L56.2275 3.5957L65.4848 19.7954L65.4962 52.2013L56.2292 68.3913L18.7571 68.4043L9.3419 52.2029L9.43635 19.641Z" fill="#4D4D4D"/>
<path d="M9.34358 52.1975H26.2363L16.9578 35.8727L24.5037 19.6437L9.43803 19.6404L0 36.0043" fill="#EDEDED"/>
<path d="M31.3591 52.1976H43.707L54.6253 36.3084L43.8976 19.7966H29.3725L20.6233 35.7524L31.3591 52.1976Z" fill="#E0E0E0"/>
<path d="M0 36.0033L9.34358 52.203H26.2379L17.0604 36.0586L0 36.0033Z" fill="#ACACAC"/>
<path d="M20.8008 36.0062L31.3607 52.2027H43.707L54.4543 36.0127L20.8008 36.0062Z" fill="#9E9E9E"/>
<path d="M24.9824 36.0145L21.7957 36.9413L18.7376 36.0129L31.2223 14.4057L34.3455 19.8002" fill="#00B8E3"/>
<path d="M34.3325 52.1978L31.2256 57.6151L22.9323 48.6942L18.7311 36.0176V36.0111H24.9808" fill="#33C6E9"/>
<path d="M18.7393 36.0126H18.7328V36.0175L15.6112 41.4184L12.4766 36.0418L24.9825 14.4086H31.2257" fill="#008AAA"/>
<path d="M53.0914 52.1983H72L71.9886 19.7956H53.0914V52.1983Z" fill="#D4D4D4"/>
<path d="M53.0914 36.057V52.2014H71.9658V36.057H53.0914Z" fill="#919191"/>
<path d="M31.2289 57.6212H24.9808L15.6112 41.4166L18.7328 36.0189L31.2289 57.6212Z" fill="#00B8E3"/>
<path d="M56.2096 36.0124L43.7217 57.6163C42.5737 55.932 40.6066 52.2024 40.6066 52.2024L49.9746 36.0092L56.2096 36.0124Z" fill="#008AAA"/>
<path d="M49.9584 57.6168L43.7217 57.6152L59.3313 30.6168L62.461 36.047M56.2096 36.0124L49.9763 36.0129L40.605 19.7986L43.7071 14.4106L51.292 24.0387L56.2096 36.0124Z" fill="#00B8E3"/>
<path d="M59.3313 30.6129L59.3313 30.6168L56.2096 36.0124L43.7087 14.4116L49.9633 14.4148L59.3313 30.6129Z" fill="#33C6E9"/>
</svg>
