<svg width="41" height="41" viewBox="0 0 41 41" fill="none" xmlns="http://www.w3.org/2000/svg">
<path fill-rule="evenodd" clip-rule="evenodd" d="M20.2897 12.11C17.6034 12.11 15.1697 13.8806 14.343 16.4366C13.6199 18.6722 14.2452 21.1408 15.8704 22.7771L14.169 27.041C13.6822 28.2634 14.5924 29.6078 15.9081 29.6098H24.6619C25.9775 29.6078 26.8874 28.2633 26.401 27.041L24.7079 22.7782C26.3339 21.1419 26.9596 18.6727 26.2363 16.4366C25.4096 13.8806 22.976 12.11 20.2897 12.11ZM16.7217 17.2059C17.2147 15.6817 18.6877 14.61 20.2897 14.61C21.8917 14.61 23.3647 15.6817 23.8577 17.2059C24.3507 18.7302 23.7843 20.4615 22.4858 21.3997C22.0218 21.7349 21.8448 22.3424 22.0561 22.8743L23.7383 27.1098H16.8332L18.5225 22.8762C18.7349 22.3439 18.5581 21.7353 18.0936 21.3997C16.795 20.4615 16.2287 18.7302 16.7217 17.2059Z" fill="black"/>
<path fill-rule="evenodd" clip-rule="evenodd" d="M20.2852 4.60999C11.3105 4.60999 4.03516 11.8854 4.03516 20.86C4.03516 29.8346 11.3105 37.11 20.2852 37.11C29.2598 37.11 36.5352 29.8346 36.5352 20.86C36.5352 11.8854 29.2598 4.60999 20.2852 4.60999ZM6.53516 20.86C6.53516 13.2661 12.6912 7.10999 20.2852 7.10999C27.8791 7.10999 34.0352 13.2661 34.0352 20.86C34.0352 28.4539 27.8791 34.61 20.2852 34.61C12.6912 34.61 6.53516 28.4539 6.53516 20.86Z" fill="black"/>
</svg>
