<svg width="36" height="36" viewBox="0 0 36 36" fill="none" xmlns="http://www.w3.org/2000/svg">
<path fill-rule="evenodd" clip-rule="evenodd" d="M18.0041 10.125C15.5864 10.125 13.3961 11.7186 12.6521 14.0189C12.0013 16.031 12.564 18.2527 14.0267 19.7254L12.4955 23.5629C12.0573 24.663 12.8765 25.873 14.0606 25.8748H21.9391C23.1231 25.873 23.942 24.663 23.5042 23.5629L21.9804 19.7264C23.4439 18.2537 24.007 16.0314 23.3561 14.0189C22.612 11.7186 20.4217 10.125 18.0041 10.125ZM14.7929 14.7113C15.2366 13.3395 16.5623 12.375 18.0041 12.375C19.4459 12.375 20.7716 13.3395 21.2153 14.7113C21.659 16.0832 21.1492 17.6414 19.9805 18.4857C19.563 18.7874 19.4037 19.3341 19.5938 19.8129L21.1078 23.6248H14.8933L16.4136 19.8146C16.6048 19.3355 16.4457 18.7878 16.0276 18.4857C14.8589 17.6414 14.3491 16.0832 14.7929 14.7113Z" fill="#512FC9"/>
<path fill-rule="evenodd" clip-rule="evenodd" d="M18 3.375C9.92284 3.375 3.375 9.92284 3.375 18C3.375 26.0772 9.92284 32.625 18 32.625C26.0772 32.625 32.625 26.0772 32.625 18C32.625 9.92284 26.0772 3.375 18 3.375ZM5.625 18C5.625 11.1655 11.1655 5.625 18 5.625C24.8345 5.625 30.375 11.1655 30.375 18C30.375 24.8345 24.8345 30.375 18 30.375C11.1655 30.375 5.625 24.8345 5.625 18Z" fill="#512FC9"/>
</svg>
