<svg width="36" height="36" viewBox="0 0 36 36" fill="none" xmlns="http://www.w3.org/2000/svg">
<path fill-rule="evenodd" clip-rule="evenodd" d="M19.1243 4.125C19.1243 3.50368 18.6206 3 17.9993 3C17.378 3 16.8743 3.50368 16.8743 4.125V6.05211C13.8147 6.33676 11.0884 7.77006 9.13093 9.91659L7.55137 8.72321C7.05562 8.34868 6.35012 8.44693 5.97558 8.94267C5.60105 9.43842 5.6993 10.1439 6.19504 10.5185L7.77659 11.7133C6.64995 13.5416 6 15.6949 6 18C6 18.7549 6.06971 19.4935 6.20304 20.2098L3.81773 20.8877C3.22008 21.0576 2.87329 21.6798 3.04315 22.2774C3.21301 22.8751 3.8352 23.2219 4.43285 23.052L6.82173 22.373C7.83455 24.96 9.71948 27.1096 12.1149 28.4602L10.7973 31.4148C10.5443 31.9823 10.7991 32.6474 11.3666 32.9005C11.9341 33.1535 12.5992 32.8986 12.8522 32.3312L14.1701 29.3759C15.3729 29.7806 16.6608 30 18 30C19.3387 30 20.6263 29.7808 21.8286 29.3763L23.1463 32.3312C23.3994 32.8986 24.0645 33.1535 24.632 32.9005C25.1994 32.6474 25.4543 31.9823 25.2013 31.4148L23.884 28.4609C26.2798 27.1104 28.1651 24.9606 29.1781 22.3734L31.5657 23.052C32.1634 23.2219 32.7856 22.8751 32.9554 22.2774C33.1253 21.6798 32.7785 21.0576 32.1809 20.8877L29.7969 20.2102C29.9303 19.4938 30 18.755 30 18C30 15.6946 29.3499 13.541 28.223 11.7126L29.8035 10.5185C30.2993 10.1439 30.3975 9.43842 30.023 8.94267C29.6485 8.44693 28.943 8.34868 28.4472 8.72321L26.8685 9.91595C24.9107 7.76945 22.1842 6.33629 19.1243 6.05197V4.125ZM10.9356 11.2801C12.4685 9.66911 14.5467 8.58187 16.8743 8.31428V14.0421L15.4802 14.7135L10.9356 11.2801ZM14.1732 16.546L9.58209 13.0774C8.73538 14.5222 8.25 16.2044 8.25 18C8.25 18.5419 8.29421 19.0735 8.37921 19.5913L13.8319 18.0416L14.1732 16.546ZM14.55 20.1766L8.99901 21.7542C9.812 23.7012 11.2382 25.3281 13.0364 26.3937L15.3574 21.1889L14.55 20.1766ZM17.435 22.0544L15.0918 27.3089C16.0103 27.5956 16.9871 27.75 18 27.75C19.0124 27.75 19.9888 27.5957 20.9069 27.3093L18.5636 22.0544H17.435ZM20.6417 21.19L22.9625 26.3944C24.761 25.3289 26.1877 23.7018 27.0008 21.7546L21.4497 20.1769L20.6417 21.19ZM22.1682 18.042L27.6207 19.5917C27.7058 19.0737 27.75 18.542 27.75 18C27.75 16.2041 27.2645 14.5216 26.4175 13.0767L21.8265 16.5452L22.1682 18.042ZM20.519 14.7131L25.0638 11.2794C23.5306 9.6685 21.4521 8.58139 19.1243 8.31412V14.0414L20.519 14.7131ZM16.4342 16.7513L18 15.9973L19.5657 16.7513L19.9524 18.4456L18.8689 19.8044H17.131L16.0475 18.4456L16.4342 16.7513Z" fill="#512FC9"/>
</svg>
