<svg width="24" height="24" viewBox="0 0 24 24" fill="none" xmlns="http://www.w3.org/2000/svg">
<path fill-rule="evenodd" clip-rule="evenodd" d="M4.59256 13.2877C4.04425 12.1799 3.75623 10.9632 3.75013 9.72914C3.72538 5.29519 7.33044 1.60466 11.8007 1.5024C13.5331 1.46079 15.2347 1.96124 16.6642 2.93274C18.0936 3.90424 19.1782 5.29746 19.7641 6.91472C20.3501 8.53198 20.4075 10.2911 19.9284 11.9426C19.4493 13.5941 18.4579 15.054 17.0948 16.1152C16.7942 16.3464 16.5506 16.6424 16.3824 16.9808C16.2143 17.3192 16.1261 17.6911 16.1245 18.0684V18.6819C16.1245 18.8989 16.0376 19.107 15.8829 19.2604C15.7281 19.4138 15.5183 19.5 15.2995 19.5H12H8.69987C8.48107 19.5 8.27124 19.4138 8.11653 19.2604C7.96182 19.107 7.87491 18.8989 7.87491 18.6819V18.0684C7.87452 17.6935 7.78794 17.3237 7.62176 16.987C7.45558 16.6504 7.21417 16.3557 6.9159 16.1255C5.9352 15.3657 5.14087 14.3955 4.59256 13.2877ZM12.75 18V13.8107L15.5303 11.0303C15.8232 10.7374 15.8232 10.2626 15.5303 9.96967C15.2374 9.67678 14.7626 9.67678 14.4697 9.96967L12 12.4393L9.53033 9.96967C9.23744 9.67678 8.76256 9.67678 8.46967 9.96967C8.17678 10.2626 8.17678 10.7374 8.46967 11.0303L11.25 13.8107V18H9.37427C9.36381 17.418 9.22466 16.8455 8.96683 16.3231C8.69935 15.7812 8.31145 15.3081 7.8335 14.9389C7.03207 14.3178 6.38395 13.5256 5.93691 12.6223C5.4897 11.7188 5.25508 10.7271 5.25011 9.72173L5.2501 9.72077C5.22997 6.11387 8.17407 3.08575 11.835 3.00201L11.8367 3.00197C13.2571 2.96785 14.6512 3.37827 15.821 4.17333C16.9907 4.96828 17.876 6.10676 18.3539 7.42566C18.8316 8.74441 18.8784 10.1783 18.4878 11.5247C18.0975 12.8699 17.2896 14.0615 16.1763 14.9293C15.6974 15.2985 15.3083 15.7716 15.0391 16.3134C14.7783 16.8384 14.6369 17.4143 14.6252 18H12.75ZM8.75 21C8.33579 21 8 21.3358 8 21.75C8 22.1642 8.33579 22.5 8.75 22.5H15.25C15.6642 22.5 16 22.1642 16 21.75C16 21.3358 15.6642 21 15.25 21H8.75Z" fill="black"/>
</svg>
