<svg width="41" height="41" viewBox="0 0 41 41" fill="none" xmlns="http://www.w3.org/2000/svg">
<path d="M15.5857 8.88388C16.0739 8.39573 16.0739 7.60427 15.5857 7.11612C15.0976 6.62796 14.3061 6.62796 13.818 7.11612L9.70184 11.2322L8.08573 9.61612C7.59757 9.12796 6.80612 9.12796 6.31796 9.61612C5.8298 10.1043 5.8298 10.8957 6.31796 11.3839L8.81796 13.8839C9.30612 14.372 10.0976 14.372 10.5857 13.8839L15.5857 8.88388Z" fill="black" fill-opacity="0.72"/>
<path d="M20.9518 9.25C20.2615 9.25 19.7018 9.80964 19.7018 10.5C19.7018 11.1904 20.2615 11.75 20.9518 11.75H34.7018C35.3922 11.75 35.9518 11.1904 35.9518 10.5C35.9518 9.80964 35.3922 9.25 34.7018 9.25H20.9518Z" fill="black" fill-opacity="0.72"/>
<path d="M20.9518 19.25C20.2615 19.25 19.7018 19.8096 19.7018 20.5C19.7018 21.1904 20.2615 21.75 20.9518 21.75H34.7018C35.3922 21.75 35.9518 21.1904 35.9518 20.5C35.9518 19.8096 35.3922 19.25 34.7018 19.25H20.9518Z" fill="black" fill-opacity="0.72"/>
<path d="M19.7018 30.5C19.7018 29.8096 20.2615 29.25 20.9518 29.25H34.7018C35.3922 29.25 35.9518 29.8096 35.9518 30.5C35.9518 31.1904 35.3922 31.75 34.7018 31.75H20.9518C20.2615 31.75 19.7018 31.1904 19.7018 30.5Z" fill="black" fill-opacity="0.72"/>
<path d="M15.5857 17.1161C16.0739 17.6043 16.0739 18.3957 15.5857 18.8839L10.5857 23.8839C10.0976 24.372 9.30612 24.372 8.81796 23.8839L6.31796 21.3839C5.8298 20.8957 5.8298 20.1043 6.31796 19.6161C6.80612 19.128 7.59757 19.128 8.08573 19.6161L9.70184 21.2322L13.818 17.1161C14.3061 16.628 15.0976 16.628 15.5857 17.1161Z" fill="black" fill-opacity="0.72"/>
<path d="M15.5857 28.8839C16.0739 28.3957 16.0739 27.6043 15.5857 27.1161C15.0976 26.628 14.3061 26.628 13.818 27.1161L9.70184 31.2322L8.08573 29.6161C7.59757 29.128 6.80612 29.128 6.31796 29.6161C5.8298 30.1043 5.8298 30.8957 6.31796 31.3839L8.81796 33.8839C9.30612 34.372 10.0976 34.372 10.5857 33.8839L15.5857 28.8839Z" fill="black" fill-opacity="0.72"/>
</svg>
