<svg width="25" height="24" viewBox="0 0 25 24" fill="none" xmlns="http://www.w3.org/2000/svg">
<g clip-path="url(#clip0_3915_1044)">
<path fill-rule="evenodd" clip-rule="evenodd" d="M4.32191 16.5C3.73612 17.0858 3.73612 18.0356 4.32191 18.6214L6.26093 20.5604C6.84671 21.1462 7.79646 21.1462 8.38225 20.5604L17.8892 11.0534C17.8973 11.046 17.9053 11.0383 17.9132 11.0305C17.921 11.0226 17.9287 11.0147 17.9361 11.0065L21.443 7.49968C22.0287 6.91389 22.0287 5.96415 21.443 5.37836L19.5039 3.43934C18.9181 2.85355 17.9684 2.85355 17.3826 3.43934L4.32191 16.5ZM17.3823 9.43899L20.3823 6.43902L18.4433 4.5L15.4433 7.49997L17.3823 9.43899ZM14.3826 8.56063L5.38257 17.5607L7.32159 19.4997L16.3217 10.4996L14.3826 8.56063Z" fill="black" fill-opacity="0.72"/>
<path d="M8.38283 3.00016C8.79704 3.00016 9.13283 3.33594 9.13283 3.75016V5.25016H10.6328C11.047 5.25016 11.3828 5.58594 11.3828 6.00016C11.3828 6.41437 11.047 6.75016 10.6328 6.75016H9.13283V8.25016C9.13283 8.66437 8.79704 9.00016 8.38283 9.00016C7.96862 9.00016 7.63283 8.66437 7.63283 8.25016V6.75016H6.13283C5.71862 6.75016 5.38283 6.41437 5.38283 6.00016C5.38283 5.58594 5.71862 5.25016 6.13283 5.25016H7.63283V3.75016C7.63283 3.33594 7.96862 3.00016 8.38283 3.00016Z" fill="black" fill-opacity="0.72"/>
<path d="M21.8828 12.0002C21.8828 11.5859 21.547 11.2502 21.1328 11.2502C20.7186 11.2502 20.3828 11.5859 20.3828 12.0002V13.5002H18.8828C18.4686 13.5002 18.1328 13.8359 18.1328 14.2502C18.1328 14.6644 18.4686 15.0002 18.8828 15.0002H20.3828V16.5002C20.3828 16.9144 20.7186 17.2502 21.1328 17.2502C21.547 17.2502 21.8828 16.9144 21.8828 16.5002V15.0002H23.3828C23.797 15.0002 24.1328 14.6644 24.1328 14.2502C24.1328 13.8359 23.797 13.5002 23.3828 13.5002H21.8828V12.0002Z" fill="black" fill-opacity="0.72"/>
<path d="M16.6328 16.5002C17.047 16.5002 17.3828 16.8359 17.3828 17.2502V18.0002H18.1328C18.547 18.0002 18.8828 18.3359 18.8828 18.7502C18.8828 19.1644 18.547 19.5002 18.1328 19.5002H17.3828V20.2502C17.3828 20.6644 17.047 21.0002 16.6328 21.0002C16.2186 21.0002 15.8828 20.6644 15.8828 20.2502V19.5002H15.1328C14.7186 19.5002 14.3828 19.1644 14.3828 18.7502C14.3828 18.3359 14.7186 18.0002 15.1328 18.0002H15.8828V17.2502C15.8828 16.8359 16.2186 16.5002 16.6328 16.5002Z" fill="black" fill-opacity="0.72"/>
</g>
<defs>
<clipPath id="clip0_3915_1044">
<rect width="24" height="24" fill="white" transform="translate(0.882812)"/>
</clipPath>
</defs>
</svg>
