<svg width="24" height="25" viewBox="0 0 24 25" fill="none" xmlns="http://www.w3.org/2000/svg">
<path d="M0.3867 19.7745C1.81056 19.8173 2.19725 19.78 3.32281 19.2911C4.27987 18.8754 5.56009 17.7554 6.69116 17.3936C8.35118 16.8605 10.1314 16.9406 11.8977 17.1491C12.4888 17.2196 13.0827 17.3176 13.5066 17.272C14.1682 16.866 14.1999 15.7639 14.6101 15.6756C14.4982 17.8079 13.584 19.1724 12.6697 20.4098C14.5963 20.07 15.8834 18.8672 16.6623 17.3784C16.8985 16.9268 17.2907 16.1879 17.4702 15.6797C17.6125 16.0167 17.2852 16.2307 17.4385 16.5981C18.6787 15.5747 19.2642 14.4091 19.7669 12.7022C20.3497 10.7273 20.9477 9.02996 21.3234 8.44578C21.6893 7.87541 22.2597 7.52324 22.7804 7.15865C23.3714 6.74295 23.9004 6.31068 23.9915 5.51934C24.0606 4.91986 23.701 4.68261 23.1311 5.00283C22.819 5.17823 22.5318 5.21689 22.2072 5.22656C21.9255 5.23485 21.6161 5.22242 21.2377 5.26109C18.1124 5.58149 17.9674 8.63637 15.6956 10.8792C15.5492 11.0214 15.2992 11.2314 15.1335 11.3556C14.4319 11.8791 13.6806 12.1663 12.8893 12.4688C11.6077 12.9577 10.3924 13.0999 9.19087 13.5225C8.30838 13.8319 7.48803 14.1868 6.76298 14.6826C6.58206 14.8069 6.33624 15.0279 6.1788 15.1563C5.75344 15.5043 5.47448 15.8896 5.20379 16.2874C4.92482 16.6961 4.65689 17.1174 4.24672 17.5193C3.58244 18.1711 1.10208 17.7098 0.227876 18.3147C0.131203 18.3824 0.0524798 18.4625 0 18.5592C0.476461 18.776 0.79548 18.6434 1.34376 18.7028C1.41143 19.2262 0.208545 19.5356 0.3867 19.7745Z" fill="#C0765A"/>
<path fill-rule="evenodd" clip-rule="evenodd" d="M20.1966 6.55361C20.6385 6.93754 21.5666 6.62957 21.4009 5.86585C20.7131 5.80785 20.3154 6.04124 20.1966 6.55361Z" fill="#1F305F"/>
</svg>
