<svg width="24" height="25" viewBox="0 0 24 25" fill="none" xmlns="http://www.w3.org/2000/svg">
<g clip-path="url(#clip0_4674_978)">
<path d="M14.1314 3.53483C13.1242 2.33973 12.2568 1.12596 12.0796 0.873868C12.0609 0.855195 12.0329 0.855195 12.0143 0.873868C11.8371 1.12596 10.9697 2.33973 9.96243 3.53483C1.31667 14.5614 11.3241 22.0028 11.3241 22.0028L11.4081 22.0589C11.4827 23.2072 11.6692 24.8599 11.6692 24.8599H12.0423H12.4153C12.4153 24.8599 12.6019 23.2166 12.6765 22.0589L12.7604 21.9935C12.7697 22.0028 22.7772 14.5614 14.1314 3.53483ZM12.0423 21.8347C12.0423 21.8347 11.5946 21.452 11.4733 21.2559V21.2372L12.0143 9.23022C12.0143 9.19287 12.0703 9.19287 12.0703 9.23022L12.6112 21.2372V21.2559C12.49 21.452 12.0423 21.8347 12.0423 21.8347Z" fill="#00ED64"/>
</g>
<defs>
<clipPath id="clip0_4674_978">
<rect width="24" height="24" fill="white" transform="translate(0 0.859863)"/>
</clipPath>
</defs>
</svg>
