<svg width="48" height="44" viewBox="0 0 48 44" fill="none" xmlns="http://www.w3.org/2000/svg">
<path d="M10.1387 35.4186C11.1733 36.0639 12.8933 36.7813 14.712 36.7813C16.368 36.7813 17.9067 36.3013 19.1813 35.4826C19.1813 35.4826 19.184 35.4826 19.1867 35.4799L24 32.4719V43.3333C23.2373 43.3333 22.4693 43.1253 21.8027 42.7093L10.1387 35.4186Z" fill="#225086"/>
<path d="M20.9413 2.01875L0.941324 24.5787C-0.602676 26.3227 -0.20001 28.9574 1.80266 30.2081C1.80266 30.2081 9.20532 34.8347 10.1387 35.4187C11.1733 36.0641 12.8933 36.7814 14.712 36.7814C16.368 36.7814 17.9067 36.3014 19.1813 35.4827C19.1813 35.4827 19.184 35.4827 19.1867 35.4801L24 32.4721L12.3627 25.1974L24.0027 12.0667V0.666748C22.872 0.666748 21.7413 1.11741 20.9413 2.01875Z" fill="#66DDFF"/>
<path d="M12.3623 25.1973L12.501 25.2826L23.9996 32.472H24.0023V12.0693L23.9996 12.0667L12.3623 25.1973Z" fill="#CBF8FF"/>
<path d="M46.1976 30.208C48.2003 28.9573 48.6029 26.3227 47.0589 24.5787L33.9363 9.776C32.8776 9.28267 31.6909 9 30.4349 9C27.9683 9 25.7629 10.064 24.2963 11.736L24.0056 12.064L35.6429 25.1947L24.0029 32.4693V43.3307C24.7683 43.3307 25.5309 43.1227 26.1976 42.7067L46.1976 30.2053V30.208Z" fill="#074793"/>
<path d="M24.0027 0.666748V12.0667L24.2933 11.7387C25.76 10.0667 27.9653 9.00275 30.432 9.00275C31.6907 9.00275 32.8747 9.28808 33.9333 9.77875L27.056 2.02141C26.2587 1.12008 25.128 0.669415 24 0.669415L24.0027 0.666748Z" fill="#0294E4"/>
<path d="M35.6403 25.1973L24.0029 12.0693V32.4693L35.6403 25.1973Z" fill="#96BCC2"/>
</svg>
