<svg width="24" height="25" viewBox="0 0 24 25" fill="none" xmlns="http://www.w3.org/2000/svg">
<path d="M5.76982 19.5532H4.84382C4.81125 17.9915 4.72098 16.523 4.57344 15.1474H4.56528L3.15538 19.5532H2.45032L1.04895 15.1474H1.04069C0.936714 16.4685 0.871297 17.937 0.844016 19.5532H-0.000305176C0.0542565 17.5876 0.190804 15.7451 0.409336 14.0251H1.55707L2.89305 18.087H2.90125L4.24542 14.0251H5.34361C5.58408 16.0395 5.72609 17.8826 5.76971 19.5532" fill="#00758F"/>
<path d="M9.78665 15.4745C9.40956 17.5189 8.91217 19.0045 8.29478 19.9313C7.81374 20.6454 7.28676 21.0024 6.71292 21.0024C6.55994 21.0024 6.37131 20.9564 6.14746 20.8649V20.3721C6.25681 20.3881 6.38513 20.3966 6.53271 20.3966C6.80042 20.3966 7.01616 20.3227 7.18031 20.1752C7.37687 19.9954 7.47524 19.7933 7.47524 19.5694C7.47524 19.4164 7.39851 19.1025 7.24575 18.6277L6.22947 15.4745H7.13918L7.86858 17.8328C8.03244 18.3683 8.10078 18.7421 8.07345 18.9551C8.47238 17.8905 8.75107 16.7302 8.90963 15.4745H9.78663" fill="#00758F"/>
<path d="M13.8432 18.0208C13.8432 18.4896 13.6708 18.8745 13.3272 19.1756C12.9832 19.4754 12.5212 19.6257 11.9426 19.6257C11.4014 19.6257 10.8769 19.4527 10.3688 19.1096L10.6065 18.6347C11.0437 18.8531 11.4394 18.9621 11.7946 18.9621C12.1278 18.9621 12.3886 18.888 12.5773 18.7416C12.7656 18.5942 12.8784 18.3885 12.8784 18.1277C12.8784 17.7995 12.6493 17.5189 12.2289 17.2835C11.8409 17.0707 11.0653 16.6265 11.0653 16.6265C10.6451 16.3202 10.4344 15.9916 10.4344 15.4501C10.4344 15.0023 10.5915 14.6403 10.9053 14.3649C11.2198 14.089 11.6256 13.951 12.1225 13.951C12.6361 13.951 13.1032 14.088 13.5238 14.3609L13.3102 14.8353C12.9502 14.6829 12.5953 14.6063 12.2454 14.6063C11.9614 14.6063 11.7426 14.6744 11.59 14.8115C11.4366 14.9473 11.3418 15.1221 11.3418 15.3352C11.3418 15.6626 11.5759 15.9466 12.0081 16.1865C12.401 16.3994 13.1956 16.8523 13.1956 16.8523C13.6278 17.158 13.8432 17.4839 13.8432 18.0208Z" fill="#F29111"/>
<path fill-rule="evenodd" clip-rule="evenodd" d="M15.4985 18.4473C15.2744 18.087 15.1622 17.5087 15.1622 16.7114C15.1622 15.3194 15.5858 14.6229 16.4327 14.6229C16.8754 14.6229 17.2004 14.7895 17.4082 15.1223C17.632 15.4828 17.7443 16.0561 17.7443 16.8423C17.7443 18.2454 17.3206 18.9473 16.4738 18.9473C16.0312 18.9473 15.7061 18.7809 15.4985 18.4474M18.7934 19.6866L17.7764 19.1855C17.867 19.1113 17.953 19.0313 18.0308 18.9386C18.4626 18.4314 18.6787 17.6807 18.6787 16.6869C18.6787 14.858 17.9601 13.9431 16.5231 13.9431C15.8182 13.9431 15.2689 14.175 14.8755 14.6395C14.4436 15.1473 14.2279 15.8951 14.2279 16.8833C14.2279 17.8551 14.419 18.5679 14.8015 19.0208C15.15 19.4301 15.6771 19.635 16.3827 19.635C16.6459 19.635 16.8874 19.6026 17.107 19.5378L18.4313 20.3079L18.7924 19.6865" fill="#F29111"/>
<path d="M22.113 19.5532H19.4822V14.0251H20.3674V18.8732H22.113V19.5532" fill="#F29111"/>
<path d="M22.7443 19.5525H22.891V18.99H23.083V18.8751H22.5449V18.99H22.7443V19.5525ZM23.8606 19.5525H23.9989V18.8751H23.7909L23.6216 19.3368L23.4374 18.8751H23.237V19.5525H23.3678V19.037H23.3752L23.5682 19.5525H23.6679L23.8606 19.037V19.5525Z" fill="#F29111"/>
<path fill-rule="evenodd" clip-rule="evenodd" d="M23.2243 12.1734C22.6893 12.16 22.2749 12.2133 21.9274 12.3604C21.8272 12.4004 21.6669 12.4004 21.6532 12.5274C21.707 12.5807 21.7135 12.6675 21.7606 12.7413C21.8406 12.8748 21.9807 13.0549 22.108 13.1487C22.2484 13.2556 22.3888 13.3621 22.536 13.4556C22.7966 13.6165 23.0908 13.7096 23.3445 13.87C23.492 13.9634 23.6385 14.0835 23.7861 14.184C23.8594 14.2374 23.9058 14.3244 23.9998 14.3574V14.3372C23.9526 14.2773 23.9395 14.1904 23.8929 14.1232C23.8262 14.057 23.7592 13.9965 23.6923 13.93C23.4983 13.6695 23.2573 13.4426 22.9972 13.2556C22.7831 13.1082 22.3149 12.9078 22.2284 12.6614C22.2284 12.6614 22.2214 12.6544 22.2148 12.6478C22.3619 12.6342 22.536 12.5807 22.6763 12.5402C22.9032 12.4803 23.1105 12.4938 23.3445 12.4339C23.4516 12.407 23.5586 12.3733 23.666 12.3405V12.28C23.545 12.16 23.4584 11.9994 23.3315 11.886C22.9908 11.5922 22.616 11.3052 22.2284 11.0644C22.0208 10.9308 21.7535 10.8444 21.5328 10.7305C21.4529 10.6904 21.3194 10.6706 21.2724 10.6034C21.152 10.4565 21.0849 10.2631 20.9982 10.0892C20.8045 9.7222 20.6169 9.31489 20.4501 8.92686C20.3299 8.66655 20.2563 8.40625 20.1092 8.16563C19.4203 7.02993 18.6719 6.34234 17.5221 5.66759C17.2747 5.52717 16.9806 5.46708 16.6666 5.39359C16.4992 5.38659 16.3323 5.37361 16.1652 5.36704C16.058 5.32009 15.9509 5.19308 15.8575 5.133C15.4763 4.89267 14.494 4.37177 14.2131 5.05964C14.0325 5.49406 14.4805 5.92134 14.6343 6.14183C14.7478 6.29525 14.8951 6.46921 14.975 6.64261C15.0218 6.75621 15.0352 6.87665 15.0822 6.99668C15.1891 7.29052 15.2892 7.6179 15.4299 7.89191C15.5031 8.0322 15.5833 8.17933 15.6768 8.30563C15.7308 8.37956 15.8241 8.41253 15.8442 8.53312C15.751 8.66655 15.7437 8.86692 15.6903 9.03404C15.4497 9.78884 15.5431 10.7239 15.8842 11.2782C15.9909 11.4451 16.2453 11.8126 16.5862 11.672C16.887 11.552 16.8202 11.1713 16.907 10.8375C16.927 10.7568 16.9136 10.7038 16.9536 10.6505V10.664C17.0471 10.8507 17.141 11.0306 17.2278 11.2183C17.4354 11.5452 17.796 11.8859 18.0971 12.1128C18.2571 12.2335 18.3842 12.4402 18.5847 12.5139V12.4938H18.5716C18.5313 12.4338 18.4713 12.4069 18.4178 12.3604C18.2975 12.24 18.1641 12.093 18.0701 11.9595C17.7894 11.5856 17.5418 11.1713 17.3217 10.7438C17.2144 10.5363 17.121 10.3094 17.034 10.1025C16.994 10.0227 16.994 9.90213 16.927 9.86216C16.8265 10.0089 16.6798 10.136 16.6064 10.3158C16.4793 10.6034 16.466 10.9573 16.4188 11.3248C16.3923 11.3318 16.4057 11.3248 16.3923 11.3381C16.1786 11.2847 16.105 11.0643 16.0246 10.8779C15.8241 10.4031 15.7904 9.64165 15.9645 9.09388C16.0111 8.95388 16.2122 8.51304 16.1316 8.37946C16.0912 8.25202 15.9576 8.17923 15.8842 8.07862C15.7975 7.95175 15.7034 7.79177 15.6438 7.6512C15.4833 7.27729 15.4026 6.863 15.2293 6.48909C15.1491 6.31513 15.0084 6.13474 14.8951 5.97476C14.7678 5.79437 14.6276 5.6675 14.5272 5.454C14.494 5.38036 14.4472 5.26005 14.5005 5.18013C14.5136 5.12662 14.5407 5.10649 14.5943 5.09308C14.6807 5.01958 14.9284 5.11292 15.0151 5.15302C15.2626 5.25292 15.4699 5.34696 15.6768 5.48696C15.7705 5.55389 15.8708 5.68077 15.9909 5.71445H16.1316C16.3454 5.76083 16.5862 5.72744 16.7869 5.7878C17.141 5.90126 17.4618 6.06823 17.7495 6.24862C18.6249 6.80306 19.3469 7.5914 19.8347 8.53302C19.9151 8.68643 19.9488 8.82686 20.0222 8.98684C20.1626 9.3148 20.3366 9.64874 20.4767 9.96903C20.6169 10.283 20.7509 10.6033 20.9517 10.8642C21.0517 11.0043 21.4529 11.0777 21.6335 11.1513C21.7669 11.2112 21.9744 11.2647 22.0948 11.3381C22.3221 11.4781 22.5489 11.6387 22.7631 11.7925C22.8698 11.8727 23.2042 12.0395 23.2243 12.1733" fill="#00758F"/>
<path fill-rule="evenodd" clip-rule="evenodd" d="M16.4056 6.36815C16.2922 6.36815 16.2122 6.38185 16.1315 6.40169V6.41511H16.1445C16.1985 6.52172 16.2922 6.59579 16.3585 6.68912C16.4123 6.79602 16.4592 6.90248 16.5126 7.00952C16.5192 7.00296 16.5256 6.99596 16.5256 6.99596C16.6199 6.92946 16.6666 6.8227 16.6666 6.66215C16.6262 6.61505 16.6199 6.56867 16.5862 6.52171C16.5462 6.45507 16.4592 6.42167 16.4056 6.36815Z" fill="#00758F"/>
</svg>
