<svg width="25" height="25" viewBox="0 0 25 25" fill="none" xmlns="http://www.w3.org/2000/svg">
<path d="M12.2852 15.11C12.6994 15.11 13.0352 15.4458 13.0352 15.86C13.0352 16.2742 12.6994 16.61 12.2852 16.61H9.28516C8.87094 16.61 8.53516 16.2742 8.53516 15.86C8.53516 15.4458 8.87094 15.11 9.28516 15.11H12.2852Z" fill="#512FC9"/>
<path d="M15.2852 12.11C15.6994 12.11 16.0352 12.4458 16.0352 12.86C16.0352 13.2742 15.6994 13.61 15.2852 13.61H9.28516C8.87094 13.61 8.53516 13.2742 8.53516 12.86C8.53516 12.4458 8.87094 12.11 9.28516 12.11H15.2852Z" fill="#512FC9"/>
<path d="M15.2852 9.10999C15.6994 9.10999 16.0352 9.44577 16.0352 9.85999C16.0352 10.2742 15.6994 10.61 15.2852 10.61H9.28516C8.87094 10.61 8.53516 10.2742 8.53516 9.85999C8.53516 9.44577 8.87094 9.10999 9.28516 9.10999H15.2852Z" fill="#512FC9"/>
<path fill-rule="evenodd" clip-rule="evenodd" d="M19.7852 3.85999C20.183 3.85999 20.5644 4.01813 20.8457 4.29944C21.127 4.58074 21.2852 4.96216 21.2852 5.35999V15.5504C21.285 15.7565 21.2413 15.9576 21.1611 16.1432C21.1577 16.1516 21.1531 16.1594 21.1494 16.1676C21.0758 16.33 20.9751 16.4804 20.8467 16.609L16.0342 21.4215C15.904 21.5515 15.7516 21.6534 15.5869 21.7272C15.582 21.7293 15.5772 21.7319 15.5723 21.734C15.3856 21.8153 15.1831 21.8598 14.9756 21.86H4.78516C4.38733 21.86 4.00591 21.7018 3.72461 21.4205C3.44331 21.1392 3.28516 20.7578 3.28516 20.36V5.35999C3.28516 4.96216 3.44331 4.58074 3.72461 4.29944C4.00591 4.01813 4.38733 3.85999 4.78516 3.85999H19.7852ZM4.78516 20.36H14.5352V15.859C14.5352 15.4448 14.8709 15.109 15.2852 15.109H19.7852V5.35999H4.78516V20.36ZM16.0352 16.609V19.2994L18.7256 16.609H16.0352Z" fill="#512FC9"/>
</svg>
