<svg width="49" height="49" viewBox="0 0 49 49" fill="none" xmlns="http://www.w3.org/2000/svg">
<g clip-path="url(#clip0_1771_2715)">
<path fill-rule="evenodd" clip-rule="evenodd" d="M26.592 1.08797L25.6054 13.248C25.1387 13.1946 24.672 13.168 24.192 13.168C23.592 13.168 23.0054 13.208 22.432 13.3013L21.872 7.40797C21.8587 7.22131 22.0054 7.06131 22.192 7.06131H23.192L22.712 1.10131C22.6987 0.914639 22.8454 0.754639 23.0187 0.754639H26.2854C26.472 0.754639 26.6187 0.914639 26.592 1.10131V1.08797ZM18.352 1.68797C18.2987 1.51464 18.112 1.40797 17.9387 1.47464L14.872 2.59464C14.6987 2.66131 14.6187 2.86131 14.6987 3.02131L17.192 8.46131L16.2454 8.80797C16.072 8.87464 15.992 9.07464 16.072 9.23464L18.6187 14.5813C19.5387 14.0746 20.5387 13.688 21.592 13.448L18.3654 1.68797H18.352ZM10.832 5.07464L17.8854 15.0213C16.992 15.608 16.1787 16.3013 15.4854 17.1013L11.2587 12.9413C11.1254 12.808 11.1387 12.5946 11.272 12.4746L12.0454 11.8346L7.84536 7.58131C7.71203 7.44797 7.72536 7.23464 7.87203 7.11464L10.3654 5.02131C10.512 4.90131 10.712 4.92797 10.8187 5.07464H10.832ZM4.91203 10.8346C4.76536 10.728 4.55203 10.7813 4.45869 10.9413L2.83203 13.768C2.73869 13.928 2.80536 14.128 2.96536 14.208L8.37869 16.768L7.87203 17.6346C7.77869 17.7946 7.84536 18.008 8.01869 18.0746L13.4054 20.5413C13.792 19.5413 14.312 18.608 14.952 17.768L4.91203 10.8346ZM0.925359 18.5146C0.952026 18.328 1.13869 18.2213 1.31203 18.2613L13.112 21.3413C12.8054 22.3413 12.632 23.3946 12.6054 24.488L6.69869 24.008C6.51203 23.9946 6.37869 23.8213 6.41869 23.6346L6.59203 22.648L0.632026 22.088C0.445359 22.0746 0.325359 21.9013 0.352026 21.7146L0.912026 18.5013L0.925359 18.5146ZM0.485359 26.488C0.298692 26.5013 0.178692 26.6746 0.205359 26.8613L0.778692 30.0746C0.805359 30.2613 0.992026 30.368 1.16536 30.328L6.95203 28.8213L7.12536 29.808C7.15203 29.9946 7.33869 30.1013 7.51203 30.0613L13.2187 28.488C12.8854 27.5013 12.672 26.448 12.6187 25.368L0.472026 26.488H0.485359ZM2.37869 34.9413C2.28536 34.7813 2.35203 34.5813 2.51203 34.5013L13.5254 29.2746C13.9387 30.2613 14.4987 31.1813 15.1654 32.008L10.3387 35.448C10.192 35.5546 9.97869 35.5146 9.88536 35.3546L9.37869 34.4746L4.45869 37.8746C4.31203 37.9813 4.09869 37.928 4.00536 37.768L2.36536 34.9413H2.37869ZM15.7254 32.648L7.15203 41.328C7.01869 41.4613 7.03203 41.6746 7.17869 41.7946L9.68536 43.888C9.83203 44.008 10.032 43.9813 10.1387 43.8346L13.6054 38.9546L14.3787 39.608C14.5254 39.728 14.7387 39.7013 14.8454 39.5413L18.2054 34.6613C17.2987 34.1013 16.4587 33.4213 15.7387 32.648H15.7254ZM14.032 46.5813C13.8587 46.5146 13.7787 46.3146 13.8587 46.1546L18.9387 35.0613C19.872 35.5413 20.8854 35.9013 21.9387 36.1013L20.4454 41.8346C20.4054 42.008 20.2054 42.1146 20.032 42.048L19.0854 41.7013L17.4987 47.4746C17.4454 47.648 17.2587 47.7546 17.0854 47.688L14.0187 46.568L14.032 46.5813ZM22.7787 36.248L21.792 48.408C21.7787 48.5946 21.9254 48.7546 22.0987 48.7546H25.3654C25.552 48.7546 25.6987 48.5946 25.672 48.408L25.192 42.448H26.192C26.3787 42.448 26.5254 42.288 26.512 42.1013L25.952 36.208C25.3787 36.3013 24.792 36.3413 24.192 36.3413C23.712 36.3413 23.2454 36.3146 22.7787 36.248ZM34.5387 3.32797C34.6187 3.15464 34.5387 2.96797 34.3654 2.90131L31.2987 1.78131C31.1254 1.71464 30.9387 1.82131 30.8854 1.99464L29.2987 7.76797L28.352 7.42131C28.1787 7.35464 27.992 7.46131 27.9387 7.63464L26.4454 13.368C27.512 13.5813 28.512 13.9413 29.4454 14.408L34.5387 3.32797ZM41.232 8.16797L32.6587 16.848C31.9387 16.0746 31.112 15.3946 30.192 14.8346L33.552 9.95464C33.6587 9.80797 33.872 9.76797 34.0187 9.88797L34.792 10.5413L38.2587 5.66131C38.3654 5.51464 38.5787 5.48797 38.712 5.60797L41.2187 7.7013C41.3654 7.8213 41.3654 8.03464 41.2454 8.16797H41.232ZM45.872 14.9946C46.0454 14.9146 46.0987 14.7146 46.0054 14.5546L44.3654 11.728C44.272 11.568 44.0587 11.528 43.912 11.6213L38.992 15.0213L38.4854 14.1546C38.392 13.9946 38.1787 13.9413 38.032 14.0613L33.2054 17.5013C33.872 18.328 34.4187 19.248 34.8454 20.2346L45.8587 15.008L45.872 14.9946ZM47.6054 19.4213L48.1654 22.6346C48.192 22.8213 48.072 22.9813 47.8854 23.008L35.7387 24.1413C35.6854 23.048 35.472 22.008 35.1387 21.0213L40.8454 19.448C41.0187 19.3946 41.2054 19.5146 41.232 19.7013L41.4054 20.688L47.192 19.1813C47.3654 19.1413 47.552 19.248 47.5787 19.4346L47.6054 19.4213ZM47.0587 31.2213C47.232 31.2613 47.4187 31.1546 47.4454 30.968L48.0054 27.7546C48.032 27.568 47.912 27.408 47.7254 27.3813L41.7654 26.8213L41.9387 25.8346C41.9654 25.648 41.8454 25.488 41.6587 25.4613L35.752 24.9813C35.7254 26.0746 35.552 27.128 35.2454 28.128L47.0454 31.208L47.0587 31.2213ZM43.912 38.5546C43.8187 38.7146 43.6054 38.7546 43.4587 38.6613L33.4187 31.728C34.0587 30.888 34.5787 29.9546 34.9654 28.9546L40.352 31.4213C40.5254 31.5013 40.592 31.7013 40.4987 31.8613L39.992 32.728L45.4054 35.288C45.5654 35.368 45.632 35.568 45.5387 35.728L43.912 38.5546ZM30.4854 34.4613L37.5387 44.408C37.6454 44.5546 37.8587 44.5813 37.992 44.4613L40.4854 42.368C40.632 42.248 40.632 42.0346 40.512 41.9013L36.312 37.648L37.0854 37.008C37.232 36.888 37.232 36.6746 37.0987 36.5413L32.872 32.3813C32.1654 33.1813 31.3654 33.888 30.472 34.4613H30.4854ZM30.4187 48.008C30.2454 48.0746 30.0587 47.968 30.0054 47.7946L26.7787 36.0346C27.832 35.7946 28.832 35.408 29.752 34.9013L32.2987 40.248C32.3787 40.4213 32.2987 40.6213 32.1254 40.6746L31.1787 41.0213L33.672 46.4613C33.752 46.6346 33.672 46.8213 33.4987 46.888L30.432 48.008H30.4187Z" fill="black"/>
</g>
<defs>
<clipPath id="clip0_1771_2715">
<rect x="0.188477" y="0.754639" width="48" height="48" rx="8" fill="white"/>
</clipPath>
</defs>
</svg>
