<svg width="49" height="49" viewBox="0 0 49 49" fill="none" xmlns="http://www.w3.org/2000/svg">
<g clip-path="url(#clip0_1771_6706)">
<path d="M15.2062 35.874H8.18848V48.6335H15.2062V35.874Z" fill="#06AC38"/>
<path d="M34.6189 3.09412C30.8518 1.08906 28.2391 0.754883 22.072 0.754883H8.18848V29.7979H15.2062H16.1176H22.0113C27.51 29.7979 31.6113 29.4637 35.2265 27.0637C39.1758 24.4511 41.2113 20.1068 41.2113 15.0941C41.2113 9.65615 38.6897 5.31184 34.6189 3.09412ZM23.6214 23.722H15.2062V6.98273L23.1353 6.92197C30.3657 6.83083 33.9809 9.38273 33.9809 15.1549C33.9809 21.3524 29.5151 23.722 23.6214 23.722Z" fill="#06AC38"/>
</g>
<defs>
<clipPath id="clip0_1771_6706">
<rect x="0.188477" y="0.754883" width="48" height="48" rx="8" fill="white"/>
</clipPath>
</defs>
</svg>
