<svg width="25" height="24" viewBox="0 0 25 24" fill="none" xmlns="http://www.w3.org/2000/svg">
<g clip-path="url(#clip0_3458_44624)">
<path d="M24.4055 4.59825L22.4612 8.19647C22.4198 8.27167 22.4042 8.35718 22.4172 8.44276L23.1249 13.7364C23.1586 13.9853 23.0497 14.2341 22.8423 14.3767L18.8137 17.192C18.7515 17.2362 18.7048 17.2932 18.6737 17.3631L16.6958 21.9439C16.5843 22.2006 16.3483 22.382 16.071 22.4235L12.6594 22.9213C12.5557 22.9368 12.452 22.9368 12.3483 22.9213L8.93672 22.4235C8.65935 22.382 8.42344 22.2006 8.31194 21.9439L6.33397 17.3631C6.30545 17.2932 6.2562 17.2362 6.19398 17.192L2.16541 14.3793C1.95802 14.2341 1.84914 13.9879 1.88284 13.739L2.59056 8.44534C2.60093 8.35983 2.58538 8.27425 2.54649 8.19905L0.597016 4.59825C0.527022 4.46603 0.493321 4.31567 0.501098 4.16532L0.594424 2.58914C0.61257 2.2988 0.781075 2.04215 1.04291 1.91253L2.15245 1.36295C2.46613 1.2074 2.83943 1.22555 3.13756 1.4122L5.62884 2.97023C5.72735 3.03245 5.84919 3.048 5.96067 3.0143L12.1876 1.11667C12.3924 1.05445 12.6101 1.05445 12.8149 1.11667L19.0418 3.0143C19.1533 3.048 19.2752 3.03245 19.3737 2.97023L21.8649 1.4122C22.1631 1.22555 22.5364 1.2074 22.8501 1.36295L23.957 1.91253C24.2162 2.04215 24.3873 2.2988 24.4055 2.58914L24.4988 4.16532C24.5066 4.31567 24.4755 4.46603 24.4029 4.59825H24.4055Z" fill="black"/>
</g>
<defs>
<clipPath id="clip0_3458_44624">
<rect width="24" height="24" fill="white" transform="translate(0.5)"/>
</clipPath>
</defs>
</svg>
