<svg width="18" height="18" viewBox="0 0 18 18" fill="none" xmlns="http://www.w3.org/2000/svg">
<path fill-rule="evenodd" clip-rule="evenodd" d="M5.08237 1.82921C5.25565 1.7338 5.45102 1.68577 5.64878 1.68995C5.84654 1.69413 6.0397 1.75038 6.20879 1.85302L6.21038 1.85399L16.3388 8.04858C16.3392 8.04884 16.3397 8.04911 16.3401 8.04937C16.5032 8.14841 16.6381 8.28775 16.7318 8.45401C16.8258 8.62071 16.8751 8.80883 16.8751 9.00019C16.8751 9.19154 16.8258 9.37966 16.7318 9.54637C16.6381 9.71263 16.5032 9.85197 16.3401 9.951C16.3397 9.95127 16.3392 9.95153 16.3388 9.9518L6.21038 16.1464L6.20879 16.1474C6.0397 16.25 5.84654 16.3062 5.64878 16.3104C5.45102 16.3146 5.25565 16.2666 5.08237 16.1712C4.9091 16.0758 4.76404 15.9363 4.66183 15.767C4.55962 15.5976 4.50387 15.4043 4.50019 15.2066L4.5 15.1961L4.5001 2.7938C4.50377 2.59603 4.55962 2.40273 4.66183 2.23338C4.76404 2.06403 4.9091 1.92462 5.08237 1.82921ZM5.6251 2.81476L15.7385 9.00019L5.6251 15.1856V2.81476Z" fill="#512FC9"/>
</svg>
