<svg width="41" height="41" viewBox="0 0 41 41" fill="none" xmlns="http://www.w3.org/2000/svg">
<path fill-rule="evenodd" clip-rule="evenodd" d="M18.4096 14.4599C18.026 14.2042 17.5328 14.1804 17.1264 14.3979C16.7199 14.6154 16.4662 15.039 16.4662 15.5V25.5C16.4662 25.961 16.7199 26.3846 17.1264 26.6021C17.5328 26.8196 18.026 26.7958 18.4096 26.5401L25.9096 21.5401C26.2573 21.3082 26.4662 20.9179 26.4662 20.5C26.4662 20.0821 26.2573 19.6918 25.9096 19.4599L18.4096 14.4599ZM18.9662 23.1644V17.8356L22.9627 20.5L18.9662 23.1644Z" fill="black"/>
<path fill-rule="evenodd" clip-rule="evenodd" d="M20.2162 4.25C11.2416 4.25 3.96619 11.5254 3.96619 20.5C3.96619 29.4746 11.2416 36.75 20.2162 36.75C29.1908 36.75 36.4662 29.4746 36.4662 20.5C36.4662 11.5254 29.1908 4.25 20.2162 4.25ZM6.46619 20.5C6.46619 12.9061 12.6223 6.75 20.2162 6.75C27.8101 6.75 33.9662 12.9061 33.9662 20.5C33.9662 28.0939 27.8101 34.25 20.2162 34.25C12.6223 34.25 6.46619 28.0939 6.46619 20.5Z" fill="black"/>
</svg>
