<svg width="24" height="25" viewBox="0 0 24 25" fill="none" xmlns="http://www.w3.org/2000/svg">
<g clip-path="url(#clip0_4674_1498)">
<path d="M18.8998 17.8906C18.8998 17.8906 19.2817 17.9307 20.0937 17.8906C20.9057 17.8506 21.7982 17.4658 22.4208 17.1816C24.11 16.2779 23.9697 14.2898 22.4208 14.5482C21.0853 14.7711 20.6603 14.6495 20.6603 14.6495C22.9672 11.2868 24.3433 5.45284 23.0482 3.54868C19.9668 -0.39114 14.5775 1.25091 14.4883 1.30016L14.4596 1.30529C13.8749 1.18217 13.5766 1.14756 12.8278 1.1373C11.4861 1.11678 10.6074 1.241 9.834 1.82684C9.834 1.82684 -0.0753112 -2.3068 0.424215 7.66085C0.551119 10.1931 2.89688 21.4997 7.16669 18.3599C7.16669 18.3599 7.92917 18.9124 8.50002 19.0265C9.33336 19.1932 10.1667 19.1932 11 18.8599C11 18.8599 11.0271 19.5594 11.0722 20.6433C11.1183 21.7534 11.2733 22.4161 11.5 23.0265C11.9452 24.0799 13.2961 25.1989 15.3989 24.7578C17.156 24.3812 18.2523 23.2587 18.3737 21.5977" fill="black"/>
<path d="M22.1753 15.4837C19.4609 16.0436 19.2743 15.1245 19.2743 15.1245C22.1403 10.8718 23.3384 5.47365 22.3045 4.15248C19.4838 0.548564 14.6011 2.25298 14.5197 2.29723L14.4934 2.30193C13.9571 2.1906 13.357 2.12428 12.6824 2.11327C11.4542 2.09314 10.5225 2.43527 9.81555 2.97139C9.81555 2.97139 1.10534 -0.616873 1.51044 7.48431C1.59662 9.20778 3.98065 20.5248 6.82422 17.1065C7.86355 15.8566 8.86774 14.7997 8.86774 14.7997C9.36652 15.1311 9.96362 15.3001 10.5896 15.2394C10.678 15.1643 10.6411 15.5769 10.6577 15.6848C9.92515 16.5032 10.1404 16.6469 8.67601 16.9484C7.19424 17.2538 8.06472 17.7974 8.63306 17.9395C9.32206 18.1118 10.9161 18.3559 11.9931 16.8482C12 18.3599 12 21.0266 12.3333 22.1933C12.5595 22.8085 13.0263 24.212 14.9514 23.7995C16.56 23.4548 17.3936 22.5615 17.5095 21.0714C17.5676 20.3232 17.8488 19.5266 17.9392 18.7732C18.1114 17.3372 17.9665 16.8739 18.9576 17.0894C19.7789 17.1615 20.688 17.0836 21.4428 16.7328C22.6493 16.1729 23.3649 15.238 22.1753 15.4837Z" fill="#336791"/>
<path d="M18.4175 8.26742C18.4108 8.21919 18.3798 8.18282 18.3429 8.15726C18.3059 8.13173 18.2582 8.11333 18.2054 8.10082C18.0994 8.07571 17.961 8.0715 17.8146 8.09191C17.6681 8.11231 17.5362 8.15416 17.4411 8.20731C17.3937 8.23379 17.3528 8.26455 17.3242 8.29922C17.2955 8.33393 17.2757 8.37735 17.2822 8.42559C17.2881 8.46768 17.3134 8.51239 17.3452 8.55198C17.3782 8.59298 17.423 8.63446 17.4761 8.67044C17.582 8.74217 17.7269 8.79564 17.8854 8.77355C18.0432 8.75165 18.179 8.65981 18.2723 8.56179C18.3193 8.51247 18.357 8.45997 18.3824 8.41103C18.4065 8.36453 18.4238 8.31258 18.4175 8.26742Z" fill="white"/>
<path d="M10.187 9.06429C9.84203 9.00997 9.54816 8.6155 9.59639 8.45116C9.64463 8.28681 9.99429 8.23313 10.2542 8.27432C10.5993 8.32886 10.8636 8.49666 10.8449 8.64899C10.8262 8.80117 10.5314 9.11882 10.187 9.06429Z" fill="white"/>
<path fill-rule="evenodd" clip-rule="evenodd" d="M22.4988 8.59538C21.98 10.6038 21.0015 12.9542 19.6253 15.0575C19.6594 15.0892 19.7183 15.1318 19.817 15.1727C20.112 15.2948 20.7584 15.3981 22.0889 15.1235C22.2522 15.0897 22.3997 15.0725 22.5279 15.0769C22.6486 15.081 22.796 15.1056 22.9175 15.198C23.0627 15.3085 23.1153 15.4719 23.1006 15.6248C23.0879 15.7562 23.0282 15.8724 22.9692 15.9613C22.8482 16.1438 22.6484 16.3326 22.4159 16.5059C22.1784 16.6829 21.8875 16.8581 21.5659 17.0074C21.014 17.2635 20.1604 17.4123 19.4475 17.4202C19.0903 17.4241 18.7387 17.3933 18.462 17.3073C18.442 17.3011 18.4212 17.2942 18.3999 17.2865C18.2777 18.4128 18.0145 20.5334 17.8629 21.412C17.7307 22.1785 17.5039 22.7901 17.0579 23.2535C16.6127 23.7164 15.9893 23.9897 15.1544 24.1687C14.105 24.3935 13.3737 24.1646 12.87 23.7403C12.3866 23.3331 12.1561 22.7795 12.0249 22.4514C11.941 22.2417 11.8827 21.91 11.8384 21.5247C11.7928 21.1278 11.7585 20.638 11.7349 20.0894C11.7034 19.3545 11.6909 18.5073 11.6973 17.6248C11.3305 17.9397 10.8326 18.225 10.2638 18.3448C9.80962 18.4404 9.08562 18.3786 8.52872 18.238C8.2509 18.1679 7.9708 18.0678 7.77453 17.9285C7.67718 17.8595 7.56647 17.7571 7.50993 17.6114C7.44496 17.4439 7.47115 17.2709 7.56383 17.1261C7.70155 16.9109 7.91598 16.7934 8.11227 16.7205C8.30858 16.6476 8.53254 16.6032 8.73208 16.5648L8.77504 16.5566C8.96841 16.5194 9.14454 16.4856 9.30557 16.4365C9.47777 16.3839 9.60269 16.3222 9.68776 16.2466C9.8879 16.0687 10.0261 15.8824 10.1655 15.6947C10.1943 15.6558 10.2232 15.6168 10.2528 15.5779L10.2537 15.5766C10.2532 15.5703 10.2528 15.5641 10.2524 15.5578C9.75934 15.5457 9.29305 15.4101 8.87928 15.1792C8.86098 15.1987 8.8403 15.2207 8.81737 15.2452C8.71403 15.3556 8.56521 15.516 8.38403 15.7153C8.02152 16.1141 7.53023 16.6679 7.0147 17.2881C6.62655 17.7548 6.19783 18.028 5.72912 18.0479C5.26249 18.0677 4.85053 17.8323 4.50385 17.4953C3.81981 16.8305 3.23149 15.6175 2.74943 14.3062C2.26159 12.9792 1.86285 11.4945 1.58076 10.2356C1.30026 8.98369 1.12934 7.92919 1.10626 7.4675C1.00214 5.38583 1.4815 3.98676 2.32523 3.09297C3.16604 2.20228 4.31434 1.87138 5.42643 1.80761C6.53898 1.74381 7.65338 1.94439 8.48088 2.15606C8.89654 2.26238 9.24418 2.37265 9.48862 2.4566C9.60173 2.49545 9.69293 2.52874 9.75877 2.55348C10.5053 2.03985 11.4601 1.72618 12.6691 1.746C13.2638 1.75576 13.8149 1.82937 14.3245 1.95288L14.3356 1.94854C14.3653 1.93714 14.413 1.92047 14.4752 1.90055C14.6012 1.86018 14.7977 1.80288 15.0499 1.74394C15.5535 1.62622 16.2857 1.50036 17.1242 1.49257C18.8003 1.477 20.9397 1.93546 22.4906 3.91723C22.8242 4.34356 22.9397 5.03037 22.9278 5.80345C22.9155 6.59614 22.7674 7.55519 22.4988 8.59538ZM18.3374 4.60573C17.6698 3.75222 16.7314 2.89132 15.4739 2.34018C15.9183 2.25109 16.4922 2.17112 17.1305 2.16519C18.6858 2.15074 20.5849 2.5736 21.9609 4.33177C22.1442 4.56606 22.2667 5.0495 22.2552 5.79306C22.244 6.51703 22.1073 7.42106 21.8475 8.42716C21.3682 10.2826 20.4795 12.449 19.2378 14.4164C19.2199 14.3939 19.2018 14.3713 19.1838 14.3488L19.1832 14.3481C19.1704 14.332 19.1575 14.316 19.1449 14.3001C19.3346 14.0149 19.4468 13.6742 19.5133 13.3273C19.5955 12.8983 19.6131 12.4298 19.6027 11.9817C19.5923 11.5324 19.5533 11.0915 19.5178 10.7173L19.5059 10.5921C19.4749 10.2683 19.451 10.018 19.451 9.85205C19.451 9.53464 19.5025 9.25368 19.5598 8.94062L19.5599 8.94024C19.5707 8.88135 19.5817 8.82132 19.5926 8.75969C19.6494 8.43853 19.6995 8.08968 19.6735 7.69053C19.7086 7.63664 19.7218 7.58605 19.7256 7.57048C19.7396 7.51227 19.7386 7.45815 19.7369 7.42579C19.733 7.35444 19.7176 7.27221 19.6975 7.18951C19.6561 7.0191 19.5808 6.79123 19.4711 6.52762C19.2512 5.999 18.8828 5.30291 18.3374 4.60573ZM19.0057 7.79746C17.8492 7.66107 17.2954 7.88234 17.0433 8.1708C16.7636 8.49076 16.7258 9.03706 16.9084 9.76903C17.0856 10.4794 17.4432 11.2537 17.7866 11.9126C17.9504 12.2269 18.1083 12.5101 18.239 12.7446L18.2592 12.7808C18.3852 13.0067 18.4972 13.2076 18.547 13.3284C18.5997 13.456 18.6564 13.5718 18.7155 13.678C18.7727 13.5396 18.8183 13.38 18.8526 13.2008C18.9222 12.8375 18.94 12.4219 18.9302 11.9973C18.9204 11.5739 18.8835 11.1536 18.8481 10.7808L18.8359 10.6524C18.8059 10.3397 18.7784 10.0529 18.7784 9.85205C18.7784 9.4682 18.8425 9.12016 18.9003 8.80711C18.9106 8.75118 18.9207 8.69624 18.9302 8.64254C18.9804 8.35873 19.0177 8.08965 19.0057 7.79746ZM12.2177 15.6078C11.9682 15.2198 11.5184 14.9746 10.9767 15.052C10.9854 15.0159 10.9951 14.9786 11.0058 14.9401C11.0706 14.7069 11.1641 14.4562 11.2705 14.1707L11.2717 14.1675C11.2879 14.124 11.3045 14.0797 11.3212 14.0345C11.378 13.8816 11.4431 13.7373 11.5167 13.574C11.5598 13.4784 11.6058 13.3762 11.6548 13.2621C11.782 12.9661 11.9114 12.626 12.0055 12.2111C12.1946 11.3778 12.2333 10.2785 11.8806 8.64753C11.7306 7.95402 11.3486 7.52773 10.8374 7.33031C10.352 7.14288 9.79575 7.17931 9.303 7.29297C8.80397 7.40808 8.32735 7.61224 7.9733 7.80938C7.96392 7.8146 7.95459 7.81984 7.94534 7.82508C7.95205 7.74194 7.96029 7.653 7.9704 7.55907C8.03446 6.96402 8.17256 6.17815 8.46619 5.40007C8.76011 4.62124 9.20338 3.86721 9.86759 3.31419C10.5254 2.76649 11.4206 2.39827 12.6581 2.41857C15.1581 2.45956 16.8027 3.73539 17.8076 5.02016C18.3113 5.66404 18.6505 6.30628 18.8501 6.78605C18.9016 6.90977 18.9322 6.99072 18.9756 7.11751C17.8037 7.08288 16.9968 7.2018 16.5368 7.72815C16.0236 8.31533 16.0642 9.16363 16.2558 9.93182C16.4528 10.7216 16.8407 11.553 17.1901 12.2235C17.3584 12.5464 17.5204 12.837 17.6507 13.0707L17.6678 13.1014C17.8072 13.3514 17.8941 13.5095 17.9252 13.5849C18.1294 14.0799 18.386 14.4254 18.5913 14.6847C18.6191 14.7197 18.6449 14.752 18.6691 14.7822L18.6695 14.7828C18.7378 14.8681 18.7925 14.9365 18.8388 15.0025L18.8428 15.0082L18.8366 15.01C18.7634 15.0312 18.6727 15.0597 18.5782 15.1022C18.3829 15.1902 18.1722 15.3382 18.0251 15.6079C17.8964 15.8438 17.8313 16.1456 17.8378 16.5295C17.7895 16.6255 17.7558 16.7634 17.758 16.9614C17.7656 17.6224 17.3615 20.362 17.2 21.2976C17.0782 22.004 16.8855 22.4626 16.5732 22.7872C16.2603 23.1124 15.7868 23.3452 15.0133 23.511C14.1375 23.6986 13.6262 23.4978 13.3033 23.2258C12.96 22.9367 12.7798 22.5274 12.6494 22.2016C12.5191 21.8758 12.4622 21.0614 12.5067 21.4478C12.4636 21.0727 12.4301 20.6003 12.407 20.0605C12.3647 19.0751 12.3677 17.444 12.3844 16.6648C12.3849 16.6419 12.3851 16.6198 12.385 16.5984C12.4622 16.2327 12.3872 15.8715 12.2177 15.6078ZM7.24386 8.47132C7.24388 8.42019 7.24464 8.34644 7.24753 8.25333C7.2533 8.06722 7.26759 7.80311 7.30161 7.48708C7.36945 6.85691 7.5167 6.01094 7.83686 5.16257C8.11633 4.42203 8.5325 3.66666 9.15435 3.05372C8.93429 2.98078 8.64734 2.89295 8.31419 2.80773C7.52007 2.60461 6.48077 2.42091 5.46493 2.47916C4.44863 2.53743 3.49387 2.8349 2.81437 3.55471C2.1378 4.27142 1.67959 5.46499 1.77807 7.43391C1.79808 7.83395 1.9575 8.84043 2.23714 10.0885C2.51518 11.3294 2.90636 12.7836 3.38078 14.0741C3.86098 15.3803 4.40725 16.4634 4.97268 17.013C5.25074 17.2833 5.49223 17.3847 5.70059 17.3758C5.90687 17.3671 6.17475 17.2461 6.49749 16.8581C7.02103 16.2282 7.51915 15.6668 7.88628 15.2629C8.0694 15.0614 8.22012 14.8989 8.32541 14.7865C7.50379 14.0619 7.02411 12.9056 7.19842 11.6592C7.36123 10.495 7.30254 9.49066 7.26928 8.92142C7.26053 8.77171 7.24379 8.62102 7.24386 8.47132ZM11.736 16.2093C11.723 16.1163 11.6922 16.0342 11.6519 15.9715C11.5371 15.793 11.3394 15.6797 11.0717 15.7179C11.0233 15.7248 10.9572 15.762 10.7889 15.9841C10.7659 16.0144 10.7416 16.0474 10.7157 16.0824C10.5762 16.2711 10.3916 16.5209 10.1346 16.7493C9.9465 16.9165 9.71729 17.0141 9.50183 17.0799C9.30471 17.14 9.09401 17.1803 8.90845 17.2159L8.85926 17.2253C8.65155 17.2653 8.48216 17.3007 8.34648 17.3511C8.29029 17.3719 8.24773 17.3926 8.21543 17.4124C8.31749 17.4701 8.48052 17.5321 8.69333 17.5858C9.19882 17.7134 9.81039 17.7528 10.1252 17.6865C10.8031 17.5438 11.3596 17.0916 11.5986 16.7503C11.655 16.6697 11.6926 16.587 11.7153 16.5059C11.717 16.4375 11.7188 16.369 11.7207 16.3005C11.7216 16.2692 11.7268 16.2386 11.736 16.2093ZM19.0678 15.6436C19.0518 15.6481 19.0369 15.6522 19.024 15.656C18.9615 15.6741 18.906 15.6923 18.8544 15.7155C18.7573 15.7593 18.6759 15.8196 18.6156 15.9301C18.5531 16.0446 18.4962 16.245 18.513 16.5984C18.5295 16.6117 18.5703 16.6365 18.6616 16.6649C18.8422 16.7211 19.1142 16.7511 19.4401 16.7476C20.0934 16.7404 20.8446 16.6006 21.2826 16.3973C21.5642 16.2665 21.8151 16.1148 22.0139 15.9666C22.1031 15.9 22.1784 15.8368 22.2399 15.7792L22.2249 15.7822C20.8409 16.0679 20.0367 15.9917 19.5597 15.7942C19.4203 15.7365 19.3093 15.6685 19.2215 15.5972C19.1739 15.6138 19.1157 15.6301 19.0678 15.6436ZM18.5031 16.5882C18.5031 16.5882 18.5048 16.5895 18.5065 16.5926C18.5037 16.5898 18.5031 16.5882 18.5031 16.5882ZM10.6414 13.9326C10.6578 13.8886 10.6743 13.8444 10.6906 13.8004C10.7546 13.6283 10.8363 13.4465 10.9168 13.2675C10.9579 13.1761 10.9987 13.0852 11.0368 12.9967C11.1548 12.7219 11.2677 12.4229 11.3496 12.0623C11.5124 11.3446 11.5599 10.3471 11.2232 8.78971C11.1162 8.29526 10.8747 8.06577 10.5951 7.95781C10.2896 7.83985 9.88764 7.84843 9.45419 7.94841C9.02702 8.04695 8.60943 8.22507 8.30054 8.39707C8.1458 8.48323 8.02675 8.56319 7.95112 8.62471C7.94257 8.63166 7.93499 8.63804 7.92831 8.64384C7.93064 8.69118 7.93419 8.7498 7.93835 8.81862C7.97063 9.35202 8.04 10.4981 7.86459 11.7523C7.62436 13.4702 8.87946 14.8811 10.3248 14.8856C10.3351 14.8435 10.3461 14.8016 10.3577 14.7599C10.431 14.4965 10.5359 14.2152 10.6414 13.9326Z" fill="white"/>
</g>
<defs>
<clipPath id="clip0_4674_1498">
<rect width="24" height="24" fill="white" transform="translate(0 0.859863)"/>
</clipPath>
</defs>
</svg>
