<svg width="72" height="72" viewBox="0 0 72 72" fill="none" xmlns="http://www.w3.org/2000/svg">
<path fill-rule="evenodd" clip-rule="evenodd" d="M34.638 5.3021L34.7256 22.6643H33.405L28.5745 27.8239V35.9963H66.6575L71.2656 31.3843V22.6643H66.4768L66.4376 0.819723L39.1426 0.736003L34.638 5.3021Z" fill="black"/>
<path d="M67.1709 0.0870952L67.2101 21.9289H72V31.6883L67.1766 36.5159L66.9624 36.7312H27.8398V27.5336L28.0378 27.3211L33.0869 21.9289H33.9871L33.9029 5.30611L33.902 5.00176L38.6201 0.220131L38.8363 0L67.1709 0.0870952ZM35.3733 5.60185L35.4642 23.3989H33.7231L29.3092 28.1136V35.2611H66.353L70.5306 31.0796V23.3989H65.7436L65.7034 1.55144L39.4486 1.47105L35.3733 5.60185Z" fill="black"/>
<path fill-rule="evenodd" clip-rule="evenodd" d="M33.4912 23.2965L29.2009 27.8241H64.046L68.4296 23.2965H33.4912Z" fill="#BFBFBF"/>
<path fill-rule="evenodd" clip-rule="evenodd" d="M39.5536 1.18679L35.3427 5.39116H61.3747L65.826 1.23731L39.5536 1.18679Z" fill="#BFBFBF"/>
<path fill-rule="evenodd" clip-rule="evenodd" d="M60.4708 5.39033V26.5514H35.3427L60.4708 5.39033Z" fill="#808080"/>
<path fill-rule="evenodd" clip-rule="evenodd" d="M59.9285 6.38762V23.2079H36.4274L59.9285 6.38762Z" fill="white"/>
<path fill-rule="evenodd" clip-rule="evenodd" d="M35.3427 26.6444V5.30253H61.3747L35.3427 26.6444Z" fill="white"/>
<path fill-rule="evenodd" clip-rule="evenodd" d="M36.4274 23.2965V6.47622H59.9285L36.4274 23.2965Z" fill="#808080"/>
<path d="M58.663 7.47201H37.512V22.3028H58.663V7.47201Z" fill="#000077"/>
<path d="M58.6631 8.73824H38.7775V22.303L58.663 22.3028L58.6631 8.73824Z" fill="#0000DB"/>
<path d="M59.9285 23.2079H36.4274V25.5588H59.9285V23.2079Z" fill="#BFBFBF"/>
<path d="M64.0864 30.2613H31.3656V33.6977H64.0864V30.2613Z" fill="#BFBFBF"/>
<path d="M61.9171 31.8893H50.5281V33.6979H61.9171V31.8893Z" fill="black"/>
<path d="M31.3656 33.6977L29.1963 33.6972V35.5059H31.3657L31.3656 33.6977Z" fill="#BFBFBF"/>
<path fill-rule="evenodd" clip-rule="evenodd" d="M59.8603 6.45783L65.826 1.23731V23.2073L61.917 26.5575H59.8603V6.45783Z" fill="#808080"/>
<path fill-rule="evenodd" clip-rule="evenodd" d="M70.6724 23.2965L64.0863 30.3008H31.4397V33.6623H29.1076V27.8241H64.0863L68.4296 23.2965H70.6724Z" fill="white"/>
<path fill-rule="evenodd" clip-rule="evenodd" d="M70.6724 23.2965L64.0863 30.3008L64.0864 33.6977H31.3656L31.3657 35.5059L66.3278 35.5066L70.6724 31.3411L70.6724 23.2965Z" fill="#808080"/>
<path d="M66.9939 23.1855L62.4345 27.7116L62.2193 27.9241H33.9909V22.6639H35.4603V26.454H61.6147L65.9597 22.1423L66.9939 23.1855Z" fill="black"/>
<path fill-rule="evenodd" clip-rule="evenodd" d="M6.79816 40.5709L6.88573 57.9331H5.5652L0.734696 63.0926V71.265H38.8177L43.4258 66.653V57.9331H38.6369L38.5977 36.0885L11.3028 36.0048L6.79816 40.5709Z" fill="black"/>
<path d="M39.3311 35.3559L39.3703 57.1976H44.1602V66.9571L39.3369 71.7846L39.1226 72H0V62.8023L0.198024 62.5899L5.24715 57.1976H6.14734L6.06316 40.5749L6.0622 40.2705L10.7803 35.4889L10.9965 35.2688L39.3311 35.3559ZM7.53351 40.8706L7.62439 58.6677H5.88331L1.46939 63.3823V70.5299H38.5132L42.6908 66.3484V58.6677H37.9038L37.8636 36.8202L11.6088 36.7398L7.53351 40.8706Z" fill="black"/>
<path fill-rule="evenodd" clip-rule="evenodd" d="M5.65135 58.5643L1.36105 63.0919H36.2062L40.5898 58.5643H5.65135Z" fill="#BFBFBF"/>
<path fill-rule="evenodd" clip-rule="evenodd" d="M11.7137 36.4546L7.50289 40.659H33.5349L37.9862 36.5051L11.7137 36.4546Z" fill="#BFBFBF"/>
<path fill-rule="evenodd" clip-rule="evenodd" d="M32.631 40.6591V61.8201H7.50289L32.631 40.6591Z" fill="#808080"/>
<path fill-rule="evenodd" clip-rule="evenodd" d="M32.0887 41.6554V58.4757H8.5876L32.0887 41.6554Z" fill="white"/>
<path fill-rule="evenodd" clip-rule="evenodd" d="M7.50288 61.9122V40.5703H33.5349L7.50288 61.9122Z" fill="white"/>
<path fill-rule="evenodd" clip-rule="evenodd" d="M8.58757 58.5643V41.744H32.0887L8.58757 58.5643Z" fill="#808080"/>
<path d="M30.8233 42.7408H9.67231V57.5716H30.8233V42.7408Z" fill="#000077"/>
<path d="M30.8232 44.007H10.9377V57.5718L30.8233 57.5716L30.8232 44.007Z" fill="#0000DB"/>
<path d="M32.0887 58.4757H8.5876V60.8275H32.0887V58.4757Z" fill="#BFBFBF"/>
<path d="M36.2466 65.53H3.5258V68.9665H36.2466V65.53Z" fill="#BFBFBF"/>
<path d="M34.0773 67.1571H22.6883V68.9657H34.0773V67.1571Z" fill="black"/>
<path d="M3.5258 68.9665L1.35651 68.966V70.7746H3.52584L3.5258 68.9665Z" fill="#BFBFBF"/>
<path fill-rule="evenodd" clip-rule="evenodd" d="M32.0205 41.7266L37.9862 36.5051L37.9862 58.476L34.0772 61.8262H32.0205V41.7266Z" fill="#808080"/>
<path fill-rule="evenodd" clip-rule="evenodd" d="M42.8326 58.5643L36.2466 65.5686H3.6V68.9301H1.2679V63.0919H36.2466L40.5898 58.5643H42.8326Z" fill="white"/>
<path fill-rule="evenodd" clip-rule="evenodd" d="M42.8326 58.5643L36.2466 65.5686L36.2466 68.9665H3.5258L3.52584 70.7746L38.4879 70.7744L42.8326 66.6089L42.8326 58.5643Z" fill="#808080"/>
<path d="M39.154 58.4543L34.5947 62.9804L34.3795 63.1928H6.15105V57.9327H7.62044V61.7227H33.7749L38.1199 57.411L39.154 58.4543Z" fill="black"/>
<path fill-rule="evenodd" clip-rule="evenodd" d="M52.1783 12.7666L36.9958 29.1373H47.5342L19.6616 50.477L35.218 33.8348H24.0642L52.1783 12.7666Z" fill="#FFFF00"/>
<path d="M51.7377 12.1783C52.042 11.9503 52.4706 11.9922 52.7249 12.275C52.979 12.5576 52.9755 12.9877 52.7173 13.2665L38.6796 28.4029H47.5342C47.849 28.4029 48.1286 28.6033 48.2297 28.9015C48.3307 29.1998 48.2308 29.5293 47.981 29.7208L20.1084 51.0611C19.805 51.2934 19.374 51.2543 19.1173 50.9711C18.8608 50.6878 18.8642 50.255 19.125 49.9757L33.5252 34.5704H24.0641C23.7478 34.5703 23.4666 34.3672 23.3667 34.067C23.267 33.7668 23.371 33.4364 23.6241 33.2467L51.7377 12.1783ZM26.2701 33.1003H35.2185C35.511 33.1005 35.7755 33.274 35.892 33.5425C36.0084 33.8109 35.9548 34.123 35.7552 34.3369L26.2433 44.5117L45.3646 29.873H36.9959C36.7038 29.873 36.4393 29.6995 36.3224 29.4318C36.2056 29.1639 36.2586 28.8517 36.4573 28.6374L46.1002 18.2396L26.2701 33.1003Z" fill="black"/>
</svg>
