<svg width="24" height="25" viewBox="0 0 24 25" fill="none" xmlns="http://www.w3.org/2000/svg">
<path d="M8.25 11.0547C8.25 9.10018 10.0264 7.67969 12 7.67969C13.9736 7.67969 15.75 9.10018 15.75 11.0547C15.75 12.7573 14.402 14.0546 12.75 14.3608V14.4297C12.75 14.8439 12.4142 15.1797 12 15.1797C11.5858 15.1797 11.25 14.8439 11.25 14.4297V13.6797C11.25 13.2655 11.5858 12.9297 12 12.9297C13.3395 12.9297 14.25 11.9989 14.25 11.0547C14.25 10.1104 13.3395 9.17969 12 9.17969C10.6605 9.17969 9.75 10.1104 9.75 11.0547V11.4297C9.75 11.8439 9.41421 12.1797 9 12.1797C8.58579 12.1797 8.25 11.8439 8.25 11.4297V11.0547Z" fill="#512FC9"/>
<path d="M12 18.7422C12.5178 18.7422 12.9375 18.3225 12.9375 17.8047C12.9375 17.2869 12.5178 16.8672 12 16.8672C11.4822 16.8672 11.0625 17.2869 11.0625 17.8047C11.0625 18.3225 11.4822 18.7422 12 18.7422Z" fill="#512FC9"/>
<path fill-rule="evenodd" clip-rule="evenodd" d="M12 3.17969C6.61522 3.17969 2.25 7.54491 2.25 12.9297C2.25 18.3145 6.61522 22.6797 12 22.6797C17.3848 22.6797 21.75 18.3145 21.75 12.9297C21.75 7.54491 17.3848 3.17969 12 3.17969ZM3.75 12.9297C3.75 8.37334 7.44365 4.67969 12 4.67969C16.5563 4.67969 20.25 8.37334 20.25 12.9297C20.25 17.486 16.5563 21.1797 12 21.1797C7.44365 21.1797 3.75 17.486 3.75 12.9297Z" fill="#512FC9"/>
</svg>
