<svg width="24" height="24" viewBox="0 0 24 24" fill="none" xmlns="http://www.w3.org/2000/svg">
<path fill-rule="evenodd" clip-rule="evenodd" d="M21.2586 12.1466C21.2586 11.3086 21.8793 10.8224 22.6552 10.8224C23.2345 10.8224 23.7517 11.1018 24 11.7949C23.9276 12.1466 23.4931 12.5397 23.3069 12.6018C23.1517 12.2707 22.9758 12.0742 22.8103 12.0742C22.6035 12.0742 22.5931 12.219 22.5931 12.4052C22.5931 12.5371 22.6309 12.7313 22.6763 12.965C22.7449 13.3181 22.831 13.7612 22.831 14.2156C22.831 15.0431 22.2517 15.6535 21.3621 15.6535C20.5474 15.6535 20.0973 15.1194 19.8964 14.2663C19.3643 15.2199 18.5861 15.6535 17.9897 15.6535C17.0572 15.6535 16.8378 14.9643 16.8599 14.2652C16.4852 14.9274 15.764 15.6535 15.0724 15.6535C14.3664 15.6535 14.117 15.0389 14.1742 14.3232C13.7512 15.1112 12.9859 15.6535 12.2483 15.6535C11.4478 15.6535 11.0516 15.0176 11.1798 14.2294C10.6413 14.8913 9.6388 15.6535 8.59655 15.6535C7.40818 15.6535 6.89091 15.0127 6.82961 14.2097C6.25604 15.1289 5.48293 15.6845 4.56206 15.6845C3.23274 15.6845 2.75728 14.5024 2.68809 13.5355C2.19543 14.1952 1.64154 14.8797 0.96207 15.6431C0.889655 15.7156 0.827585 15.7569 0.755173 15.7569C0.517242 15.7569 0.0310345 14.7018 0 14.3086C0.204169 13.9918 1.49116 12.5778 2.52732 11.4394C2.89155 11.0392 3.22478 10.6731 3.46907 10.4007C2.83451 10.5922 2.18024 10.974 1.35517 11.5673C1.21035 11.6707 0.806897 10.7293 0.817242 10.0052C1.76897 9.30175 3.21724 8.85693 4.38621 8.85693C6.0207 8.85693 6.96206 9.76727 6.96206 11.0293C6.96206 12.0845 6.08276 13.2431 4.8 13.2845C4.133 13.3018 3.70552 12.9274 3.48689 12.4651C3.51301 13.1801 3.88481 14.0604 4.88276 14.0604C5.97069 14.0604 6.49313 13.4036 7.27225 12.4242C7.32288 12.3606 7.37458 12.2956 7.42758 12.2293C8.08967 11.4121 8.85518 10.688 9.97242 10.688C10.6552 10.688 11.1207 11.1121 11.1207 11.7535C11.1207 12.5293 10.2103 13.6052 8.93794 13.6052C8.72061 13.6052 8.52251 13.5766 8.3553 13.52C8.3511 13.5526 8.34827 13.5847 8.34827 13.6156C8.34827 13.9776 8.48276 14.1949 9.07242 14.1949C9.94139 14.1949 10.7586 13.6776 11.7517 12.4673C12.7242 11.2776 13.4586 10.7604 14.2345 10.7604C14.7582 10.7604 15.1557 11.0442 15.3309 11.5223C16.3707 10.0205 17.2528 8.95638 18 8.24658C18.7345 8.55693 19.2621 9.16727 19.1172 9.29141C18.569 9.78796 16.7379 11.7845 16.0138 12.9742C15.8276 13.2845 15.6517 13.6259 15.6517 13.7914C15.6517 13.9466 15.7448 13.9983 15.8483 13.9983C16.3454 13.9983 17.3414 12.8249 18.2017 11.8114C18.5231 11.4328 18.8255 11.0765 19.0759 10.8121C19.6552 11.05 20.2448 11.5569 20.1 11.7328C19.3345 12.6431 18.7552 13.388 18.7552 13.8121C18.7552 13.9259 18.7965 13.9983 18.9517 13.9983C19.2414 13.9983 19.5103 13.7397 19.9552 13.1914C20.0483 13.0776 20.1621 13.0776 20.2345 13.2535C20.431 13.7293 20.7207 13.988 20.9483 13.988C21.2172 13.988 21.3517 13.75 21.3517 13.388C21.3517 13.1405 21.3215 12.8528 21.2955 12.6051C21.2759 12.4179 21.2586 12.2535 21.2586 12.1466ZM4.57242 12.0121C5.1207 12.0121 5.7207 11.7121 5.7207 11.1018C5.7207 10.7314 5.4908 10.3899 4.87646 10.2859C4.84405 10.3365 4.81186 10.3869 4.77987 10.4369C4.4677 10.9249 4.17329 11.3852 3.87617 11.8351C4.05419 11.9351 4.27934 12.0121 4.57242 12.0121ZM10.1172 12.1983C10.1172 12.0328 10.0138 11.919 9.84827 11.919C9.43324 11.919 8.80724 12.5014 8.51266 13.0639C8.62139 13.1059 8.74905 13.1293 8.88621 13.1293C9.6207 13.1293 10.1172 12.5707 10.1172 12.1983ZM12.8379 13.6983C12.8379 13.8845 12.9414 14.0086 13.1586 14.0086C13.831 14.0086 14.669 12.788 14.669 12.2914C14.669 12.0845 14.5552 11.9604 14.369 11.9604C13.7586 11.9604 12.8379 13.119 12.8379 13.6983ZM21.4757 9.96387C21.2378 10.357 20.8757 10.8018 20.7413 10.9363C20.1206 10.6777 19.5413 10.1604 19.624 10.0156C19.8516 9.61215 20.224 9.17766 20.3585 9.04318C20.9792 9.3018 21.5585 9.82939 21.4757 9.96387Z" fill="#FF4438"/>
</svg>
