<svg width="20" height="20" viewBox="0 0 20 20" fill="none" xmlns="http://www.w3.org/2000/svg">
<path fill-rule="evenodd" clip-rule="evenodd" d="M16.3182 2.5119C15.2363 2.44816 12.7948 2.5721 10.7395 4.62747L10.3669 5H5.80953C5.47845 5.00015 5.16042 5.13189 4.92618 5.36587L2.2421 8.04995C2.07823 8.21418 1.9633 8.42077 1.91017 8.64661C1.85704 8.87244 1.86781 9.10861 1.94127 9.32867C2.01474 9.54873 2.14799 9.74401 2.32613 9.89264C2.50426 10.0413 2.72025 10.1374 2.94991 10.1703L2.95203 10.1706L5.95723 10.5901L9.41096 14.0438L9.83045 17.0489L9.83075 17.051C9.86361 17.2807 9.95973 17.4967 10.1084 17.6748C10.257 17.8529 10.4523 17.9862 10.6723 18.0597C10.8924 18.1331 11.1286 18.1439 11.3544 18.0908C11.5802 18.0376 11.7873 17.9222 11.9515 17.7583L14.6354 15.0745C14.8694 14.8403 15.0009 14.5225 15.001 14.1914V9.63369L15.3733 9.26136C17.4271 7.20762 17.5527 4.76471 17.4889 3.68266L17.4887 3.6793C17.4692 3.37614 17.34 3.09046 17.1252 2.87565C16.9104 2.66084 16.6247 2.53161 16.3215 2.51211L16.3182 2.5119ZM13.751 10.8837L10.663 13.9717L11.0681 16.874L13.751 14.1911V10.8837ZM11.0748 6.05987C11.0702 6.06462 11.0656 6.0693 11.0608 6.07391L7.13482 9.99989L10.0009 12.866L14.4895 8.37747C16.1836 6.68331 16.2942 4.66817 16.2413 3.75954C15.3325 3.70656 13.319 3.8157 11.6233 5.51136L11.0748 6.05987ZM5.80982 6.25L9.11694 6.25L6.02898 9.33796L3.12695 8.93286L5.80982 6.25Z" fill="#512FC9"/>
<path d="M5.78357 13.1049C6.11484 13.0187 6.31549 12.6814 6.23227 12.3486C6.14856 12.0137 5.80922 11.8101 5.47435 11.8938L5.62594 12.5001C5.47435 11.8938 5.47392 11.8939 5.47349 11.894L5.47256 11.8943L5.47053 11.8948L5.46577 11.896L5.45349 11.8993C5.4441 11.9019 5.4323 11.9052 5.41827 11.9094C5.39021 11.9179 5.35312 11.9297 5.3083 11.9457C5.21877 11.9777 5.09773 12.0264 4.9558 12.0974C4.6722 12.2392 4.30188 12.4716 3.93399 12.8395C3.18412 13.5893 2.50094 14.8455 2.50094 16.8751C2.50094 17.2203 2.78076 17.5001 3.12594 17.5001C5.15554 17.5001 6.41176 16.817 7.16163 16.0671C7.52951 15.6992 7.7619 15.3289 7.9037 15.0453C7.97466 14.9034 8.02337 14.7823 8.05534 14.6928C8.07135 14.648 8.08323 14.6109 8.09164 14.5828C8.09585 14.5688 8.0992 14.557 8.10178 14.5476L8.10508 14.5353L8.10631 14.5306L8.10682 14.5285L8.10706 14.5276C8.10717 14.5272 8.10727 14.5267 7.50094 14.3751L8.10727 14.5267C8.19099 14.1919 7.98739 13.8525 7.65252 13.7688C7.31967 13.6856 6.98241 13.8862 6.89614 14.2175L6.89436 14.2236C6.89179 14.2322 6.88658 14.2488 6.87817 14.2724C6.86132 14.3195 6.83189 14.3938 6.78567 14.4863C6.69309 14.6714 6.53486 14.9261 6.27774 15.1832C5.84513 15.6158 5.0899 16.0983 3.78036 16.2207C3.90274 14.9112 4.38526 14.156 4.81788 13.7233C5.07499 13.4662 5.32967 13.308 5.51482 13.2154C5.60727 13.1692 5.68154 13.1398 5.72872 13.1229C5.75227 13.1145 5.76889 13.1093 5.77745 13.1067L5.78357 13.1049Z" fill="#512FC9"/>
</svg>
