<svg width="24" height="25" viewBox="0 0 24 25" fill="none" xmlns="http://www.w3.org/2000/svg">
<path fill-rule="evenodd" clip-rule="evenodd" d="M6.84451 9.17969C7.17755 10.4736 8.35212 11.4297 9.75 11.4297C11.1479 11.4297 12.3225 10.4736 12.6555 9.17969H20.25C20.6642 9.17969 21 8.8439 21 8.42969C21 8.01547 20.6642 7.67969 20.25 7.67969H12.6555C12.3225 6.38577 11.1479 5.42969 9.75 5.42969C8.35212 5.42969 7.17755 6.38577 6.84451 7.67969H3.75C3.33579 7.67969 3 8.01547 3 8.42969C3 8.8439 3.33579 9.17969 3.75 9.17969H6.84451ZM8.25 8.42969C8.25 7.60126 8.92157 6.92969 9.75 6.92969C10.5784 6.92969 11.25 7.60126 11.25 8.42969C11.25 9.25811 10.5784 9.92969 9.75 9.92969C8.92157 9.92969 8.25 9.25811 8.25 8.42969Z" fill="#512FC9"/>
<path fill-rule="evenodd" clip-rule="evenodd" d="M12.8445 18.1797C13.1775 19.4736 14.3521 20.4297 15.75 20.4297C17.1479 20.4297 18.3225 19.4736 18.6555 18.1797H20.25C20.6642 18.1797 21 17.8439 21 17.4297C21 17.0155 20.6642 16.6797 20.25 16.6797H18.6555C18.3225 15.3858 17.1479 14.4297 15.75 14.4297C14.3521 14.4297 13.1775 15.3858 12.8445 16.6797H3.75C3.33579 16.6797 3 17.0155 3 17.4297C3 17.8439 3.33579 18.1797 3.75 18.1797H12.8445ZM14.25 17.4297C14.25 16.6013 14.9216 15.9297 15.75 15.9297C16.5784 15.9297 17.25 16.6013 17.25 17.4297C17.25 18.2581 16.5784 18.9297 15.75 18.9297C14.9216 18.9297 14.25 18.2581 14.25 17.4297Z" fill="#512FC9"/>
</svg>
