<svg enable-background="new 0 0 600 450" viewBox="0 0 600 450" xmlns="http://www.w3.org/2000/svg" xmlns:xlink="http://www.w3.org/1999/xlink"><linearGradient id="a" gradientTransform="matrix(1 0 0 -1 -120.9449 379.3622)" gradientUnits="userSpaceOnUse" x1="502.2148" x2="660.584" y1="181.4377" y2="181.4377"><stop offset=".08199999" stop-color="#99d2d0"/><stop offset=".951" stop-color="#58509d"/></linearGradient><path d="m514.9 220.8c-1.7 12.7-6.9 20.3-14.2 20.9-2.5 0-4.9-.5-7.2-1.6-2.2-1.1-4.2-2.7-5.7-4.6 5.4-3.8 10-8.6 13.4-14.2s5.6-11.9 6.5-18.4c-29.4 8.6-59.8 13.5-90.5 14.4 3.6 7.3 9 13.6 15.7 18.2-11.8 13.3-18.1 30.6-17.8 48.3h12.4c-.3-13.8 4.3-27.3 12.9-38.1-1.9 12.6-3 25.4-3.5 38.1h22s-4-16.5 2.5-16.5c6.6 0 2.5 16.5 2.5 16.5h22c-.4-12.1-1.5-24.1-3.2-36 2.4 1.9 5.2 3.5 8.1 4.6 3.4 1.2 7 1.8 10.6 1.5 3.2-.2 6.4-1.1 9.3-2.6s5.4-3.6 7.5-6.1c4.6-5.5 7.6-13.1 8.9-22.7z"/><path d="m463.6 217c43.7-7 77.7-21.2 76-31.7s-38.6-13.3-82.3-6.3-77.7 21.2-76 31.7c1.8 10.4 38.6 13.3 82.3 6.3z" fill="url(#a)"/><path d="m81.4 257.9c-9.5-1.3-10.3-3-10.3-5 0-1.7 1-4.5 7.8-4.5 7.7 0 9.4 3.1 10 5.5l.1.4h10l-.1-.6c-.3-3-2.5-12.8-19.6-12.8-13.5 0-18.3 6.9-18.3 12.8 0 7.2 5.5 11.1 17.8 12.7 10.5 1.3 11.4 3.4 11.4 5.8 0 3.4-3.1 5.1-9.2 5.1-6.4 0-10.3-2.2-11.6-6.5l-.1-.4h-10.1l.1.6c1.4 8.9 9.1 13.9 21.2 13.9 12.6 0 19.9-4.9 19.9-13.5-.1-5.7-2.4-11.3-19-13.5zm52.4-16.9c-7.9 0-12.4 3.2-14.9 6.5 0-2-.1-3.9-.2-4.9l-.1-.5h-10v.6c.1 3.3.1 6.8.1 10.1v48.7h10.3v-22c1.7 1.9 3.8 3.4 6.1 4.3 2.3 1 4.9 1.4 7.4 1.2 12.1 0 21.2-9.7 21.2-22.6-.1-12.3-8.6-21.4-19.9-21.4zm9.4 21.6c0 6.4-3.2 13.8-12.3 13.8-7.6 0-12.2-5-12.2-13.3 0-8.7 4.5-13.7 12.4-13.7 8.4-0 12.1 6.7 12.1 13.2zm57.1 10.3v-17.1c0-9.8-6.5-14.8-19.4-14.8-16.3 0-18.9 9.4-19.3 13.5l-.1.6h10.1l.1-.4c.6-2.9 1.9-6 9.2-6 8.2 0 9.3 3.9 9.3 7.3v1.4h-9.1c-14.8 0-22 4.5-22 13.9 0 6.8 5.1 13.6 16.5 13.6 7 0 12-1.9 14.8-5.5 0 1.3.2 2.7.4 4l.1.4h9.6l-.1-.6c0-3.5-.1-6.9-.1-10.3zm-31.1-2.1c0-4.4 3.6-6.3 12.1-6.3h8.9v.9c0 7.7-4.2 11.6-12.5 11.6-5.4 0-8.5-2.3-8.5-6.2zm73.2-.7c-.9 2.1-2.4 4-4.4 5.2s-4.3 1.7-6.6 1.5c-7.4 0-12.2-5.4-12.2-13.9 0-8.4 4.8-13.8 12.2-13.8 2.3-.2 4.7.4 6.7 1.6 2 1.3 3.5 3.1 4.2 5.3l.1.4h10l-.1-.6c-.9-5.5-6.2-14.8-20.8-14.8-3-.1-6 .4-8.7 1.4-2.8 1.1-5.3 2.7-7.4 4.8s-3.8 4.5-4.9 7.3c-1.1 2.7-1.6 5.7-1.6 8.6 0 13.3 8.8 21.9 22.5 21.9 10.8 0 18.7-5.4 21.1-14.5l.2-.7h-10.1zm37.8-29.1c-13.1 0-22.2 9-22.2 22 0 10.9 6.9 21.9 22.4 21.9 14.3 0 19.4-8.3 21.2-13.2l.3-.7h-10.2l-.2.3c-2.2 3.9-5.5 5.6-10.8 5.6-3.2.1-6.2-1-8.6-3.1-2.3-2.1-3.7-5-3.9-8.2h34v-2.8c0-10.1-5.8-21.8-22-21.8zm-.1 7.8c9 0 11.2 5.8 11.6 9.7h-23.3c.9-6.2 5.1-9.7 11.7-9.7zm40.6-26h-10.2v60.9h10.2zm16.6.2c-1 0-2 .3-2.9.9-.8.6-1.5 1.4-1.9 2.3-.8 1.9-.4 4.1 1.1 5.6s3.7 1.9 5.6 1.1c.9-.4 1.7-1 2.3-1.9 1.4-2 1.1-4.7-.6-6.4-.9-1.1-2.2-1.6-3.6-1.6zm5.2 19.1h-10.2v41.7h10.2zm61.4 7.9v-8h-10.4v-12.8h-10.2v12.8h-16v-4c0-5.8 1.4-7.5 6.1-7.5 1.1 0 2.2.1 3.3.3l.7.2v-8.1l-.4-.1c-1.7-.4-3.4-.5-5.2-.5-9.6 0-14.7 5.3-14.7 15.5v4.4h-7.5v8h7.5v33.7h10.2v-33.9h16v21.7c0 8.8 3.5 12.4 12.1 12.4 2.4.1 4.7-.2 7-.8l.4-.1v-7.5l-.7.1c-1.2.2-2.5.3-3.8.3-3.7 0-4.8-1.3-4.8-5.7v-20.4zm99.5-73.5c-5-10.2-13.6-18.3-24.1-22.8s-22.4-5.1-33.3-1.7-20.3 10.5-26.3 20.2c-6 9.6-8.4 21.1-6.5 32.3 2.3 14.1 96.8-.3 94.4-15.1-.8-4.5-2.2-8.9-4.2-12.9z"/></svg>