<svg width="24" height="24" viewBox="0 0 24 24" fill="none" xmlns="http://www.w3.org/2000/svg">
<path d="M8.03033 3.96918C8.32322 4.26208 8.32322 4.73695 8.03033 5.02984L6.31066 6.74951H12.5C12.9142 6.74951 13.25 7.0853 13.25 7.49951C13.25 7.91373 12.9142 8.24951 12.5 8.24951H6.31066L8.03033 9.96918C8.32322 10.2621 8.32322 10.7369 8.03033 11.0298C7.73744 11.3227 7.26256 11.3227 6.96967 11.0298L3.96967 8.02984C3.8238 7.88397 3.75057 7.69295 3.75 7.50176L3.75 7.49951L3.75 7.49726C3.7503 7.39639 3.77051 7.3002 3.80691 7.21242C3.84351 7.12396 3.89776 7.04109 3.96967 6.96918L6.96967 3.96918C7.26256 3.67629 7.73744 3.67629 8.03033 3.96918Z" fill="black"/>
<path d="M17.0303 12.9692C16.7374 12.6763 16.2626 12.6763 15.9697 12.9692C15.6768 13.2621 15.6768 13.7369 15.9697 14.0298L17.6893 15.7495L11.5 15.7495C11.0858 15.7495 10.75 16.0853 10.75 16.4995C10.75 16.9137 11.0858 17.2495 11.5 17.2495H17.6893L15.9697 18.9692C15.6768 19.2621 15.6768 19.7369 15.9697 20.0298C16.2626 20.3227 16.7374 20.3227 17.0303 20.0298L20.0303 17.0298C20.1768 16.8834 20.25 16.6915 20.25 16.4995C20.25 16.3978 20.2298 16.3009 20.1931 16.2124C20.1565 16.124 20.1022 16.0411 20.0303 15.9692L17.0303 12.9692Z" fill="black"/>
<path d="M5.5 15.7495C5.08579 15.7495 4.75 16.0853 4.75 16.4995C4.75 16.9137 5.08579 17.2495 5.5 17.2495C5.91421 17.2495 6.25 16.9137 6.25 16.4995C6.25 16.0853 5.91421 15.7495 5.5 15.7495Z" fill="black"/>
<path d="M7.75 16.4995C7.75 16.0853 8.08579 15.7495 8.5 15.7495C8.91421 15.7495 9.25 16.0853 9.25 16.4995C9.25 16.9137 8.91421 17.2495 8.5 17.2495C8.08579 17.2495 7.75 16.9137 7.75 16.4995Z" fill="black"/>
<path d="M19.25 7.49951C19.25 7.91373 18.9142 8.24951 18.5 8.24951C18.0858 8.24951 17.75 7.91373 17.75 7.49951C17.75 7.0853 18.0858 6.74951 18.5 6.74951C18.9142 6.74951 19.25 7.0853 19.25 7.49951Z" fill="black"/>
<path d="M15.5 8.24951C15.9142 8.24951 16.25 7.91373 16.25 7.49951C16.25 7.0853 15.9142 6.74951 15.5 6.74951C15.0858 6.74951 14.75 7.0853 14.75 7.49951C14.75 7.91373 15.0858 8.24951 15.5 8.24951Z" fill="black"/>
</svg>
