<svg width="16" height="16" viewBox="0 0 16 16" fill="none" xmlns="http://www.w3.org/2000/svg">
<path fill-rule="evenodd" clip-rule="evenodd" d="M7.5 1C8.16304 1 8.79874 1.26358 9.26758 1.73242C9.73642 2.20126 10 2.83696 10 3.5V4.5H13.5C13.7128 4.50006 13.9233 4.54524 14.1172 4.63281C14.3111 4.72039 14.4843 4.84823 14.625 5.00781C14.7657 5.16741 14.871 5.35524 14.9336 5.55859C14.9961 5.76156 15.014 5.97549 14.9876 6.1862L14.9883 6.18685L14.2383 12.1868L14.2376 12.1875C14.192 12.5499 14.0161 12.8834 13.7422 13.125C13.5026 13.3364 13.2026 13.4645 12.8867 13.4935L12.75 13.5H2C1.73478 13.5 1.48051 13.3946 1.29297 13.207C1.10543 13.0195 1 12.7652 1 12.5V7C1 6.73478 1.10543 6.48051 1.29297 6.29297C1.4805 6.10543 1.73478 6 2 6H4.69076L7.05273 1.27669C7.13743 1.1073 7.31061 1 7.5 1ZM5.5 6.61784V12.5H12.75L12.8398 12.4915C12.9286 12.4753 13.0122 12.4354 13.0807 12.375C13.1718 12.2946 13.2301 12.1836 13.2454 12.0632L13.9954 6.06315L13.9961 6.0625C14.005 5.99216 13.9987 5.92062 13.9779 5.85286C13.957 5.78511 13.9219 5.72245 13.875 5.66927C13.8281 5.61611 13.7703 5.57346 13.7057 5.54427C13.6572 5.52236 13.6054 5.50822 13.5527 5.5026L13.5 5.5H9.5C9.22386 5.5 9 5.27614 9 5V3.5C9 3.10218 8.84185 2.72076 8.56055 2.43945C8.34964 2.22855 8.08248 2.08697 7.79427 2.0293L5.5 6.61784ZM2 12.5H4.5V7H2V12.5Z" fill="black" fill-opacity="0.54"/>
</svg>
