<svg width="16" height="16" viewBox="0 0 16 16" fill="none" xmlns="http://www.w3.org/2000/svg">
<path fill-rule="evenodd" clip-rule="evenodd" d="M12.75 2.5L12.8867 2.50651C13.2026 2.53548 13.5026 2.66363 13.7422 2.875C14.0161 3.11664 14.192 3.45011 14.2376 3.8125L14.2383 3.81315L14.9883 9.81315C15.0148 10.0241 14.9961 10.2382 14.9336 10.4414C14.871 10.6448 14.7657 10.8326 14.625 10.9922C14.4843 11.1518 14.3111 11.2796 14.1172 11.3672C13.9717 11.4329 13.8169 11.4747 13.6589 11.4915L13.5 11.5H10V12.5C10 13.163 9.73642 13.7987 9.26758 14.2676C8.79874 14.7364 8.16304 15 7.5 15C7.31061 15 7.13743 14.8927 7.05273 14.7233L4.69076 10H2C1.73478 10 1.48051 9.89457 1.29297 9.70703C1.10543 9.5195 1 9.26522 1 9V3.5C1 3.23478 1.10543 2.98051 1.29297 2.79297C1.4805 2.60543 1.73478 2.5 2 2.5H12.75ZM5.5 9.38216L7.79427 13.9707C8.08248 13.913 8.34964 13.7715 8.56055 13.5605C8.84185 13.2792 9 12.8978 9 12.5V11C9 10.7239 9.22386 10.5 9.5 10.5H13.5L13.5527 10.4974C13.6054 10.4918 13.6572 10.4776 13.7057 10.4557C13.7703 10.4265 13.8281 10.3839 13.875 10.3307C13.9219 10.2775 13.957 10.2149 13.9779 10.1471C13.9987 10.0794 14.005 10.0078 13.9961 9.9375L13.9954 9.93685L13.2454 3.93685C13.23 3.81661 13.1716 3.70525 13.0807 3.625C13.0122 3.56455 12.9286 3.52474 12.8398 3.50846L12.75 3.5H5.5V9.38216ZM2 9H4.5V3.5H2V9Z" fill="black" fill-opacity="0.54"/>
</svg>
