<svg width="48" height="48" viewBox="0 0 48 48" fill="none" xmlns="http://www.w3.org/2000/svg">
<path d="M24 0.500977C36.9789 0.500977 47.5 11.0223 47.5 24.001C47.5 36.9788 36.9787 47.5003 24 47.5003C11.0211 47.5003 0.500049 36.9788 0.5 24.001C0.5 11.0223 11.0212 0.501004 24 0.500977Z" fill="white"/>
<path d="M47.5 24.0009C47.5 36.9788 36.9788 47.5003 24.0001 47.5003C11.0211 47.5003 0.5 36.9788 0.5 24.0009C0.5 11.0222 11.0212 0.500977 24.0001 0.500977C36.979 0.500977 47.5 11.0222 47.5 24.0009Z" fill="#DD4814"/>
<path d="M8.0207 20.8622C6.2871 20.8622 4.88257 22.2668 4.88257 24.0003C4.88257 25.733 6.2871 27.1375 8.0207 27.1375C9.7534 27.1375 11.1579 25.733 11.1579 24.0003C11.1579 22.2668 9.7534 20.8622 8.0207 20.8622ZM30.4222 35.122C28.9215 35.9888 28.4069 37.9066 29.2738 39.4064C30.1396 40.9071 32.0574 41.4215 33.5581 40.5548C35.0586 39.689 35.5732 37.7712 34.7064 36.2704C33.8407 34.7707 31.9217 34.2562 30.4222 35.122ZM14.8357 24.0003C14.8357 20.8998 16.3758 18.1605 18.7323 16.5018L16.4385 12.6599C13.6935 14.4948 11.651 17.2987 10.8022 20.5827C11.7926 21.3908 12.4266 22.6211 12.4266 24.0002C12.4266 25.3784 11.7926 26.6087 10.8022 27.4169C11.6499 30.7018 13.6924 33.5058 16.4385 35.3407L18.7323 31.4979C16.3758 29.8401 14.8357 27.101 14.8357 24.0003ZM24 14.8351C28.7876 14.8351 32.7155 18.5059 33.1278 23.1873L37.5985 23.1214C37.3785 19.6653 35.8687 16.5627 33.5488 14.2812C32.3559 14.7319 30.9779 14.663 29.7868 13.9764C28.5937 13.2879 27.8457 12.1264 27.6412 10.8656C26.4817 10.5456 25.2613 10.3704 23.9997 10.3704C21.8308 10.3704 19.7802 10.8798 17.9595 11.781L20.1396 15.6877C21.3124 15.1419 22.6207 14.8351 24 14.8351ZM24 33.1646C22.6207 33.1646 21.3124 32.8577 20.1397 32.312L17.9596 36.2186C19.7803 37.1208 21.8309 37.6304 24 37.6304C25.2616 37.6304 26.4819 37.4551 27.6413 37.1341C27.8458 35.8733 28.5942 34.7129 29.787 34.0231C30.9789 33.3355 32.356 33.2678 33.549 33.7185C35.8689 31.437 37.3787 28.3344 37.5987 24.8783L33.1269 24.8124C32.7155 29.495 28.7877 33.1646 24 33.1646ZM30.4211 12.8767C31.9217 13.7433 33.8397 13.23 34.7055 11.7293C35.5722 10.2286 35.0589 8.31069 33.5581 7.44379C32.0574 6.57804 30.1396 7.09244 29.2726 8.59309C28.4069 10.0929 28.9213 12.0109 30.4211 12.8767Z" fill="white"/>
</svg>
