<svg width="36" height="36" viewBox="0 0 36 36" fill="none" xmlns="http://www.w3.org/2000/svg">
<path fill-rule="evenodd" clip-rule="evenodd" d="M4.5 14.625C4.5 10.8971 7.52208 7.875 11.25 7.875C14.9779 7.875 18 10.8971 18 14.625C18 16.8015 16.9699 18.7373 15.3707 19.9717C18.2606 21.2004 20.5544 23.6679 21.3394 26.7197C21.4942 27.3215 21.1319 27.9347 20.5302 28.0895C19.9285 28.2443 19.3152 27.882 19.1604 27.2803C18.297 23.9242 14.9594 21.375 11.2499 21.375C7.54038 21.375 4.20278 23.9242 3.33943 27.2803C3.18464 27.882 2.57136 28.2443 1.96963 28.0895C1.3679 27.9347 1.00559 27.3215 1.16038 26.7197C1.94546 23.6678 4.23923 21.2003 7.12924 19.9716C5.53005 18.7373 4.5 16.8014 4.5 14.625ZM11.25 10.125C8.76472 10.125 6.75 12.1397 6.75 14.625C6.75 17.1103 8.76472 19.125 11.25 19.125C13.7353 19.125 15.75 17.1103 15.75 14.625C15.75 12.1397 13.7353 10.125 11.25 10.125Z" fill="#512FC9"/>
<path d="M20.25 11.25C20.25 10.6287 20.7537 10.125 21.375 10.125H34.875C35.4963 10.125 36 10.6287 36 11.25C36 11.8713 35.4963 12.375 34.875 12.375H21.375C20.7537 12.375 20.25 11.8713 20.25 11.25Z" fill="#512FC9"/>
<path d="M21.375 16.875C20.7537 16.875 20.25 17.3787 20.25 18C20.25 18.6213 20.7537 19.125 21.375 19.125H34.875C35.4963 19.125 36 18.6213 36 18C36 17.3787 35.4963 16.875 34.875 16.875H21.375Z" fill="#512FC9"/>
<path d="M23.625 24.75C23.625 24.1287 24.1287 23.625 24.75 23.625H34.875C35.4963 23.625 36 24.1287 36 24.75C36 25.3713 35.4963 25.875 34.875 25.875H24.75C24.1287 25.875 23.625 25.3713 23.625 24.75Z" fill="#512FC9"/>
</svg>
