<svg width="24" height="25" viewBox="0 0 24 25" fill="none" xmlns="http://www.w3.org/2000/svg">
<path fill-rule="evenodd" clip-rule="evenodd" d="M9.62507 3.92969C13.1459 3.92972 16.0001 6.78389 16.0001 10.3047C16.0001 12.5849 14.8021 14.5842 13.002 15.7109C14.8153 16.3042 16.3965 17.3654 17.6788 18.749L18.0743 19.1973L18.1202 19.2588C18.334 19.573 18.2797 20.0041 17.9825 20.2539C17.6854 20.5035 17.2513 20.4832 16.9786 20.2188L16.9259 20.1621L16.5801 19.7705C14.8102 17.8592 12.4232 16.6797 9.62507 16.6797C6.64046 16.6797 4.12353 18.0215 2.32429 20.1621C2.05783 20.4791 1.58474 20.5202 1.26765 20.2539C0.950599 19.9874 0.909451 19.5144 1.17585 19.1973C2.52273 17.5948 4.24294 16.3658 6.24714 15.71C4.44769 14.5831 3.25007 12.5844 3.25007 10.3047C3.25007 6.78387 6.10425 3.92969 9.62507 3.92969ZM9.62507 5.42969C6.93268 5.42969 4.75007 7.6123 4.75007 10.3047C4.75007 12.9971 6.93268 15.1797 9.62507 15.1797C12.3174 15.1797 14.5001 12.9971 14.5001 10.3047C14.5001 7.61232 12.3174 5.42972 9.62507 5.42969Z" fill="#512FC9"/>
<path d="M22.4698 11.8994C22.7627 11.6065 23.2374 11.6065 23.5303 11.8994C23.8232 12.1923 23.8232 12.6671 23.5303 12.96L20.0303 16.46C19.7374 16.7528 19.2627 16.7528 18.9698 16.46L16.9698 14.46L16.918 14.4033C16.6777 14.1088 16.6953 13.674 16.9698 13.3994C17.2444 13.1248 17.6791 13.1074 17.9737 13.3477L18.0303 13.3994L19.5001 14.8691L22.4698 11.8994Z" fill="#512FC9"/>
</svg>
