<svg width="41" height="41" viewBox="0 0 41 41" fill="none" xmlns="http://www.w3.org/2000/svg">
<mask id="mask0_4113_6322" style="mask-type:alpha" maskUnits="userSpaceOnUse" x="0" y="0" width="41" height="41">
<path fill-rule="evenodd" clip-rule="evenodd" d="M29.2476 40.2267C29.8776 40.4722 30.5959 40.4564 31.2318 40.1504L39.4671 36.1878C40.3325 35.7714 40.8828 34.8956 40.8828 33.9348V7.0652C40.8828 6.1044 40.3325 5.2286 39.4672 4.8122L31.2318 0.84938C30.3973 0.447826 29.4207 0.546182 28.6882 1.07866C28.5836 1.15472 28.4839 1.23965 28.3904 1.33324L12.6249 15.7165L5.75769 10.5037C5.11841 10.0185 4.22426 10.0582 3.63054 10.5983L1.42802 12.6018C0.701792 13.2624 0.700959 14.405 1.42622 15.0667L7.38165 20.4999L1.42622 25.9332C0.700959 26.5948 0.701792 27.7374 1.42802 28.398L3.63054 30.4015C4.22426 30.9416 5.11841 30.9814 5.75769 30.4961L12.6249 25.2834L28.3904 39.6666C28.6398 39.9161 28.9327 40.104 29.2476 40.2267ZM30.8889 11.4194L18.9265 20.4999L30.8889 29.5804V11.4194Z" fill="white"/>
</mask>
<g mask="url(#mask0_4113_6322)">
<path d="M39.4673 4.81852L31.2255 0.850253C30.2715 0.390928 29.1314 0.584681 28.3827 1.33337L1.40214 25.9333C0.676434 26.595 0.677268 27.7375 1.40394 28.3981L3.6078 30.4016C4.20188 30.9417 5.09659 30.9815 5.73623 30.4962L38.2271 5.848C39.3171 5.02108 40.8827 5.79852 40.8827 7.16672V7.07104C40.8827 6.11064 40.3326 5.23516 39.4673 4.81852Z" fill="#0065A9"/>
<g filter="url(#filter0_d_4113_6322)">
<path d="M39.4673 36.1816L31.2255 40.1499C30.2715 40.6093 29.1314 40.4154 28.3827 39.6668L1.40214 15.0668C0.676434 14.4052 0.677268 13.2626 1.40394 12.602L3.6078 10.5985C4.20188 10.0584 5.09659 10.0186 5.73623 10.5039L38.2271 35.1521C39.3171 35.979 40.8827 35.2016 40.8827 33.8334V33.9291C40.8827 34.8895 40.3326 35.765 39.4673 36.1816Z" fill="#007ACC"/>
</g>
<g filter="url(#filter1_d_4113_6322)">
<path d="M31.2259 40.1504C30.2717 40.6095 29.1316 40.4153 28.3828 39.6666C29.3054 40.5891 30.8828 39.9357 30.8828 38.631V2.36878C30.8828 1.06408 29.3054 0.410685 28.3828 1.33324C29.1316 0.584488 30.2717 0.390461 31.2259 0.84938L39.4663 4.81221C40.3322 5.22861 40.8828 6.10441 40.8828 7.06521V33.9348C40.8828 34.8956 40.3322 35.7714 39.4663 36.1878L31.2259 40.1504Z" fill="#1F9CF0"/>
</g>
<g style="mix-blend-mode:overlay" opacity="0.25">
<path fill-rule="evenodd" clip-rule="evenodd" d="M29.2231 40.2267C29.8531 40.4721 30.5716 40.4564 31.2074 40.1505L39.4427 36.1878C40.3081 35.7714 40.8584 34.8956 40.8584 33.9347V7.06522C40.8584 6.10438 40.3081 5.22858 39.4427 4.81218L31.2074 0.84938C30.3729 0.447826 29.3962 0.546182 28.6638 1.07865C28.5592 1.15472 28.4595 1.23965 28.366 1.33324L12.6004 15.7165L5.73327 10.5037C5.09403 10.0185 4.19985 10.0583 3.60613 10.5983L1.40361 12.6018C0.677378 13.2625 0.676545 14.405 1.40181 15.0667L7.35723 20.4999L1.40181 25.9332C0.676545 26.5949 0.677378 27.7374 1.40361 28.398L3.60613 30.4015C4.19985 30.9416 5.09403 30.9813 5.73327 30.4961L12.6004 25.2833L28.366 39.6666C28.6154 39.9161 28.9082 40.1041 29.2231 40.2267ZM30.8645 11.4195L18.902 20.4999L30.8645 29.5804V11.4195Z" fill="url(#paint0_linear_4113_6322)"/>
</g>
</g>
<defs>
<filter id="filter0_d_4113_6322" x="-7.47494" y="1.8317" width="56.6911" height="46.8981" filterUnits="userSpaceOnUse" color-interpolation-filters="sRGB">
<feFlood flood-opacity="0" result="BackgroundImageFix"/>
<feColorMatrix in="SourceAlpha" type="matrix" values="0 0 0 0 0 0 0 0 0 0 0 0 0 0 0 0 0 0 127 0" result="hardAlpha"/>
<feOffset/>
<feGaussianBlur stdDeviation="4.16667"/>
<feColorMatrix type="matrix" values="0 0 0 0 0 0 0 0 0 0 0 0 0 0 0 0 0 0 0.25 0"/>
<feBlend mode="overlay" in2="BackgroundImageFix" result="effect1_dropShadow_4113_6322"/>
<feBlend mode="normal" in="SourceGraphic" in2="effect1_dropShadow_4113_6322" result="shape"/>
</filter>
<filter id="filter1_d_4113_6322" x="20.0495" y="-7.73031" width="29.1667" height="56.4606" filterUnits="userSpaceOnUse" color-interpolation-filters="sRGB">
<feFlood flood-opacity="0" result="BackgroundImageFix"/>
<feColorMatrix in="SourceAlpha" type="matrix" values="0 0 0 0 0 0 0 0 0 0 0 0 0 0 0 0 0 0 127 0" result="hardAlpha"/>
<feOffset/>
<feGaussianBlur stdDeviation="4.16667"/>
<feColorMatrix type="matrix" values="0 0 0 0 0 0 0 0 0 0 0 0 0 0 0 0 0 0 0.25 0"/>
<feBlend mode="overlay" in2="BackgroundImageFix" result="effect1_dropShadow_4113_6322"/>
<feBlend mode="normal" in="SourceGraphic" in2="effect1_dropShadow_4113_6322" result="shape"/>
</filter>
<linearGradient id="paint0_linear_4113_6322" x1="20.8584" y1="0.603027" x2="20.8584" y2="40.3968" gradientUnits="userSpaceOnUse">
<stop stop-color="white"/>
<stop offset="1" stop-color="white" stop-opacity="0"/>
</linearGradient>
</defs>
</svg>
