<svg width="25" height="18" viewBox="0 0 25 18" fill="none" xmlns="http://www.w3.org/2000/svg">
<path d="M23.9982 3.22362C23.7216 2.19036 22.9096 1.37838 21.8763 1.10179C20.0055 0.599976 12.5 0.599976 12.5 0.599976C12.5 0.599976 4.99456 0.599976 3.12364 1.10179C2.09039 1.37838 1.2784 2.19036 1.00181 3.22362C0.5 5.09454 0.5 9.00037 0.5 9.00037C0.5 9.00037 0.5 12.9062 1.00181 14.7771C1.2784 15.8104 2.09039 16.6224 3.12364 16.8989C4.99456 17.4008 12.5 17.4008 12.5 17.4008C12.5 17.4008 20.0055 17.4008 21.8763 16.8989C22.9096 16.6224 23.7216 15.8104 23.9982 14.7771C24.5 12.9062 24.5 9.00037 24.5 9.00037C24.5 9.00037 24.498 5.09454 23.9982 3.22362Z" fill="#FF0000"/>
<path d="M10.098 12.6003L16.3331 9.00075L10.098 5.40112V12.6003Z" fill="white"/>
</svg>
