<svg width="1800" height="432" viewBox="0 0 1800 432" fill="none" xmlns="http://www.w3.org/2000/svg">
<mask id="mask0_682_2167" style="mask-type:luminance" maskUnits="userSpaceOnUse" x="-261" y="-494" width="2322" height="1271">
<path d="M2059.69 89.306L198.182 776.316L-259.691 194.579L1601.82 -492.43L2059.69 89.306Z" fill="white" stroke="white"/>
</mask>
<g mask="url(#mask0_682_2167)">
<g opacity="0.8">
<path d="M1991.97 5.32054C1992.06 40.8272 1981.67 73.8798 1951.73 103.931C1920.87 134.889 1882.17 151.04 1833.72 171.446C1787.08 191.09 1666.84 240.42 1510.78 241.72C1478.74 241.986 1446.05 242.259 1406.4 234.756C1314.86 217.438 1305.61 181.271 1241.39 165.796C1162.86 146.869 1068.29 174.84 989.24 198.22C794.796 255.733 770.134 329.72 667.038 329.426C622.043 329.298 612.148 313.825 558.836 289.941C550.527 286.218 545.119 282.704 472.423 258.699C344.565 216.478 280.303 195.408 264.036 197.379C174.616 208.212 178.872 306.021 74.5047 334.226C-2.82828 355.125 -100.079 327.078 -183.371 291.56" stroke="#512FC9" stroke-opacity="0.2" stroke-width="0.4"/>
<path d="M1990.56 3.81184C1987.97 38.513 1976.68 70.9862 1946.62 100.3C1938.62 108.103 1930.31 114.914 1921.76 121.149C1896.1 139.864 1868.58 153.026 1833.01 168.469C1811.26 177.91 1772.24 192.692 1721.82 207.419C1696.51 214.813 1670.23 221.984 1639.92 227.502C1600.87 234.583 1557.25 238.513 1510.53 238.448C1478.3 238.374 1445.49 238.259 1406.05 231.475C1379.78 226.958 1361.06 221.484 1344.97 214.66C1305.16 197.769 1287.5 175.399 1241.82 163.657C1206.19 154.498 1167 155.057 1127.04 160.674C1080.19 167.326 1032.51 180.984 989.633 193.63C966.435 200.471 945.687 207.627 927.124 214.924C893.105 228.339 867.199 241.927 843.279 255C801.627 277.764 772.127 298.276 739.034 311.658C717.731 320.274 695.682 325.618 668.066 325.69C623.138 325.796 612.842 310.158 559.045 287.873C549.973 284.116 543.491 280.724 472.113 257.164C385.768 228.678 330.704 209.163 296.843 200.208C281.411 196.127 271.219 194.34 265.844 194.923C177.667 204.478 179.553 299.782 74.6245 328.071C-2.14978 348.785 -98.5777 322.36 -181.952 289.005" stroke="#512FC9" stroke-opacity="0.2" stroke-width="0.4"/>
<path d="M1989.14 2.30312C1983.89 36.1988 1971.65 68.0863 1941.52 96.6698C1933.27 104.493 1924.91 111.271 1916.59 117.525C1891.4 136.454 1867.18 149.889 1832.31 165.491C1810.75 175.137 1770.91 188.904 1720.64 204.059C1694.84 211.836 1670.1 219.525 1639.82 225.233C1600.93 232.509 1557.11 235.694 1510.28 235.176C1477.87 234.762 1444.92 234.269 1405.69 228.192C1379.25 224.097 1361.23 219.613 1344.94 213.047C1305.21 197.027 1287.7 173.943 1242.25 161.517C1207.07 151.898 1168.14 151.81 1127.99 156.94C1081.13 163.057 1033.03 176.388 990.027 189.039C966.739 195.889 945.952 203.132 927.553 210.579C893.748 224.344 869.554 238.179 845.252 251.658C804.845 274.069 775.247 294.211 740.286 307.905C718.831 316.308 696.709 321.732 669.096 321.954C624.234 322.294 613.346 306.627 559.256 285.805C549.401 282.011 541.865 278.745 471.805 255.631C385.795 227.279 333.117 207.154 298.479 197.834C283.329 193.758 273.169 191.938 267.653 192.467C180.758 200.807 180.235 293.544 74.7434 321.915C-1.47218 342.444 -97.0743 317.643 -180.531 286.45" stroke="#512FC9" stroke-opacity="0.2" stroke-width="0.4"/>
<path d="M1987.73 0.793709C1979.79 33.8832 1966.59 65.178 1936.42 93.0381C1927.93 100.883 1919.51 107.63 1911.41 113.903C1886.71 133.046 1865.78 146.757 1831.61 162.513C1810.24 172.366 1769.57 185.127 1719.45 200.699C1693.19 208.862 1669.98 217.064 1639.7 222.966C1600.98 230.434 1556.97 232.875 1510.03 231.905C1477.44 231.149 1444.35 230.286 1405.34 224.91C1378.71 221.241 1361.4 217.741 1344.91 211.435C1305.28 196.278 1287.89 172.492 1242.69 159.378C1207.95 149.303 1169.26 148.487 1128.95 153.207C1082.04 158.7 1033.56 171.793 990.42 184.448C967.041 191.306 946.214 198.637 927.981 206.234C894.39 220.347 871.906 234.431 847.223 248.315C808.044 270.356 777.695 289.342 741.536 304.151C720.34 312.832 697.734 317.846 670.123 318.217C625.328 318.792 613.694 303.215 559.465 283.737C548.806 279.909 540.235 276.765 471.494 254.097C385.819 225.88 335.525 205.149 300.112 195.46C285.242 191.392 275.117 189.535 269.461 190.01C183.882 197.198 180.914 287.307 74.8632 315.759C-0.794665 336.104 -95.574 312.926 -179.114 283.894" stroke="#512FC9" stroke-opacity="0.2" stroke-width="0.4"/>
<path d="M1986.31 -0.715729C1975.71 31.5696 1961.51 62.2628 1931.32 89.4072C1922.56 97.2742 1914.1 103.989 1906.23 110.279C1882 129.642 1864.38 143.63 1830.9 159.536C1809.72 169.599 1768.25 181.36 1718.28 197.339C1691.53 205.892 1669.84 214.603 1639.59 220.697C1601.04 228.359 1556.82 230.131 1509.77 228.633C1476.99 227.588 1443.76 226.313 1404.98 221.628C1378.17 218.387 1361.58 215.869 1344.88 209.822C1305.37 195.519 1288.08 171.046 1243.12 157.239C1208.82 146.713 1170.39 145.218 1129.9 149.473C1082.97 154.406 1034.09 167.197 990.813 179.857C967.343 186.722 946.449 194.112 928.408 201.889C894.982 216.298 874.258 230.68 849.194 244.974C811.23 266.628 780.655 285.055 742.787 300.398C721.548 309.002 698.758 313.96 671.152 314.48C626.423 315.29 613.919 299.909 559.674 281.67C548.196 277.809 538.607 274.786 471.184 252.563C385.842 224.482 337.933 203.147 301.745 193.086C287.155 189.03 277.069 187.136 271.267 187.555C187.032 193.647 181.593 281.068 74.9821 309.603C-0.117135 329.764 -94.0737 308.209 -177.693 281.339" stroke="#512FC9" stroke-opacity="0.2" stroke-width="0.4"/>
<path d="M1984.89 -2.22442C1971.63 29.2548 1956.41 59.3393 1926.21 85.7763C1917.2 93.6642 1908.7 100.351 1901.06 106.657C1877.31 126.242 1862.98 140.509 1830.2 156.559C1809.21 166.834 1766.94 177.603 1717.1 193.979C1689.87 202.926 1669.73 212.188 1639.48 218.429C1601.11 226.342 1556.68 227.327 1509.52 225.361C1476.56 223.987 1443.16 222.348 1404.63 218.346C1377.62 215.538 1361.76 213.994 1344.85 208.21C1305.49 194.752 1288.29 169.607 1243.54 155.101C1209.71 144.128 1171.52 141.952 1130.86 145.74C1083.91 150.114 1034.61 162.602 991.206 175.267C967.644 182.139 946.705 189.612 928.834 197.544C895.612 212.291 876.61 226.925 851.165 241.632C814.401 262.886 783.65 280.794 744.039 296.644C722.745 305.162 699.783 310.073 672.179 310.745C627.516 311.788 614.047 296.699 559.883 279.601C547.572 275.716 536.98 272.807 470.873 251.03C385.866 223.084 340.343 201.149 303.379 190.712C289.065 186.671 279.022 184.737 273.075 185.099C190.21 190.153 182.273 274.83 75.101 303.449C0.55841 323.424 -92.5723 303.492 -176.275 278.783" stroke="#512FC9" stroke-opacity="0.2" stroke-width="0.4"/>
<path d="M1983.47 -3.73383C1967.53 26.9406 1951.29 56.4082 1921.11 82.1453C1911.84 90.0534 1903.3 96.7122 1895.88 103.034C1872.62 122.844 1861.59 137.393 1829.49 153.581C1808.69 164.071 1765.63 173.853 1715.92 190.62C1688.22 199.963 1669.61 209.734 1639.37 216.16C1601.18 224.275 1556.53 224.522 1509.28 222.089C1476.12 220.384 1442.55 218.393 1404.28 215.063C1377.06 212.694 1361.95 212.117 1344.82 206.597C1305.62 193.975 1288.49 168.173 1243.98 152.961C1210.58 141.547 1172.66 138.687 1131.81 142.007C1084.83 145.824 1035.14 158.007 991.599 170.676C967.947 177.555 946.962 185.112 929.264 193.198C896.243 208.286 878.961 223.166 853.139 238.29C817.558 259.13 786.676 276.559 745.291 292.889C723.936 301.316 700.808 306.187 673.209 307.008C628.611 308.286 614.094 293.568 560.093 277.533C546.936 273.626 535.351 270.827 470.565 249.496C385.891 221.685 342.75 199.153 305.014 188.339C290.975 184.316 280.978 182.338 274.884 182.643C193.408 186.71 182.954 268.592 75.2188 297.293C1.23592 317.083 -91.071 298.775 -174.857 276.228" stroke="#512FC9" stroke-opacity="0.2" stroke-width="0.4"/>
<path d="M1982.06 -5.24256C1963.45 24.6264 1946.15 53.4686 1916.01 78.5144C1906.47 86.4419 1897.9 93.0757 1890.71 99.4117C1867.93 119.449 1860.19 134.281 1828.79 150.604C1808.18 161.311 1764.32 170.113 1714.74 187.259C1686.56 197.004 1669.49 207.28 1639.26 213.892C1601.25 222.207 1556.39 221.714 1509.02 218.817C1475.68 216.779 1441.93 214.448 1403.93 211.781C1376.49 209.855 1362.16 210.237 1344.79 204.986C1305.76 193.186 1288.68 166.745 1244.41 150.822C1211.45 138.972 1173.8 135.423 1132.77 138.273C1085.78 141.537 1035.66 153.412 991.992 166.085C968.248 172.972 947.219 180.612 929.692 188.854C896.875 204.282 881.312 219.405 855.11 234.948C820.701 255.363 791.019 274.01 746.541 289.135C724.478 296.638 701.833 302.301 674.237 303.273C629.705 304.785 614.079 290.509 560.302 275.465C546.287 271.546 533.724 268.848 470.256 247.963C385.917 220.286 345.158 197.162 306.648 185.964C292.884 181.962 282.935 179.943 276.691 180.187C196.624 183.318 183.635 262.354 75.3396 291.138C1.91344 310.742 -89.5686 294.057 -173.436 273.673" stroke="#512FC9" stroke-opacity="0.2" stroke-width="0.4"/>
<path d="M1980.64 -6.75125C1959.37 22.3122 1940.99 50.5215 1910.91 74.8842C1901.1 82.8291 1892.51 89.4399 1885.53 95.7878C1863.24 116.058 1858.8 131.175 1828.08 147.625C1807.67 158.555 1763.02 166.379 1713.56 183.9C1684.92 194.049 1669.37 204.826 1639.16 211.624C1601.3 220.14 1556.24 218.905 1508.77 215.546C1475.25 213.174 1441.31 210.513 1403.57 208.498C1375.92 207.022 1362.36 208.356 1344.76 203.373C1305.92 192.386 1288.88 165.321 1244.84 148.684C1212.33 136.401 1174.94 132.162 1133.72 134.54C1086.71 137.252 1036.19 148.817 992.386 161.494C968.552 168.389 947.477 176.113 930.119 184.508C897.508 200.28 883.66 215.64 857.082 231.608C823.832 251.583 794.205 269.997 747.793 285.381C725.631 292.727 702.859 298.415 675.266 299.536C630.801 301.282 614.013 287.511 560.513 273.398C545.631 269.472 532.096 266.869 469.947 246.428C385.941 218.887 347.564 195.174 308.281 183.591C294.791 179.613 284.895 177.549 278.5 177.731C199.856 179.973 184.316 256.116 75.4595 284.982C2.59103 304.402 -88.0672 289.341 -172.018 271.117" stroke="#512FC9" stroke-opacity="0.2" stroke-width="0.4"/>
<path d="M1979.23 -8.26067C1955.28 19.998 1935.81 47.5666 1905.8 71.2526C1895.72 79.2163 1887.11 85.8048 1880.35 92.1659C1858.56 112.67 1857.42 128.075 1827.37 144.647C1807.16 155.801 1760.9 161.631 1712.38 180.539C1683.75 191.701 1669.24 202.37 1639.04 209.355C1601.36 218.071 1556.09 216.094 1508.51 212.275C1474.8 209.568 1440.68 206.589 1403.22 205.216C1375.34 204.195 1362.57 206.471 1344.72 201.761C1306.09 191.575 1289.08 163.905 1245.27 146.544C1213.2 133.834 1176.08 128.902 1134.68 130.807C1087.65 132.969 1036.72 144.222 992.779 156.904C968.854 163.807 947.736 171.616 930.547 180.164C898.142 196.278 886.006 211.872 859.054 228.266C826.949 247.794 797.399 265.994 749.044 281.627C726.788 288.823 703.884 294.529 676.294 295.801C631.895 297.781 613.906 284.568 560.723 271.33C544.966 267.408 530.469 264.89 469.637 244.895C385.966 217.489 349.967 193.191 309.917 181.217C296.696 177.265 286.854 175.157 280.307 175.275C203.099 176.673 184.995 249.878 75.5784 278.827C3.26858 298.062 -86.5659 284.624 -170.598 268.562" stroke="#512FC9" stroke-opacity="0.2" stroke-width="0.4"/>
<path d="M1977.8 -9.76938C1951.19 17.6831 1930.61 44.6028 1900.7 67.6216C1890.34 75.6013 1881.72 82.1711 1875.18 88.5426C1853.89 109.284 1856.04 124.979 1826.67 141.67C1806.65 153.049 1759.56 157.878 1711.21 177.18C1682.13 188.783 1669.11 199.914 1638.93 207.087C1601.42 216 1555.95 213.282 1508.26 209.003C1474.36 205.961 1440.04 202.675 1402.86 201.934C1374.76 201.374 1362.8 204.58 1344.68 200.148C1306.29 190.749 1289.27 162.493 1245.71 144.405C1214.07 131.272 1177.22 125.645 1135.63 127.073C1088.59 128.689 1037.24 139.627 993.172 152.313C969.157 159.223 947.995 167.118 930.974 175.818C898.776 192.277 888.349 208.1 861.027 224.924C830.057 243.993 800.601 262.001 750.295 277.873C727.95 284.924 704.91 290.642 677.324 292.064C632.991 294.279 613.769 281.673 560.933 269.263C544.292 265.354 528.841 262.91 469.327 243.362C385.991 216.091 352.369 191.212 311.55 178.843C298.601 174.92 288.815 172.767 282.116 172.819C206.352 173.415 185.676 243.641 75.6982 272.67C3.94607 291.721 -85.0635 279.907 -169.18 266.007" stroke="#512FC9" stroke-opacity="0.2" stroke-width="0.4"/>
<path d="M1976.39 -11.2788C1947.11 15.3689 1925.39 41.6312 1895.6 63.99C1884.96 71.9843 1876.32 78.5381 1870 84.92C1849.2 105.902 1854.66 121.887 1825.96 138.693C1806.14 150.301 1758.23 154.141 1710.03 173.819C1680.53 185.862 1668.99 197.457 1638.82 204.818C1601.48 213.929 1555.8 210.467 1508.02 205.731C1473.93 202.351 1439.41 198.771 1402.5 198.652C1374.18 198.56 1363.02 202.685 1344.65 198.535C1306.49 189.912 1289.46 161.087 1246.13 142.266C1214.94 128.714 1178.36 122.389 1136.59 123.339C1089.53 124.41 1037.77 135.032 993.565 147.723C969.458 154.64 948.254 162.621 931.401 171.474C899.41 188.278 890.688 204.323 862.998 221.582C833.152 240.183 803.808 258.017 751.546 274.119C729.113 281.031 705.933 286.756 678.35 288.328C634.085 290.777 613.604 278.82 561.143 267.194C543.613 263.309 527.212 260.93 469.016 241.828C386.015 214.692 354.768 189.237 313.182 176.469C300.503 172.576 290.777 170.379 283.923 170.363C209.611 170.195 186.357 237.402 75.816 266.515C4.6236 285.381 -83.5632 275.19 -167.761 263.451" stroke="#512FC9" stroke-opacity="0.2" stroke-width="0.4"/>
<path d="M1974.97 -12.7882C1943.01 13.0547 1920.16 38.6514 1890.51 60.3598C1879.57 68.3652 1870.93 74.9057 1864.82 81.2967C1844.53 102.522 1853.29 118.8 1825.26 135.715C1805.65 147.556 1757.85 151.511 1708.85 170.459C1678.34 182.26 1668.87 194.999 1638.71 202.55C1601.54 211.857 1555.66 207.652 1507.76 202.459C1473.49 198.742 1438.76 194.877 1402.16 195.369C1373.59 195.752 1363.24 200.785 1344.62 196.924C1306.7 189.06 1289.64 159.685 1246.57 140.128C1215.8 126.16 1179.51 119.134 1137.54 119.605C1090.46 120.134 1038.3 130.436 993.957 143.132C969.761 150.056 948.512 158.125 931.83 167.129C900.047 184.279 893.024 200.544 864.969 218.24C836.237 236.363 807.025 254.045 752.798 270.365C730.283 277.142 706.959 282.869 679.379 284.591C635.179 287.274 613.419 276.006 561.352 265.126C542.926 261.277 525.583 258.952 468.707 240.294C386.039 213.293 357.166 187.267 314.817 174.096C302.405 170.235 292.739 167.993 285.731 167.907C212.875 167.014 187.036 231.164 75.9349 260.36C5.30013 279.041 -82.0618 270.472 -166.342 260.896" stroke="#512FC9" stroke-opacity="0.2" stroke-width="0.4"/>
<path d="M1973.56 -14.2969C1938.93 10.7398 1914.92 35.6639 1885.4 56.7295C1874.17 64.7454 1865.54 71.2748 1859.65 77.6742C1839.87 99.1453 1851.92 115.719 1824.56 132.737C1805.15 144.813 1756.57 147.808 1707.67 167.099C1676.69 179.321 1668.74 192.541 1638.6 200.281C1601.59 209.785 1555.5 204.837 1507.51 199.187C1473.04 195.132 1438.12 190.994 1401.8 192.087C1373.01 192.953 1363.49 198.88 1344.59 195.311C1306.94 188.195 1289.82 158.29 1247 137.988C1216.66 123.61 1180.64 115.883 1138.5 115.872C1091.41 115.86 1038.82 125.842 994.351 138.54C970.061 145.474 948.773 153.629 932.257 162.783C900.684 180.282 895.355 196.76 866.94 214.899C839.311 232.536 810.248 250.083 754.049 266.611C731.454 273.258 707.985 278.983 680.408 280.855C636.273 283.773 613.221 273.225 561.561 263.058C542.235 259.256 523.956 256.972 468.398 238.76C386.064 211.895 359.56 185.301 316.45 171.722C304.305 167.895 294.7 165.61 287.54 165.451C216.144 163.868 187.716 224.926 76.0548 254.204C5.97767 272.7 -80.5605 265.756 -164.922 258.341" stroke="#512FC9" stroke-opacity="0.2" stroke-width="0.4"/>
<path d="M1972.14 -15.8063C1934.85 8.42562 1909.65 32.6673 1880.3 53.0986C1868.77 61.1221 1860.15 67.6453 1854.47 74.0516C1835.21 95.7711 1850.55 112.641 1823.85 129.76C1804.65 142.073 1755.29 144.11 1706.49 163.739C1675.05 176.385 1668.61 190.083 1638.49 198.013C1601.65 207.712 1555.36 202.019 1507.25 195.916C1472.61 191.521 1437.48 187.122 1401.45 188.805C1372.43 190.16 1363.72 196.969 1344.56 193.698C1307.17 187.316 1290 156.899 1247.42 135.849C1217.52 121.064 1181.79 112.633 1139.45 112.139C1092.35 111.589 1039.35 121.247 994.745 133.951C970.364 140.891 949.033 149.134 932.684 158.438C901.321 176.286 897.682 192.971 868.913 211.557C842.374 228.701 813.476 246.131 755.3 262.857C732.627 269.377 709.01 275.097 681.435 277.119C637.369 280.271 613.012 270.473 561.77 260.991C541.54 257.247 522.328 254.994 468.087 237.226C386.089 210.497 361.949 183.341 318.084 169.348C306.204 165.559 296.664 163.23 289.347 162.995C219.413 160.754 188.395 218.689 76.1737 248.049C6.65424 266.359 -79.0591 261.039 -163.505 255.786" stroke="#512FC9" stroke-opacity="0.2" stroke-width="0.4"/>
<path d="M1970.72 -17.315C1930.75 6.11141 1904.37 29.6631 1875.2 49.467C1863.36 57.4953 1854.76 64.0157 1849.29 70.4283C1830.54 92.4003 1849.19 109.567 1823.15 126.783C1804.15 139.336 1754.01 140.416 1705.32 160.379C1673.42 173.453 1668.49 187.623 1638.38 195.745C1601.71 205.637 1555.22 199.2 1507 192.644C1472.17 187.908 1436.84 183.258 1401.09 185.523C1371.84 187.376 1363.96 195.051 1344.53 192.086C1307.41 186.424 1290.18 155.514 1247.86 133.71C1218.38 118.52 1182.93 109.385 1140.41 108.405C1093.28 107.32 1039.87 116.651 995.137 129.36C970.666 136.307 949.296 144.64 933.112 154.093C901.961 172.291 900.002 189.176 870.885 208.214C845.43 224.858 816.711 242.189 756.551 259.103C733.801 265.5 710.034 271.211 682.463 273.383C638.463 276.769 612.795 267.747 561.981 258.922C540.841 255.251 520.7 253.013 467.777 235.693C386.114 209.098 364.337 181.385 319.718 166.973C308.103 163.222 298.626 160.852 291.154 160.539C222.683 157.67 189.075 212.45 76.2915 241.893C7.33075 260.019 -77.5567 256.322 -162.086 253.23" stroke="#512FC9" stroke-opacity="0.2" stroke-width="0.4"/>
<path d="M1969.3 -18.8238C1926.67 3.79723 1899.09 26.6505 1870.1 45.836C1857.96 53.8672 1849.38 60.3876 1844.11 66.8057C1825.89 89.0316 1847.84 106.498 1822.44 123.804C1803.66 136.602 1752.74 136.726 1704.13 157.02C1671.78 170.522 1668.36 185.162 1638.27 193.476C1601.76 203.562 1555.08 196.379 1506.75 189.373C1471.73 184.295 1436.2 179.405 1400.74 182.241C1371.25 184.599 1364.21 193.126 1344.49 190.474C1307.66 185.516 1290.34 154.132 1248.29 131.571C1219.22 115.98 1184.07 106.139 1141.36 104.672C1094.23 103.053 1040.4 112.056 995.53 124.769C970.968 131.724 949.555 140.146 933.538 149.749C902.6 168.297 902.316 185.376 872.855 204.873C848.475 221.009 819.951 238.259 757.802 255.35C734.979 261.626 711.06 267.325 683.492 269.647C639.558 273.267 612.574 265.046 562.189 256.855C540.138 253.269 519.071 251.034 467.468 234.16C386.137 207.7 366.72 179.436 321.351 164.6C310 160.888 300.587 158.478 292.963 158.083C225.949 154.616 189.755 206.213 76.4113 235.738C8.00725 253.678 -76.0564 251.604 -160.667 250.676" stroke="#512FC9" stroke-opacity="0.2" stroke-width="0.4"/>
<path d="M1967.89 -20.3332C1922.58 1.48302 1893.79 23.6303 1865 42.2051C1852.55 50.2349 1843.99 56.7594 1838.93 63.1824C1821.25 85.6643 1846.49 103.431 1821.74 120.827C1803.18 133.871 1751.48 133.041 1702.96 153.659C1670.16 167.595 1668.24 182.701 1638.16 191.208C1601.83 201.486 1554.93 193.558 1506.5 186.101C1471.29 180.681 1435.56 175.56 1400.38 178.958C1370.67 181.829 1364.45 191.193 1344.46 188.861C1307.9 184.596 1290.5 152.754 1248.72 129.432C1220.08 113.444 1185.21 102.896 1142.31 100.939C1095.16 98.7878 1040.93 107.461 995.923 120.178C971.269 127.141 949.82 135.651 933.966 145.404C903.242 164.302 904.621 181.57 874.827 201.531C851.512 217.153 823.198 234.339 759.053 251.596C736.157 257.755 712.084 263.438 684.52 265.91C640.651 269.765 612.352 262.366 562.399 254.787C539.431 251.302 517.444 249.055 467.159 232.626C386.162 206.301 369.1 177.493 322.986 162.225C311.895 158.554 302.549 156.107 294.77 155.628C229.213 151.588 190.436 199.975 76.5291 229.583C8.6858 247.338 -74.554 246.888 -159.247 248.12" stroke="#512FC9" stroke-opacity="0.2" stroke-width="0.4"/>
<path d="M1966.48 -21.8419C1918.5 -0.831178 1888.48 20.6011 1859.89 38.5742C1847.13 46.5984 1838.61 53.1327 1833.76 59.5598C1816.61 82.2998 1845.15 100.369 1821.03 117.849C1802.69 131.142 1750.21 129.359 1701.78 150.3C1668.53 164.67 1668.11 180.239 1638.05 188.939C1601.89 199.409 1554.78 190.735 1506.25 182.829C1470.86 177.065 1434.92 171.724 1400.04 175.675C1370.09 179.068 1364.71 189.254 1344.43 187.249C1308.16 183.662 1290.66 151.382 1249.15 127.293C1220.92 110.91 1186.35 99.6538 1143.27 97.2054C1096.11 94.5253 1041.46 102.866 996.318 115.587C971.574 122.559 950.084 131.159 934.396 141.058C903.887 160.31 906.918 177.757 876.801 198.19C854.543 213.291 826.451 230.43 760.307 247.841C737.337 253.888 713.111 259.552 685.551 262.174C641.748 266.263 612.131 259.706 562.61 252.719C538.724 249.349 515.816 247.075 466.85 231.092C386.188 204.902 371.476 175.556 324.62 159.851C313.794 156.223 304.513 153.739 296.579 153.171C232.473 148.585 191.118 193.737 76.6511 223.427C9.36439 240.999 -73.0527 242.171 -157.826 245.564" stroke="#512FC9" stroke-opacity="0.2" stroke-width="0.4"/>
<path d="M1965.06 -23.3513C1914.41 -3.14607 1883.16 17.5648 1854.79 34.9432C1841.71 42.9584 1833.22 49.5059 1828.58 55.9366C1811.97 78.938 1843.81 97.3104 1820.32 114.872C1802.21 128.415 1748.95 125.68 1700.59 146.94C1666.91 161.749 1667.98 177.777 1637.94 186.671C1601.94 197.331 1554.64 187.91 1505.99 179.557C1470.42 173.449 1434.29 167.896 1399.68 172.393C1369.51 176.314 1364.95 187.305 1344.4 185.637C1308.41 182.714 1290.81 150.013 1249.59 125.154C1221.76 108.378 1187.5 96.4138 1144.22 93.4722C1097.04 90.2649 1041.98 98.271 996.71 110.997C971.875 117.975 950.347 126.666 934.822 136.713C904.53 156.319 909.203 173.938 878.771 194.848C857.561 209.422 829.704 226.533 761.557 244.088C738.518 250.022 714.135 255.666 686.577 258.438C642.842 262.761 611.909 257.064 562.82 250.651C538.014 247.411 514.188 245.097 466.54 229.559C386.212 203.504 373.846 173.625 326.254 157.479C315.687 153.894 306.473 151.375 298.386 150.716C235.723 145.606 191.797 187.499 76.7689 217.272C10.0409 234.658 -71.5524 237.453 -156.409 243.01" stroke="#512FC9" stroke-opacity="0.2" stroke-width="0.4"/>
<path d="M1963.64 -24.8607C1910.32 -5.46026 1877.83 14.5203 1849.69 31.3123C1836.28 39.3143 1827.85 45.8792 1823.41 52.314C1807.35 75.577 1842.48 94.2533 1819.62 111.895C1801.75 125.692 1747.7 122.003 1699.42 143.579C1665.28 158.83 1667.85 175.313 1637.84 184.403C1602 195.253 1554.5 185.085 1505.74 176.285C1469.98 169.832 1433.66 164.075 1399.33 169.11C1368.94 173.568 1365.2 185.349 1344.37 184.025C1308.66 181.755 1290.96 148.648 1250.01 123.015C1222.6 105.848 1188.64 93.1752 1145.17 89.7383C1097.99 86.0058 1042.51 93.6753 997.105 106.406C972.179 113.392 950.613 122.173 935.251 132.368C905.177 152.327 911.476 170.109 880.744 191.506C860.576 205.548 832.966 222.646 762.809 240.334C739.699 246.16 715.16 251.779 687.607 254.701C643.939 259.259 611.696 254.436 563.03 248.583C537.303 245.489 512.561 243.117 466.231 228.025C386.237 202.105 376.212 171.701 327.889 155.104C317.58 151.564 308.433 149.015 300.196 148.26C238.967 142.647 192.477 181.26 76.8888 211.116C10.7195 228.317 -70.0489 232.736 -154.988 240.454" stroke="#512FC9" stroke-opacity="0.2" stroke-width="0.4"/>
<path d="M1962.22 -26.3694C1906.24 -7.77516 1872.5 11.4674 1844.59 27.6814C1830.85 35.6645 1822.47 42.2531 1818.23 48.6907C1802.73 72.218 1841.16 91.2004 1818.91 108.917C1801.28 122.971 1746.45 118.331 1698.23 140.219C1663.67 155.914 1667.72 172.85 1637.72 182.134C1602.05 193.173 1554.36 182.259 1505.49 173.014C1469.55 166.214 1433.04 160.263 1398.97 165.829C1368.36 170.829 1365.45 183.383 1344.34 182.412C1308.91 180.781 1291.09 147.286 1250.44 120.875C1223.43 103.32 1189.78 89.9393 1146.13 86.0044C1098.92 81.7489 1043.03 89.0796 997.495 101.815C972.479 108.808 950.876 117.681 935.678 128.022C905.822 148.337 913.734 166.272 882.715 188.164C863.579 201.67 836.228 218.77 764.058 236.58C740.879 242.3 716.185 247.893 688.634 250.966C645.031 255.757 611.484 251.824 563.238 246.515C536.59 243.583 510.931 241.137 465.92 226.491C386.26 200.706 378.567 169.786 329.522 152.73C319.472 149.235 310.389 146.658 302.001 145.804C242.2 139.71 193.156 175.022 77.0066 204.961C11.3939 221.977 -68.5496 228.019 -153.572 237.898" stroke="#512FC9" stroke-opacity="0.2" stroke-width="0.4"/>
<path d="M1960.81 -27.8781C1902.15 -10.0887 1867.15 8.40682 1839.48 24.0504C1825.41 32.0107 1817.09 38.6284 1813.05 45.0681C1798.12 68.8611 1839.84 88.1496 1818.21 105.94C1800.81 120.253 1745.21 114.661 1697.06 136.86C1662.05 153 1667.6 170.386 1637.61 179.866C1602.1 191.094 1554.21 179.431 1505.24 169.742C1469.11 162.595 1432.42 156.456 1398.62 162.546C1367.8 168.098 1365.69 181.41 1344.31 180.8C1309.16 179.797 1291.22 145.927 1250.88 118.737C1224.25 100.795 1190.91 86.7049 1147.08 82.2712C1099.86 77.494 1043.56 84.4853 997.889 97.2241C972.783 104.225 951.143 113.19 936.106 123.678C906.472 144.348 915.977 162.424 884.688 184.823C866.577 197.788 839.499 214.905 765.312 232.825C742.063 238.442 717.21 244.008 689.663 247.229C646.128 252.255 611.284 249.225 563.448 244.447C535.88 241.694 509.304 239.158 465.612 224.958C386.287 199.308 380.922 167.878 331.156 150.357C321.366 146.909 312.346 144.307 303.812 143.348C245.425 136.792 193.838 168.784 77.1285 198.805C12.0735 215.637 -67.0473 223.302 -152.151 235.343" stroke="#512FC9" stroke-opacity="0.2" stroke-width="0.4"/>
<path d="M1959.39 -29.3868C1898.06 -12.4028 1861.8 5.33863 1834.38 20.4202C1819.97 28.3512 1811.72 35.0031 1807.88 41.4455C1793.52 65.505 1838.53 85.1016 1817.51 102.962C1800.35 117.536 1743.96 110.993 1695.88 133.5C1660.45 150.089 1667.47 167.922 1637.5 177.598C1602.15 189.014 1554.08 176.603 1504.99 166.471C1468.68 158.976 1431.82 152.655 1398.27 159.264C1367.25 165.374 1365.94 179.426 1344.28 179.187C1309.4 178.802 1291.35 144.571 1251.31 116.598C1225.07 98.2703 1192.05 83.4718 1148.04 78.5381C1100.79 73.2412 1044.09 79.8903 998.284 92.634C973.085 99.6427 951.41 108.698 936.535 119.332C907.122 140.359 918.201 158.565 886.66 181.481C869.566 193.901 842.772 211.05 766.563 229.071C743.246 234.585 718.236 240.121 690.691 243.493C647.223 248.754 611.092 246.638 563.659 242.379C535.168 239.822 507.678 237.179 465.303 223.423C386.312 197.909 383.267 165.979 332.79 147.983C323.255 144.583 314.3 141.958 305.619 140.892C248.635 133.889 194.519 162.547 77.2463 192.649C12.75 209.296 -65.5449 218.586 -150.733 232.788" stroke="#512FC9" stroke-opacity="0.2" stroke-width="0.4"/>
<path d="M1957.98 -30.8963C1893.98 -14.7178 1856.45 2.26206 1829.28 16.7893C1814.51 24.6848 1806.35 31.3784 1802.7 37.8229C1788.92 62.1488 1837.22 82.0556 1816.8 99.9842C1799.91 114.822 1742.72 107.327 1694.7 130.14C1658.83 147.179 1667.33 165.455 1637.39 175.33C1602.2 186.932 1553.94 173.774 1504.73 163.199C1468.25 155.357 1431.21 148.86 1397.91 155.982C1366.7 162.656 1366.17 177.436 1344.24 177.575C1309.63 177.795 1291.46 143.217 1251.74 114.459C1225.9 95.7467 1193.19 80.2415 1148.99 74.8042C1101.73 68.9898 1044.61 75.2953 998.675 88.0432C973.385 95.0595 951.676 104.208 936.961 114.988C907.771 136.371 920.399 154.691 888.631 178.14C872.548 190.009 846.045 207.207 767.812 225.318C744.428 230.731 719.259 236.235 691.719 239.757C648.316 245.251 610.907 244.062 563.867 240.311C534.456 237.967 506.049 235.2 464.991 221.89C386.333 196.512 385.601 164.089 334.422 145.609C325.144 142.258 316.251 139.616 307.426 138.436C251.83 131.004 195.197 156.31 77.3641 186.494C13.4255 202.955 -64.0456 213.869 -149.314 230.233" stroke="#512FC9" stroke-opacity="0.2" stroke-width="0.4"/>
<path d="M1956.55 -32.4057C1889.89 -17.0319 1851.08 -0.823533 1824.18 13.1576C1809.06 21.0135 1800.98 27.753 1797.52 34.199C1784.32 58.794 1835.92 79.0111 1816.1 97.0057C1799.46 112.11 1741.48 103.663 1693.52 126.779C1657.23 144.272 1667.2 162.989 1637.28 173.061C1602.25 184.85 1553.8 170.943 1504.48 159.927C1467.81 151.735 1430.62 145.07 1397.56 152.699C1366.16 159.945 1366.4 175.435 1344.21 175.962C1309.85 176.778 1291.57 141.865 1252.17 112.32C1226.71 93.2246 1194.33 77.0113 1149.95 71.0703C1102.66 64.7398 1045.14 70.6996 999.069 83.4517C973.687 90.4763 951.945 99.7157 937.388 110.643C908.424 132.383 922.573 150.802 890.602 174.797C875.523 186.115 849.326 203.375 769.064 221.563C745.61 226.879 720.285 232.348 692.747 236.021C649.411 241.749 610.735 241.495 564.076 238.244C533.747 236.13 504.42 233.221 464.681 220.357C386.359 195.113 387.93 162.209 336.056 143.234C327.033 139.935 318.2 137.278 309.234 135.98C255.014 128.131 195.879 150.071 77.484 180.338C14.1041 196.615 -62.5432 209.151 -147.896 227.678" stroke="#512FC9" stroke-opacity="0.2" stroke-width="0.4"/>
<path d="M1955.14 -33.9144C1885.8 -19.3462 1845.73 -3.91468 1819.07 9.52672C1803.6 17.3339 1795.61 24.1276 1792.35 30.5764C1779.75 55.4399 1834.63 75.9672 1815.4 94.0286C1799.02 109.401 1740.25 100.002 1692.34 123.42C1655.63 141.368 1667.07 160.523 1637.18 170.793C1602.31 182.767 1553.67 168.112 1504.23 156.655C1467.37 148.114 1430.03 141.284 1397.2 149.416C1365.62 157.241 1366.64 173.426 1344.18 174.349C1310.07 175.754 1291.67 140.517 1252.6 110.181C1227.52 90.7038 1195.45 73.7838 1150.9 67.3371C1103.59 60.4919 1045.67 66.1045 999.462 78.8615C973.99 85.8931 952.213 95.2257 937.816 106.297C909.08 128.396 924.714 146.896 892.574 171.456C878.491 182.218 852.608 199.552 770.315 217.81C746.794 223.028 721.31 228.462 693.776 232.284C650.506 238.248 610.575 238.938 564.287 236.175C533.042 234.311 502.793 231.241 464.372 218.822C386.383 193.713 390.25 160.339 337.691 140.861C328.921 137.611 320.147 134.945 311.042 133.524C258.179 125.273 196.558 143.833 77.6039 174.183C14.7816 190.275 -61.0418 204.435 -146.476 225.122" stroke="#512FC9" stroke-opacity="0.2" stroke-width="0.4"/>
<path d="M1953.72 -35.4238C1881.72 -21.6603 1840.36 -7.01488 1813.98 5.8958C1798.14 13.6466 1790.25 20.503 1787.17 26.9538C1775.18 52.0865 1833.34 72.9254 1814.69 91.0515C1798.6 106.693 1739.02 96.3421 1691.16 120.059C1654.03 138.466 1666.91 158.02 1637.06 168.525C1602.33 180.644 1553.55 165.221 1503.97 153.383C1466.97 144.447 1429.45 137.502 1396.85 146.135C1365.1 154.542 1366.86 171.408 1344.15 172.738C1310.27 174.72 1291.76 139.169 1253.03 108.042C1228.32 88.1837 1196.59 70.5577 1151.86 63.6039C1104.52 56.2454 1046.19 61.5095 999.856 74.2707C974.293 81.3092 952.484 90.735 938.245 101.953C909.736 124.41 926.817 142.968 894.546 168.115C881.453 178.317 855.895 195.743 771.568 214.055C747.977 219.179 722.336 224.576 694.805 228.548C651.601 234.746 610.431 236.389 564.498 234.107C532.338 232.51 501.166 229.261 464.064 217.289C386.411 192.316 392.561 158.48 339.325 138.487C330.81 135.288 322.089 132.618 312.85 131.068C261.328 122.426 197.239 137.595 77.7227 168.028C15.4592 183.935 -59.5395 199.717 -145.056 222.567" stroke="#512FC9" stroke-opacity="0.2" stroke-width="0.4"/>
<path d="M1952.31 -36.9325C1877.63 -23.9752 1834.99 -10.1234 1808.88 2.26486C1792.66 9.95242 1784.88 16.8769 1782 23.3312C1770.61 48.7324 1832.06 69.8843 1813.99 88.0738C1798.17 103.986 1737.79 92.6834 1689.99 116.7C1652.43 135.566 1666.79 155.56 1636.95 166.258C1602.38 178.569 1553.41 162.402 1503.73 150.111C1466.53 140.835 1428.88 133.724 1396.5 142.852C1364.58 151.848 1367.07 169.383 1344.12 171.125C1310.46 173.679 1291.85 137.822 1253.47 105.902C1229.13 85.6636 1197.72 67.333 1152.81 59.8701C1105.45 51.9996 1046.72 56.9138 1000.25 69.6798C974.596 76.7261 952.782 86.2611 938.672 97.6081C910.449 120.456 928.872 139.015 896.519 164.773C884.407 174.415 859.184 191.942 772.819 210.301C749.159 215.331 723.362 220.689 695.834 224.812C652.696 231.244 610.299 233.847 564.707 232.039C531.64 230.729 499.538 227.282 463.755 215.755C386.434 190.916 394.858 156.633 340.96 136.113C332.696 132.967 324.029 130.296 314.659 128.612C264.457 119.588 197.92 131.356 77.8436 161.872C16.1378 177.594 -58.0381 195 -143.638 220.011" stroke="#512FC9" stroke-opacity="0.2" stroke-width="0.4"/>
<path d="M1950.89 -38.4419C1873.54 -26.2901 1829.63 -13.2396 1803.78 -1.36538C1787.19 6.24983 1779.52 13.2516 1776.82 19.7079C1766.06 45.3783 1830.79 66.844 1813.27 85.096C1797.75 101.281 1736.56 89.0274 1688.81 113.34C1650.84 132.667 1666.65 153.099 1636.84 163.987C1602.43 176.495 1553.27 159.582 1503.47 146.84C1466.09 137.222 1428.33 129.948 1396.15 139.57C1364.07 149.16 1367.29 167.349 1344.09 169.513C1310.65 172.631 1291.92 136.478 1253.89 103.763C1229.92 83.1442 1198.84 64.1604 1153.77 56.1362C1106.36 47.8094 1047.25 52.3188 1000.64 65.0897C974.898 72.1429 953.045 81.7663 939.1 93.2621C911.091 116.46 930.869 135.032 898.489 161.43C887.351 170.511 862.474 188.153 774.07 206.547C750.342 211.485 724.386 216.804 696.861 221.076C653.79 227.742 610.181 231.312 564.915 229.972C530.945 228.966 497.909 225.303 463.443 214.222C386.458 189.519 397.142 154.799 342.592 133.739C334.579 130.645 325.964 127.981 316.465 126.156C267.563 116.76 198.599 125.118 77.9614 155.716C16.8132 171.253 -56.5378 190.283 -142.22 217.456" stroke="#512FC9" stroke-opacity="0.2" stroke-width="0.4"/>
<path d="M1949.47 -39.9506C1869.46 -28.6036 1824.25 -16.3635 1798.67 -4.99701C1781.71 2.53752 1774.17 9.62618 1771.64 16.0853C1761.52 42.0229 1829.52 63.8036 1812.57 82.1182C1797.35 98.5777 1735.39 85.4201 1687.63 109.98C1649.29 129.81 1666.53 150.639 1636.73 161.719C1602.5 174.42 1553.13 156.764 1503.22 143.568C1465.67 133.61 1427.77 126.175 1395.79 136.288C1363.57 146.476 1367.48 165.308 1344.06 167.9C1310.82 171.578 1291.91 135.181 1254.33 101.624C1230.66 80.6547 1199.96 60.9141 1154.72 52.4037C1107.29 43.5406 1047.77 47.7231 1001.04 60.4982C975.199 67.5597 953.308 77.2707 939.528 88.9175C911.733 112.464 932.795 131.015 900.461 158.089C890.29 166.607 865.768 184.376 775.321 202.793C751.523 207.639 725.411 212.917 697.89 217.34C654.885 224.24 610.081 228.783 565.126 227.904C530.254 227.222 496.282 223.324 463.134 212.688C386.484 188.119 399.415 152.981 344.226 131.365C336.465 128.325 327.894 125.671 318.276 123.7C270.648 113.94 199.28 118.88 78.0803 149.561C17.4908 164.913 -55.0354 185.566 -140.799 214.9" stroke="#512FC9" stroke-opacity="0.2" stroke-width="0.4"/>
<path d="M1948.06 -41.46C1808.73 -23.6977 1772.22 -3.43613 1766.47 12.4621C1756.98 38.6667 1828.26 60.7639 1811.87 79.1411C1796.95 95.8761 1734.12 81.7176 1686.45 106.619C1647.67 126.877 1666.4 148.179 1636.63 159.452C1576.85 182.076 1469.35 108.355 1395.43 133.006C1363.08 143.796 1367.67 163.259 1344.02 166.288C1290.37 173.157 1274.01 72.1074 1155.68 48.6698C1081.98 34.0738 978.184 51.4508 939.956 84.5722C912.376 108.469 934.629 126.954 902.433 154.747C893.218 162.703 869.065 180.608 776.573 199.04C685.637 217.162 559.872 242.225 462.825 211.155C386.509 186.721 401.672 151.176 345.862 128.991C284.912 104.764 157.139 103.555 -139.38 212.346" stroke="#512FC9" stroke-opacity="0.2" stroke-width="0.4"/>
<path d="M1947.12 -43.0168C1809.48 -26.0689 1771.5 -6.58711 1764.53 8.97303C1753.17 34.2831 1821.77 56.0652 1804.74 74.0008C1793.54 85.8069 1759.12 82.4799 1723.57 88.4925C1708.7 91.0078 1693.69 95.1764 1679.99 102.531C1641.96 122.827 1659.82 144.069 1630.89 155.736C1607.6 165.127 1577.12 159.93 1543.54 151.223C1492.77 138.058 1436.53 116.89 1390.58 131.459C1358.42 141.656 1362.22 160.698 1338.39 163.657C1333.97 164.216 1329.76 164.035 1325.69 163.249C1280.28 154.475 1256.26 70.5848 1149.48 51.0209C1113.68 44.463 1071.39 45.4549 1033.6 51.5335C992.299 58.1749 955.579 71.2908 935.97 88.3033C908.444 112.193 929.83 130.748 898.023 157.848C894.753 160.635 889.701 164.59 880.552 169.233C863.216 178.032 832.276 188.782 773.43 199.549C684.359 215.732 561.51 237.919 464.98 206.647C452.938 202.757 443.139 198.6 434.942 194.275C392.37 171.712 394.466 144.2 347.608 126.162C285.825 102.381 157.916 101.774 -135.06 208.753" stroke="#512FC9" stroke-opacity="0.2" stroke-width="0.4"/>
<path d="M1946.18 -44.5735C1810.23 -28.4395 1770.83 -9.77079 1762.6 5.4833C1749.42 29.8662 1815.26 51.3645 1797.61 68.859C1785.75 80.6255 1751.52 77.6157 1716.63 83.9288C1701.81 86.6096 1687.05 91.0286 1673.54 98.4435C1636.34 118.849 1653.24 139.968 1625.16 152.021C1602.29 161.832 1572.57 157.622 1539.07 149.405C1488.71 137.052 1433.08 115.649 1385.73 129.912C1353.79 139.535 1356.74 158.087 1332.76 161.025C1328.4 161.558 1324.23 161.387 1320.13 160.642C1273.65 152.168 1248.38 71.064 1143.29 53.3719C1107.25 47.3051 1065.28 48.8875 1028.54 55.0052C987.556 61.8295 951.433 75.1408 931.985 92.0351C904.514 115.916 925.021 134.536 893.612 160.949C890.297 163.738 885.241 167.645 876.119 172.117C858.476 180.766 827.849 190.508 770.289 200.058C683.085 214.303 563.152 233.614 467.134 202.139C455.236 198.259 445.477 194.141 437.277 189.848C395.131 167.774 396.16 140.77 349.356 123.333C286.726 100 158.695 99.9925 -130.74 205.159" stroke="#512FC9" stroke-opacity="0.2" stroke-width="0.4"/>
<path d="M1945.25 -46.1295C1810.97 -30.81 1770.18 -12.9802 1760.66 1.99428C1745.74 25.4256 1808.71 46.6603 1790.48 63.7187C1777.95 75.4462 1743.92 72.7599 1709.69 79.3658C1694.93 82.2135 1680.39 86.8683 1667.08 94.3549C1630.68 114.831 1646.66 135.88 1619.43 148.305C1596.99 158.547 1568.03 155.313 1534.61 147.588C1484.66 136.043 1429.64 114.415 1380.88 128.366C1349.17 137.434 1351.27 155.503 1327.12 158.393C1322.83 158.907 1318.68 158.742 1314.58 158.037C1267.01 149.868 1240.43 71.5899 1137.1 55.723C1100.8 50.1507 1059.18 52.3279 1023.49 58.4782C982.811 65.4869 947.284 78.9916 928 95.7662C900.583 119.641 920.201 138.321 889.202 164.049C885.837 166.843 880.778 170.7 871.684 175.002C853.727 183.5 823.456 192.338 767.146 200.568C681.855 213.032 564.79 229.308 469.29 197.632C457.533 193.762 447.82 189.678 439.611 185.42C397.93 163.802 397.844 137.347 351.104 120.504C287.616 97.6255 159.472 98.2126 -126.42 201.565" stroke="#512FC9" stroke-opacity="0.2" stroke-width="0.4"/>
<path d="M1944.31 -47.6862C1811.71 -33.1812 1769.57 -16.2139 1758.72 -1.49545C1742.14 20.9662 1802.14 41.9526 1783.36 58.5784C1770.14 70.2669 1736.32 67.9124 1702.74 74.8021C1688.05 77.8209 1673.73 82.706 1660.63 90.2669C1625.02 110.81 1640.08 131.801 1613.7 144.591C1591.68 155.267 1563.49 153.003 1530.14 145.769C1480.61 135.03 1426.23 113.188 1376.02 126.82C1344.58 135.353 1345.8 152.919 1321.49 155.763C1317.27 156.256 1313.14 156.097 1309.02 155.431C1260.36 147.574 1232.45 72.1596 1130.9 58.0748C1094.33 53.0019 1053.07 55.7738 1018.43 61.9499C978.061 69.147 943.136 82.8409 924.015 99.498C896.653 123.365 915.371 142.101 884.793 167.151C881.38 169.947 876.309 173.751 867.25 177.886C848.975 186.232 819.033 194.1 764.005 201.076C680.586 211.655 566.43 225.003 471.444 193.125C459.829 189.265 450.164 185.214 441.946 180.993C400.731 159.828 399.519 133.932 352.853 117.675C288.495 95.257 160.25 96.4319 -122.1 197.972" stroke="#512FC9" stroke-opacity="0.2" stroke-width="0.4"/>
<path d="M1943.37 -49.2429C1812.46 -35.5518 1769.02 -19.4637 1756.78 -4.98449C1738.62 16.4978 1795.56 37.2393 1776.23 53.4373C1762.33 65.0876 1728.71 63.0725 1695.81 70.2391C1681.16 73.429 1667.07 78.5422 1654.17 86.179C1619.35 106.786 1633.5 127.734 1607.97 140.876C1586.36 151.996 1558.95 150.689 1525.67 143.952C1476.58 134.013 1422.85 111.973 1371.17 125.273C1340.01 133.291 1340.34 150.337 1315.86 153.131C1311.7 153.605 1307.61 153.453 1303.46 152.825C1253.71 145.287 1224.42 72.7786 1124.7 60.4251C1087.85 55.8593 1046.96 59.228 1013.38 65.4222C973.31 72.8106 938.987 86.691 920.031 103.229C892.72 127.09 910.529 145.875 880.383 170.252C876.921 173.051 871.837 176.8 862.816 180.772C844.213 188.962 814.608 195.858 760.861 201.586C679.312 210.277 568.182 220.542 473.6 188.616C462.14 184.749 452.509 180.749 444.28 176.566C403.535 155.852 401.185 130.523 354.6 114.845C289.364 92.8934 161.028 94.6512 -117.779 194.379" stroke="#512FC9" stroke-opacity="0.2" stroke-width="0.4"/>
<path d="M1942.43 -50.7996C1813.2 -37.923 1768.5 -22.7253 1754.85 -8.47421C1735.19 12.028 1788.95 32.5198 1769.1 48.297C1754.49 59.9069 1721.11 58.2424 1688.87 65.6747C1674.27 69.0399 1660.42 74.3785 1647.71 82.0904C1613.68 102.759 1626.93 123.678 1602.23 137.161C1581.05 148.733 1554.42 148.374 1521.2 142.134C1472.53 132.993 1419.49 110.768 1366.31 123.726C1335.46 131.247 1334.87 147.755 1310.23 150.499C1306.15 150.954 1302.06 150.81 1297.9 150.219C1247.05 143.006 1216.36 73.4464 1118.52 62.7762C1081.35 58.7231 1040.86 62.6893 1008.32 68.8952C968.555 76.4778 934.84 90.5403 916.045 106.96C888.789 130.813 905.679 149.645 875.971 173.353C872.461 176.154 867.361 179.847 858.381 183.656C839.446 191.691 810.177 197.618 757.719 202.095C678.032 208.898 569.84 216.212 475.754 184.109C464.438 180.249 454.853 176.284 446.614 172.137C406.342 151.875 402.842 127.122 356.347 112.017C290.223 90.5368 161.805 92.8705 -113.46 190.785" stroke="#512FC9" stroke-opacity="0.2" stroke-width="0.4"/>
<path d="M1941.5 -52.3563C1813.94 -40.2943 1768.03 -25.9903 1752.91 -11.9626C1731.85 7.56517 1782.32 27.7947 1761.97 43.1566C1746.65 54.7228 1713.5 53.4199 1681.93 61.1117C1667.38 64.6549 1653.75 70.2133 1641.26 78.0018C1608.01 98.7294 1620.35 119.632 1596.5 133.445C1575.74 145.477 1549.89 146.057 1516.73 140.317C1468.51 131.968 1416.15 109.577 1361.47 122.18C1330.92 129.22 1329.41 145.174 1304.59 147.869C1300.58 148.304 1296.53 148.167 1292.34 147.613C1240.39 140.732 1208.25 74.1656 1112.32 65.1273C1074.83 61.5958 1034.75 66.1581 1003.26 72.3676C963.798 80.1476 930.692 94.3903 912.06 110.691C884.858 134.538 900.818 153.411 871.56 176.454C868.002 179.258 862.882 182.891 853.946 186.542C834.674 194.416 805.747 199.376 754.577 202.605C676.748 207.517 571.499 211.882 477.909 179.602C466.736 175.748 457.199 171.818 448.948 167.711C409.149 147.895 404.492 123.727 358.094 109.188C291.073 88.1864 162.583 91.0891 -109.139 187.191" stroke="#512FC9" stroke-opacity="0.2" stroke-width="0.4"/>
<path d="M1940.56 -53.913C1814.69 -42.6648 1767.6 -29.2547 1750.96 -15.453C1728.58 3.11624 1775.67 23.0634 1754.85 38.0156C1738.8 49.5365 1705.9 48.6051 1674.98 56.5473C1660.5 60.2714 1647.09 66.0468 1634.8 73.9131C1602.33 94.6957 1613.78 115.598 1590.77 129.73C1570.43 142.23 1545.36 143.737 1512.26 138.498C1464.49 130.938 1412.82 108.4 1356.61 120.633C1326.39 127.209 1323.94 142.594 1298.96 145.237C1295.01 145.655 1290.98 145.525 1286.78 145.008C1233.72 138.465 1200.12 74.9356 1106.12 67.4783C1068.3 64.4769 1028.65 69.6346 998.207 75.8392C959.039 83.8224 926.543 98.2397 908.074 114.422C880.927 138.261 895.946 157.171 867.15 179.554C863.539 182.36 858.753 186.395 849.511 189.427C829.109 196.117 801.311 201.131 751.434 203.114C675.455 206.135 573.155 207.556 480.063 175.094C469.036 171.249 459.544 167.353 451.283 163.283C411.961 143.912 406.133 120.34 359.841 106.359C291.912 85.8437 163.359 89.3084 -104.82 183.598" stroke="#512FC9" stroke-opacity="0.2" stroke-width="0.4"/>
<path d="M1939.63 -55.4697C1815.44 -45.036 1767.23 -32.5107 1749.03 -18.942C1725.39 -1.3132 1769.01 18.3244 1747.71 32.8753C1730.92 44.3461 1698.31 43.7987 1668.05 51.9836C1653.61 55.8914 1640.43 61.8803 1628.35 69.8252C1596.65 90.66 1607.22 111.574 1585.04 126.015C1565.11 138.991 1540.84 141.413 1507.79 136.681C1460.47 129.902 1409.52 107.238 1351.76 119.088C1321.88 125.216 1318.48 140.016 1293.33 142.605C1289.45 143.005 1285.44 142.883 1281.23 142.402C1227.06 136.205 1191.94 75.7579 1099.94 69.8294C1061.74 67.3685 1022.55 73.1181 993.153 79.3116C954.28 87.5013 922.396 102.09 904.09 118.153C876.997 141.985 891.069 160.928 862.741 182.656C859.079 185.464 854.278 189.471 845.077 192.311C824.285 198.731 796.871 202.886 748.293 203.624C674.161 204.749 574.812 203.231 482.219 170.587C471.336 166.749 461.891 162.887 453.618 158.855C414.776 139.929 407.77 116.958 361.589 103.53C292.743 83.5101 164.139 87.5278 -100.499 180.005" stroke="#512FC9" stroke-opacity="0.2" stroke-width="0.4"/>
<path d="M1938.68 -57.0264C1816.18 -47.4066 1766.89 -35.7521 1747.09 -22.4317C1722.25 -5.71901 1762.33 13.5778 1740.58 27.7335C1723.05 39.1515 1690.71 39.0013 1661.11 47.4199C1646.72 51.5141 1633.77 57.7124 1621.89 65.7373C1590.98 86.6214 1600.67 107.559 1579.31 122.3C1559.81 135.76 1536.32 139.087 1503.32 134.863C1456.45 128.862 1406.23 106.096 1346.9 117.541C1317.37 123.237 1313.01 137.438 1287.7 139.974C1283.89 140.355 1279.9 140.243 1275.66 139.796C1220.38 133.952 1183.74 76.6329 1093.74 72.1804C1055.18 70.2732 1016.45 76.6099 988.097 82.7832C949.517 91.1844 918.248 105.939 900.105 121.885C873.066 145.71 886.18 164.678 858.33 185.756C854.618 188.566 849.792 192.539 840.644 195.196C819.465 201.348 792.427 204.637 745.15 204.133C672.856 203.36 576.466 198.909 484.373 166.079C473.632 162.251 464.238 158.421 455.951 154.428C417.594 135.944 409.399 113.586 363.338 100.701C293.566 81.1834 164.916 85.7471 -96.1794 176.411" stroke="#512FC9" stroke-opacity="0.2" stroke-width="0.4"/>
<path d="M1937.75 -58.5832C1816.93 -49.7778 1766.6 -38.9747 1745.15 -25.9215C1719.16 -10.0977 1755.64 8.82417 1733.46 22.5939C1715.17 33.9513 1683.11 34.2115 1654.17 42.8569C1639.83 47.1402 1627.11 53.5431 1615.44 61.648C1585.3 82.5808 1594.13 103.555 1573.59 118.585C1554.52 132.537 1531.81 136.757 1498.85 133.044C1452.45 127.815 1402.96 104.973 1342.04 115.994C1312.88 121.272 1307.55 134.863 1282.07 137.342C1278.32 137.707 1274.35 137.603 1270.11 137.19C1213.71 131.706 1175.52 77.5608 1087.55 74.5315C1048.61 73.1911 1010.35 80.1094 983.041 86.2555C944.752 94.8731 914.1 109.79 896.119 125.616C869.135 149.434 881.282 168.425 853.92 188.857C850.154 191.669 845.298 195.599 836.209 198.081C814.65 203.969 787.979 206.387 742.008 204.642C671.547 201.968 578.12 194.588 486.529 161.571C475.932 157.751 466.584 153.954 458.286 150.001C420.413 131.956 411.022 110.218 365.085 97.8717C294.38 78.8664 165.693 83.9657 -91.8582 172.817" stroke="#512FC9" stroke-opacity="0.2" stroke-width="0.4"/>
<path d="M1936.82 -60.1399C1817.67 -52.1483 1766.33 -42.1744 1743.21 -29.4098C1716.12 -14.4472 1748.93 4.06294 1726.33 17.4536C1707.27 28.7456 1675.51 29.4294 1647.23 38.2939C1632.94 42.7706 1620.43 49.3738 1608.98 57.5607C1579.62 78.5367 1587.58 99.5585 1567.85 114.87C1549.23 129.322 1527.29 134.424 1494.38 131.228C1448.44 126.763 1399.7 103.872 1337.2 114.447C1308.39 119.322 1302.08 132.29 1276.43 134.711C1272.76 135.057 1268.8 134.964 1264.55 134.584C1207.02 129.468 1167.28 78.5422 1081.35 76.8826C1042.03 76.1237 1004.25 83.6179 977.984 89.7285C939.988 98.568 909.951 113.639 892.134 129.347C865.203 153.158 876.375 172.168 849.508 191.959C845.691 194.771 840.796 198.65 831.773 200.966C809.841 206.596 783.528 208.133 738.864 205.152C670.231 200.571 579.77 190.271 488.682 157.064C478.229 153.253 468.93 149.488 460.621 145.574C423.232 127.966 412.639 106.861 366.831 95.0435C295.185 76.5591 166.471 82.1857 -87.54 169.225" stroke="#512FC9" stroke-opacity="0.2" stroke-width="0.4"/>
<path d="M1935.88 -61.6966C1818.41 -54.5196 1766.1 -45.3476 1741.28 -32.8995C1713.11 -18.7674 1742.22 -0.705972 1719.2 12.3125C1699.36 23.5336 1667.92 24.6563 1640.28 33.7295C1626.06 38.4024 1613.77 45.2031 1602.53 53.4728C1573.93 74.4905 1581.06 95.5715 1562.12 111.155C1543.94 126.112 1522.78 132.087 1489.92 129.41C1444.44 125.705 1396.45 102.792 1332.34 112.901C1303.91 117.385 1296.62 129.717 1270.81 132.08C1267.2 132.41 1263.27 132.325 1258.99 131.978C1200.35 127.237 1159.02 79.5738 1075.16 79.2337C1035.44 79.0723 998.158 87.134 972.929 93.2009C935.222 102.268 905.804 117.489 888.149 133.079C861.273 156.882 871.462 175.905 845.099 195.06C841.227 197.873 835.937 201.104 827.339 203.85C805.913 210.696 779.075 209.875 735.723 205.661C668.915 199.167 581.422 185.955 490.839 152.556C480.528 148.755 471.28 145.02 462.956 141.147C426.057 123.975 414.253 103.509 368.579 92.2132C295.986 74.2616 167.248 80.405 -83.2188 165.632" stroke="#512FC9" stroke-opacity="0.2" stroke-width="0.4"/>
<path d="M1934.94 -63.2533C1819.16 -56.8894 1761.31 -52.2193 1739.34 -36.3893C1715.16 -18.9573 1735.49 -5.48323 1712.07 7.17147C1691.45 18.3161 1659.12 18.3898 1633.35 29.1664C1619.81 34.8257 1607.11 41.0303 1596.07 49.3835C1568.24 70.4401 1574.54 91.5906 1556.39 107.439C1538.67 122.91 1518.27 129.745 1485.45 127.592C1440.44 124.64 1393.22 101.736 1327.49 111.355C1299.43 115.461 1291.16 127.145 1265.17 129.448C1261.63 129.761 1257.72 129.685 1253.43 129.372C1193.67 125.013 1150.75 80.6575 1068.97 81.584C1028.84 82.0389 992.065 90.6585 967.872 96.6725C930.454 105.975 901.654 121.339 884.164 136.81C857.34 160.605 866.538 179.638 840.687 198.16C836.76 200.973 831.438 204.13 822.905 206.736C801.099 213.392 774.618 211.612 732.579 206.169C667.591 197.757 583.069 181.641 492.992 148.049C482.823 144.257 473.627 140.553 465.288 136.719C428.883 119.98 415.861 100.163 370.325 89.3842C296.776 71.9738 168.026 78.6236 -78.8996 162.038" stroke="#512FC9" stroke-opacity="0.2" stroke-width="0.4"/>
<path d="M1934 -64.8093C1819.91 -59.2613 1761.37 -55.4802 1737.4 -39.8783C1711.77 -23.183 1728.76 -10.2667 1704.95 2.03113C1683.53 13.0902 1651.49 13.6432 1626.41 24.6027C1612.97 30.4762 1600.44 36.8582 1589.62 45.2962C1562.54 66.3883 1568.04 87.6168 1550.66 103.725C1533.41 119.714 1513.77 127.398 1480.99 125.774C1436.44 123.567 1389.99 100.707 1322.63 109.809C1294.96 113.549 1285.7 124.577 1259.54 126.817C1256.07 127.114 1252.19 127.049 1247.87 126.767C1186.98 122.796 1142.47 81.792 1062.77 83.9358C1022.24 85.0257 985.978 94.1914 962.818 100.146C925.691 109.689 897.508 125.19 880.18 140.541C853.411 164.33 861.61 183.366 836.28 201.261C832.297 204.075 826.937 207.155 818.472 209.621C796.283 216.084 770.163 213.345 729.44 206.679C666.267 196.339 584.717 177.331 495.149 143.542C485.122 139.759 475.977 136.085 467.625 132.292C431.713 115.984 417.467 96.8256 372.076 86.5553C297.566 69.6965 168.805 76.8429 -74.5774 158.444" stroke="#512FC9" stroke-opacity="0.2" stroke-width="0.4"/>
<path d="M1933.07 -66.366C1820.65 -61.6319 1761.49 -58.6597 1735.47 -43.3673C1708.36 -27.4344 1722.01 -15.0593 1697.82 -3.1092C1675.6 7.85802 1643.88 8.9153 1619.47 20.039C1606.12 26.1219 1593.77 32.684 1583.15 41.2076C1556.85 62.3345 1561.54 83.6485 1544.93 100.01C1528.16 116.524 1509.25 125.047 1476.52 123.957C1432.45 122.489 1386.77 99.7046 1317.78 108.262C1290.48 111.647 1280.23 122.01 1253.9 124.186C1250.5 124.466 1246.64 124.411 1242.31 124.161C1180.3 120.586 1134.18 82.9752 1056.58 86.2875C1015.64 88.0341 979.892 97.7326 957.762 103.617C920.927 113.412 893.359 129.039 876.193 144.272C849.48 168.054 856.671 187.09 831.868 204.362C827.828 207.175 822.433 210.175 814.036 212.506C791.461 218.769 765.703 215.073 726.296 207.19C664.94 194.914 586.361 173.022 497.303 139.034C487.419 135.262 478.326 131.616 469.958 127.864C434.543 111.985 419.066 93.4944 373.822 83.7257C298.345 67.4317 169.581 75.0622 -70.2582 154.851" stroke="#512FC9" stroke-opacity="0.2" stroke-width="0.4"/>
<path d="M1932.13 -67.9234C1821.39 -64.0031 1761.65 -61.7564 1733.53 -46.8571C1704.95 -31.7101 1715.27 -19.8588 1690.69 -8.25023C1667.67 2.61822 1636.29 4.2076 1612.53 15.4753C1599.27 21.7641 1587.1 28.5091 1576.7 37.119C1551.15 58.2779 1555.06 79.6844 1539.19 96.2948C1522.92 113.339 1504.76 122.69 1472.05 122.138C1428.46 121.404 1383.56 98.7315 1312.93 106.715C1286.02 109.756 1274.78 119.444 1248.28 121.553C1244.94 121.818 1241.09 121.774 1236.76 121.556C1173.62 118.382 1125.9 84.205 1050.38 88.6379C1009.03 91.0648 973.811 101.281 952.707 107.09C916.167 117.144 889.213 132.889 872.209 148.004C845.549 171.778 851.727 190.809 827.458 207.463C823.361 210.275 817.928 213.195 809.602 215.39C786.637 221.446 761.246 216.794 723.154 207.698C663.615 193.48 588.004 168.717 499.458 134.526C489.717 130.765 480.677 127.147 472.293 123.436C437.376 107.984 420.664 90.1696 375.57 80.8968C299.123 65.1773 170.36 73.2809 -65.938 151.257" stroke="#512FC9" stroke-opacity="0.2" stroke-width="0.4"/>
<path d="M1931.2 -69.4794C1822.14 -66.3736 1761.84 -64.7703 1731.59 -50.3468C1701.54 -36.0095 1708.52 -24.6646 1683.56 -13.3906C1659.74 -2.62925 1630.03 0.894553 1605.58 10.9123C1591.66 16.6195 1580.42 24.3335 1570.24 33.0311C1545.44 54.2185 1548.59 75.7244 1533.46 92.5804C1517.7 110.158 1500.24 120.328 1467.58 120.321C1424.47 120.311 1380.35 97.7903 1308.08 105.169C1281.55 107.876 1269.31 116.882 1242.65 118.922C1239.38 119.172 1235.56 119.136 1231.2 118.95C1166.94 116.186 1117.62 85.482 1044.19 90.9889C1002.43 94.1205 967.733 104.841 947.651 110.562C911.41 120.887 885.064 136.739 868.225 151.735C841.618 175.502 846.776 194.524 823.049 210.563C818.892 213.374 813.423 216.211 805.168 218.275C781.809 224.117 756.791 218.511 720.012 208.208C662.293 192.038 589.645 164.414 501.614 130.019C492.014 126.268 483.027 122.678 474.628 119.009C440.214 103.981 422.26 86.8523 377.318 78.0679C299.895 62.9355 171.137 71.5009 -61.6178 147.664" stroke="#512FC9" stroke-opacity="0.2" stroke-width="0.4"/>
<path d="M1930.25 -71.0361C1822.88 -68.7449 1764.97 -63.8 1729.66 -53.8365C1695.27 -44.1318 1701.77 -29.478 1676.44 -18.5316C1651.79 -7.88505 1622.48 -3.83817 1598.65 6.3493C1584.79 12.2743 1573.75 20.1573 1563.79 28.9425C1539.73 50.1577 1542.13 71.768 1527.73 88.8653C1512.49 106.981 1495.74 117.961 1463.11 118.503C1420.47 119.211 1377.15 96.8812 1303.22 103.622C1277.09 106.005 1263.86 114.321 1237.01 116.291C1233.81 116.526 1230.01 116.501 1225.64 116.344C1160.26 113.996 1109.36 86.8009 1038 93.34C995.839 97.2033 961.659 108.408 942.595 114.034C906.656 124.641 880.917 140.589 864.24 155.467C837.687 179.227 841.817 198.234 818.638 213.664C814.421 216.472 808.916 219.225 800.735 221.16C776.977 226.78 752.338 220.222 716.87 208.717C660.976 190.587 591.283 160.114 503.769 125.512C494.31 121.772 485.379 118.207 476.962 114.582C443.052 99.9752 423.853 83.5414 379.065 75.2389C300.662 60.7055 171.916 69.7202 -57.2966 144.07" stroke="#512FC9" stroke-opacity="0.2" stroke-width="0.4"/>
<path d="M1929.32 -72.5928C1823.63 -71.1147 1764.8 -66.7834 1727.72 -57.3255C1692.28 -48.2844 1695.01 -34.2983 1669.3 -23.672C1643.84 -13.1485 1614.92 -8.56534 1591.71 1.78491C1577.92 7.93106 1567.07 15.9782 1557.33 24.8545C1534.02 46.0934 1535.69 67.8136 1522 85.1496C1507.28 103.806 1491.23 115.587 1458.65 116.684C1416.47 118.104 1373.95 96.0055 1298.36 102.076C1272.62 104.143 1258.39 111.762 1231.38 113.659C1228.25 113.879 1224.46 113.865 1220.08 113.738C1153.57 111.815 1101.11 88.1621 1031.8 95.6904C989.254 100.314 955.591 111.983 937.54 117.506C901.912 128.408 876.77 144.438 860.255 159.197C833.756 182.95 836.852 201.938 814.227 216.765C809.95 219.569 804.409 222.235 796.3 224.045C772.142 229.434 747.89 221.927 713.728 209.226C659.665 189.127 592.92 155.816 505.924 121.004C496.608 117.276 487.732 113.736 479.298 110.154C445.892 95.9665 425.447 80.2374 380.814 72.4093C301.428 58.488 172.694 67.9388 -52.9764 140.476" stroke="#512FC9" stroke-opacity="0.2" stroke-width="0.4"/>
<path d="M1928.38 -74.1496C1824.38 -73.4867 1764.61 -69.743 1725.78 -60.8153C1689.28 -52.4196 1689.34 -37.7269 1662.17 -28.813C1634.81 -19.8289 1607.37 -13.2876 1584.77 -2.77811C1571.07 3.59341 1560.4 11.8006 1550.87 20.7659C1528.3 42.0284 1529.25 63.8599 1516.27 81.4352C1502.09 100.635 1486.73 113.209 1454.18 114.867C1412.48 116.99 1370.75 95.1666 1293.51 100.53C1268.15 102.29 1252.94 109.207 1225.74 111.028C1222.69 111.232 1218.93 111.229 1214.52 111.132C1146.9 109.638 1092.88 89.5623 1025.61 98.0414C982.681 103.454 948.245 113.98 932.484 120.978C899.827 135.478 872.621 148.288 856.27 162.929C829.825 186.674 831.881 205.639 809.818 219.867C805.477 222.664 799.9 225.244 791.865 226.929C767.304 232.08 743.448 223.628 710.584 209.735C658.364 187.659 594.552 151.522 508.078 116.497C498.901 112.78 490.083 109.265 481.631 105.727C448.734 91.9565 427.037 76.9382 382.561 69.5804C302.188 56.2837 173.47 66.1581 -48.6572 136.883" stroke="#512FC9" stroke-opacity="0.2" stroke-width="0.4"/>
<path d="M1927.45 -75.707C1825.12 -75.8579 1764.41 -72.684 1723.85 -64.305C1686.27 -56.5416 1682.46 -42.655 1655.04 -33.954C1626.95 -25.0339 1599.83 -18.0051 1577.82 -7.34251C1564.21 -0.741447 1553.72 7.62083 1544.42 16.6773C1522.57 37.9614 1522.83 59.9069 1510.55 77.7194C1496.92 97.4641 1482.22 110.825 1449.71 113.049C1408.48 115.87 1367.54 94.3646 1288.66 98.9826C1263.7 100.444 1247.47 106.653 1220.12 108.396C1217.12 108.586 1213.38 108.594 1208.96 108.526C1140.21 107.469 1084.66 90.9987 1019.42 100.393C976.123 106.627 942.226 117.672 927.427 124.451C895.156 139.233 868.472 152.137 852.285 166.66C825.894 190.398 826.904 209.334 805.406 222.967C801.004 225.759 795.389 228.251 787.431 229.814C762.463 234.716 739.011 225.324 707.442 210.245C657.074 186.185 596.181 147.229 510.233 111.989C501.197 108.284 492.435 104.791 483.965 101.299C451.578 87.9423 428.626 73.6467 384.308 66.7514C302.948 54.0933 174.248 64.3767 -44.338 133.289" stroke="#512FC9" stroke-opacity="0.2" stroke-width="0.4"/>
<path d="M1926.51 -77.263C1825.86 -78.2284 1764.22 -75.6061 1721.91 -67.794C1683.23 -60.6504 1675.59 -47.6006 1647.92 -39.0944C1619.09 -30.2313 1592.3 -22.7169 1570.88 -11.9055C1557.35 -5.07284 1547.03 3.44108 1537.96 12.5901C1516.85 33.8922 1516.41 55.9546 1504.82 74.005C1491.77 94.295 1477.7 108.435 1445.24 111.231C1404.48 114.742 1364.33 93.6029 1283.81 97.4363C1259.23 98.607 1242.02 104.104 1214.48 105.765C1211.56 105.941 1207.84 105.959 1203.41 105.92C1133.54 105.306 1076.48 92.4684 1013.22 102.744C969.586 109.833 936.23 121.387 922.372 127.924C890.468 142.972 864.326 155.988 848.3 170.392C821.964 194.123 821.922 213.026 800.998 226.069C796.527 228.854 790.882 231.255 782.996 232.699C757.623 237.345 734.585 227.017 704.3 210.754C655.798 184.707 597.81 142.942 512.388 107.482C503.493 103.789 494.788 100.319 486.3 96.8722C454.426 83.9267 430.218 70.3615 386.056 63.9225C303.706 51.9154 175.026 62.5967 -40.0157 129.696" stroke="#512FC9" stroke-opacity="0.2" stroke-width="0.4"/>
<path d="M1925.57 -78.8197C1826.61 -80.599 1764 -78.5122 1719.97 -71.2831C1680.18 -64.7495 1668.72 -52.5636 1640.79 -44.2347C1611.24 -35.4203 1584.77 -27.4253 1563.95 -16.4692C1550.51 -9.40003 1540.35 -0.739346 1531.51 8.50144C1511.11 29.8224 1510.01 52.001 1499.08 70.2899C1486.63 91.1267 1473.19 106.039 1440.77 109.413C1400.46 113.609 1361.12 92.8823 1278.95 95.89C1254.75 96.7769 1236.56 101.558 1208.85 103.134C1206 103.295 1202.3 103.325 1197.85 103.315C1126.87 103.15 1068.34 93.9688 1007.03 105.096C963.074 113.073 930.259 125.124 917.316 131.396C885.757 146.688 860.176 159.838 844.315 174.123C818.033 197.847 816.935 216.713 796.586 229.17C792.05 231.946 786.373 234.258 778.562 235.584C752.781 239.962 730.165 228.709 701.158 211.264C654.534 183.223 599.433 138.656 514.543 102.974C505.788 99.2935 497.143 95.8455 488.634 92.4441C457.273 79.9091 431.809 67.0818 387.803 61.0943C304.464 49.7535 175.804 60.816 -35.6966 126.103" stroke="#512FC9" stroke-opacity="0.2" stroke-width="0.4"/>
<path d="M1924.64 -80.3764C1827.35 -82.9702 1763.77 -81.4058 1718.04 -74.7728C1677.13 -68.8402 1661.22 -58.4906 1633.66 -49.3758C1604.06 -39.5827 1577.25 -32.1302 1557.01 -21.0329C1543.67 -13.7238 1533.66 -4.9219 1525.05 4.4128C1505.37 25.7511 1503.62 48.0445 1493.35 66.5748C1481.5 87.9562 1468.67 103.637 1436.3 107.596C1396.45 112.468 1357.9 92.2041 1274.1 94.343C1250.27 94.9517 1231.1 99.0146 1203.21 100.502C1200.43 100.65 1196.75 100.691 1192.28 100.709C1120.18 101 1060.22 95.4963 1000.84 107.446C956.59 116.35 924.316 128.882 912.261 134.868C881.017 150.38 856.029 163.687 840.33 177.854C814.102 201.57 811.942 220.395 792.177 232.27C787.572 235.037 781.864 237.257 774.128 238.469C747.937 242.569 725.755 230.399 698.016 211.773C653.285 181.738 601.054 134.374 516.698 98.4664C508.082 94.7993 499.497 91.3708 490.969 88.0167C460.124 75.8879 433.401 63.8063 389.55 58.2633C305.221 47.6042 176.582 59.0354 -31.3774 122.508" stroke="#512FC9" stroke-opacity="0.2" stroke-width="0.4"/>
<path d="M1923.7 -81.9331C1828.09 -85.3407 1763.54 -84.2855 1716.1 -78.2625C1674.05 -72.9232 1654.46 -63.3458 1626.54 -54.5168C1596.1 -44.8927 1569.75 -36.8316 1550.07 -25.5973C1536.83 -18.044 1526.97 -9.10372 1518.6 0.324875C1499.64 21.6785 1497.23 44.0873 1487.62 62.8597C1476.39 84.7864 1464.14 101.229 1431.83 105.778C1392.43 111.324 1354.66 91.5711 1269.25 92.7967C1245.79 93.1341 1225.64 96.4743 1197.59 97.8703C1194.87 98.0053 1191.22 98.0567 1186.73 98.1033C1113.51 98.8567 1052.15 97.0468 994.644 109.797C950.14 119.664 918.401 132.661 907.205 138.34C876.241 154.043 851.881 167.537 836.345 181.585C810.17 205.294 806.945 224.072 787.766 235.371C783.09 238.125 777.356 240.255 769.693 241.354C743.096 245.165 721.354 232.089 694.874 212.282C652.051 180.251 602.672 130.095 518.854 93.9591C510.377 90.3052 501.853 86.8947 493.302 83.5893C462.975 71.8632 434.993 60.5385 391.299 55.435C305.98 45.4688 177.359 57.2547 -27.0562 118.916" stroke="#512FC9" stroke-opacity="0.2" stroke-width="0.4"/>
<path d="M1922.76 -83.4898C1828.85 -87.7113 1763.3 -87.1548 1714.16 -81.7509C1670.95 -76.9993 1647.71 -68.2065 1619.41 -59.6571C1588.13 -50.2097 1562.25 -41.531 1543.13 -30.1603C1530.01 -22.3615 1520.28 -13.2855 1512.14 -3.76373C1493.89 17.6059 1490.86 40.1274 1481.89 59.1453C1471.28 81.6153 1459.61 98.817 1427.36 103.96C1388.41 110.172 1351.42 90.9834 1264.4 91.2512C1241.3 91.3215 1220.18 93.9396 1191.95 95.2397C1189.31 95.3614 1185.67 95.4233 1181.17 95.497C1106.85 96.7199 1044.13 98.6188 988.451 112.148C943.729 123.016 912.518 136.46 902.148 141.812C871.422 157.673 847.734 171.388 832.36 185.316C806.239 209.019 801.945 227.744 783.355 238.472C778.606 241.213 772.85 243.251 765.258 244.239C738.254 247.751 716.963 233.78 691.73 212.791C650.831 178.768 604.286 125.82 521.007 89.4517C512.672 85.8111 504.208 82.418 495.637 79.162C465.828 67.8373 436.587 57.2756 393.046 52.6054C306.74 43.35 178.138 55.4733 -22.736 115.322" stroke="#512FC9" stroke-opacity="0.2" stroke-width="0.4"/>
<path d="M1921.82 -85.0465C1829.59 -90.0832 1763.03 -90.0164 1712.22 -85.2413C1667.84 -81.0692 1640.95 -73.0707 1612.28 -64.7975C1580.17 -55.5344 1554.75 -46.2289 1536.18 -34.7233C1523.19 -26.6748 1513.58 -17.4695 1505.69 -7.85166C1488.13 13.5312 1484.49 36.1647 1476.16 55.4295C1466.21 78.4407 1455.08 96.3992 1422.89 102.143C1384.37 109.016 1348.16 90.4429 1259.54 89.7042C1236.8 89.5143 1214.72 91.4084 1186.32 92.6076C1183.74 92.7161 1180.13 92.7898 1175.62 92.8914C1100.17 94.5872 1036.16 100.206 982.255 114.499C937.358 126.404 907.278 140.879 897.092 145.285C864.597 159.339 843.584 175.237 828.373 189.048C802.308 212.743 796.941 231.41 778.944 241.572C774.121 244.297 768.343 246.245 760.823 247.123C733.411 250.325 712.576 235.472 688.588 213.301C649.623 177.284 605.894 121.548 523.162 84.9437C514.964 81.3169 506.565 77.9399 497.972 74.7346C468.682 63.8084 438.183 54.0182 394.793 49.7765C307.5 41.2438 178.913 53.6919 -18.4167 111.729" stroke="#512FC9" stroke-opacity="0.2" stroke-width="0.4"/>
<path d="M1920.89 -86.6032C1830.33 -92.4538 1762.76 -92.869 1710.29 -88.7303C1664.72 -85.1363 1634.2 -77.9398 1605.15 -69.9385C1572.21 -60.8654 1547.28 -50.9248 1529.25 -39.2871C1516.39 -30.986 1506.88 -21.6527 1499.23 -11.9403C1482.37 9.45715 1478.13 32.1985 1470.42 51.7151C1461.13 75.2646 1450.53 93.9772 1418.42 100.324C1380.33 107.857 1344.88 89.9518 1254.69 88.1579C1232.3 87.7121 1209.27 88.882 1180.68 89.9762C1178.19 90.0729 1174.59 90.1564 1170.05 90.2857C1093.51 92.4615 1028.24 101.805 976.063 116.851C931.038 129.833 901.284 144.523 892.037 148.757C860.117 163.374 839.436 179.086 824.389 192.779C798.378 216.466 791.935 235.072 774.534 244.674C769.632 247.379 763.839 249.237 756.389 250.008C728.574 252.887 708.197 237.168 685.445 213.81C648.425 175.806 607.417 117.365 525.317 80.4356C517.198 76.813 508.853 73.4339 500.305 70.3079C471.539 59.7762 439.782 50.7649 396.54 46.9476C308.265 39.1536 179.692 51.9119 -14.0956 108.136" stroke="#512FC9" stroke-opacity="0.2" stroke-width="0.4"/>
<path d="M1919.95 -88.1599C1831.08 -94.8243 1762.48 -95.716 1708.35 -92.22C1661.58 -89.1984 1627.45 -82.813 1598.02 -75.0788C1564.25 -66.2039 1539.8 -55.62 1522.31 -43.8507C1509.58 -35.2937 1500.18 -25.8366 1492.78 -16.0282C1476.61 5.38245 1471.78 28.2281 1464.69 48C1456.06 72.0865 1445.98 91.5496 1413.96 98.5068C1376.28 106.692 1341.58 89.5101 1249.83 86.6116C1227.79 85.9147 1203.8 86.3619 1175.06 87.3448C1172.62 87.4283 1169.04 87.5298 1164.49 87.6801C1086.85 90.4394 1020.38 103.412 969.87 119.202C924.772 133.298 895.306 148.169 886.981 152.229C855.726 167.473 835.289 182.936 820.405 196.51C794.447 220.191 786.927 238.728 770.124 247.775C765.14 250.458 759.337 252.227 751.955 252.893C723.739 255.439 703.887 238.84 682.303 214.319C647.339 174.29 609.057 113.06 527.472 75.9296C519.456 72.286 511.168 68.9315 502.641 65.8799C474.425 55.7035 441.383 47.5179 398.287 44.1186C309.034 37.0787 180.47 50.1312 -9.77637 104.542" stroke="#512FC9" stroke-opacity="0.2" stroke-width="0.4"/>
<path d="M1919.01 -89.716C1669.74 -111.098 1563.97 -82.4854 1515.37 -48.4145C1442.16 2.90547 1479.42 80.1094 1409.49 96.6885C1363.55 107.581 1322.62 80.1184 1169.43 84.7134C1167.05 84.7844 1163.51 84.8908 1158.94 85.0737C1007.54 91.1364 897.391 147.609 881.925 155.702C781.067 208.484 791.526 252.396 747.52 255.778C667.769 261.908 659.23 115.706 504.974 61.4532C419.021 31.2212 270.121 23.3131 -5.45618 100.949" stroke="#512FC9" stroke-opacity="0.2" stroke-width="0.4"/>
</g>
</g>
</svg>
