<svg width="40" height="40" viewBox="0 0 40 40" fill="none" xmlns="http://www.w3.org/2000/svg">
<path d="M10.625 14.6875C11.4879 14.6875 12.1875 13.9879 12.1875 13.125C12.1875 12.2621 11.4879 11.5625 10.625 11.5625C9.76205 11.5625 9.0625 12.2621 9.0625 13.125C9.0625 13.9879 9.76205 14.6875 10.625 14.6875Z" fill="#512FC9"/>
<path d="M18.4375 13.125C18.4375 13.9879 17.7379 14.6875 16.875 14.6875C16.0121 14.6875 15.3125 13.9879 15.3125 13.125C15.3125 12.2621 16.0121 11.5625 16.875 11.5625C17.7379 11.5625 18.4375 12.2621 18.4375 13.125Z" fill="#512FC9"/>
<path fill-rule="evenodd" clip-rule="evenodd" d="M3.75 8.75C3.75 7.36929 4.86929 6.25 6.25 6.25H33.75C35.1307 6.25 36.25 7.36929 36.25 8.75V31.25C36.25 32.6307 35.1307 33.75 33.75 33.75H6.25C4.86929 33.75 3.75 32.6307 3.75 31.25V8.75ZM33.75 8.75H6.25V31.25H33.75V8.75Z" fill="#512FC9"/>
</svg>
