<svg width="66" height="66" viewBox="0 0 66 66" fill="none" xmlns="http://www.w3.org/2000/svg">
<path opacity="0.9" d="M63.1509 27.2439L63.1473 28.1177V28.1265L63.1417 30.2395L33.9013 13.6786L24.5072 8.35534L22.3657 7.14314L22.3747 4.14575L24.5236 5.36155L28.6534 7.70178L30.0378 6.64894L30.0634 6.66326L33.6368 8.67942L33.7463 8.7421L37.7355 10.991L37.7502 11.0233L38.9104 13.5103L39.5177 13.8559V13.8523L38.4379 11.4817C38.4215 11.444 38.427 11.4154 38.4469 11.4082C38.4526 11.4047 38.4597 11.4047 38.469 11.4082C38.4725 11.4082 38.478 11.4118 38.4818 11.4136L41.5643 13.1612L42.8559 15.7467L63.1545 27.2439H63.1509Z" fill="#C9D7DD"/>
<path opacity="0.9" d="M33.8958 13.6786L33.8246 38.578L22.5936 32.2126C22.4259 32.1177 22.2891 31.885 22.2891 31.6952L22.3602 7.14307L33.8976 13.6786H33.8958Z" fill="#EDF1F3"/>
<path opacity="0.9" d="M63.1324 30.2394L63.0667 53.0259L63.0612 54.804C63.0612 54.8666 63.0467 54.9186 63.0192 54.9543C63.0064 54.9724 62.99 54.9866 62.9718 54.9974C62.9172 55.0295 62.8406 55.0242 62.7566 54.9759L33.8208 38.5761V38.5709L33.8263 36.4472L33.892 13.6768H33.8955L63.1324 30.2375V30.2394Z" fill="white"/>
<path opacity="0.9" d="M63.1597 24.805V25.1201L63.1543 27.2438L42.8557 15.7467L41.5642 13.1629L38.4833 11.4153C38.4833 11.4153 38.4742 11.4099 38.4688 11.4099C38.4595 11.4064 38.4541 11.4064 38.4467 11.4099C38.4287 11.4171 38.423 11.4475 38.4396 11.4815L39.5194 13.854H39.5158L38.9102 13.5085L37.7792 11.0393L37.75 11.0232L33.7462 8.74202L33.6366 8.67934L30.0796 6.65245L30.0633 6.66498L28.6549 7.7035L24.5234 5.36325L22.3765 4.14746L22.3838 1.69619C22.3838 1.58517 22.4313 1.51355 22.5041 1.49207C22.5553 1.47595 22.6208 1.48669 22.6903 1.52609L24.5325 2.56998L44.543 13.9113H44.5466L62.857 24.2911C63.0267 24.3879 63.1635 24.6188 63.1616 24.8086L63.1597 24.805Z" fill="#6E17FF"/>
<g opacity="0.7">
<path opacity="0.7" d="M63.1597 24.805V25.1201L63.1543 27.2438L42.8557 15.7467L41.5642 13.1629L38.4833 11.4153C38.4833 11.4153 38.4742 11.4099 38.4688 11.4099C38.4595 11.4064 38.4541 11.4064 38.4467 11.4099C38.4287 11.4171 38.423 11.4475 38.4396 11.4815L39.5194 13.854H39.5158L38.9102 13.5085L37.7792 11.0393L37.75 11.0232L33.7462 8.74202L33.6366 8.67934L30.0796 6.65245L30.0633 6.66498L28.6549 7.7035L24.5234 5.36325L22.3765 4.14746L22.3838 1.69619C22.3838 1.58517 22.4313 1.51355 22.5041 1.49207C22.5553 1.47595 22.6208 1.48669 22.6903 1.52609L24.5325 2.56998L44.543 13.9113H44.5466L62.857 24.2911C63.0267 24.3879 63.1635 24.6188 63.1616 24.8086L63.1597 24.805Z" fill="url(#paint0_linear_1771_3973)"/>
</g>
<path opacity="0.9" d="M30.3188 19.7038L30.2603 19.6733V19.6697L30.3188 19.7038Z" fill="#7808FF"/>
<g opacity="0.9">
<path opacity="0.9" d="M23.6956 3.20915C23.9126 3.3327 24.0877 3.62993 24.0877 3.87524C24.0877 4.12054 23.9107 4.21723 23.6937 4.09548C23.4766 3.97372 23.3016 3.6747 23.3032 3.43118C23.3051 3.18767 23.4802 3.08739 23.6972 3.21094L23.6956 3.20915Z" fill="white"/>
<path opacity="0.9" d="M24.7989 3.82878C25.0159 3.95233 25.191 4.24956 25.191 4.49486C25.191 4.74016 25.014 4.83687 24.797 4.7151C24.5799 4.59335 24.4049 4.29432 24.4068 4.05081C24.4084 3.80729 24.5837 3.70702 24.8008 3.83057L24.7989 3.82878Z" fill="white"/>
<path opacity="0.9" d="M25.9371 4.51629C26.1543 4.63984 26.3294 4.93706 26.3294 5.18236C26.3294 5.42767 26.1524 5.52437 25.9354 5.4026C25.7183 5.28085 25.543 4.98183 25.5449 4.73831C25.5468 4.4948 25.7219 4.39452 25.9389 4.51807L25.9371 4.51629Z" fill="white"/>
</g>
<path opacity="0.9" d="M40.446 13.0967C40.7342 13.2596 40.9659 13.6553 40.964 13.9794C40.964 14.3035 40.7287 14.4342 40.4424 14.2713C40.1561 14.1083 39.9226 13.7144 39.9243 13.3903C39.9243 13.0662 40.1578 12.9355 40.446 13.0984V13.0967Z" fill="#7808FF"/>
<path opacity="0.9" d="M59.6522 25.9493C59.8 26.0335 59.9186 26.2359 59.9186 26.4023L59.9148 27.5806C59.9148 27.747 59.7945 27.815 59.6467 27.7309L27.6428 9.59262C27.4951 9.50847 27.3765 9.30613 27.3765 9.13961L27.38 7.96143C27.38 7.79491 27.5005 7.72688 27.6483 7.81103L59.6522 25.9493Z" fill="white"/>
<path opacity="0.9" d="M58.9246 25.9351C58.9246 25.9351 58.93 25.9404 58.9317 25.9439L59.0394 26.381L59.0467 26.3898L59.3969 26.5886C59.3969 26.5886 59.4061 26.6029 59.4006 26.6047L59.1179 26.6763V26.6835L59.2218 27.1186C59.2218 27.1186 59.2199 27.1276 59.2144 27.1257C59.2144 27.1257 59.2128 27.1241 59.2109 27.1222L58.93 26.7301L58.9208 26.7246L58.638 26.7964C58.638 26.7964 58.6363 26.7964 58.6345 26.7964C58.6307 26.7945 58.6271 26.7874 58.629 26.7819L58.7384 26.4687V26.4578L58.4539 26.0657C58.4539 26.0657 58.452 26.0497 58.4575 26.0533L58.8076 26.2519H58.815L58.9246 25.9368C58.9246 25.9368 58.9281 25.9332 58.93 25.9351H58.9246Z" fill="#6E17FF"/>
<g opacity="0.9">
<path opacity="0.9" d="M62.2003 27.6556V27.7397L60.978 27.0468V26.9626L62.2003 27.6556Z" fill="#7808FF"/>
<path opacity="0.9" d="M62.2003 28.0386V28.1247L60.978 27.4318V27.3457L62.2003 28.0386Z" fill="#7808FF"/>
<path opacity="0.9" d="M62.2003 28.4236V28.5078L60.978 27.8168V27.7307L62.2003 28.4236Z" fill="#7808FF"/>
<path opacity="0.9" d="M62.2003 28.8086V28.8928L60.978 28.1999V28.1157L62.2003 28.8086Z" fill="#7808FF"/>
</g>
<g opacity="0.9">
<path opacity="0.9" d="M23.3596 5.66053C23.376 5.66949 23.3924 5.68562 23.4052 5.70531C23.4363 5.75006 23.4398 5.80558 23.4142 5.82349L23.1151 6.05088L24.0729 6.59342C24.113 6.6149 24.1439 6.67042 24.1439 6.71517C24.1439 6.75995 24.1111 6.77785 24.0729 6.75457L23.126 6.21741L23.4106 6.72771C23.4363 6.77426 23.4344 6.82439 23.4052 6.83873C23.3907 6.8441 23.3741 6.8423 23.3577 6.83335C23.3395 6.82261 23.3195 6.80111 23.3048 6.77605L22.9144 6.07773L22.909 6.06698C22.8999 6.04908 22.8945 6.03298 22.8926 6.01864C22.8926 6.00792 22.8926 5.99717 22.8926 5.9882L22.8964 5.97567L22.9035 5.96493L22.9073 5.96136L23.3048 5.65696C23.3195 5.64622 23.3395 5.648 23.3596 5.66053Z" fill="white"/>
<path opacity="0.9" d="M22.8911 6.02222C22.8911 6.02222 22.8928 6.03657 22.8966 6.04377C22.9001 6.05274 22.9039 6.06172 22.9094 6.07071C22.9001 6.05274 22.8947 6.03657 22.8928 6.02222H22.8911Z" fill="white"/>
</g>
<g opacity="0.9">
<path opacity="0.9" d="M25.5849 6.89421C25.6051 6.90495 25.625 6.92645 25.6397 6.9533L26.0356 7.70711L26.0392 7.71608L26.0465 7.73577L26.0501 7.75367C26.052 7.7662 26.052 7.77695 26.0501 7.78411L26.0465 7.79664L26.0411 7.80739L26.0337 7.81455L25.6343 8.07597C25.6196 8.08493 25.6015 8.08313 25.5814 8.07238C25.5631 8.06165 25.5467 8.04553 25.5339 8.02404C25.5048 7.9775 25.5029 7.92557 25.5304 7.90766L25.8167 7.72145L24.87 7.18428C24.8299 7.161 24.7988 7.10729 24.7988 7.06251C24.7988 7.01776 24.8299 6.99985 24.87 7.02313L25.8257 7.56567L25.5304 7.00164C25.5048 6.9533 25.5102 6.90495 25.5394 6.89242C25.5522 6.88705 25.5686 6.89062 25.5849 6.89958V6.89421Z" fill="white"/>
<path opacity="0.9" d="M26.0445 7.79492L26.0426 7.79845L26.0391 7.8055L26.0445 7.79492Z" fill="white"/>
</g>
<path opacity="0.9" d="M22.8471 15.9956L22.8945 16.069L22.858 16.0959L22.8105 16.0242L22.8471 15.9956Z" fill="#7808FF"/>
<path opacity="0.9" d="M33.7605 9.53889C34.0359 9.69467 34.2586 10.0725 34.2567 10.3822C34.2549 10.692 34.0323 10.8173 33.7569 10.6616L30.8146 8.99457C30.5392 8.83879 30.3167 8.46099 30.3184 8.15122C30.3184 7.84145 30.5428 7.71612 30.8182 7.87189L33.7605 9.53889Z" fill="#6E17FF"/>
<path opacity="0.9" d="M44.5412 13.9078L24.5308 2.56823L22.6884 1.52434C22.6173 1.48495 22.5535 1.47421 22.5024 1.49032L24.6347 0.591465C24.6895 0.566397 24.7624 0.571769 24.8409 0.618323L65.0076 23.3816C65.1756 23.4782 65.3122 23.7093 65.3122 23.8991L65.3051 26.3378H65.3032L63.1526 27.2438L63.1581 25.122V24.8051C63.1598 24.6153 63.0231 24.3844 62.8533 24.2876L44.543 13.9096" fill="#562ED0"/>
<path d="M65.2015 29.3597L65.1303 53.9242C65.1303 54.021 65.0938 54.0871 65.0373 54.1176H65.0354L65.0172 54.1247L62.9195 55.0093C62.9195 55.0093 62.9304 54.9986 62.934 54.9931C62.9596 54.9574 62.976 54.9054 62.976 54.8428V54.8302C62.976 54.8947 62.9596 54.9448 62.934 54.9807C62.9212 54.9986 62.9031 55.0147 62.8866 55.0236L62.9195 55.0093C62.9086 55.02 62.8994 55.029 62.8866 55.0345C62.832 55.0666 62.7554 55.0611 62.6714 55.0129L33.7356 38.6151L22.5082 32.2514C22.3405 32.1546 22.2036 31.9237 22.2036 31.734L22.2748 7.18188L33.8122 13.7174L63.049 30.2782V30.2656L63.0599 30.2604L65.2031 29.3578L65.2015 29.3597Z" fill="#FDFEFE"/>
<path opacity="0.9" d="M65.2866 29.3388L65.2154 53.9034C65.2154 54.0002 65.1789 54.0663 65.1224 54.0968H65.1206L65.1042 54.1039L62.9717 55.003C62.9899 54.9939 63.0065 54.9778 63.0191 54.9599C63.0466 54.924 63.0611 54.8722 63.0611 54.8094L63.0666 53.0315L63.1323 30.2448L63.1415 30.2396L65.2866 29.3372V29.3388Z" fill="#EDF1F3"/>
<path opacity="0.8" d="M65.2869 29.3316L65.2158 53.8962C65.2158 53.9929 65.1792 54.0591 65.1228 54.0895H65.1209L65.1026 54.0966L63.005 54.9812C63.005 54.9812 63.0159 54.9705 63.0194 54.965C63.0451 54.9294 63.0614 54.8773 63.0614 54.8147V54.8021C63.0614 54.8666 63.0451 54.9168 63.0194 54.9527C63.0066 54.9705 62.9886 54.9867 62.972 54.9955L63.005 54.9812C62.994 54.9919 62.9848 55.0009 62.972 55.0064C62.9174 55.0385 62.8408 55.0331 62.7568 54.9848L33.821 38.587L22.5936 32.2233C22.4259 32.1266 22.2891 31.8957 22.2891 31.7059L22.3602 7.15381L33.8976 13.6893L63.1345 30.2501V30.2376L63.1454 30.2323L65.2886 29.3297L65.2869 29.3316Z" fill="url(#paint1_linear_1771_3973)"/>
<path opacity="0.9" d="M63.1525 27.2439L63.1323 30.2448L65.2867 29.3388L65.3066 26.3379L63.1525 27.2439Z" fill="#ABC1C6"/>
<g opacity="0.9">
<path opacity="0.9" d="M41.5369 25.8972C41.6536 25.9635 41.7504 26.1264 41.7485 26.2591C41.7466 26.3915 41.6517 26.4453 41.535 26.3789L35.6906 23.0664C35.5739 23.0002 35.4771 22.8372 35.479 22.7047C35.4809 22.5722 35.5758 22.5185 35.6925 22.5848L41.5369 25.8972Z" fill="#EDF1F3"/>
<path opacity="0.9" d="M48.2642 24.5635C48.3809 24.6296 48.4777 24.7927 48.4758 24.9251C48.4739 25.0576 48.3792 25.1113 48.2623 25.045L35.6906 17.9204C35.5739 17.8542 35.4771 17.6913 35.479 17.5587C35.4809 17.4262 35.5758 17.3725 35.6925 17.4388L48.2642 24.5635Z" fill="#EDF1F3"/>
<path opacity="0.9" d="M48.2642 26.2643C48.3809 26.3306 48.4777 26.4935 48.4758 26.626C48.4739 26.7584 48.3792 26.8122 48.2623 26.746L35.6906 19.6214C35.5739 19.5551 35.4771 19.3922 35.479 19.2597C35.4809 19.1272 35.5758 19.0735 35.6925 19.1397L48.2642 26.2643Z" fill="#EDF1F3"/>
<path opacity="0.9" d="M48.2642 27.8023C48.3809 27.8686 48.4777 28.0315 48.4758 28.164C48.4739 28.2966 48.3792 28.3504 48.2623 28.2841L35.6906 21.1595C35.5739 21.0932 35.4771 20.9302 35.479 20.7978C35.4809 20.6653 35.5758 20.6115 35.6925 20.6778L48.2642 27.8023Z" fill="#EDF1F3"/>
</g>
<g opacity="0.9">
<path opacity="0.9" d="M30.5266 14.8997C30.6434 14.966 30.7401 15.1289 30.7382 15.2614C30.7366 15.3939 30.6417 15.4477 30.525 15.3814L24.6804 12.0689C24.5637 12.0026 24.4671 11.8397 24.4688 11.7072C24.4707 11.5747 24.5655 11.521 24.6823 11.5872L30.5266 14.8997Z" fill="white"/>
<path opacity="0.9" d="M30.5266 16.6114C30.6434 16.6777 30.7401 16.8406 30.7382 16.9731C30.7366 17.1056 30.6417 17.1593 30.525 17.0931L24.6804 13.7805C24.5637 13.7143 24.4671 13.5513 24.4688 13.4188C24.4707 13.2863 24.5655 13.2326 24.6823 13.2989L30.5266 16.6114Z" fill="white"/>
</g>
<path opacity="0.9" d="M52.0259 32.0717L52.0223 32.9456V32.9544L52.0167 35.0674L22.7763 18.5065L13.3822 13.1832L11.2407 11.971L11.2497 8.97363L13.3986 10.1894L17.5284 12.5297L18.9128 11.4768L18.9384 11.4911L22.5118 13.5073L22.6213 13.57L26.6105 15.8189L26.6252 15.8511L27.7854 18.3382L28.3927 18.6838V18.6802L27.3129 16.3095C27.2965 16.2719 27.302 16.2433 27.3219 16.2361C27.3276 16.2325 27.3347 16.2325 27.344 16.2361C27.3475 16.2361 27.353 16.2397 27.3568 16.2415L30.4393 17.9891L31.7309 20.5746L52.0295 32.0717H52.0259Z" fill="#C9D7DD"/>
<path opacity="0.9" d="M22.7708 18.5065L22.6996 43.4059L11.4686 37.0405C11.3009 36.9456 11.1641 36.7128 11.1641 36.5231L11.2352 11.9709L22.7726 18.5065H22.7708Z" fill="#EDF1F3"/>
<path opacity="0.9" d="M52.0074 35.0673L51.9417 57.8537L51.9362 59.6319C51.9362 59.6945 51.9217 59.7465 51.8942 59.7822C51.8814 59.8003 51.865 59.8145 51.8468 59.8252C51.7922 59.8573 51.7156 59.8521 51.6316 59.8038L22.6958 43.404V43.3987L22.7013 41.275L22.767 18.5046H22.7705L52.0074 35.0654V35.0673Z" fill="white"/>
<path opacity="0.9" d="M52.0347 29.6329V29.948L52.0293 32.0717L31.7307 20.5745L30.4392 17.9908L27.3583 16.2432C27.3583 16.2432 27.3492 16.2378 27.3438 16.2378C27.3345 16.2342 27.3291 16.2342 27.3217 16.2378C27.3037 16.245 27.298 16.2754 27.3146 16.3094L28.3944 18.6819H28.3908L27.7852 18.3363L26.6542 15.8672L26.625 15.8511L22.6212 13.5699L22.5116 13.5072L18.9546 11.4803L18.9383 11.4929L17.5299 12.5314L13.3984 10.1911L11.2515 8.97534L11.2588 6.52407C11.2588 6.41306 11.3063 6.34144 11.3791 6.31995C11.4303 6.30383 11.4958 6.31457 11.5653 6.35397L13.4075 7.39786L33.418 18.7392H33.4216L51.732 29.119C51.9017 29.2158 52.0385 29.4467 52.0366 29.6365L52.0347 29.6329Z" fill="#6E17FF"/>
<g opacity="0.7">
<path opacity="0.7" d="M52.0347 29.6329V29.948L52.0293 32.0717L31.7307 20.5745L30.4392 17.9908L27.3583 16.2432C27.3583 16.2432 27.3492 16.2378 27.3438 16.2378C27.3345 16.2342 27.3291 16.2342 27.3217 16.2378C27.3037 16.245 27.298 16.2754 27.3146 16.3094L28.3944 18.6819H28.3908L27.7852 18.3363L26.6542 15.8672L26.625 15.8511L22.6212 13.5699L22.5116 13.5072L18.9546 11.4803L18.9383 11.4929L17.5299 12.5314L13.3984 10.1911L11.2515 8.97534L11.2588 6.52407C11.2588 6.41306 11.3063 6.34144 11.3791 6.31995C11.4303 6.30383 11.4958 6.31457 11.5653 6.35397L13.4075 7.39786L33.418 18.7392H33.4216L51.732 29.119C51.9017 29.2158 52.0385 29.4467 52.0366 29.6365L52.0347 29.6329Z" fill="url(#paint2_linear_1771_3973)"/>
</g>
<path opacity="0.9" d="M19.1938 24.5317L19.1353 24.5011V24.4976L19.1938 24.5317Z" fill="#7808FF"/>
<g opacity="0.9">
<path opacity="0.9" d="M12.5706 8.03703C12.7876 8.16058 12.9627 8.45781 12.9627 8.70312C12.9627 8.94842 12.7857 9.04511 12.5687 8.92336C12.3516 8.8016 12.1766 8.50258 12.1782 8.25906C12.1801 8.01555 12.3552 7.91528 12.5722 8.03882L12.5706 8.03703Z" fill="white"/>
<path opacity="0.9" d="M13.6739 8.65666C13.8909 8.78021 14.066 9.07744 14.066 9.32274C14.066 9.56805 13.889 9.66475 13.672 9.54298C13.4549 9.42123 13.2799 9.12221 13.2818 8.87869C13.2834 8.63518 13.4587 8.5349 13.6758 8.65845L13.6739 8.65666Z" fill="white"/>
<path opacity="0.9" d="M14.8121 9.34417C15.0293 9.46773 15.2044 9.76494 15.2044 10.0102C15.2044 10.2555 15.0274 10.3523 14.8104 10.2305C14.5933 10.1087 14.418 9.80971 14.4199 9.5662C14.4218 9.32268 14.5969 9.2224 14.8139 9.34596L14.8121 9.34417Z" fill="white"/>
</g>
<path opacity="0.9" d="M29.321 17.9245C29.6092 18.0875 29.8409 18.4832 29.839 18.8073C29.839 19.1314 29.6037 19.2621 29.3174 19.0991C29.0311 18.9362 28.7976 18.5423 28.7993 18.2182C28.7993 17.8941 29.0328 17.7634 29.321 17.9263V17.9245Z" fill="#7808FF"/>
<path opacity="0.9" d="M48.5272 30.7772C48.675 30.8614 48.7936 31.0638 48.7936 31.2302L48.7898 32.4085C48.7898 32.5749 48.6695 32.6429 48.5217 32.5587L16.5178 14.4205C16.3701 14.3363 16.2515 14.134 16.2515 13.9675L16.255 12.7893C16.255 12.6228 16.3755 12.5548 16.5233 12.6389L48.5272 30.7772Z" fill="white"/>
<path opacity="0.9" d="M47.7996 30.763C47.7996 30.763 47.805 30.7683 47.8067 30.7718L47.9144 31.2089L47.9217 31.2177L48.2719 31.4165C48.2719 31.4165 48.2811 31.4307 48.2756 31.4326L47.9929 31.5042V31.5113L48.0968 31.9465C48.0968 31.9465 48.0949 31.9555 48.0894 31.9536C48.0894 31.9536 48.0878 31.9519 48.0859 31.9501L47.805 31.5579L47.7958 31.5525L47.513 31.6243C47.513 31.6243 47.5113 31.6243 47.5095 31.6243C47.5057 31.6224 47.5021 31.6152 47.504 31.6098L47.6134 31.2966V31.2857L47.3289 30.8936C47.3289 30.8936 47.327 30.8776 47.3325 30.8812L47.6826 31.0798H47.69L47.7996 30.7647C47.7996 30.7647 47.8031 30.7611 47.805 30.763H47.7996Z" fill="#6E17FF"/>
<g opacity="0.9">
<path opacity="0.9" d="M51.0753 32.4834V32.5676L49.853 31.8747V31.7905L51.0753 32.4834Z" fill="#7808FF"/>
<path opacity="0.9" d="M51.0753 32.8665V32.9526L49.853 32.2596V32.1736L51.0753 32.8665Z" fill="#7808FF"/>
<path opacity="0.9" d="M51.0753 33.2515V33.3357L49.853 32.6447V32.5586L51.0753 33.2515Z" fill="#7808FF"/>
<path opacity="0.9" d="M51.0753 33.6365V33.7207L49.853 33.0278V32.9436L51.0753 33.6365Z" fill="#7808FF"/>
</g>
<g opacity="0.9">
<path opacity="0.9" d="M12.2346 10.4884C12.251 10.4974 12.2674 10.5135 12.2802 10.5332C12.3113 10.5779 12.3148 10.6335 12.2892 10.6514L11.9901 10.8788L12.9479 11.4213C12.988 11.4428 13.0189 11.4983 13.0189 11.5431C13.0189 11.5878 12.9861 11.6057 12.9479 11.5825L12.001 11.0453L12.2856 11.5556C12.3113 11.6021 12.3094 11.6523 12.2802 11.6666C12.2657 11.672 12.2491 11.6702 12.2327 11.6612C12.2145 11.6505 12.1945 11.629 12.1798 11.6039L11.7894 10.9056L11.784 10.8949C11.7749 10.877 11.7695 10.8609 11.7676 10.8465C11.7676 10.8358 11.7676 10.825 11.7676 10.8161L11.7714 10.8036L11.7785 10.7928L11.7823 10.7892L12.1798 10.4848C12.1945 10.4741 12.2145 10.4759 12.2346 10.4884Z" fill="white"/>
<path opacity="0.9" d="M11.7661 10.8501C11.7661 10.8501 11.7678 10.8645 11.7716 10.8717C11.7751 10.8806 11.7789 10.8896 11.7844 10.8986C11.7751 10.8806 11.7697 10.8645 11.7678 10.8501H11.7661Z" fill="white"/>
</g>
<g opacity="0.9">
<path opacity="0.9" d="M14.4599 11.7221C14.4801 11.7328 14.5 11.7543 14.5147 11.7812L14.9106 12.535L14.9142 12.544L14.9215 12.5636L14.9251 12.5816C14.927 12.5941 14.927 12.6048 14.9251 12.612L14.9215 12.6245L14.9161 12.6353L14.9087 12.6424L14.5093 12.9039C14.4946 12.9128 14.4765 12.911 14.4564 12.9003C14.4381 12.8895 14.4217 12.8734 14.4089 12.8519C14.3798 12.8054 14.3779 12.7534 14.4054 12.7355L14.6917 12.5493L13.745 12.0122C13.7049 11.9889 13.6738 11.9352 13.6738 11.8904C13.6738 11.8456 13.7049 11.8277 13.745 11.851L14.7007 12.3936L14.4054 11.8295C14.3798 11.7812 14.3852 11.7328 14.4144 11.7203C14.4272 11.7149 14.4436 11.7185 14.4599 11.7275V11.7221Z" fill="white"/>
<path opacity="0.9" d="M14.9195 12.6228L14.9176 12.6263L14.9141 12.6334L14.9195 12.6228Z" fill="white"/>
</g>
<path opacity="0.9" d="M11.7221 20.8235L11.7695 20.8969L11.733 20.9237L11.6855 20.8521L11.7221 20.8235Z" fill="#7808FF"/>
<path opacity="0.9" d="M22.636 14.3668C22.9114 14.5225 23.1341 14.9004 23.1322 15.2101C23.1303 15.5199 22.9078 15.6452 22.6324 15.4894L19.6901 13.8224C19.4147 13.6667 19.1922 13.2889 19.1939 12.9791C19.1939 12.6693 19.4183 12.544 19.6937 12.6998L22.636 14.3668Z" fill="#6E17FF"/>
<path opacity="0.9" d="M33.4162 18.7357L13.4058 7.39612L11.5634 6.35222C11.4923 6.31283 11.4285 6.30209 11.3774 6.3182L13.5097 5.41935C13.5645 5.39428 13.6374 5.39965 13.7159 5.4462L53.8826 28.2095C54.0506 28.3061 54.1872 28.5372 54.1872 28.727L54.1801 31.1657H54.1782L52.0276 32.0717L52.0331 29.9499V29.6329C52.0348 29.4432 51.8981 29.2123 51.7283 29.1155L33.4181 18.7375" fill="#562ED0"/>
<path d="M54.1619 34.1595L54.0908 58.7241C54.0908 58.8208 54.0542 58.8869 53.9978 58.9174H53.9959L53.9776 58.9245L51.88 59.8091C51.88 59.8091 51.8909 59.7984 51.8944 59.7929C51.92 59.7572 51.9364 59.7052 51.9364 59.6426V59.63C51.9364 59.6945 51.92 59.7446 51.8944 59.7805C51.8816 59.7984 51.8636 59.8145 51.847 59.8234L51.88 59.8091C51.869 59.8198 51.8598 59.8288 51.847 59.8343C51.7924 59.8664 51.7158 59.8609 51.6318 59.8127L22.696 43.4149L11.4686 37.0512C11.3009 36.9544 11.1641 36.7235 11.1641 36.5338L11.2352 11.9817L22.7726 18.5172L52.0095 35.078V35.0654L52.0204 35.0602L54.1636 34.1576L54.1619 34.1595Z" fill="#FDFEFE"/>
<path opacity="0.9" d="M54.1621 34.1667L54.0909 58.7313C54.0909 58.8281 54.0544 58.8942 53.9979 58.9246H53.996L53.9797 58.9318L51.8472 59.8308C51.8654 59.8218 51.882 59.8056 51.8946 59.7878C51.9221 59.7519 51.9366 59.7001 51.9366 59.6373L51.942 57.8593L52.0077 35.0727L52.017 35.0675L54.1621 34.165V34.1667Z" fill="#EDF1F3"/>
<path opacity="0.8" d="M54.1619 34.1595L54.0908 58.7241C54.0908 58.8208 54.0542 58.8869 53.9978 58.9174H53.9959L53.9776 58.9245L51.88 59.8091C51.88 59.8091 51.8909 59.7984 51.8944 59.7929C51.92 59.7572 51.9364 59.7052 51.9364 59.6426V59.63C51.9364 59.6945 51.92 59.7446 51.8944 59.7805C51.8816 59.7984 51.8636 59.8145 51.847 59.8234L51.88 59.8091C51.869 59.8198 51.8598 59.8288 51.847 59.8343C51.7924 59.8664 51.7158 59.8609 51.6318 59.8127L22.696 43.4149L11.4686 37.0512C11.3009 36.9544 11.1641 36.7235 11.1641 36.5338L11.2352 11.9817L22.7726 18.5172L52.0095 35.078V35.0654L52.0204 35.0602L54.1636 34.1576L54.1619 34.1595Z" fill="url(#paint3_linear_1771_3973)"/>
<path opacity="0.9" d="M52.028 32.0718L52.0078 35.0727L54.1621 34.1667L54.1821 31.1658L52.028 32.0718Z" fill="#ABC1C6"/>
<g opacity="0.9">
<path opacity="0.9" d="M30.4119 30.7251C30.5286 30.7914 30.6254 30.9543 30.6235 31.087C30.6216 31.2194 30.5267 31.2732 30.41 31.2068L24.5656 27.8943C24.4489 27.8281 24.3521 27.6651 24.354 27.5326C24.3559 27.4001 24.4508 27.3464 24.5675 27.4127L30.4119 30.7251Z" fill="#EDF1F3"/>
<path opacity="0.9" d="M37.1392 29.3913C37.2559 29.4575 37.3527 29.6206 37.3508 29.753C37.3489 29.8855 37.2542 29.9392 37.1373 29.8729L24.5656 22.7483C24.4489 22.6821 24.3521 22.5191 24.354 22.3866C24.3559 22.2541 24.4508 22.2004 24.5675 22.2667L37.1392 29.3913Z" fill="#EDF1F3"/>
<path opacity="0.9" d="M37.1392 31.0922C37.2559 31.1585 37.3527 31.3214 37.3508 31.4538C37.3489 31.5863 37.2542 31.64 37.1373 31.5739L24.5656 24.4492C24.4489 24.383 24.3521 24.22 24.354 24.0875C24.3559 23.955 24.4508 23.9013 24.5675 23.9676L37.1392 31.0922Z" fill="#EDF1F3"/>
<path opacity="0.9" d="M37.1392 32.6302C37.2559 32.6965 37.3527 32.8594 37.3508 32.9919C37.3489 33.1245 37.2542 33.1783 37.1373 33.1119L24.5656 25.9873C24.4489 25.9211 24.3521 25.7581 24.354 25.6256C24.3559 25.4931 24.4508 25.4394 24.5675 25.5057L37.1392 32.6302Z" fill="#EDF1F3"/>
</g>
<g opacity="0.9">
<path opacity="0.9" d="M19.4016 19.7276C19.5184 19.7939 19.6151 19.9568 19.6132 20.0893C19.6116 20.2218 19.5167 20.2755 19.4 20.2093L13.5554 16.8968C13.4387 16.8305 13.3421 16.6676 13.3438 16.5351C13.3457 16.4026 13.4405 16.3488 13.5573 16.4151L19.4016 19.7276Z" fill="white"/>
<path opacity="0.9" d="M19.4016 21.4393C19.5184 21.5055 19.6151 21.6685 19.6132 21.801C19.6116 21.9335 19.5167 21.9872 19.4 21.921L13.5554 18.6084C13.4387 18.5422 13.3421 18.3792 13.3438 18.2467C13.3457 18.1142 13.4405 18.0605 13.5573 18.1268L19.4016 21.4393Z" fill="white"/>
</g>
<path d="M40.9623 37.2589L40.9588 38.1328V38.1418L40.9533 40.2546L11.711 23.6938L2.31682 18.3705L0.175293 17.1583L0.18453 14.1609L2.33319 15.3767L6.46301 17.7169L7.8476 16.6641L7.873 16.6784L11.4465 18.6946L11.5559 18.7572L15.5453 21.0062L15.5598 21.0384L16.72 23.5255L17.3275 23.871V23.8675L16.2475 21.4968C16.2311 21.4592 16.2365 21.4305 16.2567 21.4234C16.2621 21.4198 16.2695 21.4198 16.2785 21.4234C16.2823 21.4234 16.2878 21.4269 16.2913 21.4287L19.3741 23.1763L20.6655 25.7619L40.9642 37.2589H40.9623Z" fill="#C9D7DD"/>
<path d="M11.7073 23.6937L11.6363 48.5931L0.40517 42.2277C0.23745 42.1328 0.100586 41.9 0.100586 41.7102L0.171747 17.1582L11.7092 23.6937H11.7073Z" fill="url(#paint4_linear_1771_3973)"/>
<path d="M40.9439 40.2545L40.8782 63.0411L40.8727 64.8191C40.8727 64.8818 40.8582 64.9337 40.8307 64.9696C40.8181 64.9874 40.8016 65.0017 40.7835 65.0124C40.7287 65.0447 40.6521 65.0393 40.5681 64.991L11.6323 48.5914V48.5859L11.6378 46.4624L11.7035 23.6919H11.7073L40.9439 40.2528V40.2545Z" fill="white"/>
<path d="M40.9695 34.8203V35.1354L40.9641 37.2588L20.6653 25.7618L19.3739 23.178L16.293 21.4304C16.293 21.4304 16.2838 21.4251 16.2784 21.4251C16.2693 21.4215 16.2639 21.4215 16.2565 21.4251C16.2383 21.4322 16.2328 21.4627 16.2492 21.4967L17.3292 23.8692H17.3254L16.7198 23.5236L15.5888 21.0544L15.5596 21.0383L11.5557 18.7571L11.4464 18.6945L7.88941 16.6676L7.87282 16.6801L6.46473 17.7186L2.33302 15.3784L0.186035 14.1626L0.193383 11.7113C0.193383 11.6003 0.240821 11.5287 0.313871 11.5072C0.364879 11.4911 0.430582 11.5018 0.499853 11.5412L2.34226 12.5851L22.3526 23.9265H22.3564L40.6666 34.3062C40.8364 34.403 40.9731 34.6339 40.9714 34.8238L40.9695 34.8203Z" fill="#6E17FF"/>
<g opacity="0.7">
<path opacity="0.7" d="M40.9695 34.8203V35.1354L40.9641 37.2588L20.6653 25.7618L19.3739 23.178L16.293 21.4304C16.293 21.4304 16.2838 21.4251 16.2784 21.4251C16.2693 21.4215 16.2639 21.4215 16.2565 21.4251C16.2383 21.4322 16.2328 21.4627 16.2492 21.4967L17.3292 23.8692H17.3254L16.7198 23.5236L15.5888 21.0544L15.5596 21.0383L11.5557 18.7571L11.4464 18.6945L7.88941 16.6676L7.87282 16.6801L6.46473 17.7186L2.33302 15.3784L0.186035 14.1626L0.193383 11.7113C0.193383 11.6003 0.240821 11.5287 0.313871 11.5072C0.364879 11.4911 0.430582 11.5018 0.499853 11.5412L2.34226 12.5851L22.3526 23.9265H22.3564L40.6666 34.3062C40.8364 34.403 40.9731 34.6339 40.9714 34.8238L40.9695 34.8203Z" fill="url(#paint5_linear_1771_3973)"/>
</g>
<path d="M8.13077 29.7191L8.07031 29.6886V29.6851L8.13077 29.7191Z" fill="#7808FF"/>
<path d="M1.50493 13.2243C1.72198 13.3478 1.89725 13.6451 1.89725 13.8904C1.89725 14.1357 1.7203 14.2324 1.50325 14.1106C1.28599 13.9889 1.11092 13.6898 1.11281 13.4463C1.1147 13.2028 1.28976 13.1025 1.50681 13.2261L1.50493 13.2243Z" fill="white"/>
<path d="M2.60865 13.8422C2.8257 13.9658 3.00076 14.263 3.00076 14.5083C3.00076 14.7536 2.82381 14.8503 2.60676 14.7285C2.38971 14.6068 2.21464 14.3077 2.21632 14.0642C2.21821 13.8207 2.39328 13.7204 2.61033 13.844L2.60865 13.8422Z" fill="white"/>
<path d="M3.74878 14.5297C3.96583 14.6533 4.1409 14.9505 4.1409 15.1958C4.1409 15.4411 3.96394 15.5378 3.74689 15.416C3.52985 15.2943 3.35478 14.9952 3.35646 14.7517C3.35835 14.5082 3.53341 14.4079 3.75046 14.5315L3.74878 14.5297Z" fill="white"/>
<path d="M18.2577 23.1118C18.5459 23.2747 18.7774 23.6704 18.7758 23.9945C18.7739 24.3186 18.5404 24.4493 18.2539 24.2864C17.9676 24.1234 17.7342 23.7295 17.7358 23.4054C17.7358 23.0813 17.9695 22.9506 18.2577 23.1136V23.1118Z" fill="#7808FF"/>
<path d="M37.4618 35.9644C37.6095 36.0486 37.7281 36.2509 37.7281 36.4174L37.7246 37.5956C37.7246 37.7621 37.6041 37.8303 37.4563 37.7462L5.45241 19.6078C5.30464 19.5236 5.18604 19.3213 5.18604 19.1548L5.18981 17.9766C5.18981 17.8101 5.31009 17.742 5.45787 17.8262L37.4618 35.9644Z" fill="white"/>
<path d="M36.7341 35.95C36.7341 35.95 36.7396 35.9554 36.7415 35.959L36.8491 36.3958L36.8563 36.4049L37.2066 36.6034C37.2066 36.6034 37.2156 36.6179 37.2102 36.6196L36.9274 36.6912V36.6985L37.0316 37.1335C37.0316 37.1335 37.0297 37.1425 37.0242 37.1406C37.0242 37.1406 37.0223 37.1389 37.0204 37.137L36.7396 36.7449L36.7305 36.7397L36.4478 36.8113C36.4478 36.8113 36.4459 36.8113 36.444 36.8113C36.4404 36.8094 36.4369 36.8022 36.4386 36.797L36.5481 36.4836V36.4729L36.2635 36.0808C36.2635 36.0808 36.2616 36.0646 36.2673 36.0682L36.6174 36.267H36.6247L36.7341 35.9519C36.7341 35.9519 36.7379 35.9481 36.7396 35.95H36.7341Z" fill="#6E17FF"/>
<path d="M40.0122 37.6707V37.7549L38.79 37.062V36.9778L40.0122 37.6707Z" fill="#7808FF"/>
<path d="M40.0122 38.054V38.1382L38.79 37.4469V37.3611L40.0122 38.054Z" fill="#7808FF"/>
<path d="M40.0122 38.439V38.5232L38.79 37.8303V37.7461L40.0122 38.439Z" fill="#7808FF"/>
<path d="M40.0122 38.8221V38.9082L38.79 38.2151V38.1311L40.0122 38.8221Z" fill="#7808FF"/>
<path d="M1.16949 15.6757C1.18586 15.6846 1.20244 15.7008 1.21524 15.7204C1.2461 15.7652 1.24988 15.8207 1.22427 15.8386L0.925147 16.066L1.88277 16.6086C1.92286 16.63 1.95393 16.6856 1.95393 16.7303C1.95393 16.7751 1.92097 16.793 1.88277 16.7697L0.936059 16.2325L1.2207 16.7428C1.2461 16.7894 1.24442 16.8395 1.21524 16.8539C1.20055 16.8592 1.18418 16.8575 1.1678 16.8485C1.14954 16.8377 1.12939 16.8163 1.11491 16.7912L0.724468 16.0929L0.719011 16.0821C0.709774 16.0642 0.704316 16.0481 0.702637 16.0338C0.702637 16.0231 0.702637 16.0123 0.702637 16.0033L0.706208 15.9908L0.713553 15.9801L0.717121 15.9765L1.11491 15.6721C1.12939 15.6614 1.14954 15.6631 1.16949 15.6757Z" fill="white"/>
<path d="M0.700684 16.0356C0.700684 16.0356 0.702573 16.05 0.706142 16.0572C0.70992 16.0662 0.713486 16.0752 0.718944 16.0841C0.709918 16.0662 0.704249 16.05 0.70257 16.0356H0.700684Z" fill="white"/>
<path d="M3.39501 16.9093C3.41495 16.9201 3.4351 16.9416 3.4498 16.9684L3.84548 17.7222L3.84926 17.7312L3.8564 17.7509L3.86017 17.7688C3.86206 17.7813 3.86206 17.7921 3.86017 17.7992L3.8564 17.8118L3.85094 17.8225L3.8438 17.8297L3.44434 18.0911C3.42964 18.1 3.41138 18.0983 3.39144 18.0875C3.37318 18.0768 3.35659 18.0607 3.344 18.0392C3.31482 17.9926 3.31293 17.9407 3.34022 17.9228L3.62675 17.7366L2.67984 17.1994C2.63974 17.1761 2.60889 17.1224 2.60889 17.0776C2.60889 17.0329 2.63974 17.015 2.67984 17.0383L3.63578 17.5808L3.34022 17.0168C3.31482 16.9684 3.32028 16.9201 3.34946 16.9076C3.36205 16.9022 3.37863 16.9058 3.39501 16.9147V16.9093Z" fill="white"/>
<path d="M3.85653 17.8101L3.85485 17.8136L3.85107 17.8206L3.85653 17.8101Z" fill="white"/>
<path d="M0.656921 26.0107L0.704361 26.0842L0.668045 26.111L0.620605 26.0376L0.656921 26.0107Z" fill="#7808FF"/>
<path d="M11.5723 19.554C11.8479 19.7098 12.0704 20.0876 12.0686 20.3974C12.0667 20.7071 11.8442 20.8325 11.5688 20.6767L8.6264 19.0097C8.351 18.8539 8.12849 18.4761 8.13038 18.1664C8.13038 17.8566 8.35478 17.7313 8.63018 17.887L11.5723 19.554Z" fill="#6E17FF"/>
<path d="M22.3509 23.9229L2.3404 12.5834L0.497991 11.5395C0.426831 11.5001 0.36302 11.4893 0.312012 11.5055L2.4443 10.6066C2.49909 10.5815 2.57214 10.5869 2.65044 10.6335L42.8174 33.3967C42.9851 33.4935 43.122 33.7244 43.122 33.9141L43.1146 36.3529H43.1128L40.9622 37.2589L40.9677 35.1371V34.8203C40.9695 34.6304 40.8327 34.3994 40.6631 34.3027L22.3526 23.9247" fill="#562ED0"/>
<path d="M43.0984 39.3539L43.0272 63.9183C43.0272 64.0151 42.9907 64.0814 42.9342 64.1119H42.9324L42.916 64.119L40.7837 65.0178C40.8017 65.0088 40.8183 64.9927 40.8309 64.9748C40.8584 64.9391 40.8729 64.8871 40.8729 64.8245L40.8784 63.0463L40.9441 40.2599L40.9533 40.2545L43.0984 39.3521V39.3539Z" fill="#8BABB5"/>
<path opacity="0.8" d="M40.9697 64.9318L40.8165 64.9965C40.8165 64.9965 40.8274 64.9855 40.831 64.9803C40.8566 64.9444 40.8729 64.8926 40.8729 64.8298V64.8174C40.8729 64.8819 40.8566 64.9318 40.831 64.9677C40.8184 64.9855 40.8001 65.0017 40.7837 65.0107L40.8165 64.9965C40.8056 65.0072 40.7963 65.016 40.7837 65.0214C40.729 65.0536 40.6523 65.0483 40.5684 65L11.6326 48.6021L0.40517 42.2384C0.23745 42.1418 0.100586 41.9107 0.100586 41.7209L0.171747 17.1689L11.7092 23.7044L40.946 40.2652V40.2528L40.9569 40.2474L40.9643 40.2438L40.9733 64.9318H40.9697Z" fill="url(#paint6_linear_1771_3973)"/>
<path d="M40.9645 37.259L40.9443 40.2601L43.0987 39.3541L43.1169 36.3513L40.9645 37.259Z" fill="#95B7BF"/>
<path d="M19.3484 35.9107C19.4651 35.977 19.5619 36.1399 19.56 36.2723C19.5583 36.405 19.4634 36.4588 19.3467 36.3924L13.5021 33.0798C13.3854 33.0137 13.2889 32.8508 13.2905 32.7181C13.2924 32.5857 13.3873 32.5319 13.504 32.5982L19.3484 35.9107Z" fill="#EDF1F3"/>
<path d="M26.0757 34.5785C26.1926 34.6448 26.2892 34.8077 26.2873 34.9402C26.2873 35.0726 26.1907 35.1264 26.074 35.0603L13.5021 27.9356C13.3854 27.8693 13.2889 27.7064 13.2905 27.5739C13.2924 27.4414 13.3873 27.3877 13.504 27.4539L26.0757 34.5785Z" fill="#EDF1F3"/>
<path d="M26.0757 36.2795C26.1926 36.3457 26.2892 36.5085 26.2873 36.6412C26.2873 36.7737 26.1907 36.8274 26.074 36.7611L13.5021 29.6364C13.3854 29.5703 13.2889 29.4072 13.2905 29.2747C13.2924 29.1423 13.3873 29.0886 13.504 29.1549L26.0757 36.2795Z" fill="#EDF1F3"/>
<path d="M26.0757 37.8176C26.1926 37.8837 26.2892 38.0468 26.2873 38.1793C26.2873 38.3117 26.1907 38.3655 26.074 38.2992L13.5021 31.1747C13.3854 31.1084 13.2889 30.9455 13.2905 30.813C13.2924 30.6804 13.3873 30.6266 13.504 30.693L26.0757 37.8176Z" fill="#EDF1F3"/>
<path d="M8.33816 24.9149C8.45487 24.9811 8.55164 25.1441 8.54975 25.2766C8.54807 25.4091 8.45319 25.4628 8.33648 25.3965L2.49189 22.084C2.37517 22.0178 2.27862 21.8548 2.2803 21.7223C2.28218 21.5898 2.37706 21.5361 2.49378 21.6023L8.33816 24.9149Z" fill="white"/>
<path d="M8.33816 26.6268C8.45487 26.693 8.55164 26.856 8.54975 26.9885C8.54807 27.121 8.45319 27.1747 8.33648 27.1084L2.49189 23.7959C2.37517 23.7297 2.27862 23.5667 2.2803 23.4342C2.28218 23.3017 2.37706 23.248 2.49378 23.3143L8.33816 26.6268Z" fill="white"/>
<defs>
<linearGradient id="paint0_linear_1771_3973" x1="78.2014" y1="28.5186" x2="12.6959" y2="1.27837" gradientUnits="userSpaceOnUse">
<stop offset="0.57" stop-color="white" stop-opacity="0"/>
<stop offset="0.79" stop-color="white" stop-opacity="0.3"/>
<stop offset="0.87" stop-color="white" stop-opacity="0.42"/>
<stop offset="1" stop-color="white" stop-opacity="0.6"/>
</linearGradient>
<linearGradient id="paint1_linear_1771_3973" x1="70.7665" y1="32.8625" x2="53.9216" y2="31.7626" gradientUnits="userSpaceOnUse">
<stop stop-color="#4C7F8E" stop-opacity="0.5"/>
<stop offset="0.12" stop-color="#4C7F8E" stop-opacity="0.45"/>
<stop offset="0.3" stop-color="#4C7F8E" stop-opacity="0.33"/>
<stop offset="0.5" stop-color="#4C7F8E" stop-opacity="0.12"/>
<stop offset="0.6" stop-color="#4C7F8E" stop-opacity="0"/>
<stop offset="1" stop-color="#4C7F8E" stop-opacity="0"/>
</linearGradient>
<linearGradient id="paint2_linear_1771_3973" x1="67.0764" y1="33.3465" x2="1.57093" y2="6.10625" gradientUnits="userSpaceOnUse">
<stop offset="0.57" stop-color="white" stop-opacity="0"/>
<stop offset="0.79" stop-color="white" stop-opacity="0.3"/>
<stop offset="0.87" stop-color="white" stop-opacity="0.42"/>
<stop offset="1" stop-color="white" stop-opacity="0.6"/>
</linearGradient>
<linearGradient id="paint3_linear_1771_3973" x1="59.6415" y1="37.6904" x2="42.7966" y2="36.5905" gradientUnits="userSpaceOnUse">
<stop stop-color="#4C7F8E" stop-opacity="0.5"/>
<stop offset="0.12" stop-color="#4C7F8E" stop-opacity="0.45"/>
<stop offset="0.3" stop-color="#4C7F8E" stop-opacity="0.33"/>
<stop offset="0.5" stop-color="#4C7F8E" stop-opacity="0.12"/>
<stop offset="0.6" stop-color="#4C7F8E" stop-opacity="0"/>
<stop offset="1" stop-color="#4C7F8E" stop-opacity="0"/>
</linearGradient>
<linearGradient id="paint4_linear_1771_3973" x1="-8.31177" y1="19.7539" x2="54.1882" y2="68.7539" gradientUnits="userSpaceOnUse">
<stop stop-color="#EDF1F3"/>
<stop offset="1" stop-color="#8DA5B1"/>
</linearGradient>
<linearGradient id="paint5_linear_1771_3973" x1="56.011" y1="38.5338" x2="-9.49433" y2="11.2935" gradientUnits="userSpaceOnUse">
<stop offset="0.57" stop-color="white" stop-opacity="0"/>
<stop offset="0.79" stop-color="white" stop-opacity="0.3"/>
<stop offset="0.87" stop-color="white" stop-opacity="0.42"/>
<stop offset="1" stop-color="white" stop-opacity="0.6"/>
</linearGradient>
<linearGradient id="paint6_linear_1771_3973" x1="52.6094" y1="63.2399" x2="-0.844438" y2="25.02" gradientUnits="userSpaceOnUse">
<stop offset="0.13" stop-color="#4C7F8E" stop-opacity="0.5"/>
<stop offset="0.29" stop-color="#4C7F8E" stop-opacity="0.3"/>
<stop offset="0.46" stop-color="#4C7F8E" stop-opacity="0.13"/>
<stop offset="0.62" stop-color="#4C7F8E" stop-opacity="0.03"/>
<stop offset="0.75" stop-color="#4C7F8E" stop-opacity="0"/>
<stop offset="1" stop-color="#4C7F8E" stop-opacity="0"/>
</linearGradient>
</defs>
</svg>
