<svg width="25" height="25" viewBox="0 0 25 25" fill="none" xmlns="http://www.w3.org/2000/svg">
<path d="M14.2188 5.47455C13.9259 5.18166 13.451 5.18166 13.1581 5.47455C12.8653 5.76745 12.8653 6.24232 13.1581 6.53521L18.6278 12.0049H3.93848C3.52426 12.0049 3.18848 12.3407 3.18848 12.7549C3.18848 13.1691 3.52426 13.5049 3.93848 13.5049H18.6278L13.1581 18.9746C12.8653 19.2674 12.8653 19.7423 13.1581 20.0352C13.451 20.3281 13.9259 20.3281 14.2188 20.0352L20.9688 13.2852C21.1153 13.1388 21.1885 12.9468 21.1885 12.7549C21.1885 12.6532 21.1682 12.5562 21.1316 12.4678C21.095 12.3793 21.0407 12.2965 20.9688 12.2246L14.2188 5.47455Z" fill="black" fill-opacity="0.72"/>
</svg>
