<svg width="72" height="73" viewBox="0 0 72 73" fill="none" xmlns="http://www.w3.org/2000/svg">
<g filter="url(#filter0_d_1771_6019)">
<g opacity="0.7">
<path d="M67.7113 57.6299C67.7113 57.6299 67.6696 57.6715 67.6363 57.6882C67.6196 57.7048 67.5946 57.7131 67.5779 57.7298L41.9416 72.5985C41.6584 72.765 41.2251 72.7984 40.8752 72.6901C40.8252 72.6735 40.7752 72.6568 40.7252 72.6319L40.6502 72.5902L1.86668 50.2538C1.80002 50.2205 1.75003 50.1705 1.70838 50.1289C1.69171 50.1122 1.68338 50.0956 1.67505 50.0873C1.65839 50.0706 1.65006 50.054 1.64172 50.0373C1.61673 49.9874 1.6084 49.9374 1.6084 49.8958V48.0226C1.6084 47.8894 1.70005 47.7562 1.87501 47.648L26.0533 33.6367C26.0533 33.6367 26.1199 33.6867 26.1533 33.7033L67.7113 57.6382C67.7946 57.555 67.8446 57.4634 67.8446 57.3718" fill="#121929"/>
</g>
</g>
<path d="M67.8612 55.4985V57.3716C67.8612 57.5048 67.7695 57.638 67.5945 57.7379L41.9582 72.5984C41.6083 72.8065 41.0251 72.8065 40.6752 72.5984L1.89161 50.2619C1.71665 50.162 1.625 50.0288 1.625 49.8956V48.0225C1.625 48.1557 1.72498 48.2889 1.89994 48.3888L40.6835 70.7252C41.0418 70.925 41.6166 70.925 41.9666 70.7252L67.6029 55.8648C67.7778 55.7649 67.8612 55.6317 67.8695 55.4985H67.8612Z" fill="#CAD5DB"/>
<path d="M67.8612 55.4985V57.3716C67.8612 57.5048 67.7695 57.638 67.5945 57.7379L41.9582 72.5984C41.6083 72.8065 41.0251 72.8065 40.6752 72.5984L1.89161 50.2619C1.71665 50.162 1.625 50.0288 1.625 49.8956V48.0225C1.625 48.1557 1.72498 48.2889 1.89994 48.3888L40.6835 70.7252C41.0418 70.925 41.6166 70.925 41.9666 70.7252L67.6029 55.8648C67.7778 55.7649 67.8612 55.6317 67.8695 55.4985H67.8612Z" fill="#CAD5DB"/>
<path d="M67.5947 55.1156C67.9529 55.3237 67.9529 55.6484 67.5947 55.8565L41.9584 70.717C41.6084 70.9251 41.0336 70.9251 40.6753 70.717L1.89174 48.3805C1.53348 48.1724 1.53348 47.8477 1.89174 47.6396L27.528 32.7791C27.878 32.571 28.4529 32.571 28.8111 32.7791L67.5947 55.1156Z" fill="#F3F4F5"/>
<path d="M69.5358 24.2958L69.4525 53.8752C69.4525 54.075 69.3775 54.2165 69.2609 54.2831L67.9528 55.0407C68.0362 54.9658 68.0861 54.8409 68.0861 54.6744L68.1695 25.095C68.1695 24.6871 67.8862 24.1876 67.5279 23.9878L28.7444 1.65133C28.5611 1.5431 28.4028 1.53478 28.2861 1.6097L29.7108 0.785513C29.8191 0.752212 29.9525 0.777184 30.1024 0.860436L68.886 23.1969C69.2442 23.405 69.5275 23.8962 69.5275 24.3041L69.5358 24.2958Z" fill="#587E8B"/>
<path d="M69.5358 24.2958L69.4525 53.8752C69.4525 54.075 69.3775 54.2165 69.2609 54.2831L67.9528 55.0407C68.0362 54.9658 68.0861 54.8409 68.0861 54.6744L68.1695 25.095C68.1695 24.6871 67.8862 24.1876 67.5279 23.9878L28.7444 1.65133C28.5611 1.5431 28.4028 1.53478 28.2861 1.6097L29.7108 0.785513C29.8191 0.752212 29.9525 0.777184 30.1024 0.860436L68.886 23.1969C69.2442 23.405 69.5275 23.8962 69.5275 24.3041L69.5358 24.2958Z" fill="#CAD5DB"/>
<path d="M67.5362 23.9878C67.8945 24.1959 68.1778 24.6871 68.1778 25.095L68.0945 54.6744C68.0945 55.0823 67.8029 55.2488 67.4529 55.0407L28.6694 32.7042C28.3111 32.4961 28.0278 32.0049 28.0278 31.597L28.1111 2.01765C28.1111 1.60972 28.4028 1.45153 28.7527 1.65134L67.5362 23.9878Z" fill="#E2E6E7"/>
<path d="M65.7619 24.3208C66.0868 24.5122 66.3535 24.9701 66.3535 25.3448L66.2785 52.6597C66.2785 53.0343 66.0119 53.1842 65.6786 53.001L29.8611 32.3712C29.5361 32.1797 29.2695 31.7219 29.2695 31.3472L29.3445 4.03231C29.3445 3.65768 29.6111 3.50783 29.9444 3.69931L65.7619 24.3291V24.3208Z" fill="white"/>
<g opacity="0.8">
<path d="M32.0269 6.93799C32.0853 6.97129 32.1352 7.06287 32.1352 7.12947V8.5281C32.1352 8.5947 32.0769 8.628 32.0186 8.5947L30.7939 7.88706C30.7355 7.85376 30.6855 7.76218 30.6855 7.69558V6.29695C30.6855 6.23035 30.7439 6.19705 30.8022 6.23035L32.0269 6.93799Z" fill="#587E8B"/>
</g>
<g opacity="0.8">
<path d="M34.4263 8.41968C34.4847 8.45298 34.5347 8.54455 34.5347 8.61116V10.0098C34.5347 10.0764 34.4763 10.1097 34.418 10.0764L33.1933 9.36875C33.135 9.33545 33.085 9.24387 33.085 9.17727V7.77864C33.085 7.71204 33.1433 7.67874 33.2016 7.71204L34.4263 8.41968Z" fill="#587E8B"/>
</g>
<g opacity="0.8">
<path d="M64.9439 49.3291C65.0022 49.3624 65.0522 49.454 65.0522 49.5206V50.9192C65.0522 50.9858 64.9939 51.0191 64.9356 50.9858L63.7109 50.2782C63.6525 50.2449 63.6025 50.1533 63.6025 50.0867V48.6881C63.6025 48.6215 63.6609 48.5882 63.7192 48.6215L64.9439 49.3291Z" fill="#587E8B"/>
</g>
<g opacity="0.8">
<path d="M32.0269 9.5188C32.0853 9.5521 32.1352 9.64368 32.1352 9.71028V11.1089C32.1352 11.1755 32.0769 11.2088 32.0186 11.1755L30.7939 10.4679C30.7355 10.4346 30.6855 10.343 30.6855 10.2764V8.87776C30.6855 8.81116 30.7439 8.77786 30.8022 8.81116L32.0269 9.5188Z" fill="#587E8B"/>
</g>
<g opacity="0.8">
<path d="M32.0269 11.9165C32.0853 11.9498 32.1352 12.0414 32.1352 12.108V13.5066C32.1352 13.5732 32.0769 13.6065 32.0186 13.5732L30.7939 12.8656C30.7355 12.8323 30.6855 12.7407 30.6855 12.6741V11.2755C30.6855 11.2089 30.7439 11.1756 30.8022 11.2089L32.0269 11.9165Z" fill="#587E8B"/>
</g>
<path d="M33.6268 57.0138C33.8101 57.1137 33.8101 57.2885 33.6268 57.3884L27.978 60.6602C27.803 60.7601 27.5114 60.7601 27.3281 60.6602L17.1052 54.7743C16.9219 54.6661 16.9219 54.4996 17.1052 54.3997L22.7541 51.1279C22.929 51.028 23.2206 51.0197 23.4039 51.1279L33.6268 57.0138Z" fill="#617D8A"/>
<path d="M26.2865 37.1749C26.3698 37.2248 26.3781 37.2997 26.2865 37.3497L24.8784 38.1656C24.7951 38.2155 24.6535 38.2155 24.5702 38.1656L23.1538 37.3497C23.0705 37.2997 23.0705 37.2248 23.1538 37.1749L24.5618 36.359C24.6451 36.309 24.7785 36.309 24.8701 36.359L26.2865 37.1749Z" fill="#CAD5DB"/>
<path d="M28.6942 38.6568C28.7775 38.7068 28.7858 38.7817 28.6942 38.8316L27.2861 39.6475C27.2028 39.6975 27.0612 39.6975 26.9779 39.6475L25.5615 38.8316C25.4782 38.7817 25.4782 38.7068 25.5615 38.6568L26.9695 37.8409C27.0529 37.791 27.1862 37.791 27.2778 37.8409L28.6942 38.6568Z" fill="#CAD5DB"/>
<path d="M31.1605 40.1387C31.2438 40.1887 31.2521 40.2636 31.1605 40.3136L29.7525 41.1294C29.6691 41.1794 29.5275 41.1794 29.4442 41.1294L28.0278 40.3136C27.9445 40.2636 27.9445 40.1887 28.0278 40.1387L29.4359 39.3229C29.5192 39.2729 29.6525 39.2729 29.7441 39.3229L31.1605 40.1387Z" fill="#CAD5DB"/>
<path d="M33.66 41.6204C33.7433 41.6704 33.7517 41.7453 33.66 41.7952L32.252 42.6111C32.1687 42.6611 32.027 42.6611 31.9437 42.6111L30.5273 41.7952C30.444 41.7453 30.444 41.6704 30.5273 41.6204L31.9354 40.8046C32.0187 40.7546 32.152 40.7546 32.2436 40.8046L33.66 41.6204Z" fill="#CAD5DB"/>
<path d="M36.201 43.1107C36.2843 43.1606 36.2927 43.2355 36.201 43.2855L34.793 44.1013C34.7097 44.1513 34.568 44.1513 34.4847 44.1013L33.0683 43.2855C32.985 43.2355 32.985 43.1606 33.0683 43.1107L34.4764 42.2948C34.5597 42.2448 34.693 42.2448 34.7847 42.2948L36.201 43.1107Z" fill="#CAD5DB"/>
<path d="M38.8089 44.5926C38.8923 44.6425 38.9006 44.7175 38.8089 44.7674L37.4009 45.5833C37.3176 45.6332 37.1759 45.6332 37.0926 45.5833L35.6763 44.7674C35.5929 44.7175 35.5929 44.6425 35.6763 44.5926L37.0843 43.7767C37.1676 43.7268 37.3009 43.7268 37.3926 43.7767L38.8089 44.5926Z" fill="#CAD5DB"/>
<path d="M41.475 46.0745C41.5583 46.1245 41.5666 46.1994 41.475 46.2494L40.0669 47.0652C39.9836 47.1152 39.842 47.1152 39.7586 47.0652L38.3423 46.2494C38.259 46.1994 38.259 46.1245 38.3423 46.0745L39.7503 45.2587C39.8336 45.2087 39.9669 45.2087 40.0586 45.2587L41.475 46.0745Z" fill="#CAD5DB"/>
<path d="M44.0497 47.5648C44.133 47.6147 44.1413 47.6896 44.0497 47.7396L42.6416 48.5555C42.5583 48.6054 42.4167 48.6054 42.3334 48.5555L40.917 47.7396C40.8337 47.6896 40.8337 47.6147 40.917 47.5648L42.325 46.7489C42.4083 46.6989 42.5416 46.6989 42.6333 46.7489L44.0497 47.5648Z" fill="#CAD5DB"/>
<path d="M46.6239 49.0467C46.7072 49.0966 46.7155 49.1716 46.6239 49.2215L45.2158 50.0374C45.1325 50.0873 44.9909 50.0873 44.9076 50.0374L43.4912 49.2215C43.4079 49.1716 43.4079 49.0966 43.4912 49.0467L44.8992 48.2308C44.9826 48.1809 45.1159 48.1809 45.2075 48.2308L46.6239 49.0467Z" fill="#CAD5DB"/>
<path d="M49.1566 50.5284C49.2399 50.5783 49.2482 50.6533 49.1566 50.7032L47.7486 51.5191C47.6652 51.569 47.5236 51.569 47.4403 51.5191L46.0239 50.7032C45.9406 50.6533 45.9406 50.5783 46.0239 50.5284L47.4319 49.7125C47.5153 49.6626 47.6486 49.6626 47.7402 49.7125L49.1566 50.5284Z" fill="#CAD5DB"/>
<path d="M51.8143 52.0186C51.8976 52.0686 51.906 52.1435 51.8143 52.1934L50.4063 53.0093C50.323 53.0593 50.1813 53.0593 50.098 53.0093L48.6816 52.1934C48.5983 52.1435 48.5983 52.0686 48.6816 52.0186L50.0897 51.2027C50.173 51.1528 50.3063 51.1528 50.3979 51.2027L51.8143 52.0186Z" fill="#CAD5DB"/>
<path d="M54.389 53.5005C54.4723 53.5505 54.4807 53.6254 54.389 53.6754L52.981 54.4912C52.8977 54.5412 52.756 54.5412 52.6727 54.4912L51.2563 53.6754C51.173 53.6254 51.173 53.5505 51.2563 53.5005L52.6644 52.6847C52.7477 52.6347 52.881 52.6347 52.9726 52.6847L54.389 53.5005Z" fill="#CAD5DB"/>
<path d="M56.972 54.9822C57.0553 55.0322 57.0637 55.1071 56.972 55.1571L55.564 55.9729C55.4807 56.0229 55.339 56.0229 55.2557 55.9729L53.8393 55.1571C53.756 55.1071 53.756 55.0322 53.8393 54.9822L55.2474 54.1664C55.3307 54.1164 55.464 54.1164 55.5556 54.1664L56.972 54.9822Z" fill="#CAD5DB"/>
<path d="M61.0543 57.3719L59.6463 58.1877C59.563 58.2377 59.4213 58.2377 59.338 58.1877L58.08 57.4634L57.9217 57.3719L56.6553 56.6392C56.5719 56.5893 56.5719 56.5144 56.6553 56.4644L58.0716 55.6485C58.1549 55.5986 58.2883 55.5986 58.3799 55.6485L59.6463 56.3812L59.8046 56.4727L61.0627 57.197C61.146 57.247 61.1543 57.3219 61.0627 57.3719H61.0543Z" fill="#587E8B"/>
<path d="M21.0794 39.9388C21.1628 39.9887 21.1711 40.0637 21.0794 40.1136L19.6714 40.9295C19.5881 40.9794 19.4465 40.9794 19.3631 40.9295L17.9468 40.1136C17.8634 40.0637 17.8634 39.9887 17.9468 39.9388L19.3548 39.1229C19.4381 39.073 19.5714 39.073 19.6631 39.1229L21.0794 39.9388Z" fill="#CAD5DB"/>
<path d="M23.4872 41.429C23.5705 41.479 23.5788 41.5539 23.4872 41.6038L22.0791 42.4197C21.9958 42.4697 21.8542 42.4697 21.7709 42.4197L20.3545 41.6038C20.2712 41.5539 20.2712 41.479 20.3545 41.429L21.7625 40.6131C21.8458 40.5632 21.9791 40.5632 22.0708 40.6131L23.4872 41.429Z" fill="#CAD5DB"/>
<path d="M25.9535 42.9109C26.0368 42.9609 26.0451 43.0358 25.9535 43.0858L24.5454 43.9016C24.4621 43.9516 24.3205 43.9516 24.2372 43.9016L22.8208 43.0858C22.7375 43.0358 22.7375 42.9609 22.8208 42.9109L24.2288 42.0951C24.3121 42.0451 24.4454 42.0451 24.5371 42.0951L25.9535 42.9109Z" fill="#CAD5DB"/>
<path d="M28.453 44.3926C28.5363 44.4426 28.5446 44.5175 28.453 44.5675L27.0449 45.3833C26.9616 45.4333 26.82 45.4333 26.7367 45.3833L25.3203 44.5675C25.237 44.5175 25.237 44.4426 25.3203 44.3926L26.7283 43.5768C26.8117 43.5268 26.945 43.5268 27.0366 43.5768L28.453 44.3926Z" fill="#CAD5DB"/>
<path d="M30.9857 45.8829C31.069 45.9328 31.0773 46.0078 30.9857 46.0577L29.5777 46.8736C29.4943 46.9235 29.3527 46.9235 29.2694 46.8736L27.853 46.0577C27.7697 46.0078 27.7697 45.9328 27.853 45.8829L29.2611 45.067C29.3444 45.0171 29.4777 45.0171 29.5693 45.067L30.9857 45.8829Z" fill="#CAD5DB"/>
<path d="M33.6019 47.3648C33.6852 47.4148 33.6936 47.4897 33.6019 47.5396L32.1939 48.3555C32.1105 48.4055 31.9689 48.4055 31.8856 48.3555L30.4692 47.5396C30.3859 47.4897 30.3859 47.4148 30.4692 47.3648L31.8773 46.5489C31.9606 46.499 32.0939 46.499 32.1855 46.5489L33.6019 47.3648Z" fill="#CAD5DB"/>
<path d="M36.2596 48.8467C36.3429 48.8967 36.3513 48.9716 36.2596 49.0216L34.8516 49.8374C34.7683 49.8874 34.6266 49.8874 34.5433 49.8374L33.1269 49.0216C33.0436 48.9716 33.0436 48.8967 33.1269 48.8467L34.535 48.0309C34.6183 47.9809 34.7516 47.9809 34.8433 48.0309L36.2596 48.8467Z" fill="#CAD5DB"/>
<path d="M38.8343 50.337C38.9176 50.3869 38.926 50.4618 38.8343 50.5118L37.4263 51.3277C37.343 51.3776 37.2013 51.3776 37.118 51.3277L35.7016 50.5118C35.6183 50.4618 35.6183 50.3869 35.7016 50.337L37.1097 49.5211C37.193 49.4712 37.3263 49.4712 37.418 49.5211L38.8343 50.337Z" fill="#CAD5DB"/>
<path d="M41.4168 51.8189C41.5002 51.8689 41.5085 51.9438 41.4168 51.9937L40.0088 52.8096C39.9255 52.8596 39.7839 52.8596 39.7005 52.8096L38.2842 51.9937C38.2009 51.9438 38.2009 51.8689 38.2842 51.8189L39.6922 51.003C39.7755 50.9531 39.9088 50.9531 40.0005 51.003L41.4168 51.8189Z" fill="#CAD5DB"/>
<path d="M43.9413 53.3006C44.0246 53.3506 44.0329 53.4255 43.9413 53.4754L42.5332 54.2913C42.4499 54.3412 42.3083 54.3412 42.2249 54.2913L40.8086 53.4754C40.7253 53.4255 40.7253 53.3506 40.8086 53.3006L42.2166 52.4847C42.2999 52.4348 42.4332 52.4348 42.5249 52.4847L43.9413 53.3006Z" fill="#CAD5DB"/>
<path d="M46.6073 54.7825C46.6906 54.8325 46.6989 54.9074 46.6073 54.9574L45.1992 55.7732C45.1159 55.8232 44.9743 55.8232 44.891 55.7732L43.4746 54.9574C43.3913 54.9074 43.3913 54.8325 43.4746 54.7825L44.8826 53.9667C44.966 53.9167 45.0993 53.9167 45.1909 53.9667L46.6073 54.7825Z" fill="#CAD5DB"/>
<path d="M49.1737 56.2728C49.257 56.3227 49.2653 56.3976 49.1737 56.4476L47.7656 57.2635C47.6823 57.3134 47.5407 57.3134 47.4574 57.2635L46.041 56.4476C45.9577 56.3976 45.9577 56.3227 46.041 56.2728L47.449 55.4569C47.5324 55.4069 47.6657 55.4069 47.7573 55.4569L49.1737 56.2728Z" fill="#CAD5DB"/>
<path d="M51.7562 57.7547C51.8395 57.8047 51.8478 57.8796 51.7562 57.9295L50.3482 58.7454C50.2648 58.7953 50.1232 58.7953 50.0399 58.7454L48.6235 57.9295C48.5402 57.8796 48.5402 57.8047 48.6235 57.7547L50.0316 56.9388C50.1149 56.8889 50.2482 56.8889 50.3398 56.9388L51.7562 57.7547Z" fill="#CAD5DB"/>
<path d="M55.8473 60.1441L54.4393 60.9599C54.356 61.0099 54.2143 61.0099 54.131 60.9599L52.8729 60.2357L52.7146 60.1441L51.4482 59.4115C51.3649 59.3615 51.3649 59.2866 51.4482 59.2366L52.8646 58.4208C52.9479 58.3708 53.0812 58.3708 53.1729 58.4208L54.4393 59.1534L54.5976 59.245L55.8556 59.9692C55.939 60.0192 55.9473 60.0941 55.8556 60.1441H55.8473Z" fill="#CAD5DB"/>
<path d="M23.6625 38.4986C23.7458 38.5485 23.7541 38.6235 23.6625 38.6734L22.2544 39.4893C22.1711 39.5392 22.0295 39.5392 21.9461 39.4893L20.5298 38.6734C20.4465 38.6235 20.4465 38.5485 20.5298 38.4986L21.9378 37.6827C22.0211 37.6328 22.1544 37.6328 22.2461 37.6827L23.6625 38.4986Z" fill="#CAD5DB"/>
<path d="M26.3368 40.0804C26.4201 40.1303 26.4284 40.2053 26.3368 40.2552L24.9287 41.0711C24.8454 41.121 24.7038 41.121 24.6205 41.0711L23.2041 40.2552C23.1208 40.2053 23.1208 40.1303 23.2041 40.0804L24.6121 39.2645C24.6954 39.2146 24.8288 39.2146 24.9204 39.2645L26.3368 40.0804Z" fill="#CAD5DB"/>
<path d="M29.0028 41.5623C29.0861 41.6123 29.0944 41.6872 29.0028 41.7371L27.5947 42.553C27.5114 42.603 27.3698 42.603 27.2865 42.553L25.8701 41.7371C25.7868 41.6872 25.7868 41.6123 25.8701 41.5623L27.2781 40.7464C27.3615 40.6965 27.4948 40.6965 27.5864 40.7464L29.0028 41.5623Z" fill="#CAD5DB"/>
<path d="M31.6776 43.1439C31.7609 43.1938 31.7692 43.2687 31.6776 43.3187L30.2696 44.1346C30.1862 44.1845 30.0446 44.1845 29.9613 44.1346L28.5449 43.3187C28.4616 43.2687 28.4616 43.1938 28.5449 43.1439L29.9529 42.328C30.0363 42.278 30.1696 42.278 30.2612 42.328L31.6776 43.1439Z" fill="#CAD5DB"/>
<path d="M34.3519 44.6924C34.4352 44.7424 34.4436 44.8173 34.3519 44.8673L32.9439 45.6831C32.8605 45.7331 32.7189 45.7331 32.6356 45.6831L31.2192 44.8673C31.1359 44.8173 31.1359 44.7424 31.2192 44.6924L32.6273 43.8766C32.7106 43.8266 32.8439 43.8266 32.9355 43.8766L34.3519 44.6924Z" fill="#CAD5DB"/>
<path d="M37.0179 46.1243C37.1012 46.1743 37.1096 46.2492 37.0179 46.2992L35.6099 47.115C35.5266 47.165 35.3849 47.165 35.3016 47.115L33.8852 46.2992C33.8019 46.2492 33.8019 46.1743 33.8852 46.1243L35.2933 45.3085C35.3766 45.2585 35.5099 45.2585 35.6015 45.3085L37.0179 46.1243Z" fill="#CAD5DB"/>
<path d="M39.6927 47.6895C39.776 47.7395 39.7844 47.8144 39.6927 47.8643L38.2847 48.6802C38.2014 48.7302 38.0597 48.7302 37.9764 48.6802L36.56 47.8643C36.4767 47.8144 36.4767 47.7395 36.56 47.6895L37.9681 46.8736C38.0514 46.8237 38.1847 46.8237 38.2764 46.8736L39.6927 47.6895Z" fill="#CAD5DB"/>
<path d="M42.3587 49.2046C42.4421 49.2546 42.4504 49.3295 42.3587 49.3795L40.9507 50.1953C40.8674 50.2453 40.7257 50.2453 40.6424 50.1953L39.2261 49.3795C39.1427 49.3295 39.1427 49.2546 39.2261 49.2046L40.6341 48.3888C40.7174 48.3388 40.8507 48.3388 40.9424 48.3888L42.3587 49.2046Z" fill="#CAD5DB"/>
<path d="M45.0331 50.7781C45.1164 50.8281 45.1247 50.903 45.0331 50.953L43.625 51.7688C43.5417 51.8188 43.4001 51.8188 43.3168 51.7688L41.9004 50.953C41.8171 50.903 41.8171 50.8281 41.9004 50.7781L43.3084 49.9623C43.3917 49.9123 43.525 49.9123 43.6167 49.9623L45.0331 50.7781Z" fill="#CAD5DB"/>
<path d="M47.7074 52.3599C47.7907 52.4099 47.799 52.4848 47.7074 52.5347L46.2993 53.3506C46.216 53.4006 46.0744 53.4006 45.9911 53.3506L44.5747 52.5347C44.4914 52.4848 44.4914 52.4099 44.5747 52.3599L45.9827 51.5441C46.066 51.4941 46.1994 51.4941 46.291 51.5441L47.7074 52.3599Z" fill="#CAD5DB"/>
<path d="M50.3739 53.9168C50.4572 53.9668 50.4655 54.0417 50.3739 54.0916L48.9658 54.9075C48.8825 54.9575 48.7409 54.9575 48.6576 54.9075L47.2412 54.0916C47.1579 54.0417 47.1579 53.9668 47.2412 53.9168L48.6492 53.1009C48.7326 53.051 48.8659 53.051 48.9575 53.1009L50.3739 53.9168Z" fill="#CAD5DB"/>
<path d="M53.0482 55.5401C53.1315 55.59 53.1398 55.665 53.0482 55.7149L51.6402 56.5308C51.5568 56.5807 51.4152 56.5807 51.3319 56.5308L49.9155 55.7149C49.8322 55.665 49.8322 55.59 49.9155 55.5401L51.3236 54.7242C51.4069 54.6743 51.5402 54.6743 51.6318 54.7242L53.0482 55.5401Z" fill="#CAD5DB"/>
<path d="M55.7142 57.1387C55.7975 57.1887 55.8059 57.2636 55.7142 57.3136L54.3062 58.1294C54.2229 58.1794 54.0812 58.1794 53.9979 58.1294L52.5815 57.3136C52.4982 57.2636 52.4982 57.1887 52.5815 57.1387L53.9896 56.3229C54.0729 56.2729 54.2062 56.2729 54.2978 56.3229L55.7142 57.1387Z" fill="#CAD5DB"/>
<path d="M58.3885 58.6456C58.4718 58.6955 58.4802 58.7704 58.3885 58.8204L56.9805 59.6363C56.8972 59.6862 56.7555 59.6862 56.6722 59.6363L55.2558 58.8204C55.1725 58.7704 55.1725 58.6955 55.2558 58.6456L56.6639 57.8297C56.7472 57.7797 56.8805 57.7797 56.9722 57.8297L58.3885 58.6456Z" fill="#CAD5DB"/>
<path d="M18.3216 41.2708C18.4049 41.3208 18.4133 41.3957 18.3216 41.4456L16.9136 42.2615C16.8303 42.3115 16.6886 42.3115 16.6053 42.2615L15.189 41.4456C15.1056 41.3957 15.1056 41.3208 15.189 41.2708L16.597 40.4549C16.6803 40.405 16.8136 40.405 16.9053 40.4549L18.3216 41.2708Z" fill="#CAD5DB"/>
<path d="M20.9876 42.8526C21.071 42.9026 21.0793 42.9775 20.9876 43.0274L19.5796 43.8433C19.4963 43.8933 19.3547 43.8933 19.2713 43.8433L17.855 43.0274C17.7717 42.9775 17.7717 42.9026 17.855 42.8526L19.263 42.0367C19.3463 41.9868 19.4796 41.9868 19.5713 42.0367L20.9876 42.8526Z" fill="#CAD5DB"/>
<path d="M23.662 44.3343C23.7453 44.3842 23.7536 44.4592 23.662 44.5091L22.2539 45.325C22.1706 45.3749 22.029 45.3749 21.9457 45.325L20.5293 44.5091C20.446 44.4592 20.446 44.3842 20.5293 44.3343L21.9373 43.5184C22.0206 43.4685 22.1539 43.4685 22.2456 43.5184L23.662 44.3343Z" fill="#CAD5DB"/>
<path d="M26.3368 45.9161C26.4201 45.966 26.4284 46.041 26.3368 46.0909L24.9287 46.9068C24.8454 46.9567 24.7038 46.9567 24.6205 46.9068L23.2041 46.0909C23.1208 46.041 23.1208 45.966 23.2041 45.9161L24.6121 45.1002C24.6954 45.0503 24.8288 45.0503 24.9204 45.1002L26.3368 45.9161Z" fill="#CAD5DB"/>
<path d="M29.0028 47.4647C29.0861 47.5146 29.0944 47.5895 29.0028 47.6395L27.5947 48.4554C27.5114 48.5053 27.3698 48.5053 27.2865 48.4554L25.8701 47.6395C25.7868 47.5895 25.7868 47.5146 25.8701 47.4647L27.2781 46.6488C27.3615 46.5988 27.4948 46.5988 27.5864 46.6488L29.0028 47.4647Z" fill="#CAD5DB"/>
<path d="M31.6771 48.8968C31.7604 48.9467 31.7687 49.0217 31.6771 49.0716L30.2691 49.8875C30.1857 49.9374 30.0441 49.9374 29.9608 49.8875L28.5444 49.0716C28.4611 49.0217 28.4611 48.9467 28.5444 48.8968L29.9525 48.0809C30.0358 48.031 30.1691 48.031 30.2607 48.0809L31.6771 48.8968Z" fill="#CAD5DB"/>
<path d="M34.3514 50.4617C34.4347 50.5117 34.4431 50.5866 34.3514 50.6366L32.9434 51.4524C32.8601 51.5024 32.7184 51.5024 32.6351 51.4524L31.2187 50.6366C31.1354 50.5866 31.1354 50.5117 31.2187 50.4617L32.6268 49.6459C32.7101 49.5959 32.8434 49.5959 32.935 49.6459L34.3514 50.4617Z" fill="#CAD5DB"/>
<path d="M37.0179 51.9771C37.1012 52.0271 37.1096 52.102 37.0179 52.1519L35.6099 52.9678C35.5266 53.0178 35.3849 53.0178 35.3016 52.9678L33.8852 52.1519C33.8019 52.102 33.8019 52.0271 33.8852 51.9771L35.2933 51.1612C35.3766 51.1113 35.5099 51.1113 35.6015 51.1612L37.0179 51.9771Z" fill="#CAD5DB"/>
<path d="M39.6922 53.5506C39.7756 53.6005 39.7839 53.6755 39.6922 53.7254L38.2842 54.5413C38.2009 54.5912 38.0592 54.5912 37.9759 54.5413L36.5596 53.7254C36.4762 53.6755 36.4762 53.6005 36.5596 53.5506L37.9676 52.7347C38.0509 52.6848 38.1842 52.6848 38.2759 52.7347L39.6922 53.5506Z" fill="#CAD5DB"/>
<path d="M42.3583 55.1321C42.4416 55.1821 42.4499 55.257 42.3583 55.307L40.9502 56.1228C40.8669 56.1728 40.7253 56.1728 40.6419 56.1228L39.2256 55.307C39.1423 55.257 39.1423 55.1821 39.2256 55.1321L40.6336 54.3163C40.7169 54.2663 40.8502 54.2663 40.9419 54.3163L42.3583 55.1321Z" fill="#CAD5DB"/>
<path d="M45.0331 56.689C45.1164 56.739 45.1247 56.8139 45.0331 56.8639L43.625 57.6797C43.5417 57.7297 43.4001 57.7297 43.3168 57.6797L41.9004 56.8639C41.8171 56.8139 41.8171 56.739 41.9004 56.689L43.3084 55.8732C43.3917 55.8232 43.525 55.8232 43.6167 55.8732L45.0331 56.689Z" fill="#CAD5DB"/>
<path d="M47.7074 58.3126C47.7907 58.3625 47.799 58.4374 47.7074 58.4874L46.2993 59.3033C46.216 59.3532 46.0744 59.3532 45.9911 59.3033L44.5747 58.4874C44.4914 58.4374 44.4914 58.3625 44.5747 58.3126L45.9827 57.4967C46.066 57.4467 46.1994 57.4467 46.291 57.4967L47.7074 58.3126Z" fill="#CAD5DB"/>
<path d="M50.3734 59.9109C50.4567 59.9609 50.465 60.0358 50.3734 60.0858L48.9653 60.9016C48.882 60.9516 48.7404 60.9516 48.6571 60.9016L47.2407 60.0858C47.1574 60.0358 47.1574 59.9609 47.2407 59.9109L48.6488 59.0951C48.7321 59.0451 48.8654 59.0451 48.957 59.0951L50.3734 59.9109Z" fill="#CAD5DB"/>
<path d="M53.0477 61.4178C53.131 61.4677 53.1394 61.5427 53.0477 61.5926L51.6397 62.4085C51.5563 62.4584 51.4147 62.4584 51.3314 62.4085L49.915 61.5926C49.8317 61.5427 49.8317 61.4677 49.915 61.4178L51.3231 60.6019C51.4064 60.552 51.5397 60.552 51.6313 60.6019L53.0477 61.4178Z" fill="#CAD5DB"/>
<path d="M29.8441 34.9854C29.9274 35.0354 29.9357 35.1103 29.8441 35.1602L28.4361 35.9761C28.3527 36.0261 28.2111 36.0261 28.1278 35.9761L26.7114 35.1602C26.6281 35.1103 26.6281 35.0354 26.7114 34.9854L28.1195 34.1695C28.2028 34.1196 28.3361 34.1196 28.4277 34.1695L29.8441 34.9854Z" fill="#5E2AD6"/>
<path d="M29.8441 34.9854C29.9274 35.0354 29.9357 35.1103 29.8441 35.1602L28.4361 35.9761C28.3527 36.0261 28.2111 36.0261 28.1278 35.9761L26.7114 35.1602C26.6281 35.1103 26.6281 35.0354 26.7114 34.9854L28.1195 34.1695C28.2028 34.1196 28.3361 34.1196 28.4277 34.1695L29.8441 34.9854Z" fill="url(#paint0_linear_1771_6019)"/>
<path d="M65.0033 55.0574C65.0866 55.1074 65.0949 55.1823 65.0033 55.2323L63.5952 56.0481C63.5119 56.0981 63.3703 56.0981 63.287 56.0481L61.8706 55.2323C61.7873 55.1823 61.7873 55.1074 61.8706 55.0574L63.2786 54.2416C63.3619 54.1916 63.4953 54.1916 63.5869 54.2416L65.0033 55.0574Z" fill="#5E2AD6"/>
<path d="M65.0038 55.0574C65.0871 55.1074 65.0954 55.1823 65.0038 55.2323L63.5957 56.0481C63.5124 56.0981 63.3708 56.0981 63.2875 56.0481L61.8711 55.2323C61.7878 55.1823 61.7878 55.1074 61.8711 55.0574L63.2791 54.2416C63.3624 54.1916 63.4957 54.1916 63.5874 54.2416L65.0038 55.0574Z" fill="url(#paint1_linear_1771_6019)"/>
<g opacity="0.7">
<path d="M69.5275 24.2958L69.4442 53.8752C69.4442 54.075 69.3692 54.2165 69.2609 54.2915L67.9528 55.0491C67.8528 55.1406 67.7029 55.1573 67.5362 55.0907L67.5946 55.124C67.7778 55.2322 67.8612 55.3654 67.8612 55.4986C67.8612 55.4986 67.8612 55.5236 67.8612 55.5319C67.8612 55.5319 67.8612 55.5236 67.8612 55.5153V57.3635C67.8612 57.4967 67.7695 57.6299 67.5946 57.7298L41.9582 72.5902C41.6083 72.7983 41.0251 72.7983 40.6752 72.5902L1.89161 50.2537C1.71665 50.1538 1.625 50.0206 1.625 49.8874V48.0143C1.625 47.8811 1.71665 47.7395 1.89161 47.6396L27.5279 32.7792C27.8529 32.596 28.3527 32.5794 28.711 32.7292L28.661 32.7043C28.3111 32.4961 28.0195 32.005 28.0195 31.597L28.1028 2.01766C28.1028 1.80121 28.1861 1.65135 28.3111 1.59308C28.3278 1.58475 28.3527 1.57643 28.3777 1.5681C28.3611 1.5681 28.3361 1.57643 28.3194 1.58475L29.7108 0.777211C29.8191 0.74391 29.9524 0.768886 30.1024 0.852138L68.8859 23.1886C69.2442 23.3967 69.5275 23.8879 69.5275 24.2958Z" fill="url(#paint2_linear_1771_6019)"/>
</g>
<path d="M69.5275 24.2875L69.4442 53.8669C69.4442 54.0667 69.3692 54.2082 69.2609 54.2831L67.9528 55.0407C67.8528 55.1323 67.7029 55.149 67.5362 55.0824L67.5946 55.1157C67.7778 55.2239 67.8612 55.3571 67.8612 55.4903C67.8612 55.4903 67.8612 55.5153 67.8612 55.5236C67.8612 55.5236 67.8612 55.5153 67.8612 55.507V57.3551C67.8612 57.4883 67.7695 57.6215 67.5946 57.7215L41.9582 72.5819C41.6083 72.79 41.0251 72.79 40.6752 72.5819L1.89161 50.2454C1.71665 50.1455 1.625 50.0123 1.625 49.8791V48.006C1.625 47.8728 1.71665 47.7312 1.89161 47.6313L27.5279 32.7709C27.8529 32.5877 28.3527 32.5711 28.711 32.7209L28.661 32.696C28.3111 32.4878 28.0195 31.9967 28.0195 31.5887L28.1028 2.00936C28.1028 1.79291 28.1861 1.64305 28.3111 1.58478C28.3278 1.57645 28.3528 1.56812 28.3777 1.5598C28.3611 1.5598 28.3361 1.56813 28.3194 1.57645L29.7108 0.76891C29.8191 0.73561 29.9524 0.760585 30.1024 0.843837L68.8859 23.1803C69.2442 23.3884 69.5275 23.8796 69.5275 24.2875Z" fill="url(#paint3_linear_1771_6019)"/>
<path d="M38.8872 14.5427C38.8872 13.0045 40.5511 12.0421 41.8844 12.809L63.261 25.1053C63.8813 25.4621 64.2638 26.1233 64.2638 26.8389V44.4569C64.2638 45.9951 62.5999 46.9575 61.2665 46.1906L39.89 33.8943C39.2696 33.5375 38.8872 32.8764 38.8872 32.1607V14.5427Z" fill="#6E17FF" fill-opacity="0.2"/>
<path d="M37.7642 15.2163C37.7642 13.6781 39.4281 12.7157 40.7614 13.4826L62.1379 25.7789C62.7583 26.1357 63.1407 26.7968 63.1407 27.5125V45.1305C63.1407 46.6687 61.4768 47.6311 60.1435 46.8642L38.7669 34.5679C38.1466 34.2111 37.7642 33.5499 37.7642 32.8343V15.2163Z" fill="#6E17FF" fill-opacity="0.8"/>
<g filter="url(#filter1_d_1771_6019)">
<g filter="url(#filter2_d_1771_6019)">
<path fill-rule="evenodd" clip-rule="evenodd" d="M39.5904 17.5984C39.6519 17.4907 39.7891 17.4533 39.8968 17.5148L40.1214 17.643C40.2291 17.7046 40.2665 17.8417 40.205 17.9494C40.1435 18.0571 40.0063 18.0946 39.8986 18.0331L39.674 17.9048C39.5663 17.8433 39.5289 17.7061 39.5904 17.5984ZM44.3064 20.2922C44.3679 20.1845 44.5051 20.147 44.6128 20.2085L46.8585 21.4913C46.9662 21.5528 47.0036 21.69 46.9421 21.7977C46.8806 21.9054 46.7434 21.9428 46.6357 21.8813L44.39 20.5985C44.2823 20.537 44.2449 20.3999 44.3064 20.2922ZM47.4504 22.088C47.5119 21.9803 47.6491 21.9429 47.7568 22.0044L48.4305 22.3892C48.5382 22.4507 48.5756 22.5879 48.5141 22.6956C48.4526 22.8033 48.3154 22.8407 48.2077 22.7792L47.534 22.3944C47.4263 22.3329 47.3889 22.1957 47.4504 22.088ZM49.0262 22.9881C49.0877 22.8804 49.2249 22.843 49.3326 22.9045L51.1253 23.9285C51.233 23.99 51.2705 24.1272 51.209 24.2349C51.1474 24.3426 51.0103 24.38 50.9026 24.3185L49.1098 23.2945C49.0021 23.233 48.9647 23.0958 49.0262 22.9881ZM51.7172 24.5252C51.7788 24.4175 51.9159 24.3801 52.0236 24.4416L52.2482 24.5699C52.3559 24.6314 52.3933 24.7686 52.3318 24.8763C52.2703 24.984 52.1331 25.0214 52.0254 24.9599L51.8009 24.8316C51.6932 24.7701 51.6557 24.6329 51.7172 24.5252ZM52.8401 25.1666C52.9016 25.0589 53.0388 25.0215 53.1465 25.083L55.6168 26.494C55.7245 26.5555 55.7619 26.6927 55.7004 26.8004C55.6389 26.9081 55.5017 26.9455 55.394 26.884L52.9237 25.473C52.816 25.4115 52.7786 25.2743 52.8401 25.1666ZM56.2087 27.0907C56.2702 26.983 56.4074 26.9456 56.5151 27.0071L58.0871 27.905C58.1948 27.9666 58.2322 28.1037 58.1707 28.2114C58.1092 28.3191 57.972 28.3566 57.8643 28.295L56.2923 27.3971C56.1846 27.3356 56.1472 27.1984 56.2087 27.0907ZM58.679 28.5018C58.7405 28.3941 58.8776 28.3566 58.9853 28.4181L60.6329 29.3592C60.7406 29.4208 60.7781 29.5579 60.7166 29.6656C60.655 29.7733 60.5179 29.8108 60.4102 29.7492L58.7626 28.8081C58.6549 28.7466 58.6174 28.6094 58.679 28.5018Z" fill="white"/>
</g>
<g filter="url(#filter3_d_1771_6019)">
<path fill-rule="evenodd" clip-rule="evenodd" d="M39.5904 20.2932C39.6519 20.1855 39.7891 20.1481 39.8968 20.2096L41.0196 20.851C41.1273 20.9125 41.1648 21.0497 41.1033 21.1574C41.0417 21.2651 40.9046 21.3025 40.7969 21.241L39.674 20.5996C39.5663 20.5381 39.5289 20.4009 39.5904 20.2932ZM41.6115 21.4477C41.6731 21.34 41.8102 21.3026 41.9179 21.3641L44.8374 23.0316C44.9451 23.0932 44.9825 23.2303 44.921 23.338C44.8595 23.4457 44.7223 23.4832 44.6146 23.4216L41.6952 21.7541C41.5875 21.6926 41.55 21.5554 41.6115 21.4477ZM45.4293 23.6284C45.4908 23.5207 45.6279 23.4832 45.7356 23.5447L49.3326 25.5993C49.4403 25.6608 49.4777 25.798 49.4162 25.9057C49.3547 26.0134 49.2175 26.0508 49.1098 25.9893L45.5129 23.9347C45.4052 23.8732 45.3677 23.7361 45.4293 23.6284ZM49.9207 26.1939C49.9822 26.0862 50.1194 26.0487 50.2271 26.1102L51.5745 26.8799C51.6822 26.9414 51.7196 27.0786 51.6581 27.1863C51.5966 27.294 51.4594 27.3314 51.3517 27.2699L50.0043 26.5002C49.8966 26.4387 49.8592 26.3016 49.9207 26.1939ZM52.1714 27.4795C52.233 27.3718 52.3701 27.3344 52.4778 27.3959L56.0659 29.4454C56.1736 29.5069 56.211 29.6441 56.1495 29.7518C56.088 29.8595 55.9508 29.8969 55.8431 29.8354L52.2551 27.7859C52.1474 27.7244 52.1099 27.5872 52.1714 27.4795ZM56.6578 30.0421C56.7193 29.9344 56.8565 29.897 56.9642 29.9585L60.6329 32.0541C60.7406 32.1156 60.7781 32.2528 60.7166 32.3605C60.655 32.4681 60.5179 32.5056 60.4102 32.4441L56.7414 30.3485C56.6337 30.287 56.5963 30.1498 56.6578 30.0421Z" fill="white"/>
</g>
<g filter="url(#filter4_d_1771_6019)">
<path fill-rule="evenodd" clip-rule="evenodd" d="M39.5904 28.3777C39.6519 28.27 39.7891 28.2326 39.8968 28.2941L41.0196 28.9354C41.1273 28.997 41.1648 29.1341 41.1033 29.2418C41.0417 29.3495 40.9046 29.387 40.7969 29.3254L39.674 28.6841C39.5663 28.6226 39.5289 28.4854 39.5904 28.3777ZM45.4293 31.7128C45.4908 31.6051 45.6279 31.5677 45.7356 31.6292L49.3326 33.6838C49.4403 33.7453 49.4777 33.8825 49.4162 33.9902C49.3547 34.0979 49.2175 34.1353 49.1098 34.0738L45.5129 32.0192C45.4052 31.9577 45.3677 31.8205 45.4293 31.7128ZM49.9207 34.2783C49.9822 34.1706 50.1194 34.1332 50.2271 34.1947L51.5745 34.9644C51.6822 35.0259 51.7196 35.1631 51.6581 35.2707C51.5966 35.3784 51.4594 35.4159 51.3517 35.3544L50.0043 34.5847C49.8966 34.5232 49.8592 34.386 49.9207 34.2783ZM52.1714 35.564C52.233 35.4563 52.3701 35.4188 52.4778 35.4804L55.1676 37.0168C55.2753 37.0783 55.3128 37.2155 55.2512 37.3231C55.1897 37.4308 55.0526 37.4683 54.9449 37.4068L52.2551 35.8704C52.1474 35.8088 52.1099 35.6717 52.1714 35.564ZM55.7595 37.6135C55.821 37.5058 55.9582 37.4683 56.0659 37.5299L56.9642 38.043C57.0719 38.1045 57.1093 38.2416 57.0478 38.3493C56.9863 38.457 56.8491 38.4945 56.7414 38.433L55.8431 37.9199C55.7354 37.8583 55.698 37.7212 55.7595 37.6135ZM57.5561 38.6397C57.6176 38.532 57.7548 38.4945 57.8625 38.5561L60.6329 40.1385C60.7406 40.2001 60.7781 40.3372 60.7166 40.4449C60.655 40.5526 60.5179 40.5901 60.4102 40.5285L57.6397 38.9461C57.532 38.8845 57.4946 38.7474 57.5561 38.6397Z" fill="white"/>
</g>
<g filter="url(#filter5_d_1771_6019)">
<path fill-rule="evenodd" clip-rule="evenodd" d="M39.5904 22.988C39.6519 22.8803 39.7891 22.8429 39.8968 22.9044L40.1214 23.0327C40.2291 23.0942 40.2665 23.2314 40.205 23.3391C40.1435 23.4468 40.0063 23.4842 39.8986 23.4227L39.674 23.2944C39.5663 23.2329 39.5289 23.0957 39.5904 22.988ZM40.7133 23.6294C40.7748 23.5217 40.9119 23.4843 41.0196 23.5458L43.4899 24.9568C43.5976 25.0183 43.6351 25.1555 43.5735 25.2632C43.512 25.3709 43.3749 25.4083 43.2672 25.3468L40.7969 23.9358C40.6892 23.8743 40.6517 23.7371 40.7133 23.6294ZM44.0818 25.5535C44.1433 25.4458 44.2805 25.4084 44.3882 25.4699L47.5322 27.2658C47.6399 27.3273 47.6773 27.4645 47.6158 27.5722C47.5543 27.6798 47.4171 27.7173 47.3094 27.6558L44.1654 25.8599C44.0577 25.7984 44.0203 25.6612 44.0818 25.5535ZM54.4121 31.4542C54.4736 31.3465 54.6108 31.309 54.7185 31.3706L57.1957 32.7856C57.3034 32.8471 57.3409 32.9842 57.2793 33.0919C57.2178 33.1996 57.0807 33.2371 56.973 33.1756L54.4957 31.7606C54.388 31.699 54.3506 31.5619 54.4121 31.4542ZM57.7807 33.3783C57.8422 33.2706 57.9794 33.2332 58.0871 33.2947L60.6329 34.7489C60.7406 34.8104 60.7781 34.9476 60.7166 35.0553C60.655 35.163 60.5179 35.2004 60.4102 35.1389L57.8643 33.6847C57.7566 33.6232 57.7192 33.486 57.7807 33.3783Z" fill="white"/>
</g>
<g filter="url(#filter6_d_1771_6019)">
<path fill-rule="evenodd" clip-rule="evenodd" d="M39.5904 25.6829C39.6519 25.5752 39.7891 25.5377 39.8968 25.5992L40.5705 25.9841C40.6782 26.0456 40.7156 26.1828 40.6541 26.2905C40.5926 26.3982 40.4554 26.4356 40.3477 26.3741L39.674 25.9892C39.5663 25.9277 39.5289 25.7906 39.5904 25.6829ZM45.6538 29.1463C45.7153 29.0386 45.8525 29.0012 45.9602 29.0627L47.7599 30.0907C47.8676 30.1522 47.9051 30.2894 47.8436 30.3971C47.782 30.5048 47.6449 30.5422 47.5372 30.4807L45.7374 29.4527C45.6297 29.3912 45.5923 29.254 45.6538 29.1463ZM48.3487 30.6856C48.4102 30.5779 48.5474 30.5404 48.6551 30.602L52.6973 32.9109C52.805 32.9724 52.8425 33.1096 52.781 33.2173C52.7194 33.325 52.5823 33.3624 52.4746 33.3009L48.4323 30.992C48.3246 30.9305 48.2872 30.7933 48.3487 30.6856ZM54.8612 34.4056C54.9228 34.2979 55.0599 34.2604 55.1676 34.3219L58.9853 36.5026C59.093 36.5641 59.1305 36.7013 59.069 36.809C59.0074 36.9167 58.8703 36.9541 58.7626 36.8926L54.9449 34.7119C54.8372 34.6504 54.7997 34.5133 54.8612 34.4056ZM59.5772 37.0993C59.6388 36.9916 59.7759 36.9542 59.8836 37.0157L60.6329 37.4437C60.7406 37.5052 60.7781 37.6424 60.7166 37.7501C60.655 37.8578 60.5179 37.8952 60.4102 37.8337L59.6609 37.4057C59.5532 37.3442 59.5157 37.207 59.5772 37.0993Z" fill="white"/>
</g>
<path fill-rule="evenodd" clip-rule="evenodd" d="M39.5904 31.0725C39.6519 30.9648 39.7891 30.9274 39.8968 30.9889L40.5705 31.3737C40.6782 31.4352 40.7156 31.5724 40.6541 31.6801C40.5926 31.7878 40.4554 31.8252 40.3477 31.7637L39.674 31.3789C39.5663 31.3174 39.5289 31.1802 39.5904 31.0725ZM42.7357 32.8691C42.7972 32.7614 42.9344 32.7239 43.0421 32.7855L43.7145 33.1696C43.8222 33.2311 43.8596 33.3683 43.7981 33.476C43.7366 33.5837 43.5994 33.6211 43.4917 33.5596L42.8193 33.1755C42.7116 33.114 42.6741 32.9768 42.7357 32.8691ZM47.0013 35.3056C47.0628 35.1979 47.1999 35.1604 47.3076 35.222L49.7779 36.633C49.8856 36.6945 49.9231 36.8317 49.8615 36.9394C49.8 37.0471 49.6628 37.0845 49.5552 37.023L47.0849 35.612C46.9772 35.5505 46.9397 35.4133 47.0013 35.3056ZM50.3698 37.2297C50.4313 37.122 50.5685 37.0846 50.6762 37.1461L52.9219 38.4288C53.0296 38.4904 53.0671 38.6275 53.0055 38.7352C52.944 38.8429 52.8068 38.8804 52.6991 38.8188L50.4534 37.5361C50.3457 37.4746 50.3083 37.3374 50.3698 37.2297ZM53.5138 39.0256C53.5753 38.9179 53.7125 38.8804 53.8202 38.9419L54.4939 39.3268C54.6016 39.3883 54.6391 39.5255 54.5775 39.6331C54.516 39.7408 54.3788 39.7783 54.2711 39.7168L53.5974 39.3319C53.4897 39.2704 53.4523 39.1332 53.5138 39.0256ZM55.0858 39.9235C55.1473 39.8158 55.2845 39.7783 55.3922 39.8399L56.0659 40.2247C56.1736 40.2862 56.211 40.4234 56.1495 40.5311C56.088 40.6388 55.9508 40.6762 55.8431 40.6147L55.1694 40.2299C55.0617 40.1683 55.0243 40.0312 55.0858 39.9235ZM56.6578 40.8214C56.7193 40.7137 56.8565 40.6763 56.9642 40.7378L60.6329 42.8334C60.7406 42.8949 60.7781 43.0321 60.7166 43.1397C60.655 43.2474 60.5179 43.2849 60.4102 43.2234L56.7414 41.1278C56.6337 41.0663 56.5963 40.9291 56.6578 40.8214Z" fill="white"/>
</g>
<g filter="url(#filter7_d_1771_6019)">
<g filter="url(#filter8_d_1771_6019)">
<path fill-rule="evenodd" clip-rule="evenodd" d="M41.1627 26.5808C41.2242 26.4731 41.3614 26.4357 41.4691 26.4972L42.8457 27.2836C42.9534 27.3451 42.9909 27.4822 42.9294 27.5899C42.8678 27.6976 42.7307 27.7351 42.623 27.6736L41.2463 26.8872C41.1386 26.8257 41.1012 26.6885 41.1627 26.5808Z" fill="#FFC1FF"/>
</g>
<g filter="url(#filter9_d_1771_6019)">
<path fill-rule="evenodd" clip-rule="evenodd" d="M41.1627 31.9707C41.2242 31.863 41.3614 31.8256 41.4691 31.8871L42.1428 32.2719C42.2505 32.3334 42.2879 32.4706 42.2264 32.5783C42.1649 32.686 42.0277 32.7234 41.92 32.6619L41.2463 32.2771C41.1386 32.2156 41.1012 32.0784 41.1627 31.9707ZM44.3086 33.7676C44.3701 33.6599 44.5073 33.6225 44.6149 33.684L46.4096 34.7091C46.5173 34.7707 46.5548 34.9078 46.4932 35.0155C46.4317 35.1232 46.2945 35.1607 46.1869 35.0991L44.3922 34.074C44.2845 34.0125 44.247 33.8753 44.3086 33.7676Z" fill="#FFC1FF"/>
</g>
<g filter="url(#filter10_d_1771_6019)">
<path fill-rule="evenodd" clip-rule="evenodd" d="M50.1456 29.0171C50.2071 28.9094 50.3443 28.872 50.452 28.9335L53.8205 30.8576C53.9282 30.9191 53.9657 31.0563 53.9042 31.164C53.8426 31.2717 53.7055 31.3091 53.5978 31.2476L50.2292 29.3235C50.1215 29.262 50.0841 29.1248 50.1456 29.0171Z" fill="#FFC1FF"/>
</g>
<g filter="url(#filter11_d_1771_6019)">
<path fill-rule="evenodd" clip-rule="evenodd" d="M53.2896 33.5078C53.3511 33.4001 53.4883 33.3627 53.596 33.4242L54.2697 33.809C54.3774 33.8705 54.4149 34.0077 54.3533 34.1154C54.2918 34.2231 54.1547 34.2605 54.047 34.199L53.3732 33.8142C53.2655 33.7527 53.2281 33.6155 53.2896 33.5078Z" fill="#FFC1FF"/>
</g>
<g filter="url(#filter12_d_1771_6019)">
<path fill-rule="evenodd" clip-rule="evenodd" d="M40.7134 18.2397C40.775 18.1321 40.9121 18.0946 41.0198 18.1561L43.7147 19.6954C43.8224 19.7569 43.8598 19.8941 43.7983 20.0018C43.7368 20.1095 43.5996 20.1469 43.4919 20.0854L40.7971 18.5461C40.6894 18.4846 40.6519 18.3474 40.7134 18.2397Z" fill="#FFC1FF"/>
</g>
<g filter="url(#filter13_d_1771_6019)">
<path fill-rule="evenodd" clip-rule="evenodd" d="M41.6119 29.5322C41.6734 29.4245 41.8106 29.3871 41.9183 29.4486L44.8377 31.1162C44.9454 31.1777 44.9828 31.3149 44.9213 31.4226C44.8598 31.5303 44.7226 31.5677 44.6149 31.5062L41.6955 29.8386C41.5878 29.7771 41.5504 29.6399 41.6119 29.5322Z" fill="#FFC1FF"/>
</g>
</g>
<path d="M36.417 12.3045C36.417 10.7646 38.0842 9.8024 39.4175 10.5728L42.1547 12.1542C42.7732 12.5116 43.1541 13.1717 43.1541 13.886V14.3566C43.1541 15.8965 41.4869 16.8587 40.1536 16.0883L37.4164 14.5068C36.7979 14.1495 36.417 13.4894 36.417 12.7751V12.3045Z" fill="#00FDFE" fill-opacity="0.8"/>
<path d="M39.4707 13.2963L38.2135 13.1597L38.1712 12.6673L39.0838 12.8066L38.304 11.8218L38.4743 11.4703L39.5448 12.8666L39.4707 13.2963Z" fill="white"/>
<path d="M39.8706 13.6675L41.4426 14.5725V14.9947L39.8706 14.0874V13.6675Z" fill="white"/>
<defs>
<filter id="filter0_d_1771_6019" x="0.498398" y="32.5267" width="68.7163" height="41.596" filterUnits="userSpaceOnUse" color-interpolation-filters="sRGB">
<feFlood flood-opacity="0" result="BackgroundImageFix"/>
<feColorMatrix in="SourceAlpha" type="matrix" values="0 0 0 0 0 0 0 0 0 0 0 0 0 0 0 0 0 0 127 0" result="hardAlpha"/>
<feOffset dx="0.13" dy="0.13"/>
<feGaussianBlur stdDeviation="0.62"/>
<feColorMatrix type="matrix" values="0 0 0 0 0 0 0 0 0 0 0 0 0 0 0 0 0 0 0.2 0"/>
<feBlend mode="normal" in2="BackgroundImageFix" result="effect1_dropShadow_1771_6019"/>
<feBlend mode="normal" in="SourceGraphic" in2="effect1_dropShadow_1771_6019" result="shape"/>
</filter>
<filter id="filter1_d_1771_6019" x="35.561" y="13.4851" width="29.1851" height="33.7678" filterUnits="userSpaceOnUse" color-interpolation-filters="sRGB">
<feFlood flood-opacity="0" result="BackgroundImageFix"/>
<feColorMatrix in="SourceAlpha" type="matrix" values="0 0 0 0 0 0 0 0 0 0 0 0 0 0 0 0 0 0 127 0" result="hardAlpha"/>
<feOffset/>
<feGaussianBlur stdDeviation="2"/>
<feComposite in2="hardAlpha" operator="out"/>
<feColorMatrix type="matrix" values="0 0 0 0 1 0 0 0 0 1 0 0 0 0 1 0 0 0 0.6 0"/>
<feBlend mode="normal" in2="BackgroundImageFix" result="effect1_dropShadow_1771_6019"/>
<feBlend mode="normal" in="SourceGraphic" in2="effect1_dropShadow_1771_6019" result="shape"/>
</filter>
<filter id="filter2_d_1771_6019" x="34.561" y="7.48511" width="41.1851" height="32.2937" filterUnits="userSpaceOnUse" color-interpolation-filters="sRGB">
<feFlood flood-opacity="0" result="BackgroundImageFix"/>
<feColorMatrix in="SourceAlpha" type="matrix" values="0 0 0 0 0 0 0 0 0 0 0 0 0 0 0 0 0 0 127 0" result="hardAlpha"/>
<feOffset dx="5"/>
<feGaussianBlur stdDeviation="5"/>
<feComposite in2="hardAlpha" operator="out"/>
<feColorMatrix type="matrix" values="0 0 0 0 1 0 0 0 0 1 0 0 0 0 1 0 0 0 0.25 0"/>
<feBlend mode="normal" in2="BackgroundImageFix" result="effect1_dropShadow_1771_6019"/>
<feBlend mode="normal" in="SourceGraphic" in2="effect1_dropShadow_1771_6019" result="shape"/>
</filter>
<filter id="filter3_d_1771_6019" x="34.561" y="10.1799" width="41.1851" height="32.2937" filterUnits="userSpaceOnUse" color-interpolation-filters="sRGB">
<feFlood flood-opacity="0" result="BackgroundImageFix"/>
<feColorMatrix in="SourceAlpha" type="matrix" values="0 0 0 0 0 0 0 0 0 0 0 0 0 0 0 0 0 0 127 0" result="hardAlpha"/>
<feOffset dx="5"/>
<feGaussianBlur stdDeviation="5"/>
<feComposite in2="hardAlpha" operator="out"/>
<feColorMatrix type="matrix" values="0 0 0 0 1 0 0 0 0 1 0 0 0 0 1 0 0 0 0.25 0"/>
<feBlend mode="normal" in2="BackgroundImageFix" result="effect1_dropShadow_1771_6019"/>
<feBlend mode="normal" in="SourceGraphic" in2="effect1_dropShadow_1771_6019" result="shape"/>
</filter>
<filter id="filter4_d_1771_6019" x="34.561" y="18.2644" width="41.1851" height="32.2937" filterUnits="userSpaceOnUse" color-interpolation-filters="sRGB">
<feFlood flood-opacity="0" result="BackgroundImageFix"/>
<feColorMatrix in="SourceAlpha" type="matrix" values="0 0 0 0 0 0 0 0 0 0 0 0 0 0 0 0 0 0 127 0" result="hardAlpha"/>
<feOffset dx="5"/>
<feGaussianBlur stdDeviation="5"/>
<feComposite in2="hardAlpha" operator="out"/>
<feColorMatrix type="matrix" values="0 0 0 0 1 0 0 0 0 1 0 0 0 0 1 0 0 0 0.25 0"/>
<feBlend mode="normal" in2="BackgroundImageFix" result="effect1_dropShadow_1771_6019"/>
<feBlend mode="normal" in="SourceGraphic" in2="effect1_dropShadow_1771_6019" result="shape"/>
</filter>
<filter id="filter5_d_1771_6019" x="34.561" y="12.8748" width="41.1851" height="32.2937" filterUnits="userSpaceOnUse" color-interpolation-filters="sRGB">
<feFlood flood-opacity="0" result="BackgroundImageFix"/>
<feColorMatrix in="SourceAlpha" type="matrix" values="0 0 0 0 0 0 0 0 0 0 0 0 0 0 0 0 0 0 127 0" result="hardAlpha"/>
<feOffset dx="5"/>
<feGaussianBlur stdDeviation="5"/>
<feComposite in2="hardAlpha" operator="out"/>
<feColorMatrix type="matrix" values="0 0 0 0 1 0 0 0 0 1 0 0 0 0 1 0 0 0 0.25 0"/>
<feBlend mode="normal" in2="BackgroundImageFix" result="effect1_dropShadow_1771_6019"/>
<feBlend mode="normal" in="SourceGraphic" in2="effect1_dropShadow_1771_6019" result="shape"/>
</filter>
<filter id="filter6_d_1771_6019" x="34.561" y="15.5696" width="41.1851" height="32.2937" filterUnits="userSpaceOnUse" color-interpolation-filters="sRGB">
<feFlood flood-opacity="0" result="BackgroundImageFix"/>
<feColorMatrix in="SourceAlpha" type="matrix" values="0 0 0 0 0 0 0 0 0 0 0 0 0 0 0 0 0 0 127 0" result="hardAlpha"/>
<feOffset dx="5"/>
<feGaussianBlur stdDeviation="5"/>
<feComposite in2="hardAlpha" operator="out"/>
<feColorMatrix type="matrix" values="0 0 0 0 1 0 0 0 0 1 0 0 0 0 1 0 0 0 0.25 0"/>
<feBlend mode="normal" in2="BackgroundImageFix" result="effect1_dropShadow_1771_6019"/>
<feBlend mode="normal" in="SourceGraphic" in2="effect1_dropShadow_1771_6019" result="shape"/>
</filter>
<filter id="filter7_d_1771_6019" x="36.6841" y="14.1265" width="21.6987" height="25.0022" filterUnits="userSpaceOnUse" color-interpolation-filters="sRGB">
<feFlood flood-opacity="0" result="BackgroundImageFix"/>
<feColorMatrix in="SourceAlpha" type="matrix" values="0 0 0 0 0 0 0 0 0 0 0 0 0 0 0 0 0 0 127 0" result="hardAlpha"/>
<feOffset/>
<feGaussianBlur stdDeviation="2"/>
<feComposite in2="hardAlpha" operator="out"/>
<feColorMatrix type="matrix" values="0 0 0 0 1 0 0 0 0 0.756863 0 0 0 0 1 0 0 0 0.6 0"/>
<feBlend mode="normal" in2="BackgroundImageFix" result="effect1_dropShadow_1771_6019"/>
<feBlend mode="normal" in="SourceGraphic" in2="effect1_dropShadow_1771_6019" result="shape"/>
</filter>
<filter id="filter8_d_1771_6019" x="36.1333" y="16.4675" width="21.8257" height="21.2356" filterUnits="userSpaceOnUse" color-interpolation-filters="sRGB">
<feFlood flood-opacity="0" result="BackgroundImageFix"/>
<feColorMatrix in="SourceAlpha" type="matrix" values="0 0 0 0 0 0 0 0 0 0 0 0 0 0 0 0 0 0 127 0" result="hardAlpha"/>
<feOffset dx="5"/>
<feGaussianBlur stdDeviation="5"/>
<feComposite in2="hardAlpha" operator="out"/>
<feColorMatrix type="matrix" values="0 0 0 0 1 0 0 0 0 1 0 0 0 0 1 0 0 0 0.25 0"/>
<feBlend mode="normal" in2="BackgroundImageFix" result="effect1_dropShadow_1771_6019"/>
<feBlend mode="normal" in="SourceGraphic" in2="effect1_dropShadow_1771_6019" result="shape"/>
</filter>
<filter id="filter9_d_1771_6019" x="36.1333" y="21.8574" width="25.3896" height="23.2712" filterUnits="userSpaceOnUse" color-interpolation-filters="sRGB">
<feFlood flood-opacity="0" result="BackgroundImageFix"/>
<feColorMatrix in="SourceAlpha" type="matrix" values="0 0 0 0 0 0 0 0 0 0 0 0 0 0 0 0 0 0 127 0" result="hardAlpha"/>
<feOffset dx="5"/>
<feGaussianBlur stdDeviation="5"/>
<feComposite in2="hardAlpha" operator="out"/>
<feColorMatrix type="matrix" values="0 0 0 0 1 0 0 0 0 1 0 0 0 0 1 0 0 0 0.25 0"/>
<feBlend mode="normal" in2="BackgroundImageFix" result="effect1_dropShadow_1771_6019"/>
<feBlend mode="normal" in="SourceGraphic" in2="effect1_dropShadow_1771_6019" result="shape"/>
</filter>
<filter id="filter10_d_1771_6019" x="45.1162" y="18.9038" width="23.8174" height="22.3733" filterUnits="userSpaceOnUse" color-interpolation-filters="sRGB">
<feFlood flood-opacity="0" result="BackgroundImageFix"/>
<feColorMatrix in="SourceAlpha" type="matrix" values="0 0 0 0 0 0 0 0 0 0 0 0 0 0 0 0 0 0 127 0" result="hardAlpha"/>
<feOffset dx="5"/>
<feGaussianBlur stdDeviation="5"/>
<feComposite in2="hardAlpha" operator="out"/>
<feColorMatrix type="matrix" values="0 0 0 0 1 0 0 0 0 1 0 0 0 0 1 0 0 0 0.25 0"/>
<feBlend mode="normal" in2="BackgroundImageFix" result="effect1_dropShadow_1771_6019"/>
<feBlend mode="normal" in="SourceGraphic" in2="effect1_dropShadow_1771_6019" result="shape"/>
</filter>
<filter id="filter11_d_1771_6019" x="48.2603" y="23.3945" width="21.1226" height="20.834" filterUnits="userSpaceOnUse" color-interpolation-filters="sRGB">
<feFlood flood-opacity="0" result="BackgroundImageFix"/>
<feColorMatrix in="SourceAlpha" type="matrix" values="0 0 0 0 0 0 0 0 0 0 0 0 0 0 0 0 0 0 127 0" result="hardAlpha"/>
<feOffset dx="5"/>
<feGaussianBlur stdDeviation="5"/>
<feComposite in2="hardAlpha" operator="out"/>
<feColorMatrix type="matrix" values="0 0 0 0 1 0 0 0 0 1 0 0 0 0 1 0 0 0 0.25 0"/>
<feBlend mode="normal" in2="BackgroundImageFix" result="effect1_dropShadow_1771_6019"/>
<feBlend mode="normal" in="SourceGraphic" in2="effect1_dropShadow_1771_6019" result="shape"/>
</filter>
<filter id="filter12_d_1771_6019" x="35.6841" y="8.12646" width="23.144" height="21.9885" filterUnits="userSpaceOnUse" color-interpolation-filters="sRGB">
<feFlood flood-opacity="0" result="BackgroundImageFix"/>
<feColorMatrix in="SourceAlpha" type="matrix" values="0 0 0 0 0 0 0 0 0 0 0 0 0 0 0 0 0 0 127 0" result="hardAlpha"/>
<feOffset dx="5"/>
<feGaussianBlur stdDeviation="5"/>
<feComposite in2="hardAlpha" operator="out"/>
<feColorMatrix type="matrix" values="0 0 0 0 1 0 0 0 0 1 0 0 0 0 1 0 0 0 0.25 0"/>
<feBlend mode="normal" in2="BackgroundImageFix" result="effect1_dropShadow_1771_6019"/>
<feBlend mode="normal" in="SourceGraphic" in2="effect1_dropShadow_1771_6019" result="shape"/>
</filter>
<filter id="filter13_d_1771_6019" x="36.5825" y="19.4189" width="23.3682" height="22.1169" filterUnits="userSpaceOnUse" color-interpolation-filters="sRGB">
<feFlood flood-opacity="0" result="BackgroundImageFix"/>
<feColorMatrix in="SourceAlpha" type="matrix" values="0 0 0 0 0 0 0 0 0 0 0 0 0 0 0 0 0 0 127 0" result="hardAlpha"/>
<feOffset dx="5"/>
<feGaussianBlur stdDeviation="5"/>
<feComposite in2="hardAlpha" operator="out"/>
<feColorMatrix type="matrix" values="0 0 0 0 1 0 0 0 0 1 0 0 0 0 1 0 0 0 0.25 0"/>
<feBlend mode="normal" in2="BackgroundImageFix" result="effect1_dropShadow_1771_6019"/>
<feBlend mode="normal" in="SourceGraphic" in2="effect1_dropShadow_1771_6019" result="shape"/>
</filter>
<linearGradient id="paint0_linear_1771_6019" x1="33.8932" y1="34.7606" x2="25.6367" y2="35.2192" gradientUnits="userSpaceOnUse">
<stop offset="0.4" stop-color="white" stop-opacity="0"/>
<stop offset="0.76" stop-color="white" stop-opacity="0.05"/>
<stop offset="0.85" stop-color="white" stop-opacity="0.26"/>
<stop offset="0.95" stop-color="white" stop-opacity="0.5"/>
<stop offset="1" stop-color="white" stop-opacity="0.6"/>
</linearGradient>
<linearGradient id="paint1_linear_1771_6019" x1="70.2527" y1="56.9056" x2="60.364" y2="54.3461" gradientUnits="userSpaceOnUse">
<stop offset="0.4" stop-color="white" stop-opacity="0"/>
<stop offset="0.76" stop-color="white" stop-opacity="0.05"/>
<stop offset="0.85" stop-color="white" stop-opacity="0.26"/>
<stop offset="0.95" stop-color="white" stop-opacity="0.5"/>
<stop offset="1" stop-color="white" stop-opacity="0.6"/>
</linearGradient>
<linearGradient id="paint2_linear_1771_6019" x1="-5.59849" y1="-17.6631" x2="64.8758" y2="75.9641" gradientUnits="userSpaceOnUse">
<stop offset="0.25" stop-color="#387E8D" stop-opacity="0"/>
<stop offset="0.75" stop-color="#387E8D" stop-opacity="0.04"/>
<stop offset="0.91" stop-color="#387E8D" stop-opacity="0.43"/>
<stop offset="1" stop-color="#387E8D" stop-opacity="0.6"/>
</linearGradient>
<linearGradient id="paint3_linear_1771_6019" x1="58.3965" y1="15.8541" x2="31.5201" y2="51.4309" gradientUnits="userSpaceOnUse">
<stop offset="0.51" stop-color="white" stop-opacity="0"/>
<stop offset="0.82" stop-color="white" stop-opacity="0.1"/>
<stop offset="0.87" stop-color="white" stop-opacity="0.26"/>
<stop offset="0.96" stop-color="white" stop-opacity="0.5"/>
<stop offset="1" stop-color="white" stop-opacity="0.6"/>
</linearGradient>
</defs>
</svg>
