<svg width="49" height="49" viewBox="0 0 49 49" fill="none" xmlns="http://www.w3.org/2000/svg">
<g clip-path="url(#clip0_1771_6674)">
<path d="M16.6904 2.12652H30.894L16.1492 45.8137C15.9977 46.2627 15.7092 46.6528 15.3243 46.9291C14.9394 47.2054 14.4776 47.3541 14.0038 47.3542H2.94983C2.59084 47.3543 2.237 47.2688 1.91758 47.105C1.59817 46.9412 1.32235 46.7036 1.11296 46.412C0.903567 46.1204 0.766613 45.7832 0.713428 45.4281C0.660244 45.0731 0.692358 44.7105 0.807113 44.3704L14.5444 3.66701C14.6958 3.2179 14.9844 2.82763 15.3694 2.55118C15.7544 2.27472 16.2164 2.12655 16.6904 2.12652Z" fill="url(#paint0_linear_1771_6674)"/>
<path d="M37.3299 31.4292H14.8063C14.5969 31.429 14.3923 31.4918 14.2191 31.6095C14.0459 31.7272 13.9122 31.8944 13.8354 32.0892C13.7586 32.284 13.7422 32.4974 13.7884 32.7017C13.8346 32.9059 13.9412 33.0915 14.0944 33.2342L28.5675 46.7429C28.9889 47.136 29.5438 47.3546 30.12 47.3544H42.8738L37.3299 31.4292Z" fill="#0078D4"/>
<path d="M16.6899 2.12648C16.2108 2.12464 15.7436 2.27606 15.3566 2.5586C14.9697 2.84115 14.6832 3.24003 14.539 3.69697L0.823576 44.3332C0.701101 44.6746 0.66265 45.0405 0.711476 45.3999C0.760303 45.7593 0.89497 46.1016 1.10409 46.3979C1.3132 46.6943 1.59061 46.9359 1.91286 47.1023C2.2351 47.2688 2.59269 47.3552 2.95538 47.3542H14.2946C14.7169 47.2787 15.1117 47.0925 15.4385 46.8146C15.7653 46.5367 16.0125 46.177 16.1548 45.7722L18.8899 37.7114L28.6597 46.824C29.0692 47.1626 29.5827 47.3499 30.114 47.3542H42.8203L37.2475 31.4289L21.0021 31.4328L30.9448 2.12648H16.6899Z" fill="url(#paint1_linear_1771_6674)"/>
<path d="M34.8324 3.66501C34.6811 3.21663 34.393 2.82701 34.0086 2.55104C33.6241 2.27507 33.1628 2.12665 32.6896 2.12671H16.8599C17.3331 2.12674 17.7943 2.27518 18.1787 2.55114C18.5631 2.8271 18.8512 3.21668 19.0026 3.66501L32.7404 44.37C32.8552 44.7102 32.8874 45.0729 32.8343 45.428C32.7811 45.7831 32.6442 46.1205 32.4348 46.4122C32.2254 46.7039 31.9496 46.9415 31.6301 47.1055C31.3106 47.2694 30.9567 47.3549 30.5977 47.355H46.428C46.787 47.3549 47.1409 47.2693 47.4602 47.1053C47.7796 46.9413 48.0554 46.7037 48.2647 46.412C48.4741 46.1203 48.611 45.783 48.6641 45.4279C48.7172 45.0728 48.685 44.7102 48.5702 44.37L34.8324 3.66501Z" fill="url(#paint2_linear_1771_6674)"/>
</g>
<defs>
<linearGradient id="paint0_linear_1771_6674" x1="21.8671" y1="5.47806" x2="7.11633" y2="49.0556" gradientUnits="userSpaceOnUse">
<stop stop-color="#114A8B"/>
<stop offset="1" stop-color="#0669BC"/>
</linearGradient>
<linearGradient id="paint1_linear_1771_6674" x1="26.4745" y1="25.7863" x2="23.0624" y2="26.9401" gradientUnits="userSpaceOnUse">
<stop stop-opacity="0.3"/>
<stop offset="0.071" stop-opacity="0.2"/>
<stop offset="0.321" stop-opacity="0.1"/>
<stop offset="0.623" stop-opacity="0.05"/>
<stop offset="1" stop-opacity="0"/>
</linearGradient>
<linearGradient id="paint2_linear_1771_6674" x1="24.5988" y1="4.20723" x2="40.7908" y2="47.3457" gradientUnits="userSpaceOnUse">
<stop stop-color="#3CCBF4"/>
<stop offset="1" stop-color="#2892DF"/>
</linearGradient>
<clipPath id="clip0_1771_6674">
<rect x="0.688477" y="0.754639" width="48" height="48" rx="8" fill="white"/>
</clipPath>
</defs>
</svg>
