<svg width="25" height="25" viewBox="0 0 25 25" fill="none" xmlns="http://www.w3.org/2000/svg">
<path fill-rule="evenodd" clip-rule="evenodd" d="M3.68848 5.25458C3.29065 5.25458 2.90912 5.41261 2.62782 5.69392C2.34651 5.97522 2.18848 6.35675 2.18848 6.75458V18.7546C2.18848 19.1524 2.34651 19.5339 2.62782 19.8152C2.90912 20.0965 3.29065 20.2546 3.68848 20.2546H9.68848C10.2852 20.2546 10.8575 20.4916 11.2795 20.9136C11.7014 21.3355 11.9385 21.9078 11.9385 22.5046C11.9385 22.9188 12.2743 23.2546 12.6885 23.2546C13.1027 23.2546 13.4385 22.9188 13.4385 22.5046C13.4385 21.9078 13.6755 21.3355 14.0975 20.9136C14.5194 20.4916 15.0917 20.2546 15.6885 20.2546H21.6885C22.0863 20.2546 22.4678 20.0965 22.7491 19.8152C23.0304 19.5339 23.1885 19.1524 23.1885 18.7546V6.75458C23.1885 6.35675 23.0304 5.97522 22.7491 5.69392C22.4678 5.41261 22.0863 5.25458 21.6885 5.25458H15.6885C14.6939 5.25458 13.7401 5.64967 13.0368 6.35293C12.9106 6.47914 12.7943 6.61342 12.6885 6.75455C12.5826 6.61342 12.4663 6.47914 12.3401 6.35293C11.6369 5.64967 10.683 5.25458 9.68848 5.25458H3.68848ZM13.4385 9.00458V19.5046C14.0838 19.0206 14.8724 18.7546 15.6885 18.7546H21.6885V6.75458L15.6885 6.75458C15.0917 6.75458 14.5194 6.99163 14.0975 7.41359C13.6755 7.83554 13.4385 8.40784 13.4385 9.00458ZM11.9385 9.00458C11.9385 8.40784 11.7014 7.83554 11.2795 7.41359C10.8575 6.99163 10.2852 6.75458 9.68848 6.75458L3.68848 6.75458V18.7546H9.68848C10.5045 18.7546 11.2932 19.0206 11.9385 19.5046V9.00458Z" fill="#512FC9"/>
</svg>
