<svg width="40" height="40" viewBox="0 0 40 40" fill="none" xmlns="http://www.w3.org/2000/svg">
<path d="M30 11.25C34.8325 11.25 38.75 15.1675 38.75 20C38.75 22.3835 37.7957 24.543 36.25 26.1211V35C36.25 35.4332 36.0257 35.8357 35.6572 36.0635C35.2888 36.2912 34.8288 36.3118 34.4414 36.1182L30 33.8975L25.5586 36.1182C25.1712 36.3118 24.7112 36.2912 24.3428 36.0635C23.9743 35.8357 23.75 35.4332 23.75 35V26.1211C22.2043 24.543 21.25 22.3835 21.25 20C21.25 15.1675 25.1675 11.25 30 11.25ZM33.75 27.9062C32.6133 28.4464 31.3423 28.75 30 28.75C28.6577 28.75 27.3867 28.4464 26.25 27.9062V32.9775L29.4414 31.3818C29.793 31.2062 30.207 31.2062 30.5586 31.3818L33.75 32.9775V27.9062ZM33.75 6.25C34.413 6.25 35.0487 6.51358 35.5176 6.98242C35.9864 7.45126 36.25 8.08696 36.25 8.75C36.25 9.44036 35.6904 10 35 10C34.3096 10 33.75 9.44036 33.75 8.75H6.25V28.75H20C20.6904 28.75 21.25 29.3096 21.25 30C21.25 30.6904 20.6904 31.25 20 31.25H6.25C5.58696 31.25 4.95126 30.9864 4.48242 30.5176C4.01358 30.0487 3.75 29.413 3.75 28.75V8.75C3.75 8.08696 4.01358 7.45126 4.48242 6.98242C4.95126 6.51358 5.58696 6.25 6.25 6.25H33.75ZM30 13.75C26.5482 13.75 23.75 16.5482 23.75 20C23.75 23.4518 26.5482 26.25 30 26.25C33.4518 26.25 36.25 23.4518 36.25 20C36.25 16.5482 33.4518 13.75 30 13.75ZM17.5 20C18.1904 20 18.75 20.5596 18.75 21.25C18.75 21.9404 18.1904 22.5 17.5 22.5H11.25C10.5596 22.5 10 21.9404 10 21.25C10 20.5596 10.5596 20 11.25 20H17.5ZM17.5 15C18.1904 15 18.75 15.5596 18.75 16.25C18.75 16.9404 18.1904 17.5 17.5 17.5H11.25C10.5596 17.5 10 16.9404 10 16.25C10 15.5596 10.5596 15 11.25 15H17.5Z" fill="#512FC9"/>
</svg>
