<svg width="197" height="73" viewBox="0 0 197 73" fill="none" xmlns="http://www.w3.org/2000/svg">
<rect x="0.688477" y="0.754639" width="72" height="72" rx="36" fill="white"/>
<rect x="1.18848" y="1.25464" width="71" height="71" rx="35.5" stroke="black" stroke-opacity="0.18"/>
<g clip-path="url(#clip0_1771_4174)">
<path d="M29.706 34.1043C29.706 34.4981 29.7486 34.8174 29.8231 35.0516C29.9082 35.2857 30.0147 35.5411 30.1637 35.8178C30.2169 35.903 30.2382 35.9881 30.2382 36.0626C30.2382 36.1691 30.1743 36.2755 30.036 36.3819L29.3655 36.8289C29.2697 36.8928 29.1739 36.9247 29.0887 36.9247C28.9823 36.9247 28.8759 36.8715 28.7695 36.7757C28.6205 36.6161 28.4927 36.4458 28.3863 36.2755C28.2799 36.0946 28.1735 35.8923 28.0564 35.6476C27.2262 36.6267 26.1832 37.1163 24.9274 37.1163C24.0334 37.1163 23.3203 36.8608 22.7988 36.35C22.2773 35.8391 22.0112 35.158 22.0112 34.3066C22.0112 33.4019 22.3305 32.6675 22.9797 32.1141C23.6289 31.5607 24.491 31.284 25.5872 31.284C25.9491 31.284 26.3216 31.3159 26.7154 31.3691C27.1092 31.4223 27.5136 31.5075 27.9393 31.6033V30.8263C27.9393 30.0175 27.769 29.4534 27.4391 29.1235C27.0985 28.7935 26.5238 28.6339 25.7043 28.6339C25.3318 28.6339 24.9487 28.6765 24.5549 28.7723C24.1611 28.868 23.7779 28.9851 23.4054 29.1341C23.2352 29.2086 23.1074 29.2512 23.0329 29.2725C22.9584 29.2938 22.9052 29.3044 22.8627 29.3044C22.7137 29.3044 22.6392 29.198 22.6392 28.9745V28.453C22.6392 28.2827 22.6604 28.155 22.7137 28.0805C22.7669 28.006 22.8627 27.9315 23.0117 27.857C23.3842 27.6654 23.8312 27.5058 24.3527 27.378C24.8742 27.2397 25.4276 27.1758 26.013 27.1758C27.2795 27.1758 28.2054 27.4632 28.8014 28.0379C29.3867 28.6126 29.6847 29.4853 29.6847 30.656V34.1043H29.706ZM25.385 35.7221C25.7362 35.7221 26.0981 35.6582 26.4812 35.5305C26.8644 35.4028 27.205 35.1686 27.4923 34.8493C27.6626 34.6471 27.7903 34.4236 27.8542 34.1682C27.918 33.9128 27.9606 33.6041 27.9606 33.2423V32.7953C27.652 32.7208 27.322 32.6569 26.9815 32.6143C26.6409 32.5718 26.311 32.5505 25.981 32.5505C25.268 32.5505 24.7464 32.6888 24.3952 32.9762C24.044 33.2636 23.8737 33.668 23.8737 34.2001C23.8737 34.7003 24.0014 35.0728 24.2675 35.3283C24.5229 35.5943 24.8954 35.7221 25.385 35.7221ZM33.9312 36.8715C33.7397 36.8715 33.612 36.8396 33.5268 36.7651C33.4417 36.7012 33.3672 36.5522 33.3033 36.35L30.8022 28.123C30.7384 27.9102 30.7065 27.7718 30.7065 27.6973C30.7065 27.527 30.7916 27.4313 30.9619 27.4313H32.0049C32.2071 27.4313 32.3455 27.4632 32.42 27.5377C32.5051 27.6015 32.569 27.7505 32.6328 27.9528L34.4208 34.9983L36.0811 27.9528C36.1343 27.7399 36.1982 27.6015 36.2833 27.5377C36.3685 27.4738 36.5175 27.4313 36.709 27.4313H37.5605C37.7627 27.4313 37.901 27.4632 37.9862 27.5377C38.0713 27.6015 38.1458 27.7505 38.1884 27.9528L39.87 35.0835L41.7112 27.9528C41.775 27.7399 41.8495 27.6015 41.924 27.5377C42.0092 27.4738 42.1475 27.4313 42.3391 27.4313H43.3289C43.4992 27.4313 43.595 27.5164 43.595 27.6973C43.595 27.7505 43.5843 27.8038 43.5737 27.8676C43.563 27.9315 43.5418 28.0166 43.4992 28.1337L40.9343 36.3606C40.8704 36.5735 40.7959 36.7118 40.7108 36.7757C40.6256 36.8396 40.4873 36.8821 40.3063 36.8821H39.391C39.1888 36.8821 39.0505 36.8502 38.9653 36.7757C38.8802 36.7012 38.8057 36.5628 38.7631 36.35L37.1135 29.4853L35.4745 36.3393C35.4213 36.5522 35.3574 36.6906 35.2723 36.7651C35.1871 36.8396 35.0381 36.8715 34.8465 36.8715H33.9312ZM47.6073 37.1588C47.0539 37.1588 46.5005 37.095 45.9683 36.9673C45.4362 36.8396 45.0211 36.7012 44.7444 36.5416C44.5741 36.4458 44.4571 36.3393 44.4145 36.2436C44.3719 36.1478 44.3506 36.0413 44.3506 35.9456V35.4028C44.3506 35.1793 44.4358 35.0728 44.5954 35.0728C44.6593 35.0728 44.7231 35.0835 44.787 35.1048C44.8508 35.1261 44.9466 35.1686 45.0531 35.2112C45.4149 35.3708 45.8087 35.4986 46.2238 35.5837C46.6495 35.6688 47.0646 35.7114 47.4903 35.7114C48.1608 35.7114 48.6823 35.5943 49.0441 35.3602C49.406 35.1261 49.5976 34.7855 49.5976 34.3491C49.5976 34.0511 49.5018 33.8063 49.3102 33.6041C49.1186 33.4019 48.7568 33.221 48.2353 33.0507L46.6921 32.5718C45.9151 32.327 45.3404 31.9651 44.9892 31.4862C44.638 31.0179 44.4571 30.4964 44.4571 29.943C44.4571 29.496 44.5528 29.1022 44.7444 28.7616C44.936 28.421 45.1914 28.123 45.5107 27.8889C45.83 27.6441 46.1918 27.4632 46.6176 27.3355C47.0433 27.2078 47.4903 27.1545 47.9586 27.1545C48.1927 27.1545 48.4375 27.1652 48.6716 27.1971C48.9164 27.229 49.1399 27.2716 49.3634 27.3142C49.5763 27.3674 49.7785 27.4206 49.9701 27.4845C50.1616 27.5483 50.3106 27.6122 50.4171 27.676C50.5661 27.7612 50.6725 27.8463 50.7363 27.9421C50.8002 28.0273 50.8321 28.1443 50.8321 28.2933V28.7935C50.8321 29.017 50.747 29.1341 50.5873 29.1341C50.5022 29.1341 50.3638 29.0915 50.1829 29.0064C49.5763 28.7297 48.8951 28.5913 48.1395 28.5913C47.5328 28.5913 47.0539 28.6871 46.724 28.8893C46.3941 29.0915 46.2238 29.4002 46.2238 29.8365C46.2238 30.1345 46.3302 30.39 46.5431 30.5922C46.7559 30.7944 47.1497 30.9966 47.7138 31.1775L49.2251 31.6565C49.9913 31.9013 50.5448 32.2418 50.8747 32.6782C51.2046 33.1146 51.3643 33.6148 51.3643 34.1682C51.3643 34.6258 51.2685 35.0409 51.0876 35.4028C50.896 35.7646 50.6406 36.0839 50.3106 36.3393C49.9807 36.6054 49.5869 36.797 49.1293 36.9353C48.6503 37.0843 48.1501 37.1588 47.6073 37.1588Z" fill="#252F3E"/>
<path fill-rule="evenodd" clip-rule="evenodd" d="M49.6192 42.3313C46.1177 44.9176 41.0304 46.2905 36.6562 46.2905C30.5259 46.2905 25.0022 44.0236 20.8302 40.256C20.5003 39.958 20.7983 39.5536 21.1921 39.7877C25.7047 42.4058 31.2709 43.9916 37.0287 43.9916C40.9133 43.9916 45.1811 43.1828 49.1084 41.5225C49.6937 41.2564 50.1939 41.9056 49.6192 42.3313Z" fill="#FF9900"/>
<path fill-rule="evenodd" clip-rule="evenodd" d="M51.0772 40.6711C50.6302 40.0964 48.1185 40.3944 46.9797 40.5327C46.6391 40.5753 46.5859 40.2773 46.8946 40.0538C48.8954 38.6489 52.1841 39.0534 52.5672 39.5217C52.9504 40.0006 52.4608 43.2892 50.5876 44.8644C50.3003 45.1092 50.0236 44.9815 50.1513 44.6622C50.577 43.6085 51.5242 41.2352 51.0772 40.6711Z" fill="#FF9900"/>
</g>
<rect x="62.6885" y="0.754639" width="72" height="72" rx="36" fill="white"/>
<rect x="63.1885" y="1.25464" width="71" height="71" rx="35.5" stroke="black" stroke-opacity="0.18"/>
<g clip-path="url(#clip1_1771_4174)">
<path d="M103.063 30.8796L104.069 30.9202L106.804 28.2076L106.938 27.0046C105.372 25.6331 103.478 24.7316 101.437 24.2877C99.3953 23.8437 97.2735 23.9231 95.2717 24.5185C93.2699 25.1139 91.4542 26.2056 89.9961 27.6905C88.538 29.1753 87.4857 31.0043 86.9385 33.0046C87.2432 32.8808 87.5807 32.8607 87.8982 32.9475L93.3684 32.0529C93.3684 32.0529 93.5445 31.7261 93.6885 31.7546C94.8606 30.478 96.5826 29.5638 98.3185 29.4329C100.054 29.302 101.71 29.7935 103.063 30.8796Z" fill="#EA4335"/>
<path d="M110.714 33.0641C110.075 30.7215 108.762 28.6156 106.937 27.0046L103.063 30.8796C103.877 31.5411 104.499 32.387 104.94 33.3358C105.381 34.2845 105.6 35.3206 105.58 36.3658V37.0552C106.037 37.0552 106.489 37.1446 106.91 37.3184C107.332 37.4921 107.715 37.7468 108.037 38.0678C108.36 38.3888 108.616 38.7699 108.79 39.1893C108.965 39.6087 109.055 40.0583 109.055 40.5122C109.055 40.9662 108.965 41.4158 108.79 41.8352C108.616 42.2546 108.36 42.6357 108.037 42.9567C107.715 43.2777 107.332 43.5324 106.91 43.7061C106.489 43.8798 106.037 43.9693 105.58 43.9693L98.5635 44.0046L97.9385 44.6684V48.8149L98.5635 49.5044L105.58 49.5044C107.521 49.5194 109.415 48.9126 110.982 47.7737C112.549 46.6348 113.706 45.0243 114.282 43.1805C114.857 41.3367 114.821 39.3574 114.179 37.5355C113.536 35.7136 112.322 34.1458 110.714 33.0641Z" fill="#4285F4"/>
<path d="M91.6728 49.5045L98.5635 49.5046V44.0046L91.6728 43.9419C91.1778 43.9418 90.7638 43.8353 90.3135 43.6296L89.2621 43.9322L86.461 46.7135L86.1885 47.7546C87.7593 48.9406 89.7045 49.5131 91.6728 49.5045Z" fill="#34A853"/>
<path d="M91.6722 31.4671C89.7893 31.4783 87.957 32.0773 86.4311 33.1804C84.9052 34.2834 83.762 35.8355 83.1611 37.6197C82.5602 39.404 82.5316 41.3313 83.0794 43.1326C83.6271 44.9339 84.696 46.6069 86.1885 47.7546L90.3135 43.6296C89.8012 43.3982 89.2866 43.0529 88.9404 42.6101C88.5942 42.1673 88.3606 41.6471 88.2597 41.0942C88.1588 40.5413 88.1935 39.9722 88.361 39.4357C88.5284 38.8991 88.8235 38.4112 89.2209 38.0138C89.6184 37.6164 90.1063 37.3213 90.6429 37.1539C91.1795 36.9865 91.7487 36.9518 92.3016 37.0527C92.8546 37.1536 93.3748 37.3872 93.8177 37.7333C94.2605 38.0794 94.6127 38.5278 94.8442 39.04L98.875 35.0096C98.029 33.9037 96.9386 33.0084 95.689 32.3939C94.4395 31.7793 93.0647 31.4621 91.6722 31.4671Z" fill="#FBBC05"/>
</g>
<rect x="124.688" y="0.754639" width="72" height="72" rx="36" fill="white"/>
<rect x="125.188" y="1.25464" width="71" height="71" rx="35.5" stroke="black" stroke-opacity="0.18"/>
<g clip-path="url(#clip2_1771_4174)">
<path d="M155.356 21.6693H164.825L154.996 50.7941C154.895 51.0934 154.702 51.3535 154.446 51.5377C154.189 51.7219 153.881 51.821 153.565 51.8211H146.196C145.957 51.8211 145.721 51.7642 145.508 51.655C145.295 51.5457 145.111 51.3874 144.971 51.193C144.832 50.9986 144.741 50.7737 144.705 50.537C144.67 50.3004 144.691 50.0586 144.768 49.8319L153.926 22.6963C154.027 22.3969 154.219 22.1367 154.476 21.9524C154.732 21.7681 155.04 21.6693 155.356 21.6693Z" fill="url(#paint0_linear_1771_4174)"/>
<path d="M169.116 41.2043H154.101C153.961 41.2042 153.825 41.2461 153.709 41.3246C153.594 41.403 153.504 41.5145 153.453 41.6443C153.402 41.7742 153.391 41.9165 153.422 42.0526C153.453 42.1888 153.524 42.3125 153.626 42.4077L163.275 51.4135C163.556 51.6756 163.926 51.8213 164.31 51.8212H172.812L169.116 41.2043Z" fill="#0078D4"/>
<path d="M155.356 21.6692C155.037 21.668 154.726 21.7689 154.468 21.9573C154.21 22.1456 154.019 22.4116 153.922 22.7162L144.779 49.807C144.697 50.0346 144.672 50.2785 144.704 50.5181C144.737 50.7577 144.826 50.9859 144.966 51.1835C145.105 51.3811 145.29 51.5421 145.505 51.6531C145.72 51.7641 145.958 51.8217 146.2 51.821H153.76C154.041 51.7707 154.304 51.6466 154.522 51.4613C154.74 51.276 154.905 51.0362 155 50.7664L156.823 45.3925L163.336 51.4675C163.609 51.6933 163.952 51.8181 164.306 51.821H172.777L169.061 41.2042L158.231 41.2067L164.86 21.6692H155.356Z" fill="url(#paint1_linear_1771_4174)"/>
<path d="M167.451 22.695C167.35 22.396 167.158 22.1363 166.902 21.9523C166.645 21.7683 166.338 21.6694 166.022 21.6694H155.469C155.785 21.6695 156.092 21.7684 156.348 21.9524C156.605 22.1364 156.797 22.3961 156.898 22.695L166.056 49.8316C166.133 50.0584 166.154 50.3002 166.119 50.537C166.083 50.7737 165.992 50.9986 165.853 51.1931C165.713 51.3876 165.529 51.546 165.316 51.6553C165.103 51.7646 164.867 51.8216 164.628 51.8216H175.181C175.421 51.8215 175.657 51.7645 175.869 51.6552C176.082 51.5458 176.266 51.3874 176.406 51.1929C176.545 50.9985 176.637 50.7736 176.672 50.5369C176.707 50.3002 176.686 50.0584 176.609 49.8316L167.451 22.695Z" fill="url(#paint2_linear_1771_4174)"/>
</g>
<defs>
<linearGradient id="paint0_linear_1771_4174" x1="158.808" y1="23.9037" x2="148.974" y2="52.9554" gradientUnits="userSpaceOnUse">
<stop stop-color="#114A8B"/>
<stop offset="1" stop-color="#0669BC"/>
</linearGradient>
<linearGradient id="paint1_linear_1771_4174" x1="161.879" y1="37.4424" x2="159.605" y2="38.2116" gradientUnits="userSpaceOnUse">
<stop stop-opacity="0.3"/>
<stop offset="0.071" stop-opacity="0.2"/>
<stop offset="0.321" stop-opacity="0.1"/>
<stop offset="0.623" stop-opacity="0.05"/>
<stop offset="1" stop-opacity="0"/>
</linearGradient>
<linearGradient id="paint2_linear_1771_4174" x1="160.629" y1="23.0565" x2="171.423" y2="51.8154" gradientUnits="userSpaceOnUse">
<stop stop-color="#3CCBF4"/>
<stop offset="1" stop-color="#2892DF"/>
</linearGradient>
<clipPath id="clip0_1771_4174">
<rect width="32" height="32" fill="white" transform="translate(20.6885 20.7546)"/>
</clipPath>
<clipPath id="clip1_1771_4174">
<rect width="32" height="32" fill="white" transform="translate(82.6885 20.7546)"/>
</clipPath>
<clipPath id="clip2_1771_4174">
<rect width="32" height="32" fill="white" transform="translate(144.688 20.7546)"/>
</clipPath>
</defs>
</svg>
