<svg width="40" height="40" viewBox="0 0 40 40" fill="none" xmlns="http://www.w3.org/2000/svg">
<path fill-rule="evenodd" clip-rule="evenodd" d="M27.1947 8.96617C25.0124 8.53209 22.7504 8.75488 20.6948 9.60636C18.6391 10.4578 16.8821 11.8998 15.6459 13.7498C14.4097 15.5999 13.7499 17.775 13.7499 20C13.7499 20.6904 13.1903 21.25 12.4999 21.25C11.8096 21.25 11.2499 20.6904 11.2499 20C11.2499 18.731 11.4255 17.4753 11.7664 16.2671C11.1653 16.2265 10.56 16.2583 9.96339 16.3631C8.91598 16.547 7.91965 16.9516 7.04054 17.55C6.16142 18.1484 5.41962 18.9269 4.86434 19.8339C4.30906 20.7409 3.95301 21.7555 3.81981 22.8106C3.68661 23.8657 3.7793 24.937 4.09175 25.9535C4.40419 26.9701 4.92924 27.9085 5.63205 28.7066C6.33486 29.5047 7.19937 30.1442 8.1682 30.5827C9.13703 31.0212 10.188 31.2487 11.2515 31.25H24.9999C27.225 31.25 29.4001 30.5902 31.2501 29.354C33.1002 28.1179 34.5421 26.3609 35.3936 24.3052C36.2451 22.2495 36.4679 19.9875 36.0338 17.8052C35.5997 15.623 34.5282 13.6184 32.9549 12.0451C31.3816 10.4717 29.377 9.40026 27.1947 8.96617ZM12.6999 13.8541C11.65 13.7014 10.5803 13.7165 9.53094 13.9008C8.13438 14.146 6.80596 14.6855 5.6338 15.4834C4.46165 16.2812 3.47257 17.3192 2.7322 18.5285C1.99183 19.7378 1.51709 21.0907 1.33949 22.4975C1.16189 23.9042 1.28549 25.3327 1.70208 26.688C2.11868 28.0434 2.81874 29.2947 3.75582 30.3588C4.6929 31.423 5.84558 32.2756 7.13735 32.8603C8.42913 33.445 9.83048 33.7483 11.2484 33.75H11.2499H24.9999C27.7194 33.75 30.3779 32.9436 32.639 31.4327C34.9002 29.9218 36.6626 27.7744 37.7033 25.2619C38.744 22.7494 39.0163 19.9848 38.4857 17.3175C37.9552 14.6503 36.6456 12.2003 34.7227 10.2773C32.7997 8.35432 30.3497 7.04476 27.6824 6.51421C25.0152 5.98366 22.2505 6.25596 19.7381 7.29666C17.2256 8.33737 15.0781 10.0997 13.5672 12.3609C13.2459 12.8418 12.9565 13.3406 12.6999 13.8541Z" fill="#512FC9"/>
</svg>
