<svg width="40" height="40" viewBox="0 0 40 40" fill="none" xmlns="http://www.w3.org/2000/svg">
<path fill-rule="evenodd" clip-rule="evenodd" d="M9.67872 6.09933C7.02105 7.54897 5 9.75707 5 12.5V27.5C5 30.243 7.0211 32.4511 9.67878 33.9007C12.3837 35.3761 16.0352 36.25 20 36.25C23.9648 36.25 27.6163 35.3761 30.3212 33.9007C32.9789 32.4511 35 30.243 35 27.5V12.5C35 9.75707 32.979 7.54897 30.3213 6.09933C27.6163 4.62391 23.9649 3.75 20 3.75C16.0351 3.75 12.3837 4.62391 9.67872 6.09933ZM10.8758 8.29407C8.557 9.5589 7.5 11.1008 7.5 12.5C7.5 13.8992 8.557 15.4411 10.8758 16.7059C13.1474 17.945 16.371 18.75 20 18.75C23.629 18.75 26.8526 17.945 29.1242 16.7059C31.443 15.4411 32.5 13.8992 32.5 12.5C32.5 11.1008 31.443 9.5589 29.1242 8.29407C26.8526 7.05502 23.629 6.25 20 6.25C16.371 6.25 13.1474 7.05502 10.8758 8.29407ZM32.5 24.9007V27.5C32.5 28.8992 31.443 30.4411 29.1241 31.7059C26.8525 32.945 23.6289 33.75 20 33.75C16.3711 33.75 13.1475 32.945 10.8759 31.7059C8.55702 30.4411 7.5 28.8992 7.5 27.5V24.9007C8.14443 25.4647 8.88307 25.9667 9.67878 26.4007C12.3837 27.8761 16.0352 28.75 20 28.75C23.9648 28.75 27.6163 27.8761 30.3212 26.4007C31.1169 25.9667 31.8556 25.4647 32.5 24.9007ZM7.5 20C7.5 21.3992 8.55702 22.9411 10.8759 24.2059C13.1475 25.445 16.3711 26.25 20 26.25C23.6289 26.25 26.8525 25.445 29.1241 24.2059C31.443 22.9411 32.5 21.3992 32.5 20V17.4007C31.8556 17.9647 31.117 18.4667 30.3213 18.9007C27.6163 20.3761 23.9649 21.25 20 21.25C16.0351 21.25 12.3837 20.3761 9.67872 18.9007C8.88303 18.4667 8.14441 17.9647 7.5 17.4007V20Z" fill="#512FC9"/>
</svg>
