<svg width="47" height="66" viewBox="0 0 47 66" fill="none" xmlns="http://www.w3.org/2000/svg">
<path d="M46.6298 42.5377L46.5947 53.265C46.5887 55.3371 45.5415 57.4071 43.4491 59.247C42.4861 60.0939 41.3039 60.8938 39.8985 61.6216C39.7656 61.6918 39.6303 61.7601 39.4935 61.8265C30.4956 66.2672 16.207 66.1989 7.31295 61.6216C2.77003 59.2842 0.501569 56.2131 0.511261 53.1478L0.544492 42.4382C6.4742 43.6746 38.3998 42.5377 46.6298 42.5377Z" fill="#C9D7DD"/>
<path d="M46.6298 42.5377L46.5947 53.265C46.5887 55.3371 45.5415 57.4071 43.4491 59.247C42.4861 60.0939 41.3039 60.8938 39.8985 61.6216C39.7656 61.6918 39.6303 61.7601 39.4935 61.8265C30.4956 66.2672 16.207 66.1989 7.31295 61.6216C2.77003 59.2842 0.501569 56.2131 0.511261 53.1478L0.544492 42.4382C6.4742 43.6746 38.3998 42.5377 46.6298 42.5377Z" fill="url(#paint0_linear_1771_4468)" fill-opacity="0.8"/>
<path d="M46.6298 42.5377L46.5947 53.265C46.5887 55.3371 45.5415 57.4071 43.4491 59.247C42.4861 60.0939 41.3039 60.8938 39.8985 61.6216C39.7656 61.6918 39.6303 61.7601 39.4935 61.8265C30.4956 66.2672 16.207 66.1989 7.31295 61.6216C2.77003 59.2842 0.501569 56.2131 0.511261 53.1478L0.544492 42.4382C6.4742 43.6746 38.3998 42.5377 46.6298 42.5377Z" fill="url(#paint1_linear_1771_4468)"/>
<path d="M39.8275 34.0638C48.8545 38.7115 48.9036 46.2465 39.935 50.8942C30.9666 55.5417 16.3767 55.5417 7.34947 50.8942C-1.67776 46.2465 -1.72668 38.7115 7.24378 34.0638C16.2122 29.4162 30.8021 29.4162 39.8293 34.0638H39.8275Z" fill="white"/>
<path d="M39.8275 34.0638C48.8545 38.7115 48.9036 46.2465 39.935 50.8942C30.9666 55.5417 16.3767 55.5417 7.34947 50.8942C-1.67776 46.2465 -1.72668 38.7115 7.24378 34.0638C16.2122 29.4162 30.8021 29.4162 39.8293 34.0638H39.8275Z" fill="url(#paint2_linear_1771_4468)" fill-opacity="0.6"/>
<path d="M43.4233 48.5253V59.1453C42.4603 59.992 41.278 60.7918 39.8727 61.5197C39.7395 61.5901 39.6045 61.6581 39.4674 61.7246L39.436 51.046C39.5007 51.0148 39.5634 50.9837 39.626 50.9505C39.6963 50.9154 39.767 50.8782 39.8373 50.8431C40.6164 50.4411 41.3288 50.0198 41.9747 49.5788C42.0903 49.4989 42.2057 49.4188 42.3193 49.3369C42.5443 49.1749 42.7617 49.009 42.9691 48.8433C43.0651 48.7671 43.159 48.6891 43.253 48.6111C43.2998 48.5701 43.3469 48.5311 43.3937 48.49L43.4233 48.5253Z" fill="#9693D3"/>
<path d="M11.3598 52.5488V63.2876C9.88406 62.8155 8.46875 62.2166 7.18683 61.5571C5.77937 60.8332 4.61098 60.0019 3.64014 59.1592V48.4748C3.65191 48.4612 3.6616 48.4494 3.67337 48.4358C3.67729 48.4397 3.68306 48.4436 3.68698 48.4476L3.70268 48.4591C3.73199 48.4866 3.76937 48.5177 3.81229 48.5549C3.8476 48.5839 3.95121 48.6737 4.09429 48.7909C4.34283 48.9938 4.54429 49.1519 4.73237 49.2864C4.84591 49.3683 4.96522 49.4581 5.08268 49.5382C5.10414 49.5518 5.1256 49.5675 5.14729 49.5811C5.16091 49.5908 5.16875 49.5966 5.16875 49.5966C5.37437 49.741 5.59937 49.8873 5.82829 50.0279C5.85183 50.0436 5.87537 50.0572 5.89891 50.0708C6.30599 50.3244 6.7366 50.5723 7.19652 50.8102C7.26691 50.8473 7.34144 50.8884 7.41391 50.9235C7.47829 50.9565 7.52929 50.9858 7.59391 51.0172C7.7446 51.0913 7.90522 51.1732 8.05983 51.2433C8.11845 51.2708 8.18491 51.298 8.2456 51.3253C8.25344 51.3292 8.25945 51.3313 8.26522 51.3352C8.27698 51.3409 8.28275 51.343 8.28668 51.3449C8.30629 51.3546 8.32798 51.3645 8.34944 51.3742C8.41406 51.4035 8.47868 51.4365 8.54122 51.4639C8.60583 51.4933 8.66444 51.5184 8.72906 51.5477C8.79368 51.5752 8.85644 51.6045 8.92106 51.6296C8.93075 51.6356 8.94252 51.6396 8.95221 51.6435C8.96606 51.6493 8.97968 51.655 8.99537 51.661C9.01891 51.6726 9.04429 51.6825 9.06967 51.694C9.10891 51.7097 9.14791 51.7273 9.18921 51.7429C9.76845 51.9869 10.4358 52.2423 11.1874 52.4883C11.2463 52.5077 11.3049 52.5273 11.3638 52.5449L11.3598 52.5488Z" fill="white" fill-opacity="0.5"/>
<path d="M12.7418 50.8456C12.5322 51.1049 12.2819 51.4133 12.0723 51.6726C11.8434 51.9556 11.5909 52.2659 11.3618 52.5489C11.3032 52.5293 11.2443 52.5099 11.1857 52.4921C10.4359 52.2463 9.76669 51.9909 9.18723 51.7469C9.14615 51.7313 9.10692 51.7137 9.06792 51.698C9.04439 51.6865 9.019 51.6766 8.99339 51.665C8.968 51.6551 8.94446 51.6436 8.91908 51.6336C8.85446 51.6083 8.79192 51.5792 8.72731 51.5517C8.66062 51.5245 8.60408 51.497 8.53946 51.4679C8.4767 51.4405 8.41208 51.4093 8.34746 51.3782C8.326 51.3683 8.30454 51.3586 8.28492 51.3489C8.281 51.3468 8.27316 51.3431 8.26346 51.3392C8.25746 51.3353 8.25169 51.3332 8.24385 51.3293C8.18316 51.302 8.11854 51.2748 8.05785 51.2473C7.90323 51.1751 7.74285 51.0953 7.59193 51.0209C7.52754 50.9898 7.47654 50.9605 7.41193 50.9275C7.34154 50.8922 7.267 50.8513 7.19477 50.8142C6.73462 50.5781 6.304 50.3303 5.89692 50.0748C5.87339 50.0612 5.85008 50.0476 5.82654 50.0319C5.59554 49.8913 5.37238 49.745 5.167 49.6006C5.167 49.6006 5.15708 49.5948 5.14531 49.5851C5.12385 49.5715 5.10239 49.5558 5.08069 49.5422C4.96323 49.4621 4.84392 49.3723 4.73038 49.2904C4.54254 49.1559 4.34085 48.9978 4.09231 48.7947C3.94946 48.6777 3.84377 48.5879 3.81054 48.5586C3.76739 48.5217 3.73208 48.4906 3.70092 48.4631L3.68523 48.4513C3.68523 48.4513 3.67531 48.4437 3.67139 48.4398C4.13546 47.8679 4.59931 47.2963 5.06315 46.7266C5.32162 46.9647 5.69154 47.2885 6.15723 47.6457C7.53908 48.7052 8.75869 49.2786 9.60816 49.6749C10.4048 50.0455 11.4578 50.4768 12.7397 50.8513L12.7418 50.8456Z" fill="white" fill-opacity="0.48"/>
<path d="M43.4148 48.5861C43.4148 48.5861 43.4049 48.5958 43.3991 48.5997C43.3424 48.6484 43.2856 48.6973 43.2288 48.7442C42.9978 48.9392 42.7532 49.1305 42.4987 49.3197C42.3891 49.3998 42.2755 49.4817 42.1601 49.5616C42.0094 49.667 41.8548 49.7723 41.6963 49.8756C41.612 49.9303 41.5278 49.985 41.4417 50.0397C41.3185 50.1177 41.1911 50.1957 41.064 50.2719C40.9347 50.348 40.8057 50.426 40.6726 50.5001C40.473 50.6132 40.2694 50.7265 40.0599 50.8377C39.9895 50.8746 39.9189 50.9118 39.8485 50.9469C39.7193 51.0133 39.5882 51.0796 39.4571 51.144L38.1357 49.4621C38.2689 49.3977 38.4 49.3315 38.5292 49.265C39.9367 48.5411 41.1051 47.7392 42.0369 46.8867L43.4148 48.584V48.5861Z" fill="#AF9FE7"/>
<path d="M38.4826 33.7751C46.7621 38.0383 46.8071 44.9491 38.5804 49.2124C30.3537 53.4756 16.9735 53.4756 8.69395 49.2124C0.414417 44.9491 0.369414 38.0383 8.59611 33.7751C16.8226 29.5118 30.203 29.5118 38.4826 33.7751Z" fill="#7220FF"/>
<path d="M38.4826 33.7751C46.7621 38.0383 46.8071 44.9491 38.5804 49.2124C30.3537 53.4756 16.9735 53.4756 8.69395 49.2124C0.414417 44.9491 0.369414 38.0383 8.59611 33.7751C16.8226 29.5118 30.203 29.5118 38.4826 33.7751Z" fill="url(#paint3_radial_1771_4468)" fill-opacity="0.64"/>
<path d="M46.6034 27.4178L46.5684 38.1451C46.5624 40.2172 45.5151 42.2872 43.4227 44.1271C42.4597 44.9741 41.2775 45.7739 39.8721 46.5017C39.7392 46.5719 39.604 46.6402 39.4671 46.7067C30.4692 51.1474 16.1807 51.0791 7.28659 46.5017C2.74366 44.1643 0.475202 41.0932 0.484894 38.0279L0.518124 27.3184C6.44783 28.5547 38.3734 27.4178 46.6034 27.4178Z" fill="#C9D7DD"/>
<path d="M46.6034 27.4178L46.5684 38.1451C46.5624 40.2172 45.5151 42.2872 43.4227 44.1271C42.4597 44.9741 41.2775 45.7739 39.8721 46.5017C39.7392 46.5719 39.604 46.6402 39.4671 46.7067C30.4692 51.1474 16.1807 51.0791 7.28659 46.5017C2.74366 44.1643 0.475202 41.0932 0.484894 38.0279L0.518124 27.3184C6.44783 28.5547 38.3734 27.4178 46.6034 27.4178Z" fill="url(#paint4_linear_1771_4468)" fill-opacity="0.8"/>
<path d="M46.6034 27.4178L46.5684 38.1451C46.5624 40.2172 45.5151 42.2872 43.4227 44.1271C42.4597 44.9741 41.2775 45.7739 39.8721 46.5017C39.7392 46.5719 39.604 46.6402 39.4671 46.7067C30.4692 51.1474 16.1807 51.0791 7.28659 46.5017C2.74366 44.1643 0.475202 41.0932 0.484894 38.0279L0.518124 27.3184C6.44783 28.5547 38.3734 27.4178 46.6034 27.4178Z" fill="url(#paint5_linear_1771_4468)" fill-opacity="0.8"/>
<path d="M39.8001 18.9603C48.8274 23.6079 48.8763 31.1431 39.9077 35.7908C30.9393 40.4382 16.3494 40.4382 7.32213 35.7908C-1.7051 31.1431 -1.75403 23.6079 7.21643 18.9603C16.1848 14.3127 30.7747 14.3127 39.802 18.9603H39.8001Z" fill="white"/>
<path d="M39.8001 18.9603C48.8274 23.6079 48.8763 31.1431 39.9077 35.7908C30.9393 40.4382 16.3494 40.4382 7.32213 35.7908C-1.7051 31.1431 -1.75403 23.6079 7.21643 18.9603C16.1848 14.3127 30.7747 14.3127 39.802 18.9603H39.8001Z" fill="url(#paint6_linear_1771_4468)" fill-opacity="0.6"/>
<path d="M38.4552 18.6715C46.7348 22.9347 46.7798 29.8456 38.5531 34.1089C30.3264 38.3721 16.9461 38.3721 8.66661 34.1089C0.387071 29.8456 0.342072 22.9347 8.56876 18.6715C16.7955 14.4083 30.1757 14.4083 38.4552 18.6715Z" fill="#7220FF"/>
<path d="M38.4552 18.6715C46.7348 22.9347 46.7798 29.8456 38.5531 34.1089C30.3264 38.3721 16.9461 38.3721 8.66661 34.1089C0.387071 29.8456 0.342072 22.9347 8.56876 18.6715C16.7955 14.4083 30.1757 14.4083 38.4552 18.6715Z" fill="url(#paint7_radial_1771_4468)" fill-opacity="0.64"/>
<path d="M11.3325 37.4433V48.1824C9.85672 47.7102 8.44164 47.1112 7.15949 46.4516C5.75225 45.7277 4.58364 44.8967 3.61279 44.0537V33.3693C3.62456 33.3557 3.63426 33.3439 3.64603 33.3303C3.64995 33.3342 3.65595 33.3382 3.65987 33.3421L3.67556 33.3539C3.70487 33.3811 3.74202 33.4122 3.78495 33.4494C3.82025 33.4787 3.9241 33.5685 4.06695 33.6855C4.31549 33.8883 4.51718 34.0464 4.70502 34.1812C4.81856 34.2631 4.93787 34.3529 5.05533 34.4327C5.07679 34.4463 5.09849 34.462 5.11995 34.4756C5.13356 34.4853 5.14141 34.4913 5.14141 34.4913C5.34703 34.6358 5.57202 34.7821 5.80118 34.9224C5.82449 34.9381 5.84803 34.9517 5.87156 34.9653C6.27864 35.2192 6.70926 35.4668 7.16918 35.7049C7.23979 35.7419 7.3141 35.7829 7.38656 35.818C7.45118 35.8512 7.50195 35.8806 7.56656 35.9117C7.71726 35.9858 7.87787 36.0677 8.03249 36.1381C8.0911 36.1653 8.15779 36.1926 8.21849 36.22C8.22633 36.2239 8.2321 36.2258 8.23787 36.2297C8.24964 36.2357 8.25564 36.2376 8.25956 36.2394C8.27918 36.2493 8.30064 36.259 8.3221 36.2687C8.38672 36.298 8.45133 36.3312 8.51387 36.3585C8.57849 36.3878 8.63733 36.4132 8.70195 36.4425C8.76656 36.4697 8.8291 36.499 8.89372 36.5244C8.90341 36.5302 8.91518 36.5341 8.9251 36.538C8.93872 36.5438 8.95233 36.5498 8.96803 36.5556C8.99156 36.5673 9.01695 36.577 9.04256 36.5888C9.08156 36.6042 9.12079 36.622 9.16187 36.6375C9.7411 36.8814 10.4087 37.1371 11.1603 37.3829C11.2189 37.4025 11.2778 37.4219 11.3364 37.4394L11.3325 37.4433Z" fill="white" fill-opacity="0.5"/>
<path d="M12.7142 35.7418C12.5049 36.0014 12.2543 36.3097 12.045 36.5691C11.8158 36.852 11.5634 37.1624 11.3344 37.4454C11.2756 37.4257 11.217 37.4061 11.1581 37.3886C10.4086 37.1428 9.73912 36.8871 9.15966 36.6434C9.11858 36.6277 9.07958 36.6102 9.04035 36.5945C9.01681 36.5827 8.99143 36.573 8.96605 36.5613C8.94043 36.5516 8.91712 36.5398 8.8915 36.5301C8.82712 36.5047 8.76435 36.4754 8.69974 36.4482C8.63328 36.421 8.57651 36.3935 8.51189 36.3644C8.44935 36.337 8.38474 36.3058 8.32012 36.2747C8.29843 36.2647 8.27697 36.255 8.25735 36.2454C8.25343 36.2433 8.24558 36.2394 8.23589 36.2354C8.23012 36.2317 8.22412 36.2297 8.21627 36.2257C8.15558 36.1985 8.09097 36.171 8.03027 36.1438C7.87566 36.0716 7.71527 35.9917 7.56458 35.9174C7.49997 35.8863 7.44897 35.857 7.38435 35.824C7.31397 35.7887 7.23966 35.7478 7.1672 35.7107C6.70728 35.4746 6.27666 35.2267 5.86958 34.9713C5.84605 34.9577 5.82251 34.9438 5.79897 34.9284C5.56797 34.7878 5.34481 34.6415 5.13943 34.497C5.13943 34.497 5.12951 34.4913 5.11797 34.4816C5.09628 34.4677 5.07481 34.4523 5.05335 34.4387C4.93589 34.3586 4.81635 34.2688 4.70282 34.1869C4.51497 34.0521 4.31351 33.8943 4.06474 33.6912C3.92189 33.5742 3.8162 33.4844 3.78297 33.4551C3.73981 33.4182 3.70474 33.3868 3.67335 33.3596L3.65766 33.3478C3.65766 33.3478 3.64797 33.34 3.64404 33.3363C4.10789 32.7644 4.57174 32.1928 5.03558 31.623C5.29404 31.8612 5.66397 32.185 6.12989 32.542C7.51174 33.6014 8.73112 34.1751 9.58058 34.5711C10.3772 34.942 11.4302 35.373 12.7124 35.7478L12.7142 35.7418Z" fill="white" fill-opacity="0.48"/>
<path d="M43.4228 33.5255V44.1455C42.4598 44.9922 41.2775 45.7921 39.8722 46.5199C39.739 46.5903 39.604 46.6584 39.4669 46.7248L39.4355 36.0462C39.5002 36.0151 39.5629 35.9839 39.6255 35.9507C39.6959 35.9156 39.7665 35.8785 39.8369 35.8434C40.6159 35.4414 41.3283 35.02 41.9742 34.579C42.0899 34.4992 42.2052 34.4191 42.3188 34.3372C42.5438 34.1752 42.7612 34.0092 42.9686 33.8435C43.0646 33.7674 43.1585 33.6894 43.2525 33.6114C43.2993 33.5703 43.3464 33.5313 43.3932 33.4902L43.4228 33.5255Z" fill="#9693D3"/>
<path d="M43.3877 33.4826C43.3877 33.4826 43.378 33.4923 43.372 33.4962C43.3153 33.5449 43.2585 33.5938 43.2017 33.6404C42.9707 33.8357 42.7261 34.027 42.4718 34.2162C42.3622 34.296 42.2487 34.378 42.133 34.458C41.9824 34.5635 41.8277 34.6687 41.6692 34.7721C41.585 34.8268 41.501 34.8815 41.4147 34.9362C41.2914 35.0142 41.1643 35.0922 41.0369 35.1683C40.9079 35.2443 40.7787 35.3225 40.6455 35.3966C40.4459 35.5097 40.2423 35.623 40.0328 35.7342C39.9624 35.7711 39.892 35.8083 39.8214 35.8433C39.6922 35.9098 39.5611 35.976 39.43 36.0404L38.1089 34.3586C38.242 34.2942 38.3731 34.2277 38.5024 34.1615C39.9096 33.4376 41.0782 32.6357 42.0098 31.783L43.3877 33.4805V33.4826Z" fill="#B1A1E7"/>
<path d="M46.5763 12.3322L46.541 23.0594C46.5352 25.1315 45.488 27.2017 43.3956 29.0416C42.4326 29.8884 41.2504 30.6883 39.845 31.4161C39.7119 31.4863 39.5769 31.5546 39.4398 31.621C30.4421 36.0617 16.1536 35.9934 7.25924 31.4161C2.71632 29.0787 0.447858 26.0076 0.45755 22.9424L0.491009 12.2327C5.2083 12.2327 38.342 12.3322 46.5763 12.3322Z" fill="#C9D7DD"/>
<path d="M46.5763 12.3322L46.541 23.0594C46.5352 25.1315 45.488 27.2017 43.3956 29.0416C42.4326 29.8884 41.2504 30.6883 39.845 31.4161C39.7119 31.4863 39.5769 31.5546 39.4398 31.621C30.4421 36.0617 16.1536 35.9934 7.25924 31.4161C2.71632 29.0787 0.447858 26.0076 0.45755 22.9424L0.491009 12.2327C5.2083 12.2327 38.342 12.3322 46.5763 12.3322Z" fill="url(#paint8_linear_1771_4468)" fill-opacity="0.8"/>
<path d="M46.5763 12.3322L46.541 23.0594C46.5352 25.1315 45.488 27.2017 43.3956 29.0416C42.4326 29.8884 41.2504 30.6883 39.845 31.4161C39.7119 31.4863 39.5769 31.5546 39.4398 31.621C30.4421 36.0617 16.1536 35.9934 7.25924 31.4161C2.71632 29.0787 0.447858 26.0076 0.45755 22.9424L0.491009 12.2327C5.2083 12.2327 38.342 12.3322 46.5763 12.3322Z" fill="url(#paint9_linear_1771_4468)" fill-opacity="0.8"/>
<path d="M39.7728 3.85458C48.8 8.50216 48.8489 16.0374 39.8805 20.685C30.9119 25.3326 16.322 25.3326 7.29478 20.685C-1.73245 16.0374 -1.78137 8.50216 7.18909 3.85458C16.1577 -0.792998 30.7476 -0.792998 39.7749 3.85458H39.7728Z" fill="white"/>
<path d="M39.7728 3.85458C48.8 8.50216 48.8489 16.0374 39.8805 20.685C30.9119 25.3326 16.322 25.3326 7.29478 20.685C-1.73245 16.0374 -1.78137 8.50216 7.18909 3.85458C16.1577 -0.792998 30.7476 -0.792998 39.7749 3.85458H39.7728Z" fill="url(#paint10_linear_1771_4468)" fill-opacity="0.6"/>
<path d="M38.4279 3.56581C46.7074 7.82902 46.7524 14.7399 38.5257 19.0031C30.299 23.2663 16.9188 23.2663 8.63926 19.0031C0.359728 14.7399 0.314728 7.82902 8.54142 3.56581C16.7681 -0.697394 30.1483 -0.697394 38.4279 3.56581Z" fill="#7220FF"/>
<path d="M38.4279 3.56581C46.7074 7.82902 46.7524 14.7399 38.5257 19.0031C30.299 23.2663 16.9188 23.2663 8.63926 19.0031C0.359728 14.7399 0.314728 7.82902 8.54142 3.56581C16.7681 -0.697394 30.1483 -0.697394 38.4279 3.56581Z" fill="url(#paint11_radial_1771_4468)" fill-opacity="0.64"/>
<path d="M11.3071 22.3395V33.0784C9.83132 32.6063 8.41601 32.0074 7.13409 31.3479C5.72663 30.624 4.55825 29.7928 3.5874 28.9499V18.2656C3.59917 18.2519 3.60886 18.2402 3.62063 18.2266C3.62456 18.2305 3.63032 18.2344 3.63425 18.2383L3.64994 18.25C3.67925 18.2773 3.71663 18.3085 3.75955 18.3456C3.79486 18.3749 3.89848 18.4646 4.04155 18.5817C4.29009 18.7846 4.49155 18.9426 4.67963 19.0772C4.79294 19.1592 4.91248 19.249 5.02994 19.3289C5.0514 19.3426 5.07286 19.3582 5.09455 19.3719C5.10817 19.3816 5.11602 19.3875 5.11602 19.3875C5.32163 19.5319 5.54663 19.6782 5.77555 19.8187C5.79909 19.8343 5.82263 19.8479 5.84617 19.8616C6.25325 20.1152 6.68386 20.363 7.14379 20.6011C7.21417 20.6381 7.28871 20.6791 7.36117 20.7143C7.42556 20.7474 7.47655 20.7767 7.54117 20.8079C7.69186 20.882 7.85225 20.964 8.00709 21.0342C8.06571 21.0615 8.13217 21.0889 8.19286 21.1162C8.20071 21.1201 8.20671 21.122 8.21248 21.1259C8.22425 21.1318 8.23002 21.1337 8.23394 21.1357C8.25355 21.1454 8.27525 21.1552 8.29671 21.1649C8.36132 21.1942 8.42594 21.2274 8.48848 21.2547C8.55309 21.284 8.61171 21.3093 8.67632 21.3386C8.74094 21.3659 8.80371 21.3952 8.86832 21.4205C8.87801 21.4264 8.88979 21.4303 8.89948 21.4342C8.91332 21.4401 8.92694 21.4459 8.94263 21.4518C8.96617 21.4635 8.99156 21.4732 9.01694 21.4849C9.05617 21.5006 9.09517 21.5181 9.13648 21.5337C9.71571 21.7776 10.3831 22.0332 11.1347 22.2791C11.1936 22.2986 11.2522 22.3181 11.311 22.3356L11.3071 22.3395Z" fill="white" fill-opacity="0.5"/>
<path d="M12.6869 20.6381C12.4775 20.8976 12.2269 21.2059 12.0176 21.4654C11.7885 21.7483 11.536 22.0585 11.3071 22.3414C11.2482 22.3219 11.1896 22.3024 11.1308 22.2849C10.3812 22.039 9.71177 21.7834 9.13254 21.5395C9.09124 21.5239 9.05223 21.5064 9.013 21.4907C8.98947 21.479 8.96408 21.4693 8.9387 21.4576C8.91331 21.4478 8.88977 21.4361 8.86439 21.4264C8.79977 21.401 8.737 21.3717 8.67239 21.3444C8.60593 21.3171 8.54916 21.2898 8.48454 21.2605C8.42201 21.2332 8.35739 21.202 8.29278 21.1708C8.27131 21.161 8.24962 21.1513 8.23001 21.1415C8.22608 21.1395 8.21847 21.1356 8.20854 21.1317C8.20277 21.1278 8.19677 21.1259 8.18893 21.122C8.12823 21.0947 8.06385 21.0674 8.00316 21.04C7.84854 20.9678 7.68793 20.8879 7.53724 20.8137C7.47262 20.7825 7.42162 20.7532 7.35724 20.72C7.28662 20.6849 7.21231 20.644 7.13985 20.6069C6.67993 20.3708 6.24931 20.123 5.84224 19.8674C5.8187 19.8538 5.79516 19.8401 5.77162 19.8245C5.54085 19.684 5.3177 19.5377 5.11208 19.3933C5.11208 19.3933 5.10239 19.3874 5.09062 19.3777C5.06893 19.364 5.04747 19.3484 5.02601 19.3348C4.90854 19.2548 4.78924 19.165 4.6757 19.0831C4.48762 18.9484 4.28616 18.7904 4.03762 18.5875C3.89454 18.4704 3.78885 18.3806 3.75562 18.3514C3.7127 18.3143 3.67739 18.2831 3.64601 18.2558L3.63031 18.2441C3.63031 18.2441 3.62062 18.2363 3.6167 18.2324C4.08055 17.6607 4.54439 17.089 5.00824 16.5193C5.2667 16.7573 5.63662 17.0812 6.10254 17.4383C7.48439 18.4977 8.70377 19.0714 9.55324 19.4674C10.3499 19.8381 11.4029 20.2694 12.685 20.644L12.6869 20.6381Z" fill="white" fill-opacity="0.48"/>
<path d="M43.3954 18.4216V29.0416C42.4324 29.8884 41.2502 30.6883 39.8448 31.4161C39.7117 31.4862 39.5767 31.5546 39.4396 31.621L39.4082 20.9425C39.4728 20.9112 39.5356 20.88 39.5981 20.8468C39.6687 20.8117 39.7391 20.7747 39.8095 20.7395C40.5886 20.3376 41.301 19.9162 41.9469 19.4752C42.0625 19.3952 42.1779 19.3152 42.2914 19.2333C42.5164 19.0713 42.7338 18.9055 42.9413 18.7396C43.0373 18.6635 43.1312 18.5855 43.2251 18.5074C43.272 18.4665 43.3191 18.4275 43.3661 18.3865L43.3954 18.4216Z" fill="#9693D3"/>
<path d="M43.3604 18.3789C43.3604 18.3789 43.3507 18.3886 43.3447 18.3925C43.2879 18.4413 43.2312 18.4901 43.1744 18.5369C42.9436 18.732 42.6988 18.9232 42.4445 19.1125C42.3349 19.1925 42.2213 19.2744 42.1057 19.3545C41.955 19.4598 41.8004 19.5652 41.6419 19.6686C41.5576 19.7232 41.4736 19.7778 41.3875 19.8325C41.2641 19.9105 41.1369 19.9886 41.0098 20.0646C40.8805 20.1407 40.7513 20.2188 40.6182 20.2929C40.4185 20.4061 40.215 20.5193 40.0055 20.6305C39.9351 20.6676 39.8647 20.7046 39.7941 20.7397C39.6651 20.8061 39.5338 20.8724 39.4027 20.9368L38.0815 19.2549C38.2147 19.1906 38.3458 19.1242 38.475 19.0579C39.8822 18.334 41.0508 17.5321 41.9825 16.6794L43.3604 18.3769V18.3789Z" fill="#B1A1E9"/>
<defs>
<linearGradient id="paint0_linear_1771_4468" x1="55.5963" y1="54.3849" x2="-6.7012" y2="52.6865" gradientUnits="userSpaceOnUse">
<stop stop-color="#4C7F8E" stop-opacity="0.5"/>
<stop offset="0.12" stop-color="#4C7F8E" stop-opacity="0.45"/>
<stop offset="0.3" stop-color="#4C7F8E" stop-opacity="0.33"/>
<stop offset="0.5" stop-color="#4C7F8E" stop-opacity="0.12"/>
<stop offset="0.6" stop-color="#4C7F8E" stop-opacity="0"/>
<stop offset="1" stop-color="#4C7F8E" stop-opacity="0"/>
</linearGradient>
<linearGradient id="paint1_linear_1771_4468" x1="55.5945" y1="54.3868" x2="-6.70305" y2="52.6865" gradientUnits="userSpaceOnUse">
<stop offset="0.57" stop-color="white" stop-opacity="0"/>
<stop offset="0.79" stop-color="white" stop-opacity="0.3"/>
<stop offset="0.87" stop-color="white" stop-opacity="0.42"/>
<stop offset="1" stop-color="white" stop-opacity="0.6"/>
</linearGradient>
<linearGradient id="paint2_linear_1771_4468" x1="0.545699" y1="42.479" x2="46.6292" y2="42.479" gradientUnits="userSpaceOnUse">
<stop stop-color="#4C7F8E" stop-opacity="0"/>
<stop offset="0.4" stop-color="#4C7F8E" stop-opacity="0"/>
<stop offset="0.5" stop-color="#4C7F8E" stop-opacity="0.12"/>
<stop offset="0.7" stop-color="#4C7F8E" stop-opacity="0.33"/>
<stop offset="0.88" stop-color="#4C7F8E" stop-opacity="0.45"/>
<stop offset="1" stop-color="#4C7F8E" stop-opacity="0.5"/>
</linearGradient>
<radialGradient id="paint3_radial_1771_4468" cx="0" cy="0" r="1" gradientUnits="userSpaceOnUse" gradientTransform="translate(52.6419 25.2486) scale(66.2693 66.0593)">
<stop offset="0.57" stop-color="white" stop-opacity="0"/>
<stop offset="0.79" stop-color="white" stop-opacity="0.3"/>
<stop offset="0.87" stop-color="white" stop-opacity="0.42"/>
<stop offset="1" stop-color="white" stop-opacity="0.6"/>
</radialGradient>
<linearGradient id="paint4_linear_1771_4468" x1="55.57" y1="39.2651" x2="-6.72757" y2="37.5666" gradientUnits="userSpaceOnUse">
<stop stop-color="#4C7F8E" stop-opacity="0.5"/>
<stop offset="0.12" stop-color="#4C7F8E" stop-opacity="0.45"/>
<stop offset="0.3" stop-color="#4C7F8E" stop-opacity="0.33"/>
<stop offset="0.5" stop-color="#4C7F8E" stop-opacity="0.12"/>
<stop offset="0.6" stop-color="#4C7F8E" stop-opacity="0"/>
<stop offset="1" stop-color="#4C7F8E" stop-opacity="0"/>
</linearGradient>
<linearGradient id="paint5_linear_1771_4468" x1="55.5681" y1="39.2669" x2="-6.72941" y2="37.5666" gradientUnits="userSpaceOnUse">
<stop offset="0.57" stop-color="white" stop-opacity="0"/>
<stop offset="0.79" stop-color="white" stop-opacity="0.3"/>
<stop offset="0.87" stop-color="white" stop-opacity="0.42"/>
<stop offset="1" stop-color="white" stop-opacity="0.6"/>
</linearGradient>
<linearGradient id="paint6_linear_1771_4468" x1="0.518356" y1="27.3755" x2="46.6018" y2="27.3755" gradientUnits="userSpaceOnUse">
<stop stop-color="#4C7F8E" stop-opacity="0"/>
<stop offset="0.4" stop-color="#4C7F8E" stop-opacity="0"/>
<stop offset="0.5" stop-color="#4C7F8E" stop-opacity="0.12"/>
<stop offset="0.7" stop-color="#4C7F8E" stop-opacity="0.33"/>
<stop offset="0.88" stop-color="#4C7F8E" stop-opacity="0.45"/>
<stop offset="1" stop-color="#4C7F8E" stop-opacity="0.5"/>
</linearGradient>
<radialGradient id="paint7_radial_1771_4468" cx="0" cy="0" r="1" gradientUnits="userSpaceOnUse" gradientTransform="translate(52.6145 10.1451) scale(66.2693 66.0593)">
<stop offset="0.57" stop-color="white" stop-opacity="0"/>
<stop offset="0.79" stop-color="white" stop-opacity="0.3"/>
<stop offset="0.87" stop-color="white" stop-opacity="0.42"/>
<stop offset="1" stop-color="white" stop-opacity="0.6"/>
</radialGradient>
<linearGradient id="paint8_linear_1771_4468" x1="55.5429" y1="24.1795" x2="-6.75491" y2="22.481" gradientUnits="userSpaceOnUse">
<stop stop-color="#4C7F8E" stop-opacity="0.5"/>
<stop offset="0.12" stop-color="#4C7F8E" stop-opacity="0.45"/>
<stop offset="0.3" stop-color="#4C7F8E" stop-opacity="0.33"/>
<stop offset="0.5" stop-color="#4C7F8E" stop-opacity="0.12"/>
<stop offset="0.6" stop-color="#4C7F8E" stop-opacity="0"/>
<stop offset="1" stop-color="#4C7F8E" stop-opacity="0"/>
</linearGradient>
<linearGradient id="paint9_linear_1771_4468" x1="55.5411" y1="24.1813" x2="-6.75679" y2="22.4809" gradientUnits="userSpaceOnUse">
<stop offset="0.57" stop-color="white" stop-opacity="0"/>
<stop offset="0.79" stop-color="white" stop-opacity="0.3"/>
<stop offset="0.87" stop-color="white" stop-opacity="0.42"/>
<stop offset="1" stop-color="white" stop-opacity="0.6"/>
</linearGradient>
<linearGradient id="paint10_linear_1771_4468" x1="0.491243" y1="12.2698" x2="46.5745" y2="12.2698" gradientUnits="userSpaceOnUse">
<stop stop-color="#4C7F8E" stop-opacity="0"/>
<stop offset="0.4" stop-color="#4C7F8E" stop-opacity="0"/>
<stop offset="0.5" stop-color="#4C7F8E" stop-opacity="0.12"/>
<stop offset="0.7" stop-color="#4C7F8E" stop-opacity="0.33"/>
<stop offset="0.88" stop-color="#4C7F8E" stop-opacity="0.45"/>
<stop offset="1" stop-color="#4C7F8E" stop-opacity="0.5"/>
</linearGradient>
<radialGradient id="paint11_radial_1771_4468" cx="0" cy="0" r="1" gradientUnits="userSpaceOnUse" gradientTransform="translate(52.5872 -4.95864) scale(66.2693 66.0593)">
<stop offset="0.57" stop-color="white" stop-opacity="0"/>
<stop offset="0.79" stop-color="white" stop-opacity="0.3"/>
<stop offset="0.87" stop-color="white" stop-opacity="0.42"/>
<stop offset="1" stop-color="white" stop-opacity="0.6"/>
</radialGradient>
</defs>
</svg>
