<svg width="25" height="25" viewBox="0 0 25 25" fill="none" xmlns="http://www.w3.org/2000/svg">
<path fill-rule="evenodd" clip-rule="evenodd" d="M19.6581 4.72425C19.951 4.43135 20.4259 4.43135 20.7188 4.72425L23.7102 7.71562C23.851 7.85196 23.9385 8.04299 23.9385 8.25445C23.9385 8.34164 23.9236 8.42535 23.8963 8.50319C23.8602 8.60607 23.8011 8.70266 23.7188 8.78491L20.7188 11.7849C20.4259 12.0778 19.951 12.0778 19.6581 11.7849C19.3653 11.492 19.3653 11.0171 19.6581 10.7242L21.4228 8.95955C21.3203 8.95604 21.2182 8.95267 21.1168 8.94958C20.4203 8.9284 19.7369 8.91988 19.0752 8.96456C17.7487 9.05414 16.5871 9.35337 15.668 10.1176C14.8731 10.7785 14.5638 11.6755 14.2306 12.8129C14.212 12.8762 14.1934 12.9404 14.1745 13.0054C13.8714 14.0492 13.5082 15.3002 12.5274 16.284C11.6055 17.2087 10.5096 17.634 9.66912 17.8306C9.36975 17.9007 9.09795 17.9429 8.87066 17.9682C8.5374 19.698 7.01553 21.0046 5.18848 21.0046C3.11741 21.0046 1.43848 19.3256 1.43848 17.2546C1.43848 15.1835 3.11741 13.5046 5.18848 13.5046C6.98641 13.5046 8.48883 14.7699 8.85383 16.4586C8.99599 16.4386 9.1558 16.4102 9.32744 16.3701C9.99476 16.214 10.8028 15.8893 11.4651 15.2249C12.1679 14.52 12.4335 13.6126 12.7647 12.4813C12.7734 12.4514 12.7822 12.4213 12.7911 12.3911C13.118 11.2756 13.5232 9.9501 14.709 8.96419C15.9752 7.91133 17.5026 7.56735 18.9742 7.46797C19.7115 7.41818 20.4545 7.42875 21.1624 7.45028C21.2182 7.45197 21.2736 7.45373 21.3288 7.45553L19.6581 5.78491C19.3653 5.49201 19.3653 5.01714 19.6581 4.72425ZM7.43848 17.254C7.43816 16.0116 6.43092 15.0046 5.18848 15.0046C3.94584 15.0046 2.93848 16.0119 2.93848 17.2546C2.93848 18.4972 3.94584 19.5046 5.18848 19.5046C6.43112 19.5046 7.43848 18.4966 7.43848 17.254C7.43848 17.2542 7.43848 17.2538 7.43848 17.254Z" fill="#512FC9"/>
</svg>
