<svg width="49" height="49" viewBox="0 0 49 49" fill="none" xmlns="http://www.w3.org/2000/svg">
<g clip-path="url(#clip0_1771_4627)">
<path d="M31.251 15.9421L32.7593 16.003L36.8619 11.9341L37.0635 10.1296C34.7132 8.07229 31.8729 6.72015 28.8108 6.05417C25.7488 5.38818 22.5661 5.50737 19.5634 6.40047C16.5607 7.29357 13.8371 8.9311 11.65 11.1584C9.46281 13.3856 7.88428 16.1291 7.06348 19.1296C7.52053 18.9438 8.02684 18.9137 8.50302 19.044L16.7084 17.702C16.7084 17.702 16.9725 17.2118 17.1885 17.2546C18.9466 15.3396 21.5297 13.9684 24.1336 13.772C26.7374 13.5756 29.221 14.3129 31.251 15.9421Z" fill="#EA4335"/>
<path d="M42.727 19.2189C41.768 15.705 39.7989 12.5461 37.0614 10.1296L31.251 15.9421C32.4714 16.9343 33.404 18.2032 34.0659 19.6263C34.7278 21.0494 35.0562 22.6035 35.0265 24.1713V25.2055C35.7109 25.2055 36.3886 25.3397 37.0209 25.6002C37.6532 25.8608 38.2278 26.2428 38.7117 26.7243C39.1957 27.2059 39.5796 27.7775 39.8415 28.4066C40.1034 29.0358 40.2382 29.7101 40.2382 30.391C40.2382 31.072 40.1034 31.7463 39.8415 32.3755C39.5796 33.0046 39.1957 33.5762 38.7117 34.0578C38.2278 34.5393 37.6532 34.9212 37.0209 35.1818C36.3886 35.4424 35.7109 35.5766 35.0265 35.5766L24.501 35.6296L23.5635 36.6253V42.845L24.501 43.8792L35.0265 43.8792C37.9372 43.9018 40.7779 42.9916 43.1284 41.2832C45.479 39.5749 47.2144 37.1592 48.078 34.3934C48.9417 31.6277 48.8877 28.6588 47.924 25.9259C46.9603 23.1931 45.1381 20.8414 42.727 19.2189Z" fill="#4285F4"/>
<path d="M14.165 43.8794L24.501 43.8796V35.6296L14.165 35.5356C13.4224 35.5354 12.8015 35.3757 12.126 35.0671L10.549 35.5209L6.34732 39.6929L5.93848 41.2546C8.29467 43.0337 11.2126 43.8923 14.165 43.8794Z" fill="#34A853"/>
<path d="M14.1641 16.8233C11.3398 16.8402 8.59124 17.7387 6.30241 19.3932C4.01358 21.0478 2.29873 23.3759 1.39737 26.0523C0.496015 28.7287 0.453166 31.6197 1.27481 34.3216C2.09645 37.0235 3.69969 39.533 5.93848 41.2546L12.126 35.0671C11.3576 34.72 10.5856 34.202 10.0663 33.5378C9.54708 32.8736 9.19673 32.0933 9.04535 31.264C8.89397 30.4346 8.94607 29.581 9.1972 28.7762C9.44832 27.9714 9.89097 27.2395 10.4872 26.6434C11.0833 26.0473 11.8153 25.6047 12.6201 25.3536C13.425 25.1025 14.2788 25.0504 15.1082 25.2018C15.9377 25.3531 16.718 25.7034 17.3822 26.2226C18.0465 26.7418 18.5749 27.4144 18.922 28.1827L24.9683 22.1371C23.6992 20.4782 22.0636 19.1353 20.1893 18.2135C18.315 17.2917 16.2528 16.8159 14.1641 16.8233Z" fill="#FBBC05"/>
</g>
<defs>
<clipPath id="clip0_1771_4627">
<rect x="0.688477" y="0.754639" width="48" height="48" rx="8" fill="white"/>
</clipPath>
</defs>
</svg>
