<svg width="24" height="25" viewBox="0 0 24 25" fill="none" xmlns="http://www.w3.org/2000/svg">
<path d="M17.7071 8.70711C18.0976 8.31658 18.0976 7.68342 17.7071 7.29289C17.3166 6.90237 16.6834 6.90237 16.2929 7.29289L10 13.5858L7.70711 11.2929C7.31658 10.9024 6.68342 10.9024 6.29289 11.2929C5.90237 11.6834 5.90237 12.3166 6.29289 12.7071L9.29289 15.7071C9.68342 16.0976 10.3166 16.0976 10.7071 15.7071L17.7071 8.70711Z" fill="#512FC9"/>
<path fill-rule="evenodd" clip-rule="evenodd" d="M2 0C1.46957 0 0.960859 0.210714 0.585787 0.585787C0.210714 0.960859 0 1.46957 0 2V9.34875C0 20.5772 9.52585 24.2814 11.373 24.8939C11.7797 25.0325 12.2209 25.0325 12.6275 24.8937C14.4717 24.2798 24 20.5723 24 9.34625V2C24 1.46957 23.7893 0.960861 23.4142 0.585787C23.0391 0.210714 22.5304 0 22 0H2ZM2 2L22 2V9.34625C22 19.141 13.7418 22.4141 12 22.9947C10.262 22.418 2 19.1493 2 9.34875L2 2Z" fill="#512FC9"/>
</svg>
