<svg width="28" height="26" viewBox="0 0 28 26" fill="none" xmlns="http://www.w3.org/2000/svg">
<path fill-rule="evenodd" clip-rule="evenodd" d="M12.5019 6.46179C13.826 5.95598 15.2725 5.86406 16.65 6.19821C18.0275 6.53235 19.2711 7.27681 20.2163 8.3331C20.5846 8.74467 20.5495 9.37686 20.1379 9.74514C19.7264 10.1134 19.0942 10.0783 18.7259 9.66677C18.0507 8.91227 17.1625 8.38052 16.1785 8.14184C15.1946 7.90317 14.1614 7.96882 13.2156 8.33011C12.2862 8.68516 11.4842 9.30926 10.9118 10.1221C10.246 11.3733 10.175 12.461 10.0796 13.9225C10.0608 14.2099 10.0411 14.5118 10.0158 14.8322C9.86046 16.7948 9.47737 19.1063 7.6079 22.2297C7.32426 22.7036 6.71017 22.8579 6.23628 22.5742C5.76239 22.2906 5.60816 21.6765 5.89179 21.2026C7.56442 18.408 7.88431 16.4144 8.02202 14.6744C8.04286 14.4111 8.05917 14.1455 8.07562 13.8774C8.16744 12.3818 8.26402 10.8087 9.17908 9.12134C9.19595 9.09024 9.21445 9.06005 9.23452 9.03091C10.0384 7.86348 11.1778 6.9676 12.5019 6.46179Z" fill="#512FC9"/>
<path d="M11.3322 2.62558C10.8113 2.80914 10.2403 2.53568 10.0567 2.01479C9.87314 1.49391 10.1466 0.922839 10.6675 0.739281C12.6285 0.0482238 14.7266 -0.162704 16.786 0.124175C18.8453 0.411055 20.8059 1.18738 22.5034 2.38809C24.2009 3.58881 25.5858 5.17892 26.5422 7.02516C27.4985 8.87141 27.9984 10.92 27.9998 12.9992C28.0014 15.7653 27.6938 18.5231 27.0826 21.2209C26.9606 21.7595 26.425 22.0972 25.8864 21.9752C25.3478 21.8532 25.01 21.3176 25.1321 20.779C25.7103 18.2266 26.0013 15.6177 25.9998 13.0006C25.9973 9.46106 24.2382 6.06495 21.3484 4.0209C18.4587 1.97687 14.6706 1.44916 11.3322 2.62558Z" fill="#512FC9"/>
<path d="M6.27565 3.36393C6.65651 2.96397 7.28948 2.94848 7.68944 3.32933C8.08812 3.70896 8.09643 4.35014 7.72011 4.74727C7.32979 5.16146 6.95814 5.59398 6.5996 6.03582C5.9698 6.81196 5.29876 7.73952 4.95007 8.50708C4.08843 10.4038 4.46313 12.5841 3.97028 14.5739C3.68916 15.7089 3.2032 17.2423 2.97841 17.9385C2.9379 18.0639 2.89713 18.1893 2.85582 18.3145C2.68222 18.8388 2.11646 19.1231 1.59217 18.9495C1.06789 18.7758 0.783614 18.2101 0.957205 17.6858C1.09662 17.2632 1.23137 16.8391 1.36334 16.4141C1.59064 15.6822 1.85668 14.7886 2.02894 14.0931C2.25292 13.1888 2.29161 12.4298 2.33371 11.6042C2.34214 11.4389 2.3507 11.2709 2.36092 11.0985C2.42181 10.0711 2.54383 8.96831 3.12916 7.67987C3.58944 6.66666 4.39852 5.57425 5.04658 4.77561C5.37839 4.36671 5.68339 4.01626 5.90571 3.76769C6.02738 3.63165 6.14992 3.49624 6.27565 3.36393Z" fill="#512FC9"/>
<path fill-rule="evenodd" clip-rule="evenodd" d="M20.9985 11.9999C21.5508 11.9992 21.9991 12.4463 21.9998 12.9986C22.0051 17.0393 21.2182 21.0418 19.6837 24.7797C19.4739 25.2906 18.8897 25.5348 18.3788 25.325C17.8679 25.1153 17.6237 24.5311 17.8335 24.0202C19.2688 20.5241 20.0048 16.7805 19.9998 13.0012C19.9991 12.449 20.4462 12.0007 20.9985 11.9999Z" fill="#512FC9"/>
<path fill-rule="evenodd" clip-rule="evenodd" d="M13.2333 22.0889C13.7365 22.3165 13.9598 22.909 13.7322 23.4122C13.4705 23.9905 13.1844 24.5574 12.874 25.1128C12.6046 25.5949 11.9953 25.7673 11.5132 25.4979C11.0311 25.2284 10.8587 24.6192 11.1282 24.1371C11.4111 23.6308 11.6717 23.1144 11.91 22.5877C12.1377 22.0845 12.7302 21.8612 13.2333 22.0889Z" fill="#512FC9"/>
<path fill-rule="evenodd" clip-rule="evenodd" d="M14.9981 11.9999C15.5504 11.999 15.9989 12.4459 15.9998 12.9982C16.0035 15.106 15.7411 17.2058 15.2186 19.2478C15.0818 19.7828 14.537 20.1056 14.002 19.9687C13.4669 19.8318 13.1442 19.2871 13.281 18.7521C13.7617 16.8732 14.0033 14.9411 13.9998 13.0017C13.9989 12.4494 14.4458 12.0009 14.9981 11.9999Z" fill="#512FC9"/>
</svg>
