<svg width="49" height="49" viewBox="0 0 49 49" fill="none" xmlns="http://www.w3.org/2000/svg">
<g clip-path="url(#clip0_1771_5347)">
<path d="M1.49589 1.88212C1.98559 1.39242 2.64397 1.10846 3.33622 1.08838V1.1682H23.8501C25.5263 1.1682 26.8034 2.68479 26.4841 4.36102L24.0097 16.1744C22.3335 23.5179 16.6662 24.4758 12.5156 24.4758H3.49586C2.0591 24.4758 0.861789 23.1986 0.861789 21.8417L0.702148 3.72245C0.722226 3.0302 1.00619 2.37182 1.49589 1.88212Z" fill="#788EB1"/>
<path d="M27.0434 17.5312C28.56 12.0236 32.2317 9.3895 38.3779 9.3895C38.3779 9.3895 46.2003 9.07022 46.2003 8.9904C47.4774 8.9904 48.5151 10.1079 48.5151 11.3052L48.6747 45.7078C48.6747 47.1446 47.5573 48.1822 46.2003 48.1822L3.1771 48.4217C1.89997 48.4217 0.862305 47.3042 0.862305 46.1069V39.3222C0.862305 37.8854 1.97979 36.8477 3.33674 36.8477H13.9529C18.5824 36.8477 21.2165 35.0119 22.7331 30.7016L27.0434 17.5312Z" fill="#788EB1"/>
</g>
<defs>
<clipPath id="clip0_1771_5347">
<rect x="0.688477" y="0.754883" width="48" height="48" rx="8" fill="white"/>
</clipPath>
</defs>
</svg>
