<svg width="49" height="49" viewBox="0 0 49 49" fill="none" xmlns="http://www.w3.org/2000/svg">
<g clip-path="url(#clip0_1771_6308)">
<path fill-rule="evenodd" clip-rule="evenodd" d="M41.4403 23.8846C41.4403 33.3946 33.9032 41.104 24.6056 41.104C15.3082 41.104 7.771 33.3946 7.771 23.8846C7.771 14.3745 15.3082 6.66492 24.6056 6.66492C33.9032 6.66492 41.4403 14.3745 41.4403 23.8846Z" fill="#D33833"/>
<path d="M8.45752 28.1494C8.45752 28.1494 7.23881 10.1924 23.785 9.67931L22.6307 7.75534L13.6522 10.7696L11.0869 13.7196L8.84232 18.0166L7.55957 23.019L7.94436 26.3538" fill="#EF3D3A"/>
<path d="M13.0759 12.1383C10.1222 15.1605 8.29447 19.3332 8.29447 23.9494C8.29447 28.5646 10.1222 32.7378 13.0759 35.7594C16.031 38.781 20.1036 40.6456 24.606 40.6456C29.1085 40.6456 33.1813 38.781 36.1362 35.7594C39.0896 32.7378 40.9178 28.5646 40.9178 23.9494C40.9178 19.3332 39.0896 15.1605 36.1362 12.1383C33.1813 9.11728 29.1085 7.25277 24.606 7.25238C20.1036 7.25277 16.031 9.11728 13.0759 12.1383ZM12.3283 36.4904C9.18918 33.2801 7.24854 28.8434 7.24854 23.9494C7.24854 19.0546 9.18918 14.6183 12.3283 11.4078C15.4666 8.19667 19.8109 6.20632 24.606 6.2069C29.4011 6.20632 33.7458 8.19667 36.8836 11.4078C40.023 14.6183 41.9639 19.055 41.9635 23.9494C41.9639 28.8434 40.023 33.2801 36.8836 36.4904C33.7458 39.7013 29.4011 41.6914 24.606 41.6914C19.8109 41.6914 15.4666 39.7013 12.3283 36.4904Z" fill="#231F20"/>
<path fill-rule="evenodd" clip-rule="evenodd" d="M31.6925 23.9803L29.1271 24.3651L25.6639 24.7499L23.4192 24.814L21.2388 24.7499L19.5712 24.2368L18.0962 22.6335L16.9418 19.3628L16.6853 18.6573L15.1461 18.1443L14.2482 16.6692L13.6069 14.5529L14.3125 12.693L15.9798 12.1158L17.3266 12.7572L17.968 14.1681L18.7376 14.0397L18.994 13.7192L18.7376 12.2441L18.6734 10.3842L19.0582 7.81897L19.0431 6.35368L20.2125 4.48416L22.2648 3.00905L25.8563 1.46987L29.8324 2.04706L33.2956 4.54822L34.899 7.11345L35.925 8.97335L36.1815 13.5909L35.4119 17.5671L34.0011 21.0944L32.6543 22.9543" fill="#F0D6B7"/>
<path fill-rule="evenodd" clip-rule="evenodd" d="M29.5121 35.0753L20.341 35.4601V36.9993L21.1106 42.3864L20.7258 42.8354L14.3127 40.6548L13.8637 39.8852L13.2224 32.6384L11.7475 28.2774L11.4268 27.2513L16.5572 23.7241L18.1606 23.0826L19.5715 24.8142L20.7899 25.9045L22.201 26.3534L22.8422 26.5458L23.6118 29.8806L24.189 30.5861L25.6641 30.073L24.6379 32.0612L30.2174 34.6905L29.5121 35.0753Z" fill="#335061"/>
<path fill-rule="evenodd" clip-rule="evenodd" d="M14.3123 12.6929L15.9796 12.1157L17.3264 12.7571L17.9679 14.168L18.7374 14.0396L18.9298 13.2701L18.5451 11.7951L18.9298 8.26774L18.6091 6.34377L19.7635 4.99699L22.2646 3.00895L21.5591 2.04697L18.0319 3.77854L16.5568 4.93292L15.7231 6.72856L14.4405 8.46013L14.0557 10.5124L14.3123 12.6929Z" fill="#6D6B6D"/>
<path fill-rule="evenodd" clip-rule="evenodd" d="M16.9417 6.66464C16.9417 6.66464 17.9037 4.29181 21.7516 3.13743C25.5996 1.98305 21.944 2.30358 21.944 2.30358L17.7756 3.90702L16.1721 5.51026L15.4668 6.79297L16.9417 6.66464Z" fill="#DCD9D8"/>
<path fill-rule="evenodd" clip-rule="evenodd" d="M15.0176 12.244C15.0176 12.244 13.6709 7.75462 18.8015 7.11336L18.6091 6.34377L15.0819 7.17762L14.0557 10.5124L14.3123 12.6929L15.0176 12.244Z" fill="#DCD9D8"/>
<path fill-rule="evenodd" clip-rule="evenodd" d="M17.0698 18.2084L17.9095 17.3947C17.9095 17.3947 18.2885 17.4388 18.3526 17.8877C18.4166 18.3367 18.609 22.377 21.3667 24.5577C21.6182 24.7566 19.3146 24.2367 19.3146 24.2367L17.2622 21.0303" fill="#F7E4CD"/>
<path fill-rule="evenodd" clip-rule="evenodd" d="M28.8709 16.9897C28.8709 16.9897 29.0203 15.0458 29.5439 15.1953C30.0674 15.3448 30.0674 15.8683 30.0674 15.8683C30.0674 15.8683 28.796 16.6908 28.8709 16.9897Z" fill="#F7E4CD"/>
<path d="M34.1935 9.87143C34.1935 9.87143 33.1364 10.0946 33.0391 11.0258C32.9417 11.9572 34.1935 11.2182 34.3859 11.1541" fill="#F7E4CD"/>
<path d="M26.4335 9.9354C26.4335 9.9354 25.0225 10.1278 25.0225 11.0255C25.0225 11.9234 26.6259 11.8594 27.0748 11.4746" fill="#F7E4CD"/>
<path fill-rule="evenodd" clip-rule="evenodd" d="M17.7119 14.1037C17.7119 14.1037 15.2748 12.6286 15.0184 14.0397C14.7619 15.4505 14.1845 16.4767 15.4032 17.9517L14.5695 17.6952L13.7999 15.7072L13.5435 13.7832L15.0184 12.2438L16.6858 12.3722L17.6478 13.1417L17.7119 14.1037Z" fill="#F7E4CD"/>
<path fill-rule="evenodd" clip-rule="evenodd" d="M18.866 10.0635C18.866 10.0635 19.9562 4.4199 25.4717 3.32959C30.0125 2.43205 32.3978 3.52198 33.2958 4.54803C33.2958 4.54803 29.2554 -0.261694 25.4075 1.21322C21.5595 2.68833 18.7378 5.38188 18.8018 7.11326C18.9111 10.0623 18.866 10.0635 18.866 10.0635Z" fill="#F7E4CD"/>
<path fill-rule="evenodd" clip-rule="evenodd" d="M33.7448 5.1893C33.7448 5.1893 31.8851 5.12523 31.8208 6.79273C31.8208 6.79273 31.8206 7.0492 31.9489 7.30566C31.9489 7.30566 33.4242 5.63816 34.322 6.53608" fill="#F7E4CD"/>
<path fill-rule="evenodd" clip-rule="evenodd" d="M25.6012 7.47938C25.6012 7.47938 25.2811 4.91992 23.0989 6.40792C21.6881 7.3699 21.8164 8.71668 22.0729 8.97315C22.3294 9.2298 22.2596 9.74639 22.4549 9.3918C22.65 9.03722 22.5858 7.88283 23.2913 7.5623C23.9968 7.24158 25.1533 6.88333 25.6012 7.47938Z" fill="#F7E4CD"/>
<path fill-rule="evenodd" clip-rule="evenodd" d="M19.5715 24.8139L13.5431 27.5075C13.5431 27.5075 16.0443 37.448 14.7615 40.5264L13.8637 40.2058L13.7995 36.4219L12.1323 29.2392L11.4268 27.251L17.7116 23.0184L19.5715 24.8139Z" fill="#49728B"/>
<path fill-rule="evenodd" clip-rule="evenodd" d="M20.1912 30.3122L21.0465 31.3557V35.2036H20.0202C20.0202 35.2036 19.8921 32.5101 19.8921 32.1893C19.8921 31.8686 20.0202 30.7142 20.0202 30.7142" fill="#49728B"/>
<path fill-rule="evenodd" clip-rule="evenodd" d="M20.2126 35.7811L17.3267 35.9093L18.1605 36.4864L20.2126 36.8071" fill="#49728B"/>
<path fill-rule="evenodd" clip-rule="evenodd" d="M30.0889 35.1392L32.4617 35.0751L33.0389 40.9754L30.6018 41.2959L30.0889 35.1392Z" fill="#335061"/>
<path fill-rule="evenodd" clip-rule="evenodd" d="M30.73 35.1392L34.3215 34.9468C34.3215 34.9468 35.7964 31.2271 35.7964 31.0347C35.7964 30.8423 37.0791 25.6476 37.0791 25.6476L34.1931 22.6336L33.6159 22.1204L32.0768 23.6596V29.6239L30.73 35.1392Z" fill="#335061"/>
<path fill-rule="evenodd" clip-rule="evenodd" d="M32.3334 34.6904L30.0889 35.1393L30.4094 36.9352C31.2431 37.3199 32.6541 36.2937 32.6541 36.2937" fill="#49728B"/>
<path fill-rule="evenodd" clip-rule="evenodd" d="M32.3979 23.4674L36.8871 26.8022L37.0155 25.2631L33.6164 22.1207L32.3979 23.4674Z" fill="#49728B"/>
<path fill-rule="evenodd" clip-rule="evenodd" d="M22.4382 47.7742L21.1104 42.3864L20.45 38.4109L20.3408 35.4601L26.3503 35.1401L30.0891 35.1395L29.7491 41.874L30.3263 47.0687L30.2622 48.0307L25.3883 48.4155L22.4382 47.7742Z" fill="white"/>
<path fill-rule="evenodd" clip-rule="evenodd" d="M29.2554 35.0751C29.2554 35.0751 28.9348 41.7449 29.8968 46.4906C29.8968 46.4906 27.9728 47.7093 25.1509 48.0298L30.5381 47.8374L31.1793 47.4526L30.4097 36.935L30.2173 34.6901" fill="#DCD9D8"/>
<path fill-rule="evenodd" clip-rule="evenodd" d="M33.1484 40.4629L35.6495 39.7574L40.3952 39.5009L41.1007 37.3205L39.818 33.5366L38.3431 33.3442L36.2908 33.9855L34.3218 34.9469L33.2765 34.7551L32.4619 35.0752" fill="white"/>
<path fill-rule="evenodd" clip-rule="evenodd" d="M33.103 39.1796C33.103 39.1796 34.7703 38.4102 35.027 38.4743L34.3217 34.9469L35.1553 34.6263C35.1553 34.6263 35.7325 37.9611 35.7325 38.3459C35.7325 38.3459 39.3238 38.5383 39.6445 38.5383C39.6445 38.5383 40.4141 37.0632 40.2217 35.5241L40.9272 37.5763L40.9913 38.7307L39.9652 40.2699L38.8109 40.5264L36.8869 40.4623L36.2456 39.6286L34.0009 39.9492L33.2954 40.2058" fill="#DCD9D8"/>
<path d="M30.5827 34.627L29.1719 31.0355L27.6968 28.9191C27.6968 28.9191 28.0173 28.0212 28.4664 28.0212C28.9154 28.0212 29.9415 28.0212 29.9415 28.0212L31.3523 28.5343L31.2242 30.9072L30.5827 34.627Z" fill="white"/>
<path fill-rule="evenodd" clip-rule="evenodd" d="M30.8591 33.4079C30.8591 33.4079 29.0633 29.9449 29.0633 29.4318C29.0633 29.4318 29.3838 28.6622 29.8329 28.8546C30.2819 29.047 31.2439 29.5599 31.2439 29.5599V28.3415L29.0633 27.8924L27.5884 28.0848L30.0895 33.9851L30.6025 34.0493" fill="#DCD9D8"/>
<path d="M23.0155 24.9429L21.2388 24.7498L19.5713 24.2366V24.8138L20.3861 25.7123L22.9513 26.8667" fill="white"/>
<path fill-rule="evenodd" clip-rule="evenodd" d="M20.1485 25.1351C20.1485 25.1351 22.1367 25.969 22.778 25.7766L22.8418 26.5454L21.0464 26.1614L19.9561 25.3918L20.1485 25.1351Z" fill="#DCD9D8"/>
<path fill-rule="evenodd" clip-rule="evenodd" d="M33.1417 28.2397C32.0535 28.2078 31.0703 28.0785 30.2095 27.8357C30.268 27.4829 30.1586 27.1365 30.2465 26.8824C30.4864 26.7096 30.8885 26.7123 31.2512 26.6717C30.9376 26.5176 30.497 26.4566 30.1351 26.5457C30.1266 26.3008 30.0168 26.149 29.9502 25.9573C30.562 25.739 32.0063 24.3073 32.8188 24.7814C33.2059 25.0069 33.3704 26.2948 33.4004 26.9211C33.4255 27.4405 33.3533 27.9646 33.1417 28.2397Z" fill="#D33833"/>
<path d="M33.1417 28.2397C32.0535 28.2078 31.0703 28.0785 30.2095 27.8357C30.268 27.4829 30.1586 27.1365 30.2465 26.8824C30.4864 26.7096 30.8885 26.7123 31.2512 26.6717C30.9376 26.5176 30.497 26.4566 30.1351 26.5457C30.1266 26.3008 30.0168 26.149 29.9502 25.9573C30.562 25.739 32.0063 24.3073 32.8188 24.7814C33.2059 25.0069 33.3704 26.2948 33.4004 26.9211C33.4255 27.4405 33.3533 27.9646 33.1417 28.2397Z" stroke="#D33833" stroke-width="2.5"/>
<path fill-rule="evenodd" clip-rule="evenodd" d="M27.9375 26.4607C27.9346 26.5431 27.9311 26.626 27.9278 26.7091C27.5881 26.9323 27.0396 26.9296 26.6667 27.1172C27.2164 27.1412 27.6491 27.2736 28.0235 27.4602C28.0152 27.6676 28.0073 27.8748 27.9992 28.0822C27.3764 28.5086 26.8075 29.1435 26.0743 29.5433C25.7276 29.7324 24.5108 30.219 24.1419 30.133C23.9332 30.0845 23.9144 29.8255 23.831 29.5814C23.6533 29.0587 23.2441 28.2265 23.2084 27.4396C23.1629 26.4457 23.0626 24.7799 24.1337 24.9847C24.9978 25.1495 26.0029 25.5476 26.6719 25.9132C27.0807 26.1367 27.3172 26.413 27.9375 26.4607Z" fill="#D33833"/>
<path d="M27.9375 26.4607C27.9346 26.5431 27.9311 26.626 27.9278 26.7091C27.5881 26.9323 27.0396 26.9296 26.6667 27.1172C27.2164 27.1412 27.6491 27.2736 28.0235 27.4602C28.0152 27.6676 28.0073 27.8748 27.9992 28.0822C27.3764 28.5086 26.8075 29.1435 26.0743 29.5433C25.7276 29.7324 24.5108 30.219 24.1419 30.133C23.9332 30.0845 23.9144 29.8255 23.831 29.5814C23.6533 29.0587 23.2441 28.2265 23.2084 27.4396C23.1629 26.4457 23.0626 24.7799 24.1337 24.9847C24.9978 25.1495 26.0029 25.5476 26.6719 25.9132C27.0807 26.1367 27.3172 26.413 27.9375 26.4607Z" stroke="#D33833" stroke-width="2.5"/>
<path fill-rule="evenodd" clip-rule="evenodd" d="M28.5561 27.6464C28.461 27.105 28.3512 26.9505 28.3937 26.4781C29.8376 25.5154 30.1087 28.1318 28.5561 27.6464Z" fill="#D33833"/>
<path d="M28.5561 27.6464C28.461 27.105 28.3512 26.9505 28.3937 26.4781C29.8376 25.5154 30.1087 28.1318 28.5561 27.6464Z" stroke="#D33833" stroke-width="2.5"/>
<path fill-rule="evenodd" clip-rule="evenodd" d="M30.6469 28.0854C30.6469 28.0854 30.1979 27.444 30.5186 27.2516C30.8393 27.0592 31.1601 27.2518 31.3525 26.9311C31.5449 26.6103 31.3525 26.4179 31.4165 26.0332C31.4806 25.6484 31.8015 25.5841 32.122 25.52C32.4426 25.456 33.3407 25.3276 33.4688 25.6484L33.084 24.494L32.3144 24.2375L29.8774 25.6484L29.749 26.3539V27.7647" fill="#EF3D3A"/>
<path fill-rule="evenodd" clip-rule="evenodd" d="M23.9132 30.2017C23.8362 29.2008 23.7546 28.2013 23.6639 27.2014C23.5282 25.7084 24.0225 25.9689 25.3167 25.9689C25.5144 25.9689 26.5338 26.2046 26.6067 26.3537C26.9565 27.0681 26.0218 26.9093 27.0096 27.4481C27.8434 27.9027 29.3164 27.172 28.9795 26.1613C28.791 25.9366 27.9972 26.0913 27.7126 25.9437C27.2116 25.684 26.7106 25.4242 26.2095 25.1645C25.5721 24.8338 24.0988 24.3516 23.4192 24.8138C21.6972 25.9849 23.5279 28.911 24.1422 30.1327" fill="#EF3D3A"/>
<path fill-rule="evenodd" clip-rule="evenodd" d="M25.6008 7.47966C23.8528 7.07255 22.9842 8.21116 22.4544 9.39209C21.9813 9.27742 22.1696 8.63405 22.289 8.3062C22.6019 7.4458 23.8628 6.30046 24.893 6.45573C25.3364 6.52249 25.9363 6.92787 25.6008 7.47966Z" fill="#231F20"/>
<path fill-rule="evenodd" clip-rule="evenodd" d="M34.118 9.4704C34.1455 9.47156 34.1734 9.47252 34.2009 9.47367C34.5959 10.2942 34.9378 11.1635 35.4361 11.8879C35.1023 12.6653 32.9084 13.3534 32.9423 11.9573C33.4167 11.7499 34.2358 11.915 34.6563 11.6501C34.4132 10.9826 34.0622 10.4145 34.118 9.4704Z" fill="#231F20"/>
<path fill-rule="evenodd" clip-rule="evenodd" d="M26.4959 9.49175C26.8707 10.1788 26.9927 10.9007 27.5254 11.42C27.7653 11.6537 28.2319 11.9387 28.0006 12.5888C27.9466 12.7421 27.5516 13.084 27.3236 13.1511C26.4907 13.397 24.5499 13.2019 25.2072 12.1636C25.896 12.1957 26.8218 12.6109 27.3367 12.1108C26.9413 11.4788 26.2364 10.2284 26.4959 9.49175Z" fill="#231F20"/>
<path fill-rule="evenodd" clip-rule="evenodd" d="M33.8049 16.4743C32.5508 17.2799 31.1525 18.1559 29.0977 17.9527C28.6587 17.571 28.4913 16.7215 28.9178 16.1605C29.1398 16.5422 29.0004 17.2443 29.6191 17.3499C30.785 17.5494 32.142 16.6367 32.9807 16.3177C33.5007 15.441 32.9358 15.1185 32.4673 14.5542C31.5082 13.3981 30.2217 11.9651 30.2684 10.2343C30.6561 9.95322 30.6896 10.6634 30.7452 10.7926C31.246 11.9647 32.5064 13.4637 33.4263 14.4668C33.6521 14.7139 34.024 14.9509 34.0654 15.1143C34.1847 15.5893 33.7551 16.1584 33.8049 16.4743Z" fill="#231F20"/>
<path fill-rule="evenodd" clip-rule="evenodd" d="M17.2727 15.6265C16.8796 15.4022 16.7861 14.414 16.3246 14.3859C15.6651 14.3459 15.7854 15.6679 15.788 16.4409C15.3341 16.0288 15.2543 14.7599 15.5877 14.1083C15.2077 13.9217 15.038 14.3142 14.8271 14.4525C15.0981 12.4843 17.7063 13.5396 17.2727 15.6265Z" fill="#231F20"/>
<path fill-rule="evenodd" clip-rule="evenodd" d="M34.6032 17.2942C34.0195 18.4053 33.1937 19.629 31.4808 19.6646C31.446 19.3057 31.4192 18.7597 31.4827 18.5436C32.7922 18.4178 33.6006 17.7514 34.6032 17.2942Z" fill="#231F20"/>
<path fill-rule="evenodd" clip-rule="evenodd" d="M26.397 18.0141C27.4895 18.5886 29.4973 18.6504 30.9823 18.6069C31.0619 18.9322 31.06 19.3341 31.0631 19.7309C29.1543 19.8261 26.8975 19.3538 26.397 18.0141Z" fill="#231F20"/>
<path fill-rule="evenodd" clip-rule="evenodd" d="M26.1895 19.0852C26.945 20.9821 29.5416 20.7637 31.7312 20.7114C31.6348 20.9576 31.4259 21.2486 31.1662 21.3538C30.4645 21.6393 28.5292 21.8559 27.5551 21.3386C26.9373 21.0102 26.5404 20.2681 26.2019 19.8331C26.0384 19.623 25.2245 19.0864 26.1895 19.0852Z" fill="#231F20"/>
<path fill-rule="evenodd" clip-rule="evenodd" d="M33.7134 29.5485C32.8269 31.0669 31.9786 32.6265 30.9268 33.9658C31.3677 32.6692 31.5565 30.4991 31.623 28.8448C32.5456 28.413 33.3356 28.9419 33.7134 29.5485Z" fill="#81B0C4"/>
<path fill-rule="evenodd" clip-rule="evenodd" d="M38.484 35.006C37.4915 35.2047 36.794 36.1694 35.8257 36.1075C36.3579 35.3573 37.2904 35.041 38.484 35.006Z" fill="#231F20"/>
<path fill-rule="evenodd" clip-rule="evenodd" d="M38.9221 36.5594C38.1131 36.6449 37.1629 36.7759 36.3423 36.7084C36.7307 36.115 38.2274 36.3198 38.9221 36.5594Z" fill="#231F20"/>
<path fill-rule="evenodd" clip-rule="evenodd" d="M39.203 37.8988C38.2937 37.9185 37.1636 37.9004 36.2993 37.8279C36.8105 37.2788 38.6133 37.6241 39.203 37.8988Z" fill="#231F20"/>
<path fill-rule="evenodd" clip-rule="evenodd" d="M32.0029 41.5637C32.1333 42.7057 32.5861 43.8627 32.5293 45.1133C32.0266 45.2828 31.7378 45.4311 31.0642 45.4302C31.0167 44.3673 30.8745 42.7426 30.917 41.7294C31.2483 41.7513 31.7368 41.4927 32.0029 41.5637Z" fill="#DCD9D8"/>
<path fill-rule="evenodd" clip-rule="evenodd" d="M30.5369 24.7342C30.0803 25.0322 29.6915 25.4043 29.253 25.7226C28.2806 25.7707 27.75 25.6552 27.0356 25.0969C27.0474 25.0521 27.1191 25.0721 27.1218 25.017C28.1627 25.4809 29.4858 24.8281 30.5369 24.7342Z" fill="#F0D6B7"/>
<path fill-rule="evenodd" clip-rule="evenodd" d="M25.0728 31.8294C25.3587 30.5901 26.4793 29.9483 27.4969 29.2659C28.5472 30.5988 29.1859 32.3131 29.8893 33.9673C28.2274 33.4663 26.5293 32.6534 25.0728 31.8294Z" fill="#81B0C4"/>
<path fill-rule="evenodd" clip-rule="evenodd" d="M30.9174 41.7293C30.8749 42.7424 31.0171 44.3672 31.0646 45.4301C31.7382 45.431 32.027 45.2827 32.5297 45.1131C32.5865 43.8626 32.1338 42.7055 32.0033 41.5636C31.7372 41.4926 31.2487 41.7512 30.9174 41.7293ZM20.4291 35.9672C20.8732 40.0505 21.5166 43.4829 22.6965 47.0987C25.3153 47.8939 28.4722 47.9632 30.787 47.2457C30.362 45.2049 30.5476 42.7204 30.2992 40.5426C30.112 38.9057 30.2075 37.2588 29.9508 35.5887C27.1461 35.0052 23.1816 35.4523 20.4291 35.9672ZM30.614 35.6144C30.5903 37.368 30.6925 39.0979 30.8264 40.8537C31.4998 40.7526 31.9567 40.6851 32.5824 40.548C32.3792 38.8576 32.4043 36.9555 31.9904 35.4602C31.5121 35.4648 31.091 35.4547 30.614 35.6144ZM34.03 35.3317C33.7104 35.2584 33.3383 35.3289 33.033 35.3348C33.1765 36.7643 33.5248 38.3418 33.6473 39.8423C34.1278 39.8572 34.3844 39.6307 34.7796 39.5545C34.8008 38.2373 34.6645 36.4226 34.03 35.3317ZM39.2024 40.0575C40.2038 39.8143 40.8336 38.5878 40.5534 37.3282C40.3654 36.4817 40.0307 34.8876 39.6724 34.3461C39.4077 33.9455 38.6899 33.4211 38.1167 33.7881C37.1844 34.3851 35.5419 34.5584 34.8619 35.2811C35.2029 36.4163 35.3087 37.9754 35.4493 39.4138C36.6141 39.4864 38.0473 39.0932 39.016 39.5104C38.3397 39.7295 37.4622 39.7312 36.8779 40.0505C37.3554 40.2811 38.4734 40.2345 39.2024 40.0575ZM29.8898 33.9674C29.1864 32.3132 28.5477 30.599 27.4974 29.266C26.4798 29.9484 25.3592 30.5903 25.0733 31.8295C26.5298 32.6536 28.2279 33.4664 29.8898 33.9674ZM31.6237 28.8449C31.5571 30.4992 31.3684 32.6693 30.9274 33.9659C31.9793 32.6266 32.8275 31.067 33.7141 29.5486C33.3362 28.942 32.5462 28.4131 31.6237 28.8449ZM29.6582 28.1465C29.2597 28.1035 28.9215 28.6045 28.4034 28.3879C28.2847 28.5191 28.1767 28.6613 28.0557 28.7894C29.2001 30.1686 29.7201 32.1252 30.604 33.7459C31.0783 32.1891 31.0236 30.4835 31.1281 28.7842C30.4764 28.8256 30.1149 28.1949 29.6582 28.1465ZM28.3943 26.4784C28.3518 26.9507 28.4617 27.1052 28.5567 27.6466C30.1094 28.132 29.8383 25.5156 28.3943 26.4784ZM26.6726 25.9131C26.0035 25.5476 24.9985 25.1495 24.1344 24.9846C23.0633 24.7797 23.1636 26.4457 23.2091 27.4396C23.2447 28.2265 23.654 29.0586 23.8317 29.5814C23.9151 29.8255 23.9339 30.0845 24.1426 30.1329C24.5115 30.2189 25.7282 29.7324 26.0749 29.5433C26.8082 29.1435 27.3771 28.5085 27.9999 28.0822C28.008 27.8748 28.0159 27.6676 28.0242 27.4602C27.6497 27.2735 27.217 27.1412 26.6674 27.1171C27.0402 26.9295 27.5888 26.9322 27.9285 26.7091C27.9318 26.6259 27.9353 26.543 27.9382 26.4607C27.3179 26.413 27.0814 26.1367 26.6726 25.9131ZM20.2824 24.7524C19.7271 25.3161 21.8397 26.0845 22.5124 26.1259C22.5086 25.7692 22.7157 25.4329 22.6739 25.177C21.8751 25.0367 20.8251 25.1293 20.2824 24.7524ZM27.1224 25.0171C27.1197 25.0721 27.0479 25.0521 27.0362 25.097C27.7506 25.6553 28.2812 25.7707 29.2536 25.7226C29.692 25.4044 30.0809 25.0323 30.5374 24.7343C29.4864 24.8282 28.1633 25.481 27.1224 25.0171ZM33.4007 26.9209C33.3707 26.2946 33.2062 25.0067 32.8191 24.7812C32.0066 24.307 30.5623 25.7388 29.9504 25.9572C30.017 26.1488 30.1269 26.3006 30.1353 26.5455C30.4972 26.4564 30.9378 26.5174 31.2514 26.6715C30.8888 26.7121 30.4866 26.7094 30.2467 26.8822C30.1588 27.1364 30.2683 27.4827 30.2098 27.8355C31.0706 28.0783 32.0537 28.2076 33.1419 28.2396C33.3535 27.9644 33.4257 27.4404 33.4007 26.9209ZM19.3476 25.2976C19.1732 25.1733 17.9937 23.6386 17.8321 23.7023C15.6977 24.544 13.7019 25.9995 11.9185 27.3761C13.6189 31.0247 14.3053 35.4949 14.4266 39.8034C16.3744 40.7144 18.0854 42.0277 20.7286 42.1649C20.4227 40.0008 20.1435 38.0701 19.9699 36.0326C19.3057 35.7527 18.3529 36.0453 17.7314 35.9458C17.7261 35.1968 18.6806 35.6178 18.7601 35.1141C18.82 34.7332 18.2349 34.7043 18.4254 34.1044C18.9113 34.281 19.1665 34.6712 19.6847 34.8177C20.1581 33.7818 19.678 31.949 19.7463 31.0832C19.7592 30.9206 19.8274 30.1826 20.1916 30.3121C20.5138 30.4267 20.1732 32.2749 20.2085 33.0943C20.2407 33.8493 20.1173 34.5798 20.4231 35.0537C22.9772 34.706 25.5727 34.4813 28.3362 34.4055C27.7282 34.1446 27.006 33.8978 26.2141 33.4514C25.7848 33.2094 24.4317 32.7059 24.3078 32.2981C24.1102 31.6484 24.8264 31.3024 24.9489 30.7454C23.6596 31.4485 23.4081 30.0714 23.1031 29.0957C22.8267 28.2121 22.6694 27.5519 22.6016 27.0423C21.491 26.5128 20.3036 25.9766 19.3476 25.2976ZM32.2727 23.8879C34.051 23.0256 34.3715 27.1108 33.6745 28.4268C33.7822 28.8193 34.1528 28.9695 34.304 29.3224C33.3116 31.1001 32.2094 32.7595 31.1968 34.5163C31.95 34.0475 33.0259 34.4325 33.9123 34.0815C34.2363 33.9534 34.4708 33.2117 34.7161 32.6183C35.3908 30.9859 36.0992 28.9278 36.4144 27.3699C36.4856 27.015 36.6795 26.2415 36.636 25.9256C36.5585 25.36 35.791 24.9405 35.4007 24.5908C34.6815 23.9447 34.2286 23.3762 33.4784 22.772C33.1742 23.2211 32.5214 23.5228 32.2727 23.8879ZM15.2806 8.11755C14.4332 9.04991 14.6106 10.7969 14.7132 12.0398C16.2448 11.0762 18.2778 12.1159 18.2586 13.7548C18.9899 13.7353 18.5318 12.8415 18.3995 12.2656C17.9672 10.3848 19.1278 8.34131 18.4521 6.62128C17.1403 6.72075 16.0626 7.25657 15.2806 8.11755ZM21.3437 2.7062C19.4254 3.24991 16.9668 4.64383 16.1785 6.36713C16.7889 6.27843 17.2127 5.9706 17.8148 5.9325C18.0424 5.91769 18.3405 6.02793 18.6021 5.9629C19.1233 5.83361 19.5631 4.66499 19.9563 4.23017C20.3396 3.80555 20.8003 3.62412 21.1156 3.23702C21.3182 3.13928 21.6176 3.14602 21.6291 2.84184C21.5414 2.74795 21.4489 2.67638 21.3437 2.7062ZM31.3297 3.21759C29.3386 2.09418 25.9684 1.24918 23.8504 2.30505C22.1413 3.15717 19.8312 4.56706 19.0436 6.35366C19.7794 8.07772 18.8256 9.6575 18.7648 11.4079C18.7324 12.3393 19.2033 13.1524 19.2394 14.1663C18.9876 14.5817 18.2184 14.6329 17.6859 14.6044C17.5067 13.7075 17.1929 12.6993 16.2692 12.5981C14.9623 12.4551 14.0067 13.5368 13.9473 14.6671C13.8771 15.9964 14.9683 18.1995 16.515 18.0466C17.1125 17.9875 17.2593 17.3886 17.9103 17.3947C18.2631 18.0987 17.366 18.3198 17.2737 18.8233C17.2496 18.9533 17.3481 19.4617 17.4053 19.7C17.6863 20.8608 18.3126 22.363 18.929 23.2467C19.7113 24.3676 21.2484 24.5365 22.902 24.6464C23.1974 24.0101 24.2854 24.0624 24.9944 24.2289C24.1447 23.8924 23.3549 23.0766 22.7002 22.3545C21.9483 21.5261 21.1866 20.6374 21.1482 19.5546C22.5691 21.5259 23.743 23.2474 26.3269 24.1146C28.282 24.7703 30.5653 23.8141 32.0676 22.7591C32.6909 22.3207 33.063 21.625 33.5061 20.9881C35.164 18.6034 35.9376 15.1995 35.7675 11.9003C35.6975 10.5396 35.7006 9.18362 35.244 8.2682C34.7669 7.31102 33.1531 6.45467 32.2084 7.32045C32.0333 6.38964 32.994 5.81398 34.1224 6.14895C33.3178 5.11058 32.4733 3.86288 31.3297 3.21759ZM35.0393 33.9178C36.5952 33.1443 39.5024 31.8359 40.4778 33.9207C40.8378 34.6891 41.2601 35.9882 41.4465 36.7815C41.7099 37.9006 41.161 40.2529 40.0107 40.6284C38.9946 40.9601 37.8091 40.9399 36.5852 40.694C36.4411 40.5742 36.2807 40.3652 36.1685 40.1474C35.2946 40.1135 34.4764 40.1943 33.7861 40.5535C33.8515 41.1998 33.4143 41.3035 33.0045 41.4366C32.7007 42.6412 33.6123 44.2143 33.3941 45.3127C33.2385 46.0952 32.2757 46.2162 31.5681 46.3626C31.545 46.7974 31.5991 47.1604 31.6474 47.5283C31.4856 48.1245 30.7598 48.4639 30.0722 48.547C27.8098 48.8191 24.3747 48.9413 22.1986 48.1588C21.5913 46.6693 21.113 44.8577 20.6072 43.1569C18.4848 43.3835 16.7683 42.2411 15.15 41.4926C14.5898 41.2329 13.8147 41.0898 13.6054 40.6438C13.4025 40.212 13.4855 39.3845 13.4351 38.6028C13.307 36.6063 13.1973 34.6806 12.6701 32.6364C12.4333 31.7191 12.0207 30.9097 11.7329 30.0258C11.4668 29.2066 11.002 28.1942 10.8808 27.3772C10.701 26.1665 11.8411 26.0992 12.5701 25.5745C13.6971 24.7632 14.5816 24.3145 15.8021 23.5822C16.1636 23.3654 17.2538 22.8165 17.3778 22.5637C17.6243 22.0625 16.9547 21.3558 16.7756 20.9629C16.4924 20.3417 16.3448 19.8139 16.3042 19.201C15.2803 19.0392 14.5042 18.4298 14.0354 17.7428C13.2599 16.6057 12.7221 14.502 13.393 12.9019C13.4457 12.7759 13.7081 12.5281 13.7468 12.3345C13.8232 11.9534 13.6031 11.4466 13.5894 11.0412C13.5189 8.9614 13.9413 7.16942 15.3414 6.54221C15.9098 4.27789 17.9442 3.52504 19.8609 2.39971C20.5774 1.97913 21.3671 1.71035 22.1828 1.41021C25.1088 0.333366 29.5982 0.536152 32.0266 2.37277C33.0563 3.1516 34.7022 4.79601 35.291 5.98656C36.8459 9.12975 36.7355 14.3828 35.6479 18.2063C35.5017 18.7196 35.2896 19.4742 34.9935 20.0908C34.7871 20.5214 34.1455 21.3829 34.2234 21.7631C34.3036 22.1562 35.6864 23.2061 35.9828 23.492C36.5167 24.007 37.5311 24.6906 37.6132 25.3405C37.7015 26.0322 37.3085 26.9784 37.1093 27.6458C36.4436 29.8732 35.7941 31.9321 35.0393 33.9178Z" fill="#231F20"/>
<path fill-rule="evenodd" clip-rule="evenodd" d="M24.6588 18.4994C24.7432 18.387 25.2073 18.2164 25.8566 18.529C25.8566 18.529 25.087 18.6573 25.1511 19.9404L24.8304 19.8762C24.8304 19.8762 24.499 18.7127 24.6588 18.4994Z" fill="#F7E4CD"/>
<path fill-rule="evenodd" clip-rule="evenodd" d="M30.2812 29.5277C30.2812 29.7225 30.1232 29.8804 29.9283 29.8804C29.7336 29.8804 29.5757 29.7225 29.5757 29.5277C29.5757 29.333 29.7336 29.1749 29.9283 29.1749C30.1232 29.1749 30.2812 29.333 30.2812 29.5277Z" fill="#1D1919"/>
<path fill-rule="evenodd" clip-rule="evenodd" d="M30.6342 31.1635C30.6342 31.3582 30.4763 31.5161 30.2814 31.5161C30.0867 31.5161 29.9287 31.3582 29.9287 31.1635C29.9287 30.9688 30.0867 30.8106 30.2814 30.8106C30.4763 30.8106 30.6342 30.9688 30.6342 31.1635Z" fill="#1D1919"/>
</g>
<defs>
<clipPath id="clip0_1771_6308">
<rect x="0.688477" y="0.754883" width="48" height="48" rx="8" fill="white"/>
</clipPath>
</defs>
</svg>
