<svg width="57" height="66" viewBox="0 0 57 66" fill="none" xmlns="http://www.w3.org/2000/svg">
<path d="M28.8133 56.4983V65.0028C28.2167 65.0046 27.6202 64.8814 27.1642 64.6306L1.65959 50.6603C1.20359 50.4094 0.975586 50.081 0.975586 49.7543L1.00028 41.2534C1.00028 41.4985 1.12951 41.7436 1.38589 41.9561C1.42766 41.9923 1.47336 42.0265 1.52459 42.0588C1.57397 42.093 1.62728 42.1253 1.68428 42.1557L27.1868 56.126C27.6373 56.373 28.2244 56.4964 28.8114 56.4983H28.8133Z" fill="#C9D7DD"/>
<path d="M56.4684 41.3127C56.4684 41.3298 56.4645 41.3487 56.4626 41.3658C56.4492 41.4532 56.4188 41.5423 56.3715 41.6279C56.3618 41.645 56.3523 41.6621 56.341 41.6792C56.3315 41.6944 56.3221 41.7096 56.3105 41.7246C56.3011 41.738 56.2935 41.7493 56.284 41.7608C56.2801 41.7645 56.2782 41.7685 56.2764 41.7703C56.2669 41.7837 56.2554 41.795 56.2441 41.8084C56.2328 41.8234 56.2194 41.8368 56.206 41.8502C56.17 41.888 56.1319 41.9222 56.092 41.9563C56.0749 41.9697 56.0578 41.9831 56.0408 41.9981C56.0274 42.0078 56.0142 42.0172 56.0008 42.0285C55.9972 42.0325 55.9914 42.0362 55.9877 42.038C55.978 42.0456 55.9685 42.0514 55.9572 42.059C55.9325 42.0761 55.9078 42.0932 55.8811 42.1084C55.8545 42.1236 55.828 42.1407 55.7994 42.1559L30.4621 56.1262C30.0079 56.3768 29.4095 56.5003 28.813 56.4985C28.2259 56.4966 27.6388 56.3732 27.1886 56.1262L1.684 42.1559C1.627 42.1236 1.57369 42.0913 1.52431 42.059C1.47492 42.0248 1.42738 41.9907 1.38561 41.9563C1.12923 41.7438 1 41.4987 1 41.2536C1 40.9289 1.22431 40.6061 1.67269 40.3573L27.01 26.3869C27.9123 25.8893 29.3772 25.8893 30.2835 26.3869L55.7862 40.3573C56.2651 40.6195 56.4931 40.9688 56.4663 41.3145L56.4684 41.3127Z" fill="white"/>
<g opacity="0.6">
<path d="M56.4684 41.3197C56.4684 41.3371 56.4645 41.356 56.4626 41.3731C56.4492 41.4603 56.4188 41.5496 56.3715 41.6352C56.3618 41.6523 56.3523 41.6694 56.341 41.6864C56.3315 41.7017 56.3221 41.7167 56.3105 41.7319C56.3011 41.7453 56.2935 41.7566 56.284 41.7681C56.2801 41.7718 56.2782 41.7757 56.2764 41.7776C56.2669 41.7907 56.2554 41.8023 56.2441 41.8154C56.2328 41.8307 56.2194 41.8441 56.206 41.8572C56.17 41.8953 56.1319 41.9294 56.092 41.9636C56.0749 41.977 56.0578 41.9904 56.0408 42.0054C56.0274 42.0151 56.0142 42.0245 56.0008 42.0358C55.9972 42.0397 55.9914 42.0434 55.9877 42.0453C55.978 42.0529 55.9685 42.0587 55.9572 42.0663C55.9325 42.0834 55.9078 42.1004 55.8811 42.1157C55.8545 42.1309 55.828 42.148 55.7994 42.163L30.4621 56.1335C30.0079 56.3841 29.4095 56.5076 28.813 56.5057C28.2259 56.5039 27.6388 56.3804 27.1886 56.1335L1.684 42.1611C1.627 42.1288 1.57369 42.0965 1.52431 42.0644C1.47492 42.0301 1.42738 41.9959 1.38561 41.9617C1.12923 41.749 1 41.5041 1 41.2591C1 40.9344 1.22431 40.6115 1.67269 40.3627L27.01 26.3922C27.9123 25.8946 29.3772 25.8946 30.2835 26.3922L55.7862 40.3627C56.2651 40.6247 56.4931 40.9743 56.4663 41.3197H56.4684Z" fill="url(#paint0_linear_1771_4209)"/>
</g>
<path d="M52.0453 41.3106C52.0453 41.3258 52.0435 41.3392 52.0395 41.3544C52.0282 41.4285 52.0017 41.5044 51.9636 41.5746C51.956 41.5879 51.9465 41.6032 51.9389 41.6184C51.9295 41.6297 51.9219 41.6431 51.9142 41.6563C51.9066 41.6678 51.899 41.6773 51.8914 41.6867C51.8895 41.6904 51.8877 41.6925 51.8838 41.6962C51.8762 41.7075 51.8667 41.7169 51.8572 41.7285C51.8478 41.7398 51.8362 41.7513 51.8249 41.7645C51.7945 41.7968 51.7622 41.8254 51.728 41.8556C51.728 41.8556 51.7225 41.8596 51.7204 41.8633C51.6502 41.8063 51.5665 41.7493 51.4735 41.698L30.0253 29.9498C29.2633 29.5319 28.0303 29.5319 27.2722 29.9498L5.96647 41.698C5.87531 41.7474 5.79731 41.8007 5.72716 41.8577C5.72716 41.8577 5.72324 41.8556 5.72324 41.8538C5.50678 41.6733 5.40039 41.4682 5.40039 41.2633C5.40039 40.9896 5.58847 40.7182 5.96647 40.5091L27.2722 28.7609C28.0303 28.3411 29.2633 28.3411 30.0253 28.7609L51.4735 40.5091C51.8762 40.7295 52.0682 41.0239 52.0453 41.3145V41.3106Z" fill="#6E17FF"/>
<path d="M51.7209 41.8593C51.7096 41.8687 51.698 41.8782 51.6849 41.8877C51.6733 41.8953 51.662 41.9047 51.6507 41.9124C51.6468 41.9142 51.6431 41.9181 51.6392 41.92C51.6297 41.9257 51.6221 41.9313 51.6145 41.9371C51.5937 41.9504 51.5727 41.9636 51.5499 41.9788C51.5273 41.9922 51.5044 42.0054 51.4816 42.0187L30.1758 53.7672C29.7939 53.9779 29.2903 54.0824 28.7889 54.0806C28.2948 54.0785 27.801 53.9742 27.4227 53.7672L5.97642 42.0187C5.92888 41.9922 5.88342 41.9657 5.84165 41.9371C5.80172 41.9105 5.76365 41.8819 5.72949 41.8535C5.7978 41.7965 5.87765 41.7434 5.9688 41.6941L27.2746 29.9456C28.0326 29.5279 29.2656 29.5279 30.0276 29.9456L51.4758 41.6941C51.569 41.7453 51.6507 41.8004 51.7227 41.8593H51.7209Z" fill="#C9D7DD"/>
<path d="M51.7209 41.8612C51.7096 41.8707 51.698 41.8802 51.6849 41.8896C51.6733 41.8972 51.662 41.9067 51.6507 41.9143C51.6468 41.9164 51.6431 41.9201 51.6392 41.9219C51.6297 41.9277 51.6221 41.9335 51.6145 41.939C51.5937 41.9524 51.5727 41.9658 51.5499 41.9808C51.5273 41.9942 51.5044 42.0075 51.4816 42.0207L30.1758 53.7692C29.7939 53.9799 29.2903 54.0844 28.7889 54.0825C28.2948 54.0807 27.801 53.9762 27.4227 53.7692L5.97642 42.0207C5.92888 41.9942 5.88342 41.9676 5.84165 41.939C5.80172 41.9125 5.76365 41.8841 5.72949 41.8555C5.7978 41.7985 5.87765 41.7454 5.9688 41.696L27.2746 29.9475C28.0326 29.5299 29.2656 29.5299 30.0276 29.9475L51.4758 41.696C51.569 41.7472 51.6507 41.8024 51.7227 41.8612H51.7209Z" fill="url(#paint1_linear_1771_4209)"/>
<path d="M56.4726 41.2632L56.4479 49.7677C56.4479 50.0906 56.2217 50.4153 55.7752 50.6622L30.4379 64.6325C29.9895 64.8794 29.4024 65.0029 28.8135 65.0047V56.5002C29.41 56.5023 30.0084 56.3788 30.4626 56.128L55.7999 42.1576C55.8285 42.1424 55.855 42.1253 55.8818 42.1101C55.9083 42.0949 55.933 42.0778 55.9577 42.0607C55.969 42.0531 55.9785 42.0473 55.9882 42.04C55.9937 42.036 55.9976 42.0323 56.0013 42.0303C56.0147 42.0208 56.0279 42.0113 56.0412 42C56.0583 41.9866 56.0773 41.9733 56.0925 41.9583C56.1343 41.9241 56.1723 41.8879 56.2065 41.8519C56.2199 41.8385 56.2332 41.8253 56.2446 41.8101C56.2559 41.7967 56.2656 41.7854 56.2769 41.772C56.2806 41.7683 56.2826 41.7663 56.2845 41.7626C56.2939 41.7513 56.3034 41.7379 56.311 41.7266C56.3226 41.7113 56.332 41.6961 56.3415 41.6809C56.3528 41.6638 56.3623 41.6467 56.3719 41.6296C56.4193 41.5443 56.4497 41.4568 56.4631 41.3675C56.4668 41.3504 56.4686 41.3315 56.4686 41.3144C56.4707 41.2973 56.4726 41.2803 56.4726 41.2632Z" fill="#C9D7DD"/>
<g opacity="0.8">
<path opacity="0.8" d="M56.4724 41.2706L56.4477 49.7753C56.4477 50.0982 56.2215 50.4229 55.775 50.6698L30.4377 64.6401C29.9893 64.887 29.4022 65.0105 28.8133 65.0123C28.2167 65.0144 27.6202 64.891 27.1642 64.6401L1.65959 50.6698C1.20359 50.419 0.975586 50.0906 0.975586 49.7638L1.00028 41.2632C1.00028 41.508 1.12951 41.7531 1.38589 41.9659C1.42766 42.0019 1.47336 42.036 1.52459 42.0683C1.57397 42.1025 1.62728 42.1348 1.68428 42.1653L27.1868 56.1356C27.6373 56.3825 28.2244 56.5059 28.8114 56.5078C29.408 56.5096 30.0064 56.3864 30.4605 56.1356L55.7978 42.1653C55.8264 42.15 55.853 42.133 55.8795 42.1177C55.906 42.1025 55.931 42.0854 55.9557 42.0683C55.967 42.0607 55.9764 42.055 55.9859 42.0473C55.9917 42.0436 55.9954 42.04 55.9993 42.0379C56.0127 42.0284 56.0258 42.019 56.0392 42.0076C56.0563 41.9943 56.0752 41.9809 56.0904 41.9659C56.1322 41.9315 56.1703 41.8955 56.2044 41.8595C56.2178 41.8461 56.231 41.8327 56.2425 41.8177C56.2538 41.8043 56.2633 41.793 56.2748 41.7796C56.2785 41.776 56.2803 41.7739 56.2824 41.7702C56.2919 41.7589 56.3014 41.7455 56.309 41.7342C56.3203 41.719 56.3297 41.7037 56.3394 41.6885C56.3507 41.6714 56.3602 41.6543 56.3697 41.6373C56.4172 41.5516 56.4477 41.4644 56.461 41.3751C56.4647 41.358 56.4666 41.3391 56.4666 41.322C56.4684 41.305 56.4705 41.2879 56.4705 41.2706H56.4724Z" fill="url(#paint2_linear_1771_4209)"/>
</g>
<path d="M56.4724 41.2746L56.4477 49.7791C56.4477 50.102 56.2215 50.4267 55.775 50.6736L30.4377 64.6441C29.9893 64.8911 29.4022 65.0145 28.8133 65.0164C28.2167 65.0182 27.6202 64.8948 27.1642 64.6441L1.65959 50.6718C1.20359 50.4211 0.975586 50.0925 0.975586 49.7658L1.00028 41.2651C1.00028 41.51 1.12951 41.7551 1.38589 41.9678C1.42766 42.0038 1.47336 42.038 1.52459 42.0703C1.57397 42.1044 1.62728 42.1368 1.68428 42.1672L27.1868 56.1375C27.6373 56.3844 28.2244 56.5079 28.8114 56.5098C29.408 56.5118 30.0064 56.3884 30.4605 56.1375L55.7978 42.1672C55.8264 42.152 55.853 42.1349 55.8795 42.1197C55.906 42.1044 55.931 42.0874 55.9557 42.0703C55.967 42.0627 55.9764 42.0571 55.9859 42.0495C55.9917 42.0456 55.9954 42.0419 55.9993 42.0401C56.0127 42.0304 56.0258 42.0209 56.0392 42.0096C56.0563 41.9962 56.0752 41.9831 56.0904 41.9678C56.1322 41.9337 56.1703 41.8974 56.2044 41.8614C56.2178 41.8481 56.231 41.8349 56.2425 41.8197C56.2538 41.8063 56.2633 41.795 56.2748 41.7816C56.2785 41.7779 56.2803 41.7761 56.2824 41.7721C56.2919 41.7608 56.3014 41.7474 56.309 41.7361C56.3203 41.7209 56.3297 41.7057 56.3394 41.6904C56.3507 41.6734 56.3602 41.6563 56.3697 41.6392C56.4172 41.5538 56.4477 41.4664 56.461 41.3771C56.4647 41.36 56.4666 41.3411 56.4666 41.324C56.4684 41.3069 56.4705 41.2898 56.4705 41.2727L56.4724 41.2746Z" fill="url(#paint3_linear_1771_4209)"/>
<path d="M28.8133 43.7472V52.2517C28.2167 52.2535 27.6202 52.1303 27.1642 51.8795L1.65959 37.911C1.20359 37.6604 0.975586 37.3318 0.975586 37.005L1.00028 28.5044C1.00028 28.7492 1.12951 28.9943 1.38589 29.2071C1.42766 29.2431 1.47336 29.2772 1.52459 29.3095C1.57397 29.3437 1.62728 29.376 1.68428 29.4065L27.1868 43.3768C27.6373 43.6237 28.2244 43.7472 28.8114 43.749L28.8133 43.7472Z" fill="#C9D7DD"/>
<path d="M56.4684 28.5631C56.4684 28.5802 56.4645 28.5991 56.4626 28.6162C56.4492 28.7036 56.4188 28.793 56.3715 28.8783C56.3618 28.8954 56.3523 28.9125 56.341 28.9296C56.3315 28.9448 56.3221 28.96 56.3105 28.9753C56.3011 28.9884 56.2935 29 56.284 29.0113C56.2801 29.015 56.2782 29.0189 56.2764 29.0207C56.2669 29.0341 56.2554 29.0454 56.2441 29.0588C56.2328 29.074 56.2194 29.0872 56.206 29.1006C56.17 29.1384 56.1319 29.1728 56.092 29.207C56.0749 29.2201 56.0578 29.2335 56.0408 29.2487C56.0274 29.2582 56.0142 29.2676 56.0008 29.279C55.9972 29.2829 55.9914 29.2866 55.9877 29.2886C55.978 29.2963 55.9685 29.3018 55.9572 29.3094C55.9325 29.3265 55.9078 29.3436 55.8813 29.3588C55.8545 29.374 55.828 29.3911 55.7996 29.4063L30.4621 43.3766C30.0082 43.6275 29.4095 43.751 28.813 43.7489C28.2259 43.747 27.6388 43.6236 27.1886 43.3766L1.684 29.4063C1.627 29.374 1.57369 29.3417 1.52431 29.3094C1.47492 29.2753 1.42738 29.2411 1.38561 29.207C1.12923 28.9942 1 28.7491 1 28.5043C1 28.1793 1.22431 27.8565 1.67269 27.6078L27.0118 13.6373C27.9144 13.1398 29.3791 13.1398 30.2855 13.6373L55.7881 27.6078C56.2669 27.8699 56.4949 28.2193 56.4684 28.565V28.5631Z" fill="white"/>
<g opacity="0.6">
<path d="M56.4684 28.5688C56.4684 28.5861 56.4645 28.605 56.4626 28.6221C56.4492 28.7093 56.4188 28.7987 56.3715 28.8843C56.3618 28.9013 56.3523 28.9184 56.341 28.9355C56.3315 28.9507 56.3221 28.966 56.3105 28.981C56.3011 28.9943 56.2935 29.0057 56.284 29.0172C56.2801 29.0209 56.2782 29.0248 56.2764 29.0267C56.2669 29.0398 56.2554 29.0513 56.2441 29.0645C56.2328 29.0797 56.2194 29.0931 56.206 29.1065C56.17 29.1443 56.1319 29.1785 56.092 29.2127C56.0749 29.226 56.0578 29.2394 56.0408 29.2544C56.0274 29.2641 56.0142 29.2736 56.0008 29.2849C55.9972 29.2888 55.9914 29.2925 55.9877 29.2943C55.978 29.302 55.9685 29.3077 55.9572 29.3153C55.9325 29.3324 55.9078 29.3495 55.8813 29.3647C55.8545 29.38 55.828 29.397 55.7996 29.4123L30.4621 43.3826C30.0082 43.6332 29.4095 43.7567 28.813 43.7548C28.2259 43.753 27.6388 43.6295 27.1886 43.3826L1.684 29.4123C1.627 29.38 1.57369 29.3477 1.52431 29.3153C1.47492 29.2812 1.42738 29.247 1.38561 29.2127C1.12923 29.0001 1 28.755 1 28.51C1 28.1853 1.22431 27.8624 1.67269 27.6136L27.0118 13.6432C27.9144 13.1456 29.3791 13.1456 30.2855 13.6432L55.7881 27.6136C56.2669 27.8758 56.4949 28.2252 56.4684 28.5709V28.5688Z" fill="url(#paint4_linear_1771_4209)"/>
</g>
<path d="M52.0453 28.5594C52.0453 28.5746 52.0435 28.588 52.0395 28.6032C52.0282 28.6773 52.0017 28.7532 51.9636 28.8234C51.956 28.8368 51.9465 28.852 51.9389 28.8672C51.9295 28.8785 51.9219 28.8919 51.9142 28.9051C51.9066 28.9166 51.899 28.9261 51.8914 28.9355C51.8895 28.9392 51.8877 28.9413 51.8838 28.945C51.8762 28.9563 51.8667 28.966 51.8572 28.9773C51.8478 28.9886 51.8362 29.0001 51.8249 29.0133C51.7945 29.0456 51.7622 29.0742 51.728 29.1045C51.728 29.1045 51.7225 29.1084 51.7204 29.1121C51.6502 29.0551 51.5665 28.9981 51.4735 28.9468L30.0253 17.1985C29.2633 16.7807 28.0303 16.7807 27.2722 17.1985L5.96647 28.9468C5.87531 28.9962 5.79731 29.0495 5.72716 29.1065C5.72716 29.1065 5.72324 29.1045 5.72324 29.1026C5.50678 28.9221 5.40039 28.717 5.40039 28.5121C5.40039 28.2384 5.58847 27.967 5.96647 27.7579L27.2722 16.0096C28.0303 15.5899 29.2633 15.5899 30.0253 16.0096L51.4735 27.7579C51.8762 27.9783 52.0682 28.2728 52.0453 28.5633V28.5594Z" fill="#6E17FF"/>
<path d="M51.7209 29.1084C51.7096 29.1178 51.698 29.1273 51.6849 29.1368C51.6733 29.1444 51.662 29.1538 51.6507 29.1614C51.6468 29.1633 51.6431 29.1672 51.6392 29.1691C51.6297 29.1748 51.6221 29.1804 51.6145 29.1861C51.5937 29.1995 51.5727 29.2127 51.5499 29.2279C51.5273 29.2413 51.5044 29.2544 51.4816 29.2678L30.1758 41.0163C29.7939 41.227 29.2903 41.3315 28.7889 41.3297C28.2948 41.3276 27.801 41.2233 27.4227 41.0163L5.97642 29.2678C5.92888 29.2413 5.88342 29.2148 5.84165 29.1861C5.80172 29.1596 5.76365 29.1312 5.72949 29.1026C5.7978 29.0456 5.87765 28.9925 5.9688 28.9431L27.2746 17.1947C28.0326 16.7769 29.2656 16.7769 30.0276 17.1947L51.4758 28.9431C51.569 28.9944 51.6507 29.0495 51.7227 29.1084H51.7209Z" fill="#C9D7DD"/>
<path d="M51.7209 29.1103C51.7096 29.1197 51.698 29.1292 51.6849 29.1387C51.6733 29.1463 51.662 29.156 51.6507 29.1633C51.6468 29.1654 51.6431 29.1691 51.6392 29.171C51.6297 29.1767 51.6221 29.1825 51.6145 29.188C51.5937 29.2014 51.5727 29.2148 51.5499 29.2298C51.5273 29.2432 51.5044 29.2566 51.4816 29.2697L30.1758 41.0182C29.7939 41.2289 29.2903 41.3334 28.7889 41.3316C28.2948 41.3297 27.801 41.2252 27.4227 41.0182L5.97642 29.2697C5.92888 29.2432 5.88342 29.2167 5.84165 29.188C5.80172 29.1615 5.76365 29.1331 5.72949 29.1045C5.7978 29.0475 5.87765 28.9944 5.9688 28.945L27.2746 17.1967C28.0326 16.7788 29.2656 16.7788 30.0276 17.1967L51.4758 28.945C51.569 28.9963 51.6507 29.0514 51.7227 29.1103H51.7209Z" fill="url(#paint5_linear_1771_4209)"/>
<path d="M56.4726 28.512L56.4479 37.0165C56.4479 37.3393 56.2217 37.664 55.7752 37.911L30.4379 51.8813C29.9895 52.1282 29.4024 52.2517 28.8135 52.2535V43.749C29.41 43.751 30.0084 43.6276 30.4626 43.3767L55.7999 29.4064C55.8285 29.3912 55.855 29.3741 55.8818 29.3589C55.9083 29.3437 55.933 29.3266 55.9577 29.3095C55.969 29.3019 55.9785 29.2961 55.9882 29.2887C55.9937 29.2848 55.9976 29.2811 56.0013 29.279C56.0147 29.2696 56.0279 29.2601 56.0412 29.2488C56.0583 29.2354 56.0773 29.2223 56.0925 29.207C56.1343 29.1729 56.1723 29.1367 56.2065 29.1007C56.2199 29.0873 56.2332 29.0741 56.2446 29.0589C56.2559 29.0455 56.2656 29.0342 56.2769 29.0208C56.2806 29.0171 56.2826 29.015 56.2845 29.0113C56.2939 29 56.3034 28.9867 56.311 28.9753C56.3226 28.9601 56.332 28.9449 56.3415 28.9297C56.3528 28.9126 56.3623 28.8955 56.3719 28.8784C56.4193 28.793 56.4497 28.7056 56.4631 28.6163C56.4668 28.5992 56.4686 28.5803 56.4686 28.5632C56.4707 28.5461 56.4726 28.529 56.4726 28.512Z" fill="#C9D7DD"/>
<g opacity="0.8">
<path opacity="0.8" d="M56.4724 28.5214L56.4477 37.026C56.4477 37.3488 56.2215 37.6735 55.775 37.9204L30.4377 51.891C29.9893 52.1377 29.4022 52.2611 28.8133 52.2632C28.2167 52.265 27.6202 52.1416 27.1642 51.891L1.65959 37.9186C1.20359 37.6677 0.975586 37.3393 0.975586 37.0126L1.00028 28.512C1.00028 28.7568 1.12951 29.0019 1.38589 29.2147C1.42766 29.2507 1.47336 29.2848 1.52459 29.3171C1.57397 29.3513 1.62728 29.3836 1.68428 29.414L27.1868 43.3843C27.6373 43.6313 28.2244 43.7547 28.8114 43.7566C29.408 43.7587 30.0064 43.6352 30.4605 43.3843L55.7978 29.414C55.8264 29.3988 55.853 29.3817 55.8795 29.3665C55.906 29.3513 55.931 29.3342 55.9557 29.3171C55.967 29.3095 55.9764 29.3037 55.9859 29.2961C55.9917 29.2924 55.9954 29.2887 55.9993 29.2867C56.0127 29.2772 56.0258 29.2677 56.0392 29.2564C56.0563 29.243 56.0752 29.2297 56.0904 29.2147C56.1322 29.1803 56.1703 29.1443 56.2044 29.1083C56.2178 29.0949 56.231 29.0817 56.2425 29.0665C56.2538 29.0531 56.2633 29.0418 56.2748 29.0284C56.2785 29.0247 56.2803 29.0227 56.2824 29.019C56.2919 29.0077 56.3014 28.9943 56.309 28.983C56.3203 28.9677 56.3297 28.9525 56.3394 28.9373C56.3507 28.9202 56.3602 28.9031 56.3697 28.886C56.4172 28.8004 56.4477 28.7132 56.461 28.6239C56.4647 28.6068 56.4666 28.5879 56.4666 28.5708C56.4684 28.5537 56.4705 28.5367 56.4705 28.5193L56.4724 28.5214Z" fill="url(#paint6_linear_1771_4209)"/>
</g>
<path d="M56.4724 28.5235L56.4477 37.028C56.4477 37.3509 56.2215 37.6756 55.775 37.9225L30.4377 51.893C29.9893 52.1399 29.4022 52.2634 28.8133 52.2653C28.2167 52.2671 27.6202 52.1436 27.1642 51.893L1.65959 37.9225C1.20359 37.6719 0.975586 37.3433 0.975586 37.0167L1.00028 28.5159C1.00028 28.7609 1.12951 29.0058 1.38589 29.2186C1.42766 29.2546 1.47336 29.2889 1.52459 29.321C1.57397 29.3554 1.62728 29.3877 1.68428 29.4179L27.1868 43.3885C27.6373 43.6354 28.2244 43.7589 28.8114 43.7607C29.408 43.7626 30.0064 43.6391 30.4605 43.3885L55.7978 29.4179C55.8264 29.4027 55.853 29.3856 55.8795 29.3704C55.906 29.3554 55.931 29.3383 55.9557 29.321C55.967 29.3136 55.9764 29.3079 55.9859 29.3003C55.9917 29.2963 55.9954 29.2926 55.9993 29.2908C56.0127 29.2813 56.0258 29.2719 56.0392 29.2603C56.0563 29.2472 56.0752 29.2338 56.0904 29.2186C56.1322 29.1844 56.1703 29.1484 56.2044 29.1122C56.2178 29.099 56.231 29.0856 56.2425 29.0704C56.2538 29.0573 56.2633 29.0457 56.2748 29.0326C56.2785 29.0286 56.2803 29.0268 56.2824 29.0229C56.2919 29.0116 56.3014 28.9982 56.309 28.9869C56.3203 28.9716 56.3297 28.9564 56.3394 28.9414C56.3507 28.9241 56.3602 28.907 56.3697 28.8899C56.4172 28.8046 56.4477 28.7171 56.461 28.628C56.4647 28.6109 56.4666 28.5918 56.4666 28.5747C56.4684 28.5576 56.4705 28.5406 56.4705 28.5235H56.4724Z" fill="url(#paint7_linear_1771_4209)"/>
<g opacity="0.4">
<path opacity="0.4" d="M53.415 33.577C54.1294 33.1764 54.7165 33.501 54.7184 34.2988C54.7202 35.0984 54.1389 36.0783 53.4244 36.4791L31.8718 48.5788C31.1573 48.9794 30.5702 48.6547 30.5684 47.857C30.5665 47.0594 31.1478 46.0775 31.8641 45.6769L53.4168 33.577H53.415Z" fill="white"/>
</g>
<g opacity="0.5">
<path opacity="0.5" d="M35.053 44.5526C35.4938 44.3112 35.851 44.5051 35.8528 44.9837C35.8528 45.4623 35.4977 46.0452 35.0588 46.2864C34.6198 46.5278 34.2589 46.3339 34.2568 45.8553C34.2568 45.3767 34.6122 44.7919 35.053 44.5526Z" fill="white"/>
</g>
<g opacity="0.9">
<path opacity="0.9" d="M43.3255 39.9242C43.7662 39.6828 44.1232 39.8766 44.1253 40.3553C44.1253 40.8339 43.7699 41.4168 43.331 41.658C42.8921 41.8993 42.5311 41.7055 42.5293 41.2269C42.5293 40.7483 42.8847 40.1633 43.3255 39.9242Z" fill="white"/>
</g>
<g opacity="0.5">
<path opacity="0.5" d="M51.3692 35.332C51.8099 35.0909 52.1672 35.2845 52.169 35.7631C52.1709 36.2417 51.8139 36.8247 51.3749 37.066C50.936 37.3072 50.5751 37.1134 50.5732 36.6347C50.5732 36.1564 50.9284 35.5713 51.3692 35.332Z" fill="white"/>
</g>
<g opacity="0.4">
<path opacity="0.4" d="M53.415 46.0804C54.1294 45.6798 54.7165 46.0045 54.7184 46.8022C54.7202 47.6018 54.1389 48.5817 53.4244 48.9825L31.8718 61.0822C31.1573 61.4828 30.5702 61.1582 30.5684 60.3604C30.5665 59.5628 31.1478 58.5809 31.8641 58.1803L53.4168 46.0804H53.415Z" fill="white"/>
</g>
<g opacity="0.5">
<path opacity="0.5" d="M35.053 57.056C35.4938 56.8146 35.851 57.0085 35.8528 57.4871C35.8528 57.9657 35.4977 58.5486 35.0588 58.7898C34.6198 59.0312 34.2589 58.8373 34.2568 58.3587C34.2568 57.8801 34.6122 57.2953 35.053 57.056Z" fill="white"/>
</g>
<g opacity="0.9">
<path opacity="0.9" d="M43.3255 52.4276C43.7662 52.1862 44.1232 52.3801 44.1253 52.8587C44.1253 53.3373 43.7699 53.9202 43.331 54.1614C42.8921 54.4028 42.5311 54.2089 42.5293 53.7303C42.5293 53.2517 42.8847 52.6667 43.3255 52.4276Z" fill="white"/>
</g>
<g opacity="0.5">
<path opacity="0.5" d="M51.3692 47.8352C51.8099 47.5941 52.1672 47.7877 52.169 48.2663C52.1709 48.7449 51.8139 49.3278 51.3749 49.5692C50.936 49.8104 50.5751 49.6165 50.5732 49.1379C50.5732 48.6595 50.9284 48.0745 51.3692 47.8352Z" fill="white"/>
</g>
<path d="M28.8133 30.9979V39.5026C28.2167 39.5045 27.6202 39.381 27.1642 39.1302L1.65959 25.1599C1.20359 24.9092 0.975586 24.5806 0.975586 24.2539L1.00028 15.7532C1.00028 15.9982 1.12951 16.2432 1.38589 16.4559C1.42766 16.492 1.47336 16.5261 1.52459 16.5584C1.57397 16.5926 1.62728 16.6249 1.68428 16.6553L27.1868 30.6256C27.6373 30.8726 28.2244 30.996 28.8114 30.9979H28.8133Z" fill="#C9D7DD"/>
<path d="M56.4684 15.8121C56.4684 15.8292 56.4645 15.8482 56.4626 15.8653C56.4492 15.9526 56.4188 16.0419 56.3715 16.1274C56.3618 16.1444 56.3523 16.1615 56.341 16.1786C56.3315 16.1938 56.3221 16.209 56.3105 16.2242C56.3011 16.2375 56.2935 16.2489 56.284 16.2603C56.2801 16.2641 56.2782 16.2679 56.2764 16.2698C56.2669 16.2831 56.2554 16.2945 56.2441 16.3078C56.2328 16.323 56.2194 16.3363 56.206 16.3496C56.17 16.3876 56.1319 16.4217 56.092 16.4559C56.0749 16.4692 56.0578 16.4825 56.0408 16.4977C56.0274 16.5072 56.0142 16.5167 56.0008 16.5281C55.9972 16.5319 55.9914 16.5357 55.9877 16.5376C55.978 16.5452 55.9685 16.5509 55.9572 16.5585C55.9325 16.5756 55.9078 16.5927 55.8813 16.6079C55.8545 16.6231 55.828 16.6401 55.7996 16.6553L30.4621 30.6257C30.0082 30.8765 29.4095 31 28.813 30.9979C28.2259 30.9961 27.6388 30.8726 27.1886 30.6257L1.684 16.6553C1.627 16.6231 1.57369 16.5908 1.52431 16.5585C1.47492 16.5243 1.42738 16.4901 1.38561 16.4559C1.12923 16.2432 1 15.9982 1 15.7532C1 15.4285 1.22431 15.1056 1.67269 14.8568L27.0118 0.886372C27.9144 0.388787 29.3791 0.388787 30.2855 0.886372L55.7881 14.8568C56.2669 15.1189 56.4949 15.4683 56.4684 15.814V15.8121Z" fill="white"/>
<g opacity="0.6">
<path d="M56.4684 15.8179C56.4684 15.835 56.4645 15.854 56.4626 15.8711C56.4492 15.9585 56.4188 16.0477 56.3715 16.1332C56.3618 16.1503 56.3523 16.1674 56.341 16.1845C56.3315 16.1997 56.3221 16.2149 56.3105 16.2301C56.3011 16.2434 56.2935 16.2548 56.284 16.2661C56.2801 16.27 56.2782 16.2738 56.2764 16.2757C56.2669 16.2889 56.2554 16.3003 56.2441 16.3136C56.2328 16.3288 56.2194 16.3421 56.206 16.3554C56.17 16.3934 56.1319 16.4276 56.092 16.4618C56.0749 16.4751 56.0578 16.4884 56.0408 16.5036C56.0274 16.513 56.0142 16.5226 56.0008 16.5339C55.9972 16.5377 55.9914 16.5415 55.9877 16.5434C55.978 16.551 55.9685 16.5567 55.9572 16.5643C55.9325 16.5814 55.9078 16.5985 55.8813 16.6137C55.8545 16.6289 55.828 16.646 55.7996 16.6612L30.4621 30.6316C30.0082 30.8822 29.4095 31.0057 28.813 31.0038C28.2259 31.002 27.6388 30.8785 27.1886 30.6316L1.684 16.6612C1.627 16.6289 1.57369 16.5966 1.52431 16.5643C1.47492 16.5301 1.42738 16.4959 1.38561 16.4618C1.12923 16.2491 1 16.0041 1 15.7591C1 15.4343 1.22431 15.1114 1.67269 14.8627L27.0118 0.892231C27.9144 0.394647 29.3791 0.394647 30.2855 0.892231L55.7881 14.8627C56.2669 15.1247 56.4949 15.4742 56.4684 15.8198V15.8179Z" fill="url(#paint8_linear_1771_4209)"/>
</g>
<path d="M52.0453 15.8101C52.0453 15.8253 52.0435 15.8386 52.0395 15.8538C52.0282 15.9278 52.0017 16.0038 51.9636 16.0741C51.956 16.0873 51.9465 16.1026 51.9389 16.1177C51.9295 16.1291 51.9219 16.1424 51.9142 16.1557C51.9066 16.1671 51.899 16.1766 51.8914 16.1861C51.8895 16.1899 51.8877 16.1918 51.8838 16.1956C51.8762 16.207 51.8667 16.2165 51.8572 16.2279C51.8478 16.2393 51.8362 16.2507 51.8249 16.264C51.7945 16.2963 51.7622 16.3248 51.728 16.3551C51.728 16.3551 51.7225 16.3589 51.7204 16.3627C51.6502 16.3058 51.5665 16.2488 51.4735 16.1975L30.0253 4.44913C29.2633 4.03131 28.0303 4.03131 27.2722 4.44913L5.96647 16.1937C5.87531 16.2431 5.79731 16.2963 5.72716 16.3532C5.72716 16.3532 5.72324 16.3513 5.72324 16.3494C5.50678 16.169 5.40039 15.9639 5.40039 15.7588C5.40039 15.4853 5.58847 15.2137 5.96647 15.0048L27.2722 3.25644C28.0303 2.83672 29.2633 2.83672 30.0253 3.25644L51.4735 15.0048C51.8762 15.2251 52.0682 15.5195 52.0453 15.8101Z" fill="#6E17FF"/>
<path d="M51.7208 16.3572C51.7095 16.3666 51.6979 16.3761 51.6848 16.3856C51.6732 16.3932 51.6619 16.4027 51.6506 16.4103C51.6467 16.4122 51.643 16.416 51.6391 16.4179C51.6296 16.4236 51.622 16.4293 51.6144 16.435C51.5936 16.4483 51.5726 16.4616 51.5498 16.4768C51.5269 16.4901 51.5043 16.5034 51.4815 16.5167L30.1757 28.2651C29.7938 28.4758 29.2902 28.5804 28.7888 28.5785C28.2947 28.5764 27.8008 28.4721 27.4226 28.2651L5.97446 16.5186C5.92693 16.492 5.88146 16.4654 5.83946 16.4369C5.79977 16.4103 5.76169 16.3818 5.72754 16.3533C5.79585 16.2964 5.87569 16.2432 5.96685 16.1938L27.2726 4.44545C28.0307 4.02762 29.2637 4.02762 30.0257 4.44545L51.4738 16.1938C51.5668 16.2451 51.6485 16.3002 51.7208 16.359V16.3572Z" fill="#C9D7DD"/>
<path d="M51.7208 16.361C51.7095 16.3705 51.6979 16.38 51.6848 16.3895C51.6732 16.3971 51.6619 16.4066 51.6506 16.4142C51.6467 16.4161 51.643 16.4199 51.6391 16.4218C51.6296 16.4275 51.622 16.4332 51.6144 16.4389C51.5936 16.4522 51.5726 16.4655 51.5498 16.4806C51.5269 16.4939 51.5043 16.5072 51.4815 16.5205L30.1757 28.2689C29.7938 28.4798 29.2902 28.5841 28.7888 28.5823C28.2947 28.5804 27.8008 28.4759 27.4226 28.2689L5.97446 16.5205C5.92693 16.4939 5.88146 16.4674 5.83946 16.4389C5.79977 16.4123 5.76169 16.3838 5.72754 16.3553C5.79585 16.2983 5.87569 16.2451 5.96685 16.1958L27.2726 4.4474C28.0307 4.02958 29.2637 4.02958 30.0257 4.4474L51.4738 16.1958C51.5668 16.2471 51.6485 16.3021 51.7208 16.361Z" fill="url(#paint9_linear_1771_4209)"/>
<path d="M56.4726 15.7607L56.4479 24.2653C56.4479 24.5882 56.2217 24.9129 55.7752 25.1598L30.4379 39.1301C29.9895 39.3771 29.4024 39.5005 28.8135 39.5026V30.9978C29.41 30.9999 30.0084 30.8764 30.4626 30.6256L55.7999 16.6553C55.8285 16.6401 55.855 16.623 55.8818 16.6078C55.9083 16.5926 55.933 16.5755 55.9577 16.5584C55.969 16.5508 55.9785 16.5451 55.9882 16.5375C55.9937 16.5337 55.9976 16.5299 56.0013 16.528C56.0147 16.5185 56.0279 16.509 56.0412 16.4976C56.0583 16.4843 56.0773 16.471 56.0925 16.4558C56.1343 16.4217 56.1723 16.3856 56.2065 16.3495C56.2199 16.3362 56.2332 16.3229 56.2446 16.3077C56.2559 16.2944 56.2656 16.283 56.2769 16.2697C56.2806 16.2659 56.2826 16.264 56.2845 16.2602C56.2939 16.2488 56.3034 16.2355 56.311 16.2241C56.3226 16.209 56.332 16.1938 56.3415 16.1786C56.3528 16.1615 56.3623 16.1444 56.3719 16.1273C56.4193 16.0418 56.4497 15.9545 56.4631 15.8652C56.4668 15.8481 56.4686 15.8291 56.4686 15.812C56.4707 15.7949 56.4726 15.7778 56.4726 15.7607Z" fill="#C9D7DD"/>
<g opacity="0.8">
<path opacity="0.8" d="M56.4724 15.7703L56.4477 24.2748C56.4477 24.5977 56.2215 24.9225 55.775 25.1694L30.4377 39.1399C29.9893 39.3868 29.4022 39.51 28.8133 39.5121C28.2167 39.5139 27.6202 39.3905 27.1642 39.1399L1.65959 25.1694C1.20359 24.9187 0.975586 24.5901 0.975586 24.2634L1.00028 15.7627C1.00028 16.0077 1.12951 16.2527 1.38589 16.4654C1.42766 16.5015 1.47336 16.5357 1.52459 16.5679C1.57397 16.6021 1.62728 16.6344 1.68428 16.6648L27.1868 30.6353C27.6373 30.882 28.2244 31.0055 28.8114 31.0076C29.408 31.0094 30.0064 30.886 30.4605 30.6353L55.7978 16.6648C55.8264 16.6496 55.853 16.6325 55.8795 16.6173C55.906 16.6021 55.931 16.585 55.9557 16.5679C55.967 16.5603 55.9764 16.5546 55.9859 16.5471C55.9917 16.5432 55.9954 16.5394 55.9993 16.5375C56.0127 16.5281 56.0258 16.5186 56.0392 16.5072C56.0563 16.4939 56.0752 16.4806 56.0904 16.4654C56.1322 16.4312 56.1703 16.3951 56.2044 16.359C56.2178 16.3457 56.231 16.3324 56.2425 16.3173C56.2538 16.304 56.2633 16.2926 56.2748 16.2793C56.2785 16.2755 56.2803 16.2736 56.2824 16.2698C56.2919 16.2584 56.3014 16.2451 56.309 16.2337C56.3203 16.2185 56.3297 16.2033 56.3394 16.1881C56.3507 16.171 56.3602 16.1539 56.3697 16.1368C56.4172 16.0514 56.4477 15.964 56.461 15.8747C56.4647 15.8576 56.4666 15.8386 56.4666 15.8216C56.4684 15.8045 56.4705 15.7874 56.4705 15.7703H56.4724Z" fill="url(#paint10_linear_1771_4209)"/>
</g>
<path d="M56.4724 15.7722L56.4477 24.2768C56.4477 24.5997 56.2215 24.9244 55.775 25.1713L30.4377 39.1418C29.9893 39.3887 29.4022 39.5122 28.8133 39.514C28.2167 39.5159 27.6202 39.3924 27.1642 39.1418L1.65959 25.1713C1.20359 24.9206 0.975586 24.5921 0.975586 24.2654L1.00028 15.7646C1.00028 16.0096 1.12951 16.2546 1.38589 16.4673C1.42766 16.5034 1.47336 16.5376 1.52459 16.5699C1.57397 16.6041 1.62728 16.6364 1.68428 16.6667L27.1868 30.6372C27.6373 30.8842 28.2244 31.0076 28.8114 31.0095C29.408 31.0113 30.0064 30.8879 30.4605 30.6372L55.7978 16.6667C55.8264 16.6516 55.853 16.6345 55.8795 16.6193C55.906 16.6041 55.931 16.587 55.9557 16.5699C55.967 16.5623 55.9764 16.5566 55.9859 16.549C55.9917 16.5452 55.9954 16.5414 55.9993 16.5395C56.0127 16.53 56.0258 16.5205 56.0392 16.5091C56.0563 16.4958 56.0752 16.4825 56.0904 16.4673C56.1322 16.4332 56.1703 16.3971 56.2044 16.361C56.2178 16.3477 56.231 16.3344 56.2425 16.3192C56.2538 16.3059 56.2633 16.2945 56.2748 16.2812C56.2785 16.2774 56.2803 16.2755 56.2824 16.2717C56.2919 16.2603 56.3014 16.247 56.309 16.2356C56.3203 16.2204 56.3297 16.2053 56.3394 16.1901C56.3507 16.173 56.3602 16.1559 56.3697 16.1388C56.4172 16.0533 56.4477 15.9659 56.461 15.8767C56.4647 15.8596 56.4666 15.8406 56.4666 15.8235C56.4684 15.8064 56.4705 15.7893 56.4705 15.7722H56.4724Z" fill="url(#paint11_linear_1771_4209)"/>
<g opacity="0.8">
<path opacity="0.8" d="M53.415 20.826C54.1294 20.4253 54.7165 20.7501 54.7184 21.5477C54.7202 22.3473 54.1389 23.3273 53.4244 23.728L31.8718 35.8278C31.1573 36.2284 30.5702 35.9037 30.5684 35.1062C30.5665 34.3084 31.1478 33.3265 31.8641 32.9258L53.4168 20.826H53.415Z" fill="white"/>
</g>
<g opacity="0.5">
<path opacity="0.5" d="M35.053 31.8035C35.4938 31.5623 35.851 31.7559 35.8528 32.2346C35.8528 32.7132 35.4977 33.2963 35.0588 33.5375C34.6198 33.7786 34.2589 33.5848 34.2568 33.1064C34.2568 32.6278 34.6122 32.0428 35.053 31.8035Z" fill="#6E17FF"/>
</g>
<g opacity="0.9">
<path opacity="0.9" d="M43.3255 27.1731C43.7662 26.9319 44.1232 27.1256 44.1253 27.6042C44.1253 28.0829 43.7699 28.6658 43.331 28.907C42.8902 29.1484 42.5311 28.9545 42.5293 28.4759C42.5293 27.9973 42.8847 27.4124 43.3255 27.1731Z" fill="#6E17FF"/>
</g>
<g opacity="0.5">
<path opacity="0.5" d="M51.3692 22.5808C51.8099 22.3396 52.1672 22.5333 52.169 23.012C52.1709 23.4905 51.8139 24.0736 51.3749 24.3148C50.936 24.556 50.5751 24.3623 50.5732 23.8837C50.5732 23.4051 50.9284 22.8201 51.3692 22.5808Z" fill="#6E17FF"/>
</g>
<path d="M38.7747 10.8476C38.9551 10.9482 39.1393 11.0774 39.2286 11.2293L42.8574 16.9743C43.0171 17.2668 42.9961 17.5859 42.7492 17.8537L37.1046 22.9872C36.7663 23.2303 36.2932 23.3955 35.75 23.4449L25.0838 24.083C24.5556 24.1286 24.0444 24.0412 23.6835 23.838C23.6417 23.8152 23.6036 23.7905 23.5676 23.7639L15.947 19.4851C15.5842 19.2553 15.377 18.9362 15.377 18.6304L16.4733 12.6176C16.5626 12.3118 16.8532 12.0459 17.3055 11.8655L26.4213 8.63121C26.8963 8.46597 27.4376 8.43939 27.9354 8.54194L38.1666 10.5551C38.3927 10.6311 38.596 10.745 38.7783 10.8476H38.7747Z" fill="#6E17FF"/>
<path d="M38.7783 10.8476C38.9588 10.9482 39.1432 11.0774 39.2325 11.2293L42.8613 16.9743C43.0208 17.2668 43 17.5859 42.7529 17.8537L37.1082 22.9872C36.7702 23.2303 36.2971 23.3955 35.7536 23.4449L25.0875 24.083C24.5592 24.1286 24.0483 24.0412 23.6872 23.838C23.6454 23.8152 23.6073 23.7905 23.5713 23.7639L15.9506 19.4851C15.5879 19.2553 15.3809 18.9362 15.3809 18.6304L16.477 12.6176C16.5663 12.3118 16.8571 12.0459 17.3092 11.8655L26.425 8.63121C26.8999 8.46597 27.4416 8.43939 27.9393 8.54194L38.1702 10.5551C38.3964 10.6311 38.5997 10.745 38.782 10.8476H38.7783Z" fill="url(#paint12_linear_1771_4209)"/>
<path d="M34.7718 21.409C34.9313 21.5496 34.9313 21.7528 34.7051 21.9066C34.4582 21.9693 34.1409 21.9446 33.9358 21.8307C33.8901 21.806 33.8674 21.7927 33.8464 21.7547C33.8464 21.7382 33.8388 21.7256 33.8236 21.7167C33.7781 21.692 33.78 21.6654 33.7553 21.6521C33.687 21.5894 33.6641 21.5249 33.6185 21.4489C33.5748 21.4242 33.5501 21.3862 33.5291 21.3483C33.3697 21.1583 33.1871 20.9779 32.9838 20.8127C32.8927 20.7614 32.8015 20.7367 32.7122 20.7367L32.5089 20.6228C30.816 21.1185 28.8517 21.2343 26.9954 20.9798L26.8832 21.1203C26.7256 21.1337 26.6363 21.183 26.5906 21.2343C26.4558 21.4128 26.3455 21.6027 26.3019 21.8079C26.2562 21.8838 26.2562 21.9104 26.2334 21.9484C26.2334 22.0244 26.2126 22.0889 26.1669 22.1649C26.1669 22.1896 26.1669 22.2162 26.1461 22.2276C26.0797 22.3434 25.9675 22.4061 25.8307 22.4574C25.6959 22.5086 25.5152 22.5087 25.3805 22.4821C25.2893 22.4574 25.2228 22.4441 25.1543 22.4061C24.972 22.3035 24.9263 22.1516 24.9928 22.0111C24.9928 21.9598 25.0138 21.9484 25.0156 21.9218C25.0366 21.8591 25.1049 21.7946 25.1732 21.73L25.2625 21.6293C25.4658 21.4375 25.578 21.2476 25.6901 21.0558C25.713 20.9931 25.6901 20.9285 25.6445 20.8773L25.713 20.712C25.4185 20.6228 25.0784 20.5335 24.7839 20.4195C24.2633 20.2543 23.8091 20.0492 23.4007 19.8213C22.7206 19.4396 22.1753 19.0066 21.7876 18.509L21.516 18.5603C21.3791 18.5356 21.267 18.5223 21.1551 18.5356C20.8168 18.5982 20.4766 18.6628 20.1614 18.7654L19.9809 18.8166C19.8688 18.8546 19.7548 18.8679 19.6426 18.9059C19.5971 18.9059 19.5533 18.9059 19.5305 18.9192C19.236 18.9572 18.9662 18.9306 18.7839 18.8299C18.7382 18.8052 18.6928 18.754 18.6699 18.716C18.5767 18.5375 18.7574 18.3342 19.0955 18.2697C19.1866 18.2697 19.2076 18.2564 19.2531 18.2564C19.4128 18.2431 19.5478 18.2184 19.6368 18.2184C19.7282 18.2184 19.7737 18.2184 19.8401 18.2051C20.2031 18.1538 20.5622 18.1026 20.8795 18.0266C20.9707 18.0019 21.0618 17.9506 21.0828 17.886L21.3526 17.8348C21.2386 17.643 21.1929 17.4644 21.1454 17.2612C20.9365 16.3819 21.2252 15.5026 21.9208 14.7258L21.6946 14.6232C21.6946 14.5473 21.6489 14.496 21.5806 14.458C21.2405 14.3175 20.946 14.2282 20.6058 14.139C20.5375 14.101 20.4692 14.0877 20.4025 14.0763C20.3114 14.0516 20.1766 14.025 20.0626 13.987C20.0474 13.9794 20.0227 13.9528 19.9998 13.9414C19.8575 13.9243 19.8346 13.911 19.7908 13.8864C19.5551 13.7572 19.5058 13.5844 19.6521 13.4533C19.8554 13.2881 20.2391 13.2482 20.5336 13.3641C20.5629 13.3641 20.5858 13.3685 20.6021 13.3774C20.6476 13.4021 20.6933 13.4021 20.7143 13.4154C20.8055 13.4666 20.9176 13.5046 21.0088 13.5559C21.0771 13.5692 21.1207 13.5939 21.1664 13.6186C21.4627 13.7591 21.7574 13.8731 22.0745 13.9756C22.1866 13.9889 22.3006 14.0003 22.3899 13.9756L22.6615 14.0516C23.7408 13.2102 25.3424 12.6367 27.1511 12.4088C27.2176 12.3974 27.2633 12.3955 27.3316 12.3841V12.236C27.4038 12.2056 27.4419 12.1372 27.4419 12.0916C27.4419 11.8865 27.3487 11.6833 27.2575 11.4801C27.2347 11.4421 27.2118 11.4041 27.1892 11.3661C27.1435 11.2902 27.0978 11.2123 27.0752 11.1496C27.0524 11.1363 27.0524 11.0889 27.0524 11.085C27.0277 10.8685 27.2538 10.69 27.5919 10.652C27.7724 10.6273 27.9321 10.6653 28.0668 10.7413C28.1808 10.8059 28.2494 10.8951 28.272 10.9825C28.272 11.0338 28.2948 11.0471 28.2948 11.0718C28.2948 11.1477 28.2741 11.2123 28.2741 11.2883C28.2741 11.313 28.2969 11.3509 28.2741 11.3908C28.2531 11.5807 28.2759 11.7991 28.3235 12.0024C28.3463 12.0403 28.3689 12.0783 28.4128 12.103C28.4564 12.1277 28.5039 12.1277 28.5268 12.141L28.5951 12.2815C30.1322 12.2568 31.671 12.4848 32.9631 12.9576C33.2804 13.0849 33.5748 13.1988 33.8464 13.328L34.0498 13.2387C34.2074 13.2254 34.2967 13.2007 34.3881 13.176C34.6597 13.0222 34.9066 12.8836 35.1099 12.7164C35.1764 12.6785 35.2221 12.6538 35.2449 12.6139C35.3114 12.5512 35.3797 12.4866 35.4708 12.4354L35.583 12.3727C35.6951 12.31 35.8528 12.2701 36.0332 12.2701C36.231 12.2701 36.4114 12.2986 36.5291 12.3651C36.5462 12.3746 36.5633 12.386 36.5767 12.3974C36.78 12.5379 36.7364 12.7677 36.4874 12.8817L36.3524 12.9576C36.2405 12.9956 36.1493 13.0469 36.0371 13.0868C35.9915 13.1115 35.9231 13.1248 35.8793 13.1495C35.5412 13.29 35.2922 13.4305 35.0453 13.5692C35.0017 13.6205 34.956 13.6717 34.977 13.7344L34.842 13.837C35.7958 14.4998 36.4322 15.3145 36.6185 16.1559C36.6185 16.3591 36.6431 16.5756 36.645 16.7807L36.9395 16.8187C36.9623 16.8567 37.008 16.8833 37.0288 16.8947C37.0745 16.9194 37.1428 16.9326 37.2113 16.9459C37.5512 16.9839 37.9352 16.9972 38.2733 16.9839C38.319 16.9839 38.3873 16.9972 38.4538 16.9839C38.5659 16.9706 38.7007 16.9706 38.8375 16.9706C38.8604 16.9839 38.9061 16.9839 38.9497 16.9839C39.153 16.9972 39.3106 17.0352 39.4246 17.0998C39.5386 17.1643 39.6071 17.2783 39.5843 17.3675C39.5405 17.5708 39.2252 17.698 38.8622 17.6733C38.7711 17.6999 38.7482 17.6866 38.7046 17.6866C38.5678 17.6619 38.4556 17.6486 38.319 17.624C38.2505 17.6107 38.1821 17.5993 38.1157 17.586C37.7545 17.5347 37.4146 17.4967 37.0308 17.4853C36.9395 17.4853 36.8275 17.5233 36.7611 17.5613L36.4664 17.5746C36.2651 18.0969 35.9061 18.6058 35.412 19.0654C34.8953 19.5117 34.2644 19.9182 33.5197 20.2372L33.6565 20.3645C33.6108 20.4158 33.6127 20.4917 33.6565 20.543C33.8388 20.7215 34.065 20.9001 34.293 21.052C34.3366 21.1033 34.3823 21.128 34.4278 21.1545C34.5191 21.2058 34.6103 21.2571 34.6768 21.3198C34.7225 21.3445 34.7679 21.3711 34.7451 21.3843C34.7225 21.3976 34.7451 21.409 34.7679 21.4223L34.7718 21.409ZM30.1968 20.1347C30.6261 20.0967 31.0555 20.0074 31.4829 19.8916L29.5982 18.4007C29.5299 18.3627 29.4388 18.3381 29.3495 18.3115C29.1233 18.2602 28.8517 18.3115 28.7167 18.4387L27.4818 20.1328C28.3652 20.2467 29.3132 20.2467 30.1948 20.1328L30.1968 20.1347ZM25.5856 16.7579C25.6978 16.7446 25.7889 16.6953 25.8325 16.644C25.9904 16.53 25.9218 16.3629 25.7414 16.2622L23.1138 15.2177C22.5286 15.9052 22.3747 16.7085 22.6521 17.4473L25.5874 16.7598L25.5856 16.7579ZM27.3088 13.2824C25.9751 13.4742 24.78 13.8939 23.9003 14.4675L26.7314 15.3468C26.8454 15.3848 26.9137 15.3981 27.0258 15.3848C27.3203 15.3715 27.5215 15.231 27.4989 15.0657L27.3088 13.2824ZM25.4698 19.6903C25.6731 19.7529 25.8325 19.8175 25.9904 19.8802L26.8625 18.1614C26.8625 18.0855 26.8624 18.0342 26.8378 17.9696C26.8131 17.9202 26.7692 17.8785 26.7122 17.8461C26.6058 17.7873 26.4558 17.7588 26.2943 17.7664L23.1785 18.2754C23.4958 18.6058 23.9061 18.9382 24.381 19.206C24.7211 19.3978 25.0841 19.5497 25.4698 19.6903ZM32.0587 13.7154C31.0839 13.3717 29.9536 13.1931 28.8002 13.1817L29.3531 14.9898C29.3988 15.0411 29.4215 15.079 29.49 15.117C29.6933 15.231 30.0332 15.2443 30.2347 15.1303L32.6021 13.9205L32.0587 13.7173V13.7154ZM32.7482 19.4377C33.267 19.1946 33.7172 18.9154 34.0784 18.583C34.4375 18.2526 34.7072 17.8955 34.863 17.5252L31.6292 17.4359C31.5381 17.4359 31.4716 17.4492 31.3805 17.4739C31.1315 17.5632 31.0421 17.7417 31.2018 17.8822L32.7482 19.4358V19.4377ZM35.0148 16.6725C35.0111 15.909 34.5533 15.1683 33.6697 14.5454L31.5286 15.9071C31.4621 15.9451 31.4393 15.9831 31.4393 16.0343C31.4128 16.1274 31.4792 16.2167 31.5914 16.2812C31.6615 16.3211 31.7508 16.3515 31.8459 16.3648L35.013 16.6706L35.0148 16.6725ZM29.1538 16.1236L28.1808 16.1863L27.687 16.644L28.0061 17.153L28.9124 17.3315L29.7256 17.0523L29.8357 16.5034L29.1556 16.1217" fill="white"/>
<path d="M27.3027 12.2379L27.3254 12.2246V12.2303C27.3254 12.2303 27.3103 12.236 27.3027 12.2379Z" fill="white"/>
<defs>
<linearGradient id="paint0_linear_1771_4209" x1="-3.44376" y1="22.8197" x2="23.8434" y2="34.5726" gradientUnits="userSpaceOnUse">
<stop stop-color="#4C7F8E" stop-opacity="0.52"/>
<stop offset="0.4" stop-color="#4C7F8E" stop-opacity="0.52"/>
<stop offset="0.5" stop-color="#4C7F8E" stop-opacity="0.52"/>
<stop offset="0.7" stop-color="#4C7F8E" stop-opacity="0.63"/>
<stop offset="0.88" stop-color="#4C7F8E" stop-opacity="0.65"/>
<stop offset="1" stop-color="#4C7F8E" stop-opacity="0.7"/>
</linearGradient>
<linearGradient id="paint1_linear_1771_4209" x1="26.3702" y1="25.3858" x2="26.9473" y2="29.4292" gradientUnits="userSpaceOnUse">
<stop offset="0.57" stop-color="white" stop-opacity="0"/>
<stop offset="0.79" stop-color="white" stop-opacity="0.3"/>
<stop offset="0.87" stop-color="white" stop-opacity="0.42"/>
<stop offset="1" stop-color="white" stop-opacity="0.6"/>
</linearGradient>
<linearGradient id="paint2_linear_1771_4209" x1="59.4001" y1="54.1909" x2="-5.4061" y2="50.1462" gradientUnits="userSpaceOnUse">
<stop stop-color="#4C7F8E" stop-opacity="0.6"/>
<stop offset="0.11" stop-color="#4C7F8E" stop-opacity="0.55"/>
<stop offset="0.27" stop-color="#4C7F8E" stop-opacity="0.43"/>
<stop offset="0.45" stop-color="#4C7F8E" stop-opacity="0.22"/>
<stop offset="0.6" stop-color="#4C7F8E" stop-opacity="0"/>
<stop offset="1" stop-color="#4C7F8E" stop-opacity="0"/>
</linearGradient>
<linearGradient id="paint3_linear_1771_4209" x1="58.1918" y1="56.4015" x2="0.688658" y2="43.7544" gradientUnits="userSpaceOnUse">
<stop offset="0.37" stop-color="white" stop-opacity="0"/>
<stop offset="0.59" stop-color="white" stop-opacity="0.3"/>
<stop offset="0.67" stop-color="white" stop-opacity="0.42"/>
<stop offset="0.8" stop-color="white" stop-opacity="0.6"/>
<stop offset="0.948142" stop-color="white" stop-opacity="0.6"/>
<stop offset="1" stop-color="#DDDDDD" stop-opacity="0.6"/>
</linearGradient>
<linearGradient id="paint4_linear_1771_4209" x1="-3.44392" y1="10.0708" x2="23.8434" y2="21.825" gradientUnits="userSpaceOnUse">
<stop stop-color="#4C7F8E" stop-opacity="0.52"/>
<stop offset="0.4" stop-color="#4C7F8E" stop-opacity="0.52"/>
<stop offset="0.5" stop-color="#4C7F8E" stop-opacity="0.52"/>
<stop offset="0.7" stop-color="#4C7F8E" stop-opacity="0.63"/>
<stop offset="0.88" stop-color="#4C7F8E" stop-opacity="0.65"/>
<stop offset="1" stop-color="#4C7F8E" stop-opacity="0.7"/>
</linearGradient>
<linearGradient id="paint5_linear_1771_4209" x1="-3.44335" y1="12.6348" x2="-3.25343" y2="16.6801" gradientUnits="userSpaceOnUse">
<stop offset="0.57" stop-color="white" stop-opacity="0"/>
<stop offset="0.79" stop-color="white" stop-opacity="0.3"/>
<stop offset="0.87" stop-color="white" stop-opacity="0.42"/>
<stop offset="1" stop-color="white" stop-opacity="0.6"/>
</linearGradient>
<linearGradient id="paint6_linear_1771_4209" x1="59.4001" y1="41.4397" x2="-5.4061" y2="37.395" gradientUnits="userSpaceOnUse">
<stop stop-color="#4C7F8E" stop-opacity="0.6"/>
<stop offset="0.11" stop-color="#4C7F8E" stop-opacity="0.55"/>
<stop offset="0.27" stop-color="#4C7F8E" stop-opacity="0.43"/>
<stop offset="0.45" stop-color="#4C7F8E" stop-opacity="0.22"/>
<stop offset="0.6" stop-color="#4C7F8E" stop-opacity="0"/>
<stop offset="1" stop-color="#4C7F8E" stop-opacity="0"/>
</linearGradient>
<linearGradient id="paint7_linear_1771_4209" x1="58.1918" y1="43.6511" x2="0.689069" y2="31.0031" gradientUnits="userSpaceOnUse">
<stop offset="0.37" stop-color="white" stop-opacity="0"/>
<stop offset="0.59" stop-color="white" stop-opacity="0.3"/>
<stop offset="0.67" stop-color="white" stop-opacity="0.42"/>
<stop offset="0.8" stop-color="white" stop-opacity="0.6"/>
<stop offset="0.948142" stop-color="white" stop-opacity="0.6"/>
<stop offset="1" stop-color="#DDDDDD" stop-opacity="0.6"/>
</linearGradient>
<linearGradient id="paint8_linear_1771_4209" x1="-3.44392" y1="-2.67823" x2="23.8434" y2="9.07591" gradientUnits="userSpaceOnUse">
<stop stop-color="#4C7F8E" stop-opacity="0"/>
<stop offset="0.4" stop-color="#4C7F8E" stop-opacity="0"/>
<stop offset="0.5" stop-color="#4C7F8E" stop-opacity="0.12"/>
<stop offset="0.7" stop-color="#4C7F8E" stop-opacity="0.33"/>
<stop offset="0.88" stop-color="#4C7F8E" stop-opacity="0.45"/>
<stop offset="1" stop-color="#4C7F8E" stop-opacity="0.5"/>
</linearGradient>
<linearGradient id="paint9_linear_1771_4209" x1="26.3701" y1="-0.116348" x2="26.9472" y2="3.92898" gradientUnits="userSpaceOnUse">
<stop offset="0.57" stop-color="white" stop-opacity="0"/>
<stop offset="0.79" stop-color="white" stop-opacity="0.3"/>
<stop offset="0.87" stop-color="white" stop-opacity="0.42"/>
<stop offset="1" stop-color="white" stop-opacity="0.6"/>
</linearGradient>
<linearGradient id="paint10_linear_1771_4209" x1="59.4001" y1="28.6904" x2="-5.4061" y2="24.6459" gradientUnits="userSpaceOnUse">
<stop stop-color="#4C7F8E" stop-opacity="0.6"/>
<stop offset="0.11" stop-color="#4C7F8E" stop-opacity="0.55"/>
<stop offset="0.27" stop-color="#4C7F8E" stop-opacity="0.43"/>
<stop offset="0.45" stop-color="#4C7F8E" stop-opacity="0.22"/>
<stop offset="0.6" stop-color="#4C7F8E" stop-opacity="0"/>
<stop offset="1" stop-color="#4C7F8E" stop-opacity="0"/>
</linearGradient>
<linearGradient id="paint11_linear_1771_4209" x1="58.1918" y1="30.8998" x2="0.689075" y2="18.2518" gradientUnits="userSpaceOnUse">
<stop offset="0.37" stop-color="white" stop-opacity="0"/>
<stop offset="0.59" stop-color="white" stop-opacity="0.3"/>
<stop offset="0.67" stop-color="white" stop-opacity="0.42"/>
<stop offset="0.8" stop-color="white" stop-opacity="0.6"/>
<stop offset="0.948142" stop-color="white" stop-opacity="0.6"/>
<stop offset="1" stop-color="#DDDDDD" stop-opacity="0.6"/>
</linearGradient>
<linearGradient id="paint12_linear_1771_4209" x1="45.3197" y1="21.1677" x2="15.2057" y2="12.906" gradientUnits="userSpaceOnUse">
<stop offset="0.57" stop-color="white" stop-opacity="0"/>
<stop offset="0.79" stop-color="white" stop-opacity="0.3"/>
<stop offset="0.87" stop-color="white" stop-opacity="0.42"/>
<stop offset="1" stop-color="white" stop-opacity="0.6"/>
</linearGradient>
</defs>
</svg>
