<svg width="57" height="66" viewBox="0 0 57 66" fill="none" xmlns="http://www.w3.org/2000/svg">
<path d="M56.7484 42.9612L56.7287 49.0175C56.7287 49.1822 56.6207 49.3469 56.4045 49.4724L29.4994 65.0584C29.2636 65.1957 28.9433 65.2585 28.6328 65.2448L28.6367 59.157C28.9551 59.1728 29.2812 59.1099 29.521 58.9707L56.4261 43.3827C56.4951 43.3437 56.552 43.3005 56.5972 43.2533C56.6168 43.2357 56.6325 43.216 56.6482 43.1984C56.6855 43.1514 56.713 43.1004 56.7307 43.0513C56.7346 43.0415 56.7386 43.0317 56.7405 43.0218C56.7405 43.0199 56.7405 43.0179 56.7405 43.016C56.7405 43.016 56.7405 43.014 56.7405 43.012C56.7405 43.0083 56.7425 43.0064 56.7425 43.0024C56.7425 42.9985 56.7425 42.9946 56.7444 42.9887C56.7484 42.9789 56.7484 42.969 56.7503 42.9592L56.7484 42.9612Z" fill="#C9D7DD"/>
<path d="M56.7486 42.9296V42.9591C56.7486 42.9708 56.7466 42.9807 56.7427 42.9905C56.7427 42.9964 56.7427 43.0003 56.7407 43.0042C56.7407 43.0079 56.7388 43.0099 56.7388 43.0138C56.7388 43.0138 56.7388 43.0158 56.7388 43.0178C56.7388 43.0197 56.7388 43.0217 56.7388 43.0236C56.7368 43.0335 56.7329 43.0433 56.7289 43.0531C56.7113 43.1042 56.6838 43.1532 56.6465 43.2002C56.6308 43.2198 56.6151 43.2375 56.5954 43.2551C56.5483 43.3023 56.4913 43.3435 56.4246 43.3845L29.5193 58.9725C29.2795 59.1117 28.9533 59.1746 28.635 59.1588C28.3775 59.1471 28.1281 59.0842 27.9335 58.9725L0.8672 43.3553C0.853236 43.3474 0.839491 43.3396 0.827709 43.3317C0.808072 43.318 0.788436 43.3062 0.770763 43.2924C0.760945 43.2846 0.751125 43.2767 0.741306 43.2689C0.725597 43.2551 0.707927 43.2414 0.694182 43.2276C0.676509 43.208 0.658834 43.1903 0.643125 43.1709C0.625452 43.1474 0.607779 43.1238 0.595997 43.1002C0.586179 43.0845 0.578327 43.0668 0.572437 43.0511C0.566546 43.0413 0.564582 43.0315 0.560655 43.0197C0.548873 42.9885 0.542979 42.9571 0.541016 42.9257V42.8962C0.541016 42.8962 0.541016 42.8982 0.541016 42.9002C0.541016 42.7315 0.647054 42.5648 0.865235 42.4374L27.7723 26.8514C28.2087 26.5984 28.9219 26.5984 29.36 26.8514L56.4246 42.4668C56.6445 42.5943 56.7525 42.761 56.7525 42.9296H56.7486Z" fill="white"/>
<path d="M56.7486 42.9296V42.9591C56.7486 42.9708 56.7466 42.9807 56.7427 42.9905C56.7427 42.9964 56.7427 43.0003 56.7407 43.0042C56.7407 43.0079 56.7388 43.0099 56.7388 43.0138C56.7388 43.0138 56.7388 43.0158 56.7388 43.0178C56.7388 43.0197 56.7388 43.0217 56.7388 43.0236C56.7368 43.0335 56.7329 43.0433 56.7289 43.0531C56.7113 43.1042 56.6838 43.1532 56.6465 43.2002C56.6308 43.2198 56.6151 43.2375 56.5954 43.2551C56.5483 43.3023 56.4913 43.3435 56.4246 43.3845L29.5193 58.9725C29.2795 59.1117 28.9533 59.1746 28.635 59.1588C28.3775 59.1471 28.1281 59.0842 27.9335 58.9725L0.8672 43.3553C0.853236 43.3474 0.839491 43.3396 0.827709 43.3317C0.808072 43.318 0.788436 43.3062 0.770763 43.2924C0.760945 43.2846 0.751125 43.2767 0.741306 43.2689C0.725597 43.2551 0.707927 43.2414 0.694182 43.2276C0.676509 43.208 0.658834 43.1903 0.643125 43.1709C0.625452 43.1474 0.607779 43.1238 0.595997 43.1002C0.586179 43.0845 0.578327 43.0668 0.572437 43.0511C0.566546 43.0413 0.564582 43.0315 0.560655 43.0197C0.548873 42.9885 0.542979 42.9571 0.541016 42.9257V42.8962C0.541016 42.8962 0.541016 42.8982 0.541016 42.9002C0.541016 42.7315 0.647054 42.5648 0.865235 42.4374L27.7723 26.8514C28.2087 26.5984 28.9219 26.5984 29.36 26.8514L56.4246 42.4668C56.6445 42.5943 56.7525 42.761 56.7525 42.9296H56.7486Z" fill="url(#paint0_linear_1771_3127)"/>
<path d="M28.6348 59.159L28.6309 65.2467C28.3695 65.2368 28.1121 65.174 27.9118 65.0584L0.845246 49.4429C0.625319 49.3155 0.515137 49.1488 0.515137 48.9801L0.534992 42.9238C0.538919 42.9552 0.544809 42.9867 0.554628 43.0179C0.558555 43.0277 0.562482 43.0375 0.56641 43.0493C0.5723 43.067 0.580155 43.0827 0.589974 43.0984C0.603719 43.1219 0.619429 43.1455 0.637102 43.1691C0.652811 43.1885 0.670482 43.2062 0.688155 43.2238C0.7019 43.2395 0.71761 43.2533 0.735283 43.267C0.745101 43.2749 0.754918 43.2827 0.764736 43.2906C0.782409 43.3043 0.802046 43.3161 0.821682 43.3299C0.833464 43.3377 0.847209 43.3456 0.861173 43.3534L27.9255 58.9707C28.1199 59.0824 28.3715 59.1452 28.627 59.157L28.6348 59.159Z" fill="#C9D7DD"/>
<g opacity="0.9">
<path opacity="0.9" d="M56.7604 42.9787L56.7408 49.035C56.7408 49.1997 56.6328 49.3645 56.4166 49.4899L29.5115 65.076C29.2756 65.2132 28.9553 65.276 28.6449 65.2642C28.3835 65.2544 28.126 65.1896 27.9257 65.076L0.857233 49.4605C0.637306 49.333 0.527344 49.1664 0.527344 48.9977L0.546979 42.9414C0.550907 42.9728 0.556797 43.0042 0.566615 43.0354C0.570542 43.0453 0.57447 43.0551 0.578397 43.0649C0.584288 43.0826 0.592143 43.0983 0.601961 43.114C0.615706 43.1376 0.631416 43.1611 0.649089 43.1847C0.664798 43.2041 0.682469 43.2218 0.700142 43.2394C0.713887 43.2552 0.729597 43.2689 0.74727 43.2826C0.757088 43.2905 0.766905 43.2984 0.776723 43.3062C0.794396 43.32 0.814033 43.3317 0.833669 43.3455C0.845451 43.3533 0.859196 43.3612 0.87316 43.3688L27.9395 58.9863C28.1339 59.098 28.3854 59.1628 28.6409 59.1746C28.9593 59.1903 29.2854 59.1274 29.5252 58.9882L56.4303 43.4002C56.4993 43.3612 56.5562 43.318 56.6014 43.2709C56.621 43.2532 56.6367 43.2336 56.6524 43.2159C56.6897 43.169 56.7172 43.1179 56.7349 43.0688L56.7447 43.0394C56.7447 43.0394 56.7447 43.0335 56.7447 43.0315C56.7447 43.0315 56.7447 43.0315 56.7447 43.0296C56.7447 43.0256 56.7467 43.0237 56.7467 43.0197C56.7467 43.0158 56.7486 43.0119 56.7486 43.0062C56.7526 42.9964 56.7526 42.9866 56.7545 42.9768L56.7604 42.9787Z" fill="url(#paint1_linear_1771_3127)"/>
<path opacity="0.8" d="M22.4572 57.213C22.5455 57.2641 22.6162 57.3876 22.6162 57.4877L22.6064 60.7884C22.6064 60.8885 22.5338 60.9295 22.4454 60.8787C22.357 60.8276 22.2861 60.7041 22.2861 60.604L22.296 57.3033C22.296 57.2032 22.3688 57.1622 22.4572 57.213Z" fill="white"/>
<g opacity="0.8">
<path opacity="0.8" d="M6.51849 47.9756C6.60686 48.0264 6.67777 48.1501 6.67777 48.25L6.66795 51.5509C6.66795 51.6508 6.59508 51.6921 6.50671 51.641C6.41835 51.59 6.34766 51.4665 6.34766 51.3665L6.35748 48.0657C6.35748 47.9657 6.43013 47.9245 6.51849 47.9756Z" fill="white"/>
<path opacity="0.8" d="M7.6264 48.5971C7.71498 48.6482 7.78568 48.7717 7.78568 48.8718L7.77586 52.1725C7.77586 52.2724 7.7032 52.3137 7.61462 52.2626C7.52625 52.2118 7.45557 52.0881 7.45557 51.9881L7.46538 48.6875C7.46538 48.5873 7.53804 48.5461 7.6264 48.5971Z" fill="white"/>
<path opacity="0.8" d="M8.73307 49.2384C8.82143 49.2894 8.89212 49.4131 8.89212 49.5131L8.8823 52.8137C8.8823 52.9139 8.80965 52.9551 8.72129 52.904C8.63271 52.853 8.56201 52.7295 8.56201 52.6293L8.57183 49.3287C8.57183 49.2288 8.64448 49.1875 8.73307 49.2384Z" fill="white"/>
<path opacity="0.8" d="M9.84098 49.8779C9.92934 49.929 10 50.0525 10 50.1524L9.99021 53.4533C9.99021 53.5532 9.91756 53.5944 9.82919 53.5434C9.74083 53.4925 9.66992 53.3688 9.66992 53.2689L9.67974 49.968C9.67974 49.8681 9.75261 49.8269 9.84098 49.8779Z" fill="white"/>
<path opacity="0.8" d="M10.9472 50.5153C11.0356 50.5663 11.1065 50.6898 11.1065 50.79L11.0967 54.0906C11.0967 54.1908 11.0238 54.2318 10.9354 54.1809C10.8471 54.1299 10.7764 54.0064 10.7764 53.9062L10.7862 50.6056C10.7862 50.5054 10.8588 50.4644 10.9472 50.5153Z" fill="white"/>
<path opacity="0.8" d="M14.2682 52.4275C14.3566 52.4783 14.4273 52.602 14.4273 52.7019L14.4175 56.0028C14.4175 56.1027 14.3448 56.144 14.2564 56.0929C14.1681 56.0419 14.0972 55.9184 14.0972 55.8185L14.107 52.5176C14.107 52.4177 14.1799 52.3764 14.2682 52.4275Z" fill="white"/>
<path opacity="0.8" d="M15.3745 53.063C15.4628 53.114 15.5337 53.2375 15.5337 53.3374L15.5239 56.6383C15.5239 56.7382 15.451 56.7795 15.3627 56.7284C15.2743 56.6776 15.2036 56.5539 15.2036 56.4539L15.2134 53.1533C15.2134 53.0531 15.2861 53.0119 15.3745 53.063Z" fill="white"/>
<path opacity="0.8" d="M16.4824 53.7081C16.5709 53.7592 16.6416 53.8827 16.6416 53.9828L16.6318 57.2835C16.6318 57.3836 16.5592 57.4249 16.4706 57.3738C16.3822 57.3228 16.3115 57.1993 16.3115 57.0991L16.3213 53.7985C16.3213 53.6983 16.394 53.6573 16.4824 53.7081Z" fill="white"/>
<path opacity="0.8" d="M17.589 54.3496C17.6774 54.4006 17.7481 54.5241 17.7481 54.6241L17.7383 57.9249C17.7383 58.0249 17.6656 58.0661 17.5772 58.015C17.4887 57.9642 17.418 57.8405 17.418 57.7406L17.4278 54.4397C17.4278 54.3398 17.5004 54.2985 17.589 54.3496Z" fill="white"/>
<path opacity="0.8" d="M23.5639 57.8148C23.6523 57.8659 23.7232 57.9894 23.7232 58.0895L23.7134 61.3902C23.7134 61.4903 23.6405 61.5316 23.5521 61.4805C23.4638 61.4294 23.3931 61.306 23.3931 61.2058L23.4029 57.9051C23.4029 57.805 23.4755 57.764 23.5639 57.8148Z" fill="white"/>
</g>
<path d="M3.754 48.711C4.08913 48.5168 4.08826 47.8917 3.75247 47.3146C3.41669 46.7377 2.87276 46.4277 2.53786 46.6219C2.20295 46.8163 2.2036 47.4414 2.53938 48.0182C2.87538 48.5951 3.41909 48.9054 3.754 48.711Z" fill="white"/>
</g>
<path d="M56.7484 34.1609L56.7287 40.2172C56.7287 40.3819 56.6207 40.5466 56.4045 40.6723L29.4994 56.2581C29.2636 56.3954 28.9433 56.4582 28.6328 56.4445L28.6367 50.3567C28.9551 50.3725 29.2812 50.3098 29.521 50.1704L56.4261 34.5826C56.4951 34.5434 56.552 34.5002 56.5972 34.4533C56.6168 34.4356 56.6325 34.416 56.6482 34.3983C56.6855 34.3512 56.713 34.3001 56.7307 34.2512C56.7346 34.2414 56.7386 34.2316 56.7405 34.2218C56.7405 34.2198 56.7405 34.2178 56.7405 34.2159C56.7405 34.2159 56.7405 34.2139 56.7405 34.212C56.7405 34.208 56.7425 34.2061 56.7425 34.2021C56.7425 34.1982 56.7425 34.1943 56.7444 34.1884C56.7484 34.1786 56.7484 34.1688 56.7503 34.1589L56.7484 34.1609Z" fill="#C9D7DD"/>
<path d="M56.7486 34.1295V34.1589C56.7486 34.1707 56.7466 34.1805 56.7427 34.1903C56.7427 34.1962 56.7427 34.2002 56.7407 34.2041C56.7407 34.208 56.7388 34.21 56.7388 34.2139C56.7388 34.2139 56.7388 34.2159 56.7388 34.2178C56.7388 34.2198 56.7388 34.2218 56.7388 34.2237C56.7368 34.2335 56.7329 34.2434 56.7289 34.2532C56.7113 34.304 56.6838 34.3531 56.6465 34.4002C56.6308 34.4199 56.6151 34.4375 56.5954 34.455C56.5483 34.5021 56.4913 34.5434 56.4246 34.5846L29.5193 50.1724C29.2795 50.3118 28.9533 50.3744 28.635 50.3587C28.3775 50.3469 28.1281 50.2843 27.9335 50.1724L0.8672 34.5551C0.853236 34.5473 0.839491 34.5394 0.827709 34.5316C0.808072 34.5178 0.788436 34.5061 0.770763 34.4923C0.760945 34.4845 0.751125 34.4766 0.741306 34.4687C0.725597 34.455 0.707927 34.4415 0.694182 34.4277C0.676509 34.4081 0.658834 34.3904 0.643125 34.3708C0.625452 34.3472 0.607779 34.3237 0.595997 34.3001C0.586179 34.2844 0.578327 34.2669 0.572437 34.2512C0.566546 34.2414 0.564582 34.2316 0.560655 34.2198C0.548873 34.1884 0.542979 34.157 0.541016 34.1255V34.0963C0.541016 34.0963 0.541016 34.0981 0.541016 34.1C0.541016 33.9314 0.647054 33.7647 0.865235 33.6373L27.7684 18.0513C28.2047 17.7983 28.918 17.7983 29.3561 18.0513L56.4206 33.6667C56.6406 33.7941 56.7486 33.9608 56.7486 34.1295Z" fill="white"/>
<path d="M56.7486 34.1295V34.1589C56.7486 34.1707 56.7466 34.1805 56.7427 34.1903C56.7427 34.1962 56.7427 34.2002 56.7407 34.2041C56.7407 34.208 56.7388 34.21 56.7388 34.2139C56.7388 34.2139 56.7388 34.2159 56.7388 34.2178C56.7388 34.2198 56.7388 34.2218 56.7388 34.2237C56.7368 34.2335 56.7329 34.2434 56.7289 34.2532C56.7113 34.304 56.6838 34.3531 56.6465 34.4002C56.6308 34.4199 56.6151 34.4375 56.5954 34.455C56.5483 34.5021 56.4913 34.5434 56.4246 34.5846L29.5193 50.1724C29.2795 50.3118 28.9533 50.3744 28.635 50.3587C28.3775 50.3469 28.1281 50.2843 27.9335 50.1724L0.8672 34.5551C0.853236 34.5473 0.839491 34.5394 0.827709 34.5316C0.808072 34.5178 0.788436 34.5061 0.770763 34.4923C0.760945 34.4845 0.751125 34.4766 0.741306 34.4687C0.725597 34.455 0.707927 34.4415 0.694182 34.4277C0.676509 34.4081 0.658834 34.3904 0.643125 34.3708C0.625452 34.3472 0.607779 34.3237 0.595997 34.3001C0.586179 34.2844 0.578327 34.2669 0.572437 34.2512C0.566546 34.2414 0.564582 34.2316 0.560655 34.2198C0.548873 34.1884 0.542979 34.157 0.541016 34.1255V34.0963C0.541016 34.0963 0.541016 34.0981 0.541016 34.1C0.541016 33.9314 0.647054 33.7647 0.865235 33.6373L27.7684 18.0513C28.2047 17.7983 28.918 17.7983 29.3561 18.0513L56.4206 33.6667C56.6406 33.7941 56.7486 33.9608 56.7486 34.1295Z" fill="url(#paint2_linear_1771_3127)"/>
<path d="M28.6348 50.3587L28.6309 56.4464C28.3695 56.4366 28.1121 56.3739 27.9118 56.2581L0.845246 40.6428C0.625319 40.5154 0.515137 40.3485 0.515137 40.1798L0.534992 34.1235C0.538919 34.155 0.544809 34.1864 0.554628 34.2178C0.558555 34.2276 0.562482 34.2374 0.56641 34.2492C0.5723 34.2669 0.580155 34.2824 0.589974 34.2981C0.603719 34.3216 0.619429 34.3452 0.637102 34.3688C0.652811 34.3884 0.670482 34.4061 0.688155 34.4238C0.7019 34.4395 0.71761 34.4532 0.735283 34.4667C0.745101 34.4746 0.754918 34.4824 0.764736 34.4903C0.782409 34.504 0.802046 34.5158 0.821682 34.5296C0.833464 34.5374 0.847209 34.5453 0.861173 34.5531L27.9255 50.1704C28.1199 50.2823 28.3715 50.3449 28.627 50.3567L28.6348 50.3587Z" fill="#C9D7DD"/>
<g opacity="0.9">
<path opacity="0.9" d="M56.7604 34.1059L56.7408 40.1621C56.7408 40.3268 56.6328 40.4917 56.4166 40.6172L29.5115 56.203C29.2756 56.3405 28.9553 56.4031 28.6449 56.3913C28.3835 56.3815 28.126 56.3169 27.9257 56.203L0.857233 40.5877C0.637306 40.4603 0.527344 40.2936 0.527344 40.125L0.546979 34.0686C0.550907 34.1 0.556797 34.1314 0.566615 34.1627C0.570542 34.1725 0.57447 34.1824 0.578397 34.1922C0.584288 34.2098 0.592143 34.2255 0.601961 34.2412C0.615706 34.2647 0.631416 34.2883 0.649089 34.3118C0.664798 34.3314 0.682469 34.3491 0.700142 34.3667C0.713887 34.3824 0.729597 34.3961 0.74727 34.4099C0.757088 34.4177 0.766905 34.4255 0.776723 34.4334C0.794396 34.4471 0.814033 34.4589 0.833669 34.4726C0.845451 34.4805 0.859196 34.4883 0.87316 34.4962L27.9395 50.1136C28.1339 50.2253 28.3854 50.2901 28.6409 50.3019C28.9593 50.3173 29.2854 50.2547 29.5252 50.1155L56.4303 34.5275C56.4993 34.4883 56.5562 34.4452 56.6014 34.3981C56.621 34.3805 56.6367 34.3608 56.6524 34.3432C56.6897 34.2961 56.7172 34.2451 56.7349 34.1961L56.7447 34.1667C56.7447 34.1667 56.7447 34.1608 56.7447 34.1588C56.7447 34.1588 56.7447 34.1588 56.7447 34.1569C56.7447 34.1529 56.7467 34.151 56.7467 34.1471C56.7467 34.1431 56.7486 34.1392 56.7486 34.1333C56.7526 34.1235 56.7526 34.1137 56.7545 34.1039L56.7604 34.1059Z" fill="url(#paint3_linear_1771_3127)"/>
<path opacity="0.8" d="M22.4572 48.2677C22.5455 48.3188 22.6162 48.4422 22.6162 48.5424L22.6064 51.843C22.6064 51.9432 22.5338 51.9842 22.4454 51.9334C22.357 51.8823 22.2861 51.7588 22.2861 51.6587L22.296 48.358C22.296 48.2579 22.3688 48.2169 22.4572 48.2677Z" fill="white"/>
<g opacity="0.8">
<path opacity="0.8" d="M6.51849 39.2483C6.60686 39.2991 6.67777 39.4228 6.67777 39.5227L6.66795 42.8236C6.66795 42.9235 6.59508 42.9648 6.50671 42.9137C6.41835 42.8627 6.34766 42.7392 6.34766 42.6393L6.35748 39.3384C6.35748 39.2385 6.43013 39.1972 6.51849 39.2483Z" fill="white"/>
<path opacity="0.8" d="M7.6264 39.8698C7.71498 39.9209 7.78568 40.0444 7.78568 40.1445L7.77586 43.4452C7.77586 43.5451 7.7032 43.5864 7.61462 43.5353C7.52625 43.4845 7.45557 43.3608 7.45557 43.2608L7.46538 39.9602C7.46538 39.86 7.53804 39.8188 7.6264 39.8698Z" fill="white"/>
<path opacity="0.8" d="M8.73307 40.5111C8.82143 40.5621 8.89212 40.6858 8.89212 40.7858L8.8823 44.0864C8.8823 44.1866 8.80965 44.2278 8.72129 44.1767C8.63271 44.1257 8.56201 44.0022 8.56201 43.902L8.57183 40.6014C8.57183 40.5015 8.64448 40.4602 8.73307 40.5111Z" fill="white"/>
<path opacity="0.8" d="M9.84098 41.1506C9.92934 41.2017 10 41.3252 10 41.4251L9.99021 44.726C9.99021 44.8259 9.91756 44.8671 9.82919 44.8161C9.74083 44.7652 9.66992 44.6415 9.66992 44.5416L9.67974 41.2407C9.67974 41.1408 9.75261 41.0996 9.84098 41.1506Z" fill="white"/>
<path opacity="0.8" d="M10.9472 41.788C11.0356 41.839 11.1065 41.9625 11.1065 42.0627L11.0967 45.3633C11.0967 45.4635 11.0238 45.5045 10.9354 45.4536C10.8471 45.4026 10.7764 45.2791 10.7764 45.1789L10.7862 41.8783C10.7862 41.7781 10.8588 41.7371 10.9472 41.788Z" fill="white"/>
<path opacity="0.8" d="M14.2682 43.7002C14.3566 43.751 14.4273 43.8747 14.4273 43.9746L14.4175 47.2755C14.4175 47.3754 14.3448 47.4167 14.2564 47.3656C14.1681 47.3146 14.0972 47.1911 14.0972 47.0912L14.107 43.7903C14.107 43.6904 14.1799 43.6491 14.2682 43.7002Z" fill="white"/>
<path opacity="0.8" d="M15.3745 44.3357C15.4628 44.3867 15.5337 44.5102 15.5337 44.6101L15.5239 47.911C15.5239 48.0109 15.451 48.0522 15.3627 48.0011C15.2743 47.9503 15.2036 47.8266 15.2036 47.7267L15.2134 44.426C15.2134 44.3259 15.2861 44.2846 15.3745 44.3357Z" fill="white"/>
<path opacity="0.8" d="M16.4824 44.9808C16.5709 45.0319 16.6416 45.1554 16.6416 45.2555L16.6318 48.5562C16.6318 48.6563 16.5592 48.6976 16.4706 48.6465C16.3822 48.5955 16.3115 48.472 16.3115 48.3718L16.3213 45.0712C16.3213 44.971 16.394 44.93 16.4824 44.9808Z" fill="white"/>
<path opacity="0.8" d="M17.589 45.6223C17.6774 45.6733 17.7481 45.7968 17.7481 45.8968L17.7383 49.1976C17.7383 49.2976 17.6656 49.3388 17.5772 49.2878C17.4887 49.2369 17.418 49.1132 17.418 49.0133L17.4278 45.7124C17.4278 45.6125 17.5004 45.5712 17.589 45.6223Z" fill="white"/>
<path opacity="0.8" d="M23.5639 49.0875C23.6523 49.1386 23.7232 49.2621 23.7232 49.3622L23.7134 52.6629C23.7134 52.763 23.6405 52.8043 23.5521 52.7532C23.4638 52.7021 23.3931 52.5787 23.3931 52.4785L23.4029 49.1779C23.4029 49.0777 23.4755 49.0367 23.5639 49.0875Z" fill="white"/>
</g>
<path d="M3.754 39.9839C4.08913 39.7897 4.08826 39.1646 3.75247 38.5876C3.41669 38.0107 2.87276 37.7006 2.53786 37.8948C2.20295 38.0892 2.2036 38.7143 2.53938 39.2912C2.87538 39.8681 3.41909 40.1783 3.754 39.9839Z" fill="white"/>
</g>
<path d="M56.7484 25.3609L56.7287 31.4173C56.7287 31.582 56.6207 31.7467 56.4045 31.8722L29.4994 47.4582C29.2636 47.5954 28.9433 47.6581 28.6328 47.6445L28.6367 41.5568C28.9551 41.5725 29.2812 41.5097 29.521 41.3705L56.4261 25.7825C56.4951 25.7433 56.552 25.7001 56.5972 25.6531C56.6168 25.6354 56.6325 25.6158 56.6482 25.5982C56.6855 25.5511 56.713 25.5001 56.7307 25.4511C56.7346 25.4413 56.7386 25.4315 56.7405 25.4216C56.7405 25.4197 56.7405 25.4177 56.7405 25.4158C56.7405 25.4158 56.7405 25.4138 56.7405 25.4118C56.7405 25.4079 56.7425 25.4059 56.7425 25.402C56.7425 25.3981 56.7425 25.3942 56.7444 25.3883C56.7484 25.3785 56.7484 25.3687 56.7503 25.3589L56.7484 25.3609Z" fill="#C9D7DD"/>
<path d="M56.7486 25.3295V25.3589C56.7486 25.3707 56.7466 25.3805 56.7427 25.3903C56.7427 25.3962 56.7427 25.4001 56.7407 25.404C56.7407 25.4079 56.7388 25.4099 56.7388 25.4138C56.7388 25.4138 56.7388 25.4158 56.7388 25.4178C56.7388 25.4197 56.7388 25.4217 56.7388 25.4236C56.7368 25.4335 56.7329 25.4432 56.7289 25.4531C56.7113 25.5041 56.6838 25.5531 56.6465 25.6001C56.6308 25.6198 56.6151 25.6374 56.5954 25.6551C56.5483 25.7021 56.4913 25.7433 56.4246 25.7845L29.5193 41.3725C29.2795 41.5117 28.9533 41.5745 28.635 41.5588C28.3775 41.547 28.1281 41.4842 27.9335 41.3725L0.8672 25.7551C0.853236 25.7472 0.839491 25.7394 0.827709 25.7316C0.808072 25.7178 0.788436 25.706 0.770763 25.6923C0.760945 25.6845 0.751125 25.6766 0.741306 25.6688C0.725597 25.6551 0.707927 25.6413 0.694182 25.6276C0.676509 25.608 0.658834 25.5903 0.643125 25.5707C0.625452 25.5472 0.607779 25.5237 0.595997 25.5001C0.586179 25.4844 0.578327 25.4668 0.572437 25.4511C0.566546 25.4413 0.564582 25.4315 0.560655 25.4197C0.548873 25.3883 0.542979 25.357 0.541016 25.3256V25.2961C0.541016 25.2961 0.541016 25.2981 0.541016 25.3001C0.541016 25.1314 0.647054 24.9647 0.865235 24.8372L27.7684 9.25128C28.2047 8.99827 28.918 8.99827 29.3561 9.25128L56.4206 24.8666C56.6406 24.9941 56.7486 25.1608 56.7486 25.3295Z" fill="white"/>
<path d="M56.7486 25.3295V25.3589C56.7486 25.3707 56.7466 25.3805 56.7427 25.3903C56.7427 25.3962 56.7427 25.4001 56.7407 25.404C56.7407 25.4079 56.7388 25.4099 56.7388 25.4138C56.7388 25.4138 56.7388 25.4158 56.7388 25.4178C56.7388 25.4197 56.7388 25.4217 56.7388 25.4236C56.7368 25.4335 56.7329 25.4432 56.7289 25.4531C56.7113 25.5041 56.6838 25.5531 56.6465 25.6001C56.6308 25.6198 56.6151 25.6374 56.5954 25.6551C56.5483 25.7021 56.4913 25.7433 56.4246 25.7845L29.5193 41.3725C29.2795 41.5117 28.9533 41.5745 28.635 41.5588C28.3775 41.547 28.1281 41.4842 27.9335 41.3725L0.8672 25.7551C0.853236 25.7472 0.839491 25.7394 0.827709 25.7316C0.808072 25.7178 0.788436 25.706 0.770763 25.6923C0.760945 25.6845 0.751125 25.6766 0.741306 25.6688C0.725597 25.6551 0.707927 25.6413 0.694182 25.6276C0.676509 25.608 0.658834 25.5903 0.643125 25.5707C0.625452 25.5472 0.607779 25.5237 0.595997 25.5001C0.586179 25.4844 0.578327 25.4668 0.572437 25.4511C0.566546 25.4413 0.564582 25.4315 0.560655 25.4197C0.548873 25.3883 0.542979 25.357 0.541016 25.3256V25.2961C0.541016 25.2961 0.541016 25.2981 0.541016 25.3001C0.541016 25.1314 0.647054 24.9647 0.865235 24.8372L27.7684 9.25128C28.2047 8.99827 28.918 8.99827 29.3561 9.25128L56.4206 24.8666C56.6406 24.9941 56.7486 25.1608 56.7486 25.3295Z" fill="url(#paint4_linear_1771_3127)"/>
<path d="M28.6348 41.5589L28.6309 47.6464C28.3695 47.6368 28.1121 47.574 27.9118 47.4583L0.845246 31.8429C0.625319 31.7154 0.515137 31.5487 0.515137 31.3801L0.534992 25.3237C0.538919 25.3551 0.544809 25.3865 0.554628 25.4179C0.558555 25.4277 0.562482 25.4375 0.56641 25.4493C0.5723 25.4669 0.580155 25.4826 0.589974 25.4983C0.603719 25.5218 0.619429 25.5454 0.637102 25.5689C0.652811 25.5885 0.670482 25.6061 0.688155 25.6238C0.7019 25.6395 0.71761 25.6532 0.735283 25.667C0.745101 25.6748 0.754918 25.6826 0.764736 25.6905C0.782409 25.7042 0.802046 25.716 0.821682 25.7297C0.833464 25.7376 0.847209 25.7454 0.861173 25.7532L27.9255 41.3706C28.1199 41.4823 28.3715 41.5452 28.627 41.557L28.6348 41.5589Z" fill="#C9D7DD"/>
<g opacity="0.9">
<path opacity="0.9" d="M56.7604 25.3786L56.7408 31.4348C56.7408 31.5995 56.6328 31.7645 56.4166 31.8899L29.5115 47.4757C29.2756 47.6132 28.9553 47.6758 28.6449 47.664C28.3835 47.6542 28.126 47.5896 27.9257 47.4757L0.857233 31.8605C0.637306 31.733 0.527344 31.5663 0.527344 31.3977L0.546979 25.3413C0.550907 25.3727 0.556797 25.4041 0.566615 25.4355C0.570542 25.4453 0.57447 25.4551 0.578397 25.4649C0.584288 25.4825 0.592143 25.4982 0.601961 25.5139C0.615706 25.5374 0.631416 25.561 0.649089 25.5845C0.664798 25.6041 0.682469 25.6218 0.700142 25.6394C0.713887 25.6551 0.729597 25.6688 0.74727 25.6826C0.757088 25.6904 0.766905 25.6983 0.776723 25.7061C0.794396 25.7198 0.814033 25.7316 0.833669 25.7453C0.845451 25.7532 0.859196 25.761 0.87316 25.7689L27.9395 41.3863C28.1339 41.498 28.3854 41.5628 28.6409 41.5746C28.9593 41.59 29.2854 41.5274 29.5252 41.3882L56.4303 25.8002C56.4993 25.761 56.5562 25.7179 56.6014 25.6708C56.621 25.6532 56.6367 25.6335 56.6524 25.6159C56.6897 25.5688 56.7172 25.5178 56.7349 25.4688L56.7447 25.4394C56.7447 25.4394 56.7447 25.4335 56.7447 25.4315C56.7447 25.4315 56.7447 25.4315 56.7447 25.4296C56.7447 25.4256 56.7467 25.4237 56.7467 25.4198C56.7467 25.4158 56.7486 25.4119 56.7486 25.406C56.7526 25.3962 56.7526 25.3864 56.7545 25.3766L56.7604 25.3786Z" fill="url(#paint5_linear_1771_3127)"/>
</g>
<g opacity="0.8">
<path opacity="0.8" d="M6.51801 30.521C6.60637 30.5718 6.67728 30.6955 6.67728 30.7954L6.66746 34.0963C6.66746 34.1962 6.59459 34.2375 6.50622 34.1864C6.41786 34.1354 6.34717 34.0119 6.34717 33.912L6.35699 30.6111C6.35699 30.5112 6.42964 30.4699 6.51801 30.521Z" fill="white"/>
<path opacity="0.8" d="M7.62591 31.1426C7.71449 31.1936 7.78519 31.3171 7.78519 31.4172L7.77537 34.7179C7.77537 34.8178 7.70271 34.8591 7.61413 34.808C7.52577 34.7572 7.45508 34.6335 7.45508 34.5335L7.4649 31.2329C7.4649 31.1327 7.53755 31.0915 7.62591 31.1426Z" fill="white"/>
<path opacity="0.8" d="M8.73258 31.7838C8.82094 31.8348 8.89163 31.9585 8.89163 32.0585L8.88182 35.3591C8.88182 35.4593 8.80916 35.5005 8.7208 35.4494C8.63222 35.3984 8.56152 35.2749 8.56152 35.1748L8.57134 31.8741C8.57134 31.7742 8.644 31.7329 8.73258 31.7838Z" fill="white"/>
<path opacity="0.8" d="M9.84049 32.4233C9.92885 32.4744 9.99954 32.5979 9.99954 32.6978L9.98972 35.9987C9.98972 36.0986 9.91707 36.1398 9.82871 36.0888C9.74034 36.0379 9.66943 35.9142 9.66943 35.8143L9.67925 32.5134C9.67925 32.4135 9.75212 32.3723 9.84049 32.4233Z" fill="white"/>
<path opacity="0.8" d="M10.9467 33.0607C11.0351 33.1117 11.106 33.2352 11.106 33.3354L11.0962 36.636C11.0962 36.7362 11.0233 36.7772 10.9349 36.7263C10.8466 36.6753 10.7759 36.5518 10.7759 36.4517L10.7857 33.151C10.7857 33.0509 10.8583 33.0098 10.9467 33.0607Z" fill="white"/>
<path opacity="0.8" d="M14.2677 34.9729C14.3561 35.0237 14.4268 35.1474 14.4268 35.2474L14.417 38.5482C14.417 38.6482 14.3443 38.6894 14.256 38.6383C14.1676 38.5873 14.0967 38.4638 14.0967 38.3639L14.1065 35.063C14.1065 34.9631 14.1794 34.9218 14.2677 34.9729Z" fill="white"/>
<path opacity="0.8" d="M15.374 35.6084C15.4623 35.6594 15.5332 35.7829 15.5332 35.8828L15.5234 39.1837C15.5234 39.2836 15.4505 39.3249 15.3622 39.2738C15.2738 39.223 15.2031 39.0993 15.2031 38.9994L15.2129 35.6987C15.2129 35.5986 15.2856 35.5573 15.374 35.6084Z" fill="white"/>
<path opacity="0.8" d="M16.4819 36.2535C16.5705 36.3046 16.6411 36.4281 16.6411 36.5282L16.6313 39.8289C16.6313 39.929 16.5587 39.9703 16.4701 39.9192C16.3817 39.8682 16.311 39.7447 16.311 39.6445L16.3209 36.3439C16.3209 36.2437 16.3935 36.2027 16.4819 36.2535Z" fill="white"/>
<path opacity="0.8" d="M17.5885 36.895C17.6769 36.9461 17.7476 37.0695 17.7476 37.1695L17.7378 40.4703C17.7378 40.5703 17.6651 40.6115 17.5768 40.5605C17.4882 40.5096 17.4175 40.3859 17.4175 40.286L17.4273 36.9851C17.4273 36.8852 17.5 36.8439 17.5885 36.895Z" fill="white"/>
<path opacity="0.8" d="M23.5634 40.3602C23.6518 40.4113 23.7227 40.5348 23.7227 40.6349L23.7129 43.9356C23.7129 44.0357 23.64 44.077 23.5516 44.0259C23.4633 43.9749 23.3926 43.8514 23.3926 43.7512L23.4024 40.4506C23.4024 40.3504 23.475 40.3094 23.5634 40.3602Z" fill="white"/>
</g>
<path d="M3.754 31.2564C4.08913 31.0622 4.08826 30.4371 3.75247 29.86C3.41669 29.2831 2.87276 28.9731 2.53786 29.1673C2.20295 29.3617 2.2036 29.9868 2.53938 30.5636C2.87538 31.1405 3.41909 31.4508 3.754 31.2564Z" fill="white"/>
<path d="M56.7484 16.5608L56.7287 22.6171C56.7287 22.7818 56.6207 22.9466 56.4045 23.0721L29.4994 38.6581C29.2636 38.7953 28.9433 38.8582 28.6328 38.8444L28.6367 32.7567C28.9551 32.7724 29.2812 32.7096 29.521 32.5704L56.4261 16.9825C56.4951 16.9433 56.552 16.9001 56.5972 16.853C56.6168 16.8354 56.6325 16.8158 56.6482 16.7981C56.6855 16.7511 56.713 16.7 56.7307 16.651C56.7346 16.6412 56.7386 16.6314 56.7405 16.6216C56.7405 16.6196 56.7405 16.6177 56.7405 16.6157C56.7405 16.6157 56.7405 16.6138 56.7405 16.6118C56.7405 16.6079 56.7425 16.6059 56.7425 16.602C56.7425 16.5981 56.7425 16.5941 56.7444 16.5883C56.7484 16.5785 56.7484 16.5687 56.7503 16.5588L56.7484 16.5608Z" fill="#C9D7DD"/>
<path d="M56.7486 16.5294V16.5588C56.7486 16.5706 56.7466 16.5804 56.7427 16.5902C56.7427 16.5961 56.7427 16.6 56.7407 16.604C56.7407 16.6079 56.7388 16.6099 56.7388 16.6138C56.7388 16.6138 56.7388 16.6157 56.7388 16.6177C56.7388 16.6197 56.7388 16.6216 56.7388 16.6236C56.7368 16.6334 56.7329 16.6432 56.7289 16.653C56.7113 16.704 56.6838 16.753 56.6465 16.8001C56.6308 16.8197 56.6151 16.8374 56.5954 16.855C56.5483 16.9021 56.4913 16.9433 56.4246 16.9845L29.5193 32.5723C29.2795 32.7115 28.9533 32.7744 28.635 32.7587C28.3775 32.7469 28.1281 32.6841 27.9335 32.5723L0.8672 16.955C0.853236 16.9472 0.839491 16.9393 0.827709 16.9315C0.808072 16.9178 0.788436 16.906 0.770763 16.8923C0.760945 16.8844 0.751125 16.8766 0.741306 16.8687C0.725597 16.855 0.707927 16.8413 0.694182 16.8275C0.676509 16.8079 0.658834 16.7903 0.643125 16.7707C0.625452 16.7471 0.607779 16.7236 0.595997 16.7001C0.586179 16.6844 0.578327 16.6667 0.572437 16.651C0.566546 16.6412 0.564582 16.6314 0.560655 16.6197C0.548873 16.5883 0.542979 16.5569 0.541016 16.5255V16.4961C0.541016 16.4961 0.541016 16.4981 0.541016 16.5C0.541016 16.3313 0.647054 16.1647 0.865235 16.0372L27.7684 0.451227C28.2047 0.198224 28.918 0.198224 29.3561 0.451227L56.4206 16.0666C56.6406 16.1941 56.7486 16.3608 56.7486 16.5294Z" fill="white"/>
<path d="M56.7486 16.5294V16.5588C56.7486 16.5706 56.7466 16.5804 56.7427 16.5902C56.7427 16.5961 56.7427 16.6 56.7407 16.604C56.7407 16.6079 56.7388 16.6099 56.7388 16.6138C56.7388 16.6138 56.7388 16.6157 56.7388 16.6177C56.7388 16.6197 56.7388 16.6216 56.7388 16.6236C56.7368 16.6334 56.7329 16.6432 56.7289 16.653C56.7113 16.704 56.6838 16.753 56.6465 16.8001C56.6308 16.8197 56.6151 16.8374 56.5954 16.855C56.5483 16.9021 56.4913 16.9433 56.4246 16.9845L29.5193 32.5723C29.2795 32.7115 28.9533 32.7744 28.635 32.7587C28.3775 32.7469 28.1281 32.6841 27.9335 32.5723L0.8672 16.955C0.853236 16.9472 0.839491 16.9393 0.827709 16.9315C0.808072 16.9178 0.788436 16.906 0.770763 16.8923C0.760945 16.8844 0.751125 16.8766 0.741306 16.8687C0.725597 16.855 0.707927 16.8413 0.694182 16.8275C0.676509 16.8079 0.658834 16.7903 0.643125 16.7707C0.625452 16.7471 0.607779 16.7236 0.595997 16.7001C0.586179 16.6844 0.578327 16.6667 0.572437 16.651C0.566546 16.6412 0.564582 16.6314 0.560655 16.6197C0.548873 16.5883 0.542979 16.5569 0.541016 16.5255V16.4961C0.541016 16.4961 0.541016 16.4981 0.541016 16.5C0.541016 16.3313 0.647054 16.1647 0.865235 16.0372L27.7684 0.451227C28.2047 0.198224 28.918 0.198224 29.3561 0.451227L56.4206 16.0666C56.6406 16.1941 56.7486 16.3608 56.7486 16.5294Z" fill="url(#paint6_linear_1771_3127)"/>
<path d="M28.6348 32.7586L28.6309 38.8463C28.3695 38.8365 28.1121 38.7736 27.9118 38.658L0.845246 23.0426C0.625319 22.9151 0.515137 22.7484 0.515137 22.5797L0.534992 16.5234C0.538919 16.5548 0.544809 16.5862 0.554628 16.6176C0.558555 16.6274 0.562482 16.6372 0.56641 16.649C0.5723 16.6666 0.580155 16.6823 0.589974 16.698C0.603719 16.7215 0.619429 16.7451 0.637102 16.7686C0.652811 16.7882 0.670482 16.8059 0.688155 16.8235C0.7019 16.8392 0.71761 16.8529 0.735283 16.8667C0.745101 16.8745 0.754918 16.8823 0.764736 16.8902C0.782409 16.9039 0.802046 16.9157 0.821682 16.9294C0.833464 16.9373 0.847209 16.9451 0.861173 16.953L27.9255 32.5703C28.1199 32.682 28.3715 32.7448 28.627 32.7566L28.6348 32.7586Z" fill="#C9D7DD"/>
<g opacity="0.9">
<path opacity="0.9" d="M56.7604 16.6513L56.7408 22.7075C56.7408 22.8722 56.6328 23.0372 56.4166 23.1626L29.5115 38.7484C29.2756 38.8859 28.9553 38.9485 28.6449 38.9367C28.3835 38.9269 28.126 38.8623 27.9257 38.7484L0.857233 23.1332C0.637306 23.0057 0.527344 22.839 0.527344 22.6704L0.546979 16.614C0.550907 16.6454 0.556797 16.6768 0.566615 16.7082C0.570542 16.718 0.57447 16.7278 0.578397 16.7376C0.584288 16.7552 0.592143 16.7709 0.601961 16.7866C0.615706 16.8101 0.631416 16.8337 0.649089 16.8572C0.664798 16.8768 0.682469 16.8945 0.700142 16.9121C0.713887 16.9278 0.729597 16.9415 0.74727 16.9553C0.757088 16.9631 0.766905 16.971 0.776723 16.9788C0.794396 16.9925 0.814033 17.0043 0.833669 17.018C0.845451 17.0259 0.859196 17.0337 0.87316 17.0416L27.9395 32.659C28.1339 32.7707 28.3854 32.8355 28.6409 32.8473C28.9593 32.8628 29.2854 32.8001 29.5252 32.6609L56.4303 17.0729C56.4993 17.0337 56.5562 16.9906 56.6014 16.9435C56.621 16.9259 56.6367 16.9062 56.6524 16.8886C56.6897 16.8415 56.7172 16.7905 56.7349 16.7415L56.7447 16.7121C56.7447 16.7121 56.7447 16.7062 56.7447 16.7042C56.7447 16.7042 56.7447 16.7042 56.7447 16.7023C56.7447 16.6983 56.7467 16.6964 56.7467 16.6925C56.7467 16.6885 56.7486 16.6846 56.7486 16.6787C56.7526 16.6689 56.7526 16.6591 56.7545 16.6493L56.7604 16.6513Z" fill="url(#paint7_linear_1771_3127)"/>
</g>
<path d="M6.51801 21.7209C6.60637 21.7719 6.67728 21.8954 6.67728 21.9955L6.66746 25.2962C6.66746 25.3963 6.59459 25.4374 6.50622 25.3864C6.41786 25.3354 6.34717 25.2119 6.34717 25.1119L6.35699 21.8111C6.35699 21.7111 6.42964 21.6699 6.51801 21.7209Z" fill="#6E17FF"/>
<path d="M7.62591 22.3444C7.71449 22.3954 7.78519 22.519 7.78519 22.619L7.77537 25.9198C7.77537 26.0198 7.70271 26.061 7.61413 26.01C7.52577 25.959 7.45508 25.8354 7.45508 25.7354L7.4649 22.4346C7.4649 22.3346 7.53755 22.2934 7.62591 22.3444Z" fill="#6E17FF"/>
<path d="M9.84049 23.6232C9.92885 23.6742 9.99954 23.7978 9.99954 23.8978L9.98972 27.1986C9.98972 27.2986 9.91707 27.3398 9.82871 27.2888C9.74034 27.2378 9.66943 27.1142 9.66943 27.0142L9.67925 23.7135C9.67925 23.6134 9.75212 23.5722 9.84049 23.6232Z" fill="#6E17FF"/>
<path d="M13.1613 25.5353C13.2497 25.5863 13.3203 25.7099 13.3203 25.8099L13.3105 29.1106C13.3105 29.2107 13.2379 29.252 13.1495 29.2009C13.0609 29.1499 12.9902 29.0264 12.9902 28.9262L13.0001 25.6256C13.0001 25.5255 13.0727 25.4844 13.1613 25.5353Z" fill="#6E17FF"/>
<path d="M14.2677 26.1728C14.3561 26.2238 14.4268 26.3474 14.4268 26.4474L14.417 29.7482C14.417 29.8481 14.3443 29.8893 14.256 29.8383C14.1676 29.7874 14.0967 29.6637 14.0967 29.5638L14.1065 26.263C14.1065 26.163 14.1794 26.1218 14.2677 26.1728Z" fill="#6E17FF"/>
<path d="M16.4819 27.4555C16.5705 27.5065 16.6411 27.6301 16.6411 27.7301L16.6313 31.0309C16.6313 31.1308 16.5587 31.1721 16.4701 31.121C16.3817 31.07 16.311 30.9465 16.311 30.8466L16.3209 27.5457C16.3209 27.4457 16.3935 27.4045 16.4819 27.4555Z" fill="#6E17FF"/>
<path d="M17.5885 28.0947C17.6769 28.1458 17.7476 28.2692 17.7476 28.3694L17.7378 31.67C17.7378 31.7702 17.6651 31.8112 17.5768 31.7604C17.4882 31.7093 17.4175 31.5858 17.4175 31.4857L17.4273 28.185C17.4273 28.0849 17.5 28.0436 17.5885 28.0947Z" fill="#6E17FF"/>
<path d="M22.4572 30.921C22.5456 30.9721 22.6162 31.0956 22.6162 31.1957L22.6064 34.4964C22.6064 34.5965 22.5338 34.6375 22.4454 34.5867C22.357 34.5356 22.2861 34.4121 22.2861 34.312L22.296 31.0113C22.296 30.9112 22.3688 30.8702 22.4572 30.921Z" fill="#6E17FF"/>
<path d="M23.5634 31.5605C23.6518 31.6114 23.7227 31.7351 23.7227 31.835L23.7129 35.1359C23.7129 35.2358 23.64 35.277 23.5516 35.226C23.4633 35.1749 23.3926 35.0514 23.3926 34.9515L23.4024 31.6506C23.4024 31.5507 23.475 31.5095 23.5634 31.5605Z" fill="#6E17FF"/>
<path d="M3.75655 22.4591C4.09146 22.2648 4.09081 21.6396 3.75481 21.0628C3.41903 20.4859 2.87532 20.1757 2.54019 20.37C2.20528 20.5642 2.20615 21.1894 2.54193 21.7663C2.87771 22.3432 3.42164 22.6534 3.75655 22.4591Z" fill="#6E17FF"/>
<defs>
<linearGradient id="paint0_linear_1771_3127" x1="1.68851" y1="55.3549" x2="57.1903" y2="22.3515" gradientUnits="userSpaceOnUse">
<stop stop-color="#49879A" stop-opacity="0.38"/>
<stop offset="0.4" stop-color="#154655" stop-opacity="0.552941"/>
<stop offset="0.7" stop-color="#154655" stop-opacity="0.73"/>
<stop offset="0.968638" stop-color="#154655" stop-opacity="0.85"/>
</linearGradient>
<linearGradient id="paint1_linear_1771_3127" x1="57.7724" y1="48.927" x2="-0.202473" y2="55.921" gradientUnits="userSpaceOnUse">
<stop stop-color="#4C7F8E" stop-opacity="0.6"/>
<stop offset="0.11" stop-color="#4C7F8E" stop-opacity="0.55"/>
<stop offset="0.27" stop-color="#4C7F8E" stop-opacity="0.43"/>
<stop offset="0.45" stop-color="#4C7F8E" stop-opacity="0.22"/>
<stop offset="0.6" stop-color="#4C7F8E" stop-opacity="0"/>
<stop offset="1" stop-color="#4C7F8E" stop-opacity="0"/>
</linearGradient>
<linearGradient id="paint2_linear_1771_3127" x1="1.68843" y1="46.5548" x2="57.1883" y2="13.5547" gradientUnits="userSpaceOnUse">
<stop stop-color="#49879A" stop-opacity="0.38"/>
<stop offset="0.4" stop-color="#154655" stop-opacity="0.552941"/>
<stop offset="0.7" stop-color="#154655" stop-opacity="0.73"/>
<stop offset="0.968638" stop-color="#154655" stop-opacity="0.85"/>
</linearGradient>
<linearGradient id="paint3_linear_1771_3127" x1="57.7724" y1="40.0543" x2="-0.202476" y2="47.0481" gradientUnits="userSpaceOnUse">
<stop stop-color="#4C7F8E" stop-opacity="0.6"/>
<stop offset="0.11" stop-color="#4C7F8E" stop-opacity="0.55"/>
<stop offset="0.27" stop-color="#4C7F8E" stop-opacity="0.43"/>
<stop offset="0.45" stop-color="#4C7F8E" stop-opacity="0.22"/>
<stop offset="0.6" stop-color="#4C7F8E" stop-opacity="0"/>
<stop offset="1" stop-color="#4C7F8E" stop-opacity="0"/>
</linearGradient>
<linearGradient id="paint4_linear_1771_3127" x1="1.68843" y1="37.7549" x2="57.1884" y2="4.75489" gradientUnits="userSpaceOnUse">
<stop stop-color="#49879A" stop-opacity="0.38"/>
<stop offset="0.4" stop-color="#154655" stop-opacity="0.552941"/>
<stop offset="0.7" stop-color="#154655" stop-opacity="0.73"/>
<stop offset="0.968638" stop-color="#154655" stop-opacity="0.85"/>
</linearGradient>
<linearGradient id="paint5_linear_1771_3127" x1="57.7724" y1="31.327" x2="-0.202476" y2="38.3208" gradientUnits="userSpaceOnUse">
<stop stop-color="#4C7F8E" stop-opacity="0.6"/>
<stop offset="0.11" stop-color="#4C7F8E" stop-opacity="0.55"/>
<stop offset="0.27" stop-color="#4C7F8E" stop-opacity="0.43"/>
<stop offset="0.45" stop-color="#4C7F8E" stop-opacity="0.22"/>
<stop offset="0.6" stop-color="#4C7F8E" stop-opacity="0"/>
<stop offset="1" stop-color="#4C7F8E" stop-opacity="0"/>
</linearGradient>
<linearGradient id="paint6_linear_1771_3127" x1="-6.12596" y1="36.7263" x2="64.453" y2="-4.46035" gradientUnits="userSpaceOnUse">
<stop stop-color="#4C7F8E" stop-opacity="0"/>
<stop offset="0.4" stop-color="#4C7F8E" stop-opacity="0"/>
<stop offset="0.5" stop-color="#4C7F8E" stop-opacity="0.12"/>
<stop offset="0.7" stop-color="#4C7F8E" stop-opacity="0.33"/>
<stop offset="0.88" stop-color="#4C7F8E" stop-opacity="0.45"/>
<stop offset="1" stop-color="#4C7F8E" stop-opacity="0.5"/>
</linearGradient>
<linearGradient id="paint7_linear_1771_3127" x1="57.7724" y1="22.5997" x2="-0.202476" y2="29.5935" gradientUnits="userSpaceOnUse">
<stop stop-color="#4C7F8E" stop-opacity="0.6"/>
<stop offset="0.11" stop-color="#4C7F8E" stop-opacity="0.55"/>
<stop offset="0.27" stop-color="#4C7F8E" stop-opacity="0.43"/>
<stop offset="0.45" stop-color="#4C7F8E" stop-opacity="0.22"/>
<stop offset="0.6" stop-color="#4C7F8E" stop-opacity="0"/>
<stop offset="1" stop-color="#4C7F8E" stop-opacity="0"/>
</linearGradient>
</defs>
</svg>
