<svg width="25" height="25" viewBox="0 0 25 25" fill="none" xmlns="http://www.w3.org/2000/svg">
<path d="M5.75098 6.75458C5.75098 7.27234 5.33124 7.69208 4.81348 7.69208C4.29571 7.69208 3.87598 7.27234 3.87598 6.75458C3.87598 6.23681 4.29571 5.81708 4.81348 5.81708C5.33124 5.81708 5.75098 6.23681 5.75098 6.75458Z" fill="#512FC9"/>
<path d="M8.93848 6.00458C8.52426 6.00458 8.18848 6.34036 8.18848 6.75458C8.18848 7.16879 8.52426 7.50458 8.93848 7.50458H20.9385C21.3527 7.50458 21.6885 7.16879 21.6885 6.75458C21.6885 6.34036 21.3527 6.00458 20.9385 6.00458H8.93848Z" fill="#512FC9"/>
<path d="M8.93848 12.0046C8.52426 12.0046 8.18848 12.3404 8.18848 12.7546C8.18848 13.1688 8.52426 13.5046 8.93848 13.5046H20.9385C21.3527 13.5046 21.6885 13.1688 21.6885 12.7546C21.6885 12.3404 21.3527 12.0046 20.9385 12.0046H8.93848Z" fill="#512FC9"/>
<path d="M8.18848 18.7546C8.18848 18.3404 8.52426 18.0046 8.93848 18.0046H20.9385C21.3527 18.0046 21.6885 18.3404 21.6885 18.7546C21.6885 19.1688 21.3527 19.5046 20.9385 19.5046H8.93848C8.52426 19.5046 8.18848 19.1688 8.18848 18.7546Z" fill="#512FC9"/>
<path d="M4.81348 19.6921C5.33124 19.6921 5.75098 19.2723 5.75098 18.7546C5.75098 18.2368 5.33124 17.8171 4.81348 17.8171C4.29571 17.8171 3.87598 18.2368 3.87598 18.7546C3.87598 19.2723 4.29571 19.6921 4.81348 19.6921Z" fill="#512FC9"/>
<path d="M5.75098 12.7546C5.75098 13.2723 5.33124 13.6921 4.81348 13.6921C4.29571 13.6921 3.87598 13.2723 3.87598 12.7546C3.87598 12.2368 4.29571 11.8171 4.81348 11.8171C5.33124 11.8171 5.75098 12.2368 5.75098 12.7546Z" fill="#512FC9"/>
</svg>
