<svg width="25" height="24" viewBox="0 0 25 24" fill="none" xmlns="http://www.w3.org/2000/svg">
<path fill-rule="evenodd" clip-rule="evenodd" d="M3.77259 16.5C3.18681 17.0858 3.18681 18.0356 3.77259 18.6214L5.71161 20.5604C6.2974 21.1462 7.24714 21.1462 7.83293 20.5604L17.3399 11.0534C17.348 11.046 17.356 11.0383 17.3638 11.0305C17.3717 11.0226 17.3793 11.0147 17.3868 11.0065L20.8936 7.49968C21.4794 6.91389 21.4794 5.96415 20.8936 5.37836L18.9546 3.43934C18.3688 2.85355 17.4191 2.85355 16.8333 3.43934L3.77259 16.5ZM16.833 9.43899L19.833 6.43902L17.894 4.5L14.894 7.49997L16.833 9.43899ZM13.8333 8.56063L4.83325 17.5607L6.77227 19.4997L15.7723 10.4996L13.8333 8.56063Z" fill="#512FC9"/>
<path d="M7.83351 3.00016C8.24773 3.00016 8.58351 3.33594 8.58351 3.75016V5.25016H10.0835C10.4977 5.25016 10.8335 5.58594 10.8335 6.00016C10.8335 6.41437 10.4977 6.75016 10.0835 6.75016H8.58351V8.25016C8.58351 8.66437 8.24773 9.00016 7.83351 9.00016C7.4193 9.00016 7.08351 8.66437 7.08351 8.25016V6.75016H5.58351C5.1693 6.75016 4.83351 6.41437 4.83351 6.00016C4.83351 5.58594 5.1693 5.25016 5.58351 5.25016H7.08351V3.75016C7.08351 3.33594 7.4193 3.00016 7.83351 3.00016Z" fill="#512FC9"/>
<path d="M21.3335 12.0002C21.3335 11.5859 20.9977 11.2502 20.5835 11.2502C20.1693 11.2502 19.8335 11.5859 19.8335 12.0002V13.5002H18.3335C17.9193 13.5002 17.5835 13.8359 17.5835 14.2502C17.5835 14.6644 17.9193 15.0002 18.3335 15.0002H19.8335V16.5002C19.8335 16.9144 20.1693 17.2502 20.5835 17.2502C20.9977 17.2502 21.3335 16.9144 21.3335 16.5002V15.0002H22.8335C23.2477 15.0002 23.5835 14.6644 23.5835 14.2502C23.5835 13.8359 23.2477 13.5002 22.8335 13.5002H21.3335V12.0002Z" fill="#512FC9"/>
<path d="M16.0835 16.5002C16.4977 16.5002 16.8335 16.8359 16.8335 17.2502V18.0002H17.5835C17.9977 18.0002 18.3335 18.3359 18.3335 18.7502C18.3335 19.1644 17.9977 19.5002 17.5835 19.5002H16.8335V20.2502C16.8335 20.6644 16.4977 21.0002 16.0835 21.0002C15.6693 21.0002 15.3335 20.6644 15.3335 20.2502V19.5002H14.5835C14.1693 19.5002 13.8335 19.1644 13.8335 18.7502C13.8335 18.3359 14.1693 18.0002 14.5835 18.0002H15.3335V17.2502C15.3335 16.8359 15.6693 16.5002 16.0835 16.5002Z" fill="#512FC9"/>
</svg>
