<svg width="73" height="73" viewBox="0 0 73 73" fill="none" xmlns="http://www.w3.org/2000/svg">
<path d="M34.0588 5.31651C38.7261 1.09918 45.9319 1.23991 50.4299 5.73838L50.8518 6.18077C53.3462 8.94203 54.3106 12.5902 53.7551 16.0421C57.2061 15.4864 60.8549 16.4543 63.6164 18.9483L64.0617 19.3702L64.2023 19.5108L64.6242 19.9562C68.7049 24.473 68.7049 31.3651 64.6242 35.8819L64.2023 36.3273L39.5432 60.9864C39.168 61.3621 39.1688 61.9726 39.5432 62.3487L44.6086 67.4112L44.7609 67.5841C45.4818 68.4678 45.4323 69.772 44.6086 70.5958C43.7848 71.4195 42.4805 71.469 41.5969 70.7482L41.424 70.5958L36.3615 65.5304C34.2298 63.3969 34.229 59.9378 36.3615 57.8048L61.0207 33.1456L61.5275 32.5831C63.7374 29.8739 63.7374 25.9642 61.5275 23.255L61.0207 22.6925L60.8801 22.5519L60.3176 22.045C57.6083 19.8362 53.6982 19.8352 50.9894 22.045L50.4475 22.5314L50.4299 22.5519L29.84 43.1446L29.6672 43.2999C28.7837 44.0191 27.4788 43.9673 26.6555 43.1446C25.7778 42.2665 25.7786 40.8417 26.6555 39.963L26.9162 39.6993L47.2687 19.3468L47.7551 18.8106C49.9652 16.1015 49.9647 12.1889 47.7551 9.47959L47.2482 8.92002C44.5427 6.21423 40.2602 6.04501 37.3576 8.41319L36.798 8.92002L9.53144 36.1866C8.65305 37.0637 7.22816 37.0638 6.3498 36.1866C5.47152 35.3084 5.47236 33.8838 6.3498 33.005L33.6164 5.73838L34.0588 5.31651Z" fill="black"/>
<path d="M40.4338 12.5558C41.3125 11.6775 42.7369 11.6772 43.6154 12.5558C44.4924 13.4344 44.4932 14.8592 43.6154 15.7374L23.4504 35.9024C20.5645 38.7884 20.5644 43.4694 23.4504 46.3556L24.01 46.8624C26.9123 49.2287 31.1953 49.0602 33.9006 46.3556L54.0656 26.1876C54.9441 25.3098 56.3687 25.3098 57.2473 26.1876C58.1246 27.0661 58.1249 28.4909 57.2473 29.3692L37.0822 49.5372C32.5845 54.0343 25.3784 54.1744 20.7111 49.9591L20.2687 49.5372C15.6256 44.8937 15.6255 37.3642 20.2687 32.7208L40.4338 12.5558Z" fill="black"/>
</svg>
