<svg width="26" height="27" viewBox="0 0 26 27" fill="none" xmlns="http://www.w3.org/2000/svg">
<path fill-rule="evenodd" clip-rule="evenodd" d="M8.5 23H17.5C19.433 23 21 21.433 21 19.5C21 17.567 19.433 16 17.5 16H8.5C6.567 16 5 17.567 5 19.5C5 21.433 6.567 23 8.5 23ZM8.5 18C7.67157 18 7 18.6716 7 19.5C7 20.3284 7.67157 21 8.5 21H10V18H8.5ZM16 21H17.5C18.3284 21 19 20.3284 19 19.5C19 18.6716 18.3284 18 17.5 18H16V21ZM12 18V21H14V18H12Z" fill="#512FC9"/>
<path d="M7.5 13.75C8.19036 13.75 8.75 13.1904 8.75 12.5C8.75 11.8096 8.19036 11.25 7.5 11.25C6.80964 11.25 6.25 11.8096 6.25 12.5C6.25 13.1904 6.80964 13.75 7.5 13.75Z" fill="#512FC9"/>
<path d="M19.75 12.5C19.75 13.1904 19.1904 13.75 18.5 13.75C17.8096 13.75 17.25 13.1904 17.25 12.5C17.25 11.8096 17.8096 11.25 18.5 11.25C19.1904 11.25 19.75 11.8096 19.75 12.5Z" fill="#512FC9"/>
<path fill-rule="evenodd" clip-rule="evenodd" d="M14 1C14 0.447715 13.5523 0 13 0C12.4477 0 12 0.447715 12 1V5H4C1.79086 5 0 6.79086 0 9V23C0 25.2091 1.79086 27 4 27H22C24.2091 27 26 25.2091 26 23V9C26 6.79086 24.2091 5 22 5H14V1ZM4 7C2.89543 7 2 7.89543 2 9V23C2 24.1046 2.89543 25 4 25H22C23.1046 25 24 24.1046 24 23V9C24 7.89543 23.1046 7 22 7H4Z" fill="#512FC9"/>
</svg>
