<svg width="49" height="49" viewBox="0 0 49 49" fill="none" xmlns="http://www.w3.org/2000/svg">
<g clip-path="url(#clip0_1771_5897)">
<path d="M10.6885 31.0879C10.6885 33.8879 8.42181 36.0879 5.68848 36.0879C2.95514 36.0879 0.688477 33.8212 0.688477 31.0879C0.688477 28.3546 2.95514 26.0879 5.68848 26.0879H10.6885V31.0879Z" fill="#E01E5A"/>
<path d="M13.355 31.1026C13.355 28.2944 15.6216 26.0879 18.355 26.0879C21.0883 26.0879 23.355 28.3612 23.355 31.1026V43.7398C23.355 46.5481 21.0883 48.7546 18.355 48.7546C15.6216 48.7546 13.355 46.4812 13.355 43.7398V31.1026Z" fill="#E01E5A"/>
<path d="M18.355 10.7546C15.555 10.7546 13.355 8.48797 13.355 5.75464C13.355 3.02131 15.6216 0.754639 18.355 0.754639C21.0883 0.754639 23.355 3.02131 23.355 5.75464V10.7546H18.355Z" fill="#36C5F0"/>
<path d="M18.3404 13.4214C21.1487 13.4214 23.3551 15.6881 23.3551 18.4214C23.3551 21.1547 21.0818 23.4214 18.3404 23.4214H5.70323C2.89497 23.4214 0.688477 21.1547 0.688477 18.4214C0.688477 15.6881 2.96183 13.4214 5.70323 13.4214H18.3404Z" fill="#36C5F0"/>
<path d="M38.6885 18.4214C38.6885 15.6214 40.9551 13.4214 43.6885 13.4214C46.4885 13.4214 48.6885 15.6881 48.6885 18.4214C48.6885 21.1547 46.4218 23.4214 43.6885 23.4214H38.6885V18.4214Z" fill="#2EB67D"/>
<path d="M36.022 18.4066C36.022 21.2148 33.7553 23.4213 31.022 23.4213C28.2886 23.4213 26.022 21.148 26.022 18.4066V5.76939C26.022 2.96113 28.2886 0.754639 31.022 0.754639C33.7553 0.754639 36.022 3.02799 36.022 5.76939V18.4066Z" fill="#2EB67D"/>
<path d="M31.022 38.7546C33.822 38.7546 36.022 41.0213 36.022 43.7546C36.022 46.5546 33.7553 48.7546 31.022 48.7546C28.2886 48.7546 26.022 46.488 26.022 43.7546V38.7546H31.022Z" fill="#ECB22E"/>
<path d="M31.0367 36.0879C28.2285 36.0879 26.022 33.8212 26.022 31.0879C26.022 28.3546 28.2953 26.0879 31.0367 26.0879H43.6739C46.4821 26.0879 48.6886 28.3546 48.6886 31.0879C48.6886 33.8212 46.4153 36.0879 43.6739 36.0879H31.0367Z" fill="#ECB22E"/>
</g>
<defs>
<clipPath id="clip0_1771_5897">
<rect x="0.688477" y="0.754639" width="48" height="48" rx="8" fill="white"/>
</clipPath>
</defs>
</svg>
