<svg width="49" height="49" viewBox="0 0 49 49" fill="none" xmlns="http://www.w3.org/2000/svg">
<g clip-path="url(#clip0_1771_6751)">
<path d="M41.8362 37.3369L31.704 31.4836C30.2805 30.6641 28.4603 31.1515 27.6364 32.5749C27.3172 33.1357 27.1921 33.7525 27.2525 34.3521V45.7912C27.2525 47.426 28.581 48.7546 30.2201 48.7546C31.8549 48.7546 33.1835 47.426 33.1835 45.7912V39.2133L38.8599 42.4915C40.2834 43.3153 42.1079 42.8236 42.9275 41.4002C43.7514 39.9768 43.2639 38.1565 41.8362 37.3369Z" fill="#29B5E8"/>
<path d="M16.6374 24.7933C16.6547 23.7366 16.0983 22.7531 15.1838 22.2226L5.05159 16.3736C4.61162 16.1191 4.10695 15.9854 3.60228 15.9854C2.56274 15.9854 1.59653 16.5418 1.07892 17.439C0.276627 18.8279 0.755417 20.6093 2.14434 21.4116L7.98472 24.7804L2.14434 28.1535C1.47145 28.5417 0.988341 29.1671 0.789924 29.9177C0.587193 30.6682 0.690715 31.4533 1.07892 32.1262C1.59653 33.0233 2.56274 33.5798 3.59796 33.5798C4.10695 33.5798 4.61162 33.4461 5.05159 33.1916L15.1838 27.3426C16.0896 26.8163 16.6461 25.8415 16.6374 24.7933Z" fill="#29B5E8"/>
<path d="M7.35029 12.2286L17.4825 18.0776C18.6644 18.7634 20.1223 18.5391 21.054 17.629C21.645 17.0855 22.0116 16.3091 22.0116 15.4464V3.72251C22.0116 2.08341 20.6831 0.754883 19.0483 0.754883C17.4092 0.754883 16.0807 2.08341 16.0807 3.72251V10.3954L10.3266 7.07404C8.90312 6.25017 7.08286 6.73759 6.259 8.16102C5.43513 9.58444 5.92686 11.4047 7.35029 12.2286Z" fill="#29B5E8"/>
<path d="M30.1343 25.2679C30.1343 25.4922 30.0049 25.8028 29.8453 25.9667L25.8295 29.9825C25.6699 30.1421 25.3551 30.2715 25.1308 30.2715H24.1085C23.8842 30.2715 23.5693 30.1421 23.4097 29.9825L19.3896 25.9667C19.23 25.8028 19.1006 25.4922 19.1006 25.2679V24.2457C19.1006 24.0171 19.23 23.7065 19.3896 23.5469L23.4097 19.5268C23.5693 19.3672 23.8842 19.2378 24.1085 19.2378H25.1308C25.3551 19.2378 25.6699 19.3672 25.8295 19.5268L29.8453 23.5469C30.0049 23.7065 30.1343 24.0171 30.1343 24.2457V25.2679ZM26.5499 24.7762V24.7331C26.5499 24.5692 26.455 24.3406 26.3385 24.2198L25.1523 23.0379C25.0359 22.9171 24.8072 22.8222 24.639 22.8222H24.5959C24.432 22.8222 24.2034 22.9171 24.0826 23.0379L22.9007 24.2198C22.7843 24.3363 22.6894 24.5649 22.6894 24.7331V24.7762C22.6894 24.9444 22.7843 25.1731 22.9007 25.2895L24.0826 26.4757C24.2034 26.5922 24.432 26.6871 24.5959 26.6871H24.639C24.8072 26.6871 25.0359 26.5922 25.1523 26.4757L26.3385 25.2895C26.455 25.1731 26.5499 24.9444 26.5499 24.7762Z" fill="#29B5E8"/>
<path d="M31.7052 18.0776L41.8374 12.2286C43.2609 11.409 43.7526 9.58444 42.9287 8.16102C42.1049 6.73759 40.2846 6.25017 38.8612 7.07404L33.1847 10.3522V3.72251C33.1847 2.08341 31.8562 0.754883 30.2214 0.754883C28.5823 0.754883 27.2538 2.08341 27.2538 3.72251V15.2134C27.1977 15.8087 27.3141 16.4298 27.6377 16.9906C28.4615 18.414 30.2818 18.9014 31.7052 18.0776Z" fill="#29B5E8"/>
<path d="M19.5142 31.1389C18.8413 31.0095 18.1209 31.1174 17.4825 31.484L7.35029 37.3373C5.92686 38.1569 5.43513 39.9771 6.259 41.4005C7.08286 42.8283 8.90312 43.3157 10.3266 42.4918L16.0807 39.1705V45.7916C16.0807 47.4264 17.4092 48.7549 19.0483 48.7549C20.6831 48.7549 22.0116 47.4264 22.0116 45.7916V34.0677C22.0116 32.5882 20.929 31.3632 19.5142 31.1389Z" fill="#29B5E8"/>
<path d="M48.1683 17.4045C47.3488 15.9767 45.5242 15.4893 44.1008 16.3132L33.9685 22.1621C32.998 22.7229 32.4631 23.7495 32.4804 24.7933C32.4718 25.8329 33.0066 26.8465 33.9685 27.3986L44.1008 33.2519C45.5242 34.0715 47.3445 33.5841 48.1683 32.1606C48.9922 30.7372 48.5004 28.917 47.077 28.0931L41.3402 24.7804L47.077 21.4677C48.5048 20.6481 48.9922 18.8279 48.1683 17.4045Z" fill="#29B5E8"/>
</g>
<defs>
<clipPath id="clip0_1771_6751">
<rect x="0.688477" y="0.754883" width="48" height="48" rx="8" fill="white"/>
</clipPath>
</defs>
</svg>
