<svg width="24" height="24" viewBox="0 0 24 24" fill="none" xmlns="http://www.w3.org/2000/svg">
<path d="M8.13275 4.15275C8.35513 3.8033 8.25211 3.33973 7.90266 3.11735C7.5532 2.89497 7.08963 2.99798 6.86725 3.34744L1.61725 11.5974C1.46092 11.8431 1.46092 12.1571 1.61725 12.4028L6.86725 20.6528C7.08963 21.0022 7.5532 21.1052 7.90266 20.8828C8.25211 20.6605 8.35513 20.1969 8.13275 19.8474L3.13898 12.0001L8.13275 4.15275Z" fill="#512FC9"/>
<path d="M17.1328 3.34744C16.9105 2.99798 16.4469 2.89497 16.0974 3.11735C15.748 3.33973 15.645 3.8033 15.8673 4.15275L20.8611 12.0001L15.8673 19.8474C15.645 20.1969 15.748 20.6605 16.0974 20.8828C16.4469 21.1052 16.9105 21.0022 17.1328 20.6528L22.3828 12.4028C22.5392 12.1571 22.5392 11.8431 22.3828 11.5974L17.1328 3.34744Z" fill="#512FC9"/>
</svg>