<svg width="24" height="24" viewBox="0 0 24 24" fill="none" xmlns="http://www.w3.org/2000/svg">
<path d="M16.5 6C16.0858 6 15.75 6.33579 15.75 6.75C15.75 7.16421 16.0858 7.5 16.5 7.5H19.5C19.9142 7.5 20.25 7.16421 20.25 6.75C20.25 6.33579 19.9142 6 19.5 6H16.5Z" fill="#512FC9"/>
<path d="M15.75 9.75C15.75 9.33579 16.0858 9 16.5 9H19.5C19.9142 9 20.25 9.33579 20.25 9.75C20.25 10.1642 19.9142 10.5 19.5 10.5H16.5C16.0858 10.5 15.75 10.1642 15.75 9.75Z" fill="#512FC9"/>
<path d="M18.9375 16.875C18.9375 17.3928 18.5178 17.8125 18 17.8125C17.4822 17.8125 17.0625 17.3928 17.0625 16.875C17.0625 16.3572 17.4822 15.9375 18 15.9375C18.5178 15.9375 18.9375 16.3572 18.9375 16.875Z" fill="#512FC9"/>
<path fill-rule="evenodd" clip-rule="evenodd" d="M14.25 3C13.4216 3 12.75 3.67157 12.75 4.5V19.5C12.75 20.3284 13.4216 21 14.25 21H21.75C22.5784 21 23.25 20.3284 23.25 19.5V4.5C23.25 3.67157 22.5784 3 21.75 3H14.25ZM14.25 4.5H21.75V19.5H14.25V4.5Z" fill="#512FC9"/>
<path d="M3 8.25C2.80109 8.25 2.61032 8.32902 2.46967 8.46967C2.32902 8.61032 2.25 8.80109 2.25 9V15.75C2.25 15.9489 2.32902 16.1397 2.46967 16.2803C2.61032 16.421 2.80109 16.5 3 16.5H10.5C10.9142 16.5 11.25 16.8358 11.25 17.25C11.25 17.6642 10.9142 18 10.5 18H9V19.5H10.5C10.9142 19.5 11.25 19.8358 11.25 20.25C11.25 20.6642 10.9142 21 10.5 21H6C5.58579 21 5.25 20.6642 5.25 20.25C5.25 19.8358 5.58579 19.5 6 19.5H7.5V18H3C2.40326 18 1.83097 17.7629 1.40901 17.341C0.987053 16.919 0.75 16.3467 0.75 15.75V9C0.75 8.40326 0.987053 7.83097 1.40901 7.40901C1.83097 6.98705 2.40326 6.75 3 6.75H10.5C10.9142 6.75 11.25 7.08579 11.25 7.5C11.25 7.91421 10.9142 8.25 10.5 8.25H3Z" fill="#512FC9"/>
</svg>