<svg width="49" height="49" viewBox="0 0 49 49" fill="none" xmlns="http://www.w3.org/2000/svg">
<path fill-rule="evenodd" clip-rule="evenodd" d="M15.2958 24.318C15.2958 19.0249 19.609 14.7183 24.9102 14.7179C30.2118 14.7183 34.5252 19.0249 34.5252 24.318C34.5252 29.6111 30.2121 33.9172 24.9106 33.9172C19.609 33.9172 15.2958 29.6111 15.2958 24.318ZM19.2541 24.318C19.2541 27.4286 21.7915 29.959 24.9105 29.959C28.0296 29.959 30.5669 27.4286 30.5669 24.318C30.5669 21.207 28.0288 18.6762 24.9094 18.6762C21.7911 18.6762 19.2541 21.207 19.2541 24.318Z" fill="#512FC9"/>
<path fill-rule="evenodd" clip-rule="evenodd" d="M43.0262 27.1107L47.7067 31.0961C47.8688 31.211 47.9857 31.3787 48.0383 31.5708C48.0893 31.7631 48.0742 31.9684 47.9913 32.1493C47.0378 35.0341 45.3929 37.7739 43.3617 40.0444C43.1054 40.3365 42.7587 40.4628 42.4157 40.3705L42.2876 40.3271L36.3922 38.3109C35.0981 39.353 33.6521 40.2122 32.1082 40.8641L31.5242 41.0997L30.3543 47.0992C30.314 47.2952 30.2145 47.4741 30.0694 47.6136C29.9243 47.7512 29.7403 47.8415 29.5424 47.8737C28.0144 48.1525 26.4864 48.3164 24.9123 48.3164C23.3365 48.3164 21.8086 48.1526 20.2806 47.8737C20.1036 47.8453 19.9376 47.7719 19.8003 47.657C19.6627 47.542 19.5591 47.3912 19.5005 47.2235L19.4684 47.0992L18.3005 41.0996C16.7113 40.5024 15.2159 39.6789 13.8606 38.6577L13.4306 38.3109L7.53477 40.3271C7.1547 40.491 6.74877 40.3723 6.46068 40.0444C4.43072 37.7739 2.78486 35.0341 1.83084 32.1493C1.75926 31.9892 1.73833 31.8102 1.77073 31.6368C1.80328 31.4635 1.88774 31.3051 2.01287 31.1808L2.11685 31.0961L6.79481 27.1107C6.6378 26.1894 6.56563 25.2566 6.57859 24.3221C6.57859 23.574 6.60875 22.807 6.70677 22.076L6.7948 21.5351L2.11475 17.5537C1.95231 17.4387 1.83515 17.2692 1.78301 17.0771C1.73074 16.8848 1.74697 16.6813 1.82875 16.5003C2.78277 13.6174 4.42864 10.874 6.45874 8.59956C6.56935 8.46208 6.71689 8.35847 6.88462 8.30008C7.0522 8.2434 7.23245 8.23409 7.40472 8.27558L7.53477 8.317L13.4306 10.3312C14.7422 9.26289 16.2047 8.39616 17.7705 7.75548L18.3005 7.54448L19.4684 1.54867C19.5084 1.35087 19.6074 1.17181 19.7527 1.03246C19.898 0.894894 20.0822 0.804398 20.2806 0.774233C23.3369 0.163797 26.4837 0.163797 29.5403 0.774233L29.5423 0.776173C29.7189 0.802543 29.8846 0.877835 30.0218 0.992835C30.159 1.10775 30.2621 1.25664 30.3204 1.42623L30.3542 1.55061L31.5223 7.54628C33.0845 8.14562 34.5575 8.95574 35.9002 9.95437L36.3901 10.3331L42.2875 8.32079C42.6681 8.15492 43.0733 8.27371 43.3598 8.59956C45.3872 10.874 47.0359 13.6174 47.9912 16.5004C48.0628 16.6606 48.0855 16.8395 48.0515 17.0129C48.0196 17.1845 47.9347 17.3446 47.8103 17.467L47.7067 17.5537L43.0262 21.5333C43.1939 22.4226 43.2429 23.3855 43.2429 24.322C43.2429 25.0758 43.2109 25.8388 43.1129 26.5699L43.0262 27.1107ZM10.8386 24.3182C10.8386 32.0739 17.1385 38.3617 24.9104 38.3617C32.6823 38.3617 38.9826 32.0739 38.9826 24.3182C38.9826 16.563 32.6828 10.2735 24.9094 10.2729C17.134 10.2735 10.8386 16.563 10.8386 24.3182Z" fill="#512FC9"/>
</svg>
