<svg width="40" height="40" viewBox="0 0 40 40" fill="none" xmlns="http://www.w3.org/2000/svg">
<path d="M33.75 28.7498C34.4404 28.7498 35 29.3095 35 29.9998C35 30.6902 34.4404 31.2498 33.75 31.2498H18.75C18.0597 31.2498 17.5 30.6902 17.5 29.9998C17.5 29.3095 18.0597 28.7498 18.75 28.7498H33.75ZM5.31545 9.16975C5.77399 8.6539 6.56411 8.60697 7.0801 9.06526L18.3301 19.0653C18.597 19.3025 18.75 19.6428 18.75 19.9998C18.75 20.3569 18.597 20.6972 18.3301 20.9344L7.0801 30.9344C6.56411 31.3927 5.77399 31.3458 5.31545 30.8299C4.85716 30.3139 4.90409 29.5238 5.41994 29.0653L15.6182 19.9998L5.41994 10.9344C4.90409 10.4759 4.85715 9.68574 5.31545 9.16975Z" fill="#512FC9"/>
</svg>
