<svg width="25" height="24" viewBox="0 0 25 24" fill="none" xmlns="http://www.w3.org/2000/svg">
<path d="M20.9167 3.75C21.7452 3.75 22.4167 4.42157 22.4167 5.25V18.75C22.4167 19.5784 21.7452 20.25 20.9167 20.25H4.41675C3.58832 20.25 2.91675 19.5784 2.91675 18.75V5.25C2.91675 4.42157 3.58832 3.75 4.41675 3.75H20.9167ZM4.41675 18.75H20.9167V5.25H4.41675V18.75ZM17.1667 14.25C17.581 14.25 17.9167 14.5858 17.9167 15C17.9167 15.4142 17.581 15.75 17.1667 15.75H13.4167C13.0025 15.75 12.6667 15.4142 12.6667 15C12.6667 14.5858 13.0025 14.25 13.4167 14.25H17.1667ZM7.58081 8.53125C7.83956 8.20782 8.31205 8.15533 8.6355 8.41406L12.3855 11.4141C12.5634 11.5564 12.6667 11.7722 12.6667 12C12.6667 12.2278 12.5634 12.4436 12.3855 12.5859L8.6355 15.5859C8.31205 15.8447 7.83957 15.7922 7.58081 15.4688C7.32208 15.1453 7.37456 14.6728 7.698 14.4141L10.7166 12L7.698 9.58594C7.37458 9.32718 7.32206 8.85469 7.58081 8.53125Z" fill="#512FC9"/>
</svg>
