<svg width="20" height="20" viewBox="0 0 20 20" fill="none" xmlns="http://www.w3.org/2000/svg">
<path d="M10 0.25C9.71393 0.25 9.43056 0.262341 9.15041 0.286547C8.73774 0.322206 8.4321 0.685652 8.46776 1.09833C8.50342 1.511 8.86687 1.81664 9.27954 1.78098C9.5168 1.76048 9.75708 1.75 10 1.75C14.5563 1.75 18.25 5.44365 18.25 10C18.25 14.5563 14.5563 18.25 10 18.25H9.27954C8.86533 18.25 8.50342 18.489 8.46776 18.9017C8.4321 19.3143 8.73774 19.6778 9.15041 19.7135C9.43056 19.7377 9.71393 19.75 10 19.75C15.3848 19.75 19.75 15.3848 19.75 10C19.75 4.61522 15.3848 0.25 10 0.25Z" fill="#512FC9"/>
<path d="M6.51291 2.52082C6.8882 2.34552 7.05032 1.89918 6.87502 1.52389C6.69972 1.1486 6.25338 0.986475 5.87809 1.16178C5.36122 1.40321 4.86917 1.68856 4.40673 2.01296C4.06763 2.25083 3.98557 2.71856 4.22345 3.05766C4.46132 3.39676 4.92905 3.47882 5.26815 3.24095C5.65964 2.96632 6.07592 2.72494 6.51291 2.52082Z" fill="#512FC9"/>
<path d="M3.24095 5.26815C3.47882 4.92905 3.39676 4.46132 3.05766 4.22345C2.71856 3.98557 2.25083 4.06763 2.01296 4.40673C1.68856 4.86917 1.40321 5.36122 1.16178 5.87809C0.986474 6.25338 1.1486 6.69972 1.52389 6.87502C1.89918 7.05032 2.34552 6.8882 2.52082 6.51291C2.72494 6.07592 2.96632 5.65964 3.24095 5.26815Z" fill="#512FC9"/>
<path d="M1.78098 9.27954C1.81664 8.86687 1.511 8.50342 1.09833 8.46776C0.685652 8.4321 0.322206 8.73774 0.286547 9.15041C0.262341 9.43056 0.25 9.71393 0.25 10C0.25 10.2861 0.262341 10.5694 0.286547 10.8496C0.322206 11.2623 0.685652 11.5679 1.09833 11.5322C1.511 11.4966 1.81664 11.1331 1.78098 10.7205C1.76048 10.4832 1.75 10.2429 1.75 10C1.75 9.75708 1.76048 9.5168 1.78098 9.27954Z" fill="#512FC9"/>
<path d="M2.52082 13.4871C2.34552 13.1118 1.89918 12.9497 1.52389 13.125C1.1486 13.3003 0.986475 13.7466 1.16178 14.1219C1.40321 14.6388 1.68856 15.1308 2.01296 15.5933C2.25083 15.9324 2.71856 16.0144 3.05766 15.7766C3.39676 15.5387 3.47882 15.0709 3.24095 14.7318C2.96632 14.3404 2.72494 13.9241 2.52082 13.4871Z" fill="#512FC9"/>
<path d="M5.26815 16.7591C4.92905 16.5212 4.46132 16.6032 4.22345 16.9423C3.98557 17.2814 4.06763 17.7492 4.40673 17.987C4.86917 18.3114 5.36122 18.5968 5.87809 18.8382C6.25338 19.0135 6.69972 18.8514 6.87502 18.4761C7.05032 18.1008 6.8882 17.6545 6.51291 17.4792C6.07592 17.2751 5.65964 17.0337 5.26815 16.7591Z" fill="#512FC9"/>
<path d="M14.2803 7.21967C14.5732 7.51256 14.5732 7.98744 14.2803 8.28033L9.03033 13.5303C8.73744 13.8232 8.26256 13.8232 7.96967 13.5303L5.71967 11.2803C5.42678 10.9874 5.42678 10.5126 5.71967 10.2197C6.01256 9.92678 6.48744 9.92678 6.78033 10.2197L8.5 11.9393L13.2197 7.21967C13.5126 6.92678 13.9874 6.92678 14.2803 7.21967Z" fill="#512FC9"/>
</svg>
