<svg width="59" height="69" viewBox="0 0 59 69" fill="none" xmlns="http://www.w3.org/2000/svg">
<g opacity="0.2">
<path opacity="0.2" d="M58.218 29.4079L58.119 64.2847C58.119 64.7959 57.7572 65.0029 57.3108 64.7455L39.7518 54.6079L28.689 48.2053L10.1094 37.4953C9.66484 37.2379 9.30664 36.6169 9.30664 36.1057L9.40564 1.22889C9.40564 0.717695 9.76744 0.512494 10.212 0.768094L57.4134 28.0165C57.858 28.2739 58.218 28.8949 58.2162 29.4061L58.218 29.4079Z" fill="#4C7F8E"/>
</g>
<path d="M19.5283 55.9147V52.3147L30.6883 58.7047V62.3947L19.5283 55.9147Z" fill="#74929F"/>
<path d="M19.5283 55.9148L17.2783 57.1748L33.1183 66.3548L30.6883 62.3948L19.5283 55.9148Z" fill="url(#paint0_linear_1771_5101)"/>
<path d="M33.1185 66.3546L36.4485 64.3746C36.4485 64.3746 37.4385 65.3646 37.0785 65.9046C36.7185 66.4446 34.0185 68.1546 33.3885 68.1546C32.7585 68.1546 17.3685 58.9746 17.3685 58.9746C16.9185 58.7046 16.7385 58.1646 16.7385 58.1646C16.7385 58.1646 16.2885 57.4446 17.0085 57.0846L19.7985 55.4646L19.5285 55.9146L17.2785 57.1746L33.1185 66.3546Z" fill="#5E2AD8"/>
<path d="M34.0185 60.4148L36.4485 64.3748L33.1185 66.3548L30.6885 62.3948L34.0185 60.4148Z" fill="#EFF1F3"/>
<path d="M34.0185 60.4147V58.3447H30.6885V62.3947L34.0185 60.4147Z" fill="#83A2AC"/>
<path d="M52.26 31.5284L52.161 66.4052C52.161 66.659 52.0692 66.839 51.9252 66.9218L48.6492 68.8262C48.795 68.7434 48.8832 68.5634 48.885 68.3096L48.984 33.4328C48.9858 32.9216 48.6258 32.2988 48.1812 32.0432L0.981581 4.79122C0.758381 4.66162 0.55498 4.64902 0.40918 4.73542L3.68518 2.83102C3.83098 2.74462 4.03438 2.75722 4.25758 2.88682L51.4572 30.1388C51.9018 30.3962 52.2618 31.0172 52.26 31.5284Z" fill="#EFF1F3"/>
<path d="M21.2856 47.6527C21.3432 47.6851 21.39 47.7661 21.39 47.8327V48.7201C21.3864 48.7867 21.3396 48.8137 21.282 48.7795L20.3046 48.2143C20.247 48.1819 20.2002 48.1009 20.2002 48.0343V47.1469C20.2038 47.0821 20.2506 47.0551 20.3082 47.0875L21.2856 47.6527Z" fill="white"/>
<path d="M23.2114 48.7652C23.269 48.7976 23.3158 48.8786 23.3158 48.9452V49.8326C23.3122 49.8992 23.2654 49.9262 23.2096 49.892L22.2304 49.3268C22.1728 49.2944 22.126 49.2134 22.126 49.1468V48.2594C22.1296 48.1946 22.1764 48.1676 22.2322 48.2L23.2114 48.7652Z" fill="#F4F6F7"/>
<path d="M5.63075 37.6338L5.62176 40.6686L2.27915 38.739C1.94075 38.5428 1.66715 38.0694 1.66895 37.6806L1.67435 35.3496L5.63075 37.6338Z" fill="#98B3BC"/>
<path d="M19.1596 45.4442L47.5005 61.808L47.4934 64.0742C47.4934 64.5008 47.1891 64.6736 46.8183 64.4594L2.34216 38.777C1.93356 38.5412 1.66715 38.0804 1.66895 37.7024C1.66895 38.0678 1.94075 38.5412 2.27915 38.7356L5.62176 40.6652L5.63075 37.6304L5.62716 40.6688L19.1524 48.4772L19.1614 45.4424L19.1596 45.4442ZM21.388 48.722V47.8346C21.3916 47.7698 21.3448 47.6888 21.2872 47.6546L20.3098 47.0894C20.2522 47.057 20.2054 47.0822 20.2054 47.1488V48.0362C20.2018 48.1028 20.2486 48.1838 20.3062 48.2162L21.2836 48.7814C21.3412 48.8138 21.388 48.7886 21.388 48.722ZM23.3122 49.8344V48.947C23.3158 48.8822 23.269 48.8012 23.2114 48.767L22.2322 48.2018C22.1746 48.1694 22.1278 48.1964 22.1278 48.2612V49.1486C22.1242 49.2152 22.171 49.2962 22.2286 49.3286L23.2078 49.8938C23.2654 49.9262 23.3122 49.8992 23.3122 49.8344Z" fill="#7C939D"/>
<path d="M39.7826 58.3118C39.8127 58.3333 39.8377 58.3618 39.8557 58.395C39.8737 58.4281 39.8841 58.4652 39.8862 58.5032V59.4352C39.8862 59.5018 39.8384 59.5351 39.7826 59.5018L38.8019 58.9026C38.771 58.884 38.7452 58.8574 38.727 58.8253C38.7089 58.7932 38.699 58.7568 38.6982 58.7196V57.7959C38.6982 57.721 38.7461 57.696 38.8019 57.7293L39.7826 58.3118Z" fill="white"/>
<path d="M45.5551 61.6137C45.5873 61.6347 45.614 61.663 45.633 61.6963C45.652 61.7295 45.6627 61.7667 45.6643 61.8049V62.7359C45.6643 62.8024 45.6139 62.8274 45.5551 62.7941L44.5135 62.2039C44.4813 62.1829 44.4546 62.1546 44.4356 62.1213C44.4166 62.0881 44.4059 62.0509 44.4043 62.0127V61.0816C44.4043 61.0151 44.4547 60.9902 44.5135 61.0235L45.5551 61.6137Z" fill="#5E2AD8"/>
<path d="M41.71 59.4321C41.7418 59.4492 41.7684 59.4754 41.7866 59.5076C41.8048 59.5398 41.8139 59.5768 41.8129 59.6142V60.5412C41.8129 60.6157 41.7654 60.6405 41.71 60.6074L40.7359 60.0197C40.7045 59.9992 40.6781 59.9713 40.6589 59.9383C40.6396 59.9052 40.628 59.8679 40.625 59.8294V58.9024C40.625 58.8279 40.6725 58.8031 40.728 58.8362L41.71 59.4321Z" fill="#F4F6F7"/>
<path d="M43.6293 60.518C43.6631 60.5372 43.691 60.5651 43.7103 60.5987C43.7295 60.6322 43.7392 60.6702 43.7385 60.7088V61.6379C43.7385 61.7043 43.6881 61.7292 43.6293 61.696L42.5961 61.107C42.5624 61.0869 42.534 61.0591 42.5135 61.0259C42.4931 60.9926 42.481 60.955 42.4785 60.9162V59.987C42.4785 59.9206 42.5289 59.8875 42.5877 59.9289L43.6293 60.518Z" fill="#E4EAED"/>
<path d="M5.634 37.6357L19.1592 45.4441L19.1502 48.4789L5.625 40.6705L5.634 37.6357ZM7.9182 41.1439L7.9218 39.8605C7.9218 39.7759 7.8624 39.6715 7.7886 39.6301L6.6726 38.9857C6.5988 38.9425 6.5394 38.9767 6.5394 39.0613L6.5358 40.3447C6.5358 40.4293 6.5952 40.5319 6.669 40.5751L7.785 41.2195C7.8588 41.2609 7.9182 41.2267 7.9182 41.1439Z" fill="#7C939D"/>
<path d="M7.78893 39.6302C7.86273 39.6716 7.92213 39.776 7.92213 39.8606L7.91853 41.144C7.91853 41.2286 7.85733 41.2628 7.78533 41.2196L6.66933 40.5752C6.59553 40.532 6.53613 40.4294 6.53613 40.3448L6.53973 39.0614C6.53973 38.9768 6.60093 38.9426 6.67293 38.9858L7.78893 39.6302Z" fill="white"/>
<path d="M47.5802 33.9041L47.501 61.8059L19.16 45.4439L5.6348 37.6355L1.6748 35.3495L1.75401 7.44591C1.75581 7.01931 2.06001 6.84651 2.43261 7.06071L46.9088 32.7395C47.2796 32.9537 47.5838 33.4775 47.5802 33.9041Z" fill="white"/>
<g opacity="0.8">
<path opacity="0.8" d="M47.5802 33.9041L47.501 61.8059L19.16 45.4439L5.6348 37.6355L1.6748 35.3495L1.75401 7.44591C1.75581 7.01931 2.06001 6.84651 2.43261 7.06071L46.9088 32.7395C47.2796 32.9537 47.5838 33.4775 47.5802 33.9041Z" fill="url(#paint1_linear_1771_5101)"/>
</g>
<path d="M2.43262 7.06114L5.70862 5.15674L50.1848 30.8355L46.9088 32.7399L2.43262 7.06114Z" fill="white"/>
<path d="M28.8799 55.2844C29.0395 55.39 29.1724 55.5319 29.2677 55.6985C29.3631 55.8652 29.4183 56.052 29.429 56.2441C29.429 56.5987 29.1804 56.7343 28.8799 56.557L20.7982 51.863C20.6379 51.758 20.5047 51.6163 20.4092 51.4495C20.3138 51.2827 20.2589 51.0956 20.249 50.9033C20.249 50.5591 20.4977 50.4131 20.8085 50.5904L28.8799 55.2844Z" fill="#C0C0C0"/>
<path d="M48.2728 32.0882L1.07322 4.83798C0.628617 4.58058 0.266816 4.78758 0.265016 5.29878L0.166016 40.1756C0.166016 40.6868 0.524217 41.3096 0.968817 41.567L19.5466 52.2788L30.6094 58.6814L48.1684 68.819C48.613 69.0764 48.9748 68.8694 48.9766 68.3582L49.0756 33.4814C49.0756 32.9702 48.7174 32.3474 48.2728 32.0918V32.0882ZM28.3018 56.0354L22.1278 52.4714C21.8956 52.3364 21.7066 52.0088 21.7066 51.7424C21.7066 51.476 21.8974 51.3662 22.1296 51.5012L28.3036 55.067C28.5358 55.2002 28.7248 55.5296 28.7248 55.796C28.7248 56.0624 28.534 56.1722 28.3018 56.0372V56.0354ZM47.5006 61.8098L47.4934 64.076C47.4934 64.5026 47.1892 64.6754 46.8166 64.4594L2.26122 38.732C1.93182 38.5412 1.66722 38.0822 1.66722 37.6124L1.75362 7.44618C1.75362 7.01958 2.05962 6.84678 2.43042 7.06098L46.9066 32.7398C47.2774 32.954 47.5816 33.4778 47.5798 33.9044L47.5006 61.8062" fill="#EFF1F3"/>
<path d="M48.2728 32.0882L1.07322 4.83798C0.628617 4.58058 0.266816 4.78758 0.265016 5.29878L0.166016 40.1756C0.166016 40.6868 0.524217 41.3096 0.968817 41.567L19.5466 52.2788L30.6094 58.6814L48.1684 68.819C48.613 69.0764 48.9748 68.8694 48.9766 68.3582L49.0756 33.4814C49.0756 32.9702 48.7174 32.3474 48.2728 32.0918V32.0882ZM47.5006 61.8098L47.4934 64.076C47.4934 64.5026 47.1892 64.6754 46.8166 64.4594L2.26122 38.732C1.93182 38.5412 1.66722 38.0822 1.66722 37.6124L1.75362 7.44618C1.75362 7.01958 2.05962 6.84678 2.43042 7.06098L46.9066 32.7398C47.2774 32.954 47.5816 33.4778 47.5798 33.9044L47.5006 61.8062" fill="url(#paint2_radial_1771_5101)"/>
<path d="M2.3419 38.7786C2.3167 38.7642 2.2933 38.7462 2.2681 38.73L2.2627 38.7336L20.3995 49.206L2.3419 38.7804V38.7786ZM21.3571 48.7884C21.3571 48.7884 21.3391 48.7938 21.3301 48.7938C21.3391 48.7938 21.3499 48.7938 21.3571 48.7884ZM21.3229 48.7956C21.3103 48.7956 21.2959 48.7902 21.2815 48.7812C21.2959 48.7902 21.3103 48.7938 21.3229 48.7956ZM3.45969 38.0352L2.82429 38.4042L3.4579 38.8722V38.0352H3.45969ZM45.6319 62.8086C45.6319 62.8086 45.6211 62.8086 45.6175 62.8122C45.6229 62.8122 45.6283 62.8122 45.6319 62.8086ZM43.7077 61.698C43.7077 61.698 43.6951 61.7016 43.6879 61.7016C43.6951 61.7016 43.7023 61.7016 43.7077 61.698ZM43.6735 61.7052C43.6609 61.7052 43.6465 61.6998 43.6321 61.6908C43.6465 61.6998 43.6609 61.7034 43.6735 61.7052ZM43.7383 61.6296L43.6339 61.6908C43.6681 61.671 43.7041 61.6494 43.7383 61.6296ZM41.7493 60.5928C41.7367 60.5928 41.7223 60.5874 41.7079 60.5784C41.7223 60.5874 41.7367 60.591 41.7493 60.5928ZM41.7817 60.5856C41.7817 60.5856 41.7655 60.591 41.7565 60.591C41.7655 60.591 41.7745 60.591 41.7817 60.5856ZM39.8575 59.475C39.8485 59.4804 39.8359 59.4822 39.8251 59.4822C39.8377 59.4822 39.8485 59.4822 39.8575 59.475ZM23.2831 49.899C23.2741 49.9044 23.2615 49.9062 23.2507 49.9062C23.2633 49.9062 23.2741 49.9062 23.2831 49.899ZM45.3475 61.5504L45.0739 61.7088C45.1639 61.6566 45.2557 61.6044 45.3475 61.5504ZM39.5731 58.2168L39.3787 58.3302C39.4435 58.2924 39.5065 58.2564 39.5731 58.2168ZM38.7343 57.7686C38.7163 57.7794 38.7037 57.8028 38.7037 57.8352C38.7037 57.8028 38.7145 57.7794 38.7343 57.7686Z" fill="#EFF1F3"/>
<path d="M2.28125 38.7373L2.29925 38.7481C2.29925 38.7481 2.28845 38.7409 2.28305 38.7373H2.28125ZM3.46025 38.0515L2.83565 38.4151L3.45845 38.8741V38.0515H3.46025Z" fill="#C8D6DC"/>
<path d="M3.45963 37.965L3.31203 37.8804L2.64062 38.271L3.45783 38.8722L3.45963 37.965Z" fill="#98B3BC"/>
<path d="M1.07324 4.83799L4.35104 2.93359L51.5506 30.1838L48.2728 32.0882L1.07324 4.83799Z" fill="#EFF1F3"/>
<path d="M52.26 31.5284L52.161 66.4052C52.161 66.659 52.0692 66.839 51.9252 66.9218L48.6492 68.8262C48.795 68.7434 48.8832 68.5634 48.885 68.3096L48.984 33.4328C48.9858 32.9216 48.6258 32.2988 48.1812 32.0432L0.981581 4.79122C0.758381 4.66162 0.55498 4.64902 0.40918 4.73542L3.68518 2.83102C3.83098 2.74462 4.03438 2.75722 4.25758 2.88682L51.4572 30.1388C51.9018 30.3962 52.2618 31.0172 52.26 31.5284Z" fill="#5E2AD8"/>
<path d="M52.26 31.4581L52.161 66.3349C52.161 66.5887 52.0692 66.7687 51.9252 66.8515L48.6492 68.7559C48.795 68.6731 48.8832 68.4931 48.885 68.2393L48.984 33.3625C48.9858 32.8513 48.6258 32.2285 48.1812 31.9729L0.981581 4.72091C0.758381 4.59131 0.55498 4.57871 0.40918 4.66511L3.68518 2.76071C3.83098 2.67431 4.03438 2.68691 4.25758 2.81651L51.4572 30.0667C51.9018 30.3241 52.2618 30.9451 52.26 31.4563V31.4581Z" fill="url(#paint3_radial_1771_5101)"/>
<path d="M4.69845 20.2547L5.68126 21.7055L5.67045 25.2695V26.1065L5.24205 25.4945L5.24565 24.4559C5.24565 24.3803 5.19345 24.2885 5.12685 24.2489L4.68945 23.9969L4.70025 20.2529L4.69845 20.2547Z" fill="#E6EAEC"/>
<path d="M5.12538 24.2526C5.19198 24.2904 5.24598 24.384 5.24418 24.4596L5.24058 25.4982V25.9608C5.24058 26.0364 5.18478 26.067 5.11818 26.0292L3.81318 25.275C3.74658 25.2372 3.69258 25.1436 3.69438 25.068L3.69798 23.5668C3.69798 23.4912 3.75198 23.4606 3.81858 23.4984L4.68618 23.9988L5.12358 24.2508L5.12538 24.2526Z" fill="#5E2AD8"/>
<path d="M7.42426 21.8282L7.41526 25.1672C7.47826 25.3112 7.54127 25.457 7.60247 25.601C7.59887 25.8638 7.59526 26.1266 7.59166 26.3894C6.95086 26.0168 6.31006 25.6442 5.66926 25.2716L5.68006 21.7076L4.69727 20.2568L7.42247 21.83L7.42426 21.8282Z" fill="#B0C4C9"/>
<path d="M5.19569 32.4876C5.26229 32.5254 5.31629 32.619 5.31449 32.6946L5.31089 33.7332V34.1958C5.31089 34.2714 5.25509 34.302 5.18849 34.2642L3.88349 33.51C3.81689 33.4722 3.76289 33.3786 3.76469 33.303L3.76829 31.8036C3.76829 31.728 3.82229 31.6974 3.88889 31.7352L4.75649 32.2356L5.19389 32.4876H5.19569Z" fill="#5E2AD8"/>
<path d="M8.28425 34.5019V34.7845L6.26465 33.618V33.3354L8.28425 34.5019Z" fill="#B0C4C9"/>
<path d="M4.76877 28.4915L5.75157 29.9423L5.74077 33.5117V34.3433L5.31237 33.7313L5.31597 32.6927C5.31597 32.6171 5.26197 32.5235 5.19717 32.4857L4.75977 32.2337L4.77057 28.4897L4.76877 28.4915Z" fill="#E6EAEC"/>
<path d="M8.2862 34.0481L8.2844 34.3307L6.2666 33.1643V32.8835L8.2862 34.0481Z" fill="#B0C4C9"/>
<path d="M7.73668 31.91V32.0504L6.27148 31.2044V31.064L7.73668 31.91Z" fill="#B0C4C9"/>
<path d="M7.84894 32.205L8.47354 32.565L8.46634 35.4198L6.11914 34.0644V33.7332L6.12994 30.45L7.49254 31.2366L7.85254 31.4454V32.205H7.84894ZM8.28454 33.879V33.1248L6.26854 31.9584V32.7126L8.28454 33.879ZM8.28274 34.7844V34.5018L6.26494 33.3354V33.618L8.28274 34.7844ZM8.28274 34.3308V34.0482L6.26494 32.8818V33.1644L8.28274 34.3308ZM8.28634 32.9466V32.664L6.26854 31.4976V31.7802L8.28634 32.9466ZM6.26854 31.0638V31.2042L7.73374 32.0502V31.9098L6.26854 31.0638Z" fill="#E6EAEC"/>
<path d="M8.288 33.1249L8.2862 33.8773L6.2666 32.7127L6.2702 31.9585L8.288 33.1249Z" fill="#B0C4C9"/>
<path d="M8.29011 32.6641L8.28831 32.9467L6.27051 31.7803V31.4995L8.29011 32.6641Z" fill="#B0C4C9"/>
<path d="M7.85043 31.4453L8.47323 32.5649L7.84863 32.2049L7.85043 31.4453Z" fill="#B0C4C9"/>
<path d="M7.49375 30.0649L7.49015 31.2367L6.12756 30.4501L6.11855 33.7351L5.74055 33.5119L5.74955 29.9425L4.76855 28.4917L7.49375 30.0649Z" fill="#B0C4C9"/>
<path d="M4.57458 11.6599L8.05758 14.9359L8.04858 17.9005L4.56738 14.6281L4.57458 11.6599Z" fill="#5E2AD8"/>
<path d="M4.1519 15.2868L7.14169 18.1794L7.00669 18.1722L5.8097 18.1056L2.89009 15.2454L2.74609 15.105L4.1519 15.2868Z" fill="#E6EAEC"/>
<path d="M2.74594 15.105L2.88994 15.2454L5.80954 18.1056L7.00654 18.1722L7.14154 18.1794V18.3018L5.80954 18.228L2.74414 15.2274L2.74594 15.105Z" fill="#B0C4C9"/>
<path d="M6.21078 16.248L7.14498 17.1264V17.1714C7.14498 17.2596 7.08198 17.2956 7.00458 17.2506L6.34759 16.8708C6.27019 16.8258 6.20898 16.7178 6.20898 16.6314V16.248H6.21078Z" fill="#E6EAEC"/>
<path d="M6.20946 16.4945V16.6313C6.20946 16.7195 6.27066 16.8275 6.34806 16.8707L7.00506 17.2505C7.08246 17.2955 7.14365 17.2595 7.14546 17.1713V17.1263L7.78266 17.7257C7.73226 17.8571 7.22286 17.6915 6.60366 17.3333C5.95026 16.9571 5.42106 16.5089 5.42286 16.3361C5.42286 16.1993 5.75225 16.2731 6.21125 16.4945H6.20946Z" fill="#B0C4C9"/>
<path d="M4.48654 11.5015L8.14594 14.9431L8.13694 18.0589L7.78054 17.7241L7.14334 17.1247L6.20914 16.2463L4.47754 14.6191L4.48654 11.5015ZM8.04874 17.9005L8.05774 14.9341L4.57474 11.6599L4.56574 14.6263L8.04874 17.9005Z" fill="#E6EAEC"/>
<path d="M4.77433 11.5861L8.34193 14.9521L8.33293 18.0661L8.13673 18.0589L8.14573 14.9431L4.48633 11.5015L4.77433 11.5861Z" fill="#B0C4C9"/>
<path d="M13.8216 21.0774C13.8882 21.1152 13.9404 21.207 13.9404 21.2826L13.9368 22.3194V22.782C13.9368 22.8576 13.881 22.8882 13.8162 22.8504L12.5094 22.0962C12.4428 22.0584 12.3906 21.9666 12.3906 21.891L12.3942 20.3898C12.3942 20.3142 12.4482 20.2836 12.5148 20.3214L13.3824 20.8218L13.8198 21.0738L13.8216 21.0774Z" fill="#5E2AD8"/>
<path d="M13.3946 17.0796L13.5566 17.319L14.3756 18.5304L14.3648 22.2636V22.9314L13.9364 22.3194L13.94 21.2826C13.94 21.207 13.8878 21.1152 13.8212 21.0774L13.3838 20.8254L13.3946 17.0814V17.0796Z" fill="#E6EAEC"/>
<path d="M16.1197 18.6528L16.1179 19.2252L13.8931 17.4954L13.8913 17.6466L13.5565 17.3028V17.319L13.3945 17.0796L16.1197 18.6528Z" fill="#B0C4C9"/>
<path d="M13.5566 17.303L13.8914 17.6468L15.5528 19.3568L15.5438 22.8002L15.542 23.4842L14.3648 22.2638L14.3756 18.5306L13.5566 17.3192V17.303Z" fill="#B0C4C9"/>
<path d="M13.8934 17.4956L16.1182 19.2254L16.4764 19.5026L16.4656 23.648L15.544 22.8002L15.553 19.3568L13.8916 17.6468L13.8934 17.4956Z" fill="#E6EAEC"/>
<path d="M13.9341 26.7854L13.9305 27.8276L14.8377 28.3514C14.8377 28.9292 14.4291 29.1614 13.9269 28.8716C13.4247 28.5818 13.0215 27.8816 13.0215 27.3038C13.0215 26.7278 13.4301 26.4956 13.9323 26.7854H13.9341Z" fill="#E6EAEC"/>
<path d="M14.9961 29.9785L16.6071 30.9091L16.6053 31.1017L14.9961 30.1729V29.9785Z" fill="#5E2AD8"/>
<path d="M13.9344 26.7852C14.4366 27.075 14.8398 27.7752 14.8398 28.3512L13.9326 27.8274L13.9362 26.7852H13.9344Z" fill="#5E2AD8"/>
<path d="M16.6113 29.0694L16.6095 29.7678L15.5547 29.1594L15.5565 28.4592L16.6113 29.0694Z" fill="#5E2AD8"/>
<path d="M16.6129 28.4807L16.6111 29.0693L15.5563 28.4591L15.5545 29.1593L16.6093 29.7677L16.6075 30.4175L15.5527 29.8091L15.5545 29.3879V29.2943L15.5581 27.8723L16.6129 28.4807Z" fill="#E6EAEC"/>
<path d="M17.0628 28.1117C17.1132 28.1405 17.1564 28.2125 17.1546 28.2719L17.1438 31.8881C17.1438 31.9475 17.1024 31.9709 17.0502 31.9403L12.6114 29.3771C12.561 29.3483 12.5178 29.2763 12.5196 29.2169L12.5304 25.6007C12.5304 25.5413 12.5718 25.5179 12.624 25.5467L17.0628 28.1099V28.1117ZM16.611 29.0675V28.4789L15.558 27.8705L15.5544 29.2925L15.2124 29.0945V28.5185L14.8398 28.3025V28.3493C14.8398 27.7733 14.4366 27.0731 13.9344 26.7833C13.4322 26.4935 13.0254 26.7257 13.0236 27.3017C13.0236 27.8795 13.4268 28.5797 13.929 28.8695C14.4312 29.1593 14.838 28.9271 14.8398 28.3493V28.3979L15.1314 28.5671V29.1431L15.5544 29.3879V29.8091L16.6092 30.4175V29.7677L16.6128 29.0675H16.611ZM16.6074 31.0997V30.9071L14.9982 29.9783V29.7677L14.487 29.4725V29.6831L13.1118 28.8893V29.0819L14.4852 29.8757V30.0593L14.9964 30.3545V30.1709L16.6074 31.0997Z" fill="#B0C4C9"/>
<path d="M15.2142 28.5204L15.2124 29.0964L15.5544 29.2944V29.388L15.1296 29.1432L15.1314 28.569L14.8398 28.3998V28.3044L15.2142 28.5204Z" fill="#5E2AD8"/>
<path d="M13.1104 29.084V28.8914L14.4856 29.6834V29.8778L13.1104 29.084Z" fill="#5E2AD8"/>
<path d="M14.9964 29.7679V29.9785V30.1729L14.9946 30.3565L14.4834 30.0613L14.4852 29.8777V29.6833V29.4727L14.9964 29.7679Z" fill="#E6EAEC"/>
<path d="M15.9831 36.1524V36.309L14.7285 35.5836V35.427L15.9831 36.1524Z" fill="#B0C4C9"/>
<path d="M14.1521 34.7791C14.2205 34.8187 14.2745 34.9123 14.2745 34.9897L14.2691 36.6403C14.2691 36.7177 14.2133 36.7501 14.1467 36.7105L12.7337 35.8951C12.6653 35.8555 12.6113 35.7619 12.6113 35.6845L12.6167 34.0339C12.6167 33.9565 12.6725 33.9241 12.7391 33.9637L14.1521 34.7791Z" fill="#E6EAEC"/>
<path d="M14.4039 34.5792C14.4957 34.6314 14.5695 34.761 14.5695 34.8672L14.5623 37.1082C14.5623 37.2144 14.4867 37.2576 14.3949 37.2036L12.8919 36.336L12.4761 36.0966C12.3843 36.0444 12.3105 35.9148 12.3105 35.8086L12.3177 33.5676C12.3177 33.4614 12.3933 33.42 12.4851 33.4722L12.9009 33.7116L14.4039 34.5792ZM14.2671 36.6402L14.2725 34.9896C14.2725 34.9122 14.2185 34.8168 14.1501 34.779L12.7371 33.9636C12.6687 33.924 12.6147 33.9564 12.6147 34.0338L12.6093 35.6844C12.6093 35.7618 12.6633 35.8572 12.7317 35.895L14.1447 36.7104C14.2131 36.75 14.2671 36.7176 14.2671 36.6402Z" fill="#B0C4C9"/>
<path d="M15.9812 36.9245V37.0811L14.7266 36.3575V36.2009L15.9812 36.9245Z" fill="#B0C4C9"/>
<path d="M15.983 36.5144L15.9812 36.671L14.7266 35.9474L14.7284 35.7908L15.983 36.5144Z" fill="#B0C4C9"/>
<path d="M15.2809 33.8142L16.3123 35.5656L15.2773 34.968L15.2809 33.8142Z" fill="#B0C4C9"/>
<path d="M15.2776 34.9679L16.3144 35.5655L16.3036 39.5597L12.8926 37.5905L12.8962 36.3341L14.3992 37.2017C14.491 37.2539 14.5666 37.2125 14.5666 37.1063L14.5738 34.8653C14.5738 34.7591 14.5 34.6313 14.4082 34.5773L12.9052 33.7097L12.9088 32.4407L15.283 33.8123L15.2794 34.9661L15.2776 34.9679ZM15.9796 37.4627V37.3061L14.725 36.5825V36.7391L15.9796 37.4627ZM15.9814 36.6707V36.5141L14.7268 35.7905V35.9471L15.9814 36.6707ZM15.9814 37.0811V36.9245L14.7268 36.2009V36.3575L15.9814 37.0811ZM15.9832 36.3071V36.1505L14.7286 35.4269V35.5835L15.9832 36.3071Z" fill="#E6EAEC"/>
<path d="M15.9792 37.3062V37.4628L14.7246 36.7392V36.5808L15.9792 37.3062Z" fill="#B0C4C9"/>
<path d="M32.8468 31.2598L32.8234 39.4606L25.6846 35.3404L25.708 27.1396L32.8468 31.2598Z" fill="#C8D6DC"/>
<path d="M40.4446 35.6485L40.4212 43.8475L33.2842 39.7273L33.3076 31.5283L40.4446 35.6485Z" fill="#C8D6DC"/>
<path d="M32.8224 39.9918L32.799 48.1926L25.6602 44.0706L25.6836 35.8716L32.8224 39.9918Z" fill="#C8D6DC"/>
<path d="M40.4192 44.3785L40.3958 52.5793L33.2588 48.4591L33.2822 40.2583L40.4192 44.3785Z" fill="#C8D6DC"/>
<path d="M3.53262 36.9624L3.53082 37.9182L2.69922 37.4376L2.70102 36.4836L3.53262 36.9624Z" fill="white"/>
<path d="M4.41836 37.4734L4.41656 38.4292L3.58496 37.9486L3.58676 36.9946L4.41836 37.4734Z" fill="white"/>
<path d="M3.53051 37.9811L3.52691 38.9351L2.69531 38.4563L2.69891 37.5005L3.53051 37.9811Z" fill="white"/>
<path d="M4.41625 38.4923L4.41266 39.4481L3.58105 38.9675L3.58466 38.0117L4.41625 38.4923Z" fill="white"/>
<defs>
<linearGradient id="paint0_linear_1771_5101" x1="28.1683" y1="60.7748" x2="17.3683" y2="57.1748" gradientUnits="userSpaceOnUse">
<stop offset="0.107383" stop-color="#8CACB7"/>
<stop offset="1" stop-color="#C9D7DD"/>
</linearGradient>
<linearGradient id="paint1_linear_1771_5101" x1="137.919" y1="-11.2057" x2="-13.9366" y2="49.9907" gradientUnits="userSpaceOnUse">
<stop offset="0.35" stop-color="#4C7F8E" stop-opacity="0.5"/>
<stop offset="0.44" stop-color="#4C7F8E" stop-opacity="0.47"/>
<stop offset="0.54" stop-color="#4C7F8E" stop-opacity="0.37"/>
<stop offset="0.65" stop-color="#4C7F8E" stop-opacity="0.21"/>
<stop offset="0.75" stop-color="#4C7F8E" stop-opacity="0"/>
<stop offset="1" stop-color="#4C7F8E" stop-opacity="0"/>
</linearGradient>
<radialGradient id="paint2_radial_1771_5101" cx="0" cy="0" r="1" gradientUnits="userSpaceOnUse" gradientTransform="translate(24.6208 36.8258) scale(28.5336 28.5336)">
<stop offset="0.41" stop-color="#88959B" stop-opacity="0.28"/>
<stop offset="0.615" stop-color="#88959B" stop-opacity="0.3"/>
<stop offset="0.87" stop-color="#88959B" stop-opacity="0.619608"/>
<stop offset="1" stop-color="#88959B" stop-opacity="0.6"/>
</radialGradient>
<radialGradient id="paint3_radial_1771_5101" cx="0" cy="0" r="1" gradientUnits="userSpaceOnUse" gradientTransform="translate(73.626 7.26611) scale(86.6808 86.6808)">
<stop stop-color="white" stop-opacity="0.6"/>
<stop offset="0.13" stop-color="white" stop-opacity="0.42"/>
<stop offset="0.21" stop-color="white" stop-opacity="0.3"/>
<stop offset="0.54" stop-color="white" stop-opacity="0"/>
</radialGradient>
</defs>
</svg>
