<svg width="26" height="26" viewBox="0 0 26 26" fill="none" xmlns="http://www.w3.org/2000/svg">
<path fill-rule="evenodd" clip-rule="evenodd" d="M13.0036 6C10.8546 6 8.90763 7.41652 8.24627 9.46126C7.66779 11.2497 8.16802 13.2246 9.46817 14.5337L8.10708 17.9448C7.71762 18.9227 8.44576 19.9982 9.49833 19.9998H16.5014C17.5538 19.9982 18.2818 18.9226 17.8926 17.9448L16.5382 14.5346C17.839 13.2255 18.3396 11.2501 17.7609 9.46126C17.0996 7.41652 15.1526 6 13.0036 6ZM10.1492 10.0768C10.5436 8.85735 11.722 8 13.0036 8C14.2852 8 15.4636 8.85735 15.858 10.0768C16.2524 11.2962 15.7993 12.6812 14.7605 13.4317C14.3893 13.6999 14.2477 14.1859 14.4167 14.6115L15.7625 17.9998H10.2385L11.5899 14.6129C11.7598 14.1871 11.6184 13.7003 11.2467 13.4317C10.2079 12.6812 9.7548 11.2962 10.1492 10.0768Z" fill="#512FC9"/>
<path fill-rule="evenodd" clip-rule="evenodd" d="M13 0C5.8203 0 0 5.8203 0 13C0 20.1797 5.8203 26 13 26C20.1797 26 26 20.1797 26 13C26 5.8203 20.1797 0 13 0ZM2 13C2 6.92487 6.92487 2 13 2C19.0751 2 24 6.92487 24 13C24 19.0751 19.0751 24 13 24C6.92487 24 2 19.0751 2 13Z" fill="#512FC9"/>
</svg>
